<svg id="Сгруппировать_621" data-name="Сгруппировать 621" xmlns="http://www.w3.org/2000/svg" xmlns:xlink="http://www.w3.org/1999/xlink" width="470.744" height="734.992" viewBox="0 0 470.744 734.992">
  <defs>
    <clipPath id="clip-path">
      <rect id="Прямоугольник_504" data-name="Прямоугольник 504" width="470.744" height="734.992" fill="none"/>
    </clipPath>
  </defs>
  <path id="Контур_911" data-name="Контур 911" d="M127.9,546.4l19.582,10.188,19.622-10.2-19.313-9.97Z" transform="translate(42.536 178.404)" fill="#4b5f7d"/>
  <g id="Сгруппировать_620" data-name="Сгруппировать 620">
    <g id="Сгруппировать_619" data-name="Сгруппировать 619" clip-path="url(#clip-path)">
      <path id="Контур_912" data-name="Контур 912" d="M114.812,304.328c0,19.84-21.865,35.921-48.835,35.921S17.14,324.167,17.14,304.328,39,268.4,65.977,268.4s48.835,16.083,48.835,35.924" transform="translate(5.701 89.267)" fill="#e13e45"/>
      <path id="Контур_913" data-name="Контур 913" d="M107.324,238.065c-8.3,43.949-44.572,71.656-72.852,68.077C12.9,303.413-.654,282.461.024,257.036c.738-27.621,18.279-60.669,45.263-74.789,37.475-19.609,71.623,5.093,62.037,55.818" transform="translate(0 58.378)" fill="#9ed9f9"/>
      <path id="Контур_914" data-name="Контур 914" d="M213.428,29.536l-10.939,5.438V15.194l10.939-5.726Z" transform="translate(67.345 3.149)" fill="#627fb3"/>
      <path id="Контур_915" data-name="Контур 915" d="M210.7,29.536l10.938,5.438V15.194L210.7,9.468Z" transform="translate(70.074 3.149)" fill="#80c4ef"/>
      <path id="Контур_916" data-name="Контур 916" d="M212.454,12.92l-7.041,3.5V3.687L212.454,0Z" transform="translate(68.317 0)" fill="#7b99c7"/>
      <path id="Контур_917" data-name="Контур 917" d="M210.7,12.92l7.043,3.5V3.687L210.7,0Z" transform="translate(70.074 0)" fill="#9ed9f9"/>
      <path id="Контур_918" data-name="Контур 918" d="M57.359,117.152v31.237l-3.433-1.816V115.238Z" transform="translate(17.935 38.327)" fill="#627fb3"/>
      <path id="Контур_919" data-name="Контур 919" d="M57.359,132.516v31.237l-3.433-1.816V130.6Z" transform="translate(17.935 43.436)" fill="#627fb3"/>
      <path id="Контур_920" data-name="Контур 920" d="M215.968,58.485l-19.754,9.821V32.584l19.754-10.341Z" transform="translate(65.258 7.398)" fill="#7b99c7"/>
      <path id="Контур_921" data-name="Контур 921" d="M211.034,58.485l19.754,9.821V32.584L211.034,22.243Z" transform="translate(70.187 7.398)" fill="#9ed9f9"/>
      <path id="Контур_922" data-name="Контур 922" d="M66.114,224.188,35.431,239.442V183.957l30.683-16.063Z" transform="translate(11.784 55.839)" fill="#627fb3"/>
      <path id="Контур_923" data-name="Контур 923" d="M63.385,177.579,43.631,187.4V151.678l19.754-10.341Z" transform="translate(14.511 47.007)" fill="#4b5f7d"/>
      <path id="Контур_924" data-name="Контур 924" d="M35.228,307.472v-82.7L66.3,208.418Z" transform="translate(11.716 69.317)" fill="#627fb3"/>
      <path id="Контур_925" data-name="Контур 925" d="M46.893,303.357.079,326.678V245.227l46.814-24.5Z" transform="translate(0.026 73.409)" fill="#004694"/>
      <path id="Контур_926" data-name="Контур 926" d="M34.545,265.635l-13.209,6.552v-33.68l13.209-6.552Z" transform="translate(7.096 77.145)" fill="#627fb3"/>
      <path id="Контур_927" data-name="Контур 927" d="M34.545,293.028l-13.209,6.551V265.9l13.209-6.551Z" transform="translate(7.096 86.256)" fill="#627fb3"/>
      <path id="Контур_928" data-name="Контур 928" d="M23.572,271.172l-13.209,6.551V244.045l13.209-6.552Z" transform="translate(3.447 78.987)" fill="#627fb3"/>
      <path id="Контур_929" data-name="Контур 929" d="M23.572,298.564l-13.209,6.552v-33.68l13.209-6.551Z" transform="translate(3.447 88.097)" fill="#627fb3"/>
      <path id="Контур_930" data-name="Контур 930" d="M48.184,446.291.378,470.058V383.611l47.805-25.025Z" transform="translate(0.126 119.261)" fill="#004694"/>
      <path id="Контур_931" data-name="Контур 931" d="M48.184,406.386.378,430.151V343.7l47.805-25.023Z" transform="translate(0.126 105.989)" fill="#627fb3"/>
      <path id="Контур_932" data-name="Контур 932" d="M134.943,58.025a13.634,13.634,0,1,1-13.634-13.634,13.634,13.634,0,0,1,13.634,13.634" transform="translate(35.811 14.764)" fill="#627fb3"/>
      <path id="Контур_933" data-name="Контур 933" d="M147.259,45.708a13.634,13.634,0,1,1-13.634-13.632,13.635,13.635,0,0,1,13.634,13.632" transform="translate(39.907 10.668)" fill="#627fb3"/>
      <path id="Контур_934" data-name="Контур 934" d="M354.039,325.015c0,19.84-21.864,35.923-48.835,35.923s-48.837-16.083-48.837-35.923,21.865-35.922,48.837-35.922,48.835,16.083,48.835,35.922" transform="translate(85.264 96.148)" fill="#c2d9f3"/>
      <path id="Контур_935" data-name="Контур 935" d="M258.774,426.9,211.55,450.607l46.355,22.964L304.33,450.9Z" transform="translate(70.358 141.98)" fill="#c2d9f3"/>
      <path id="Контур_936" data-name="Контур 936" d="M140.491,98.1,187.3,121.373V36.719L140.491,12.213Z" transform="translate(46.725 4.062)" fill="#9ed9f9"/>
      <path id="Контур_937" data-name="Контур 937" d="M152.19,98.087,105.376,121.36V36.706L152.19,12.2Z" transform="translate(35.047 4.058)" fill="#c2d9f3"/>
      <path id="Контур_938" data-name="Контур 938" d="M35.374,382.985,82.3,406.316V321.45l-46.93-24.565Z" transform="translate(11.765 98.74)" fill="#80c4ef"/>
      <path id="Контур_939" data-name="Контур 939" d="M35.374,446.686,82.3,470.019V385.153l-46.93-24.566Z" transform="translate(11.765 119.926)" fill="#9ed9f9"/>
      <path id="Контур_940" data-name="Контур 940" d="M70.582,401l46.93,23.331V339.467L70.582,314.9Z" transform="translate(23.475 104.732)" fill="#9ed9f9"/>
      <path id="Контур_941" data-name="Контур 941" d="M70.582,464.7l46.93,23.331V403.168L70.582,378.6Z" transform="translate(23.475 125.918)" fill="#80c4ef"/>
      <path id="Контур_942" data-name="Контур 942" d="M211.147,367.1l46.93,23.331V305.568L211.147,281Z" transform="translate(70.225 93.458)" fill="#80c4ef"/>
      <path id="Контур_943" data-name="Контур 943" d="M211.147,430.8l46.93,23.332V369.271l-46.93-24.565Z" transform="translate(70.225 114.644)" fill="#9ed9f9"/>
      <path id="Контур_944" data-name="Контур 944" d="M245.5,385.119l46.931,23.332V323.585L245.5,299.019Z" transform="translate(81.649 99.45)" fill="#9ed9f9"/>
      <path id="Контур_945" data-name="Контур 945" d="M245.5,448.821l46.931,23.331V387.286L245.5,362.721Z" transform="translate(81.649 120.636)" fill="#80c4ef"/>
      <path id="Контур_946" data-name="Контур 946" d="M143.96,341.119l46.814,23.274V279.739L143.96,255.233Z" transform="translate(47.879 84.887)" fill="#9ed9f9"/>
      <path id="Контур_947" data-name="Контур 947" d="M341.161,220.114v31.237l-3.433-1.816V218.2Z" transform="translate(112.324 72.57)" fill="#00317a"/>
      <path id="Контур_948" data-name="Контур 948" d="M341.161,235.477v31.237l-3.433-1.816V233.564Z" transform="translate(112.324 77.68)" fill="#00317a"/>
      <path id="Контур_949" data-name="Контур 949" d="M264.626,90.108v31.236l-3.434-1.815V88.195Z" transform="translate(86.869 29.332)" fill="#627fb3"/>
      <path id="Контур_950" data-name="Контур 950" d="M264.626,105.471v31.237l-3.434-1.816V103.559Z" transform="translate(86.869 34.442)" fill="#627fb3"/>
      <path id="Контур_951" data-name="Контур 951" d="M274.127,109.96V141.2l-3.433-1.815V108.047Z" transform="translate(90.029 35.935)" fill="#627fb3"/>
      <path id="Контур_952" data-name="Контур 952" d="M274.127,125.324v31.237l-3.433-1.816V123.41Z" transform="translate(90.029 41.044)" fill="#627fb3"/>
      <path id="Контур_953" data-name="Контур 953" d="M327.537,229.159v31.236L324.1,258.58V227.246Z" transform="translate(107.792 75.579)" fill="#627fb3"/>
      <path id="Контур_954" data-name="Контур 954" d="M327.537,244.522v31.237l-3.433-1.816V242.61Z" transform="translate(107.792 80.689)" fill="#627fb3"/>
      <path id="Контур_955" data-name="Контур 955" d="M238.864,251.085c8.3,44.13,44.547,71.949,72.81,68.355,21.56-2.74,35.1-23.777,34.427-49.306-.737-27.735-18.268-60.917-45.237-75.1-37.452-19.689-71.579,5.114-62,56.046" transform="translate(78.9 62.623)" fill="#9ed9f9"/>
      <path id="Контур_956" data-name="Контур 956" d="M316.881,321.414l48.473,23.813-.2-84.1-48.277-25.27Z" transform="translate(105.39 78.442)" fill="#c2d9f3"/>
      <path id="Контур_957" data-name="Контур 957" d="M218.473,105.561,187.79,120.815V65.329l30.683-16.062Z" transform="translate(62.456 16.386)" fill="#627fb3"/>
      <path id="Контур_958" data-name="Контур 958" d="M210.809,105.561l30.683,15.254V65.329L210.809,49.267Z" transform="translate(70.112 16.386)" fill="#80c4ef"/>
      <path id="Контур_959" data-name="Контур 959" d="M215.744,58.952,195.99,68.773V33.05L215.744,22.71Z" transform="translate(65.184 7.553)" fill="#7b99c7"/>
      <path id="Контур_960" data-name="Контур 960" d="M210.81,58.952l19.754,9.821V33.05L210.81,22.71Z" transform="translate(70.112 7.553)" fill="#9ed9f9"/>
      <path id="Контур_961" data-name="Контур 961" d="M218.7,105.561l-30.683,15.254V65.329L218.7,49.267Z" transform="translate(62.531 16.386)" fill="#627fb3"/>
      <path id="Контур_962" data-name="Контур 962" d="M211.033,105.561l30.683,15.254V65.329L211.033,49.267Z" transform="translate(70.187 16.386)" fill="#80c4ef"/>
      <path id="Контур_963" data-name="Контур 963" d="M58.45,224.188l30.683,15.254V183.957L58.45,167.894Z" transform="translate(19.44 55.839)" fill="#80c4ef"/>
      <path id="Контур_964" data-name="Контур 964" d="M58.451,177.579,78.205,187.4V151.678L58.451,141.337Z" transform="translate(19.44 47.007)" fill="#9ed9f9"/>
      <path id="Контур_965" data-name="Контур 965" d="M152.391,424.669l-46.814,23.274V363.287l46.814-24.5Z" transform="translate(35.114 112.675)" fill="#627fb3"/>
      <path id="Контур_966" data-name="Контур 966" d="M140.59,442.357,187.4,465.629V380.974l-46.814-24.5Z" transform="translate(46.758 118.557)" fill="#e65037"/>
      <path id="Контур_967" data-name="Контур 967" d="M70.261,286.255l46.814,24.506V226.106L70.261,201.6Z" transform="translate(23.368 67.05)" fill="#c2d9f3"/>
      <path id="Контур_968" data-name="Контур 968" d="M266.88,152.005l-21.363,10.621V123.995l21.363-11.183Z" transform="translate(81.656 37.52)" fill="#e13e45"/>
      <path id="Контур_969" data-name="Контур 969" d="M261.544,150.869l20.743,10.313V123.671l-20.743-10.859Z" transform="translate(86.986 37.52)" fill="#ea6532"/>
      <path id="Контур_970" data-name="Контур 970" d="M222.353,407l-47.11,24.869V345.233l47.11-24.659Z" transform="translate(58.283 106.618)" fill="#e65037"/>
      <path id="Контур_971" data-name="Контур 971" d="M198.731,353.237,152.551,376.6l-47.8-23.437L151.7,328.5Z" transform="translate(34.838 109.254)" fill="#4b5f7d"/>
      <path id="Контур_972" data-name="Контур 972" d="M273.648,228.98v52.259l-6.115-3.038V225.779Z" transform="translate(88.978 75.091)" fill="#63abe0"/>
      <path id="Контур_973" data-name="Контур 973" d="M273.648,254.683v52.259l-6.115-3.038V251.482Z" transform="translate(88.978 83.639)" fill="#63abe0"/>
      <path id="Контур_974" data-name="Контур 974" d="M233.719,370.261l-47.158,24.65-45.941-24.482,46.222-23.366Z" transform="translate(46.769 115.428)" fill="#00317a"/>
      <path id="Контур_975" data-name="Контур 975" d="M127.912,287.873l-46.863,24.65L34.173,287.856l46.863-23.18Z" transform="translate(11.365 88.027)" fill="#00317a"/>
      <path id="Контур_976" data-name="Контур 976" d="M199.476,470.964l-46.863,24.65-46.876-24.669L152.6,447.766Z" transform="translate(35.166 148.921)" fill="#223a59"/>
      <path id="Контур_977" data-name="Контур 977" d="M163.949,207.822l-46.863,24.65L70.209,207.8l46.863-23.18Z" transform="translate(23.351 61.403)" fill="#7b99c7"/>
      <path id="Контур_978" data-name="Контур 978" d="M152.2,286.534l-46.814,24.5V226.385l46.814-24.5Z" transform="translate(35.051 67.142)" fill="#627fb3"/>
      <path id="Контур_979" data-name="Контур 979" d="M113.262,263.244,82.2,278.686V222.517l31.06-16.259Z" transform="translate(27.339 68.599)" fill="#e65037"/>
      <path id="Контур_980" data-name="Контур 980" d="M105.5,263.244l31.06,15.442V222.517L105.5,206.258Z" transform="translate(35.089 68.599)" fill="#ea6532"/>
      <path id="Контур_981" data-name="Контур 981" d="M265.451,195.538,234.39,210.979V154.812l31.061-16.259Z" transform="translate(77.955 46.081)" fill="#e65037"/>
      <path id="Контур_982" data-name="Контур 982" d="M257.693,195.538l30.792,15.441V154.812l-30.792-16.259Z" transform="translate(85.705 46.081)" fill="#ea6532"/>
      <path id="Контур_983" data-name="Контур 983" d="M110.608,217.519,90.176,227.678V190.729l20.433-10.7Z" transform="translate(29.991 59.876)" fill="#e65037"/>
      <path id="Контур_984" data-name="Контур 984" d="M105.5,217.519l20.433,10.158V190.729l-20.433-10.7Z" transform="translate(35.089 59.876)" fill="#ea6532"/>
      <path id="Контур_985" data-name="Контур 985" d="M210.463,406.008l46.814,24.506V345.859l-46.814-24.5Z" transform="translate(69.997 106.878)" fill="#4b5f7d"/>
      <path id="Контур_986" data-name="Контур 986" d="M257.449,299.837c-1.411,5.236,22.759,79.208,24.225,78.993l-39.207,13.014c-38.12-1.555-31.9-72.655-31.9-72.655Z" transform="translate(69.907 99.722)" fill="#00317a"/>
      <path id="Контур_987" data-name="Контур 987" d="M292.676,334.2c-.294,31.8-11.3,55.8-24.578,53.6s-23.809-29.773-23.515-61.579,11.3-55.8,24.578-53.6,23.809,29.771,23.515,61.577" transform="translate(81.343 90.624)" fill="#ea6532"/>
      <path id="Контур_988" data-name="Контур 988" d="M223.761,445.367c-1.43,5.308,23.076,79.683,24.564,79.466l-39.754,13.2c-38.652-1.578-32.342-73.668-32.342-73.668Z" transform="translate(58.484 148.123)" fill="#00317a"/>
      <path id="Контур_989" data-name="Контур 989" d="M257.391,480.4c-.277,31.692-11.078,55.6-24.125,53.394s-23.4-29.677-23.122-61.368c.027-3.23.245-13.014.482-16.064,2.1-26.864,11.924-39.307,23.641-37.331,13.046,2.2,23.4,29.679,23.123,61.37" transform="translate(69.889 139.297)" fill="#4b5f7d"/>
      <path id="Контур_990" data-name="Контур 990" d="M175.274,368.661l46.919,23.224-.223-85.012-46.7-24.827Z" transform="translate(58.294 93.804)" fill="#ba0315"/>
      <path id="Контур_991" data-name="Контур 991" d="M140.566,288.415l46.814,24.5V228.266l-46.814-24.5Z" transform="translate(46.75 67.768)" fill="#80c4ef"/>
      <path id="Контур_992" data-name="Контур 992" d="M171.476,236.963c-21.73-10.938-34.859-33.329-29.324-50.013s27.641-21.344,49.371-10.406,34.859,33.329,29.324,50.013-27.639,21.344-49.371,10.406" transform="translate(46.857 56.748)" fill="#e8616a"/>
      <rect id="Прямоугольник_496" data-name="Прямоугольник 496" width="0.005" height="0.005" transform="translate(233.593 230.871)" fill="#c2d9f3"/>
      <rect id="Прямоугольник_497" data-name="Прямоугольник 497" width="0.009" height="0.004" transform="translate(280.468 230.872)" fill="#c2d9f3"/>
      <rect id="Прямоугольник_498" data-name="Прямоугольник 498" width="0.009" height="0.004" transform="translate(280.468 230.872)" fill="#c2d9f3"/>
      <rect id="Прямоугольник_499" data-name="Прямоугольник 499" width="0.004" height="0.004" transform="translate(327.349 230.874) rotate(-56.31)" fill="#c2d9f3"/>
      <path id="Контур_993" data-name="Контур 993" d="M221.976,154.863l-.068.036-.071-.036-45.944,24.829,45.944,24.181,46.878-24.5v0Zm-.065,24.508H221.9v0h.009Z" transform="translate(58.5 51.505)" fill="#c2d9f3"/>
      <rect id="Прямоугольник_500" data-name="Прямоугольник 500" width="0.009" height="0.004" transform="translate(280.401 230.872)" fill="#c2d9f3"/>
      <rect id="Прямоугольник_501" data-name="Прямоугольник 501" width="0.009" height="0.004" transform="translate(280.401 230.872)" fill="#c2d9f3"/>
      <path id="Контур_994" data-name="Контур 994" d="M257.217,173.235l-46.806,24.5v0l46.806,24.5.071-.036.069.036,46.806-24.5v0Zm.073,24.506h-.009v0h.009Z" transform="translate(69.98 57.616)" fill="#ea6532"/>
      <rect id="Прямоугольник_502" data-name="Прямоугольник 502" width="0.009" height="0.004" transform="translate(327.26 255.353)" fill="#ea6532"/>
      <rect id="Прямоугольник_503" data-name="Прямоугольник 503" width="0.009" height="0.004" transform="translate(327.26 255.353)" fill="#ea6532"/>
      <path id="Контур_995" data-name="Контур 995" d="M175.291,320.887,222.1,345.393V260.738l-46.812-24.5Z" transform="translate(58.299 78.568)" fill="#80c4ef"/>
      <path id="Контур_996" data-name="Контур 996" d="M140.17,349.782l46.814,24.506V289.633l-46.814-24.5Z" transform="translate(46.619 88.178)" fill="#c2d9f3"/>
      <path id="Контур_997" data-name="Контур 997" d="M175.291,257.825l46.812,24.5V197.676l-46.009-24.181Z" transform="translate(58.299 57.702)" fill="#7b99c7"/>
      <path id="Контур_998" data-name="Контур 998" d="M210.421,276.3l46.814,24.5V216.151l-46.814-24.5Z" transform="translate(69.983 63.739)" fill="#9ed9f9"/>
      <path id="Контур_999" data-name="Контур 999" d="M292.459,276.295l-46.814,24.5V216.146l46.814-24.5Z" transform="translate(81.698 63.737)" fill="#da0e1e"/>
      <path id="Контур_1000" data-name="Контур 1000" d="M257.339,320.965l-46.814,24.5V260.816l46.814-24.5Z" transform="translate(70.018 78.594)" fill="#004694"/>
      <path id="Контур_1001" data-name="Контур 1001" d="M253.01,255.516l-29.478,15.43v-53.3l29.478-15.43Z" transform="translate(74.344 67.252)" fill="#004694"/>
      <path id="Контур_1002" data-name="Контур 1002" d="M245.647,255.516l29.477,15.43v-53.3l-29.477-15.43Z" transform="translate(81.699 67.252)" fill="#63abe0"/>
      <path id="Контур_1003" data-name="Контур 1003" d="M112.152,364.387,80.559,380.249l31.1,16.18,31.165-16.2Z" transform="translate(26.793 121.19)" fill="#00317a"/>
      <path id="Контур_1004" data-name="Контур 1004" d="M245.655,320.8l46.89,24.174-.169-83.876-46.72-24.288Z" transform="translate(81.701 78.76)" fill="#627fb3"/>
      <path id="Контур_1005" data-name="Контур 1005" d="M117.075,332.695,70.262,355.968V271.313l46.814-24.5Z" transform="translate(23.368 82.085)" fill="#004694"/>
      <path id="Контур_1006" data-name="Контур 1006" d="M105.382,332.695,152.2,355.968V271.313l-46.814-24.5Z" transform="translate(35.049 82.085)" fill="#627fb3"/>
      <path id="Контур_1007" data-name="Контур 1007" d="M152.389,469.6l-46.814,22.651V408.216l46.814-24.5Z" transform="translate(35.113 127.617)" fill="#003987"/>
      <path id="Контур_1008" data-name="Контур 1008" d="M140.7,469.6l46.814,21.564V408.216l-46.814-24.5Z" transform="translate(46.793 127.617)" fill="#627fb3"/>
      <path id="Контур_1009" data-name="Контур 1009" d="M222.1,469.483l-46.614,22.746.005-83.085L222.1,384.712Z" transform="translate(58.365 127.95)" fill="#004694"/>
      <path id="Контур_1010" data-name="Контур 1010" d="M210.46,469.483l46.814,23.295V409.248L210.46,384.712Z" transform="translate(69.996 127.95)" fill="#627fb3"/>
      <path id="Контур_1011" data-name="Контур 1011" d="M117.077,206.268,70.264,229.542V144.887l46.814-24.5Z" transform="translate(23.369 40.037)" fill="#e65037"/>
      <path id="Контур_1012" data-name="Контур 1012" d="M82.042,286.234,35.228,309.508V226.8l46.814-24.5Z" transform="translate(11.716 67.281)" fill="#63abe0"/>
      <path id="Контур_1013" data-name="Контур 1013" d="M70.344,309.775V267.364l15.935-8.383Z" transform="translate(23.395 86.133)" fill="#627fb3"/>
      <path id="Контур_1014" data-name="Контур 1014" d="M93.767,305.9,46.9,330.547.028,305.879,46.891,282.7Z" transform="translate(0.009 94.022)" fill="#4b5f7d"/>
      <path id="Контур_1015" data-name="Контур 1015" d="M377.382,323.9l-48.326,25.42-48.341-25.438,48.326-23.905Z" transform="translate(93.362 99.768)" fill="#4b5f7d"/>
      <path id="Контур_1016" data-name="Контур 1016" d="M328.993,321.282l-48.276,23.905.095-83.818,48.114-25.448Z" transform="translate(93.363 78.464)" fill="#004694"/>
      <path id="Контур_1017" data-name="Контур 1017" d="M222.432,176.8l-46.538,24.154.506-85.835,46.032-24.206Z" transform="translate(58.5 30.238)" fill="#7b99c7"/>
      <path id="Контур_1018" data-name="Контур 1018" d="M210.807,176.8l46.278,23.808V115.184L210.807,90.917Z" transform="translate(70.111 30.238)" fill="#63abe0"/>
      <path id="Контур_1019" data-name="Контур 1019" d="M117.077,142.733,70.264,166.007V81.352l46.814-24.5Z" transform="translate(23.369 18.906)" fill="#da0e1e"/>
      <path id="Контур_1020" data-name="Контур 1020" d="M105.384,206.268,152.2,229.542V144.887l-46.814-24.5Z" transform="translate(35.049 40.037)" fill="#c2d9f3"/>
      <path id="Контур_1021" data-name="Контур 1021" d="M105.384,142.733,152.2,166.007V81.352l-46.814-24.5Z" transform="translate(35.049 18.906)" fill="#e65037"/>
      <path id="Контур_1022" data-name="Контур 1022" d="M140.566,225.075l46.814,23.274V163.694l-46.814-24.5Z" transform="translate(46.75 46.292)" fill="#80c4ef"/>
      <path id="Контур_1023" data-name="Контур 1023" d="M140.566,161.264l46.814,23.274V99.883l-46.814-24.5Z" transform="translate(46.75 25.07)" fill="#80c4ef"/>
      <path id="Контур_1024" data-name="Контур 1024" d="M218.511,296.381l-28.572,14.2v-51.67l28.572-14.956Z" transform="translate(63.171 81.138)" fill="#004694"/>
      <path id="Контур_1025" data-name="Контур 1025" d="M211.375,296.381l28.573,14.2v-51.67L211.375,243.96Z" transform="translate(70.3 81.138)" fill="#627fb3"/>
      <path id="Контур_1026" data-name="Контур 1026" d="M218.511,257.513l-28.572,14.205v-51.67l28.572-14.957Z" transform="translate(63.171 68.211)" fill="#627fb3"/>
      <path id="Контур_1027" data-name="Контур 1027" d="M211.375,257.513l28.573,14.205v-51.67l-28.573-14.957Z" transform="translate(70.3 68.211)" fill="#63abe0"/>
      <path id="Контур_1028" data-name="Контур 1028" d="M255.155,240.049v52.259l-6.115-3.038V236.85Z" transform="translate(82.827 78.773)" fill="#63abe0"/>
      <path id="Контур_1029" data-name="Контур 1029" d="M255.155,265.753v52.259l-6.115-3.038v-52.42Z" transform="translate(82.827 87.321)" fill="#63abe0"/>
      <path id="Контур_1030" data-name="Контур 1030" d="M264.317,235.667v52.259l-6.117-3.038V232.466Z" transform="translate(85.874 77.315)" fill="#63abe0"/>
      <path id="Контур_1031" data-name="Контур 1031" d="M264.317,261.37v52.259L258.2,310.59V258.169Z" transform="translate(85.874 85.863)" fill="#63abe0"/>
      <path id="Контур_1032" data-name="Контур 1032" d="M223.411,391.759v50.673l-5.929-2.946V388.657Z" transform="translate(72.331 129.262)" fill="#63abe0"/>
      <path id="Контур_1033" data-name="Контур 1033" d="M223.411,416.683v50.673l-5.929-2.946V413.58Z" transform="translate(72.331 137.551)" fill="#63abe0"/>
      <path id="Контур_1034" data-name="Контур 1034" d="M233.776,396.96v50.673l-5.93-2.948V393.857Z" transform="translate(75.778 130.991)" fill="#63abe0"/>
      <path id="Контур_1035" data-name="Контур 1035" d="M233.776,421.883v50.673l-5.93-2.946V418.781Z" transform="translate(75.778 139.281)" fill="#63abe0"/>
      <path id="Контур_1036" data-name="Контур 1036" d="M243.153,401.9v50.673l-5.929-2.946V398.793Z" transform="translate(78.897 132.633)" fill="#63abe0"/>
      <path id="Контур_1037" data-name="Контур 1037" d="M243.153,426.82v50.673l-5.929-2.946v-50.83Z" transform="translate(78.897 140.922)" fill="#63abe0"/>
      <path id="Контур_1038" data-name="Контур 1038" d="M269.033,305.648,222.17,330.3,175.293,305.63l46.862-23.179Z" transform="translate(58.3 93.939)" fill="#00317a"/>
      <path id="Контур_1039" data-name="Контур 1039" d="M190.9,230.962c-3.451-2.806-6.221-5.56-10.37-7.65-21.733-10.939-43.835-6.28-49.372,10.4a24.8,24.8,0,0,0-1.077,4.865V192.394c10.288-41.491,61.044-17.125,61.044-17.125Z" transform="translate(43.264 55.928)" fill="#00317a"/>
      <path id="Контур_1040" data-name="Контур 1040" d="M161.923,262.588c-21.918-9.9-35.744-29.806-30.881-44.463s26.574-18.512,48.491-8.614,35.744,29.807,30.881,44.463-26.573,18.514-48.491,8.614" transform="translate(43.259 67.855)" fill="#4b5f7d"/>
      <path id="Контур_1041" data-name="Контур 1041" d="M159.881,251.833c-13.5-6.1-22.016-18.359-19.021-27.387s16.368-11.4,29.869-5.305,22.016,18.359,19.02,27.387-16.367,11.4-29.867,5.305" transform="translate(46.649 71.759)" fill="#223a59"/>
      <path id="Контур_1042" data-name="Контур 1042" d="M163.949,334.457l-46.863,24.65L70.209,334.438l46.863-23.179Z" transform="translate(23.351 103.52)" fill="#003987"/>
      <path id="Контур_1043" data-name="Контур 1043" d="M273.837,249.375v52.259l-6.115-3.038v-52.42Z" transform="translate(89.041 81.874)" fill="#63abe0"/>
      <path id="Контур_1044" data-name="Контур 1044" d="M273.837,275.078v52.259l-6.115-3.038v-52.42Z" transform="translate(89.041 90.423)" fill="#63abe0"/>
      <path id="Контур_1045" data-name="Контур 1045" d="M233.959,261.493v29.166l-3.414-1.7V259.707Z" transform="translate(76.676 86.375)" fill="#00317a"/>
      <path id="Контур_1046" data-name="Контур 1046" d="M233.959,275.838V305l-3.414-1.7V274.052Z" transform="translate(76.676 91.146)" fill="#00317a"/>
      <path id="Контур_1047" data-name="Контур 1047" d="M222.507,267.762v29.166l-3.414-1.7V265.976Z" transform="translate(72.867 88.46)" fill="#00317a"/>
      <path id="Контур_1048" data-name="Контур 1048" d="M222.507,282.107v29.166l-3.414-1.7V280.32Z" transform="translate(72.867 93.231)" fill="#00317a"/>
      <path id="Контур_1049" data-name="Контур 1049" d="M173.647,400.875v29.166l3.413-1.7V399.088Z" transform="translate(57.753 132.731)" fill="#00317a"/>
      <path id="Контур_1050" data-name="Контур 1050" d="M173.647,415.219v29.168l3.413-1.7V413.434Z" transform="translate(57.753 137.502)" fill="#00317a"/>
      <path id="Контур_1051" data-name="Контур 1051" d="M185.1,407.143v29.168l3.414-1.7V405.358Z" transform="translate(61.561 134.816)" fill="#00317a"/>
      <path id="Контур_1052" data-name="Контур 1052" d="M185.1,421.489v29.166l3.414-1.7V419.7Z" transform="translate(61.561 139.587)" fill="#00317a"/>
      <path id="Контур_1053" data-name="Контур 1053" d="M128.793,232.021v23.54l-2.754-1.369V230.579Z" transform="translate(41.919 76.687)" fill="#004694"/>
      <path id="Контур_1054" data-name="Контур 1054" d="M128.793,243.6v23.54l-2.754-1.369V242.157Z" transform="translate(41.919 80.538)" fill="#004694"/>
      <path id="Контур_1055" data-name="Контур 1055" d="M119.55,237.08v23.54l-2.754-1.369V235.639Z" transform="translate(38.844 78.37)" fill="#004694"/>
      <path id="Контур_1056" data-name="Контур 1056" d="M119.55,248.659V272.2L116.8,270.83V247.217Z" transform="translate(38.844 82.221)" fill="#004694"/>
      <path id="Контур_1057" data-name="Контур 1057" d="M142.178,259.346l44.394,17.349V243.3L142.178,220.06Z" transform="translate(47.286 73.189)" fill="#223a59"/>
      <path id="Контур_1058" data-name="Контур 1058" d="M142.178,261.276l44.394,14.776V245.229L142.178,221.99Z" transform="translate(47.286 73.831)" fill="#223a59"/>
      <path id="Контур_1059" data-name="Контур 1059" d="M159.584,276.347c-12-5.42-19.568-16.318-16.905-24.341s14.547-10.134,26.545-4.715,19.568,16.316,16.905,24.34-14.547,10.136-26.545,4.716" transform="translate(47.276 81.246)" fill="#e65037"/>
      <path id="Контур_1060" data-name="Контур 1060" d="M111.7,378.913,80.561,394.393v-56.3l31.136-16.3Z" transform="translate(26.794 107.023)" fill="#004694"/>
      <path id="Контур_1061" data-name="Контур 1061" d="M103.92,378.913l31.136,15.479v-56.3l-31.136-16.3Z" transform="translate(34.562 107.023)" fill="#627fb3"/>
      <path id="Контур_1062" data-name="Контур 1062" d="M109.1,400.1l-19.893,9.986,19.584,10.188,19.622-10.2Z" transform="translate(29.67 133.066)" fill="#00317a"/>
      <path id="Контур_1063" data-name="Контур 1063" d="M108.817,409.242l-19.6,9.745V383.537l19.6-10.262Z" transform="translate(29.671 124.146)" fill="#003987"/>
      <path id="Контур_1064" data-name="Контур 1064" d="M103.921,409.242l19.6,9.745V383.537l-19.6-10.262Z" transform="translate(34.563 124.146)" fill="#004694"/>
      <path id="Контур_1065" data-name="Контур 1065" d="M150.836,500.705l-31.593,15.862,31.1,16.179,31.165-16.2Z" transform="translate(39.658 166.528)" fill="#4b5f7d"/>
      <path id="Контур_1066" data-name="Контур 1066" d="M150.381,515.232l-31.136,15.479v-56.3l31.136-16.3Z" transform="translate(39.659 152.361)" fill="#627fb3"/>
      <path id="Контур_1067" data-name="Контур 1067" d="M142.6,515.232l31.136,15.479v-56.3l-31.136-16.3Z" transform="translate(47.428 152.361)" fill="#80c4ef"/>
      <path id="Контур_1068" data-name="Контур 1068" d="M147.5,545.56l-19.6,9.745V519.856l19.6-10.262Z" transform="translate(42.537 169.484)" fill="#627fb3"/>
      <path id="Контур_1069" data-name="Контур 1069" d="M142.6,545.56l19.6,9.745V519.856l-19.6-10.262Z" transform="translate(47.428 169.484)" fill="#9ed9f9"/>
      <path id="Контур_1070" data-name="Контур 1070" d="M165.642,84.028v35.743L138.06,103.664V66.127Z" transform="translate(45.917 21.993)" fill="#00317a"/>
      <path id="Контур_1071" data-name="Контур 1071" d="M188,430.253l-47.392,23.865,46.519,22.964L233.7,454.336Z" transform="translate(46.764 143.096)" fill="#00317a"/>
      <path id="Контур_1072" data-name="Контур 1072" d="M214.624,121.156l13.17,6.893V104.236l-13.17-6.893Z" transform="translate(71.381 32.375)" fill="#80c4ef"/>
      <path id="Контур_1073" data-name="Контур 1073" d="M214.624,140.524l13.17,6.893V123.6l-13.17-6.893Z" transform="translate(71.381 38.816)" fill="#80c4ef"/>
      <path id="Контур_1074" data-name="Контур 1074" d="M225.564,126.949l13.17,6.893V110.029l-13.17-6.893Z" transform="translate(75.019 34.301)" fill="#80c4ef"/>
      <path id="Контур_1075" data-name="Контур 1075" d="M225.564,146.317l13.17,6.893V129.4l-13.17-6.893Z" transform="translate(75.019 40.743)" fill="#80c4ef"/>
      <path id="Контур_1076" data-name="Контур 1076" d="M106.79,152.554l-13.169,6.893V135.634l13.169-6.893Z" transform="translate(31.137 42.817)" fill="#ea6532"/>
      <path id="Контур_1077" data-name="Контур 1077" d="M106.79,171.922l-13.169,6.893V155l13.169-6.893Z" transform="translate(31.137 49.259)" fill="#ea6532"/>
      <path id="Контур_1078" data-name="Контур 1078" d="M95.851,158.347l-13.169,6.893V141.428l13.169-6.893Z" transform="translate(27.499 44.744)" fill="#ea6532"/>
      <path id="Контур_1079" data-name="Контур 1079" d="M95.851,177.716l-13.169,6.893V160.8L95.851,153.9Z" transform="translate(27.499 51.186)" fill="#ea6532"/>
      <path id="Контур_1080" data-name="Контур 1080" d="M106.79,172.157l-13.169,6.893V155.237l13.169-6.895Z" transform="translate(31.137 49.337)" fill="#ea6532"/>
      <path id="Контур_1081" data-name="Контур 1081" d="M106.79,191.525l-13.169,6.893V174.605l13.169-6.893Z" transform="translate(31.137 55.779)" fill="#ea6532"/>
      <path id="Контур_1082" data-name="Контур 1082" d="M95.851,177.95l-13.169,6.893V161.03l13.169-6.893Z" transform="translate(27.499 51.264)" fill="#ea6532"/>
      <path id="Контур_1083" data-name="Контур 1083" d="M95.851,197.319l-13.169,6.893V180.4L95.851,173.5Z" transform="translate(27.499 57.705)" fill="#ea6532"/>
      <path id="Контур_1084" data-name="Контур 1084" d="M319.109,284.695l13.169,6.893V267.775l-13.169-6.893Z" transform="translate(106.131 86.765)" fill="#9ed9f9"/>
      <path id="Контур_1085" data-name="Контур 1085" d="M319.109,304.063l13.169,6.893V287.143l-13.169-6.893Z" transform="translate(106.131 93.207)" fill="#9ed9f9"/>
      <path id="Контур_1086" data-name="Контур 1086" d="M330.048,290.489l13.169,6.893V273.568l-13.169-6.893Z" transform="translate(109.769 88.692)" fill="#9ed9f9"/>
      <path id="Контур_1087" data-name="Контур 1087" d="M330.048,309.857l13.169,6.893V292.937l-13.169-6.893Z" transform="translate(109.769 95.134)" fill="#9ed9f9"/>
      <path id="Контур_1088" data-name="Контур 1088" d="M115.71,295.017l13.169,6.893V278.1L115.71,271.2Z" transform="translate(38.484 90.198)" fill="#7b99c7"/>
      <path id="Контур_1089" data-name="Контур 1089" d="M115.71,314.385l13.169,6.895V297.465l-13.169-6.893Z" transform="translate(38.484 96.64)" fill="#7b99c7"/>
      <path id="Контур_1090" data-name="Контур 1090" d="M126.65,300.811l13.169,6.893V283.891L126.65,277Z" transform="translate(42.122 92.125)" fill="#7b99c7"/>
      <path id="Контур_1091" data-name="Контур 1091" d="M126.65,320.179l13.169,6.894V303.259l-13.169-6.894Z" transform="translate(42.122 98.567)" fill="#7b99c7"/>
      <path id="Контур_1092" data-name="Контур 1092" d="M120.2,56.818V88.055l-3.433-1.816V54.9Z" transform="translate(38.835 18.261)" fill="#627fb3"/>
      <path id="Контур_1093" data-name="Контур 1093" d="M120.2,72.182v31.237l-3.433-1.816V70.268Z" transform="translate(38.835 23.37)" fill="#627fb3"/>
      <path id="Контур_1094" data-name="Контур 1094" d="M133.984,48.192V79.429l-3.434-1.816V46.279Z" transform="translate(43.419 15.392)" fill="#627fb3"/>
      <path id="Контур_1095" data-name="Контур 1095" d="M133.984,63.556V94.792l-3.434-1.815V61.643Z" transform="translate(43.419 20.501)" fill="#627fb3"/>
      <path id="Контур_1096" data-name="Контур 1096" d="M147.454,94.065l27.7,16.505L138.5,135.712l-28.228-16.14Z" transform="translate(36.674 31.285)" fill="#627fb3"/>
      <path id="Контур_1097" data-name="Контур 1097" d="M147.456,103.39l-.193-37.34-36.65,25.143-.34,37.706Z" transform="translate(36.675 21.967)" fill="#63abe0"/>
      <path id="Контур_1098" data-name="Контур 1098" d="M47.952,424.538.726,448.248l46.355,22.964,46.425-22.67Z" transform="translate(0.241 141.195)" fill="#63abe0"/>
      <path id="Контур_1099" data-name="Контур 1099" d="M70.264,164.107V79.441L102.4,62.593Z" transform="translate(23.369 20.818)" fill="#e65037"/>
      <path id="Контур_1100" data-name="Контур 1100" d="M175.894,199.124l.151-85.741,32.211-16.947Z" transform="translate(58.5 32.073)" fill="#9ed9f9"/>
      <path id="Контур_1101" data-name="Контур 1101" d="M280.718,342.938v-83.6l31.41-16.652Z" transform="translate(93.363 80.714)" fill="#003987"/>
      <path id="Контур_1102" data-name="Контур 1102" d="M73.8,121.939A14.644,14.644,0,1,1,59.161,107.3,14.645,14.645,0,0,1,73.8,121.939" transform="translate(14.805 35.685)" fill="#627fb3"/>
      <path id="Контур_1119" data-name="Контур 1119" d="M73.8,121.939A14.644,14.644,0,1,1,59.161,107.3,14.645,14.645,0,0,1,73.8,121.939" transform="translate(96.805 -53.315)" fill="#627fb3"/>
      <path id="Контур_1120" data-name="Контур 1120" d="M73.8,121.939A14.644,14.644,0,1,1,59.161,107.3,14.645,14.645,0,0,1,73.8,121.939" transform="translate(114.805 -68.315)" fill="#627fb3"/>
      <path id="Контур_1103" data-name="Контур 1103" d="M281.276,92.137A13.634,13.634,0,1,1,267.642,78.5a13.634,13.634,0,0,1,13.634,13.635" transform="translate(84.479 26.109)" fill="#627fb3"/>
      <path id="Контур_1104" data-name="Контур 1104" d="M134.909,234.432A13.634,13.634,0,1,1,121.274,220.8a13.634,13.634,0,0,1,13.635,13.634" transform="translate(35.8 73.434)" fill="#004694"/>
      <path id="Контур_1105" data-name="Контур 1105" d="M144.231,230.389A13.634,13.634,0,1,1,130.6,216.754a13.634,13.634,0,0,1,13.634,13.635" transform="translate(38.9 72.089)" fill="#004694"/>
      <path id="Контур_1106" data-name="Контур 1106" d="M356.957,222.052a13.634,13.634,0,1,1-13.634-13.635,13.634,13.634,0,0,1,13.634,13.635" transform="translate(109.65 69.317)" fill="#00317a"/>
      <path id="Контур_1107" data-name="Контур 1107" d="M342.152,225.168a13.634,13.634,0,1,1-13.634-13.634,13.634,13.634,0,0,1,13.634,13.634" transform="translate(104.726 70.353)" fill="#627fb3"/>
      <path id="Контур_1108" data-name="Контур 1108" d="M236.553,267.61a13.635,13.635,0,1,1-13.635-13.634,13.635,13.635,0,0,1,13.635,13.634" transform="translate(69.605 84.469)" fill="#00317a"/>
      <path id="Контур_1109" data-name="Контур 1109" d="M248.489,259.463a13.634,13.634,0,1,1-13.634-13.635,13.634,13.634,0,0,1,13.634,13.635" transform="translate(73.575 81.759)" fill="#00317a"/>
      <path id="Контур_1110" data-name="Контур 1110" d="M204.68,410a13.634,13.634,0,1,1-13.634-13.634A13.633,13.633,0,0,1,204.68,410" transform="translate(59.004 131.825)" fill="#00317a"/>
      <path id="Контур_1111" data-name="Контур 1111" d="M191.606,399.768a13.634,13.634,0,1,1-13.635-13.634,13.635,13.635,0,0,1,13.635,13.634" transform="translate(54.656 128.423)" fill="#00317a"/>
      <path id="Контур_1112" data-name="Контур 1112" d="M292.582,107.1a13.634,13.634,0,1,1-13.634-13.634A13.635,13.635,0,0,1,292.582,107.1" transform="translate(88.239 31.087)" fill="#627fb3"/>
    </g>
  </g>
</svg>
