<svg id="Сгруппировать_769" data-name="Сгруппировать 769" xmlns="http://www.w3.org/2000/svg" xmlns:xlink="http://www.w3.org/1999/xlink" width="325" height="150.219" viewBox="0 0 325 150.219">
  <defs>
    <clipPath id="clip-path">
      <rect id="Прямоугольник_581" data-name="Прямоугольник 581" width="325" height="150.22" fill="none"/>
    </clipPath>
  </defs>
  <g id="Сгруппировать_768" data-name="Сгруппировать 768" clip-path="url(#clip-path)">
    <path id="Контур_1310" data-name="Контур 1310" d="M183.926,32.217,166.243,48.741q-2.808-.026-5.608-.034c-53.2-.352-106.057-.361-159.271-.721V22.89q89.662,4.586,179.307,9.165c1.082.051,2.173.111,3.255.162" transform="translate(-0.193 -3.231)" fill="#2c5b97"/>
    <path id="Контур_1311" data-name="Контур 1311" d="M288.874,43.627c-8.509-3.1-18.27-6.2-26.78-9.3,3-7.526,6.591-14.46,9.261-21.692Z" transform="translate(-36.999 -1.784)" fill="#2c5b97"/>
    <path id="Контур_1312" data-name="Контур 1312" d="M274.688,69.2,250.995,58.575l-8.343,19.183L274.686,69.2Z" transform="translate(-34.254 -8.269)" fill="#c10013"/>
    <path id="Контур_1313" data-name="Контур 1313" d="M235.834,69.235,262.776,9.291,243.655,1.581,216.278,62.392Z" transform="translate(-30.531 -0.223)" fill="#0c2b5c"/>
    <path id="Контур_1314" data-name="Контур 1314" d="M212.277,62.389l-25.7-16.527c17.8-14.46,35.262-29.808,53.06-44.271-9.232,19.971-18.132,40.827-27.365,60.8" transform="translate(-26.339 -0.225)" fill="#112446"/>
    <path id="Контур_1315" data-name="Контур 1315" d="M152.253,126.734H85.146c.133-.975.277-1.95.422-2.935q33.336-3.241,66.685-6.458Z" transform="translate(-12.02 -16.564)" fill="#2c5b97"/>
    <path id="Контур_1316" data-name="Контур 1316" d="M152.264,138.641q-33.321-3.257-66.619-6.514c-.133-.986-.277-1.972-.422-2.958h67.041Z" transform="translate(-12.031 -18.234)" fill="#0c2b5c"/>
    <path id="Контур_1317" data-name="Контур 1317" d="M172.945,126.433h-7.557V114.678h14.9Z" transform="translate(-23.347 -16.189)" fill="#0c2b5c"/>
    <path id="Контур_1318" data-name="Контур 1318" d="M210.905,130.612l-.056,11.349-10.02.028Z" transform="translate(-28.35 -18.438)" fill="#0c2b5c"/>
    <path id="Контур_1319" data-name="Контур 1319" d="M194.881,141.695H165.388V129.1l40.3.35Z" transform="translate(-23.347 -18.224)" fill="#c10013"/>
    <path id="Контур_1320" data-name="Контур 1320" d="M206.969,127.5H174.431l7.767-12.7h24.77Z" transform="translate(-24.624 -16.206)" fill="#c10013"/>
    <path id="Контур_1321" data-name="Контур 1321" d="M195.014,128.172a4.156,4.156,0,1,1-4.156-4.157,4.156,4.156,0,0,1,4.156,4.157" transform="translate(-26.356 -17.507)" fill="#2c5b97"/>
    <path id="Контур_1322" data-name="Контур 1322" d="M355.49,91.527v14.657a104.936,104.936,0,0,0-35.9-5.251c-26.612.9-39.453,12.131-75.571,18.679a228.112,228.112,0,0,1-28.03,3.336V110.761c.033-1.463.077-2.914.111-4.365a9.655,9.655,0,0,0,4.2-2.948,10.432,10.432,0,0,0,1.883-8.4c1.4-.422,2.8-.83,4.2-1.251,1.618,2.869,4.3,6.47,8.575,8.286a1.654,1.654,0,0,0,.243.112c8.532,3.434,17.572-2.537,25.394-6.515C283.93,83.838,307.174,84.3,320.015,84.559a107.246,107.246,0,0,1,35.475,6.969" transform="translate(-30.491 -11.924)" fill="#2c5b97"/>
    <path id="Контур_1323" data-name="Контур 1323" d="M358.608,91.527v5.284c-42.532-20.2-95.17,4.931-95.17,4.931-7.777,3.711-12.353,6.525-17.9,5.029a16.469,16.469,0,0,1-7.456-4.687,1.655,1.655,0,0,0,.243.112c8.532,3.434,17.572-2.537,25.394-6.515,23.333-11.843,46.576-11.378,59.418-11.123a107.245,107.245,0,0,1,35.475,6.969" transform="translate(-33.608 -11.924)" fill="#c10013"/>
    <path id="Контур_1324" data-name="Контур 1324" d="M355.49,161.531V146.874a104.936,104.936,0,0,1-35.9,5.251c-26.612-.9-39.453-12.131-75.571-18.679a228.109,228.109,0,0,0-28.03-3.336V142.3c.033,1.463.077,2.914.111,4.366a9.643,9.643,0,0,1,4.2,2.947,10.432,10.432,0,0,1,1.883,8.4c1.4.422,2.8.831,4.2,1.252,1.618-2.869,4.3-6.47,8.575-8.287a1.568,1.568,0,0,1,.243-.111c8.532-3.435,17.572,2.537,25.394,6.514,23.333,11.843,46.576,11.378,59.418,11.124a107.268,107.268,0,0,0,35.475-6.969" transform="translate(-30.491 -18.367)" fill="#2c5b97"/>
    <path id="Контур_1325" data-name="Контур 1325" d="M358.608,164.123v-5.284c-42.532,20.2-95.17-4.931-95.17-4.931-7.777-3.711-12.353-6.525-17.9-5.029a16.469,16.469,0,0,0-7.456,4.687,1.569,1.569,0,0,1,.243-.111c8.532-3.435,17.572,2.537,25.394,6.514,23.333,11.843,46.576,11.378,59.418,11.124a107.268,107.268,0,0,0,35.475-6.969" transform="translate(-33.608 -20.959)" fill="#c10013"/>
    <path id="Контур_1326" data-name="Контур 1326" d="M44.721,97.463H14.907L0,123.282,14.907,149.1H44.721l14.907-25.82Z" transform="translate(0 -13.758)" fill="#0c2b5c"/>
    <path id="Контур_1327" data-name="Контур 1327" d="M46.136,125.28a13.669,13.669,0,1,1-13.669-13.669A13.669,13.669,0,0,1,46.136,125.28" transform="translate(-2.654 -15.756)" fill="#fff"/>
    <path id="Контур_1328" data-name="Контур 1328" d="M357.014,15.632,340.6,47.807a18.225,18.225,0,0,1,16.419-32.175" transform="translate(-46.973 -2.061)" fill="#c10013"/>
    <path id="Контур_1329" data-name="Контур 1329" d="M369.216,41.646a18.231,18.231,0,0,1-22.263,8.917l16.419-32.176a18.23,18.23,0,0,1,5.843,23.259" transform="translate(-48.978 -2.596)" fill="#c10013"/>
  </g>
</svg>
