<svg width="40" height="40" viewBox="0 0 40 40" fill="none" xmlns="http://www.w3.org/2000/svg">
<g clip-path="url(#clip0)">
<path d="M20.0005 0C8.9552 0 0.000976562 8.95449 0.000976562 19.9998C0.000976562 31.0448 8.9552 40 20.0005 40C31.0458 40 40.0007 31.0448 40.0007 19.9998C40.0007 8.95449 31.0458 0 20.0005 0ZM20.0009 7.02487L31.8361 14.4049H8.16572L20.0009 7.02487ZM31.9836 26.19H31.9824C31.9824 27.3737 31.023 28.3329 29.8394 28.3329H10.1624C8.97866 28.3329 8.01945 27.3736 8.01945 26.19V14.8745C8.01945 14.7493 8.03226 14.6276 8.05305 14.508L19.3609 21.5591C19.3748 21.5678 19.3896 21.5737 19.4038 21.5817C19.4188 21.5899 19.434 21.5979 19.4492 21.6055C19.529 21.6467 19.6113 21.68 19.6954 21.7017C19.7041 21.7041 19.7128 21.7052 19.7214 21.7072C19.8137 21.7289 19.9072 21.7425 20.0005 21.7425H20.0012C20.0018 21.7425 20.0025 21.7425 20.0025 21.7425C20.0958 21.7425 20.1893 21.7293 20.2816 21.7072C20.2902 21.705 20.2989 21.7041 20.3076 21.7017C20.3916 21.68 20.4736 21.6467 20.5538 21.6055C20.569 21.5979 20.5842 21.5899 20.5992 21.5817C20.6133 21.5737 20.6282 21.5678 20.6421 21.5591L31.95 14.508C31.9708 14.6276 31.9836 14.7491 31.9836 14.8745V26.19Z" fill="#7BB63C"/>
</g>
<defs>
<clipPath id="clip0">
<rect width="40" height="40" fill="white"/>
</clipPath>
</defs>
</svg>
