<svg width="40" height="40" viewBox="0 0 40 40" fill="none" xmlns="http://www.w3.org/2000/svg">
<path d="M20.0001 31.7068C20.863 31.7068 21.5625 31.0073 21.5625 30.1444C21.5625 29.2815 20.863 28.582 20.0001 28.582C19.1372 28.582 18.4377 29.2815 18.4377 30.1444C18.4377 31.0073 19.1372 31.7068 20.0001 31.7068Z" fill="#FCCD63"/>
<path d="M24.3588 9.09961H15.6412C15.1525 9.09961 14.7549 9.47868 14.7549 9.94374V26.4227C14.7549 26.8881 15.1523 27.2668 15.6412 27.2668H24.3588C24.8475 27.2668 25.2451 26.8877 25.2451 26.4227V9.94374C25.2448 9.47828 24.8475 9.09961 24.3588 9.09961Z" fill="#FCCD63"/>
<path d="M20.0003 0C8.95513 0 0.000999451 8.9548 0.000999451 19.9996C0.000999451 31.0444 8.95513 40 20.0003 40C31.0455 40 40.0007 31.0449 40.0007 19.9996C40.0007 8.95427 31.0455 0 20.0003 0ZM27.7814 29.8695C27.7814 31.3972 26.5427 32.636 25.0149 32.636H14.9863C13.4586 32.636 12.2198 31.3973 12.2198 29.8695V10.0431C12.2198 8.51533 13.4585 7.27653 14.9863 7.27653H25.0149C26.5426 7.27653 27.7814 8.5152 27.7814 10.0431V29.8695Z" fill="#FCCD63"/>
</svg>
