<svg id="Сгруппировать_420" data-name="Сгруппировать 420" xmlns="http://www.w3.org/2000/svg" xmlns:xlink="http://www.w3.org/1999/xlink" width="43" height="43" viewBox="0 0 43 43">
  <defs>
    <clipPath id="clip-path">
      <rect id="Прямоугольник_340" data-name="Прямоугольник 340" width="43" height="43" fill="#F7F8FB"/>
    </clipPath>
  </defs>
  <path id="Контур_295" data-name="Контур 295" d="M422.7,929.8h12.625a.7.7,0,0,0,.7-.7v-5.611a.7.7,0,0,0-.7-.7H422.7a.7.7,0,0,0-.7.7V929.1a.7.7,0,0,0,.7.7Zm.7-5.611h11.223V928.4H423.4Zm0,0" transform="translate(-417.392 -892.37)" fill="#F7F8FB"/>
  <g id="Сгруппировать_417" data-name="Сгруппировать 417">
    <g id="Сгруппировать_416" data-name="Сгруппировать 416" transform="translate(0 0)" clip-path="url(#clip-path)">
      <path id="Контур_296" data-name="Контур 296" d="M422.7,857.968h12.625a.71.71,0,0,0,.7-.718v-5.745a.71.71,0,0,0-.7-.718H422.7a.71.71,0,0,0-.7.718v5.745a.71.71,0,0,0,.7.718Zm.7-5.745h11.223v4.309H423.4Zm0,0" transform="translate(-417.392 -829.287)" fill="#F7F8FB"/>
      <path id="Контур_297" data-name="Контур 297" d="M406.462,686.585h-5.611v-2.154a.71.71,0,0,0-.7-.718h-.7V680.84h4.91a.685.685,0,0,0,.568-.3.731.731,0,0,0,.1-.647l-2.806-8.617a.713.713,0,0,0-.666-.488h-8.417a.713.713,0,0,0-.666.488l-2.806,8.617a.731.731,0,0,0,.1.647.685.685,0,0,0,.568.3h4.91v2.872h-.7a.71.71,0,0,0-.7.718v2.154h-5.611a2.12,2.12,0,0,0-2.058,1.79,2.162,2.162,0,0,0,1.356,2.39v18.082a2.159,2.159,0,0,0,1.4,2.025v2.283a.71.71,0,0,0,.7.718h4.208a.71.71,0,0,0,.7-.718V711h5.611v2.154a.71.71,0,0,0,.7.718h4.208a.71.71,0,0,0,.7-.718v-2.283a2.159,2.159,0,0,0,1.4-2.025V690.765a2.162,2.162,0,0,0,1.356-2.39,2.12,2.12,0,0,0-2.058-1.79ZM391.3,679.4l2.336-7.181h7.407l2.336,7.181Zm6.741,1.436v2.872h-1.4V680.84Zm-2.806,4.309h4.208v1.436H395.24Zm-2.1,27.288H390.33V711h2.806Zm11.223,0h-2.806V711h2.806Zm1.4-3.591a.71.71,0,0,1-.7.718H389.628a.71.71,0,0,1-.7-.718V690.894h16.834Zm.7-19.389H388.226a.718.718,0,0,1,0-1.436h18.237a.718.718,0,0,1,0,1.436Zm0,0" transform="translate(-385.722 -670.83)" fill="#F7F8FB"/>
    </g>
  </g>
  <rect id="Прямоугольник_341" data-name="Прямоугольник 341" width="4" height="2" transform="translate(10 24.6)" fill="#F7F8FB"/>
  <rect id="Прямоугольник_342" data-name="Прямоугольник 342" width="4" height="2" transform="translate(10 32.8)" fill="#F7F8FB"/>
  <rect id="Прямоугольник_343" data-name="Прямоугольник 343" width="2" height="2" transform="translate(39)" fill="#F7F8FB"/>
  <rect id="Прямоугольник_344" data-name="Прямоугольник 344" width="1" height="1" transform="translate(38 2)" fill="#F7F8FB"/>
  <rect id="Прямоугольник_345" data-name="Прямоугольник 345" width="2" height="2" transform="translate(39 3)" fill="#F7F8FB"/>
  <rect id="Прямоугольник_346" data-name="Прямоугольник 346" width="1" height="1" transform="translate(41 2)" fill="#F7F8FB"/>
  <rect id="Прямоугольник_347" data-name="Прямоугольник 347" width="1" height="2" transform="translate(30)" fill="#F7F8FB"/>
  <rect id="Прямоугольник_348" data-name="Прямоугольник 348" width="2" height="1" transform="translate(28 2)" fill="#F7F8FB"/>
  <rect id="Прямоугольник_349" data-name="Прямоугольник 349" width="1" height="2" transform="translate(30 3)" fill="#F7F8FB"/>
  <rect id="Прямоугольник_350" data-name="Прямоугольник 350" width="2" height="1" transform="translate(31 2)" fill="#F7F8FB"/>
  <rect id="Прямоугольник_351" data-name="Прямоугольник 351" width="2" height="1" transform="translate(35 7)" fill="#F7F8FB"/>
  <rect id="Прямоугольник_352" data-name="Прямоугольник 352" width="2" height="2" transform="translate(33 8.2)" fill="#F7F8FB"/>
  <rect id="Прямоугольник_353" data-name="Прямоугольник 353" width="2" height="1" transform="translate(35 10.244)" fill="#F7F8FB"/>
  <rect id="Прямоугольник_354" data-name="Прямоугольник 354" width="1" height="2" transform="translate(37 8.2)" fill="#F7F8FB"/>
  <rect id="Прямоугольник_355" data-name="Прямоугольник 355" width="2" height="1" transform="translate(25 7)" fill="#F7F8FB"/>
  <rect id="Прямоугольник_356" data-name="Прямоугольник 356" width="1" height="2" transform="translate(24 8.2)" fill="#F7F8FB"/>
  <rect id="Прямоугольник_357" data-name="Прямоугольник 357" width="2" height="1" transform="translate(25 10.244)" fill="#F7F8FB"/>
  <g id="Сгруппировать_419" data-name="Сгруппировать 419">
    <g id="Сгруппировать_418" data-name="Сгруппировать 418" transform="translate(0 0)" clip-path="url(#clip-path)">
      <rect id="Прямоугольник_358" data-name="Прямоугольник 358" height="2.048" transform="translate(27 8.191)" fill="#F7F8FB"/>
      <path id="Контур_298" data-name="Контур 298" d="M597.52,828.962l-1.284-1.975v-.5a2.136,2.136,0,0,0-2.1-2.154h-.7v-2.154a.71.71,0,0,0-.7-.718h-.7V804.941a2.1,2.1,0,1,0-4.208,0v12.208H578.7a.673.673,0,0,0-.512.23.727.727,0,0,0-.183.488H578v.043l.7,11.49a.709.709,0,0,0,.7.675h17.535a.688.688,0,0,0,.617-.381.706.706,0,0,0-.035-.733Zm-8.3-24.021a.7.7,0,1,1,1.4,0v16.517h-1.4Zm2.806,17.953v1.436H587.82v-1.436Zm-4.356-4.309c-.477,1.221-2.139,2.154-4.061,2.154s-3.584-.934-4.061-2.154Zm-7.61,10.054-.477-7.777a6.5,6.5,0,0,0,4.026,1.314,6.425,6.425,0,0,0,4.208-1.465v.747h-.7a.71.71,0,0,0-.7.718v2.154h-.7a2.136,2.136,0,0,0-2.1,2.154v.718a.7.7,0,0,0,.119.4l.673,1.041Zm6.032,0-1.08-1.652v-.5a.71.71,0,0,1,.7-.718h8.417a.71.71,0,0,1,.7.718v.718a.7.7,0,0,0,.119.4l.674,1.041Zm0,0" transform="translate(-555.156 -787.032)" fill="#F7F8FB"/>
    </g>
  </g>
</svg>
