<svg xmlns="http://www.w3.org/2000/svg" xmlns:xlink="http://www.w3.org/1999/xlink" width="43" height="43" viewBox="0 0 43 43">
  <defs>
    <clipPath id="clip-path">
      <rect id="Прямоугольник_319" data-name="Прямоугольник 319" width="43" height="43" fill="#F7F8FB"/>
    </clipPath>
  </defs>
  <g id="Сгруппировать_413" data-name="Сгруппировать 413" transform="translate(-386.333 -671.121)">
    <g id="Сгруппировать_412" data-name="Сгруппировать 412" transform="translate(386.333 671.121)">
      <g id="Сгруппировать_411" data-name="Сгруппировать 411" transform="translate(0 0)" clip-path="url(#clip-path)">
        <path id="Контур_290" data-name="Контур 290" d="M430.619,690.979,419.9,681.363v-1.537a2.182,2.182,0,0,0-3.587-1.68l-6.892-6.175a.731.731,0,0,0-.976,0l-21.2,19.009a.731.731,0,0,0,.488,1.276h1.462v22.664a.731.731,0,0,0,.731.731h38.018a.731.731,0,0,0,.731-.731V692.254h1.462a.731.731,0,0,0,.488-1.276Zm-2.4-.186H419.9v-7.465Zm-6.132,16.084h-8.773v-1.561a2.1,2.1,0,0,1,2.095-2.095h4.585a2.1,2.1,0,0,1,2.094,2.095Zm-5.118-27.051a.731.731,0,1,1,1.462,0v21.933h-1.462Zm-8.042-6.329,6.62,5.932a2.179,2.179,0,0,0-.04.4v10.967H389.637Zm-18.278,18.758h24.858v9.5h-.1a3.561,3.561,0,0,0-3.557,3.557v2.151l-2.688,6.721h-5.354V700.3a.731.731,0,0,0-.731-.731h-8.773a.731.731,0,0,0-.731.731v13.891h-2.924Zm4.387,21.933v-13.16h7.311v13.16Zm26.92,0-.614-3.068-1.434.287.556,2.78h-2.032v-2.924h-1.462v2.924h-2.033l.557-2.781-1.434-.288-.615,3.069H410.74l2.339-5.849h9.246l2.339,5.849Zm5.249,0h-.967l-2.688-6.721v-2.151a3.561,3.561,0,0,0-3.557-3.557h-.1v-9.5h7.311Zm0,0" transform="translate(-387.368 -672.155)" fill="#F7F8FB"/>
      </g>
    </g>
    <path id="Контур_291" data-name="Контур 291" d="M531.6,739.523h5.951a.6.6,0,0,0,.595-.6v-3.57a3.57,3.57,0,1,0-7.141,0v3.57a.6.6,0,0,0,.6.6Zm.6-2.975h1.785v1.785H532.19Zm2.975,1.785v-1.785h1.785v1.785Zm1.785-2.975h-1.785v-2.3a2.378,2.378,0,0,1,1.785,2.3Zm-2.975-2.3v2.3H532.19a2.378,2.378,0,0,1,1.785-2.3Zm0,0" transform="translate(-126.674 -53.361)" fill="#F7F8FB"/>
    <rect id="Прямоугольник_320" data-name="Прямоугольник 320" width="1" height="1" transform="translate(394.98 707.121)" fill="#F7F8FB"/>
    <path id="Контур_292" data-name="Контур 292" d="M539.975,858.928h1.19a2.979,2.979,0,0,1,2.975-2.975v-1.19a2.979,2.979,0,0,1-2.975-2.975h-1.19A2.979,2.979,0,0,1,537,854.762v1.19a2.979,2.979,0,0,1,2.975,2.975Zm.6-5.006a1.436,1.436,0,1,1,0,2.872,1.436,1.436,0,0,1,0-2.872Zm0,0" transform="translate(-131.908 -158.077)" fill="#F7F8FB"/>
  </g>
</svg>
