<svg xmlns="http://www.w3.org/2000/svg" width="43" height="43" viewBox="0 0 43 43">
  <g id="Сгруппировать_415" data-name="Сгруппировать 415" transform="translate(-386 -670.788)">
    <path id="Контур_294" data-name="Контур 294" d="M428.283,719.654h-6.45a2.135,2.135,0,0,0-2.867-2.016v-.128a2.135,2.135,0,0,0-2.867-2.016v-5.132a3.578,3.578,0,0,0-3.583-3.574H389.583A3.578,3.578,0,0,0,386,710.361v15.726a3.579,3.579,0,0,0,3.583,3.574h8.6v2.859H396.75a2.154,2.154,0,0,0-2.15,2.145v1.43a.716.716,0,0,0,.717.715h11.467a.716.716,0,0,0,.717-.715v-1.43a2.154,2.154,0,0,0-2.15-2.145h-1.433v-2.859h5.017v5a.742.742,0,0,0,.043.25l1.254,3.324H389.583a2.154,2.154,0,0,0-2.15,2.145v2.859a2.154,2.154,0,0,0,2.15,2.145h32.25a.716.716,0,0,0,.717-.715v-4.161l2.107-5.6a.74.74,0,0,0,.043-.25v-5h3.583a.716.716,0,0,0,.717-.715v-8.578a.716.716,0,0,0-.717-.715Zm-22.933,14.3a.716.716,0,0,1,.717.715v.715H396.033v-.715a.716.716,0,0,1,.717-.715Zm-5.733-1.43v-2.859h2.867v2.859Zm5.017-4.289h-15.05a2.154,2.154,0,0,1-2.15-2.144v-.715h17.2Zm0-7.863v3.574h-17.2V710.361a2.154,2.154,0,0,1,2.15-2.144h22.933a2.154,2.154,0,0,1,2.15,2.144v7.277a2.135,2.135,0,0,0-2.867,2.016h-6.45a.716.716,0,0,0-.717.715Zm4.3,5.719v2.144h-2.867v-7.148H411.8v2.988a2.135,2.135,0,0,0-2.867,2.016Zm2.15,17.87h-21.5a.716.716,0,0,1-.717-.715v-2.859a.716.716,0,0,1,.717-.715h21.185l.315.843Zm12.183-9.421-2.107,5.6a.741.741,0,0,0-.043.25v3.574h-8.6v-3.574a.741.741,0,0,0-.043-.25l-2.107-5.6v-8.449a.717.717,0,0,1,1.433,0v5h1.433V719.654a.717.717,0,0,1,1.433,0v11.437H416.1V717.509a.717.717,0,0,1,1.433,0v13.582h1.433V719.654a.717.717,0,0,1,1.433,0v11.437h1.433v-7.148a.717.717,0,0,1,1.433,0Zm4.3-6.3H424.7v-4.289a2.135,2.135,0,0,0-2.867-2.016v-.843h5.733Zm0,0" transform="translate(0 -31.6)" fill="#abb5bb"/>
    <rect id="Прямоугольник_321" data-name="Прямоугольник 321" width="2" height="1" transform="translate(426 670.788)" fill="#abb5bb"/>
    <rect id="Прямоугольник_322" data-name="Прямоугольник 322" width="1" height="2" transform="translate(425 671.788)" fill="#abb5bb"/>
    <rect id="Прямоугольник_323" data-name="Прямоугольник 323" width="2" height="1" transform="translate(426 673.788)" fill="#abb5bb"/>
    <rect id="Прямоугольник_324" data-name="Прямоугольник 324" width="1" height="2" transform="translate(428 671.788)" fill="#abb5bb"/>
    <rect id="Прямоугольник_325" data-name="Прямоугольник 325" width="2" height="2" transform="translate(421 674.788)" fill="#abb5bb"/>
    <rect id="Прямоугольник_326" data-name="Прямоугольник 326" width="1" height="2" transform="translate(420.186 676.788)" fill="#abb5bb"/>
    <rect id="Прямоугольник_327" data-name="Прямоугольник 327" width="2" height="1" transform="translate(421 678.602)" fill="#abb5bb"/>
    <rect id="Прямоугольник_328" data-name="Прямоугольник 328" width="2" height="2" transform="translate(423 676.788)" fill="#abb5bb"/>
    <rect id="Прямоугольник_329" data-name="Прямоугольник 329" width="2" height="1" transform="translate(417.238 670.788)" fill="#abb5bb"/>
    <rect id="Прямоугольник_330" data-name="Прямоугольник 330" width="1" height="2" transform="translate(416.279 671.788)" fill="#abb5bb"/>
    <rect id="Прямоугольник_331" data-name="Прямоугольник 331" width="2" height="1" transform="translate(417.238 673.788)" fill="#abb5bb"/>
    <rect id="Прямоугольник_332" data-name="Прямоугольник 332" width="1" height="2" transform="translate(419.209 671.788)" fill="#abb5bb"/>
    <rect id="Прямоугольник_333" data-name="Прямоугольник 333" width="2" height="1" transform="translate(390 709.788)" fill="#abb5bb"/>
    <rect id="Прямоугольник_334" data-name="Прямоугольник 334" width="1" height="1" transform="translate(393.814 709.788)" fill="#abb5bb"/>
    <rect id="Прямоугольник_335" data-name="Прямоугольник 335" width="2" height="1" transform="translate(395.762 709.788)" fill="#abb5bb"/>
    <rect id="Прямоугольник_336" data-name="Прямоугольник 336" width="1" height="1" transform="translate(398.698 709.788)" fill="#abb5bb"/>
    <rect id="Прямоугольник_337" data-name="Прямоугольник 337" width="2" height="1" transform="translate(401.619 709.788)" fill="#abb5bb"/>
    <rect id="Прямоугольник_338" data-name="Прямоугольник 338" width="2" height="1" transform="translate(404.548 709.788)" fill="#abb5bb"/>
    <rect id="Прямоугольник_339" data-name="Прямоугольник 339" width="1" height="1" transform="translate(407.488 709.788)" fill="#abb5bb"/>
  </g>
</svg>
