<svg xmlns="http://www.w3.org/2000/svg" width="43" height="43" viewBox="0 0 43 43">
  <g id="Сгруппировать_414" data-name="Сгруппировать 414" transform="translate(-381 -664.787)">
    <path id="Контур_293" data-name="Контур 293" d="M411.644,691.142a2.078,2.078,0,0,0,1.953,1.387h6.935a2.083,2.083,0,0,0,2.081-2.081v-10.4A1.389,1.389,0,0,0,424,678.658v-1.387a1.389,1.389,0,0,0-1.387-1.387h-.048A5.142,5.142,0,0,0,419.839,672v-1.66a1.389,1.389,0,0,0,1.387-1.387v-1.387a1.389,1.389,0,0,0-1.387-1.387h-4.161a1.389,1.389,0,0,0-1.387,1.387v1.387a1.389,1.389,0,0,0,1.387,1.387V672a5.158,5.158,0,0,0-2.081,2,5.158,5.158,0,0,0-2.081-2v-1.66a1.389,1.389,0,0,0,1.387-1.387v-1.387a1.389,1.389,0,0,0-1.387-1.387h-4.161a1.389,1.389,0,0,0-1.387,1.387v1.387a1.389,1.389,0,0,0,1.387,1.387V672a5.143,5.143,0,0,0-2.726,3.889h-1.435a1.389,1.389,0,0,0-1.387,1.387v1.387a1.389,1.389,0,0,0,1.387,1.387V696.69h-2.9a2.059,2.059,0,0,0,.128-.693v-6.242a1.389,1.389,0,0,0,1.387-1.387V686.98a1.389,1.389,0,0,0-1.387-1.387h-1.387v-8.785l1.11-1.479a15.35,15.35,0,0,0,3.051-9.155,1.389,1.389,0,0,0-1.387-1.387H392.1a1.389,1.389,0,0,0-1.387,1.387,15.356,15.356,0,0,0,3.051,9.155l1.11,1.479v8.785h-2.644L386.319,672a2.772,2.772,0,0,0-2.544-1.668,2.777,2.777,0,0,0-2.544,3.882l4.947,11.377h-1.016a1.389,1.389,0,0,0-1.387,1.387v1.387a1.389,1.389,0,0,0,1.387,1.387V696a2.06,2.06,0,0,0,.128.693h-2.9A1.389,1.389,0,0,0,381,698.077v2.774a1.389,1.389,0,0,0,1.387,1.387h.7a3.468,3.468,0,1,0,5.54,0H410.17a6.239,6.239,0,0,0,12.4,0H424v-.693a7.626,7.626,0,0,0-13.509-4.855h-3.135v-5.548Zm5.225-11.1-.908,3.636a.693.693,0,0,1-.673.526h-7.933v-4.161Zm-9.514,5.548h4.161v1.387h-4.161Zm0,2.774h4.161v1.387h-4.161Zm13.871,2.081a.7.7,0,0,1-.693.694H413.6a.7.7,0,0,1-.694-.694v-4.855h2.384a2.078,2.078,0,0,0,2.019-1.576l.993-3.973h2.926Zm-5.548-22.887h4.161v1.387h-4.162Zm2.774,2.774v1.387h-1.387v-1.387Zm-2.064,2.847.147-.073h2.447l.146.073a3.766,3.766,0,0,1,2.027,2.7h-6.794a3.767,3.767,0,0,1,2.026-2.7Zm-9.033-5.621h4.161v1.387h-4.162Zm2.774,2.774v1.387h-1.387v-1.387Zm-2.064,2.847.147-.073h2.447l.146.073a3.766,3.766,0,0,1,2.027,2.7h-6.794a3.767,3.767,0,0,1,2.027-2.7Zm-4.872,4.089h19.419v1.387h-19.42Zm-5.2-1.387h-2.081l-1.04-1.387h4.161Zm-.347-2.774v-6.935h1.373a24.866,24.866,0,0,1-1.185,6.935Zm-1.387,0h-.188a24.867,24.867,0,0,1-1.185-6.935h1.373Zm3.675,0h-.648a26.27,26.27,0,0,0,1.12-6.935h1.4a13.959,13.959,0,0,1-1.873,6.935Zm-6.435-6.935a26.231,26.231,0,0,0,1.12,6.935h-.648a13.959,13.959,0,0,1-1.873-6.935Zm2.76,11.1h1.387v8.323h-1.387Zm-13.773-4.67a1.38,1.38,0,0,1,.737-.765,1.418,1.418,0,0,1,1.824.719l.922,2.119-2.576,1.03-.888-2.044a1.369,1.369,0,0,1-.018-1.06Zm1.459,4.378,2.577-1.03,4.194,9.645H387.69Zm1.217,10H400.42v1.387H385.162ZM386.549,696v-6.242h12.484V696a.7.7,0,0,1-.694.693h-.694v-5.548h-1.387v5.548h-2.774v-5.548H392.1v5.548h-2.774v-5.548h-1.387v5.548h-.694a.7.7,0,0,1-.694-.693Zm-1.387,6.242h1.387v.694a.694.694,0,1,1-1.387,0Zm.694,4.161a2.083,2.083,0,0,1-2.081-2.081,2.055,2.055,0,0,1,.131-.683,2.069,2.069,0,0,0,3.9,0,2.055,2.055,0,0,1,.131.683,2.083,2.083,0,0,1-2.081,2.081Zm30.516,0a4.858,4.858,0,0,1-4.8-4.161h1.4a3.468,3.468,0,0,0,6.8,0h1.4a4.858,4.858,0,0,1-4.8,4.161Zm-1.953-4.161h3.905a2.068,2.068,0,0,1-3.905,0Zm1.953-6.935a6.251,6.251,0,0,1,6.2,5.548H410.167a6.251,6.251,0,0,1,6.2-5.548Zm-7.6,5.548H382.388v-2.774h27.189a7.557,7.557,0,0,0-.8,2.774Zm-4.192-4.161V680.045h1.387V696.69Zm0,0" fill="#abb5bb"/>
  </g>
</svg>
