<svg width="8" height="8" viewBox="0 0 8 8" fill="none" xmlns="http://www.w3.org/2000/svg">
<circle cx="4" cy="4" r="4" fill="white"/>
<path d="M4 7.62939e-06C1.79444 7.62939e-06 0 1.79445 0 4.00001C0 6.20557 1.79444 8.00001 4 8.00001C6.20556 8.00001 8 6.20557 8 4.00001C8 1.79445 6.20556 7.62939e-06 4 7.62939e-06ZM4 7.66668C1.97819 7.66668 0.333328 6.02182 0.333328 4.00001C0.333328 1.9782 1.97819 0.333336 4 0.333336C6.02181 0.333336 7.66667 1.9782 7.66667 4.00001C7.66667 6.02182 6.02181 7.66668 4 7.66668Z" fill="#6DAF26"/>
<path d="M6.04886 2.38216L3.16671 5.26433L1.61788 3.71551C1.55277 3.6504 1.4473 3.6504 1.38221 3.71551C1.3171 3.78062 1.3171 3.88608 1.38221 3.95118L3.04888 5.61785C3.08142 5.6504 3.12408 5.66668 3.16672 5.66668C3.20936 5.66668 3.252 5.6504 3.28457 5.61785L6.28457 2.61785C6.34967 2.55274 6.34967 2.44727 6.28457 2.38218C6.21944 2.31707 6.11397 2.31707 6.04886 2.38216Z" fill="#6DAF26"/>
</svg>
