<svg width="25" height="25" viewBox="0 0 25 25" fill="none" xmlns="http://www.w3.org/2000/svg">
<path d="M12.5 0C5.60769 0 0 5.60721 0 12.5C0 19.3928 5.60769 25 12.5 25C19.3923 25 25 19.3928 25 12.5C25 5.60721 19.3923 0 12.5 0ZM12.5 24.0385C6.13798 24.0385 0.961538 18.862 0.961538 12.5C0.961538 6.13798 6.13798 0.961538 12.5 0.961538C18.862 0.961538 24.0385 6.13798 24.0385 12.5C24.0385 18.862 18.862 24.0385 12.5 24.0385Z" fill="white"/>
<path d="M18.3904 7.37307L11.0014 15.6856L6.55001 12.1245C6.34328 11.9586 6.03991 11.9928 5.87453 12.1995C5.70866 12.4072 5.74231 12.7096 5.94953 12.8755L10.7572 16.7216C10.8457 16.7923 10.9519 16.8269 11.0577 16.8269C11.1904 16.8269 11.3226 16.7721 11.4173 16.6654L19.1096 8.01153C19.2861 7.81345 19.2683 7.50913 19.0697 7.33317C18.8707 7.15624 18.5673 7.17403 18.3904 7.37307Z" fill="white"/>
</svg>
