<svg xmlns="http://www.w3.org/2000/svg" width="24.002" height="23.996" viewBox="0 0 24.002 23.996">
  <g id="Сгруппировать_390" data-name="Сгруппировать 390" transform="translate(-0.001 -0.067)">
    <path id="Контур_254" data-name="Контур 254" d="M24,10.447a2.1,2.1,0,0,0-.73-1.44L21.19,7.228V2.171a.7.7,0,0,0-.7-.7H17.674a.7.7,0,0,0-.694.7v1.44L13.422.579a2.1,2.1,0,0,0-2.743,0L.738,9.007A2.108,2.108,0,0,0,.51,11.983a2.131,2.131,0,0,0,2.313.614V23.36a.7.7,0,0,0,.694.7h16.97a.7.7,0,0,0,.7-.7V12.6A2.109,2.109,0,0,0,24,10.447ZM18.377,2.874h1.416V6.022L18.377,4.817ZM14.871,22.657H9.142V17.022h5.728Zm1.4,0V16.328a.7.7,0,0,0-.7-.7H8.439a.7.7,0,0,0-.694.7v6.328H4.22V11.586l7.826-6.639,7.747,6.632V22.657Zm6.159-11.59a.7.7,0,0,1-.992.076L12.506,3.489a.7.7,0,0,0-.912,0L2.569,11.143a.7.7,0,0,1-.918-1.065l9.94-8.431a.7.7,0,0,1,.916,0l9.844,8.429A.7.7,0,0,1,22.427,11.066Z" transform="translate(0 0)" fill="#7793a4"/>
    <path id="Контур_255" data-name="Контур 255" d="M200.213,179.939H195.9a.7.7,0,0,0-.694.7v4.219a.7.7,0,0,0,.694.7h4.313a.7.7,0,0,0,.7-.7v-4.219A.7.7,0,0,0,200.213,179.939Zm-.694,4.219H196.6v-2.813h2.916Z" transform="translate(-186.055 -171.439)" fill="#7793a4"/>
    <circle id="Эллипс_91" data-name="Эллипс 91" cx="0.703" cy="0.703" r="0.703" transform="translate(12.049 18.438)" fill="#7793a4"/>
  </g>
</svg>
