<svg xmlns="http://www.w3.org/2000/svg" width="24" height="24" viewBox="0 0 24 24">
  <g id="Сгруппировать_391" data-name="Сгруппировать 391" transform="translate(-16 -24)">
    <path id="Контур_256" data-name="Контур 256" d="M39.6,27.661H35.2V24.407A.4.4,0,0,0,34.8,24H21.2a.4.4,0,0,0-.4.407V30.1H16.4a.4.4,0,0,0-.4.407V47.186a.4.4,0,1,0,.8,0V30.915h4V47.593a.4.4,0,0,0,.4.407H34.8a.4.4,0,0,0,.4-.407V28.475h4V47.186a.4.4,0,1,0,.8,0V28.068A.4.4,0,0,0,39.6,27.661Zm-12,19.525H26V43.525h1.6Zm2.4,0H28.4V43.525H30Zm4.4,0H30.8V43.119a.4.4,0,0,0-.4-.407H25.6a.4.4,0,0,0-.4.407v4.068H21.6V24.814H34.4Z" fill="#7793a4"/>
    <path id="Контур_257" data-name="Контур 257" d="M144.425,59.4h2.549a.425.425,0,0,0,.425-.425V56.425a.425.425,0,0,0-.425-.425h-2.549a.425.425,0,0,0-.425.425v2.549A.425.425,0,0,0,144.425,59.4Zm.425-2.549h1.7v1.7h-1.7Z" transform="translate(-121.661 -30.301)" fill="#7793a4"/>
    <path id="Контур_258" data-name="Контур 258" d="M224.425,59.4h2.549a.425.425,0,0,0,.425-.425V56.425a.425.425,0,0,0-.425-.425h-2.549a.425.425,0,0,0-.425.425v2.549A.425.425,0,0,0,224.425,59.4Zm.425-2.549h1.7v1.7h-1.7Z" transform="translate(-197.699 -30.301)" fill="#7793a4"/>
    <path id="Контур_259" data-name="Контур 259" d="M304.425,59.4h2.549a.425.425,0,0,0,.425-.425V56.425a.425.425,0,0,0-.425-.425h-2.549a.425.425,0,0,0-.425.425v2.549A.425.425,0,0,0,304.425,59.4Zm.425-2.549h1.7v1.7h-1.7Z" transform="translate(-273.738 -30.301)" fill="#7793a4"/>
    <path id="Контур_260" data-name="Контур 260" d="M144.425,139.4h2.549a.425.425,0,0,0,.425-.425v-2.549a.425.425,0,0,0-.425-.425h-2.549a.425.425,0,0,0-.425.425v2.549A.425.425,0,0,0,144.425,139.4Zm.425-2.549h1.7v1.7h-1.7Z" transform="translate(-121.661 -106.345)" fill="#7793a4"/>
    <path id="Контур_261" data-name="Контур 261" d="M224.425,139.4h2.549a.425.425,0,0,0,.425-.425v-2.549a.425.425,0,0,0-.425-.425h-2.549a.425.425,0,0,0-.425.425v2.549A.425.425,0,0,0,224.425,139.4Zm.425-2.549h1.7v1.7h-1.7Z" transform="translate(-197.699 -106.345)" fill="#7793a4"/>
    <path id="Контур_262" data-name="Контур 262" d="M304.425,139.4h2.549a.425.425,0,0,0,.425-.425v-2.549a.425.425,0,0,0-.425-.425h-2.549a.425.425,0,0,0-.425.425v2.549A.425.425,0,0,0,304.425,139.4Zm.425-2.549h1.7v1.7h-1.7Z" transform="translate(-273.738 -106.345)" fill="#7793a4"/>
    <path id="Контур_263" data-name="Контур 263" d="M144.425,219.4h2.549a.425.425,0,0,0,.425-.425v-2.549a.425.425,0,0,0-.425-.425h-2.549a.425.425,0,0,0-.425.425v2.549A.425.425,0,0,0,144.425,219.4Zm.425-2.549h1.7v1.7h-1.7Z" transform="translate(-121.661 -182.305)" fill="#7793a4"/>
    <path id="Контур_264" data-name="Контур 264" d="M224.425,219.4h2.549a.425.425,0,0,0,.425-.425v-2.549a.425.425,0,0,0-.425-.425h-2.549a.425.425,0,0,0-.425.425v2.549A.425.425,0,0,0,224.425,219.4Zm.425-2.549h1.7v1.7h-1.7Z" transform="translate(-197.699 -182.305)" fill="#7793a4"/>
    <path id="Контур_265" data-name="Контур 265" d="M304.425,219.4h2.549a.425.425,0,0,0,.425-.425v-2.549a.425.425,0,0,0-.425-.425h-2.549a.425.425,0,0,0-.425.425v2.549A.425.425,0,0,0,304.425,219.4Zm.425-2.549h1.7v1.7h-1.7Z" transform="translate(-273.738 -182.305)" fill="#7793a4"/>
    <path id="Контур_266" data-name="Контур 266" d="M144.425,299.4h2.549a.425.425,0,0,0,.425-.425v-2.549a.425.425,0,0,0-.425-.425h-2.549a.425.425,0,0,0-.425.425v2.549A.425.425,0,0,0,144.425,299.4Zm.425-2.549h1.7v1.7h-1.7Z" transform="translate(-121.661 -258.266)" fill="#7793a4"/>
    <path id="Контур_267" data-name="Контур 267" d="M224.425,299.4h2.549a.425.425,0,0,0,.425-.425v-2.549a.425.425,0,0,0-.425-.425h-2.549a.425.425,0,0,0-.425.425v2.549A.425.425,0,0,0,224.425,299.4Zm.425-2.549h1.7v1.7h-1.7Z" transform="translate(-197.699 -258.266)" fill="#7793a4"/>
    <path id="Контур_268" data-name="Контур 268" d="M304.425,299.4h2.549a.425.425,0,0,0,.425-.425v-2.549a.425.425,0,0,0-.425-.425h-2.549a.425.425,0,0,0-.425.425v2.549A.425.425,0,0,0,304.425,299.4Zm.425-2.549h1.7v1.7h-1.7Z" transform="translate(-273.738 -258.266)" fill="#7793a4"/>
    <rect id="Прямоугольник_287" data-name="Прямоугольник 287" width="0.836" height="0.836" rx="0.418" transform="translate(17.884 31.988)" fill="#7793a4"/>
    <rect id="Прямоугольник_288" data-name="Прямоугольник 288" width="0.836" height="0.836" rx="0.418" transform="translate(19.555 31.988)" fill="#7793a4"/>
    <rect id="Прямоугольник_289" data-name="Прямоугольник 289" width="0.836" height="0.836" rx="0.418" transform="translate(17.884 33.585)" fill="#7793a4"/>
    <rect id="Прямоугольник_290" data-name="Прямоугольник 290" width="0.836" height="0.836" rx="0.418" transform="translate(19.555 33.585)" fill="#7793a4"/>
    <rect id="Прямоугольник_291" data-name="Прямоугольник 291" width="0.836" height="0.836" rx="0.418" transform="translate(17.884 35.183)" fill="#7793a4"/>
    <rect id="Прямоугольник_292" data-name="Прямоугольник 292" width="0.836" height="0.836" rx="0.418" transform="translate(19.555 35.183)" fill="#7793a4"/>
    <rect id="Прямоугольник_293" data-name="Прямоугольник 293" width="0.836" height="0.836" rx="0.418" transform="translate(17.884 36.78)" fill="#7793a4"/>
    <rect id="Прямоугольник_294" data-name="Прямоугольник 294" width="0.836" height="0.836" rx="0.418" transform="translate(19.555 36.78)" fill="#7793a4"/>
    <rect id="Прямоугольник_295" data-name="Прямоугольник 295" width="0.836" height="0.836" rx="0.418" transform="translate(17.884 38.378)" fill="#7793a4"/>
    <rect id="Прямоугольник_296" data-name="Прямоугольник 296" width="0.836" height="0.836" rx="0.418" transform="translate(19.555 38.378)" fill="#7793a4"/>
    <rect id="Прямоугольник_297" data-name="Прямоугольник 297" width="0.836" height="0.836" rx="0.418" transform="translate(17.884 39.975)" fill="#7793a4"/>
    <rect id="Прямоугольник_298" data-name="Прямоугольник 298" width="0.836" height="0.836" rx="0.418" transform="translate(19.555 39.975)" fill="#7793a4"/>
    <rect id="Прямоугольник_299" data-name="Прямоугольник 299" width="0.836" height="0.836" rx="0.418" transform="translate(17.884 41.573)" fill="#7793a4"/>
    <rect id="Прямоугольник_300" data-name="Прямоугольник 300" width="0.836" height="0.836" rx="0.418" transform="translate(19.555 41.573)" fill="#7793a4"/>
    <rect id="Прямоугольник_301" data-name="Прямоугольник 301" width="0.836" height="0.836" rx="0.418" transform="translate(17.884 43.171)" fill="#7793a4"/>
    <rect id="Прямоугольник_302" data-name="Прямоугольник 302" width="0.836" height="0.836" rx="0.418" transform="translate(19.555 43.171)" fill="#7793a4"/>
    <rect id="Прямоугольник_303" data-name="Прямоугольник 303" width="0.836" height="0.836" rx="0.418" transform="translate(17.884 44.658)" fill="#7793a4"/>
    <rect id="Прямоугольник_304" data-name="Прямоугольник 304" width="0.836" height="0.836" rx="0.418" transform="translate(19.555 44.658)" fill="#7793a4"/>
    <path id="Контур_269" data-name="Контур 269" d="M416.425,130.549h1.7a.425.425,0,0,0,.425-.425v-1.7a.425.425,0,0,0-.425-.425h-1.7a.425.425,0,0,0-.425.425v1.7A.425.425,0,0,0,416.425,130.549Zm.425-1.7h.85v.85h-.85Z" transform="translate(-380.249 -98.738)" fill="#7793a4"/>
    <path id="Контур_270" data-name="Контур 270" d="M416,194.124a.425.425,0,0,0,.425.425h1.7a.425.425,0,0,0,.425-.425v-1.7a.425.425,0,0,0-.425-.425h-1.7a.425.425,0,0,0-.425.425Zm.85-1.275h.85v.85h-.85Z" transform="translate(-380.249 -159.501)" fill="#7793a4"/>
    <path id="Контур_271" data-name="Контур 271" d="M416,258.124a.425.425,0,0,0,.425.425h1.7a.425.425,0,0,0,.425-.425v-1.7a.425.425,0,0,0-.425-.425h-1.7a.425.425,0,0,0-.425.425Zm.85-1.275h.85v.85h-.85Z" transform="translate(-380.249 -220.263)" fill="#7793a4"/>
    <path id="Контур_272" data-name="Контур 272" d="M416,322.124a.425.425,0,0,0,.425.425h1.7a.425.425,0,0,0,.425-.425v-1.7a.425.425,0,0,0-.425-.425h-1.7a.425.425,0,0,0-.425.425Zm.85-1.275h.85v.85h-.85Z" transform="translate(-380.249 -281.025)" fill="#7793a4"/>
    <path id="Контур_273" data-name="Контур 273" d="M416,386.124a.425.425,0,0,0,.425.425h1.7a.425.425,0,0,0,.425-.425v-1.7a.425.425,0,0,0-.425-.425h-1.7a.425.425,0,0,0-.425.425Zm.85-1.275h.85v.85h-.85Z" transform="translate(-380.249 -341.948)" fill="#7793a4"/>
  </g>
</svg>
