<svg width="486" height="583" viewBox="0 0 486 583" fill="none" xmlns="http://www.w3.org/2000/svg">
<path d="M0 17V83.2557C0 85.8646 1.01953 88.3702 2.84105 90.2378L23.6984 111.624C27.3803 115.399 27.4979 121.384 23.9672 125.301L2.57226 149.036C0.916417 150.873 0 153.258 0 155.732V573C0 578.523 4.47717 583 10 583H465C470.523 583 475 578.523 475 573V17C475 11.4772 470.523 7 465 7H10C4.47715 7 0 11.4772 0 17Z" fill="#D6AD1D"/>
<path d="M7 10V76.2313C7 78.8547 8.03087 81.373 9.87038 83.2433L30.8697 104.595C34.59 108.377 34.7086 114.407 31.1398 118.333L9.60026 142.029C7.92709 143.87 7 146.268 7 148.755V566C7 571.523 11.4772 576 17 576H476C481.523 576 486 571.523 486 566V10C486 4.47715 481.523 0 476 0H17C11.4772 0 7 4.47716 7 10Z" fill="white"/>
</svg>
