<svg xmlns="http://www.w3.org/2000/svg" width="206.787" height="66.985" viewBox="0 0 206.787 66.985">
  <g id="Сгруппировать_566" data-name="Сгруппировать 566" transform="translate(-285.007 -206.928) rotate(-2)">
    <g id="Сгруппировать_564" data-name="Сгруппировать 564" transform="translate(291.115 223.48)">
      <path id="Контур_310" data-name="Контур 310" d="M318.111,240.112h7.976v35.432h-7.976V260.512h-13.4v15.032h-7.976V240.112h7.976v13.549h13.4Z" transform="translate(-296.739 -228.301)" fill="#0b4e7b"/>
      <path id="Контур_311" data-name="Контур 311" d="M371.9,275.544q-.592-1.847-1.272-3.793l-1.356-3.877H355.431q-.671,1.939-1.346,3.887t-1.256,3.783h-8.282q2-5.726,3.795-10.584t3.512-9.152q1.718-4.295,3.385-8.155t3.462-7.541h7.561q1.747,3.681,3.442,7.541t3.416,8.155q1.721,4.295,3.519,9.152t3.8,10.584Zm-9.582-27.405q-.267.771-.782,2.1t-1.17,3.07q-.656,1.742-1.469,3.835t-1.648,4.391h10.132q-.814-2.305-1.575-4.4t-1.449-3.842q-.687-1.741-1.2-3.068T362.314,248.139Z" transform="translate(-310.598 -228.301)" fill="#0b4e7b"/>
      <path id="Контур_312" data-name="Контур 312" d="M430.588,275.837q-2.915,0-5.8-.179a41.109,41.109,0,0,1-6.008-.844V240.456a51.061,51.061,0,0,1,5.369-.69q2.915-.23,5.42-.23a36.907,36.907,0,0,1,6.212.486,14.74,14.74,0,0,1,4.883,1.662,8.716,8.716,0,0,1,3.2,3.093,9.053,9.053,0,0,1,1.15,4.729,7.506,7.506,0,0,1-4.09,6.7,8.373,8.373,0,0,1,4.6,3.477,10.008,10.008,0,0,1,1.227,4.96q0,5.573-4.065,8.385T430.588,275.837Zm-4.039-21.985h3.885a10.826,10.826,0,0,0,5.266-.946,3.275,3.275,0,0,0,1.586-3.042,3.127,3.127,0,0,0-1.636-3.017,10.518,10.518,0,0,0-4.806-.869q-1.024,0-2.2.026t-2.1.128Zm0,6.084v9.152q.868.1,1.892.153t2.25.051a13.816,13.816,0,0,0,5.777-1.023,3.793,3.793,0,0,0,2.2-3.784,3.707,3.707,0,0,0-1.841-3.5,10.78,10.78,0,0,0-5.266-1.048Z" transform="translate(-332.115 -228.134)" fill="#0b4e7b"/>
      <path id="Контур_313" data-name="Контур 313" d="M482.692,275.926q-8.642,0-13.166-4.806T465,257.469a20.992,20.992,0,0,1,1.38-7.848,16.91,16.91,0,0,1,3.784-5.829,15.819,15.819,0,0,1,5.726-3.6,20.656,20.656,0,0,1,7.209-1.227,23.123,23.123,0,0,1,4.091.332,26.782,26.782,0,0,1,3.22.767,15.86,15.86,0,0,1,2.3.895q.92.46,1.329.716l-2.3,6.442a19.3,19.3,0,0,0-3.809-1.483,18.182,18.182,0,0,0-4.934-.614,10.893,10.893,0,0,0-3.6.614,8.152,8.152,0,0,0-3.12,1.968,9.8,9.8,0,0,0-2.173,3.5,14.7,14.7,0,0,0-.817,5.215,18.611,18.611,0,0,0,.536,4.576,9.706,9.706,0,0,0,1.738,3.656,8.345,8.345,0,0,0,3.144,2.429,11.193,11.193,0,0,0,4.7.895,21.427,21.427,0,0,0,3.119-.2,23.027,23.027,0,0,0,2.455-.486,12.862,12.862,0,0,0,1.892-.639q.817-.357,1.482-.665l2.2,6.391a18.661,18.661,0,0,1-4.755,1.841A27.738,27.738,0,0,1,482.692,275.926Z" transform="translate(-345.515 -227.967)" fill="#0b4e7b"/>
      <path id="Контур_314" data-name="Контур 314" d="M513.817,270.723V235.291h23.928v6.7H521.793v6.953h14.163v6.544H521.793v8.538h17.128v6.7Zm6.135-39.471a4.017,4.017,0,0,1-2.761-1.048,4.012,4.012,0,0,1,0-5.675,4.16,4.16,0,0,1,5.522,0,4.012,4.012,0,0,1,0,5.675A4.019,4.019,0,0,1,519.952,231.252Zm11.4,0a4.017,4.017,0,0,1-2.761-1.048,4.012,4.012,0,0,1,0-5.675,4.16,4.16,0,0,1,5.522,0,4.012,4.012,0,0,1,0,5.675A4.019,4.019,0,0,1,531.354,231.252Z" transform="translate(-359.665 -223.48)" fill="#0b4e7b"/>
    </g>
    <g id="Сгруппировать_565" data-name="Сгруппировать 565" transform="translate(277.337 224.616)">
      <path id="Контур_315" data-name="Контур 315" d="M482.184,284.228H277.337V225.079H440.111v4.971H282.343v49.207H477.178V230.05h-3.866v-4.971h8.873Z" transform="translate(-277.337 -225.079)" fill="#0b4e7b"/>
    </g>
  </g>
</svg>
