<svg width="43" height="43" viewBox="0 0 43 43" fill="none" xmlns="http://www.w3.org/2000/svg">
<g clip-path="url(#clip0)">
<path d="M21.5 11.2979L6.16427 23.9406C6.16427 23.9584 6.15979 23.9847 6.15082 24.0204C6.14204 24.0559 6.13737 24.0817 6.13737 24.1V36.9021C6.13737 37.3644 6.30636 37.7649 6.64425 38.1023C6.98205 38.4398 7.38207 38.6096 7.84439 38.6096H18.0858V28.3676H24.9143V38.61H35.1556C35.6179 38.61 36.0184 38.4405 36.3558 38.1023C36.6937 37.7653 36.8632 37.3644 36.8632 36.9021V24.1C36.8632 24.029 36.8535 23.9754 36.8363 23.9406L21.5 11.2979Z" fill="#FCCD63"/>
<path d="M42.7033 21.06L36.8626 16.2058V5.32385C36.8626 5.07508 36.7827 4.87049 36.6222 4.71037C36.463 4.55044 36.2584 4.47048 36.0091 4.47048H30.8883C30.6392 4.47048 30.4348 4.55044 30.2745 4.71037C30.1147 4.87049 30.0348 5.07517 30.0348 5.32385V10.5247L23.5272 5.08358C22.9588 4.62125 22.283 4.39014 21.5006 4.39014C20.7182 4.39014 20.0425 4.62125 19.4736 5.08358L0.296327 21.06C0.118553 21.202 0.0211187 21.3931 0.00299567 21.6332C-0.015034 21.8731 0.0470888 22.0826 0.189551 22.2603L1.84314 24.2341C1.9856 24.394 2.17206 24.4918 2.40327 24.5276C2.61673 24.5455 2.83019 24.4831 3.04365 24.3409L21.5 8.95108L39.9565 24.3408C40.0991 24.4649 40.2855 24.5268 40.5167 24.5268H40.5968C40.8277 24.4917 41.0137 24.3932 41.157 24.2337L42.8107 22.2602C42.9529 22.0822 43.0152 21.873 42.9967 21.6328C42.9785 21.3934 42.8807 21.2023 42.7033 21.06Z" fill="#FCCD63"/>
</g>
<defs>
<clipPath id="clip0">
<rect width="43" height="43" fill="white"/>
</clipPath>
</defs>
</svg>
