<svg width="43" height="43" viewBox="0 0 43 43" fill="none" xmlns="http://www.w3.org/2000/svg">
<g clip-path="url(#clip0)">
<path d="M21.5001 11.2979L6.16436 23.9406C6.16436 23.9584 6.15987 23.9847 6.1509 24.0204C6.14212 24.0559 6.13745 24.0817 6.13745 24.1V36.9021C6.13745 37.3644 6.30644 37.7649 6.64434 38.1023C6.98213 38.4398 7.38215 38.6096 7.84447 38.6096H18.0859V28.3676H24.9144V38.61H35.1557C35.6179 38.61 36.0185 38.4405 36.3558 38.1023C36.6937 37.7653 36.8633 37.3645 36.8633 36.9021V24.1C36.8633 24.029 36.8536 23.9754 36.8364 23.9406L21.5001 11.2979Z" fill="#7BB63C"/>
<path d="M42.7033 21.06L36.8627 16.2058V5.32385C36.8627 5.07508 36.7827 4.87049 36.6222 4.71037C36.463 4.55044 36.2585 4.47048 36.0091 4.47048H30.8883C30.6393 4.47048 30.4348 4.55044 30.2746 4.71037C30.1147 4.87049 30.0349 5.07517 30.0349 5.32385V10.5247L23.5272 5.08358C22.9589 4.62125 22.2831 4.39014 21.5006 4.39014C20.7182 4.39014 20.0425 4.62125 19.4736 5.08358L0.296373 21.06C0.118599 21.202 0.0211645 21.3931 0.00304144 21.6332C-0.0149882 21.8731 0.0471346 22.0826 0.189597 22.2603L1.84318 24.2341C1.98565 24.394 2.17211 24.4918 2.40332 24.5276C2.61678 24.5455 2.83024 24.4831 3.04369 24.3409L21.5 8.95108L39.9566 24.3408C40.0991 24.4649 40.2855 24.5268 40.5167 24.5268H40.5969C40.8277 24.4917 41.0138 24.3932 41.157 24.2337L42.8108 22.2602C42.953 22.0822 43.0153 21.873 42.9968 21.6328C42.9786 21.3934 42.8807 21.2023 42.7033 21.06Z" fill="#7BB63C"/>
</g>
<defs>
<clipPath id="clip0">
<rect width="43" height="43" fill="white"/>
</clipPath>
</defs>
</svg>
