<svg width="108" height="17" viewBox="0 0 108 17" fill="none" xmlns="http://www.w3.org/2000/svg">
<path d="M12.9333 3.66663C12.7124 3.66663 12.5333 3.8457 12.5333 4.06665C12.5333 4.2876 12.7124 4.46667 12.9333 4.46667C13.1543 4.46667 13.3334 4.2876 13.3334 4.06665C13.3334 3.8457 13.1543 3.66663 12.9333 3.66663Z" fill="#FFE63C"/>
<path d="M14.0553 1.07816C13.9512 0.97403 13.7823 0.97403 13.6782 1.07816L11.5448 3.21146C11.4949 3.26151 11.4667 3.32925 11.4667 3.40005V5.26663C11.4667 5.41397 11.5861 5.53336 11.7334 5.53336H13.6001C13.6708 5.53336 13.7385 5.50528 13.7886 5.45523L15.9219 3.32181C16.026 3.21768 16.026 3.04898 15.9219 2.94473L14.0553 1.07816ZM13.4896 5.00003H12V3.51041L13.8667 1.64371L15.3563 3.13333L13.4896 5.00003Z" fill="#FFE63C"/>
<path d="M0.266724 10.0667H1.06665V10.1008C1.06775 10.5806 1.39917 10.9965 1.8667 11.1045V13.5333C1.8667 13.6807 1.98608 13.8 2.1333 13.8H3.73328C3.88062 13.8 4 13.6807 4 13.5333V12.4667H4.2688C4.70898 12.4655 5.06555 12.109 5.06665 11.6688V11.1045C5.40723 11.0247 5.6842 10.7776 5.80212 10.4482L10.2917 12.4437C10.4264 12.5035 10.584 12.4429 10.6437 12.3082C10.6588 12.2742 10.6667 12.2373 10.6666 12.2V5.79993C10.6667 5.65271 10.5474 5.53333 10.4 5.53333C10.3628 5.53333 10.3258 5.54114 10.2917 5.55627L5.80212 7.55176C5.65637 7.14197 5.26904 6.86792 4.83411 6.8667H2.09924C1.52917 6.86719 1.06726 7.32922 1.06665 7.89917V7.93335H0.266724C0.119385 7.93335 0 8.05273 0 8.19995V9.79993C0 9.94727 0.119385 10.0667 0.266724 10.0667ZM9.06665 6.6842L10.1333 6.21045V11.7896L9.06665 11.3158V6.6842ZM5.8667 8.10669L8.53333 6.92126V11.08L5.8667 9.89331V8.10669ZM3.46667 12.2V13.2667H2.40002V11.1333H3.46667V12.2ZM4.53333 11.6688C4.5332 11.8148 4.41492 11.9332 4.2688 11.9333H4V11.1333H4.53333V11.6688ZM1.59998 9.79993V7.89917C1.60034 7.62366 1.82361 7.40027 2.09924 7.40002H4.83411C5.10974 7.40027 5.33301 7.62366 5.33337 7.89917V10.1008C5.33301 10.3763 5.10974 10.5997 4.83411 10.6H2.09924C1.82361 10.5997 1.60034 10.3763 1.59998 10.1008V9.79993ZM0.533325 8.46667H1.06665V9.53333H0.533325V8.46667Z" fill="#FFE63C"/>
<path d="M13.2822 11.4858C13.1781 11.3817 13.0093 11.3817 12.9052 11.4858L11.0193 13.3717C10.9152 13.4758 10.9152 13.6447 11.0193 13.7488L13.6593 16.3888C13.7634 16.4929 13.9321 16.4929 14.0364 16.3888L15.9219 14.5032C16.026 14.399 16.026 14.2302 15.9219 14.1261L13.2822 11.4858ZM15.0353 13.9926L13.5304 13.8771L13.4147 12.3722L15.0353 13.9926ZM13.8478 15.8224L11.5848 13.5599L12.8721 12.2728L13.0164 14.1459C13.0264 14.277 13.1305 14.3813 13.2616 14.3915L15.135 14.5354L13.8478 15.8224Z" fill="#FFE63C"/>
<path d="M7.20006 6.06665C8.22887 6.06897 9.06481 5.23682 9.06725 4.20801C9.06811 3.80273 8.93688 3.4082 8.69335 3.08423L10.3224 1.4552L9.94481 1.07812L8.31579 2.70667C7.49096 2.08813 6.32091 2.25525 5.70238 3.07996C5.08385 3.90466 5.25097 5.07471 6.07567 5.69336C6.40002 5.93652 6.79467 6.0675 7.20006 6.06665ZM7.20006 2.86658C7.93639 2.86658 8.53332 3.46362 8.53332 4.19995C8.53332 4.9364 7.93639 5.53333 7.20006 5.53333C6.46361 5.53333 5.86669 4.9364 5.86669 4.19995C5.86754 3.46399 6.46398 2.86755 7.20006 2.86658Z" fill="#FFE63C"/>
<path d="M11.4667 10.3334H12.8V10.6C12.8 10.7473 12.9194 10.8667 13.0668 10.8667H15.2001C15.3473 10.8667 15.4667 10.7473 15.4667 10.6V9.27173C15.4653 8.81885 15.179 8.4159 14.7518 8.26563C15.2318 7.92407 15.344 7.25806 15.0024 6.77808C14.661 6.2981 13.995 6.18579 13.515 6.52735C13.035 6.8689 12.9227 7.53491 13.2643 8.01489C13.3333 8.11182 13.418 8.19666 13.515 8.26563C13.3424 8.32715 13.1885 8.43201 13.068 8.57007C12.9751 8.46301 12.8617 8.37549 12.7345 8.31275C13.0929 8.05445 13.1741 7.55445 12.9158 7.19605C12.6575 6.83765 12.1575 6.75647 11.799 7.01477C11.4406 7.27307 11.3594 7.77307 11.6177 8.13147C11.668 8.2013 11.7292 8.26245 11.799 8.31275C11.4337 8.49036 11.2013 8.86048 11.2001 9.2666V10.0667C11.2001 10.2139 11.3195 10.3334 11.4667 10.3334ZM14.1334 6.8667C14.428 6.8667 14.6667 7.10547 14.6667 7.40003C14.6667 7.69458 14.428 7.93335 14.1334 7.93335C13.8389 7.93335 13.6001 7.69446 13.6001 7.40003C13.6001 7.10547 13.8389 6.8667 14.1334 6.8667ZM13.3334 10.0667V9.27173C13.3339 8.97449 13.5746 8.73377 13.8718 8.73328H14.395C14.6921 8.73377 14.933 8.97449 14.9333 9.27173V10.3333H13.3334V10.0667ZM12.2667 7.40003C12.4139 7.40003 12.5333 7.51941 12.5333 7.66663C12.5333 7.81397 12.4139 7.93335 12.2667 7.93335C12.1194 7.93335 12 7.81397 12 7.66663C12 7.51941 12.1194 7.40003 12.2667 7.40003ZM11.7334 9.2666C11.7334 8.97205 11.9722 8.73328 12.2667 8.73328C12.5613 8.73328 12.8 8.97217 12.8 9.2666V9.80005H11.7334V9.2666Z" fill="#FFE63C"/>
<path d="M7.46667 11.9333H6.40002C6.32935 11.9333 6.26147 11.9614 6.21143 12.0115L4.61145 13.6114C4.50732 13.7156 4.50732 13.8844 4.61145 13.9885L7.5448 16.9219C7.64893 17.026 7.81775 17.026 7.92187 16.9219L10.0553 14.7886C10.1593 14.6844 10.1593 14.5156 10.0553 14.4115L7.65527 12.0115C7.60522 11.9614 7.53735 11.9333 7.46667 11.9333ZM7.7334 16.3563L5.17712 13.8L6.51038 12.4667H7.35632L9.48962 14.6L7.7334 16.3563Z" fill="#FFE63C"/>
<path d="M6.21155 14.1448L7.2782 13.0781L7.65527 13.4552L6.58862 14.5219L6.21155 14.1448Z" fill="#FFE63C"/>
<path d="M7.01135 14.9447L8.07812 13.8781L8.4552 14.2551L7.38855 15.3219L7.01135 14.9447Z" fill="#FFE63C"/>
<path d="M20.162 4.2H24.614C25.678 4.2 26.616 4.40533 27.428 4.816C28.2493 5.21733 28.884 5.78667 29.332 6.524C29.7893 7.26133 30.018 8.12 30.018 9.1C30.018 10.08 29.7893 10.9387 29.332 11.676C28.884 12.4133 28.2493 12.9873 27.428 13.398C26.616 13.7993 25.678 14 24.614 14H20.162V4.2ZM24.502 12.138C25.482 12.138 26.2613 11.8673 26.84 11.326C27.428 10.7753 27.722 10.0333 27.722 9.1C27.722 8.16667 27.428 7.42933 26.84 6.888C26.2613 6.33733 25.482 6.062 24.502 6.062H22.43V12.138H24.502ZM31.5744 6.468H33.7584V14H31.5744V6.468ZM32.6664 5.418C32.2651 5.418 31.9384 5.30133 31.6864 5.068C31.4344 4.83467 31.3084 4.54533 31.3084 4.2C31.3084 3.85467 31.4344 3.56533 31.6864 3.332C31.9384 3.09867 32.2651 2.982 32.6664 2.982C33.0677 2.982 33.3944 3.094 33.6464 3.318C33.8984 3.542 34.0244 3.822 34.0244 4.158C34.0244 4.522 33.8984 4.82533 33.6464 5.068C33.3944 5.30133 33.0677 5.418 32.6664 5.418ZM43.5553 6.468V12.74C43.5553 14.1213 43.196 15.148 42.4773 15.82C41.7587 16.492 40.7087 16.828 39.3273 16.828C38.5993 16.828 37.9087 16.7393 37.2553 16.562C36.602 16.3847 36.0607 16.128 35.6313 15.792L36.4993 14.224C36.8167 14.4853 37.218 14.6907 37.7033 14.84C38.1887 14.9987 38.674 15.078 39.1593 15.078C39.9153 15.078 40.4707 14.9053 40.8253 14.56C41.1893 14.224 41.3713 13.7107 41.3713 13.02V12.698C40.802 13.3233 40.0087 13.636 38.9913 13.636C38.3007 13.636 37.666 13.4867 37.0873 13.188C36.518 12.88 36.0653 12.4507 35.7293 11.9C35.3933 11.3493 35.2253 10.7147 35.2253 9.996C35.2253 9.27733 35.3933 8.64267 35.7293 8.092C36.0653 7.54133 36.518 7.11667 37.0873 6.818C37.666 6.51 38.3007 6.356 38.9913 6.356C40.0833 6.356 40.914 6.71533 41.4833 7.434V6.468H43.5553ZM39.4253 11.844C40.004 11.844 40.4753 11.676 40.8393 11.34C41.2127 10.9947 41.3993 10.5467 41.3993 9.996C41.3993 9.44533 41.2127 9.002 40.8393 8.666C40.4753 8.32067 40.004 8.148 39.4253 8.148C38.8467 8.148 38.3707 8.32067 37.9973 8.666C37.624 9.002 37.4373 9.44533 37.4373 9.996C37.4373 10.5467 37.624 10.9947 37.9973 11.34C38.3707 11.676 38.8467 11.844 39.4253 11.844ZM45.5881 6.468H47.7721V14H45.5881V6.468ZM46.6801 5.418C46.2787 5.418 45.9521 5.30133 45.7001 5.068C45.4481 4.83467 45.3221 4.54533 45.3221 4.2C45.3221 3.85467 45.4481 3.56533 45.7001 3.332C45.9521 3.09867 46.2787 2.982 46.6801 2.982C47.0814 2.982 47.4081 3.094 47.6601 3.318C47.9121 3.542 48.0381 3.822 48.0381 4.158C48.0381 4.522 47.9121 4.82533 47.6601 5.068C47.4081 5.30133 47.0814 5.418 46.6801 5.418ZM54.657 13.636C54.4423 13.7947 54.1763 13.916 53.859 14C53.551 14.0747 53.2243 14.112 52.879 14.112C51.983 14.112 51.2877 13.8833 50.793 13.426C50.3077 12.9687 50.065 12.2967 50.065 11.41V8.316H48.903V6.636H50.065V4.802H52.249V6.636H54.125V8.316H52.249V11.382C52.249 11.6993 52.3283 11.9467 52.487 12.124C52.655 12.292 52.8883 12.376 53.187 12.376C53.5323 12.376 53.8263 12.2827 54.069 12.096L54.657 13.636ZM58.921 6.356C60.0877 6.356 60.9837 6.636 61.609 7.196C62.2343 7.74667 62.547 8.582 62.547 9.702V14H60.503V13.062C60.0923 13.762 59.327 14.112 58.207 14.112C57.6283 14.112 57.1243 14.014 56.695 13.818C56.275 13.622 55.953 13.3513 55.729 13.006C55.505 12.6607 55.393 12.2687 55.393 11.83C55.393 11.13 55.6543 10.5793 56.177 10.178C56.709 9.77667 57.5257 9.576 58.627 9.576H60.363C60.363 9.1 60.2183 8.736 59.929 8.484C59.6397 8.22267 59.2057 8.092 58.627 8.092C58.2257 8.092 57.829 8.15733 57.437 8.288C57.0543 8.40933 56.7277 8.57733 56.457 8.792L55.673 7.266C56.0837 6.97667 56.5737 6.75267 57.143 6.594C57.7217 6.43533 58.3143 6.356 58.921 6.356ZM58.753 12.642C59.1263 12.642 59.4577 12.558 59.747 12.39C60.0363 12.2127 60.2417 11.956 60.363 11.62V10.85H58.865C57.969 10.85 57.521 11.144 57.521 11.732C57.521 12.012 57.6283 12.236 57.843 12.404C58.067 12.5627 58.3703 12.642 58.753 12.642ZM64.5236 3.612H66.7076V14H64.5236V3.612ZM70.9186 6.048H67.7826V4.2H76.3226V6.048H73.1866V14H70.9186V6.048ZM84.0012 10.262C84.0012 10.29 83.9872 10.486 83.9592 10.85H78.2612C78.3639 11.3167 78.6066 11.6853 78.9892 11.956C79.3719 12.2267 79.8479 12.362 80.4172 12.362C80.8092 12.362 81.1546 12.306 81.4532 12.194C81.7612 12.0727 82.0459 11.886 82.3072 11.634L83.4692 12.894C82.7599 13.706 81.7239 14.112 80.3612 14.112C79.5119 14.112 78.7606 13.9487 78.1072 13.622C77.4539 13.286 76.9499 12.824 76.5952 12.236C76.2406 11.648 76.0632 10.9807 76.0632 10.234C76.0632 9.49667 76.2359 8.834 76.5812 8.246C76.9359 7.64867 77.4166 7.18667 78.0232 6.86C78.6392 6.524 79.3252 6.356 80.0812 6.356C80.8186 6.356 81.4859 6.51467 82.0832 6.832C82.6806 7.14933 83.1472 7.60667 83.4832 8.204C83.8286 8.792 84.0012 9.478 84.0012 10.262ZM80.0952 8.008C79.6006 8.008 79.1852 8.148 78.8492 8.428C78.5132 8.708 78.3079 9.09067 78.2332 9.576H81.9432C81.8686 9.1 81.6632 8.722 81.3272 8.442C80.9912 8.15267 80.5806 8.008 80.0952 8.008ZM88.2882 6.356C89.4549 6.356 90.3509 6.636 90.9762 7.196C91.6015 7.74667 91.9142 8.582 91.9142 9.702V14H89.8702V13.062C89.4595 13.762 88.6942 14.112 87.5742 14.112C86.9955 14.112 86.4915 14.014 86.0622 13.818C85.6422 13.622 85.3202 13.3513 85.0962 13.006C84.8722 12.6607 84.7602 12.2687 84.7602 11.83C84.7602 11.13 85.0215 10.5793 85.5442 10.178C86.0762 9.77667 86.8929 9.576 87.9942 9.576H89.7302C89.7302 9.1 89.5855 8.736 89.2962 8.484C89.0069 8.22267 88.5729 8.092 87.9942 8.092C87.5929 8.092 87.1962 8.15733 86.8042 8.288C86.4215 8.40933 86.0949 8.57733 85.8242 8.792L85.0402 7.266C85.4509 6.97667 85.9409 6.75267 86.5102 6.594C87.0889 6.43533 87.6815 6.356 88.2882 6.356ZM88.1202 12.642C88.4935 12.642 88.8249 12.558 89.1142 12.39C89.4035 12.2127 89.6089 11.956 89.7302 11.62V10.85H88.2322C87.3362 10.85 86.8882 11.144 86.8882 11.732C86.8882 12.012 86.9955 12.236 87.2102 12.404C87.4342 12.5627 87.7375 12.642 88.1202 12.642ZM103.537 6.356C104.479 6.356 105.226 6.636 105.777 7.196C106.337 7.74667 106.617 8.57733 106.617 9.688V14H104.433V10.024C104.433 9.42667 104.307 8.98333 104.055 8.694C103.812 8.39533 103.462 8.246 103.005 8.246C102.491 8.246 102.085 8.414 101.787 8.75C101.488 9.07667 101.339 9.56667 101.339 10.22V14H99.1548V10.024C99.1548 8.83867 98.6788 8.246 97.7268 8.246C97.2228 8.246 96.8215 8.414 96.5228 8.75C96.2241 9.07667 96.0748 9.56667 96.0748 10.22V14H93.8908V6.468H95.9768V7.336C96.2568 7.01867 96.5975 6.776 96.9988 6.608C97.4095 6.44 97.8575 6.356 98.3428 6.356C98.8748 6.356 99.3555 6.46333 99.7848 6.678C100.214 6.88333 100.559 7.18667 100.821 7.588C101.129 7.196 101.516 6.89267 101.983 6.678C102.459 6.46333 102.977 6.356 103.537 6.356Z" fill="#FCFBFF"/>
</svg>
