<svg width="132" height="25" viewBox="0 0 132 25" fill="none" xmlns="http://www.w3.org/2000/svg">
<path d="M18.2169 5.5604L18.2411 5.74601L17.9629 5.80359L17.9259 6.19897H18.2591L18.7023 6.15629L18.931 5.88431L18.6879 5.78971L18.5547 5.6365L18.3547 5.31259L18.2591 4.85449L17.8832 4.9311L17.7778 5.09254V5.27454L17.9588 5.39845L18.2169 5.5604Z" fill="white" fill-opacity="0.95"/>
<path d="M17.8967 5.71256L17.9168 5.46474L17.6962 5.36963L17.3877 5.44109L17.1589 5.80819V6.04624H17.4258L17.8967 5.71256Z" fill="white" fill-opacity="0.95"/>
<path d="M11.547 6.76502L11.4792 6.93983H11.1506V7.1095H11.2288C11.2288 7.1095 11.2334 7.14548 11.2401 7.19279L11.4416 7.17582L11.5676 7.09767L11.6005 6.93983L11.7635 6.92595L11.8278 6.7933L11.6781 6.76245L11.547 6.76502Z" fill="white" fill-opacity="0.95"/>
<path d="M10.7001 7.07298L10.6873 7.23905L10.9253 7.219L10.95 7.05242L10.8071 6.93982L10.7001 7.07298Z" fill="white" fill-opacity="0.95"/>
<path d="M24.9969 12.3707C24.9933 12.0051 24.9748 11.6422 24.9404 11.2848C24.8247 10.0936 24.5398 8.95167 24.1131 7.88123C24.0812 7.80154 24.0519 7.72082 24.018 7.64216C23.4494 6.29871 22.6509 5.07558 21.6735 4.02005C21.6093 3.95116 21.544 3.88329 21.4787 3.81645C21.2941 3.62468 21.1044 3.43753 20.908 3.2581C18.6859 1.23496 15.7347 0 12.4997 0C9.23753 0 6.2653 1.25707 4.03702 3.31105C3.51774 3.78972 3.04062 4.31208 2.60771 4.87147C0.974807 6.98355 0 9.62931 0 12.4997C0 19.3928 5.60771 25 12.5003 25C17.3486 25 21.5578 22.2236 23.6298 18.1784C24.073 17.3136 24.418 16.3918 24.6504 15.4257C24.7095 15.1805 24.7604 14.9342 24.8046 14.6848C24.9306 13.9748 24.9995 13.2447 24.9995 12.4997C25 12.4566 24.9974 12.4139 24.9969 12.3707ZM22.6442 7.37481L22.7167 7.29357C22.8118 7.47815 22.9008 7.66581 22.9856 7.85604L22.8674 7.85141L22.6442 7.88226V7.37481ZM20.838 5.19383L20.8401 4.63548C21.0365 4.8437 21.2257 5.0581 21.4067 5.28021L21.1815 5.61542L20.3943 5.60823L20.345 5.44422L20.838 5.19383ZM5.75938 3.80617V3.78509H6.00977L6.03136 3.69923H6.44113V3.87815L6.32339 4.03548H5.75887L5.75938 3.80617ZM6.15938 4.36401C6.15938 4.36401 6.40977 4.32134 6.43136 4.32134C6.45296 4.32134 6.43136 4.57121 6.43136 4.57121L5.86684 4.60668L5.75938 4.47815L6.15938 4.36401ZM23.4406 9.32596H22.526L21.9686 8.91105L21.382 8.96812V9.32596H21.1964L20.9959 9.18303L19.9799 8.92545V8.26735L18.6925 8.36761L18.2936 8.582H17.7825L17.5321 8.55681L16.9116 8.90129V9.54961L15.6432 10.4648L15.7486 10.8555H16.0057L15.9383 11.2278L15.7573 11.2941L15.7476 12.2668L16.8437 13.5152H17.3208L17.3496 13.4391H18.2072L18.4545 13.2103H18.9409L19.2077 13.4776L19.9326 13.5527L19.8365 14.5167L20.6411 15.9373L20.2175 16.747L20.2463 17.1285L20.5799 17.4612V18.3784L21.018 18.9676V19.7296H21.3964C19.2905 22.3152 16.0853 23.9712 12.4992 23.9712C6.17429 23.9717 1.02828 18.8252 1.02828 12.4997C1.02828 10.9075 1.35527 9.38972 1.94396 8.01028V7.65244L2.35424 7.15424C2.49666 6.88535 2.64936 6.62314 2.81234 6.36761L2.83085 6.57584L2.35476 7.15424C2.2072 7.4329 2.06941 7.71774 1.94447 8.01028V8.66324L2.42108 8.89254V9.8L2.87815 10.5799L3.24987 10.637L3.29769 10.3697L2.85913 9.69306L2.77326 9.03548H3.03033L3.13882 9.71208L3.77275 10.637L3.60925 10.9357L4.01234 11.5522L5.01337 11.8V11.638L5.41388 11.6951L5.37584 11.981L5.69049 12.0386L6.17635 12.1712L6.86272 12.9532L7.73933 13.0195L7.82519 13.7347L7.22519 14.1542L7.19692 14.7928L7.11105 15.1835L7.97892 16.2699L8.04524 16.6422C8.04524 16.6422 8.3599 16.7275 8.39846 16.7275C8.4365 16.7275 9.10386 17.2329 9.10386 17.2329V19.1964L9.3419 19.2632L9.17995 20.1692L9.58046 20.7033L9.50643 21.601L10.0355 22.5311L10.7147 23.1244L11.3974 23.1368L11.4643 22.9172L10.9625 22.4946L10.9913 22.2848L11.0812 22.0278L11.1003 21.7656L10.7609 21.7553L10.5897 21.5404L10.8715 21.2694L10.9095 21.0648L10.5949 20.9748L10.6134 20.7846L11.0617 20.7167L11.7434 20.3892L11.9722 19.9697L12.6874 19.0545L12.5249 18.3388L12.7445 17.9578L13.4021 17.9779L13.8447 17.6272L13.9877 16.2463L14.4787 15.6226L14.5645 15.2221L14.1167 15.0787L13.8211 14.5938L12.8108 14.5835L12.0098 14.2781L11.9717 13.7069L11.7044 13.2396L10.9799 13.2288L10.5614 12.5717L10.1897 12.3902L10.1707 12.5907L9.49409 12.6308L9.24627 12.2859L8.54036 12.1424L7.95887 12.8144L7.0437 12.6591L6.97738 11.6278L6.30951 11.5136L6.57738 11.0077L6.50077 10.7172L5.62314 11.3039L5.07095 11.2365L4.87404 10.8051L4.99434 10.3604L5.29871 9.79949L5.99949 9.44473L7.3527 9.44422L7.3491 9.85707L7.83548 10.0833L7.79692 9.37789L8.14756 9.02519L8.85501 8.56041L8.90334 8.23342L9.60874 7.49923L10.3589 7.0838L10.2925 7.02931L10.8005 6.55116L10.9866 6.60051L11.072 6.70745L11.2648 6.49357L11.3121 6.47249L11.1008 6.44267L10.8864 6.37121V6.16555L11 6.07249H11.2504L11.365 6.12288L11.4643 6.32339L11.5856 6.30488V6.2874L11.6206 6.29923L11.9722 6.24524L12.0221 6.07352L12.2226 6.12391V6.31003L12.0365 6.43805H12.037L12.0643 6.64216L12.7013 6.83856C12.7013 6.83856 12.7018 6.84113 12.7028 6.84627L12.8494 6.83393L12.8591 6.55784L12.3542 6.32802L12.3254 6.19537L12.7445 6.05244L12.763 5.65141L12.3249 5.38458L12.2961 4.70848L11.6956 5.0036H11.4766L11.5342 4.48895L10.7167 4.29614L10.3784 4.55167V5.33111L9.77018 5.52391L9.52648 6.03188L9.26221 6.07455V5.42468L8.69049 5.3455L8.40463 5.15938L8.28946 4.7383L9.31208 4.13985L9.81234 3.98766L9.86273 4.32391L10.1414 4.30951L10.163 4.14036L10.4545 4.09871L10.4596 4.03959L10.3342 3.98766L10.3054 3.80874L10.6638 3.77841L10.8802 3.55321L10.892 3.53676L10.8946 3.53779L10.9604 3.46992L11.7136 3.37481L12.0468 3.65758L11.1733 4.12288L12.2848 4.38509L12.4288 4.01337H12.9147L13.0864 3.68946L12.7429 3.6036V3.19383L11.6658 2.71671L10.9224 2.80257L10.5028 3.02211L10.5316 3.55578L10.0931 3.48895L10.0257 3.19383L10.4458 2.81234L9.68329 2.77429L9.46427 2.84062L9.36915 3.09769L9.65501 3.14602L9.59794 3.43188L9.11208 3.46067L9.03599 3.6509L8.33111 3.67044C8.33111 3.67044 8.31157 3.27044 8.28329 3.27044C8.25501 3.27044 8.83599 3.26067 8.83599 3.26067L9.25604 2.85039L9.02673 2.73573L8.72185 3.03188L8.21594 3.00308L7.91105 2.58355H7.26273L6.58612 3.08895H7.20617L7.26273 3.27044L7.1018 3.42005L7.78817 3.43907L7.89306 3.68689L7.12031 3.6581L7.08278 3.46735L6.59692 3.36247L6.33933 3.21954L5.76093 3.22416C7.6545 1.84473 9.98303 1.02828 12.4997 1.02828C15.4005 1.02828 18.0509 2.1126 20.073 3.89409L19.9368 4.13779L19.4077 4.34499L19.1846 4.58715L19.236 4.86941L19.509 4.90745L19.6735 5.31877L20.1445 5.12905L20.2221 5.67918H20.0802L19.6936 5.62211L19.2648 5.69409L18.8499 6.28021L18.2566 6.37326L18.1707 6.88123L18.4211 6.94036L18.3486 7.26684L17.7594 7.14859L17.219 7.26684L17.1044 7.56761L17.1979 8.19897L17.5152 8.34756L18.0473 8.34447L18.4067 8.31208L18.5162 8.02622L19.0776 7.29666L19.4473 7.37224L19.8113 7.04319L19.8792 7.30026L20.7748 7.90437L20.6653 8.05141L20.2617 8.02982L20.417 8.24987L20.6653 8.30437L20.9563 8.18303L20.9501 7.83239L21.0792 7.76761L20.9753 7.65758L20.3779 7.32442L20.2206 6.88175H20.7172L20.8761 7.03907L21.3039 7.40771L21.3219 7.85347L21.765 8.32545L21.9301 7.67866L22.237 7.51105L22.2946 8.0401L22.5943 8.36915L23.1923 8.35887C23.308 8.65656 23.4118 8.95938 23.5028 9.26838L23.4406 9.32596ZM6.81799 5.67918L7.11825 5.53625L7.38972 5.60103L7.29614 5.96555L7.00309 6.05861L6.81799 5.67918ZM8.41131 6.53728V6.77326H7.72545L7.46838 6.7018L7.53265 6.53728L7.86221 6.40103H8.3126V6.53728H8.41131ZM8.72699 6.86632V7.09512L8.55527 7.20566L8.34139 7.24524C8.34139 7.24524 8.34139 6.90231 8.34139 6.86632H8.72699ZM8.53368 6.77326V6.50129L8.76967 6.7162L8.53368 6.77326ZM8.64113 7.32339V7.54602L8.47712 7.71054H8.1126L8.16967 7.46067L8.3419 7.44576L8.37738 7.3599L8.64113 7.32339ZM7.73316 6.86632H8.11208L7.62622 7.5455L7.42571 7.43805L7.46889 7.15219L7.73316 6.86632ZM9.28483 7.24524V7.46735H8.92031L8.82057 7.32339V7.11671H8.84936L9.28483 7.24524ZM8.94807 6.93985L9.05193 6.83085L9.22725 6.93985L9.08689 7.05553L8.94807 6.93985ZM23.6267 9.90488L23.6627 9.86273C23.6776 9.92751 23.6936 9.99229 23.708 10.0581L23.6267 9.90488Z" fill="white" fill-opacity="0.95"/>
<path d="M1.94458 7.65238V8.01022C2.06952 7.71819 2.2073 7.43335 2.35486 7.15417L1.94458 7.65238Z" fill="white" fill-opacity="0.95"/>
<path d="M41 16.92V19H32.328V7.8H40.792V9.88H34.904V12.312H40.104V14.328H34.904V16.92H41ZM46.2959 10.264C47.6292 10.264 48.6532 10.584 49.3679 11.224C50.0825 11.8533 50.4399 12.808 50.4399 14.088V19H48.1039V17.928C47.6345 18.728 46.7599 19.128 45.4799 19.128C44.8185 19.128 44.2425 19.016 43.7519 18.792C43.2719 18.568 42.9039 18.2587 42.6479 17.864C42.3919 17.4693 42.2639 17.0213 42.2639 16.52C42.2639 15.72 42.5625 15.0907 43.1599 14.632C43.7679 14.1733 44.7012 13.944 45.9599 13.944H47.9439C47.9439 13.4 47.7785 12.984 47.4479 12.696C47.1172 12.3973 46.6212 12.248 45.9599 12.248C45.5012 12.248 45.0479 12.3227 44.5999 12.472C44.1625 12.6107 43.7892 12.8027 43.4799 13.048L42.5839 11.304C43.0532 10.9733 43.6132 10.7173 44.2639 10.536C44.9252 10.3547 45.6025 10.264 46.2959 10.264ZM46.1039 17.448C46.5305 17.448 46.9092 17.352 47.2399 17.16C47.5705 16.9573 47.8052 16.664 47.9439 16.28V15.4H46.2319C45.2079 15.4 44.6959 15.736 44.6959 16.408C44.6959 16.728 44.8185 16.984 45.0639 17.176C45.3199 17.3573 45.6665 17.448 46.1039 17.448ZM55.5949 19.128C54.8802 19.128 54.1815 19.0427 53.4989 18.872C52.8162 18.6907 52.2722 18.4667 51.8669 18.2L52.6989 16.408C53.0829 16.6533 53.5469 16.856 54.0909 17.016C54.6349 17.1653 55.1682 17.24 55.6909 17.24C56.7469 17.24 57.2749 16.9787 57.2749 16.456C57.2749 16.2107 57.1309 16.0347 56.8429 15.928C56.5549 15.8213 56.1122 15.7307 55.5149 15.656C54.8109 15.5493 54.2295 15.4267 53.7709 15.288C53.3122 15.1493 52.9122 14.904 52.5709 14.552C52.2402 14.2 52.0749 13.6987 52.0749 13.048C52.0749 12.504 52.2295 12.024 52.5389 11.608C52.8589 11.1813 53.3175 10.8507 53.9149 10.616C54.5229 10.3813 55.2375 10.264 56.0589 10.264C56.6669 10.264 57.2695 10.3333 57.8669 10.472C58.4749 10.6 58.9762 10.7813 59.3709 11.016L58.5389 12.792C57.7815 12.3653 56.9549 12.152 56.0589 12.152C55.5255 12.152 55.1255 12.2267 54.8589 12.376C54.5922 12.5253 54.4589 12.7173 54.4589 12.952C54.4589 13.2187 54.6029 13.4053 54.8909 13.512C55.1789 13.6187 55.6375 13.72 56.2669 13.816C56.9709 13.9333 57.5469 14.0613 57.9949 14.2C58.4429 14.328 58.8322 14.568 59.1629 14.92C59.4935 15.272 59.6589 15.7627 59.6589 16.392C59.6589 16.9253 59.4989 17.4 59.1789 17.816C58.8589 18.232 58.3895 18.5573 57.7709 18.792C57.1629 19.016 56.4375 19.128 55.5949 19.128ZM69.5866 10.392L65.6986 19.528C65.304 20.52 64.8133 21.2187 64.2266 21.624C63.6506 22.0293 62.952 22.232 62.1306 22.232C61.6826 22.232 61.24 22.1627 60.8026 22.024C60.3653 21.8853 60.008 21.6933 59.7306 21.448L60.6426 19.672C60.8346 19.8427 61.0533 19.976 61.2986 20.072C61.5546 20.168 61.8053 20.216 62.0506 20.216C62.392 20.216 62.6693 20.1307 62.8826 19.96C63.096 19.8 63.288 19.528 63.4586 19.144L63.4906 19.064L59.7626 10.392H62.3386L64.7546 16.232L67.1866 10.392H69.5866ZM79.4531 16.92V19H70.7811V7.8H79.2451V9.88H73.3571V12.312H78.5571V14.328H73.3571V16.92H79.4531ZM86.5715 10.264C87.6382 10.264 88.4968 10.584 89.1475 11.224C89.8088 11.864 90.1395 12.8133 90.1395 14.072V19H87.6435V14.456C87.6435 13.7733 87.4942 13.2667 87.1955 12.936C86.8968 12.5947 86.4648 12.424 85.8995 12.424C85.2702 12.424 84.7688 12.6213 84.3955 13.016C84.0222 13.4 83.8355 13.976 83.8355 14.744V19H81.3395V10.392H83.7235V11.4C84.0542 11.0373 84.4648 10.76 84.9555 10.568C85.4462 10.3653 85.9848 10.264 86.5715 10.264ZM101.376 10.392V17.56C101.376 19.1387 100.965 20.312 100.144 21.08C99.3224 21.848 98.1224 22.232 96.5438 22.232C95.7118 22.232 94.9224 22.1307 94.1758 21.928C93.4291 21.7253 92.8104 21.432 92.3198 21.048L93.3118 19.256C93.6744 19.5547 94.1331 19.7893 94.6878 19.96C95.2424 20.1413 95.7971 20.232 96.3518 20.232C97.2158 20.232 97.8504 20.0347 98.2558 19.64C98.6718 19.256 98.8798 18.6693 98.8798 17.88V17.512C98.2291 18.2267 97.3224 18.584 96.1598 18.584C95.3704 18.584 94.6451 18.4133 93.9838 18.072C93.3331 17.72 92.8158 17.2293 92.4318 16.6C92.0478 15.9707 91.8558 15.2453 91.8558 14.424C91.8558 13.6027 92.0478 12.8773 92.4318 12.248C92.8158 11.6187 93.3331 11.1333 93.9838 10.792C94.6451 10.44 95.3704 10.264 96.1598 10.264C97.4078 10.264 98.3571 10.6747 99.0078 11.496V10.392H101.376ZM96.6558 16.536C97.3171 16.536 97.8558 16.344 98.2718 15.96C98.6984 15.5653 98.9118 15.0533 98.9118 14.424C98.9118 13.7947 98.6984 13.288 98.2718 12.904C97.8558 12.5093 97.3171 12.312 96.6558 12.312C95.9944 12.312 95.4504 12.5093 95.0238 12.904C94.5971 13.288 94.3838 13.7947 94.3838 14.424C94.3838 15.0533 94.5971 15.5653 95.0238 15.96C95.4504 16.344 95.9944 16.536 96.6558 16.536ZM103.699 7.128H106.195V19H103.699V7.128ZM108.511 10.392H111.007V19H108.511V10.392ZM109.759 9.192C109.301 9.192 108.927 9.05867 108.639 8.792C108.351 8.52533 108.207 8.19467 108.207 7.8C108.207 7.40533 108.351 7.07467 108.639 6.808C108.927 6.54133 109.301 6.408 109.759 6.408C110.218 6.408 110.591 6.536 110.879 6.792C111.167 7.048 111.311 7.368 111.311 7.752C111.311 8.168 111.167 8.51467 110.879 8.792C110.591 9.05867 110.218 9.192 109.759 9.192ZM116.22 19.128C115.505 19.128 114.807 19.0427 114.124 18.872C113.441 18.6907 112.897 18.4667 112.492 18.2L113.324 16.408C113.708 16.6533 114.172 16.856 114.716 17.016C115.26 17.1653 115.793 17.24 116.316 17.24C117.372 17.24 117.9 16.9787 117.9 16.456C117.9 16.2107 117.756 16.0347 117.468 15.928C117.18 15.8213 116.737 15.7307 116.14 15.656C115.436 15.5493 114.855 15.4267 114.396 15.288C113.937 15.1493 113.537 14.904 113.196 14.552C112.865 14.2 112.7 13.6987 112.7 13.048C112.7 12.504 112.855 12.024 113.164 11.608C113.484 11.1813 113.943 10.8507 114.54 10.616C115.148 10.3813 115.863 10.264 116.684 10.264C117.292 10.264 117.895 10.3333 118.492 10.472C119.1 10.6 119.601 10.7813 119.996 11.016L119.164 12.792C118.407 12.3653 117.58 12.152 116.684 12.152C116.151 12.152 115.751 12.2267 115.484 12.376C115.217 12.5253 115.084 12.7173 115.084 12.952C115.084 13.2187 115.228 13.4053 115.516 13.512C115.804 13.6187 116.263 13.72 116.892 13.816C117.596 13.9333 118.172 14.0613 118.62 14.2C119.068 14.328 119.457 14.568 119.788 14.92C120.119 15.272 120.284 15.7627 120.284 16.392C120.284 16.9253 120.124 17.4 119.804 17.816C119.484 18.232 119.015 18.5573 118.396 18.792C117.788 19.016 117.063 19.128 116.22 19.128ZM127.056 10.264C128.123 10.264 128.981 10.584 129.632 11.224C130.293 11.864 130.624 12.8133 130.624 14.072V19H128.128V14.456C128.128 13.7733 127.979 13.2667 127.68 12.936C127.381 12.5947 126.949 12.424 126.384 12.424C125.755 12.424 125.253 12.6213 124.88 13.016C124.507 13.4 124.32 13.976 124.32 14.744V19H121.824V7.128H124.32V11.288C124.651 10.9573 125.051 10.7067 125.52 10.536C125.989 10.3547 126.501 10.264 127.056 10.264Z" fill="white" fill-opacity="0.95"/>
</svg>
