<svg width="103" height="20" viewBox="0 0 103 20" fill="none" xmlns="http://www.w3.org/2000/svg">
<path d="M24.52 7.728H19.704V16H15.992V4.8H24.52V7.728ZM31.1653 4.8C32.1999 4.8 33.1013 4.97067 33.8693 5.312C34.6373 5.65333 35.2293 6.144 35.6453 6.784C36.0613 7.424 36.2693 8.17067 36.2693 9.024C36.2693 9.87733 36.0613 10.624 35.6453 11.264C35.2293 11.904 34.6373 12.3947 33.8693 12.736C33.1013 13.0773 32.1999 13.248 31.1653 13.248H29.5493V16H25.7733V4.8H31.1653ZM30.9253 10.336C31.4373 10.336 31.8213 10.224 32.0773 10C32.3333 9.76533 32.4613 9.44 32.4613 9.024C32.4613 8.608 32.3333 8.288 32.0773 8.064C31.8213 7.82933 31.4373 7.712 30.9253 7.712H29.5493V10.336H30.9253ZM48.3639 4.8L43.8679 13.232C43.3345 14.2347 42.6785 14.9973 41.8999 15.52C41.1319 16.0427 40.2839 16.304 39.3559 16.304C38.6412 16.304 37.9159 16.1547 37.1799 15.856L38.0599 13.136C38.5292 13.264 38.9132 13.328 39.2119 13.328C39.4892 13.328 39.7239 13.28 39.9159 13.184C40.1185 13.088 40.3105 12.928 40.4919 12.704L36.2039 4.8H40.1879L42.4119 9.52L44.7159 4.8H48.3639ZM56.6523 10.176C57.2496 10.4213 57.7136 10.7787 58.0443 11.248C58.3856 11.7173 58.5563 12.2507 58.5563 12.848C58.5563 13.552 58.3056 14.1653 57.8043 14.688C57.3136 15.2 56.6469 15.5947 55.8043 15.872C54.9723 16.1387 54.0443 16.272 53.0203 16.272C51.3883 16.272 49.8363 15.9467 48.3643 15.296L49.4683 12.688C49.9909 12.9013 50.5349 13.0667 51.1003 13.184C51.6656 13.2907 52.1989 13.344 52.7003 13.344C53.3083 13.344 53.7989 13.2587 54.1723 13.088C54.5563 12.9173 54.7483 12.6667 54.7483 12.336C54.7483 11.888 54.3803 11.664 53.6443 11.664H50.6203V8.944H53.3243C53.6443 8.944 53.8843 8.88533 54.0443 8.768C54.2149 8.65067 54.3003 8.48533 54.3003 8.272C54.3003 7.99467 54.1509 7.78133 53.8523 7.632C53.5643 7.48267 53.1803 7.408 52.7003 7.408C52.2523 7.408 51.7669 7.472 51.2443 7.6C50.7216 7.728 50.2256 7.90933 49.7563 8.144L48.6523 5.344C49.8896 4.77867 51.2336 4.496 52.6843 4.496C53.6549 4.496 54.5509 4.62933 55.3723 4.896C56.2043 5.16267 56.8656 5.552 57.3563 6.064C57.8576 6.56533 58.1083 7.15733 58.1083 7.84C58.1083 8.34133 57.9803 8.79467 57.7243 9.2C57.4683 9.60533 57.1109 9.93067 56.6523 10.176ZM59.6263 10.016H64.4263V12.736H59.6263V10.016ZM77.1726 4.8V16H73.3966V11.872H69.9086V16H66.1326V4.8H69.9086V8.768H73.3966V4.8H77.1726ZM84.7959 16.256C83.6119 16.256 82.5452 16.0107 81.5959 15.52C80.6465 15.0187 79.8999 14.3253 79.3559 13.44C78.8225 12.544 78.5559 11.5307 78.5559 10.4C78.5559 9.26933 78.8225 8.26133 79.3559 7.376C79.8999 6.48 80.6465 5.78667 81.5959 5.296C82.5452 4.79467 83.6119 4.544 84.7959 4.544C85.8839 4.544 86.8545 4.736 87.7079 5.12C88.5612 5.504 89.2652 6.05867 89.8199 6.784L87.4359 8.912C86.7425 8.03733 85.9265 7.6 84.9879 7.6C84.1985 7.6 83.5639 7.856 83.0839 8.368C82.6039 8.86933 82.3639 9.54667 82.3639 10.4C82.3639 11.2533 82.6039 11.936 83.0839 12.448C83.5639 12.9493 84.1985 13.2 84.9879 13.2C85.9265 13.2 86.7425 12.7627 87.4359 11.888L89.8199 14.016C89.2652 14.7413 88.5612 15.296 87.7079 15.68C86.8545 16.064 85.8839 16.256 84.7959 16.256ZM98.7847 10.24L102.097 16H97.8408L95.6968 11.952H94.6408V16H90.8648V4.8H94.6408V8.976H95.7928L98.1768 4.8H102.113L98.7847 10.24Z" fill="#5DA60E"/>
<g opacity="0.9">
<path d="M6.5 17C10.0899 17 13 14.0899 13 10.5C13 6.9101 10.0899 4 6.5 4C2.9101 4 0 6.9101 0 10.5C0.00406646 14.0882 2.91179 16.9959 6.5 17ZM6.5 4.43333C9.85057 4.43333 12.5667 7.14943 12.5667 10.5C12.5667 13.8506 9.85057 16.5667 6.5 16.5667C3.14943 16.5667 0.433327 13.8506 0.433327 10.5C0.437195 7.15102 3.15102 4.43719 6.5 4.43333Z" fill="#5DA60E"/>
<path d="M6.50001 15.9166C9.49154 15.9166 11.9166 13.4915 11.9166 10.5C11.9166 7.50848 9.49154 5.08337 6.50001 5.08337C3.50848 5.08337 1.08337 7.50848 1.08337 10.5C1.08665 13.4902 3.50986 15.9134 6.50001 15.9166ZM1.68462 11.782L3.01971 11.4265C3.53982 11.2876 4.09504 11.3984 4.52202 11.7262C4.9491 12.054 5.19963 12.5616 5.20003 13.1V15.31C3.48438 14.8425 2.14591 13.4993 1.68462 11.782ZM5.63335 15.4064V13.1C5.63296 12.4271 5.31984 11.7925 4.78614 11.3828C4.25234 10.973 3.55846 10.8344 2.90833 11.0079L1.59208 11.3582C1.49577 10.8134 1.49171 10.2562 1.57998 9.71002C2.60711 9.33888 4.5127 8.7667 6.50001 8.7667C8.48732 8.7667 10.3929 9.33888 11.42 9.71002C11.5083 10.2562 11.5042 10.8134 11.4079 11.3582L10.0917 11.0079C9.44155 10.8344 8.74767 10.973 8.21387 11.3828C7.68018 11.7925 7.36706 12.4271 7.36666 13.1V15.4064C6.79349 15.509 6.20653 15.509 5.63335 15.4064ZM7.79999 15.31V13.1C7.80038 12.5617 8.05082 12.0541 8.4779 11.7263C8.90488 11.3985 9.46 11.2877 9.98011 11.4265L11.3154 11.782C10.8541 13.4993 9.51564 14.8425 7.79999 15.31ZM6.50001 5.5167C8.75551 5.51968 10.7287 7.03498 11.3139 9.21322C9.76637 8.66553 8.14127 8.36858 6.50001 8.33337C4.85874 8.36858 3.23364 8.66553 1.6861 9.21322C2.27128 7.03498 4.24451 5.51968 6.50001 5.5167Z" fill="#5DA60E"/>
<path d="M8.01669 10.5C8.01669 9.66241 7.33759 8.98331 6.5 8.98331C5.66241 8.98331 4.98331 9.66241 4.98331 10.5C4.98331 11.3376 5.66241 12.0167 6.5 12.0167C7.3372 12.0157 8.0157 11.3372 8.01669 10.5ZM5.41663 10.5C5.41663 9.90173 5.90173 9.41663 6.5 9.41663C7.09827 9.41663 7.58337 9.90173 7.58337 10.5C7.58337 11.0983 7.09827 11.5834 6.5 11.5834C5.90203 11.5826 5.41743 11.098 5.41663 10.5Z" fill="#5DA60E"/>
<path d="M7.15004 10.5C7.15004 10.1411 6.85894 9.84996 6.5 9.84996C6.14106 9.84996 5.84996 10.1411 5.84996 10.5C5.84996 10.8589 6.14106 11.15 6.5 11.15C6.85894 11.15 7.15004 10.8589 7.15004 10.5ZM6.28329 10.5C6.28329 10.3804 6.38039 10.2833 6.5 10.2833C6.61961 10.2833 6.71671 10.3804 6.71671 10.5C6.71671 10.6196 6.61961 10.7167 6.5 10.7167C6.38039 10.7167 6.28329 10.6196 6.28329 10.5Z" fill="#5DA60E"/>
</g>
</svg>
