<svg width="226" height="56" viewBox="0 0 226 56" fill="none" xmlns="http://www.w3.org/2000/svg">
<path d="M82.792 21.0557C81.083 21.0557 79.7598 21.7002 78.8223 22.9893C77.8848 24.2686 77.416 26.0557 77.416 28.3506C77.416 33.126 79.208 35.5137 82.792 35.5137C84.2959 35.5137 86.1172 35.1377 88.2559 34.3857V38.1943C86.498 38.9268 84.5352 39.293 82.3672 39.293C79.252 39.293 76.8691 38.3506 75.2188 36.4658C73.5684 34.5713 72.7432 31.8564 72.7432 28.3213C72.7432 26.0947 73.1484 24.1465 73.959 22.4766C74.7695 20.7969 75.9316 19.5127 77.4453 18.624C78.9688 17.7256 80.751 17.2764 82.792 17.2764C84.8721 17.2764 86.9619 17.7793 89.0615 18.7852L87.5967 22.4766C86.7959 22.0957 85.9902 21.7637 85.1797 21.4805C84.3691 21.1973 83.5732 21.0557 82.792 21.0557ZM92.8262 39V17.584H97.3672V35.25H106.054V39H92.8262ZM122.123 39H109.789V17.584H122.123V21.3047H114.33V26.0068H121.581V29.7275H114.33V35.25H122.123V39ZM139.716 39L138.163 33.9023H130.355L128.803 39H123.91L131.469 17.4961H137.021L144.608 39H139.716ZM137.079 30.0938C135.644 25.4746 134.833 22.8623 134.647 22.2568C134.472 21.6514 134.345 21.1729 134.267 20.8213C133.944 22.0713 133.021 25.1621 131.498 30.0938H137.079ZM166.317 39H160.546L151.229 22.7988H151.098C151.283 25.6602 151.376 27.7012 151.376 28.9219V39H147.318V17.584H153.046L162.348 33.624H162.45C162.304 30.8408 162.23 28.873 162.23 27.7207V17.584H166.317V39ZM171.723 39V17.584H176.264V39H171.723ZM200.653 39H194.882L185.565 22.7988H185.434C185.619 25.6602 185.712 27.7012 185.712 28.9219V39H181.654V17.584H187.382L196.684 33.624H196.786C196.64 30.8408 196.566 28.873 196.566 27.7207V17.584H200.653V39ZM214.188 26.9736H222.685V38.0771C221.308 38.5264 220.009 38.8389 218.788 39.0146C217.577 39.2002 216.337 39.293 215.067 39.293C211.835 39.293 209.364 38.3457 207.655 36.4512C205.956 34.5469 205.106 31.8174 205.106 28.2627C205.106 24.8057 206.093 22.1104 208.065 20.1768C210.048 18.2432 212.792 17.2764 216.298 17.2764C218.495 17.2764 220.614 17.7158 222.655 18.5947L221.146 22.2275C219.584 21.4463 217.958 21.0557 216.269 21.0557C214.306 21.0557 212.733 21.7148 211.552 23.0332C210.37 24.3516 209.779 26.124 209.779 28.3506C209.779 30.6748 210.253 32.4521 211.2 33.6826C212.157 34.9033 213.544 35.5137 215.36 35.5137C216.308 35.5137 217.27 35.416 218.246 35.2207V30.7529H214.188V26.9736Z" fill="#423C3D"/>
<path d="M21 22.75V3.5H11.375V11.375H13.125V6.125C13.125 5.89294 13.2172 5.67038 13.3813 5.50628C13.5454 5.34219 13.7679 5.25 14 5.25H18.375C18.6071 5.25 18.8296 5.34219 18.9937 5.50628C19.1578 5.67038 19.25 5.89294 19.25 6.125V25.375H24.5V23.625H21.875C21.6429 23.625 21.4204 23.5328 21.2563 23.3687C21.0922 23.2046 21 22.9821 21 22.75Z" fill="#FFB619"/>
<path d="M11.375 24.5H13.125V42.875H11.375V24.5Z" fill="#FFB619"/>
<path d="M11.375 13.125H13.125V22.75H11.375V13.125Z" fill="#FFB619"/>
<path d="M18.0163 49L13.6413 44.625H10.8587L6.48375 49H18.0163Z" fill="#FFB619"/>
<path d="M3.5 50.75H21V52.5H3.5V50.75Z" fill="#FFB619"/>
<path d="M31.5 52.5C32.4665 52.5 33.25 51.7165 33.25 50.75C33.25 49.7835 32.4665 49 31.5 49C30.5335 49 29.75 49.7835 29.75 50.75C29.75 51.7165 30.5335 52.5 31.5 52.5Z" fill="#FFB619"/>
<path d="M47.25 52.5C48.2165 52.5 49 51.7165 49 50.75C49 49.7835 48.2165 49 47.25 49C46.2835 49 45.5 49.7835 45.5 50.75C45.5 51.7165 46.2835 52.5 47.25 52.5Z" fill="#FFB619"/>
<path d="M26.25 46.375V49H28.49C28.7925 48.4685 29.2303 48.0265 29.759 47.719C30.2877 47.4116 30.8884 47.2496 31.5 47.2496C32.1116 47.2496 32.7123 47.4116 33.241 47.719C33.7697 48.0265 34.2075 48.4685 34.51 49H44.24C44.5425 48.4685 44.9803 48.0265 45.509 47.719C46.0377 47.4116 46.6384 47.2496 47.25 47.2496C47.8616 47.2496 48.4623 47.4116 48.991 47.719C49.5197 48.0265 49.9575 48.4685 50.26 49H52.5V46.375H26.25Z" fill="#FFB619"/>
<path d="M39.375 28C42.7577 28 45.5 26.433 45.5 24.5C45.5 22.567 42.7577 21 39.375 21C35.9923 21 33.25 22.567 33.25 24.5C33.25 26.433 35.9923 28 39.375 28Z" fill="#FFB619"/>
<path d="M26.25 21H27.125V28H26.25V21Z" fill="#FFB619"/>
<path d="M41.125 3.5H37.625V9.625H41.125V3.5ZM40.25 7H38.5V5.25H40.25V7Z" fill="#FFB619"/>
<path d="M35.875 3.5H28C27.7679 3.5 27.5454 3.59219 27.3813 3.75628C27.2172 3.92038 27.125 4.14294 27.125 4.375V9.625H35.875V3.5Z" fill="#FFB619"/>
<path d="M51.625 4.375C51.625 4.14294 51.5328 3.92038 51.3687 3.75628C51.2046 3.59219 50.9821 3.5 50.75 3.5H42.875V9.625H51.625V4.375Z" fill="#FFB619"/>
<path d="M28.875 44.625H49.875V11.375H28.875V44.625ZM39.375 19.25C43.7911 19.25 47.25 21.5565 47.25 24.5C47.25 27.4435 43.7911 29.75 39.375 29.75C34.9589 29.75 31.5 27.4435 31.5 24.5C31.5 21.5565 34.9589 19.25 39.375 19.25Z" fill="#FFB619"/>
<path d="M7 16.625H10.5V14.875H7.875V8.75H6.125V15.75C6.125 15.9821 6.21719 16.2046 6.38128 16.3687C6.54538 16.5328 6.76794 16.625 7 16.625Z" fill="#FFB619"/>
</svg>
