<svg width="264" height="68" viewBox="0 0 264 68" fill="none" xmlns="http://www.w3.org/2000/svg">
<path opacity="0.9" d="M123.16 26.94C123.16 28.78 122.547 30.24 121.32 31.32C120.093 32.3867 118.307 33 115.96 33.16V34.72H111.64V33.14C109.28 32.94 107.487 32.3133 106.26 31.26C105.047 30.2067 104.44 28.7667 104.44 26.94C104.44 25.1133 105.047 23.68 106.26 22.64C107.487 21.5867 109.28 20.96 111.64 20.76V19.3H115.96V20.76C118.32 20.9333 120.107 21.5533 121.32 22.62C122.547 23.6733 123.16 25.1133 123.16 26.94ZM115.96 29.48C116.893 29.3467 117.567 29.08 117.98 28.68C118.393 28.2667 118.6 27.68 118.6 26.92C118.6 26.1733 118.387 25.6 117.96 25.2C117.547 24.8 116.88 24.5333 115.96 24.4V29.48ZM109 26.94C109 27.6733 109.213 28.24 109.64 28.64C110.08 29.04 110.747 29.3133 111.64 29.46V24.42C110.693 24.5533 110.013 24.82 109.6 25.22C109.2 25.6067 109 26.18 109 26.94ZM124.849 20H129.489V27.28L134.309 20H138.749V34H134.109V26.74L129.309 34H124.849V20ZM155.036 20V34H150.316V28.84H145.956V34H141.236V20H145.956V24.96H150.316V20H155.036ZM168.741 19.68C170.195 19.68 171.488 19.9933 172.621 20.62C173.755 21.2333 174.641 22.1 175.281 23.22C175.921 24.3267 176.241 25.5867 176.241 27C176.241 28.4133 175.921 29.68 175.281 30.8C174.641 31.9067 173.755 32.7733 172.621 33.4C171.488 34.0133 170.195 34.32 168.741 34.32C167.381 34.32 166.168 34.08 165.101 33.6C164.035 33.12 163.155 32.4267 162.461 31.52L165.441 28.86C166.308 29.9533 167.328 30.5 168.501 30.5C169.155 30.5 169.708 30.34 170.161 30.02C170.628 29.7 170.975 29.2467 171.201 28.66H166.841V25.26H171.181C170.955 24.7 170.608 24.2667 170.141 23.96C169.675 23.6533 169.128 23.5 168.501 23.5C167.328 23.5 166.308 24.0467 165.441 25.14L162.461 22.48C163.155 21.5733 164.035 20.88 165.101 20.4C166.168 19.92 167.381 19.68 168.741 19.68ZM187.754 26.8L191.894 34H186.574L183.894 28.94H182.574V34H177.854V20H182.574V25.22H184.014L186.994 20H191.914L187.754 26.8ZM199.8 34.32C198.32 34.32 196.986 34.0133 195.8 33.4C194.613 32.7733 193.68 31.9067 193 30.8C192.333 29.68 192 28.4133 192 27C192 25.5867 192.333 24.3267 193 23.22C193.68 22.1 194.613 21.2333 195.8 20.62C196.986 19.9933 198.32 19.68 199.8 19.68C201.16 19.68 202.373 19.92 203.44 20.4C204.506 20.88 205.386 21.5733 206.08 22.48L203.1 25.14C202.233 24.0467 201.213 23.5 200.04 23.5C199.053 23.5 198.26 23.82 197.66 24.46C197.06 25.0867 196.76 25.9333 196.76 27C196.76 28.0667 197.06 28.92 197.66 29.56C198.26 30.1867 199.053 30.5 200.04 30.5C201.213 30.5 202.233 29.9533 203.1 28.86L206.08 31.52C205.386 32.4267 204.506 33.12 203.44 33.6C202.373 34.08 201.16 34.32 199.8 34.32ZM221.046 20V34H216.406V23.66H212.146V34H207.506V20H221.046ZM235.161 30.44V34H223.521V20H234.901V23.56H228.161V25.2H234.081V28.6H228.161V30.44H235.161ZM243.816 20C245.109 20 246.236 20.2133 247.196 20.64C248.156 21.0667 248.896 21.68 249.416 22.48C249.936 23.28 250.196 24.2133 250.196 25.28C250.196 26.3467 249.936 27.28 249.416 28.08C248.896 28.88 248.156 29.4933 247.196 29.92C246.236 30.3467 245.109 30.56 243.816 30.56H241.796V34H237.076V20H243.816ZM243.516 26.92C244.156 26.92 244.636 26.78 244.956 26.5C245.276 26.2067 245.436 25.8 245.436 25.28C245.436 24.76 245.276 24.36 244.956 24.08C244.636 23.7867 244.156 23.64 243.516 23.64H241.796V26.92H243.516ZM263.234 23.66H259.134V34H254.494V23.66H250.394V20H263.234V23.66ZM105.24 44H117.38V47.56H109.88V49.18H113.22C114.927 49.18 116.233 49.5467 117.14 50.28C118.06 51 118.52 52.0467 118.52 53.42C118.52 54.8467 118 55.9667 116.96 56.78C115.92 57.5933 114.473 58 112.62 58H105.24V44ZM112.3 54.7C112.767 54.7 113.127 54.6 113.38 54.4C113.647 54.2 113.78 53.9133 113.78 53.54C113.78 52.82 113.287 52.46 112.3 52.46H109.88V54.7H112.3ZM133.537 44L127.917 54.54C127.25 55.7933 126.43 56.7467 125.457 57.4C124.497 58.0533 123.437 58.38 122.277 58.38C121.384 58.38 120.477 58.1933 119.557 57.82L120.657 54.42C121.244 54.58 121.724 54.66 122.097 54.66C122.444 54.66 122.737 54.6 122.977 54.48C123.23 54.36 123.47 54.16 123.697 53.88L118.337 44H123.317L126.097 49.9L128.977 44H133.537ZM138.725 43.98L140.765 47.28L142.805 43.98H148.265L143.725 50.66L148.685 58H143.125L140.765 54.38L138.445 58H133.025L137.945 50.88L133.325 43.98H138.725ZM160.255 47.66H154.235V58H149.595V44H160.255V47.66ZM168.909 55.56H163.589L162.649 58H157.849L163.969 44H168.609L174.729 58H169.849L168.909 55.56ZM167.609 52.16L166.249 48.64L164.889 52.16H167.609ZM189.877 44V58H185.237V47.66H182.037L181.997 49.28C181.943 51.28 181.783 52.92 181.517 54.2C181.25 55.48 180.783 56.48 180.117 57.2C179.45 57.9067 178.497 58.26 177.257 58.26C176.63 58.26 175.963 58.1733 175.257 58L175.497 54.22C175.67 54.26 175.843 54.28 176.017 54.28C176.51 54.28 176.883 54.08 177.137 53.68C177.403 53.28 177.583 52.7467 177.677 52.08C177.77 51.4133 177.837 50.54 177.877 49.46L178.057 44H189.877ZM204.269 47.66H200.169V58H195.529V47.66H191.429V44H204.269V47.66ZM217.466 54.44V58H205.826V44H217.206V47.56H210.466V49.2H216.386V52.6H210.466V54.44H217.466ZM226.121 44C227.414 44 228.541 44.2133 229.501 44.64C230.461 45.0667 231.201 45.68 231.721 46.48C232.241 47.28 232.501 48.2133 232.501 49.28C232.501 50.3467 232.241 51.28 231.721 52.08C231.201 52.88 230.461 53.4933 229.501 53.92C228.541 54.3467 227.414 54.56 226.121 54.56H224.101V58H219.381V44H226.121ZM225.821 50.92C226.461 50.92 226.941 50.78 227.261 50.5C227.581 50.2067 227.741 49.8 227.741 49.28C227.741 48.76 227.581 48.36 227.261 48.08C226.941 47.7867 226.461 47.64 225.821 47.64H224.101V50.92H225.821ZM233.931 44H238.571V51.28L243.391 44H247.831V58H243.191V50.74L238.391 58H233.931V44ZM262.598 44V58H257.958V54.68H256.698L254.558 58H249.618L252.378 54C251.471 53.5733 250.771 52.9733 250.278 52.2C249.798 51.4133 249.558 50.4867 249.558 49.42C249.558 48.3133 249.818 47.3533 250.338 46.54C250.871 45.7267 251.625 45.1 252.598 44.66C253.571 44.22 254.718 44 256.038 44H262.598ZM256.118 47.64C254.918 47.64 254.318 48.2067 254.318 49.34C254.318 50.5267 254.918 51.12 256.118 51.12H257.958V47.64H256.118Z" fill="#333231"/>
<g clip-path="url(#clip0)">
<path d="M16.4816 31.6312L5.31348 43.2535V62.8637C5.31348 63.4159 5.76095 63.864 6.31379 63.864H19.874C20.4262 63.864 20.8744 63.4159 20.8744 62.8637V32.7823L17.7467 31.6312H16.4816Z" fill="#6DAF27"/>
<path d="M44.1038 40.746H30.5435C29.9914 40.746 29.5432 41.1941 29.5432 41.7463V62.8636C29.5432 63.4157 29.9914 63.8639 30.5435 63.8639H44.1038C44.6566 63.8639 45.1041 63.4157 45.1041 62.8636V41.7463C45.1041 41.1941 44.6566 40.746 44.1038 40.746Z" fill="#6DAF27"/>
<path d="M67.8372 19.6661C67.319 19.9368 66.7355 20.0802 66.15 20.0802C65.2991 20.0802 64.4688 19.7801 63.8159 19.2333L61.3525 17.174L52.4397 26.897V62.8643C52.4397 63.4165 52.8878 63.8646 53.44 63.8646H67.0003C67.5531 63.8646 68.0006 63.4165 68.0006 62.8643V19.564C67.9446 19.5974 67.8945 19.6361 67.8372 19.6661Z" fill="#6DAF27"/>
<path d="M38.5433 36.0739C39.3062 36.3533 40.1598 36.1459 40.7093 35.5484L61.2751 13.1127L66.088 17.1353C66.3234 17.3314 66.6528 17.368 66.9242 17.226C67.1956 17.0833 67.355 16.7939 67.3277 16.4878L66.2847 4.82477C66.248 4.40797 65.8806 4.10054 65.4638 4.13855L53.8001 5.18088C53.4947 5.20822 53.2359 5.41695 53.1452 5.70838C53.1139 5.80574 53.1039 5.90444 53.1126 6.0018C53.1299 6.19787 53.2239 6.38326 53.3813 6.51463L58.2021 10.5446L38.6654 31.8559L16.3617 23.6493C15.6161 23.3759 14.7792 23.5686 14.229 24.1395L0.558072 38.366C-0.207501 39.1629 -0.18216 40.4299 0.61409 41.1948C1.00288 41.569 1.50237 41.753 2.00052 41.753C2.52602 41.753 3.05019 41.547 3.44364 41.1388L16.2083 27.8547L38.5433 36.0739Z" fill="#6DAF27"/>
</g>
<defs>
<clipPath id="clip0">
<rect width="68" height="68" fill="white"/>
</clipPath>
</defs>
</svg>
