<svg width="25" height="25" viewBox="0 0 25 25" fill="none" xmlns="http://www.w3.org/2000/svg">
<path d="M22.2728 4.63926C21.7471 4.11348 21.0479 3.82397 20.304 3.82397H12.8827V2.85703C13.4995 2.68857 13.9543 2.12368 13.9543 1.45425C13.9542 0.652393 13.3019 0 12.5 0C11.6981 0 11.0457 0.652393 11.0457 1.45425C11.0457 2.12368 11.5005 2.68857 12.1173 2.85703V3.82393H6.49721C3.96889 3.82393 1.91196 5.88091 1.91196 8.40918V19.6289H3.59174V18.8635H2.67739V8.40918C2.67739 6.30288 4.39096 4.58931 6.49726 4.58931H7.09726C8.2103 4.58931 9.11581 5.49482 9.11581 6.60791C9.11581 7.72095 8.2103 8.62646 7.09726 8.62646V8.62651H5.0787V6.99062H8.39457V6.22524H4.31327V11.1154H5.07866V9.39199H19.9214V20.7077L16.9356 23.6934V21.2489H19.2001V20.4835H16.1702V24.2347H5.07866V15.6939H4.31327V25H16.7114L20.6868 21.0247V9.36504C22.0413 9.17788 23.088 8.01318 23.088 6.60796C23.088 5.86406 22.7985 5.16494 22.2728 4.63926ZM11.8111 1.45425C11.8111 1.07441 12.1202 0.765381 12.5 0.765381C12.8798 0.765381 13.1889 1.07441 13.1889 1.45425C13.1889 1.83408 12.8798 2.14312 12.5 2.14312C12.1202 2.14312 11.8111 1.83408 11.8111 1.45425ZM20.304 8.62661H9.01142C9.54648 8.11895 9.88124 7.402 9.88124 6.60796C9.88124 5.81392 9.54658 5.09707 9.01152 4.58936H20.3041C20.8435 4.58936 21.3505 4.79922 21.7317 5.18047C22.1128 5.56157 22.3227 6.06855 22.3227 6.60801C22.3226 7.721 21.4171 8.62661 20.304 8.62661Z" fill="white"/>
<path d="M15.2325 11.1088V14.0807H18.2044V11.1088H15.2325ZM17.439 13.3154H15.9978V11.8743H17.439V13.3154Z" fill="white"/>
<path d="M6.79559 19.5457V22.5176H9.76752V19.5457H6.79559ZM9.00219 21.7523H7.56102V20.3111H9.00219V21.7523Z" fill="white"/>
<path d="M11.0141 11.1088V14.0807H13.986V11.1088H11.0141ZM13.2206 13.3154H11.7794V11.8743H13.2206V13.3154Z" fill="white"/>
<path d="M11.0141 19.5457V22.5176H13.986V19.5457H11.0141ZM13.2206 21.7523H11.7794V20.3111H13.2206V21.7523Z" fill="white"/>
<path d="M11.0141 15.3273V18.2992H13.986V15.3273H11.0141ZM13.2206 17.5338H11.7794V16.0927H13.2206V17.5338Z" fill="white"/>
<path d="M6.79559 15.3273V18.2992H9.76752V15.3273H6.79559ZM9.00219 17.5338H7.56102V16.0927H9.00219V17.5338Z" fill="white"/>
<path d="M15.2325 15.3273V18.2992H18.2044V15.3273H15.2325ZM17.439 17.5338H15.9978V16.0927H17.439V17.5338Z" fill="white"/>
<path d="M5.07886 12.0806H4.31348V12.908H5.07886V12.0806Z" fill="white"/>
<path d="M5.07886 13.9014H4.31348V14.7288H5.07886V13.9014Z" fill="white"/>
</svg>
