<svg width="25" height="25" viewBox="0 0 25 25" fill="none" xmlns="http://www.w3.org/2000/svg">
<path d="M11.4586 2.92422C11.1035 2.79844 10.7312 2.73438 10.3516 2.73438V3.51562C10.6418 3.51562 10.9266 3.56445 11.1977 3.66055L11.4586 2.92422Z" fill="white"/>
<path d="M9.24453 2.92419C7.9207 3.39373 7.03125 4.65154 7.03125 6.05466H7.8125C7.8125 4.98162 8.49297 4.01951 9.50547 3.66052L9.24453 2.92419Z" fill="white"/>
<path d="M20.3125 18.1977V16.7262C22.5258 16.3527 24.2188 14.4273 24.2188 12.1094C24.2188 9.52461 22.116 7.42188 19.5312 7.42188C18.9742 7.42188 18.4328 7.51875 17.9164 7.71016C17.6895 6.65352 16.7484 5.85938 15.625 5.85938C15.6238 5.85938 15.6227 5.85938 15.6215 5.85938C15.5188 3.0418 13.1938 0.78125 10.3516 0.78125C7.44375 0.78125 5.07812 3.14688 5.07812 6.05469C5.07812 6.27031 5.09141 6.48594 5.11797 6.70039C2.65391 7.06172 0.78125 9.18828 0.78125 11.7188C0.78125 14.1148 2.45156 16.1238 4.6875 16.6551V18.1977L2.06758 20.8176C1.99414 20.8906 1.95312 20.9902 1.95312 21.0938V22.6562H2.73438V21.2555L5.3543 18.6355C5.42773 18.5625 5.46875 18.4629 5.46875 18.3594V16.777C5.59805 16.7871 5.72734 16.7969 5.85938 16.7969H7.03125V18.9789L5.19258 20.8176C5.11914 20.8906 5.07812 20.9902 5.07812 21.0938V22.6562H5.85938V21.2555L7.69805 19.4168C7.77148 19.3438 7.8125 19.2441 7.8125 19.1406V16.7969H9.76562V19.7602L8.7082 20.8176C8.63477 20.8906 8.59375 20.9902 8.59375 21.0938V22.6562H9.375V21.2555L10.4324 20.198C10.5059 20.125 10.5469 20.0254 10.5469 19.9219V16.7969H12.1094V22.6562H12.8906V16.7969H14.4531V19.9219C14.4531 20.0254 14.4941 20.125 14.5676 20.198L15.625 21.2555V22.6562H16.4062V21.0938C16.4062 20.9902 16.3652 20.8906 16.2918 20.8176L15.2344 19.7602V16.7969H17.1875V19.1406C17.1875 19.2441 17.2285 19.3438 17.302 19.4168L19.1406 21.2555V22.6562H19.9219V21.0938C19.9219 20.9902 19.8809 20.8906 19.8074 20.8176L17.9688 18.9789V16.7969H19.5312V18.3594C19.5312 18.4629 19.5723 18.5625 19.6457 18.6355L22.2656 21.2555V22.6562H23.0469V21.0938C23.0469 20.9902 23.0059 20.8906 22.9324 20.8176L20.3125 18.1977ZM5.85938 16.0156C3.49023 16.0156 1.5625 14.0879 1.5625 11.7188C1.5625 9.45586 3.3332 7.57422 5.59375 7.43594C5.70664 7.42891 5.81133 7.37344 5.87969 7.28359C5.94883 7.19375 5.975 7.07812 5.95234 6.96719C5.89062 6.66758 5.85938 6.36055 5.85938 6.05469C5.85938 3.57773 7.87461 1.5625 10.3516 1.5625C12.8285 1.5625 14.8438 3.57773 14.8438 6.05469C14.8438 6.09844 14.8406 6.1418 14.8375 6.18477L14.832 6.27383C14.8262 6.39453 14.8766 6.51133 14.9691 6.58984C15.0609 6.66797 15.184 6.69961 15.3027 6.67461C16.2852 6.46797 17.1871 7.23633 17.1863 8.19648C17.1848 8.2082 17.1793 8.25742 17.1785 8.26914C17.1711 8.40859 17.2391 8.5418 17.3566 8.61758C17.4742 8.69336 17.6227 8.70078 17.7477 8.63672C18.3074 8.34922 18.907 8.20312 19.5312 8.20312C21.6852 8.20312 23.4375 9.95547 23.4375 12.1094C23.4375 14.2633 21.6852 16.0156 19.5312 16.0156H5.85938Z" fill="white"/>
<path d="M22.2656 23.4375H23.0469V24.2188H22.2656V23.4375Z" fill="white"/>
<path d="M19.1406 23.4375H19.9219V24.2188H19.1406V23.4375Z" fill="white"/>
<path d="M15.625 23.4375H16.4062V24.2188H15.625V23.4375Z" fill="white"/>
<path d="M1.95312 23.4375H2.73438V24.2188H1.95312V23.4375Z" fill="white"/>
<path d="M5.07812 23.4375H5.85938V24.2188H5.07812V23.4375Z" fill="white"/>
<path d="M8.59375 23.4375H9.375V24.2188H8.59375V23.4375Z" fill="white"/>
<path d="M12.1094 23.4375H12.8906V24.2188H12.1094V23.4375Z" fill="white"/>
<path d="M10.5469 9.375H11.3281V10.1562H10.5469V9.375Z" fill="white"/>
<path d="M10.5469 10.9375H11.3281V11.7188H10.5469V10.9375Z" fill="white"/>
<path d="M10.5469 12.5H11.3281V13.2812H10.5469V12.5Z" fill="white"/>
<path d="M12.1094 9.375H12.8906V10.1562H12.1094V9.375Z" fill="white"/>
<path d="M12.1094 10.9375H12.8906V11.7188H12.1094V10.9375Z" fill="white"/>
<path d="M12.1094 12.5H12.8906V13.2812H12.1094V12.5Z" fill="white"/>
<path d="M13.6719 9.375H14.4531V10.1562H13.6719V9.375Z" fill="white"/>
<path d="M13.6719 10.9375H14.4531V11.7188H13.6719V10.9375Z" fill="white"/>
<path d="M13.6719 12.5H14.4531V13.2812H13.6719V12.5Z" fill="white"/>
<path d="M15.2344 14.0625H13.6719V14.8438H15.625C15.841 14.8438 16.0156 14.6688 16.0156 14.4531V12.1094H15.2344V14.0625Z" fill="white"/>
<path d="M11.7188 7.8125H9.375C9.15898 7.8125 8.98438 7.9875 8.98438 8.20312V10.5469H9.76562V8.59375H11.7188V7.8125Z" fill="white"/>
<path d="M11.3281 14.0625H12.8906V14.8438H11.3281V14.0625Z" fill="white"/>
<path d="M12.5 7.8125H13.6719V8.59375H12.5V7.8125Z" fill="white"/>
<path d="M15.625 7.8125H14.4531V8.59375H15.2344V11.3281H16.0156V8.20312C16.0156 7.9875 15.841 7.8125 15.625 7.8125Z" fill="white"/>
<path d="M9.76562 11.3281H8.98438V14.4531C8.98438 14.6688 9.15898 14.8438 9.375 14.8438H10.5469V14.0625H9.76562V11.3281Z" fill="white"/>
</svg>
