<svg width="25" height="25" viewBox="0 0 25 25" fill="none" xmlns="http://www.w3.org/2000/svg">
<g clip-path="url(#clip0)">
<path d="M21.8014 17.0349H21.7998C21.081 17.0345 20.6751 16.6614 20.4428 15.7882C20.2053 14.8952 20.1973 13.6001 20.1889 12.2289C20.1788 10.5676 20.1673 8.68471 19.7544 7.00072C19.7056 6.80159 19.5044 6.67971 19.3052 6.72854C19.1063 6.77737 18.9844 6.9784 19.033 7.17753C19.4254 8.77665 19.4364 10.6132 19.4464 12.2335C19.4551 13.6533 19.4632 14.9944 19.725 15.979C19.8389 16.4072 20.0022 16.7591 20.2131 17.0349H4.74169C4.95264 16.7591 5.11591 16.4072 5.22978 15.979C5.49166 14.9944 5.49986 13.6533 5.50844 12.2335C5.52161 10.0658 5.53667 7.60897 6.42359 5.72871C7.42189 3.61213 9.4021 2.58312 12.4775 2.58312C14.1665 2.58312 15.5485 2.9005 16.5852 3.52668C17.4841 4.06951 18.144 4.84103 18.6027 5.8853C18.6851 6.07299 18.9043 6.15843 19.092 6.07585C19.2797 5.99345 19.3651 5.77449 19.2827 5.58661C18.7675 4.41398 17.9892 3.50704 16.9691 2.89096C16.3179 2.49767 15.5533 2.21405 14.6824 2.04124C14.5947 0.90122 13.6396 0 12.4775 0C11.3154 0 10.3602 0.901411 10.273 2.04162C9.44215 2.20623 8.70763 2.47154 8.07726 2.83679C7.06293 3.42464 6.28054 4.29114 5.75182 5.4119C4.7951 7.44036 4.77946 9.98438 4.76591 12.2289C4.75752 13.6001 4.7497 14.8952 4.51205 15.7882C4.27973 16.6614 3.87385 17.0345 3.15497 17.0349H3.15345C1.95315 17.0349 0.976593 18.0114 0.976593 19.2119C0.976593 20.4122 1.95315 21.3888 3.15345 21.3888H5.50349C5.70852 21.3888 5.87485 21.2225 5.87485 21.0174C5.87485 20.8124 5.70852 20.6462 5.50349 20.6462H3.15345C2.36266 20.6462 1.71912 20.0027 1.71912 19.2119C1.71912 18.4211 2.36247 17.7778 3.15325 17.7776H3.15345H3.15478H21.7998H21.8012H21.8016C22.5922 17.7778 23.2355 18.4211 23.2355 19.2119C23.2355 20.0027 22.592 20.6462 21.8012 20.6462H6.98873C6.7837 20.6462 6.61757 20.8124 6.61757 21.0174C6.61757 21.2225 6.7837 21.3888 6.98873 21.3888H8.51289C8.70077 23.4113 10.4067 25 12.4775 25C14.5481 25 16.254 23.4113 16.4419 21.3888H21.8014C23.0017 21.3888 23.9782 20.4122 23.9782 19.2119C23.9782 18.0114 23.0017 17.0349 21.8014 17.0349ZM12.4775 0.742529C13.1886 0.742529 13.7833 1.25046 13.9181 1.92241C13.4623 1.86863 12.9824 1.84059 12.4775 1.84059C11.9726 1.84059 11.4927 1.86844 11.0371 1.92222C11.1719 1.25026 11.7664 0.742529 12.4775 0.742529ZM12.4775 24.2574C10.8166 24.2574 9.44425 23.0009 9.25943 21.3888H15.6954C15.5106 23.0009 14.1382 24.2574 12.4775 24.2574Z" fill="white"/>
<path d="M18.4391 2.33019C18.4458 2.33381 19.1069 2.71109 19.7573 3.58751C20.6285 4.7613 21.0701 6.22767 21.0701 7.946C21.0701 8.15104 21.2364 8.31736 21.4415 8.31736C21.6465 8.31736 21.8128 8.15104 21.8128 7.946C21.8128 5.5805 21.005 4.01037 20.3274 3.10991C19.5827 2.12038 18.8311 1.69829 18.7994 1.68074C18.6203 1.58194 18.3956 1.64679 18.296 1.82531C18.1965 2.00403 18.2608 2.22986 18.4391 2.33019Z" fill="white"/>
<path d="M21.2404 2.46642C21.3001 2.50552 22.7037 3.44756 22.7037 5.81763C22.7037 6.02267 22.87 6.1888 23.0751 6.1888C23.2801 6.1888 23.4463 6.02267 23.4463 5.81763C23.4463 3.02222 21.7146 1.88792 21.6408 1.841C21.4685 1.73132 21.2408 1.78206 21.1302 1.95391C21.0195 2.12557 21.0693 2.35484 21.2404 2.46642Z" fill="white"/>
<path d="M3.51317 8.31741C3.71821 8.31741 3.88453 8.15109 3.88453 7.94605C3.88453 6.22772 4.32627 4.76135 5.19736 3.58757C5.84376 2.71667 6.50085 2.33864 6.51534 2.33024C6.69406 2.23087 6.75891 2.00542 6.65992 1.82632C6.56055 1.64684 6.33472 1.5818 6.15523 1.68079C6.12357 1.69834 5.37188 2.12044 4.62725 3.10997C3.94976 4.01043 3.142 5.58056 3.142 7.94605C3.142 8.15109 3.30813 8.31741 3.51317 8.31741Z" fill="white"/>
<path d="M1.87972 6.18878C2.08476 6.18878 2.25089 6.02265 2.25089 5.81761C2.25089 3.44945 3.65241 2.50683 3.71421 2.46659C3.88587 2.35615 3.93623 2.12746 3.82655 1.95504C3.7165 1.78204 3.48705 1.73111 3.31386 1.84117C3.24023 1.88809 1.50836 3.0222 1.50836 5.81761C1.50836 6.02265 1.67468 6.18878 1.87972 6.18878Z" fill="white"/>
</g>
<defs>
<clipPath id="clip0">
<rect width="25" height="25" fill="white"/>
</clipPath>
</defs>
</svg>
