<svg width="60" height="60" viewBox="0 0 60 60" fill="none" xmlns="http://www.w3.org/2000/svg">
<g clip-path="url(#clip0)">
<path d="M10.3125 15.8018V17.8127H12.1875V15.8018C13.2703 15.4587 14.0625 14.4565 14.0625 13.2621C14.0625 12.2421 13.4963 11.3252 12.5831 10.8687L10.7559 9.95462C10.4822 9.81868 10.3125 9.54399 10.3125 9.23837C10.3125 8.79681 10.6725 8.43774 11.1131 8.43774H11.3859C11.8275 8.43774 12.1875 8.79681 12.1875 9.23837V9.37524H14.0625V9.23837C14.0625 8.04399 13.2703 7.04181 12.1875 6.69868V4.68774H10.3125V6.69868C9.22969 7.04181 8.4375 8.04399 8.4375 9.23837C8.4375 10.2584 9.00375 11.1752 9.91688 11.6318L11.7441 12.5459C12.0178 12.6818 12.1875 12.9565 12.1875 13.2621C12.1875 13.7037 11.8275 14.0627 11.3869 14.0627H11.1141C10.6725 14.0627 10.3125 13.7037 10.3125 13.2621V12.1877H8.4375V13.2621C8.4375 14.4565 9.22969 15.4587 10.3125 15.8018Z" fill="white"/>
<path d="M12.1875 44.1987V42.1877H10.3125V44.1987C9.22969 44.5418 8.4375 45.544 8.4375 46.7384C8.4375 47.7584 9.00375 48.6743 9.91688 49.1318L11.7441 50.0459C12.0178 50.1818 12.1875 50.4565 12.1875 50.7621C12.1875 51.2027 11.8275 51.5627 11.3869 51.5627H11.1141C10.6725 51.5627 10.3125 51.2027 10.3125 50.7621V49.6877H8.4375V50.7621C8.4375 51.9574 9.22969 52.9596 10.3125 53.3018V55.3127H12.1875V53.3018C13.2703 52.9587 14.0625 51.9565 14.0625 50.7621C14.0625 49.7421 13.4963 48.8262 12.5831 48.3687L10.7559 47.4546C10.4822 47.3187 10.3125 47.044 10.3125 46.7384C10.3125 46.2977 10.6725 45.9377 11.1131 45.9377H11.3859C11.8275 45.9377 12.1875 46.2977 12.1875 46.7384V46.8752H14.0625V46.7384C14.0625 45.544 13.2703 44.5418 12.1875 44.1987Z" fill="white"/>
<path d="M11.25 21.5627C15.6675 21.5627 19.4334 18.7652 20.8997 14.854L28.1297 16.8256C28.1297 16.8424 28.125 16.8584 28.125 16.8752C28.125 18.9434 29.8069 20.6252 31.875 20.6252C33.8297 20.6252 35.4206 19.1168 35.5913 17.2062L39.7041 16.5209C40.2891 17.8315 41.5988 18.7502 43.125 18.7502C44.0091 18.7502 44.8106 18.4306 45.4528 17.9168L55.8103 25.6849L52.3462 26.2624L52.6538 28.1121L59.2031 27.0199L58.1119 20.4706L56.2622 20.779L56.8153 24.0968L46.5891 16.4271C46.7719 15.9865 46.875 15.5056 46.875 15.0002C46.875 12.9321 45.1931 11.2502 43.125 11.2502C41.1703 11.2502 39.5794 12.7587 39.4087 14.6693L35.2959 15.3546C34.7109 14.044 33.4012 13.1252 31.875 13.1252C30.4847 13.1252 29.2838 13.894 28.6359 15.0199L21.3956 13.0456C21.4988 12.4615 21.5625 11.8634 21.5625 11.2502C21.5625 5.56431 16.9359 0.937744 11.25 0.937744C5.56406 0.937744 0.9375 5.56431 0.9375 11.2502C0.9375 16.9362 5.56406 21.5627 11.25 21.5627ZM43.125 13.1252C44.1591 13.1252 45 13.9662 45 15.0002C45 16.0343 44.1591 16.8752 43.125 16.8752C42.0909 16.8752 41.25 16.0343 41.25 15.0002C41.25 13.9662 42.0909 13.1252 43.125 13.1252ZM31.875 15.0002C32.9091 15.0002 33.75 15.8412 33.75 16.8752C33.75 17.9093 32.9091 18.7502 31.875 18.7502C30.8409 18.7502 30 17.9093 30 16.8752C30 15.8412 30.8409 15.0002 31.875 15.0002ZM11.25 2.81274C15.9028 2.81274 19.6875 6.59837 19.6875 11.2502C19.6875 15.9021 15.9028 19.6877 11.25 19.6877C6.59719 19.6877 2.8125 15.9021 2.8125 11.2502C2.8125 6.59837 6.59719 2.81274 11.25 2.81274Z" fill="white"/>
<path d="M15.9375 30.9377H13.6828C13.1203 29.8306 11.9822 29.0627 10.6575 29.0627H8.0925C6.21469 29.0627 4.6875 30.5899 4.6875 32.4677C4.6875 32.7837 4.73156 33.0987 4.81875 33.4024L6.47062 39.1859L2.8125 44.0627C1.60313 45.6762 0.9375 47.674 0.9375 49.6877C0.9375 54.8571 5.14313 59.0627 10.3125 59.0627H12.1875C13.5206 59.0627 14.7881 58.7787 15.9375 58.2743V59.0627H25.3125V23.4377H15.9375V30.9377ZM8.0925 30.9377H10.6575C11.5013 30.9377 12.1875 31.624 12.1875 32.4677V34.6877H14.0625V32.8127H16.0988C17.0438 32.8127 17.8125 33.5815 17.8125 34.5265C17.8125 34.9774 17.6297 35.4199 17.3109 35.7387L14.6119 38.4377H8.20781L6.62156 32.8868C6.58219 32.7509 6.5625 32.6093 6.5625 32.4677C6.5625 31.624 7.24875 30.9377 8.0925 30.9377ZM10.3125 57.1877C6.17719 57.1877 2.8125 53.8231 2.8125 49.6877C2.8125 48.0762 3.345 46.4777 4.3125 45.1868L7.96875 40.3127H14.5312L18.1875 45.1868C19.155 46.4777 19.6875 48.0762 19.6875 49.6877C19.6875 53.8231 16.3228 57.1877 12.1875 57.1877H10.3125ZM23.4375 25.3127V57.1877H17.8125V57.1699C20.0841 55.4571 21.5625 52.7459 21.5625 49.6877C21.5625 47.674 20.8969 45.6762 19.6875 44.0627L16.2375 39.4634L18.6366 37.0643C19.3144 36.3874 19.6875 35.4856 19.6875 34.5265C19.6875 33.1718 18.9234 32.0037 17.8125 31.3934V25.3127H23.4375Z" fill="white"/>
<path d="M27.1875 59.0627H36.5625V29.0627H27.1875V59.0627ZM29.0625 30.9377H34.6875V57.1877H29.0625V30.9377Z" fill="white"/>
<path d="M38.4375 59.0627H47.8125V24.3752H38.4375V59.0627ZM40.3125 26.2502H45.9375V57.1877H40.3125V26.2502Z" fill="white"/>
<path d="M49.6875 59.0627H59.0625V32.8127H49.6875V59.0627ZM51.5625 34.6877H57.1875V57.1877H51.5625V34.6877Z" fill="white"/>
</g>
<defs>
<clipPath id="clip0">
<rect width="60" height="60" fill="white" transform="translate(0 0.000244141)"/>
</clipPath>
</defs>
</svg>
