<svg width="40" height="40" viewBox="0 0 40 40" fill="none" xmlns="http://www.w3.org/2000/svg">
<g opacity="0.9">
<path d="M22.5106 10.0416H16.2345C15.5873 10.0416 15.0626 10.5663 15.0626 11.2135V20.0833H13.7241C13.0769 20.0833 12.5522 20.608 12.5522 21.2551C12.5522 21.9023 13.0769 22.427 13.7241 22.427H15.0626V25.1041H13.7241C13.0769 25.1041 12.5522 25.6288 12.5522 26.276C12.5522 26.9232 13.0769 27.4479 13.7241 27.4479H15.0626V30.0416C15.0626 30.6888 15.5873 31.2135 16.2345 31.2135C16.8817 31.2135 17.4064 30.6888 17.4064 30.0416V27.4479H22.5106C23.1578 27.4479 23.6825 26.9232 23.6825 26.276C23.6825 25.6288 23.1578 25.1041 22.5106 25.1041H17.4064V22.427H22.5106C25.9253 22.427 28.7033 19.649 28.7033 16.2343C28.7032 12.7352 25.853 10.0416 22.5106 10.0416ZM22.5106 20.0833H17.4064V12.3854H22.5106C24.6201 12.3854 26.3596 14.0869 26.3596 16.2344C26.3595 18.3567 24.6329 20.0833 22.5106 20.0833Z" fill="#FFC700"/>
<path d="M20 0C8.97195 0 0 8.97195 0 20C0 31.028 8.97195 40 20 40C31.028 40 40 31.028 40 20C40 8.97195 31.028 0 20 0ZM20 37.6562C10.2643 37.6562 2.34375 29.7357 2.34375 20C2.34375 10.2643 10.2643 2.34375 20 2.34375C29.7357 2.34375 37.6562 10.2643 37.6562 20C37.6562 29.7357 29.7357 37.6562 20 37.6562Z" fill="#FFC700"/>
</g>
</svg>
