<svg width="40" height="40" viewBox="0 0 40 40" fill="none" xmlns="http://www.w3.org/2000/svg">
<g opacity="0.9">
<path d="M20 40C14.6578 40 9.63539 37.9196 5.85781 34.1422C2.08039 30.3646 0 25.3422 0 20C0 14.6578 2.08039 9.63539 5.85781 5.85781C9.63539 2.08039 14.6578 0 20 0C25.3422 0 30.3646 2.08039 34.1422 5.85781C37.9196 9.63539 40 14.6578 40 20C40 25.3422 37.9196 30.3646 34.1422 34.1422C30.3646 37.9196 25.3422 40 20 40ZM20 2.34375C15.2838 2.34375 10.85 4.18031 7.51516 7.51516C4.18031 10.85 2.34375 15.2838 2.34375 20C2.34375 24.7162 4.18031 29.15 7.51516 32.4848C10.85 35.8197 15.2838 37.6562 20 37.6562C24.7162 37.6562 29.15 35.8197 32.4848 32.4848C35.8197 29.15 37.6562 24.7162 37.6562 20C37.6562 15.2838 35.8197 10.85 32.4848 7.51516C29.15 4.18031 24.7162 2.34375 20 2.34375Z" fill="#FFC700"/>
<path d="M18.8281 4.69031H21.1719V7.81781H18.8281V4.69031Z" fill="#FFC700"/>
<path d="M27.7812 10.5593L29.9924 8.34814L31.6494 10.0052L29.4383 12.2163L27.7812 10.5593Z" fill="#FFC700"/>
<path d="M32.1821 18.8281H35.3096V21.1719H32.1821V18.8281Z" fill="#FFC700"/>
<path d="M27.7793 29.4428L29.4363 27.7858L31.6475 29.9969L29.9904 31.6539L27.7793 29.4428Z" fill="#FFC700"/>
<path d="M18.8281 32.1822H21.1719V35.3097H18.8281V32.1822Z" fill="#FFC700"/>
<path d="M8.3418 29.9948L10.5529 27.7837L12.21 29.4407L9.99883 31.6518L8.3418 29.9948Z" fill="#FFC700"/>
<path d="M4.69043 18.8281H7.81793V21.1719H4.69043V18.8281Z" fill="#FFC700"/>
<path d="M8.34375 10.0031L10.0008 8.34607L12.2119 10.5572L10.5549 12.2142L8.34375 10.0031Z" fill="#FFC700"/>
<path d="M28.2728 21.1719H18.8281V11.7272H21.1719V18.8281H28.2728V21.1719Z" fill="#FFC700"/>
</g>
</svg>
