<svg width="112" height="20" viewBox="0 0 112 20" fill="none" xmlns="http://www.w3.org/2000/svg">
<g clip-path="url(#clip0)">
<path d="M12.8034 5.19659L11.809 6.19103C14.1848 8.56685 14.1848 12.4328 11.809 14.8089C9.43315 17.1849 5.56719 17.1847 3.19114 14.8089L2.1967 15.8033C5.12564 18.7322 9.87424 18.7322 12.8032 15.8033C15.7321 12.8744 15.7323 8.1253 12.8034 5.19659Z" fill="#03A9F4"/>
<path d="M12.8034 5.19659L11.809 6.19102C9.43315 3.8152 5.5672 3.8152 3.19114 6.19102C0.815085 8.56685 0.815319 12.4328 3.19114 14.8089L2.1967 15.8033C-0.732235 12.8744 -0.732235 8.12576 2.1967 5.19682C5.12564 2.26788 9.87471 2.26765 12.8034 5.19659Z" fill="#0DD149"/>
<path d="M10.8722 7.12781L9.87776 8.12225C11.1888 9.43332 11.1888 11.5666 9.87776 12.8774C8.56668 14.1882 6.43344 14.1885 5.1226 12.8774L4.12816 13.8718C5.99047 15.7342 9.00988 15.7342 10.8722 13.8718C12.7345 12.0095 12.7345 8.99012 10.8722 7.12781Z" fill="#E04F5F"/>
<path d="M10.872 7.12757L9.87752 8.12201C8.56644 6.81094 6.4332 6.81094 5.12236 8.12201C3.81152 9.43308 3.81129 11.5663 5.12236 12.8772L4.12792 13.8716C2.26561 12.0093 2.26561 8.98989 4.12792 7.12757C5.99024 5.26526 9.00964 5.26526 10.872 7.12757Z" fill="#FFD07D"/>
</g>
<path opacity="0.9" d="M26.304 4.8C27.3387 4.8 28.24 4.97067 29.008 5.312C29.776 5.65333 30.368 6.144 30.784 6.784C31.2 7.424 31.408 8.17067 31.408 9.024C31.408 9.87733 31.2 10.624 30.784 11.264C30.368 11.904 29.776 12.3947 29.008 12.736C28.24 13.0773 27.3387 13.248 26.304 13.248H24.688V16H20.912V4.8H26.304ZM26.064 10.336C26.576 10.336 26.96 10.224 27.216 10C27.472 9.76533 27.6 9.44 27.6 9.024C27.6 8.608 27.472 8.288 27.216 8.064C26.96 7.82933 26.576 7.712 26.064 7.712H24.688V10.336H26.064ZM38.7706 7.088C39.848 7.088 40.712 7.41333 41.3626 8.064C42.024 8.71467 42.3546 9.696 42.3546 11.008V16H38.7386V11.632C38.7386 10.6293 38.3813 10.128 37.6666 10.128C37.2613 10.128 36.9306 10.272 36.6746 10.56C36.4293 10.8373 36.3066 11.28 36.3066 11.888V16H32.6906V4.128H36.3066V7.952C36.9786 7.376 37.8 7.088 38.7706 7.088ZM53.3933 11.616C53.3933 11.6693 53.3773 11.952 53.3453 12.464H47.2653C47.3933 12.7947 47.6066 13.0507 47.9053 13.232C48.2039 13.4027 48.5773 13.488 49.0253 13.488C49.4093 13.488 49.7293 13.44 49.9853 13.344C50.2519 13.248 50.5399 13.0827 50.8493 12.848L52.7373 14.752C51.8839 15.6907 50.6093 16.16 48.9133 16.16C47.8573 16.16 46.9293 15.968 46.1293 15.584C45.3293 15.1893 44.7106 14.6453 44.2733 13.952C43.8359 13.2587 43.6173 12.48 43.6173 11.616C43.6173 10.7413 43.8306 9.96267 44.2573 9.28C44.6946 8.58667 45.2866 8.048 46.0333 7.664C46.7906 7.28 47.6386 7.088 48.5773 7.088C49.4626 7.088 50.2679 7.264 50.9933 7.616C51.7293 7.968 52.3106 8.48533 52.7373 9.168C53.1746 9.85067 53.3933 10.6667 53.3933 11.616ZM48.6093 9.552C48.2359 9.552 47.9266 9.65333 47.6813 9.856C47.4359 10.0587 47.2759 10.3467 47.2013 10.72H50.0173C49.9426 10.3573 49.7826 10.0747 49.5373 9.872C49.2919 9.65867 48.9826 9.552 48.6093 9.552ZM54.5344 4.128H58.1504V16H54.5344V4.128ZM65.5931 7.088C66.3611 7.088 67.0651 7.27467 67.7051 7.648C68.3558 8.01067 68.8678 8.53867 69.2411 9.232C69.6251 9.92533 69.8171 10.7253 69.8171 11.632C69.8171 12.5387 69.6251 13.3387 69.2411 14.032C68.8678 14.7147 68.3558 15.2427 67.7051 15.616C67.0651 15.9787 66.3611 16.16 65.5931 16.16C64.6225 16.16 63.8811 15.9093 63.3691 15.408V19.104H59.7531V7.248H63.1931V7.968C63.7158 7.38133 64.5158 7.088 65.5931 7.088ZM64.7291 13.344C65.1451 13.344 65.4865 13.1947 65.7531 12.896C66.0198 12.5973 66.1531 12.176 66.1531 11.632C66.1531 11.088 66.0198 10.6667 65.7531 10.368C65.4865 10.0587 65.1451 9.904 64.7291 9.904C64.3131 9.904 63.9718 10.0587 63.7051 10.368C63.4385 10.6667 63.3051 11.088 63.3051 11.632C63.3051 12.176 63.4385 12.5973 63.7051 12.896C63.9718 13.1947 64.3131 13.344 64.7291 13.344ZM80.2683 11.616C80.2683 11.6693 80.2523 11.952 80.2203 12.464H74.1403C74.2683 12.7947 74.4816 13.0507 74.7803 13.232C75.0789 13.4027 75.4523 13.488 75.9003 13.488C76.2843 13.488 76.6043 13.44 76.8603 13.344C77.1269 13.248 77.4149 13.0827 77.7243 12.848L79.6123 14.752C78.7589 15.6907 77.4843 16.16 75.7883 16.16C74.7323 16.16 73.8043 15.968 73.0043 15.584C72.2043 15.1893 71.5856 14.6453 71.1483 13.952C70.7109 13.2587 70.4923 12.48 70.4923 11.616C70.4923 10.7413 70.7056 9.96267 71.1323 9.28C71.5696 8.58667 72.1616 8.048 72.9083 7.664C73.6656 7.28 74.5136 7.088 75.4523 7.088C76.3376 7.088 77.1429 7.264 77.8683 7.616C78.6043 7.968 79.1856 8.48533 79.6123 9.168C80.0496 9.85067 80.2683 10.6667 80.2683 11.616ZM75.4843 9.552C75.1109 9.552 74.8016 9.65333 74.5563 9.856C74.3109 10.0587 74.1509 10.3467 74.0763 10.72H76.8923C76.8176 10.3573 76.6576 10.0747 76.4123 9.872C76.1669 9.65867 75.8576 9.552 75.4843 9.552ZM84.8494 8.192C85.4894 7.456 86.4334 7.088 87.6814 7.088V10.288C87.3934 10.2453 87.1267 10.224 86.8814 10.224C85.644 10.224 85.0254 10.8533 85.0254 12.112V16H81.4094V7.248H84.8494V8.192ZM90.182 16.16C89.574 16.16 89.0673 15.968 88.662 15.584C88.2673 15.1893 88.07 14.688 88.07 14.08C88.07 13.472 88.2673 12.9813 88.662 12.608C89.0673 12.224 89.574 12.032 90.182 12.032C90.79 12.032 91.2913 12.224 91.686 12.608C92.0913 12.9813 92.294 13.472 92.294 14.08C92.294 14.688 92.0913 15.1893 91.686 15.584C91.2913 15.968 90.79 16.16 90.182 16.16ZM96.8494 8.192C97.4894 7.456 98.4334 7.088 99.6814 7.088V10.288C99.3934 10.2453 99.1267 10.224 98.8814 10.224C97.644 10.224 97.0254 10.8533 97.0254 12.112V16H93.4094V7.248H96.8494V8.192ZM110.274 7.248V16H106.834V15.168C106.514 15.4987 106.141 15.7493 105.714 15.92C105.288 16.08 104.834 16.16 104.354 16.16C103.245 16.16 102.354 15.824 101.682 15.152C101.01 14.4693 100.674 13.4453 100.674 12.08V7.248H104.29V11.456C104.29 12.0533 104.386 12.48 104.578 12.736C104.77 12.992 105.053 13.12 105.426 13.12C105.778 13.12 106.072 12.9813 106.306 12.704C106.541 12.416 106.658 11.968 106.658 11.36V7.248H110.274Z" fill="#5DA60E"/>
<defs>
<clipPath id="clip0">
<rect y="3" width="15" height="15" fill="white"/>
</clipPath>
</defs>
</svg>
