<svg width="125" height="125" viewBox="0 0 125 125" fill="none" xmlns="http://www.w3.org/2000/svg">
<path d="M46.8237 53.1885C43.6621 56.8335 41.748 61.582 41.748 66.7725V92.4072H14.8926C12.8711 92.4072 11.2305 90.7666 11.2305 88.7451V70.4346C11.2305 58.3179 21.0864 48.4619 33.2031 48.4619C38.1958 48.4619 42.9565 50.127 46.8237 53.1885Z" fill="#FDBF00"/>
<path d="M46.8237 53.1885C43.6621 56.8335 41.748 61.582 41.748 66.7725V92.4072H33.2031V48.4619C36.6724 48.4619 40.0293 49.2651 43.0518 50.7837C44.3799 51.4502 45.6445 52.2534 46.8237 53.1885Z" fill="#FE9022"/>
<path d="M113.77 70.4346V88.7451C113.77 90.7666 112.129 92.4072 110.107 92.4072H83.252V66.7725C83.252 61.582 81.3379 56.8335 78.1787 53.1885C82.0435 50.1245 86.792 48.4619 91.7969 48.4619C103.914 48.4619 113.77 58.3179 113.77 70.4346Z" fill="#FF641A"/>
<path d="M113.77 70.4346V88.7451C113.77 90.7666 112.129 92.4072 110.107 92.4072H91.7969V48.4619C95.3345 48.4619 98.6768 49.3018 101.638 50.7935C108.826 54.4067 113.77 61.853 113.77 70.4346Z" fill="#F03800"/>
<path d="M62.5 44.7998C50.3843 44.7998 40.5273 54.6567 40.5273 66.7725V96.0693C40.5273 98.0918 42.167 99.7314 44.1895 99.7314H80.8105C82.833 99.7314 84.4727 98.0918 84.4727 96.0693V66.7725C84.4727 54.6567 74.6157 44.7998 62.5 44.7998Z" fill="#0097F0"/>
<path d="M84.4727 66.7725V96.0693C84.4727 98.0908 82.832 99.7314 80.8105 99.7314H62.5V44.7998C66.2036 44.7998 69.6973 45.7202 72.7588 47.3462C79.7192 51.0352 84.4727 58.3594 84.4727 66.7725Z" fill="#0052C2"/>
<path d="M121.338 90.5762C119.315 90.5762 117.676 92.2158 117.676 94.2383V112.793H99.1211C97.0986 112.793 95.459 114.433 95.459 116.455C95.459 118.478 97.0986 120.117 99.1211 120.117H121.338C123.36 120.117 125 118.478 125 116.455V94.2383C125 92.2158 123.36 90.5762 121.338 90.5762Z" fill="#00B8F0"/>
<path d="M25.8789 112.793H7.32422V94.2383C7.32422 92.2158 5.68457 90.5762 3.66211 90.5762C1.63965 90.5762 0 92.2158 0 94.2383V116.455C0 118.478 1.63965 120.117 3.66211 120.117H25.8789C27.9014 120.117 29.541 118.478 29.541 116.455C29.541 114.433 27.9014 112.793 25.8789 112.793Z" fill="#5ECEF4"/>
<path d="M25.8789 4.88281H3.66211C1.63965 4.88281 0 6.52246 0 8.54492V30.7617C0 32.7842 1.63965 34.4238 3.66211 34.4238C5.68457 34.4238 7.32422 32.7842 7.32422 30.7617V12.207H25.8789C27.9014 12.207 29.541 10.5674 29.541 8.54492C29.541 6.52246 27.9014 4.88281 25.8789 4.88281Z" fill="#5ECEF4"/>
<path d="M121.338 4.88281H98.877C96.8545 4.88281 95.2148 6.52246 95.2148 8.54492C95.2148 10.5674 96.8545 12.207 98.877 12.207H117.676V30.7617C117.676 32.7842 119.315 34.4238 121.338 34.4238C123.36 34.4238 125 32.7842 125 30.7617V8.54492C125 6.52246 123.36 4.88281 121.338 4.88281Z" fill="#00B8F0"/>
<path d="M62.5 52.124C69.9159 52.124 75.9277 46.1122 75.9277 38.6963C75.9277 31.2804 69.9159 25.2686 62.5 25.2686C55.0841 25.2686 49.0723 31.2804 49.0723 38.6963C49.0723 46.1122 55.0841 52.124 62.5 52.124Z" fill="#FECEC0"/>
<path d="M75.9277 38.6963C75.9277 41.9873 74.7363 45.0098 72.7588 47.3462C70.2978 50.2661 66.6113 52.124 62.5 52.124V25.2686C69.9048 25.2686 75.9277 31.2915 75.9277 38.6963Z" fill="#FEB99E"/>
<path d="M91.7969 55.7861C98.5386 55.7861 104.004 50.3209 104.004 43.5791C104.004 36.8373 98.5386 31.3721 91.7969 31.3721C85.0551 31.3721 79.5898 36.8373 79.5898 43.5791C79.5898 50.3209 85.0551 55.7861 91.7969 55.7861Z" fill="#FECEC0"/>
<path d="M104.004 43.5791C104.004 46.2744 103.125 48.7695 101.638 50.7935C99.4141 53.8184 95.8301 55.7861 91.7969 55.7861V31.3721C98.5278 31.3721 104.004 36.8481 104.004 43.5791Z" fill="#FEB99E"/>
<path d="M33.2031 55.7861C39.9449 55.7861 45.4102 50.3209 45.4102 43.5791C45.4102 36.8373 39.9449 31.3721 33.2031 31.3721C26.4614 31.3721 20.9961 36.8373 20.9961 43.5791C20.9961 50.3209 26.4614 55.7861 33.2031 55.7861Z" fill="#FECEC0"/>
<path d="M45.4102 43.5791C45.4102 46.2695 44.5337 48.7622 43.0518 50.7837C40.8276 53.8159 37.2412 55.7861 33.2031 55.7861V31.3721C39.9341 31.3721 45.4102 36.8481 45.4102 43.5791Z" fill="#FEB99E"/>
</svg>
