<svg width="19" height="20" viewBox="0 0 19 20" fill="none" xmlns="http://www.w3.org/2000/svg">
<path d="M18.574 15.6814L15.6398 12.7468C15.0553 12.1647 14.0875 12.1824 13.4827 12.7874L12.0044 14.2654C11.911 14.2139 11.8143 14.1601 11.7127 14.1031C10.7792 13.5859 9.50147 12.8769 8.15697 11.5314C6.80848 10.1831 6.09887 8.90344 5.58003 7.96932C5.52529 7.87035 5.47283 7.77494 5.42103 7.68433L6.41317 6.69365L6.90095 6.20527C7.50669 5.59937 7.52339 4.63179 6.94031 4.048L4.00606 1.11309C3.42297 0.530117 2.45468 0.547803 1.84894 1.1537L1.02197 1.98542L1.04457 2.00786C0.767274 2.36168 0.535559 2.76977 0.363123 3.20983C0.204169 3.62872 0.105205 4.02846 0.059954 4.429C-0.327495 7.64104 1.14031 10.5766 5.12375 14.5601C10.6301 20.066 15.0675 19.6501 15.2589 19.6298C15.6758 19.58 16.0754 19.4803 16.4814 19.3226C16.9177 19.1522 17.3255 18.9208 17.6791 18.6441L17.6972 18.6602L18.5349 17.8398C19.1394 17.234 19.1568 16.2661 18.574 15.6814Z" fill="#49494B" fill-opacity="0.75"/>
</svg>
