<svg width="96" height="20" viewBox="0 0 96 20" fill="none" xmlns="http://www.w3.org/2000/svg">
<g clip-path="url(#clip0)">
<path d="M12.8034 5.19659L11.809 6.19103C14.1848 8.56685 14.1848 12.4328 11.809 14.8089C9.43315 17.1849 5.56719 17.1847 3.19114 14.8089L2.1967 15.8033C5.12564 18.7322 9.87424 18.7322 12.8032 15.8033C15.7321 12.8744 15.7323 8.1253 12.8034 5.19659Z" fill="#03A9F4"/>
<path d="M12.8034 5.19659L11.809 6.19102C9.43315 3.8152 5.5672 3.8152 3.19114 6.19102C0.815085 8.56685 0.815319 12.4328 3.19114 14.8089L2.1967 15.8033C-0.732235 12.8744 -0.732235 8.12576 2.1967 5.19682C5.12564 2.26788 9.87471 2.26765 12.8034 5.19659Z" fill="#0DD149"/>
<path d="M10.8722 7.12781L9.87776 8.12225C11.1888 9.43332 11.1888 11.5666 9.87776 12.8774C8.56668 14.1882 6.43344 14.1885 5.1226 12.8774L4.12816 13.8718C5.99047 15.7342 9.00988 15.7342 10.8722 13.8718C12.7345 12.0095 12.7345 8.99012 10.8722 7.12781Z" fill="#E04F5F"/>
<path d="M10.872 7.12757L9.87752 8.12201C8.56644 6.81094 6.4332 6.81094 5.12236 8.12201C3.81152 9.43308 3.81129 11.5663 5.12236 12.8772L4.12792 13.8716C2.26561 12.0093 2.26561 8.98989 4.12792 7.12757C5.99024 5.26526 9.00964 5.26526 10.872 7.12757Z" fill="#FFD07D"/>
</g>
<path opacity="0.9" d="M20.912 4.8H24.688V13.072H29.744V16H20.912V4.8ZM30.675 7.248H34.291V16H30.675V7.248ZM32.483 6.544C31.8323 6.544 31.3043 6.37333 30.899 6.032C30.5043 5.68 30.307 5.23733 30.307 4.704C30.307 4.17067 30.5043 3.73333 30.899 3.392C31.3043 3.04 31.8323 2.864 32.483 2.864C33.1443 2.864 33.6723 3.02933 34.067 3.36C34.4617 3.69067 34.659 4.11733 34.659 4.64C34.659 5.19467 34.4617 5.65333 34.067 6.016C33.6723 6.368 33.1443 6.544 32.483 6.544ZM42.3418 15.696C41.7978 16.0053 41.0564 16.16 40.1178 16.16C38.8911 16.16 37.9471 15.8667 37.2858 15.28C36.6244 14.6827 36.2938 13.792 36.2938 12.608V10.368H35.0938V7.728H36.2938V5.28H39.9098V7.728H41.7018V10.368H39.9098V12.576C39.9098 12.8427 39.9791 13.0507 40.1178 13.2C40.2564 13.3493 40.4378 13.424 40.6618 13.424C40.9711 13.424 41.2431 13.344 41.4778 13.184L42.3418 15.696ZM52.3308 11.616C52.3308 11.6693 52.3148 11.952 52.2828 12.464H46.2028C46.3308 12.7947 46.5441 13.0507 46.8428 13.232C47.1414 13.4027 47.5148 13.488 47.9628 13.488C48.3468 13.488 48.6668 13.44 48.9228 13.344C49.1894 13.248 49.4774 13.0827 49.7868 12.848L51.6748 14.752C50.8214 15.6907 49.5468 16.16 47.8508 16.16C46.7948 16.16 45.8668 15.968 45.0668 15.584C44.2668 15.1893 43.6481 14.6453 43.2108 13.952C42.7734 13.2587 42.5548 12.48 42.5548 11.616C42.5548 10.7413 42.7681 9.96267 43.1948 9.28C43.6321 8.58667 44.2241 8.048 44.9708 7.664C45.7281 7.28 46.5761 7.088 47.5148 7.088C48.4001 7.088 49.2054 7.264 49.9308 7.616C50.6668 7.968 51.2481 8.48533 51.6748 9.168C52.1121 9.85067 52.3308 10.6667 52.3308 11.616ZM47.5468 9.552C47.1734 9.552 46.8641 9.65333 46.6188 9.856C46.3734 10.0587 46.2134 10.3467 46.1388 10.72H48.9548C48.8801 10.3573 48.7201 10.0747 48.4748 9.872C48.2294 9.65867 47.9201 9.552 47.5468 9.552ZM59.3119 7.088C60.0799 7.088 60.7839 7.27467 61.4239 7.648C62.0745 8.01067 62.5865 8.53867 62.9599 9.232C63.3439 9.91467 63.5359 10.7093 63.5359 11.616C63.5359 12.5227 63.3439 13.3227 62.9599 14.016C62.5865 14.7093 62.0745 15.2427 61.4239 15.616C60.7839 15.9787 60.0799 16.16 59.3119 16.16C58.2345 16.16 57.4345 15.8667 56.9119 15.28V16H53.4719V4.128H57.0879V7.84C57.5999 7.33867 58.3412 7.088 59.3119 7.088ZM58.4479 13.344C58.8639 13.344 59.2052 13.1947 59.4719 12.896C59.7385 12.5867 59.8719 12.16 59.8719 11.616C59.8719 11.072 59.7385 10.6507 59.4719 10.352C59.2052 10.0533 58.8639 9.904 58.4479 9.904C58.0319 9.904 57.6905 10.0533 57.4239 10.352C57.1572 10.6507 57.0239 11.072 57.0239 11.616C57.0239 12.16 57.1572 12.5867 57.4239 12.896C57.6905 13.1947 58.0319 13.344 58.4479 13.344ZM68.3763 7.088C69.9123 7.088 71.0856 7.43467 71.8963 8.128C72.7069 8.81067 73.1123 9.86667 73.1123 11.296V16H69.7523V14.848C69.3363 15.7227 68.5096 16.16 67.2723 16.16C66.5789 16.16 65.9869 16.0427 65.4963 15.808C65.0163 15.5627 64.6483 15.2373 64.3923 14.832C64.1469 14.416 64.0243 13.952 64.0243 13.44C64.0243 12.576 64.3549 11.92 65.0163 11.472C65.6776 11.024 66.6803 10.8 68.0243 10.8H69.4803C69.3629 10.1173 68.8136 9.776 67.8323 9.776C67.4376 9.776 67.0376 9.84 66.6323 9.968C66.2269 10.0853 65.8803 10.2507 65.5923 10.464L64.4403 8.08C64.9416 7.77067 65.5443 7.53067 66.2483 7.36C66.9629 7.17867 67.6723 7.088 68.3763 7.088ZM68.3602 13.984C68.6163 13.984 68.8456 13.9147 69.0483 13.776C69.2509 13.6373 69.4003 13.4293 69.4963 13.152V12.544H68.6003C67.8643 12.544 67.4963 12.7893 67.4963 13.28C67.4963 13.4827 67.5709 13.6533 67.7203 13.792C67.8803 13.92 68.0936 13.984 68.3602 13.984ZM79.5353 16.16C78.5433 16.16 77.6526 15.968 76.8633 15.584C76.0846 15.2 75.4713 14.6613 75.0233 13.968C74.5859 13.2747 74.3673 12.4907 74.3673 11.616C74.3673 10.7413 74.5859 9.96267 75.0233 9.28C75.4713 8.58667 76.0846 8.048 76.8633 7.664C77.6526 7.28 78.5433 7.088 79.5353 7.088C80.6019 7.088 81.5139 7.31733 82.2713 7.776C83.0286 8.23467 83.5513 8.86933 83.8393 9.68L81.0393 11.056C80.6979 10.288 80.1913 9.904 79.5193 9.904C79.0926 9.904 78.7353 10.0533 78.4473 10.352C78.1699 10.6507 78.0312 11.072 78.0312 11.616C78.0312 12.1707 78.1699 12.5973 78.4473 12.896C78.7353 13.1947 79.0926 13.344 79.5193 13.344C80.1913 13.344 80.6979 12.96 81.0393 12.192L83.8393 13.568C83.5513 14.3787 83.0286 15.0133 82.2713 15.472C81.5139 15.9307 80.6019 16.16 79.5353 16.16ZM88.867 13.312L88.291 13.936V16H84.675V4.128H88.291V9.792L90.803 7.248H95.075L91.459 11.04L95.363 16H90.995L88.867 13.312Z" fill="#5DA60E"/>
<defs>
<clipPath id="clip0">
<rect y="3" width="15" height="15" fill="white"/>
</clipPath>
</defs>
</svg>
