<svg width="37" height="37" viewBox="0 0 37 37" fill="none" xmlns="http://www.w3.org/2000/svg">
<path d="M17.44 15.24H20.56V26H17.44V15.24ZM19 13.74C18.4267 13.74 17.96 13.5733 17.6 13.24C17.24 12.9067 17.06 12.4933 17.06 12C17.06 11.5067 17.24 11.0933 17.6 10.76C17.96 10.4267 18.4267 10.26 19 10.26C19.5733 10.26 20.04 10.42 20.4 10.74C20.76 11.06 20.94 11.46 20.94 11.94C20.94 12.46 20.76 12.8933 20.4 13.24C20.04 13.5733 19.5733 13.74 19 13.74Z" fill="#EFBB00"/>
<circle cx="18.5" cy="18.5" r="17.5" stroke="#FFC700" stroke-width="2"/>
</svg>
