<svg width="13" height="13" viewBox="0 0 13 13" fill="none" xmlns="http://www.w3.org/2000/svg">
<path d="M9.88347 8.59977C9.45876 8.18046 8.92854 8.18046 8.50654 8.59977C8.18462 8.91898 7.8627 9.23819 7.5462 9.56281C7.45963 9.65208 7.38659 9.67102 7.28109 9.6115C7.07279 9.49788 6.85097 9.40591 6.65078 9.28147C5.7175 8.69445 4.9357 7.9397 4.24318 7.09028C3.89962 6.66827 3.59393 6.21651 3.38022 5.70793C3.33694 5.60513 3.34506 5.53751 3.42892 5.45365C3.75083 5.14255 4.06463 4.82334 4.38114 4.50413C4.82208 4.06048 4.82208 3.54108 4.37844 3.09473C4.12685 2.84044 3.87527 2.59157 3.62369 2.33728C3.36399 2.07758 3.107 1.81518 2.8446 1.55819C2.41989 1.1443 1.88967 1.1443 1.46766 1.56089C1.14304 1.88011 0.831948 2.20743 0.501916 2.52123C0.196231 2.81069 0.0420358 3.16507 0.0095737 3.57896C-0.0418247 4.25255 0.123191 4.88826 0.355836 5.50775C0.831948 6.79 1.55694 7.92888 2.43612 8.97308C3.62369 10.3852 5.0412 11.5024 6.69948 12.3086C7.44611 12.6711 8.21979 12.9497 9.0611 12.9957C9.64001 13.0281 10.1432 12.8821 10.5462 12.4303C10.8222 12.1219 11.1333 11.8406 11.4254 11.5457C11.8583 11.1075 11.861 10.5773 11.4308 10.1444C10.9168 9.62773 10.4002 9.11375 9.88347 8.59977Z" fill="white"/>
<path d="M9.3668 6.44375L10.365 6.27332C10.2081 5.35627 9.77528 4.52578 9.11792 3.86571C8.42269 3.17048 7.54351 2.73224 6.57506 2.59698L6.43439 3.60061C7.18372 3.70611 7.86542 4.04425 8.40375 4.58258C8.91233 5.09116 9.24506 5.73499 9.3668 6.44375Z" fill="white"/>
<path d="M10.9277 2.10463C9.77527 0.952223 8.31718 0.22453 6.70759 0L6.56693 1.00362C7.95739 1.19839 9.218 1.8287 10.2135 2.8215C11.1576 3.76561 11.7771 4.95859 12.0016 6.2706L12.9998 6.10018C12.7374 4.57987 12.0206 3.20023 10.9277 2.10463Z" fill="white"/>
</svg>
