<svg width="56" height="54" viewBox="0 0 56 54" fill="none" xmlns="http://www.w3.org/2000/svg">
<g opacity="0.8" clip-path="url(#clip0)" filter="url(#filter0_d)">
<path d="M9.1626 28.4403C9.1626 30.0358 10.4842 31.3337 12.1085 31.3337C13.733 31.3337 15.0545 30.0358 15.0545 28.4403C15.0545 26.8449 13.7329 25.547 12.1085 25.547C10.4842 25.547 9.1626 26.8449 9.1626 28.4403ZM13.5452 28.4403C13.5452 29.2183 12.9007 29.8513 12.1086 29.8513C11.3165 29.8513 10.6721 29.2183 10.6721 28.4403C10.6721 27.6623 11.3165 27.0294 12.1086 27.0294C12.9007 27.0294 13.5452 27.6623 13.5452 28.4403Z" fill="#443B38"/>
<path d="M22.1321 28.4403C22.1321 26.8449 20.8105 25.547 19.1861 25.547C17.5617 25.547 16.2402 26.8449 16.2402 28.4403C16.2402 30.0358 17.5618 31.3337 19.1861 31.3337C20.8105 31.3337 22.1321 30.0358 22.1321 28.4403ZM17.7495 28.4403C17.7495 27.6623 18.3939 27.0294 19.186 27.0294C19.9781 27.0294 20.6227 27.6623 20.6227 28.4403C20.6227 29.2183 19.9781 29.8513 19.186 29.8513C18.3939 29.8513 17.7495 29.2183 17.7495 28.4403Z" fill="#443B38"/>
<path d="M29.2098 28.4403C29.2098 26.8449 27.8882 25.547 26.2638 25.547C24.6394 25.547 23.3179 26.8449 23.3179 28.4403C23.3179 30.0358 24.6395 31.3337 26.2638 31.3337C27.8882 31.3337 29.2098 30.0358 29.2098 28.4403ZM24.8271 28.4403C24.8271 27.6623 25.4715 27.0294 26.2637 27.0294C27.0558 27.0294 27.7003 27.6623 27.7003 28.4403C27.7003 29.2183 27.0558 29.8513 26.2637 29.8513C25.4715 29.8513 24.8271 29.2183 24.8271 28.4403Z" fill="#443B38"/>
<path d="M36.2874 28.4403C36.2874 26.8449 34.9658 25.547 33.3414 25.547C31.717 25.547 30.3955 26.8449 30.3955 28.4403C30.3955 30.0358 31.7171 31.3337 33.3414 31.3337C34.9658 31.3337 36.2874 30.0358 36.2874 28.4403ZM31.9048 28.4403C31.9048 27.6623 32.5492 27.0294 33.3413 27.0294C34.1334 27.0294 34.7779 27.6623 34.7779 28.4403C34.7779 29.2183 34.1334 29.8513 33.3413 29.8513C32.5492 29.8513 31.9048 29.2183 31.9048 28.4403Z" fill="#443B38"/>
<path d="M46.3619 3.10175H18.5169C14.4596 3.10175 11.1586 6.3437 11.1586 10.3286V11.4977H9.5584C5.5011 11.4978 2.2002 14.7397 2.2002 18.7246V37.1005C2.2002 41.0854 5.5011 44.3273 9.5584 44.3273H17.4253C17.8421 44.3273 18.1799 43.9954 18.1799 43.5861C18.1799 43.1767 17.8421 42.8449 17.4253 42.8449H9.5584C6.33337 42.8449 3.70957 40.2679 3.70957 37.1005V18.7246C3.70957 15.5572 6.33337 12.9802 9.5584 12.9802H37.4035C40.6285 12.9802 43.2523 15.5572 43.2523 18.7246V37.1005C43.2523 40.2679 40.6285 42.8449 37.4035 42.8449C36.5438 42.8449 35.7413 43.2163 35.2017 43.864C32.2416 47.4169 28.7167 49.9276 26.281 51.4081C26.0539 51.5458 25.7924 51.3133 25.9118 51.0739C26.8689 49.1558 27.6028 47.1444 28.0928 45.0954C28.3673 43.9472 27.4761 42.8449 26.2706 42.8449H20.9472C20.5303 42.8449 20.1925 43.1767 20.1925 43.5861C20.1925 43.9954 20.5303 44.3273 20.9472 44.3273H26.2706C26.5021 44.3273 26.6758 44.5376 26.6234 44.7564C26.1593 46.6972 25.4639 48.6032 24.5565 50.4215C23.774 51.9901 25.5652 53.5865 27.0753 52.6687C29.6088 51.1287 33.278 48.514 36.3698 44.8029C36.6217 44.5006 36.9984 44.3273 37.4035 44.3273C41.4608 44.3273 44.7617 41.0853 44.7617 37.1005V35.9314H46.3619C50.4193 35.9314 53.7202 32.6894 53.7202 28.7046V21.2461C53.7202 20.8367 53.3824 20.5049 52.9655 20.5049C52.5486 20.5049 52.2108 20.8367 52.2108 21.2461V28.7046C52.2108 31.872 49.587 34.4489 46.3619 34.4489H44.7617V18.7246C44.7617 14.7397 41.4608 11.4978 37.4035 11.4978H12.668V10.3287C12.668 7.16121 15.2918 4.58427 18.5169 4.58427H46.3619C49.587 4.58427 52.2108 7.16121 52.2108 10.3287V17.7871C52.2108 18.1965 52.5486 18.5283 52.9655 18.5283C53.3824 18.5283 53.7202 18.1965 53.7202 17.7871V10.3287C53.7202 6.3437 50.4193 3.10175 46.3619 3.10175Z" fill="#443B38"/>
</g>
<defs>
<filter id="filter0_d" x="0.200195" y="-0.280029" width="55.52" height="54.6" filterUnits="userSpaceOnUse" color-interpolation-filters="sRGB">
<feFlood flood-opacity="0" result="BackgroundImageFix"/>
<feColorMatrix in="SourceAlpha" type="matrix" values="0 0 0 0 0 0 0 0 0 0 0 0 0 0 0 0 0 0 127 0"/>
<feOffset dy="-1"/>
<feGaussianBlur stdDeviation="1"/>
<feColorMatrix type="matrix" values="0 0 0 0 1 0 0 0 0 1 0 0 0 0 1 0 0 0 0.5 0"/>
<feBlend mode="normal" in2="BackgroundImageFix" result="effect1_dropShadow"/>
<feBlend mode="normal" in="SourceGraphic" in2="effect1_dropShadow" result="shape"/>
</filter>
<clipPath id="clip0">
<rect width="51.52" height="50.6" fill="white" transform="translate(2.2002 2.71997)"/>
</clipPath>
</defs>
</svg>
