<svg width="55" height="55" viewBox="0 0 55 55" fill="none" xmlns="http://www.w3.org/2000/svg">
<g opacity="0.8" clip-path="url(#clip0)" filter="url(#filter0_d)">
<path d="M47.6846 26.9188C47.2476 26.9188 46.8901 26.5655 46.8901 26.1281C46.8901 25.6908 47.2395 25.3375 47.6761 25.3375H47.6846C48.1212 25.3375 48.4752 25.6908 48.4752 26.1281C48.4752 26.5655 48.1212 26.9188 47.6846 26.9188Z" fill="#443B38"/>
<path d="M47.6612 24.5469C47.2238 24.5469 46.8706 24.1936 46.8706 23.7562C46.8706 21.9743 48.0322 21.1423 48.9649 20.4745C49.9621 19.7595 50.8237 19.1438 50.8237 17.4312C50.8237 15.6871 49.4054 14.2687 47.6612 14.2687C45.9171 14.2687 44.4987 15.6871 44.4987 17.4312C44.4987 17.8686 44.1455 18.2219 43.7081 18.2219C43.2707 18.2219 42.9175 17.8686 42.9175 17.4312C42.9175 14.815 45.045 12.6875 47.6612 12.6875C50.2775 12.6875 52.405 14.815 52.405 17.4312C52.405 19.9556 51.0079 20.9566 49.8852 21.76C48.9437 22.4344 48.4519 22.8297 48.4519 23.7562C48.4519 24.1936 48.0986 24.5469 47.6612 24.5469Z" fill="#443B38"/>
<path d="M7.36285 26.9188C6.92584 26.9188 6.56836 26.5655 6.56836 26.1281C6.56836 25.6908 6.91773 25.3375 7.35435 25.3375H7.36285C7.79946 25.3375 8.15347 25.6908 8.15347 26.1281C8.15347 26.5655 7.79946 26.9188 7.36285 26.9188Z" fill="#443B38"/>
<path d="M7.33945 24.5469C6.90206 24.5469 6.54883 24.1936 6.54883 23.7562C6.54883 21.9743 7.71044 21.1423 8.64314 20.4745C9.6403 19.7595 10.502 19.1438 10.502 17.4312C10.502 15.6871 9.08362 14.2687 7.33945 14.2687C5.59529 14.2687 4.17695 15.6871 4.17695 17.4312C4.17695 17.8686 3.82372 18.2219 3.38633 18.2219C2.94894 18.2219 2.5957 17.8686 2.5957 17.4312C2.5957 14.815 4.72321 12.6875 7.33945 12.6875C9.9557 12.6875 12.0832 14.815 12.0832 17.4312C12.0832 19.9556 10.6861 20.9566 9.56347 21.76C8.6219 22.4344 8.13008 22.8297 8.13008 23.7562C8.13008 24.1936 7.77684 24.5469 7.33945 24.5469Z" fill="#443B38"/>
<path d="M42.1268 41.15C41.6894 41.15 41.3361 40.7968 41.3361 40.3594C41.3361 37.7431 39.2086 35.6156 36.5924 35.6156C36.155 35.6156 35.8018 35.2624 35.8018 34.825C35.8018 34.3876 36.155 34.0344 36.5924 34.0344C40.0799 34.0344 42.9174 36.8718 42.9174 40.3594C42.9174 40.7968 42.5641 41.15 42.1268 41.15Z" fill="#443B38"/>
<path d="M36.5924 35.6156H32.6393C32.2019 35.6156 31.8486 35.2624 31.8486 34.825C31.8486 34.3876 32.2019 34.0344 32.6393 34.0344H36.5924C37.0298 34.0344 37.383 34.3876 37.383 34.825C37.383 35.2624 37.0298 35.6156 36.5924 35.6156Z" fill="#443B38"/>
<path d="M42.1266 49.0563C41.6892 49.0563 41.3359 48.703 41.3359 48.2656V40.474C41.3359 40.0366 41.6892 39.6834 42.1266 39.6834C42.564 39.6834 42.9172 40.0366 42.9172 40.474V48.2656C42.9172 48.703 42.564 49.0563 42.1266 49.0563Z" fill="#443B38"/>
<path d="M13.6642 41.15C13.2268 41.15 12.8735 40.7968 12.8735 40.3594C12.8735 36.8718 15.711 34.0344 19.1985 34.0344C19.6359 34.0344 19.9892 34.3876 19.9892 34.825C19.9892 35.2624 19.6359 35.6156 19.1985 35.6156C16.5823 35.6156 14.4548 37.7431 14.4548 40.3594C14.4548 40.7968 14.1016 41.15 13.6642 41.15Z" fill="#443B38"/>
<path d="M23.152 35.6156H19.1988C18.7614 35.6156 18.4082 35.2624 18.4082 34.825C18.4082 34.3876 18.7614 34.0344 19.1988 34.0344H23.152C23.5893 34.0344 23.9426 34.3876 23.9426 34.825C23.9426 35.2624 23.5893 35.6156 23.152 35.6156Z" fill="#443B38"/>
<path d="M13.6642 49.0563C13.2268 49.0563 12.8735 48.703 12.8735 48.2656V40.474C12.8735 40.0366 13.2268 39.6834 13.6642 39.6834C14.1016 39.6834 14.4548 40.0366 14.4548 40.474V48.2656C14.4548 48.703 14.1016 49.0563 13.6642 49.0563Z" fill="#443B38"/>
<path d="M23.152 35.6156C22.7146 35.6156 22.3613 35.2624 22.3613 34.825V31.3872C22.3613 30.9502 22.7146 30.5966 23.152 30.5966C23.5893 30.5966 23.9426 30.9502 23.9426 31.3872V34.825C23.9426 35.2624 23.5893 35.6156 23.152 35.6156Z" fill="#443B38"/>
<path d="M32.6393 35.6156C32.2019 35.6156 31.8486 35.2624 31.8486 34.825V31.3872C31.8486 30.9502 32.2019 30.5966 32.6393 30.5966C33.0766 30.5966 33.4299 30.9502 33.4299 31.3872V34.825C33.4299 35.2624 33.0766 35.6156 32.6393 35.6156Z" fill="#443B38"/>
<path d="M27.8955 33.2438C21.3563 33.2438 16.0361 27.9236 16.0361 21.3844C16.0361 20.947 16.3894 20.5938 16.8268 20.5938C17.2641 20.5938 17.6174 20.947 17.6174 21.3844C17.6174 27.0516 22.2283 31.6625 27.8955 31.6625C33.5627 31.6625 38.1736 27.0516 38.1736 21.3844C38.1736 20.947 38.5269 20.5938 38.9643 20.5938C39.4016 20.5938 39.7549 20.947 39.7549 21.3844C39.7549 27.9236 34.4348 33.2438 27.8955 33.2438Z" fill="#443B38"/>
<path d="M16.8268 22.1569C16.3894 22.1569 16.0361 21.8032 16.0361 21.3662V13.4781C16.0361 13.0407 16.3894 12.6875 16.8268 12.6875C17.2641 12.6875 17.6174 13.0407 17.6174 13.4781V21.3662C17.6174 21.8025 17.2641 22.1569 16.8268 22.1569Z" fill="#443B38"/>
<path d="M38.9645 22.1758C38.5271 22.1758 38.1738 21.8225 38.1738 21.3851V12.6883C38.1738 12.2513 38.5271 11.8976 38.9645 11.8976C39.4018 11.8976 39.7551 12.2513 39.7551 12.6883V21.3851C39.7551 21.8225 39.4018 22.1758 38.9645 22.1758Z" fill="#443B38"/>
<path d="M38.9641 13.4781C38.5267 13.4781 38.1734 13.1249 38.1734 12.6875C38.1734 10.5079 36.3999 8.73439 34.2203 8.73439C33.7829 8.73439 33.4297 8.38115 33.4297 7.94376C33.4297 7.50637 33.7829 7.15314 34.2203 7.15314C37.2712 7.15314 39.7547 9.63658 39.7547 12.6875C39.7547 13.1249 39.4015 13.4781 38.9641 13.4781Z" fill="#443B38"/>
<path d="M34.2203 8.73439C33.7829 8.73439 33.4297 8.38115 33.4297 7.94376V3.99064C33.4297 3.55325 33.7829 3.20001 34.2203 3.20001C34.6577 3.20001 35.0109 3.55325 35.0109 3.99064V7.94376C35.0109 8.38115 34.6577 8.73439 34.2203 8.73439Z" fill="#443B38"/>
<path d="M34.2203 4.78126H26.3141C25.8767 4.78126 25.5234 4.42803 25.5234 3.99064C25.5234 3.55325 25.8767 3.20001 26.3141 3.20001H34.2203C34.6577 3.20001 35.0109 3.55325 35.0109 3.99064C35.0109 4.42803 34.6577 4.78126 34.2203 4.78126Z" fill="#443B38"/>
<path d="M16.8268 14.2688C16.3894 14.2688 16.0361 13.9155 16.0361 13.4781C16.0361 7.81096 20.6471 3.20001 26.3143 3.20001C26.7516 3.20001 27.1049 3.55325 27.1049 3.99064C27.1049 4.42803 26.7516 4.78126 26.3143 4.78126C21.5192 4.78126 17.6174 8.68304 17.6174 13.4781C17.6174 13.9155 17.2641 14.2688 16.8268 14.2688Z" fill="#443B38"/>
<path d="M38.9642 18.2219C38.7619 18.2219 38.5592 18.1443 38.4052 17.9903L35.2427 14.8278C34.9334 14.5185 34.9334 14.019 35.2427 13.7098C35.5519 13.4005 36.0514 13.4005 36.3607 13.7098L39.5232 16.8723C39.8324 17.1815 39.8324 17.681 39.5232 17.9903C39.3691 18.1443 39.1664 18.2219 38.9642 18.2219Z" fill="#443B38"/>
<path d="M27.8957 16.6407C23.4886 16.6407 19.8265 15.0602 19.6733 14.993C19.2733 14.8182 19.0911 14.3518 19.2652 13.9526C19.4393 13.5535 19.9041 13.3697 20.3056 13.5446C20.3403 13.5597 23.831 15.0594 27.8957 15.0594C31.9754 15.0594 35.451 13.5597 35.4858 13.5446C35.8857 13.3674 36.352 13.5527 36.5261 13.9526C36.7018 14.3526 36.5192 14.8182 36.1181 14.993C35.9648 15.0602 32.3028 16.6407 27.8957 16.6407Z" fill="#443B38"/>
<path d="M16.8266 18.2122C16.6235 18.2122 16.4208 18.135 16.2668 17.9798C15.9583 17.671 15.9583 17.1703 16.2683 16.8618L19.4308 13.709C19.7408 13.4005 20.2404 13.4005 20.5488 13.7105C20.8573 14.0198 20.8573 14.5201 20.5473 14.8285L17.3848 17.9814C17.2308 18.1358 17.0288 18.2122 16.8266 18.2122Z" fill="#443B38"/>
<path d="M25.5226 37.1969C25.3725 37.1969 25.22 37.1533 25.0845 37.0641L22.7126 35.4829C22.3489 35.2401 22.2509 34.7498 22.4937 34.3861C22.7358 34.0225 23.2249 33.9244 23.5905 34.1672L25.9623 35.7485C26.326 35.9913 26.424 36.4816 26.1812 36.8452C26.0295 37.0738 25.7778 37.1969 25.5226 37.1969Z" fill="#443B38"/>
<path d="M25.5235 37.1968C25.1922 37.1968 24.8838 36.9872 24.7738 36.656C24.6355 36.2418 24.8595 35.7936 25.2737 35.6557L27.6456 34.8651C28.0636 34.7261 28.508 34.9508 28.6458 35.365C28.784 35.7793 28.5601 36.2275 28.1459 36.3653L25.774 37.1559C25.6902 37.1833 25.6057 37.1968 25.5235 37.1968Z" fill="#443B38"/>
<path d="M30.268 37.1969C30.0128 37.1969 29.7611 37.0738 29.6094 36.8452C29.3666 36.4816 29.4647 35.9913 29.8283 35.7485L32.2002 34.1672C32.5639 33.9244 33.0541 34.0225 33.297 34.3861C33.5398 34.7498 33.4417 35.2401 33.0781 35.4829L30.7062 37.0641C30.5707 37.1533 30.4182 37.1969 30.268 37.1969Z" fill="#443B38"/>
<path d="M30.2673 37.1969C30.1851 37.1969 30.1006 37.1834 30.0176 37.156L27.6457 36.3653C27.2322 36.2275 27.0075 35.7801 27.1458 35.3651C27.2843 34.9516 27.7271 34.7262 28.146 34.8652L30.5179 35.6558C30.9313 35.7936 31.156 36.241 31.0178 36.656C30.907 36.9873 30.5986 37.1969 30.2673 37.1969Z" fill="#443B38"/>
<path d="M27.919 40.3594C27.482 40.3594 27.1245 40.0062 27.1245 39.5688C27.1245 39.1314 27.4739 38.7781 27.9105 38.7781H27.919C28.3556 38.7781 28.7096 39.1314 28.7096 39.5688C28.7096 40.0062 28.3556 40.3594 27.919 40.3594Z" fill="#443B38"/>
<path d="M27.919 44.3125C27.482 44.3125 27.1245 43.9593 27.1245 43.5219C27.1245 43.0845 27.4739 42.7313 27.9105 42.7313H27.919C28.3556 42.7313 28.7096 43.0845 28.7096 43.5219C28.7096 43.9593 28.3556 44.3125 27.919 44.3125Z" fill="#443B38"/>
<path d="M30.2675 52.2188C28.5233 52.2188 27.105 50.8004 27.105 49.0562C27.105 48.6189 27.4582 48.2656 27.8956 48.2656C28.333 48.2656 28.6862 48.6189 28.6862 49.0562C28.6862 49.9283 29.3954 50.6375 30.2675 50.6375C30.7049 50.6375 31.0581 50.9907 31.0581 51.4281C31.0581 51.8655 30.7049 52.2188 30.2675 52.2188Z" fill="#443B38"/>
<path d="M48.4516 52.2188H30.2672C29.8298 52.2188 29.4766 51.8655 29.4766 51.4281C29.4766 50.9907 29.8298 50.6375 30.2672 50.6375H48.4516C48.889 50.6375 49.2422 50.9907 49.2422 51.4281C49.2422 51.8655 48.889 52.2188 48.4516 52.2188Z" fill="#443B38"/>
<path d="M46.8705 53.8C46.6682 53.8 46.4655 53.7224 46.3115 53.5684C46.0023 53.2591 46.0023 52.7596 46.3115 52.4504L47.8928 50.8691C48.202 50.5599 48.7015 50.5599 49.0108 50.8691C49.32 51.1783 49.32 51.6779 49.0108 51.9871L47.4295 53.5684C47.2755 53.7224 47.0728 53.8 46.8705 53.8Z" fill="#443B38"/>
<path d="M48.4518 52.2188C48.2495 52.2188 48.0468 52.1412 47.8928 51.9871L46.3115 50.4059C46.0023 50.0967 46.0023 49.5971 46.3115 49.2879C46.6207 48.9787 47.1203 48.9787 47.4295 49.2879L49.0108 50.8691C49.32 51.1784 49.32 51.6779 49.0108 51.9871C48.8567 52.1412 48.654 52.2188 48.4518 52.2188Z" fill="#443B38"/>
<path d="M27.8956 49.8469C27.4582 49.8469 27.105 49.4937 27.105 49.0563V47.475C27.105 47.0376 27.4582 46.6844 27.8956 46.6844C28.333 46.6844 28.6862 47.0376 28.6862 47.475V49.0563C28.6862 49.4937 28.333 49.8469 27.8956 49.8469Z" fill="#443B38"/>
<path d="M25.5235 52.2188C25.0861 52.2188 24.7329 51.8655 24.7329 51.4281C24.7329 50.9907 25.0861 50.6375 25.5235 50.6375C26.3956 50.6375 27.1048 49.9283 27.1048 49.0562C27.1048 48.6189 27.458 48.2656 27.8954 48.2656C28.3328 48.2656 28.686 48.6189 28.686 49.0562C28.686 50.8004 27.2677 52.2188 25.5235 52.2188Z" fill="#443B38"/>
<path d="M25.5238 52.2188H7.33945C6.90206 52.2188 6.54883 51.8655 6.54883 51.4281C6.54883 50.9907 6.90206 50.6375 7.33945 50.6375H25.5238C25.9612 50.6375 26.3145 50.9907 26.3145 51.4281C26.3145 51.8655 25.9612 52.2188 25.5238 52.2188Z" fill="#443B38"/>
<path d="M8.9205 53.8C8.71822 53.8 8.51554 53.7224 8.36151 53.5684L6.78026 51.9871C6.47103 51.6779 6.47103 51.1783 6.78026 50.8691C7.08948 50.5599 7.58903 50.5599 7.89825 50.8691L9.4795 52.4504C9.78873 52.7596 9.78873 53.2591 9.4795 53.5684C9.32547 53.7224 9.12279 53.8 8.9205 53.8Z" fill="#443B38"/>
<path d="M7.33925 52.2188C7.13697 52.2188 6.93429 52.1412 6.78026 51.9871C6.47103 51.6779 6.47103 51.1784 6.78026 50.8691L8.36151 49.2879C8.67073 48.9787 9.17028 48.9787 9.4795 49.2879C9.78873 49.5971 9.78873 50.0967 9.4795 50.4059L7.89825 51.9871C7.74422 52.1412 7.54154 52.2188 7.33925 52.2188Z" fill="#443B38"/>
</g>
<defs>
<filter id="filter0_d" x="0.200195" y="0.200012" width="54.6" height="54.6" filterUnits="userSpaceOnUse" color-interpolation-filters="sRGB">
<feFlood flood-opacity="0" result="BackgroundImageFix"/>
<feColorMatrix in="SourceAlpha" type="matrix" values="0 0 0 0 0 0 0 0 0 0 0 0 0 0 0 0 0 0 127 0"/>
<feOffset dy="-1"/>
<feGaussianBlur stdDeviation="1"/>
<feColorMatrix type="matrix" values="0 0 0 0 1 0 0 0 0 1 0 0 0 0 1 0 0 0 0.5 0"/>
<feBlend mode="normal" in2="BackgroundImageFix" result="effect1_dropShadow"/>
<feBlend mode="normal" in="SourceGraphic" in2="effect1_dropShadow" result="shape"/>
</filter>
<clipPath id="clip0">
<rect width="50.6" height="50.6" fill="white" transform="translate(2.2002 3.20001)"/>
</clipPath>
</defs>
</svg>
