<svg width="55" height="55" viewBox="0 0 55 55" fill="none" xmlns="http://www.w3.org/2000/svg">
<g opacity="0.8" clip-path="url(#clip0)" filter="url(#filter0_d)">
<path d="M52.6376 14.1728C52.5116 14.0155 52.3268 13.9162 52.1261 13.898L11.2031 10.1837C11.1801 9.62039 10.9567 9.06368 10.5276 8.63457L6.17033 4.27723C5.73113 3.83804 5.14706 3.59601 4.52582 3.59601C3.90459 3.59601 3.32061 3.83804 2.88142 4.27723C2.44213 4.71652 2.2002 5.3006 2.2002 5.92183C2.2002 6.54307 2.44213 7.12705 2.88142 7.56634L7.23866 11.9235C7.67785 12.3628 8.26193 12.6047 8.88316 12.6047C9.11689 12.6047 9.34538 12.5704 9.5629 12.5043L15.7582 33.0188C16.2627 34.6894 17.7735 35.7988 19.4929 35.7988C19.5901 35.7988 19.6883 35.7953 19.7867 35.788L47.8038 33.738C49.2729 33.6305 50.4774 32.4923 50.668 31.0316L52.794 14.7321C52.8202 14.5322 52.7636 14.3302 52.6376 14.1728ZM9.4793 10.8752C9.31998 11.0344 9.10829 11.1222 8.88307 11.1222C8.65784 11.1222 8.44615 11.0345 8.28683 10.8752L3.92959 6.51797C3.77028 6.35875 3.68262 6.14696 3.68262 5.92183C3.68262 5.6967 3.77028 5.48482 3.92959 5.3255C4.0889 5.16629 4.30059 5.07853 4.52582 5.07853C4.75105 5.07853 4.96274 5.16629 5.12205 5.3255L9.4793 9.68275C9.8081 10.0115 9.8081 10.5465 9.4793 10.8752ZM27.7251 13.1718L28.0593 18.5947L21.1304 18.3423L20.037 12.4741L27.7251 13.1718ZM10.8504 11.6401L18.5032 12.3348L19.6122 18.287L12.7825 18.0382L10.8504 11.6401ZM15.3557 26.5586L13.2356 19.5381L19.8905 19.7805L21.1294 26.4303L15.3557 26.5586ZM19.6784 34.3095C18.5359 34.3928 17.5082 33.686 17.1772 32.5902L15.8006 28.0315L21.4045 27.907L22.5581 34.0989L19.6784 34.3095ZM21.4087 19.8359L28.1509 20.0815L28.5321 26.2657L22.6311 26.3969L21.4087 19.8359ZM24.0457 33.99L22.9061 27.8736L28.6232 27.7465L28.9857 33.6285L24.0457 33.99ZM35.7069 33.1367L30.4644 33.5202L30.1065 27.7135L35.8547 27.5858L35.7069 33.1367ZM35.8942 26.1022L30.0153 26.2328L29.6396 20.1357L36.0468 20.3691L35.8942 26.1022ZM36.0863 18.887L29.5479 18.6488L29.2187 13.3074L36.2178 13.9426L36.0863 18.887ZM42.8378 32.6149L37.1928 33.028L37.3386 27.5529L43.2558 27.4213L42.8378 32.6149ZM43.3752 25.936L37.378 26.0692L37.5284 20.423L43.8005 20.6515L43.3752 25.936ZM43.9195 19.1724L37.5678 18.9411L37.6973 14.0769L44.2814 14.6746L43.9195 19.1724ZM49.198 30.8399C49.0982 31.606 48.4663 32.2031 47.6957 32.2595L44.3339 32.5055L44.7456 27.3882L49.6625 27.2789L49.198 30.8399ZM49.8565 25.7919L44.8652 25.9028L45.2834 20.7056L50.4952 20.8954L49.8565 25.7919ZM50.6877 19.4189L45.4023 19.2264L45.7578 14.8085L51.2244 15.3047L50.6877 19.4189Z" fill="#443B38"/>
<path d="M45.6702 47.2581V45.4819H47.3056C47.715 45.4819 48.0469 45.15 48.0469 44.7407C48.0469 44.3313 47.715 43.9995 47.3056 43.9995H16.4353C16.1469 43.9995 15.8902 43.8613 15.7314 43.6204C15.5726 43.3795 15.5466 43.0893 15.6602 42.8241L17.7539 37.9388C17.9152 37.5626 17.7409 37.1268 17.3646 36.9655C16.9884 36.8043 16.5526 36.9785 16.3914 37.3548L14.2977 42.24C13.9888 42.9608 14.0622 43.7818 14.4938 44.4365C14.9253 45.091 15.6511 45.4819 16.4353 45.4819H17.2523V47.2581C15.8899 47.5917 14.8757 48.8225 14.8757 50.2862C14.8757 52.0054 16.2743 53.4042 17.9936 53.4042C19.7128 53.4042 21.1114 52.0054 21.1114 50.2862C21.1114 48.8225 20.0972 47.5917 18.7348 47.2581V45.4819H44.1878V47.2581C42.8254 47.5917 41.8112 48.8225 41.8112 50.2862C41.8112 52.0054 43.2098 53.4042 44.929 53.4042C46.6482 53.4042 48.0469 52.0054 48.0469 50.2862C48.0469 48.8225 47.0327 47.5917 45.6702 47.2581ZM19.629 50.2861C19.629 51.1879 18.8954 51.9216 17.9936 51.9216C17.0918 51.9216 16.3582 51.1879 16.3582 50.2861C16.3582 49.3843 17.0918 48.6507 17.9936 48.6507C18.8954 48.6507 19.629 49.3844 19.629 50.2861ZM44.929 51.9216C44.0272 51.9216 43.2936 51.1879 43.2936 50.2861C43.2936 49.3843 44.0272 48.6507 44.929 48.6507C45.8308 48.6507 46.5644 49.3844 46.5644 50.2861C46.5644 51.1879 45.8308 51.9216 44.929 51.9216Z" fill="#443B38"/>
</g>
<defs>
<filter id="filter0_d" x="0.200195" y="0.200012" width="54.6" height="54.6" filterUnits="userSpaceOnUse" color-interpolation-filters="sRGB">
<feFlood flood-opacity="0" result="BackgroundImageFix"/>
<feColorMatrix in="SourceAlpha" type="matrix" values="0 0 0 0 0 0 0 0 0 0 0 0 0 0 0 0 0 0 127 0"/>
<feOffset dy="-1"/>
<feGaussianBlur stdDeviation="1"/>
<feColorMatrix type="matrix" values="0 0 0 0 1 0 0 0 0 1 0 0 0 0 1 0 0 0 0.5 0"/>
<feBlend mode="normal" in2="BackgroundImageFix" result="effect1_dropShadow"/>
<feBlend mode="normal" in="SourceGraphic" in2="effect1_dropShadow" result="shape"/>
</filter>
<clipPath id="clip0">
<rect width="50.6" height="50.6" fill="white" transform="translate(2.2002 3.20001)"/>
</clipPath>
</defs>
</svg>
