<svg width="51" height="51" viewBox="0 0 51 51" fill="none" xmlns="http://www.w3.org/2000/svg">
<path d="M42.8814 42.299L43.1905 39.8291L41.6219 39.6331L41.3128 42.103H38.9409V43.6842H41.3128C42.1089 43.6842 42.7834 43.0889 42.8814 42.299Z" fill="#443B38"/>
<path d="M48.4195 16.9461C48.4211 16.8979 48.4282 16.8504 48.4282 16.803C48.4282 14.8707 47.0343 13.2578 45.1993 12.9163C44.8578 11.0812 43.2449 9.68735 41.3126 9.68735C40.0175 9.68735 38.8403 10.3088 38.1058 11.3445C37.3658 11.1951 36.6202 11.271 35.9442 11.5303C35.2311 10.4013 33.9819 9.68735 32.6157 9.68735C31.025 9.68735 29.6026 10.6551 28.9875 12.075C28.5045 12.0292 28.0364 12.0822 27.5755 12.2181C26.6797 11.1184 25.3546 10.478 23.9188 10.478C22.7029 10.478 21.5968 10.9413 20.7563 11.6955V4.15298C20.7563 2.40886 19.338 0.990479 17.5938 0.990479C15.8497 0.990479 14.4313 2.40886 14.4313 4.15298V31.0342H12.8501C11.5424 31.0342 10.4782 32.0984 10.4782 33.4061V35.778H4.94385C2.76409 35.778 0.990723 37.5513 0.990723 39.7311V42.103H2.57197V50.0092H32.6157V46.8467H41.6834C43.6734 46.8467 45.3598 45.358 45.6088 43.3616L47.5649 23.128H47.6376C48.9453 23.128 50.0095 22.0638 50.0095 20.7561V19.1749C50.0095 18.1423 49.3422 17.271 48.4195 16.9461ZM23.9188 12.0592C25.0226 12.0592 26.0282 12.6308 26.6109 13.5883L26.9857 14.2034L27.6332 13.8879C28.1574 13.6334 28.6128 13.5456 29.307 13.744L30.1221 13.9757L30.2976 13.1471C30.5269 12.0584 31.5025 11.2686 32.6157 11.2686C33.6143 11.2686 34.5093 11.909 34.8429 12.8625L35.1821 13.8318L36.0328 13.2562C36.6495 12.8396 37.4156 12.7162 38.1944 13.0111L38.8711 13.2673L39.1858 12.6158C39.5867 11.7849 40.4026 11.2686 41.3126 11.2686C42.6203 11.2686 43.6845 12.3328 43.6845 13.6405V14.4311H44.4751C45.7828 14.4311 46.847 15.4953 46.847 16.803H21.547C21.2687 16.803 21.0046 16.8599 20.7563 16.9485V15.2217C20.7563 13.4776 22.1747 12.0592 23.9188 12.0592ZM21.6197 23.128L22.3842 31.039C22.3684 31.039 22.3534 31.0342 22.3376 31.0342H20.7563V22.9825C21.0046 23.071 21.2687 23.128 21.547 23.128H21.6197ZM16.0126 4.15298C16.0126 3.28092 16.7218 2.57173 17.5938 2.57173C18.4659 2.57173 19.1751 3.28092 19.1751 4.15298V19.1749V20.7561V31.0342H16.0126V4.15298ZM12.0595 33.4061C12.0595 32.9705 12.4145 32.6155 12.8501 32.6155H22.3376C22.7732 32.6155 23.1282 32.9705 23.1282 33.4061V35.778H12.0595V33.4061ZM2.57197 39.7311C2.57197 38.4234 3.63615 37.3592 4.94385 37.3592H30.2438C31.5515 37.3592 32.6157 38.4234 32.6157 39.7311V40.5217H2.57197V39.7311ZM21.547 43.6842V48.428H19.9657V42.103H24.7095V48.428H23.1282V43.6842H21.547ZM15.222 43.6842V48.428H13.6407V42.103H18.3845V48.428H16.8032V43.6842H15.222ZM8.89697 43.6842V48.428H7.31572V42.103H12.0595V48.428H10.4782V43.6842H8.89697ZM4.15322 42.103H5.73447V48.428H4.15322V42.103ZM29.4532 48.428V43.6842H27.872V48.428H26.2907V42.103H31.0345V48.428H29.4532ZM44.0371 43.1877C43.8892 44.3721 42.8772 45.2655 41.6834 45.2655H32.6157V42.103H34.197V39.7311C34.197 37.5513 32.4236 35.778 30.2438 35.778H24.7095V33.4061C24.7095 32.7689 24.4541 32.1925 24.0438 31.7656L23.2081 23.128H45.9765L44.0371 43.1877ZM48.4282 20.7561C48.4282 21.1917 48.0732 21.5467 47.6376 21.5467H21.547C21.1113 21.5467 20.7563 21.1917 20.7563 20.7561V19.1749C20.7563 18.7392 21.1113 18.3842 21.547 18.3842H47.6376C48.0732 18.3842 48.4282 18.7392 48.4282 19.1749V20.7561Z" fill="#443B38"/>
<path d="M47.638 9.68754C48.9457 9.68754 50.0099 8.62336 50.0099 7.31566C50.0099 6.00797 48.9457 4.94379 47.638 4.94379C46.3303 4.94379 45.2661 6.00797 45.2661 7.31566C45.2661 8.62336 46.3303 9.68754 47.638 9.68754ZM47.638 6.52504C48.0736 6.52504 48.4286 6.88003 48.4286 7.31566C48.4286 7.7513 48.0736 8.10629 47.638 8.10629C47.2024 8.10629 46.8474 7.7513 46.8474 7.31566C46.8474 6.88003 47.2024 6.52504 47.638 6.52504Z" fill="#443B38"/>
<path d="M30.2435 8.10611C31.5512 8.10611 32.6153 7.04193 32.6153 5.73424C32.6153 4.42655 31.5512 3.36237 30.2435 3.36237C28.9358 3.36237 27.8716 4.42655 27.8716 5.73424C27.8716 7.04193 28.9358 8.10611 30.2435 8.10611ZM30.2435 4.94362C30.6791 4.94362 31.0341 5.29861 31.0341 5.73424C31.0341 6.16987 30.6791 6.52486 30.2435 6.52486C29.8078 6.52486 29.4528 6.16987 29.4528 5.73424C29.4528 5.29861 29.8078 4.94362 30.2435 4.94362Z" fill="#443B38"/>
<path d="M41.3129 7.31548C43.057 7.31548 44.4754 5.8971 44.4754 4.15298C44.4754 2.40886 43.057 0.990479 41.3129 0.990479C39.5688 0.990479 38.1504 2.40886 38.1504 4.15298C38.1504 5.8971 39.5688 7.31548 41.3129 7.31548ZM41.3129 2.57173C42.185 2.57173 42.8941 3.28092 42.8941 4.15298C42.8941 5.02504 42.185 5.73423 41.3129 5.73423C40.4408 5.73423 39.7316 5.02504 39.7316 4.15298C39.7316 3.28092 40.4408 2.57173 41.3129 2.57173Z" fill="#443B38"/>
<path d="M35.7783 42.1028H37.3596V43.684H35.7783V42.1028Z" fill="#443B38"/>
<path d="M27.8716 24.7092H29.4528V26.2905H27.8716V24.7092Z" fill="#443B38"/>
<path d="M24.7095 24.7092H26.2907V26.2905H24.7095V24.7092Z" fill="#443B38"/>
<path d="M31.0347 24.7092H32.6159V26.2905H31.0347V24.7092Z" fill="#443B38"/>
<path d="M4.94414 28.6625C6.25183 28.6625 7.31602 27.5983 7.31602 26.2906C7.31602 24.9829 6.25183 23.9188 4.94414 23.9188C3.63645 23.9188 2.57227 24.9829 2.57227 26.2906C2.57227 27.5983 3.63645 28.6625 4.94414 28.6625ZM4.94414 25.5C5.37977 25.5 5.73477 25.855 5.73477 26.2906C5.73477 26.7263 5.37977 27.0813 4.94414 27.0813C4.50851 27.0813 4.15352 26.7263 4.15352 26.2906C4.15352 25.855 4.50851 25.5 4.94414 25.5Z" fill="#443B38"/>
<path d="M9.6874 19.1749C11.4315 19.1749 12.8499 17.7565 12.8499 16.0124C12.8499 14.2682 11.4315 12.8499 9.6874 12.8499C7.94328 12.8499 6.5249 14.2682 6.5249 16.0124C6.5249 17.7565 7.94328 19.1749 9.6874 19.1749ZM9.6874 14.4311C10.5595 14.4311 11.2687 15.1403 11.2687 16.0124C11.2687 16.8844 10.5595 17.5936 9.6874 17.5936C8.81534 17.5936 8.10615 16.8844 8.10615 16.0124C8.10615 15.1403 8.81534 14.4311 9.6874 14.4311Z" fill="#443B38"/>
<path d="M4.94414 10.478C6.25183 10.478 7.31602 9.41382 7.31602 8.10613C7.31602 6.79843 6.25183 5.73425 4.94414 5.73425C3.63645 5.73425 2.57227 6.79843 2.57227 8.10613C2.57227 9.41382 3.63645 10.478 4.94414 10.478ZM4.94414 7.3155C5.37977 7.3155 5.73477 7.67049 5.73477 8.10613C5.73477 8.54176 5.37977 8.89675 4.94414 8.89675C4.50851 8.89675 4.15352 8.54176 4.15352 8.10613C4.15352 7.67049 4.50851 7.3155 4.94414 7.3155Z" fill="#443B38"/>
</svg>
