<svg xmlns="http://www.w3.org/2000/svg" xmlns:xlink="http://www.w3.org/1999/xlink" width="286.89" height="105.219" viewBox="0 0 286.89 105.219">
  <defs>
    <clipPath id="clip-path">
      <rect id="Прямоугольник_454" data-name="Прямоугольник 454" width="286.89" height="105.219" fill="#173c8f"/>
    </clipPath>
  </defs>
  <g id="Сгруппировать_599" data-name="Сгруппировать 599" transform="translate(0 0)">
    <g id="Сгруппировать_598" data-name="Сгруппировать 598" transform="translate(0 0)" clip-path="url(#clip-path)">
      <path id="Контур_321" data-name="Контур 321" d="M83.246,31.145,61.111,18.572l-9.688,4.585V14.149L26.935,0,0,12.621.035,61.4l8.61,2.764L.1,67.593C.955,79.936,6.317,90.537,15.2,97.443a36.663,36.663,0,0,0,22.223,7.776,31.36,31.36,0,0,0,5.636-.509c.944-.165,1.9-.315,2.847-.505,6.951-1.4,10.566-2.218,16.183-3.587,9.987-1.986,17.648-9.992,19.819-21.269.014-.074.053-.482.068-.55l-6.457-2.667,7.587-2.36ZM51.423,25.96,52.2,25.6V42.975h1.568v-18.1l1.2-.56V45.093h1.568v-21.5l1.2-.554V47.391H59.3V22.307l.7-.326V62.846l-9.9,3.82-6.138-2.745,7.486-2.351ZM28.324,4.015,48.888,15.6l.034,42.67-20.6-8.561Zm-25.8,10.24.745-.341v1.328H4.849V13.2l1.2-.545v4.2H7.618V12.008H7.5l1.325-.6v7.552h1.563V10.683l1.2-.551V21.263h1.568V9.428l1.2-.545V23.509h1.566V8.171l1.2-.54V25.436H18.7V6.911l1.2-.545V27.548h1.568V5.657l1.2-.551V29.852h1.559V4.395l1.188-.543V49.663L2.557,58.078ZM4.294,60.115l22.544-8.288L47.275,60.26l-6.945,2.161L26.878,56.858,12.321,62.694Zm38.311,42.118a33.26,33.26,0,0,1-25.854-6.778C8.844,89.3,3.914,79.982,2.766,69.073l22.8-8.8c.35,10.577,3.5,20.461,8.969,28.015,4.662,6.447,10.586,10.639,17.049,12.162-4.6.934-8.521,1.7-8.969,1.778ZM79.076,80.39C76.355,91.38,67.753,98.574,57.159,98.574h-.4c-7.607-.131-14.767-4.307-20.155-11.759-5.241-7.237-8.235-16.787-8.507-27.007L48.451,68.5c.166,6.3,1.119,14.445,6.921,14.582h.1c3.152,0,5.471-3.4,6.629-9.631ZM51.9,76.292l.117.3L59.485,73.6c-.891,4.264-2.424,6.959-4.055,6.945q-2.406-.06-3.532-4.255m19.974-1.66L61.116,70.2l-9.68,3.831A49.679,49.679,0,0,1,51,69.068c0-.034,10.09-3.917,10.09-3.917l17.8,7.315Zm8.707-4.21L62.533,63.014V22.276L80.716,32.594Z" transform="translate(0 0)" fill="#173c8f"/>
      <path id="Контур_322" data-name="Контур 322" d="M250.088,40.9V71.945h-9.3V60.015H229.311v11.93h-9.3V40.9h9.3V52.4h11.474V40.9Z" transform="translate(36.801 6.841)" fill="#173c8f"/>
      <path id="Контур_323" data-name="Контур 323" d="M209.643,40.729H189.4V48.58h19.216v3.852H194.9a6.9,6.9,0,0,0-6.9,6.894h0v5.8a6.9,6.9,0,0,0,6.9,6.9h23.02V49.007a8.276,8.276,0,0,0-8.272-8.278Zm-1.066,23.882H197.266v-5.3h11.316Z" transform="translate(31.447 6.813)" fill="#173c8f"/>
      <path id="Контур_324" data-name="Контур 324" d="M147.085,40.947H124.323V81.353h9.31v-9.37h13.452a6.888,6.888,0,0,0,6.9-6.876V47.853a6.9,6.9,0,0,0-6.888-6.906ZM144.729,64.1H133.671V48.83h11.063Z" transform="translate(20.796 6.849)" fill="#173c8f"/>
      <path id="Контур_325" data-name="Контур 325" d="M132.234,31.221,114.181,69.815a6.9,6.9,0,0,1-6.248,3.977H95.926V65.772h8.4l1.69-3.607L90.385,31.221h11.75l9.477,18.987.438-.934,8.443-18.053Z" transform="translate(15.119 5.222)" fill="#173c8f"/>
      <path id="Контур_326" data-name="Контур 326" d="M178.593,42.633h-13.45V38.856h19.7v-7.85H162.73a6.9,6.9,0,0,0-6.9,6.9V73.674h22.762a6.9,6.9,0,0,0,6.9-6.9V49.529a6.9,6.9,0,0,0-6.9-6.9M176.23,65.791H165.169V50.509h11.063Z" transform="translate(26.066 5.186)" fill="#173c8f"/>
      <path id="Контур_327" data-name="Контур 327" d="M180.65,92.077h-3.728V80.923l-2.7,11.153H170.3l-2.7-11.118V92.077h-3.729V77.964h6.163l2.312,9.577,2.117-9.577h6.181Z" transform="translate(27.412 13.041)" fill="#173c8f"/>
      <path id="Контур_328" data-name="Контур 328" d="M192.224,92.076l-.962-2.714h-6.094l-.981,2.714h-3.676l5.041-14.112H191l5.044,14.112ZM188.2,80.836l-1.926,5.41h3.869Z" transform="translate(30.195 13.041)" fill="#173c8f"/>
      <path id="Контур_329" data-name="Контур 329" d="M207.318,81.241h-7.424v7.581h7.424v3.257h-5.569a13.286,13.286,0,0,1-2.783-.245,3.73,3.73,0,0,1-1.8-.886,3.538,3.538,0,0,1-.972-1.726,11.03,11.03,0,0,1-.288-2.77V83.576a12.506,12.506,0,0,1,.253-2.77,3.425,3.425,0,0,1,.9-1.718,3.6,3.6,0,0,1,1.725-.886,12.3,12.3,0,0,1,2.738-.253h5.8Z" transform="translate(32.769 13.039)" fill="#173c8f"/>
      <path id="Контур_330" data-name="Контур 330" d="M220.958,77.964v3.274H216.44V92.077h-3.992V81.239h-4.517V77.964Z" transform="translate(34.781 13.041)" fill="#173c8f"/>
      <path id="Контур_331" data-name="Контур 331" d="M221.416,92.077V77.964H232.64v3.274h-7.231v2.189h6.969v3.187h-6.969V88.8h7.231v3.274Z" transform="translate(37.037 13.041)" fill="#173c8f"/>
      <path id="Контур_332" data-name="Контур 332" d="M238.644,87.857v4.22h-3.991V77.964h8.264a6.955,6.955,0,0,1,2,.263,3.318,3.318,0,0,1,1.446.858,3.833,3.833,0,0,1,.875,1.533,9.054,9.054,0,0,1,0,4.6,3.763,3.763,0,0,1-.875,1.523,3.348,3.348,0,0,1-1.446.849,6.915,6.915,0,0,1-2,.263Zm4.938-6.618h-4.936v3.344h4.936Z" transform="translate(39.251 13.041)" fill="#173c8f"/>
    </g>
  </g>
</svg>
