<svg xmlns="http://www.w3.org/2000/svg" width="74.362" height="74.362" viewBox="0 0 74.362 74.362">
  <g id="Сгруппировать_231" data-name="Сгруппировать 231" transform="translate(-803.702 -485.121)">
    <g id="Сгруппировать_226" data-name="Сгруппировать 226">
      <path id="Контур_162" data-name="Контур 162" d="M812.526,496.34l.268.179a5.757,5.757,0,0,1,2.258,2.956.969.969,0,0,0,1.839,0,5.757,5.757,0,0,1,2.258-2.956l.268-.179a.969.969,0,0,0,0-1.613l-.268-.179a5.761,5.761,0,0,1-2.258-2.956.969.969,0,0,0-1.839,0,5.761,5.761,0,0,1-2.258,2.956l-.268.179a.969.969,0,0,0,0,1.613Zm3.446-2.273a7.707,7.707,0,0,0,1.286,1.466A7.771,7.771,0,0,0,815.972,497a7.811,7.811,0,0,0-1.287-1.466,7.746,7.746,0,0,0,1.287-1.466Zm0,0" fill="#006ca7"/>
    </g>
    <g id="Сгруппировать_230" data-name="Сгруппировать 230">
      <rect id="Прямоугольник_226" data-name="Прямоугольник 226" width="74.362" height="74.362" transform="translate(803.702 485.121)" fill="none"/>
      <g id="Сгруппировать_227" data-name="Сгруппировать 227">
        <path id="Контур_163" data-name="Контур 163" d="M865.332,535.06l.268.178a5.763,5.763,0,0,1,2.258,2.957.969.969,0,0,0,1.839,0,5.763,5.763,0,0,1,2.258-2.957l.268-.178a.969.969,0,0,0,0-1.613l-.268-.179a5.763,5.763,0,0,1-2.258-2.957.97.97,0,0,0-1.839,0,5.763,5.763,0,0,1-2.258,2.957l-.268.179a.969.969,0,0,0,0,1.613Zm3.445-2.273a7.75,7.75,0,0,0,1.287,1.466,7.78,7.78,0,0,0-1.287,1.466,7.74,7.74,0,0,0-1.286-1.466,7.71,7.71,0,0,0,1.286-1.466Zm0,0" fill="#006ca7"/>
      </g>
      <g id="Сгруппировать_229" data-name="Сгруппировать 229">
        <g id="Сгруппировать_228" data-name="Сгруппировать 228">
          <path id="Контур_164" data-name="Контур 164" d="M849.316,530a2.59,2.59,0,0,0,2.434,1.729H860.4a2.6,2.6,0,0,0,2.594-2.593V516.165a1.731,1.731,0,0,0,1.729-1.729v-1.729a1.731,1.731,0,0,0-1.729-1.729h-.06a6.41,6.41,0,0,0-3.4-4.847v-2.069a1.731,1.731,0,0,0,1.729-1.73V500.6a1.731,1.731,0,0,0-1.729-1.729h-5.187a1.731,1.731,0,0,0-1.729,1.729v1.729a1.732,1.732,0,0,0,1.729,1.73v2.069a6.43,6.43,0,0,0-2.594,2.492,6.421,6.421,0,0,0-2.593-2.492v-2.069a1.732,1.732,0,0,0,1.729-1.73V500.6a1.731,1.731,0,0,0-1.729-1.729h-5.188a1.731,1.731,0,0,0-1.729,1.729v1.729a1.732,1.732,0,0,0,1.729,1.73v2.069a6.408,6.408,0,0,0-3.4,4.847h-1.789a1.731,1.731,0,0,0-1.729,1.729v1.729a1.731,1.731,0,0,0,1.729,1.729v20.75h-3.617a2.591,2.591,0,0,0,.159-.865v-7.781a1.731,1.731,0,0,0,1.729-1.729v-1.729a1.731,1.731,0,0,0-1.729-1.729h-1.729V512.13l1.383-1.844a19.13,19.13,0,0,0,3.8-11.412,1.731,1.731,0,0,0-1.729-1.729h-12.1a1.731,1.731,0,0,0-1.729,1.729,19.143,19.143,0,0,0,3.8,11.412l1.383,1.844v10.952h-3.295l-7.366-16.942a3.456,3.456,0,0,0-3.171-2.08,3.394,3.394,0,0,0-1.379.289,3.46,3.46,0,0,0-1.793,4.55l6.167,14.183H816.3a1.73,1.73,0,0,0-1.729,1.729v1.729a1.731,1.731,0,0,0,1.729,1.729v7.781a2.567,2.567,0,0,0,.159.865h-3.618a1.731,1.731,0,0,0-1.729,1.729V542.1a1.731,1.731,0,0,0,1.729,1.729h.87a4.323,4.323,0,1,0,6.906,0h26.858a7.777,7.777,0,0,0,15.459,0h1.781v-.865a9.506,9.506,0,0,0-16.841-6.051h-3.909V530Zm6.514-13.833L854.7,520.7a.863.863,0,0,1-.839.656h-9.889v-5.188Zm-11.861,6.917h5.188v1.729h-5.188Zm0,3.458h5.188v1.729h-5.188Zm17.291,2.594a.866.866,0,0,1-.864.864H851.75a.866.866,0,0,1-.864-.864v-6.052h2.972a2.592,2.592,0,0,0,2.517-1.965l1.238-4.952h3.647ZM854.344,500.6h5.187v1.729h-5.188Zm3.458,3.459v1.729h-1.729v-1.729Zm-2.573,3.548.183-.09h3.051l.182.09a4.7,4.7,0,0,1,2.527,3.368H852.7a4.7,4.7,0,0,1,2.526-3.368Zm-11.26-7.007h5.188v1.729h-5.189Zm3.459,3.459v1.729H845.7v-1.729Zm-2.573,3.548.183-.09h3.05l.183.09a4.7,4.7,0,0,1,2.526,3.368h-8.468a4.7,4.7,0,0,1,2.526-3.368Zm-6.073,5.1H862.99v1.729H838.782Zm-6.484-1.729H829.7l-1.3-1.729h5.188Zm-.432-3.458v-8.646h1.711a31,31,0,0,1-1.477,8.646Zm-1.729,0H829.9a31,31,0,0,1-1.477-8.646h1.712Zm4.581,0h-.808a32.711,32.711,0,0,0,1.4-8.646h1.747a17.4,17.4,0,0,1-2.335,8.646Zm-8.022-8.646a32.669,32.669,0,0,0,1.4,8.646h-.807a17.4,17.4,0,0,1-2.336-8.646Zm3.441,13.833h1.729v10.375h-1.729Zm-17.169-5.821a1.722,1.722,0,0,1,.918-.954,1.768,1.768,0,0,1,2.274.9l1.149,2.642-3.212,1.285-1.107-2.548a1.708,1.708,0,0,1-.022-1.322Zm1.818,5.457L818,511.058l5.227,12.024h-3.77Zm1.518,12.468h19.02v1.729H816.3Zm1.729,11.239v-7.781h15.562v7.781a.867.867,0,0,1-.865.865h-.864V530h-1.729v6.917h-3.459V530h-1.729v6.917h-3.458V530h-1.729v6.917H818.9a.866.866,0,0,1-.864-.865Zm-1.729,7.781h1.729v.864a.865.865,0,1,1-1.729,0Zm.864,5.187a2.6,2.6,0,0,1-2.593-2.593,2.553,2.553,0,0,1,.163-.852,2.579,2.579,0,0,0,4.861,0,2.548,2.548,0,0,1-2.431,3.445Zm38.041,0a6.055,6.055,0,0,1-5.983-5.187h1.747a4.323,4.323,0,0,0,8.471,0h1.747a6.055,6.055,0,0,1-5.982,5.187Zm-2.435-5.187h4.868a2.578,2.578,0,0,1-4.868,0Zm2.435-8.646a7.792,7.792,0,0,1,7.733,6.917H847.475a7.793,7.793,0,0,1,7.734-6.917Zm-9.472,6.917H812.845v-3.458h33.894a9.423,9.423,0,0,0-1,3.458Zm-5.226-5.187v-20.75h1.729v20.75Zm0,0" fill="#006ca7"/>
        </g>
      </g>
    </g>
  </g>
</svg>
