<svg xmlns="http://www.w3.org/2000/svg" width="74.362" height="74.362" viewBox="0 0 74.362 74.362">
  <g id="Сгруппировать_254" data-name="Сгруппировать 254" transform="translate(-209.222 -188.875)">
    <rect id="Прямоугольник_227" data-name="Прямоугольник 227" width="74.362" height="74.362" transform="translate(209.222 188.875)" fill="none"/>
    <g id="Сгруппировать_253" data-name="Сгруппировать 253">
      <g id="Сгруппировать_232" data-name="Сгруппировать 232">
        <path id="Контур_165" data-name="Контур 165" d="M248.7,245.017H225.7a3.4,3.4,0,0,1-3.4-3.4v-9.437a3.4,3.4,0,0,1,3.4-3.4h30.128V230.7H225.7a1.482,1.482,0,0,0-1.48,1.48v9.437a1.482,1.482,0,0,0,1.48,1.48H248.7Z" fill="#006ca7"/>
      </g>
      <g id="Сгруппировать_233" data-name="Сгруппировать 233">
        <path id="Контур_166" data-name="Контур 166" d="M262.582,245.017h-10.7V243.1h10.7a1.481,1.481,0,0,0,1.479-1.48v-9.437a1.481,1.481,0,0,0-1.479-1.48h-3.647v-1.916h3.647a3.4,3.4,0,0,1,3.395,3.4v9.437A3.4,3.4,0,0,1,262.582,245.017Z" fill="#006ca7"/>
      </g>
      <g id="Сгруппировать_234" data-name="Сгруппировать 234">
        <path id="Контур_167" data-name="Контур 167" d="M262.88,253.521h-14.8V251.6h14.8a1.183,1.183,0,0,0,1.181-1.181v-4.157a1.182,1.182,0,0,0-1.181-1.181h-11V243.17h11a3.1,3.1,0,0,1,3.1,3.1v4.157A3.1,3.1,0,0,1,262.88,253.521Z" fill="#006ca7"/>
      </g>
      <g id="Сгруппировать_235" data-name="Сгруппировать 235">
        <path id="Контур_168" data-name="Контур 168" d="M244.968,253.521H225.4a3.1,3.1,0,0,1-3.1-3.1v-4.157a3.1,3.1,0,0,1,3.1-3.1h23.3v1.916H225.4a1.182,1.182,0,0,0-1.182,1.181v4.157A1.183,1.183,0,0,0,225.4,251.6h19.571Z" fill="#006ca7"/>
      </g>
      <g id="Сгруппировать_236" data-name="Сгруппировать 236">
        <path id="Контур_169" data-name="Контур 169" d="M272.365,256.148h-5.7a2.465,2.465,0,0,1-2.462-2.461V236.22a2.465,2.465,0,0,1,2.462-2.462h5.7a2.464,2.464,0,0,1,2.462,2.462v17.467A2.464,2.464,0,0,1,272.365,256.148Zm-5.7-20.474a.547.547,0,0,0-.546.546v17.467a.546.546,0,0,0,.546.545h5.7a.547.547,0,0,0,.546-.545V236.22a.547.547,0,0,0-.546-.546Z" fill="#006ca7"/>
      </g>
      <g id="Сгруппировать_237" data-name="Сгруппировать 237">
        <path id="Контур_170" data-name="Контур 170" d="M221.509,256.148h-5.7a2.464,2.464,0,0,1-2.462-2.461V236.22a2.464,2.464,0,0,1,2.462-2.462h5.7a2.465,2.465,0,0,1,2.462,2.462v17.467A2.465,2.465,0,0,1,221.509,256.148Zm-5.7-20.474a.547.547,0,0,0-.546.546v17.467a.546.546,0,0,0,.546.545h5.7a.546.546,0,0,0,.546-.545V236.22a.547.547,0,0,0-.546-.546Z" fill="#006ca7"/>
      </g>
      <g id="Сгруппировать_238" data-name="Сгруппировать 238">
        <rect id="Прямоугольник_228" data-name="Прямоугольник 228" width="25.133" height="1.916" transform="translate(232.937 224.217)" fill="#006ca7"/>
      </g>
      <g id="Сгруппировать_239" data-name="Сгруппировать 239">
        <path id="Контур_171" data-name="Контур 171" d="M273.178,226.132h-12v-1.916h12a.148.148,0,0,0,.148-.148V195.444a.149.149,0,0,0-.148-.149h-31.39v-1.916h31.39a2.067,2.067,0,0,1,2.064,2.065v28.624A2.066,2.066,0,0,1,273.178,226.132Z" fill="#006ca7"/>
      </g>
      <g id="Сгруппировать_240" data-name="Сгруппировать 240">
        <path id="Контур_172" data-name="Контур 172" d="M217.876,231.387H213.9V193.379h29.609v12.375A25.662,25.662,0,0,1,217.876,231.387Zm-2.061-1.916h2.061a23.743,23.743,0,0,0,23.717-23.717V195.295H215.815Z" fill="#006ca7"/>
      </g>
      <g id="Сгруппировать_241" data-name="Сгруппировать 241">
        <path id="Контур_173" data-name="Контур 173" d="M214.615,231.387h-.958V193.379h21.029v9.116c0,8.927-1.29,15.543-3.946,20.225C227.479,228.471,222.054,231.387,214.615,231.387Zm.958-36.092v34.159c6.282-.229,10.7-2.747,13.5-7.679,2.487-4.386,3.7-10.693,3.7-19.28v-7.2Z" fill="#006ca7"/>
      </g>
      <g id="Сгруппировать_242" data-name="Сгруппировать 242">
        <path id="Контур_174" data-name="Контур 174" d="M213.657,231.448V193.379h10.368v9.116q0,1.28,0,2.526c.029,14.4.051,25.783-9.355,26.364Zm1.916-36.153v34.053c6.267-1.19,6.569-9.76,6.54-24.323q0-1.248,0-2.53v-7.2Z" fill="#006ca7"/>
      </g>
      <g id="Сгруппировать_243" data-name="Сгруппировать 243">
        <path id="Контур_175" data-name="Контур 175" d="M263.377,217.393a2.334,2.334,0,0,0-3.11,1.113l-17.68,37.37c.782.017,1.561.071,2.34.143l-.235-.111L262,219.325a.42.42,0,1,1,.759.359l-17.208,36.375q1.026.06,2.051.144l16.889-35.7A2.338,2.338,0,0,0,263.377,217.393Z" fill="#006ca7"/>
      </g>
      <g id="Сгруппировать_244" data-name="Сгруппировать 244">
        <rect id="Прямоугольник_229" data-name="Прямоугольник 229" width="32.669" height="1.916" transform="translate(242.513 201.4)" fill="#006ca7"/>
      </g>
      <g id="Сгруппировать_245" data-name="Сгруппировать 245">
        <rect id="Прямоугольник_230" data-name="Прямоугольник 230" width="1.916" height="21.918" transform="translate(252.653 202.634)" fill="#006ca7"/>
      </g>
      <g id="Сгруппировать_246" data-name="Сгруппировать 246">
        <path id="Контур_176" data-name="Контур 176" d="M269.1,215.417V195.029h1.916v17.113l2.346-1.318.939,1.67Z" fill="#006ca7"/>
      </g>
      <g id="Сгруппировать_247" data-name="Сгруппировать 247">
        <path id="Контур_177" data-name="Контур 177" d="M265.374,215.417V195.029h1.916v17.113l2.346-1.318.939,1.67Z" fill="#006ca7"/>
      </g>
      <g id="Сгруппировать_248" data-name="Сгруппировать 248">
        <path id="Контур_178" data-name="Контур 178" d="M261.72,215.417V195.029h1.916v17.113l2.346-1.318.939,1.67Z" fill="#006ca7"/>
      </g>
      <g id="Сгруппировать_249" data-name="Сгруппировать 249">
        <path id="Контур_179" data-name="Контур 179" d="M257.838,215.417V195.029h1.916v17.113l2.346-1.318.939,1.67Z" fill="#006ca7"/>
      </g>
      <path id="Контур_180" data-name="Контур 180" d="M256.228,260.187H229.94v-4.612h26.288Zm-24.372-1.915h22.456v-.781H231.856Z" fill="#006ca7"/>
      <g id="Сгруппировать_250" data-name="Сгруппировать 250">
        <path id="Контур_181" data-name="Контур 181" d="M224.793,202.8l.268.179a5.761,5.761,0,0,1,2.258,2.956.969.969,0,0,0,1.839,0,5.761,5.761,0,0,1,2.258-2.956l.268-.179a.969.969,0,0,0,0-1.613l-.268-.179a5.757,5.757,0,0,1-2.258-2.956.969.969,0,0,0-1.839,0,5.757,5.757,0,0,1-2.258,2.956l-.268.179a.969.969,0,0,0,0,1.613Zm3.446-2.272a7.741,7.741,0,0,0,1.287,1.466,7.68,7.68,0,0,0-1.287,1.466,7.75,7.75,0,0,0-1.287-1.466,7.812,7.812,0,0,0,1.287-1.466Zm0,0" fill="#006ca7"/>
      </g>
      <g id="Сгруппировать_251" data-name="Сгруппировать 251">
        <path id="Контур_182" data-name="Контур 182" d="M273.293,231.567l.268.179a5.763,5.763,0,0,1,2.258,2.957.97.97,0,0,0,1.839,0,5.763,5.763,0,0,1,2.258-2.957l.268-.179a.969.969,0,0,0,0-1.613l-.268-.178a5.763,5.763,0,0,1-2.258-2.957.969.969,0,0,0-1.839,0,5.763,5.763,0,0,1-2.258,2.957l-.268.178a.969.969,0,0,0,0,1.613Zm3.445-2.272a7.75,7.75,0,0,0,1.287,1.466,7.75,7.75,0,0,0-1.287,1.466,7.709,7.709,0,0,0-1.286-1.466,7.71,7.71,0,0,0,1.286-1.466Zm0,0" fill="#006ca7"/>
      </g>
      <g id="Сгруппировать_252" data-name="Сгруппировать 252">
        <path id="Контур_183" data-name="Контур 183" d="M233.09,237.545l.268.179a5.757,5.757,0,0,1,2.258,2.956.969.969,0,0,0,1.839,0,5.757,5.757,0,0,1,2.258-2.956l.268-.179a.969.969,0,0,0,0-1.613l-.268-.179a5.761,5.761,0,0,1-2.258-2.956.969.969,0,0,0-1.839,0,5.761,5.761,0,0,1-2.258,2.956l-.268.179a.969.969,0,0,0,0,1.613Zm3.446-2.273a7.68,7.68,0,0,0,1.287,1.466,7.741,7.741,0,0,0-1.287,1.466,7.811,7.811,0,0,0-1.287-1.466,7.749,7.749,0,0,0,1.287-1.466Zm0,0" fill="#006ca7"/>
      </g>
    </g>
  </g>
</svg>
