<svg xmlns="http://www.w3.org/2000/svg" width="74.362" height="74.362" viewBox="0 0 74.362 74.362">
  <g id="Сгруппировать_270" data-name="Сгруппировать 270" transform="translate(-506.462 -188.875)">
    <rect id="Прямоугольник_231" data-name="Прямоугольник 231" width="74.362" height="74.362" transform="translate(506.462 188.875)" fill="none"/>
    <g id="Сгруппировать_269" data-name="Сгруппировать 269">
      <g id="Сгруппировать_255" data-name="Сгруппировать 255">
        <path id="Контур_184" data-name="Контур 184" d="M569.311,206.617a2.453,2.453,0,0,1-2.429-2.47c0-1.135,1.246-2.4,1.781-2.892l.648-.6.648.6c.536.491,1.782,1.757,1.782,2.892A2.453,2.453,0,0,1,569.311,206.617Zm0-3.263a2.506,2.506,0,0,0-.514.813.514.514,0,1,0,1.027-.007A2.571,2.571,0,0,0,569.311,203.354Z" fill="#006ca7"/>
      </g>
      <g id="Сгруппировать_256" data-name="Сгруппировать 256">
        <path id="Контур_185" data-name="Контур 185" d="M543.421,227.951l.269.179a5.763,5.763,0,0,1,2.258,2.957.97.97,0,0,0,1.839,0,5.764,5.764,0,0,1,2.258-2.957l.268-.179a.969.969,0,0,0,0-1.613l-.268-.178a5.764,5.764,0,0,1-2.258-2.957.969.969,0,0,0-1.839,0,5.763,5.763,0,0,1-2.258,2.957l-.269.178a.97.97,0,0,0,0,1.613Zm3.446-2.272a7.748,7.748,0,0,0,1.287,1.466,7.748,7.748,0,0,0-1.287,1.466,7.716,7.716,0,0,0-1.287-1.466,7.716,7.716,0,0,0,1.287-1.466Zm0,0" fill="#006ca7"/>
      </g>
      <g id="Сгруппировать_257" data-name="Сгруппировать 257">
        <path id="Контур_186" data-name="Контур 186" d="M521.373,205.017l.268.179a5.757,5.757,0,0,1,2.258,2.956.969.969,0,0,0,1.839,0A5.757,5.757,0,0,1,528,205.2l.269-.179a.97.97,0,0,0,0-1.613l-.269-.179a5.757,5.757,0,0,1-2.258-2.956.969.969,0,0,0-1.839,0,5.757,5.757,0,0,1-2.258,2.956l-.268.179a.969.969,0,0,0,0,1.613Zm3.446-2.272a7.777,7.777,0,0,0,1.287,1.466,7.716,7.716,0,0,0-1.287,1.466,7.748,7.748,0,0,0-1.287-1.466,7.81,7.81,0,0,0,1.287-1.466Zm0,0" fill="#006ca7"/>
      </g>
      <g id="Сгруппировать_260" data-name="Сгруппировать 260">
        <g id="Сгруппировать_258" data-name="Сгруппировать 258">
          <path id="Контур_187" data-name="Контур 187" d="M535.893,242.822a5.314,5.314,0,0,0-3.78-3.713V233.24a9.1,9.1,0,1,0-18.19,0v11.369a.569.569,0,0,0-.569.569v2.842a.569.569,0,0,0,.569.569V252h-1.706a.568.568,0,0,0-.568.569v1.705h-2.842a.569.569,0,0,0-.569.569v2.842a.568.568,0,0,0,.569.568h13.642a.568.568,0,0,0,.569-.568v-2.842a.569.569,0,0,0-.569-.569h-2.842v-1.705a.569.569,0,0,0-.568-.569h-1.706v-3.41a.569.569,0,0,0,.569-.569v-2.842a.569.569,0,0,0-.569-.569V233.24a5.685,5.685,0,0,1,11.369,0v5.869a5.287,5.287,0,0,0-3.964,4.852l-.521,10.226a1.69,1.69,0,0,0,1.075,1.667v.977a1.422,1.422,0,0,0,2.843,0v-.853h4.547v.853a1.421,1.421,0,1,0,2.842,0v-.977a1.686,1.686,0,0,0,1.075-1.667l-.521-10.226a5.353,5.353,0,0,0-.185-1.139Zm-5.768,3.47a1.773,1.773,0,0,0,.28.023,1.706,1.706,0,0,0,1.708-1.706v-.932a2.274,2.274,0,1,1-3.411,0v.872a1.753,1.753,0,0,0,1.423,1.743Zm-8.244,10.823H509.375v-1.7h12.506Zm-3.411-2.842h-5.684v-1.137h5.684ZM515.059,252V248.02a.568.568,0,0,0-.568-.568v-1.706h2.274v1.706a.568.568,0,0,0-.569.568V252Zm7.959-25.58a6.829,6.829,0,0,0-6.822,6.821v11.369h-1.137V233.24a7.958,7.958,0,0,1,15.917,0v11.369a.568.568,0,0,1-.2.434.574.574,0,0,1-.468.127.617.617,0,0,1-.469-.621V233.24a6.829,6.829,0,0,0-6.821-6.821Zm2.855,17.6a4.155,4.155,0,0,1,2.829-3.731v1.947a3.411,3.411,0,1,0,3.411,0v-1.947a4.155,4.155,0,0,1,2.829,3.731l.521,10.225a.569.569,0,0,1-.567.6h-8.977a.569.569,0,0,1-.567-.6ZM527,256.831a.284.284,0,0,1-.568,0v-.853H527Zm7.106.284a.285.285,0,0,1-.285-.284v-.853h.569v.853a.285.285,0,0,1-.284.284Zm0,0" fill="#006ca7"/>
          <path id="Контур_188" data-name="Контур 188" d="M534.1,258.526a1.7,1.7,0,0,1-1.7-1.7v-.579h-4v.579a1.695,1.695,0,1,1-3.389,0v-.8a1.946,1.946,0,0,1-.534-.4,1.983,1.983,0,0,1-.541-1.463l.521-10.226a5.555,5.555,0,0,1,3.964-5.045V233.24a5.411,5.411,0,0,0-10.822,0v11.141a.844.844,0,0,1,.568.8v2.842a.844.844,0,0,1-.568.8v2.909h1.432a.843.843,0,0,1,.842.842V254h2.568a.843.843,0,0,1,.842.843v2.842a.843.843,0,0,1-.842.842H508.807a.844.844,0,0,1-.843-.842v-2.842a.844.844,0,0,1,.843-.843h2.568v-1.431a.843.843,0,0,1,.842-.842h1.432v-2.909a.844.844,0,0,1-.569-.8v-2.842a.844.844,0,0,1,.569-.8V233.24a9.369,9.369,0,0,1,18.738,0V238.9a5.562,5.562,0,0,1,3.964,5.046l.522,10.226a1.989,1.989,0,0,1-.542,1.463,1.926,1.926,0,0,1-.533.4v.8A1.7,1.7,0,0,1,534.1,258.526Zm-6.242-2.821h5.095v1.126a1.147,1.147,0,1,0,2.295,0v-1.162l.172-.069a1.415,1.415,0,0,0,.9-1.4l-.521-10.226a5.055,5.055,0,0,0-.176-1.08h0a5.046,5.046,0,0,0-3.585-3.521l-.205-.053v-6.08a8.822,8.822,0,0,0-17.643,0v11.643h-.273a.3.3,0,0,0-.295.295v2.842a.3.3,0,0,0,.295.295h.273v3.958h-1.979a.3.3,0,0,0-.295.295v1.979h-3.115a.3.3,0,0,0-.3.295v2.842a.3.3,0,0,0,.3.3h13.642a.3.3,0,0,0,.3-.3v-2.842a.3.3,0,0,0-.3-.295h-3.116v-1.979a.3.3,0,0,0-.294-.295H517.06v-3.958h.273a.3.3,0,0,0,.295-.295v-2.842a.3.3,0,0,0-.295-.295h-.273V233.24a5.958,5.958,0,1,1,11.916,0v6.081l-.205.053a5.04,5.04,0,0,0-3.585,3.521,4.989,4.989,0,0,0-.174,1.08L524.49,254.2a1.44,1.44,0,0,0,.392,1.059,1.422,1.422,0,0,0,.512.34l.172.068v1.163a1.148,1.148,0,1,0,2.3,0Zm6.242,1.684a.558.558,0,0,1-.558-.558v-1.126h1.115v1.126A.558.558,0,0,1,534.1,257.389Zm-.011-1.137.011.59a.011.011,0,0,0,.01-.011v-.579Zm-7.379,1.137a.558.558,0,0,1-.558-.558v-1.126h1.116v1.126A.559.559,0,0,1,526.713,257.389Zm-.011-1.137v.579h.021v-.579Zm-4.547,1.137H509.1v-2.253h13.054Zm-12.506-.547h11.958v-1.158H509.649Zm25.247-1.727h-8.977a.84.84,0,0,1-.84-.886l.521-10.224a4.493,4.493,0,0,1,.153-.954,4.444,4.444,0,0,1,2.861-3.023l.362-.122v2.487l-.137.079a3.137,3.137,0,1,0,3.137,0l-.137-.079v-2.487l.362.122a4.442,4.442,0,0,1,2.861,3.023,4.557,4.557,0,0,1,.154.954l.521,10.225a.841.841,0,0,1-.841.885Zm-8.75-11.082-.521,10.225a.294.294,0,0,0,.294.31H534.9a.289.289,0,0,0,.214-.092.292.292,0,0,0,.08-.218l-.521-10.225a3.971,3.971,0,0,0-.135-.837,3.886,3.886,0,0,0-2.147-2.506v1.391a3.685,3.685,0,1,1-3.958,0V240.69a3.884,3.884,0,0,0-2.148,2.507,3.952,3.952,0,0,0-.135.836Zm-7.4,10.514h-6.232v-1.684h6.232ZM513.059,254H518.2v-.589h-5.138Zm3.411-1.726h-1.684V248.02a.3.3,0,0,0-.295-.295h-.274v-2.252h2.822v2.252h-.274a.3.3,0,0,0-.3.295Zm-1.137-.547h.59V248.02a.844.844,0,0,1,.568-.8v-1.2h-1.726v1.2a.844.844,0,0,1,.568.8Zm15.075-4A2.545,2.545,0,0,1,528.5,243.5l.479-.543v1.6a1.477,1.477,0,0,0,1.192,1.473,1.53,1.53,0,0,0,.237.019,1.433,1.433,0,0,0,1.434-1.432v-1.656l.479.543a2.545,2.545,0,0,1-1.91,4.229Zm-1.964-2.925a2,2,0,1,0,3.964.378,1.93,1.93,0,0,0-.033-.357,1.977,1.977,0,0,1-1.97,1.767,2.131,2.131,0,0,1-.322-.025h0A2.016,2.016,0,0,1,528.444,244.8Zm1.964.652a.842.842,0,0,1-.842-.9V233.24a6.548,6.548,0,0,0-13.1,0v11.643h-1.684V233.24a8.232,8.232,0,1,1,16.464,0v11.369a.842.842,0,0,1-.842.843Zm-7.39-19.307a7.1,7.1,0,0,1,7.095,7.1v11.309a.349.349,0,0,0,.239.351.3.3,0,0,0,.247-.066.294.294,0,0,0,.1-.225V233.24a7.685,7.685,0,0,0-15.369,0v11.1h.59v-11.1A7.1,7.1,0,0,1,523.018,226.145Z" fill="#006ca7"/>
        </g>
        <g id="Сгруппировать_259" data-name="Сгруппировать 259">
          <path id="Контур_189" data-name="Контур 189" d="M530.408,253.705A1.705,1.705,0,1,0,528.7,252a1.707,1.707,0,0,0,1.706,1.706Zm0-2.274a.568.568,0,1,1-.569.568.568.568,0,0,1,.569-.568Zm0,0" fill="#006ca7"/>
          <path id="Контур_190" data-name="Контур 190" d="M530.408,253.978A1.979,1.979,0,1,1,532.387,252,1.98,1.98,0,0,1,530.408,253.978Zm0-3.41A1.432,1.432,0,1,0,531.839,252,1.433,1.433,0,0,0,530.408,250.568Zm0,2.273a.842.842,0,1,1,.842-.842A.842.842,0,0,1,530.408,252.841Zm0-1.136a.295.295,0,1,0,.294.294A.295.295,0,0,0,530.408,251.705Z" fill="#006ca7"/>
        </g>
      </g>
      <g id="Сгруппировать_261" data-name="Сгруппировать 261">
        <path id="Контур_191" data-name="Контур 191" d="M527.445,240.272v.348a6.983,6.983,0,0,1,1.739-1c.057-.022.115-.04.172-.061v-.442a6.115,6.115,0,0,0-1.2.621A8.075,8.075,0,0,0,527.445,240.272Z" fill="#006ca7"/>
      </g>
      <g id="Сгруппировать_262" data-name="Сгруппировать 262">
        <path id="Контур_192" data-name="Контур 192" d="M523.623,226.917c-.637,0-1.275-.011-1.911-.034v23.1a.956.956,0,0,0,.955.956h2c.079-.408.166-.813.259-1.218.008-.232.023-.463.043-.693h-1.344Z" fill="#006ca7"/>
      </g>
      <g id="Сгруппировать_263" data-name="Сгруппировать 263">
        <path id="Контур_193" data-name="Контур 193" d="M575.863,218.687l-14.016-12.568v-2.01a2.851,2.851,0,0,0-4.688-2.2l-9.008-8.072a.955.955,0,0,0-1.276,0l-27.713,24.846a.956.956,0,0,0,.638,1.668h1.912v4.677a5.848,5.848,0,0,1,1.911-.024v-4.653h32.49v12.422h-.128a4.655,4.655,0,0,0-4.65,4.65v2.811l-3.513,8.785h-7V230.866a.956.956,0,0,0-.956-.955h-8.813c.011.025.025.049.036.075a6.3,6.3,0,0,1,.473,1.836h7.349v17.2h-2.881c.081.636.167,1.272.208,1.911h36.119a.956.956,0,0,0,.955-.956V220.355h1.912a.956.956,0,0,0,.637-1.668Zm-17.838-14.578a.955.955,0,0,1,1.911,0v28.668h-1.911ZM522.3,218.443l25.215-22.606,8.653,7.753a2.853,2.853,0,0,0-.053.519v14.334Zm30.949,18.984a2.741,2.741,0,0,1,2.738-2.738h5.992a2.741,2.741,0,0,1,2.737,2.738v2.04H553.247Zm11.295,11.6-.8-4.01-1.874.376.726,3.634h-2.656V245.2h-1.911v3.823h-2.657l.727-3.635-1.874-.376-.8,4.011H549.88l3.058-7.645h12.085l3.057,7.645Zm6.861,0h-1.264l-3.514-8.785v-2.811a4.654,4.654,0,0,0-4.649-4.65h-.129V220.355H571.4Zm-9.556-30.58v-9.757l10.881,9.757Z" fill="#006ca7"/>
      </g>
      <g id="Сгруппировать_264" data-name="Сгруппировать 264">
        <path id="Контур_194" data-name="Контур 194" d="M525.635,250.141c.061-.371.14-.744.2-1.118H525.7c-.073.233-.136.47-.187.711q-.055.6-.1,1.2h.132A7.775,7.775,0,0,1,525.635,250.141Z" fill="#006ca7"/>
      </g>
      <g id="Сгруппировать_265" data-name="Сгруппировать 265">
        <path id="Контур_195" data-name="Контур 195" d="M571.4,249.023"/>
      </g>
      <g id="Сгруппировать_266" data-name="Сгруппировать 266">
        <path id="Контур_196" data-name="Контур 196" d="M542.735,215.577h9.556a.957.957,0,0,0,.956-.956v-5.734a5.734,5.734,0,0,0-11.468,0v5.734a.957.957,0,0,0,.956.956Zm.956-4.778h2.866v2.866h-2.866Zm4.778,2.866V210.8h2.866v2.866Zm2.866-4.778h-2.866V205.2a3.819,3.819,0,0,1,2.866,3.686Zm-4.778-3.686v3.686h-2.866a3.819,3.819,0,0,1,2.866-3.686Zm0,0" fill="#006ca7"/>
      </g>
      <g id="Сгруппировать_267" data-name="Сгруппировать 267">
        <rect id="Прямоугольник_232" data-name="Прямоугольник 232" width="32.698" height="1.916" transform="translate(535.743 253.136)" fill="#006ca7"/>
      </g>
      <g id="Сгруппировать_268" data-name="Сгруппировать 268">
        <rect id="Прямоугольник_233" data-name="Прямоугольник 233" width="25.928" height="1.916" transform="translate(537.472 256.694)" fill="#006ca7"/>
      </g>
    </g>
  </g>
</svg>
