<svg xmlns="http://www.w3.org/2000/svg" width="74.362" height="74.362" viewBox="0 0 74.362 74.362">
  <g id="Сгруппировать_286" data-name="Сгруппировать 286" transform="translate(-209.222 -485.121)">
    <rect id="Прямоугольник_234" data-name="Прямоугольник 234" width="74.362" height="74.362" transform="translate(209.222 485.121)" fill="none"/>
    <g id="Сгруппировать_285" data-name="Сгруппировать 285">
      <g id="Сгруппировать_271" data-name="Сгруппировать 271">
        <path id="Контур_197" data-name="Контур 197" d="M274.646,554.137H262.4a.958.958,0,1,1,0-1.915h12.245a1.757,1.757,0,0,0,1.861-1.624V494.363a1.756,1.756,0,0,0-1.861-1.623H218.782a1.756,1.756,0,0,0-1.861,1.623V550.6a1.757,1.757,0,0,0,1.861,1.624h3.071a.958.958,0,1,1,0,1.915h-3.071a3.668,3.668,0,0,1-3.777-3.539V494.363a3.669,3.669,0,0,1,3.777-3.539h55.864a3.668,3.668,0,0,1,3.776,3.539V550.6A3.667,3.667,0,0,1,274.646,554.137Z" fill="#006ca7"/>
      </g>
      <g id="Сгруппировать_282" data-name="Сгруппировать 282">
        <g id="Сгруппировать_272" data-name="Сгруппировать 272">
          <path id="Контур_198" data-name="Контур 198" d="M264.967,541.609l-1.544-.772v-9.926a5.344,5.344,0,0,0-2.276-4.372l-8.854-6.2-.01-.006-.009-.007a11.3,11.3,0,0,1-2.727-2.559v-2.958h3.33a5,5,0,0,0,4.6-6.976l-2.662-6.211-1.053-3.161a1.084,1.084,0,0,0-.258-.417l-1.067-1.067a1.068,1.068,0,0,0-1.093-.258l-1.8.6v-7.058a1.067,1.067,0,0,0-2.134,0v18.145h-2.135v-2.135a1.067,1.067,0,0,0,1.067-1.067v-1.067a6.4,6.4,0,1,0-12.808,0v1.067a1.067,1.067,0,0,0,1.067,1.067v3.2c0,.161.008.322.022.48l-2.742,1.828-.007,0,0,0-.025.018-.021.014-1.7,1.277a5.364,5.364,0,0,0-1.833,6.159l2.47,6.795a4.017,4.017,0,0,0,3.762,2.635h4.29l2.343,3.75a4.9,4.9,0,0,0,4.371,2.654H246.9l-3.684,9.211a1.067,1.067,0,0,0,.6,1.389l-.624,1.871a1.07,1.07,0,0,0,.484,1.265l7.471,4.269a1.067,1.067,0,0,0,1.542-.589l1.068-3.2a1.071,1.071,0,0,0-.125-.93l-1.8-2.7,3.051-6.609v6.7a1.068,1.068,0,0,0,1.067,1.068h8.539a1.068,1.068,0,0,0,1.068-1.068v-3.2a1.07,1.07,0,0,0-.591-.955Zm-3.679-10.7v9.518h-4.269v-6.307a5.374,5.374,0,0,0-1.7-5.137c-.029-.025-.059-.049-.09-.071l-5.341-3.744,2-2.5,8.031,5.622a3.2,3.2,0,0,1,1.366,2.623Zm-18.145-4.358v-2.542l1.319-.66h2.951v3.2Zm7.01-5.134-.606.757v-1.27q.294.264.606.513Zm5.508-10.916a2.867,2.867,0,0,1-2.784,2.175h-3.33v-2.135h2.135a1.066,1.066,0,0,0,1.012-1.4l-1.77-5.31,2.269-.568,2.322,5.417a2.89,2.89,0,0,1,.146,1.826Zm-4.267-11.548.422.424.623,1.869-2.116.53-.567-2.276Zm-1.847,7.492.654,1.961h-.654Zm-2.134,4.1v2.135h-.408l-1.068-2.135Zm-7.472-10.674a4.275,4.275,0,0,1,4.269,4.27h-8.539a4.275,4.275,0,0,1,4.27-4.27Zm3.2,6.4v3.2a3.2,3.2,0,0,1-6.4,0v-3.2Zm-3.2,8.539a5.333,5.333,0,0,0,4.5-2.48l.926,1.851.688,1.722a13.512,13.512,0,0,0,1.354,2.55v2.762h-3.2a1.079,1.079,0,0,0-.477.112l-1.91.955h-4.362l-3.679-9.2,1.505-1a5.336,5.336,0,0,0,4.654,2.73Zm-7.172,10.512-2.47-6.794a3.24,3.24,0,0,1,1.108-3.721l.588-.442,3.753,9.381a1.061,1.061,0,0,0,.88.662.658.658,0,0,0,.1.008h4.282v2.134h-6.483a1.873,1.873,0,0,1-1.756-1.229Zm10.752,3.364-1.291,1.435-.9-1.435Zm2.008,4.27a2.779,2.779,0,0,1-2.111-.964l2.975-3.306h1.02v4.27Zm5.552,17.64-5.582-3.189.447-1.338,4.036.672,1.589,2.383ZM250,544.554l-4.241-.848,3.714-9.285a1.044,1.044,0,0,0,.069-.3.68.68,0,0,0,.007-.078v-6.508l4.4,3.088a3.22,3.22,0,0,1,.759,3.717Zm13.425.145h-6.4v-2.135H262.1l1.32.659Zm0,0" fill="#006ca7"/>
        </g>
        <g id="Сгруппировать_273" data-name="Сгруппировать 273">
          <path id="Контур_199" data-name="Контур 199" d="M262.141,509.229a1.067,1.067,0,0,0,1.067-1.067V507.1a1.068,1.068,0,1,0-2.135,0v1.067a1.068,1.068,0,0,0,1.068,1.067Zm0,0" fill="#006ca7"/>
        </g>
        <g id="Сгруппировать_274" data-name="Сгруппировать 274">
          <path id="Контур_200" data-name="Контур 200" d="M257.854,504.316a1.067,1.067,0,0,0,1.067-1.067v-5.337a1.067,1.067,0,1,0-2.134,0v5.337a1.067,1.067,0,0,0,1.067,1.067Zm0,0" fill="#006ca7"/>
        </g>
        <g id="Сгруппировать_275" data-name="Сгруппировать 275">
          <path id="Контур_201" data-name="Контур 201" d="M238.641,532.958a1.067,1.067,0,0,0-1.067,1.067v1.067a1.067,1.067,0,1,0,2.135,0v-1.067a1.068,1.068,0,0,0-1.068-1.067Zm0,0" fill="#006ca7"/>
        </g>
        <g id="Сгруппировать_276" data-name="Сгруппировать 276">
          <path id="Контур_202" data-name="Контур 202" d="M228.685,501.788a1.067,1.067,0,0,0-1.067,1.067v5.337a1.067,1.067,0,1,0,2.134,0v-5.337a1.067,1.067,0,0,0-1.067-1.067Zm0,0" fill="#006ca7"/>
        </g>
        <g id="Сгруппировать_277" data-name="Сгруппировать 277">
          <path id="Контур_203" data-name="Контур 203" d="M262.124,501.706a1.068,1.068,0,0,0,1.067-1.068V495.3a1.068,1.068,0,1,0-2.135,0v5.336a1.068,1.068,0,0,0,1.068,1.068Zm0,0" fill="#006ca7"/>
        </g>
        <g id="Сгруппировать_278" data-name="Сгруппировать 278">
          <path id="Контур_204" data-name="Контур 204" d="M233.542,530.25a1.067,1.067,0,0,0-1.067,1.067v6.4a1.067,1.067,0,0,0,2.135,0v-6.4a1.068,1.068,0,0,0-1.068-1.067Zm0,0" fill="#006ca7"/>
        </g>
        <g id="Сгруппировать_281" data-name="Сгруппировать 281">
          <g id="Сгруппировать_279" data-name="Сгруппировать 279">
            <path id="Контур_205" data-name="Контур 205" d="M233.538,541.816c-1.328,0-7.95-.115-7.95-2.39s6.622-2.39,7.95-2.39,7.95.115,7.95,2.39S234.865,541.816,233.538,541.816Zm-6.165-2.39a22.835,22.835,0,0,0,12.33,0,22.833,22.833,0,0,0-12.33,0Z" fill="#006ca7"/>
          </g>
          <g id="Сгруппировать_280" data-name="Сгруппировать 280">
            <path id="Контур_206" data-name="Контур 206" d="M233.507,554.595a10.039,10.039,0,0,1-5.075-1.19.771.771,0,0,1-.347-.514l-2.28-12.513a.772.772,0,0,1,1.283-.705c.448.415,2.808,1.028,6.45,1.028s6-.613,6.449-1.028a.772.772,0,0,1,1.283.705l-2.28,12.513a.771.771,0,0,1-.362.523,10.443,10.443,0,0,1-4.845,1.178Q233.644,554.6,233.507,554.595Zm-3.972-2.348a9.535,9.535,0,0,0,4.216.8,9.724,9.724,0,0,0,3.79-.811l1.944-10.672a26.463,26.463,0,0,1-11.9,0Z" fill="#006ca7"/>
          </g>
        </g>
      </g>
      <g id="Сгруппировать_283" data-name="Сгруппировать 283">
        <path id="Контур_207" data-name="Контур 207" d="M262.361,517.871l.268.179a5.757,5.757,0,0,1,2.258,2.956.969.969,0,0,0,1.839,0,5.757,5.757,0,0,1,2.258-2.956l.268-.179a.969.969,0,0,0,0-1.613l-.268-.179a5.761,5.761,0,0,1-2.258-2.956.969.969,0,0,0-1.839,0,5.761,5.761,0,0,1-2.258,2.956l-.268.179a.969.969,0,0,0,0,1.613Zm3.445-2.273a7.751,7.751,0,0,0,1.287,1.466,7.81,7.81,0,0,0-1.287,1.466,7.768,7.768,0,0,0-1.286-1.466,7.71,7.71,0,0,0,1.286-1.466Zm0,0" fill="#006ca7"/>
      </g>
      <g id="Сгруппировать_284" data-name="Сгруппировать 284">
        <path id="Контур_208" data-name="Контур 208" d="M223.365,530.316l.268.179a5.763,5.763,0,0,1,2.258,2.957.97.97,0,0,0,1.839,0,5.763,5.763,0,0,1,2.258-2.957l.268-.179a.969.969,0,0,0,0-1.613l-.268-.178a5.763,5.763,0,0,1-2.258-2.957.969.969,0,0,0-1.839,0,5.764,5.764,0,0,1-2.258,2.957l-.268.178a.969.969,0,0,0,0,1.613Zm3.446-2.272a7.739,7.739,0,0,0,1.286,1.466,7.709,7.709,0,0,0-1.286,1.466,7.749,7.749,0,0,0-1.287-1.466,7.779,7.779,0,0,0,1.287-1.466Zm0,0" fill="#006ca7"/>
      </g>
    </g>
  </g>
</svg>
