<svg xmlns="http://www.w3.org/2000/svg" width="74.36" height="74.36" viewBox="0 0 74.36 74.36">
  <g id="Сгруппировать_353" data-name="Сгруппировать 353" transform="translate(-802.542 -186.864)">
    <rect id="Прямоугольник_236" data-name="Прямоугольник 236" width="74.36" height="74.36" transform="translate(802.542 186.863)" fill="none"/>
    <g id="Сгруппировать_352" data-name="Сгруппировать 352" transform="translate(805.55 194.742)">
      <g id="Сгруппировать_297" data-name="Сгруппировать 297" transform="translate(10.585 18.13)">
        <path id="Контур_217" data-name="Контур 217" d="M822.942,226.464a6.319,6.319,0,1,1,6.1-8.011,8.267,8.267,0,0,1,.2,2.688l-1.806-.191a6.5,6.5,0,0,0-.141-2.011,4.5,4.5,0,1,0-3.132,5.541,7.13,7.13,0,0,0,.667-.306c.121-.061.23-.115.312-.152l.757,1.652c-.067.03-.158.076-.261.127a5.129,5.129,0,0,1-2.69.663Z" transform="translate(-816.632 -213.824)" fill="#006ca7"/>
      </g>
      <g id="Сгруппировать_298" data-name="Сгруппировать 298" transform="translate(21.756 27.014)">
        <path id="Контур_218" data-name="Контур 218" d="M829.153,250.842l-1.187-1.115L854,222.414l1.187,1.115Z" transform="translate(-827.966 -222.414)" fill="#006ca7"/>
      </g>
      <g id="Сгруппировать_299" data-name="Сгруппировать 299" transform="translate(4.556 11.688)">
        <path id="Контур_219" data-name="Контур 219" d="M811.7,231.464l-1.176-1.126L833.063,207.1l1.176,1.126Z" transform="translate(-810.52 -207.1)" fill="#006ca7"/>
      </g>
      <g id="Сгруппировать_300" data-name="Сгруппировать 300" transform="translate(17.397 14.962)">
        <rect id="Прямоугольник_237" data-name="Прямоугольник 237" width="3.565" height="1.816" transform="translate(0 3.412) rotate(-73.148)" fill="#006ca7"/>
      </g>
      <g id="Сгруппировать_301" data-name="Сгруппировать 301" transform="translate(7.208 20.805)">
        <rect id="Прямоугольник_238" data-name="Прямоугольник 238" width="1.816" height="3.565" transform="translate(0 1.738) rotate(-73.154)" fill="#006ca7"/>
      </g>
      <g id="Сгруппировать_302" data-name="Сгруппировать 302" transform="translate(21.105 17.543)">
        <rect id="Прямоугольник_239" data-name="Прямоугольник 239" width="3.565" height="1.816" transform="matrix(0.783, -0.623, 0.623, 0.783, 0, 2.219)" fill="#006ca7"/>
      </g>
      <g id="Сгруппировать_303" data-name="Сгруппировать 303" transform="translate(18.111 13.634)">
        <circle id="Эллипс_67" data-name="Эллипс 67" cx="1.287" cy="1.287" r="1.287" fill="#006ca7"/>
      </g>
      <g id="Сгруппировать_306" data-name="Сгруппировать 306" transform="translate(11.96 29.406)">
        <g id="Сгруппировать_304" data-name="Сгруппировать 304" transform="translate(0.752)">
          <rect id="Прямоугольник_240" data-name="Прямоугольник 240" width="3.565" height="1.816" transform="matrix(0.358, -0.934, 0.934, 0.358, 0, 3.328)" fill="#006ca7"/>
        </g>
        <g id="Сгруппировать_305" data-name="Сгруппировать 305" transform="translate(0 3.002)">
          <circle id="Эллипс_68" data-name="Эллипс 68" cx="1.287" cy="1.287" r="1.287" fill="#006ca7"/>
        </g>
      </g>
      <g id="Сгруппировать_307" data-name="Сгруппировать 307" transform="translate(8.761 16.96)">
        <circle id="Эллипс_69" data-name="Эллипс 69" cx="1.287" cy="1.287" r="1.287" fill="#006ca7"/>
      </g>
      <g id="Сгруппировать_308" data-name="Сгруппировать 308" transform="translate(23.247 16.765)">
        <circle id="Эллипс_70" data-name="Эллипс 70" cx="1.287" cy="1.287" r="1.287" fill="#006ca7"/>
      </g>
      <g id="Сгруппировать_311" data-name="Сгруппировать 311" transform="translate(5.845 25.991)">
        <g id="Сгруппировать_309" data-name="Сгруппировать 309" transform="translate(1.438)">
          <rect id="Прямоугольник_241" data-name="Прямоугольник 241" width="3.565" height="1.816" transform="matrix(0.906, -0.424, 0.424, 0.906, 0, 1.51)" fill="#006ca7"/>
        </g>
        <g id="Сгруппировать_310" data-name="Сгруппировать 310" transform="translate(0 1.17)">
          <circle id="Эллипс_71" data-name="Эллипс 71" cx="1.287" cy="1.287" r="1.287" fill="#006ca7"/>
        </g>
      </g>
      <g id="Сгруппировать_314" data-name="Сгруппировать 314" transform="translate(22.515 21.703)">
        <g id="Сгруппировать_312" data-name="Сгруппировать 312" transform="translate(0 0.352)">
          <rect id="Прямоугольник_242" data-name="Прямоугольник 242" width="3.565" height="1.816" transform="translate(0 0.563) rotate(-9.086)" fill="#006ca7"/>
        </g>
        <g id="Сгруппировать_313" data-name="Сгруппировать 313" transform="translate(2.506)">
          <circle id="Эллипс_72" data-name="Эллипс 72" cx="1.287" cy="1.287" r="1.287" fill="#006ca7"/>
        </g>
      </g>
      <g id="Сгруппировать_315" data-name="Сгруппировать 315" transform="translate(5.631 20.268)">
        <circle id="Эллипс_73" data-name="Эллипс 73" cx="1.287" cy="1.287" r="1.287" fill="#006ca7"/>
      </g>
      <g id="Сгруппировать_318" data-name="Сгруппировать 318" transform="translate(12.197 13.679)">
        <g id="Сгруппировать_316" data-name="Сгруппировать 316" transform="translate(0.539 1.447)">
          <rect id="Прямоугольник_243" data-name="Прямоугольник 243" width="1.816" height="3.565" transform="translate(0 0.563) rotate(-18.069)" fill="#006ca7"/>
        </g>
        <g id="Сгруппировать_317" data-name="Сгруппировать 317">
          <circle id="Эллипс_74" data-name="Эллипс 74" cx="1.287" cy="1.287" r="1.287" fill="#006ca7"/>
        </g>
      </g>
      <g id="Сгруппировать_321" data-name="Сгруппировать 321" transform="translate(6.654 23.597)">
        <g id="Сгруппировать_319" data-name="Сгруппировать 319">
          <circle id="Эллипс_75" data-name="Эллипс 75" cx="1.287" cy="1.287" r="1.287" fill="#006ca7"/>
        </g>
        <g id="Сгруппировать_320" data-name="Сгруппировать 320" transform="translate(2.067 0.38)">
          <rect id="Прямоугольник_244" data-name="Прямоугольник 244" width="1.736" height="1.817" transform="translate(0 0.066) rotate(-2.175)" fill="#006ca7"/>
        </g>
      </g>
      <g id="Сгруппировать_324" data-name="Сгруппировать 324" transform="translate(15.752 30.567)">
        <g id="Сгруппировать_322" data-name="Сгруппировать 322" transform="translate(0 1.281)">
          <circle id="Эллипс_76" data-name="Эллипс 76" cx="1.287" cy="1.287" r="1.287" fill="#006ca7"/>
        </g>
        <g id="Сгруппировать_323" data-name="Сгруппировать 323" transform="translate(0.499)">
          <rect id="Прямоугольник_245" data-name="Прямоугольник 245" width="1.736" height="1.817" transform="matrix(0.028, -1, 1, 0.028, 0, 1.735)" fill="#006ca7"/>
        </g>
      </g>
      <g id="Сгруппировать_325" data-name="Сгруппировать 325" transform="translate(10.16 18.218)">
        <rect id="Прямоугольник_246" data-name="Прямоугольник 246" width="1.817" height="1.861" transform="matrix(0.649, -0.761, 0.761, 0.649, 0, 1.383)" fill="#006ca7"/>
      </g>
      <g id="Сгруппировать_326" data-name="Сгруппировать 326" transform="translate(19.35 25.748)">
        <path id="Контур_220" data-name="Контур 220" d="M840.832,256.192l-9.55-3.375a8.769,8.769,0,0,1-5.838-8.256V222.69a1.613,1.613,0,0,1,1.611-1.611h27.555a1.613,1.613,0,0,1,1.611,1.611v21.871a8.77,8.77,0,0,1-5.839,8.256ZM827.26,222.9v21.666a6.952,6.952,0,0,0,4.628,6.543l8.944,3.161,8.945-3.161a6.951,6.951,0,0,0,4.627-6.543V222.9Z" transform="translate(-825.444 -221.079)" fill="#006ca7"/>
      </g>
      <g id="Сгруппировать_328" data-name="Сгруппировать 328" transform="translate(24.178 30.837)">
        <g id="Сгруппировать_327" data-name="Сгруппировать 327">
          <path id="Контур_221" data-name="Контур 221" d="M850.41,240.464,847.8,236.58l-2.1.97a16.127,16.127,0,0,0-.336-2.041l1.246-3.089,3.379-1.5-.55-1.237-3.88,1.724-.847,2.1a6.486,6.486,0,0,0-1.115-1.8,2,2,0,0,0,.027-.331,2.046,2.046,0,0,0-.431-1.259l2.154-2.855-1.081-.816-2.21,2.929a2.049,2.049,0,0,0-.99,0l-2.209-2.929-1.081.816,2.154,2.854a2.052,2.052,0,0,0-.431,1.26,1.992,1.992,0,0,0,.028.331,6.481,6.481,0,0,0-1.115,1.8l-.846-2.1-3.881-1.723-.55,1.237,3.379,1.5,1.246,3.089a16.106,16.106,0,0,0-.336,2.041l-2.1-.97-2.611,3.884-2.178.957.544,1.24,2.537-1.115,2.187-3.252,1.533.707c0,.135,0,.269,0,.4,0,.472.018.939.052,1.4l-2.282,1.639v7.115h1.354v-6.42l1.111-.8a12.635,12.635,0,0,0,.864,3.019c.786,1.776,1.9,2.754,3.132,2.754s2.345-.979,3.131-2.754a12.635,12.635,0,0,0,.864-3.019l1.111.8v6.421h1.354v-7.115l-2.282-1.639c.034-.458.052-.924.052-1.4,0-.136,0-.27,0-.4l1.533-.708,2.187,3.253,2.537,1.115.545-1.24Zm-8.141-9.087a.709.709,0,1,1-.708-.708A.71.71,0,0,1,842.269,231.376Zm-2.022,1.588a2.057,2.057,0,0,0,2.627,0,7.21,7.21,0,0,1,.954,2.048c.016.051.031.1.046.155a4.441,4.441,0,0,1-4.628,0c.015-.052.03-.1.046-.155A7.212,7.212,0,0,1,840.247,232.965Zm3.207,11.844c-.539,1.219-1.248,1.948-1.893,1.948s-1.354-.729-1.893-1.948a13.759,13.759,0,0,1-.983-5.4,16.574,16.574,0,0,1,.243-2.866,5.8,5.8,0,0,0,5.267,0,16.574,16.574,0,0,1,.243,2.866A13.758,13.758,0,0,1,843.454,244.809Z" transform="translate(-830.533 -226.446)" fill="#006ca7"/>
        </g>
      </g>
      <g id="Сгруппировать_329" data-name="Сгруппировать 329" transform="translate(8.969 45.51)">
        <path id="Контур_222" data-name="Контур 222" d="M815.583,247.051l.254.169a5.471,5.471,0,0,1,2.142,2.8.918.918,0,0,0,1.743,0,5.471,5.471,0,0,1,2.142-2.8l.254-.169a.92.92,0,0,0,0-1.529l-.254-.17a5.471,5.471,0,0,1-2.142-2.8.919.919,0,0,0-1.743,0,5.471,5.471,0,0,1-2.142,2.8l-.254.17a.92.92,0,0,0,0,1.529Zm3.267-2.155a7.314,7.314,0,0,0,1.22,1.39,7.314,7.314,0,0,0-1.22,1.39,7.317,7.317,0,0,0-1.22-1.39,7.317,7.317,0,0,0,1.22-1.39Zm0,0" transform="translate(-815.174 -241.921)" fill="#006ca7"/>
      </g>
      <g id="Сгруппировать_330" data-name="Сгруппировать 330" transform="translate(26.369)">
        <path id="Контур_223" data-name="Контур 223" d="M833.376,200.3l.255.17a5.463,5.463,0,0,1,2.141,2.8.919.919,0,0,0,1.744,0,5.459,5.459,0,0,1,2.141-2.8l.254-.17a.919.919,0,0,0,0-1.529l-.254-.17a5.459,5.459,0,0,1-2.141-2.8.919.919,0,0,0-1.744,0,5.463,5.463,0,0,1-2.141,2.8l-.255.17a.92.92,0,0,0,0,1.529Zm3.267-2.155a7.35,7.35,0,0,0,1.22,1.39,7.409,7.409,0,0,0-1.22,1.39,7.374,7.374,0,0,0-1.22-1.39,7.315,7.315,0,0,0,1.22-1.39Zm0,0" transform="translate(-832.967 -195.173)" fill="#006ca7"/>
      </g>
      <g id="Сгруппировать_350" data-name="Сгруппировать 350" transform="translate(32.789 3.15)">
        <g id="Сгруппировать_331" data-name="Сгруппировать 331" transform="translate(21.865 20.508)">
          <path id="Контур_224" data-name="Контур 224" d="M862.84,222.322a.733.733,0,0,0-.733.733v2.93a.733.733,0,0,0,.733.733H864.3v1.465a.733.733,0,0,0,.733.733h2.93a.733.733,0,0,0,.733-.733v-1.465h1.465a.733.733,0,0,0,.733-.733v-2.93a.733.733,0,0,0-.733-.733H868.7v-1.465a.733.733,0,0,0-.733-.733h-2.93a.733.733,0,0,0-.733.733v1.465Zm.732,1.465h1.466a.732.732,0,0,0,.732-.732v-1.466h1.466v1.466a.732.732,0,0,0,.732.732h1.466v1.466h-1.466a.732.732,0,0,0-.732.732v1.466H865.77v-1.466a.732.732,0,0,0-.732-.732h-1.466Zm0,1.466" transform="translate(-862.107 -220.124)" fill="#006ca7"/>
        </g>
        <g id="Сгруппировать_332" data-name="Сгруппировать 332" transform="translate(18.934 1.46)">
          <path id="Контур_225" data-name="Контур 225" d="M861.214,211.757a2.2,2.2,0,0,0-2.2,2.2v27.838a2.2,2.2,0,0,0,2.2,2.2h10.257a2.2,2.2,0,0,0,2.2-2.2V213.955a2.2,2.2,0,0,0-2.2-2.2h-.733v-2.2a2.206,2.206,0,0,0-1.465-2.067v-6.724a.733.733,0,0,0-.733-.733h-4.4a.733.733,0,0,0-.733.733v6.724a2.206,2.206,0,0,0-1.465,2.067v2.2Zm6.594-4.4h-2.93V201.5h2.93Zm1.466,4.4h-5.862v-2.2a.733.733,0,0,1,.733-.733h4.4a.733.733,0,0,1,.733.733Zm-8.791,2.2a.733.733,0,0,1,.732-.733h10.257a.733.733,0,0,1,.732.733v27.838a.733.733,0,0,1-.732.733H861.214a.733.733,0,0,1-.732-.733Zm0,27.838" transform="translate(-859.016 -200.035)" fill="#006ca7"/>
        </g>
        <g id="Сгруппировать_333" data-name="Сгруппировать 333" transform="translate(4.086)">
          <path id="Контур_226" data-name="Контур 226" d="M844.089,201.426a.732.732,0,1,0,0,1.465h.864c.029.073.059.139.088.212l-.615.608a.739.739,0,0,0,0,1.04.767.767,0,0,0,.521.213.746.746,0,0,0,.52-.213l.609-.615c.073.029.138.059.212.088v.865a.732.732,0,1,0,1.465,0v-.865l.212-.088.608.615a.748.748,0,0,0,.521.213.763.763,0,0,0,.52-.213.739.739,0,0,0,0-1.04L849,203.1c.029-.073.059-.139.088-.212h.865a.732.732,0,0,0,0-1.465h-.865c-.029-.074-.059-.139-.088-.212l.615-.609a.735.735,0,1,0-1.04-1.04l-.608.615-.212-.088v-.864a.732.732,0,1,0-1.465,0v.864c-.074.029-.139.059-.212.088l-.609-.615a.735.735,0,0,0-1.04,1.04l.615.609c-.029.073-.059.138-.088.212Zm2.93,1.465a.732.732,0,1,1,.677-.452.733.733,0,0,1-.677.452Zm0,0" transform="translate(-843.356 -198.495)" fill="#006ca7"/>
        </g>
        <g id="Сгруппировать_334" data-name="Сгруппировать 334" transform="translate(0 6.962)">
          <path id="Контур_227" data-name="Контур 227" d="M839.779,209.5a.732.732,0,0,0,0,1.465h.835a3.049,3.049,0,0,0,.316.747l-.595.594a.734.734,0,0,0,0,1.033.717.717,0,0,0,1.034,0l.594-.594a3.062,3.062,0,0,0,.747.315v.835a.732.732,0,1,0,1.465,0v-.835a3.063,3.063,0,0,0,.747-.315l.594.594a.717.717,0,0,0,1.033,0,.734.734,0,0,0,0-1.033l-.594-.594a3.049,3.049,0,0,0,.315-.747h.835a.732.732,0,0,0,0-1.465h-.835a3.065,3.065,0,0,0-.315-.747l.594-.594a.733.733,0,0,0-1.033-1.033l-.594.594a3.066,3.066,0,0,0-.747-.316v-.835a.732.732,0,0,0-1.465,0v.835a3.065,3.065,0,0,0-.747.316l-.594-.594a.733.733,0,0,0-1.034,1.033l.595.594a3.065,3.065,0,0,0-.316.747Zm3.664,2.2a1.465,1.465,0,1,1,1.353-.9,1.47,1.47,0,0,1-1.353.9Zm0,0" transform="translate(-839.047 -205.838)" fill="#006ca7"/>
        </g>
        <g id="Сгруппировать_335" data-name="Сгруппировать 335" transform="translate(19.667 2.925)">
          <path id="Контур_228" data-name="Контур 228" d="M861.254,203.046a.733.733,0,0,0,0-1.466h-.732a.733.733,0,1,0,0,1.466Zm0,0" transform="translate(-859.789 -201.58)" fill="#006ca7"/>
        </g>
        <g id="Сгруппировать_336" data-name="Сгруппировать 336" transform="translate(16.004 2.925)">
          <path id="Контур_229" data-name="Контур 229" d="M857.391,203.046a.733.733,0,0,0,0-1.466h-.733a.733.733,0,0,0,0,1.466Zm0,0" transform="translate(-855.926 -201.58)" fill="#006ca7"/>
        </g>
        <g id="Сгруппировать_337" data-name="Сгруппировать 337" transform="translate(12.341 2.925)">
          <path id="Контур_230" data-name="Контур 230" d="M853.528,203.046a.733.733,0,0,0,0-1.466h-.733a.733.733,0,0,0,0,1.466Zm0,0" transform="translate(-852.063 -201.58)" fill="#006ca7"/>
        </g>
        <g id="Сгруппировать_338" data-name="Сгруппировать 338" transform="translate(19.909 7.848)">
          <path id="Контур_231" data-name="Контур 231" d="M860.268,207.5a.733.733,0,1,0,1.036,1.036l.518-.518a.733.733,0,0,0-1.035-1.036Zm.519-.518" transform="translate(-860.045 -206.772)" fill="#006ca7"/>
        </g>
        <g id="Сгруппировать_339" data-name="Сгруппировать 339" transform="translate(17.328 10.42)">
          <path id="Контур_232" data-name="Контур 232" d="M857.537,210.226a.733.733,0,0,0,1.036,1.036l.518-.519a.733.733,0,1,0-1.036-1.035Zm.518-.518" transform="translate(-857.323 -209.485)" fill="#006ca7"/>
        </g>
        <g id="Сгруппировать_340" data-name="Сгруппировать 340" transform="translate(14.729 13.011)">
          <path id="Контур_233" data-name="Контур 233" d="M854.8,212.958a.733.733,0,1,0,1.036,1.035l.518-.518a.733.733,0,1,0-1.036-1.036Zm.518-.519" transform="translate(-854.581 -212.217)" fill="#006ca7"/>
        </g>
        <g id="Сгруппировать_341" data-name="Сгруппировать 341" transform="translate(19.955 5.234)">
          <path id="Контур_234" data-name="Контур 234" d="M861.724,205.443a.733.733,0,0,0-.38-1.413l-.707.187a.733.733,0,0,0,.19,1.44.709.709,0,0,0,.19-.026l.708-.189Zm0,0" transform="translate(-860.093 -204.015)" fill="#006ca7"/>
        </g>
        <g id="Сгруппировать_342" data-name="Сгруппировать 342" transform="translate(16.419 6.167)">
          <path id="Контур_235" data-name="Контур 235" d="M856.389,206.116a.731.731,0,0,0,.706.543.714.714,0,0,0,.19-.026l.707-.19a.733.733,0,1,0-.379-1.415l-.706.19a.732.732,0,0,0-.518.9Zm0,0" transform="translate(-856.363 -204.999)" fill="#006ca7"/>
        </g>
        <g id="Сгруппировать_343" data-name="Сгруппировать 343" transform="translate(12.878 7.114)">
          <path id="Контур_236" data-name="Контур 236" d="M853.362,207.659a.717.717,0,0,0,.191-.026l.707-.19a.733.733,0,1,0-.379-1.415l-.707.19a.732.732,0,0,0,.189,1.44Zm0,0" transform="translate(-852.629 -205.998)" fill="#006ca7"/>
        </g>
        <g id="Сгруппировать_344" data-name="Сгруппировать 344" transform="translate(9.24 8.392)">
          <path id="Контур_237" data-name="Контур 237" d="M849.525,209.007a.716.716,0,0,0,.191-.026l.706-.19a.733.733,0,1,0-.378-1.415l-.708.19a.733.733,0,0,0,.19,1.44Zm0,0" transform="translate(-848.792 -207.346)" fill="#006ca7"/>
        </g>
        <g id="Сгруппировать_345" data-name="Сгруппировать 345" transform="translate(8.182 14.74)">
          <path id="Контур_238" data-name="Контур 238" d="M852.072,216.239a2.2,2.2,0,1,0-1.357,2.031,2.2,2.2,0,0,0,1.357-2.031Zm-2.931,0a.732.732,0,1,1,.452.677.733.733,0,0,1-.452-.677Zm0,0" transform="translate(-847.676 -214.041)" fill="#006ca7"/>
        </g>
        <g id="Сгруппировать_346" data-name="Сгруппировать 346" transform="translate(25.528 5.123)">
          <rect id="Прямоугольник_247" data-name="Прямоугольник 247" width="1.465" height="1.465" fill="#006ca7"/>
        </g>
        <g id="Сгруппировать_347" data-name="Сгруппировать 347" transform="translate(21.865 30.764)">
          <path id="Контур_239" data-name="Контур 239" d="M862.84,230.941a.733.733,0,0,0,0,1.466h7.326a.733.733,0,1,0,0-1.466Zm0,0" transform="translate(-862.107 -230.941)" fill="#006ca7"/>
        </g>
        <g id="Сгруппировать_348" data-name="Сгруппировать 348" transform="translate(21.865 33.695)">
          <path id="Контур_240" data-name="Контур 240" d="M862.84,234.032a.732.732,0,1,0,0,1.465h7.326a.732.732,0,1,0,0-1.465Zm0,0" transform="translate(-862.107 -234.032)" fill="#006ca7"/>
        </g>
        <g id="Сгруппировать_349" data-name="Сгруппировать 349" transform="translate(24.062 36.626)">
          <path id="Контур_241" data-name="Контур 241" d="M865.158,237.123a.732.732,0,1,0,0,1.465h2.93a.732.732,0,1,0,0-1.465Zm0,0" transform="translate(-864.425 -237.123)" fill="#006ca7"/>
        </g>
      </g>
      <g id="Сгруппировать_351" data-name="Сгруппировать 351" transform="translate(0 7.471)">
        <path id="Контур_242" data-name="Контур 242" d="M821.965,235.558a16.237,16.237,0,1,1,16.128-14.235l-1.8-.225a14.435,14.435,0,1,0-11.032,12.261l.414,1.768A16.241,16.241,0,0,1,821.965,235.558Z" transform="translate(-805.715 -203.053)" fill="#006ca7"/>
      </g>
    </g>
  </g>
</svg>
