<svg xmlns="http://www.w3.org/2000/svg" width="74.362" height="74.362" viewBox="0 0 74.362 74.362">
  <g id="Сгруппировать_296" data-name="Сгруппировать 296" transform="translate(-506.462 -485.121)">
    <g id="Сгруппировать_287" data-name="Сгруппировать 287">
      <path id="Контур_209" data-name="Контур 209" d="M522.947,498.123l.268.179a5.765,5.765,0,0,1,2.258,2.956.969.969,0,0,0,1.839,0,5.765,5.765,0,0,1,2.258-2.956l.268-.179a.969.969,0,0,0,0-1.613l-.268-.178a5.763,5.763,0,0,1-2.258-2.957.969.969,0,0,0-1.839,0,5.764,5.764,0,0,1-2.258,2.957l-.268.178a.969.969,0,0,0,0,1.613Zm3.445-2.272a7.81,7.81,0,0,0,1.287,1.466,7.748,7.748,0,0,0-1.287,1.466,7.683,7.683,0,0,0-1.287-1.466,7.743,7.743,0,0,0,1.287-1.466Zm0,0" fill="#006ca7"/>
    </g>
    <g id="Сгруппировать_288" data-name="Сгруппировать 288">
      <path id="Контур_210" data-name="Контур 210" d="M517.13,504.424l.269.179a5.766,5.766,0,0,1,2.258,2.956.969.969,0,0,0,1.839,0,5.761,5.761,0,0,1,2.258-2.956l.268-.179a.969.969,0,0,0,0-1.613l-.268-.179a5.757,5.757,0,0,1-2.258-2.956.969.969,0,0,0-1.839,0,5.762,5.762,0,0,1-2.258,2.956l-.269.179a.97.97,0,0,0,0,1.613Zm3.446-2.272a7.815,7.815,0,0,0,1.287,1.466,7.751,7.751,0,0,0-1.287,1.466,7.712,7.712,0,0,0-1.287-1.466,7.776,7.776,0,0,0,1.287-1.466Zm0,0" fill="#006ca7"/>
    </g>
    <g id="Сгруппировать_289" data-name="Сгруппировать 289">
      <path id="Контур_211" data-name="Контур 211" d="M522.515,529.548h-.97a.97.97,0,0,0,0,1.939h.97a.97.97,0,0,0,0-1.939Zm0,0" fill="#006ca7"/>
    </g>
    <g id="Сгруппировать_290" data-name="Сгруппировать 290">
      <path id="Контур_212" data-name="Контур 212" d="M522.515,537.3h-.97a.97.97,0,0,0,0,1.939h.97a.97.97,0,0,0,0-1.939Zm0,0" fill="#006ca7"/>
    </g>
    <g id="Сгруппировать_291" data-name="Сгруппировать 291">
      <path id="Контур_213" data-name="Контур 213" d="M522.515,545.058h-.97a.97.97,0,0,0,0,1.939h.97a.97.97,0,0,0,0-1.939Zm0,0" fill="#006ca7"/>
    </g>
    <g id="Сгруппировать_295" data-name="Сгруппировать 295">
      <rect id="Прямоугольник_235" data-name="Прямоугольник 235" width="74.362" height="74.362" transform="translate(506.462 485.121)" fill="none"/>
      <g id="Сгруппировать_292" data-name="Сгруппировать 292">
        <path id="Контур_214" data-name="Контур 214" d="M570.281,538.689a12.645,12.645,0,0,0-.979-4.893v-6.854a.979.979,0,0,0-.978-.979h-2.937V521.88a2.937,2.937,0,0,0-.979-5.706V504.586l.928-2.786a.962.962,0,0,0,.021-.547l-.979-3.915a.979.979,0,0,0-.949-.742h-3.916a.978.978,0,0,0-.949.742l-.979,3.915a.962.962,0,0,0,.021.547l.928,2.786v11.588a2.937,2.937,0,0,0-.979,5.706v4.083H553.64V517.88a6.853,6.853,0,1,0-8.078-.18c.08.062.163.122.246.18v8.083h-4.894V508.669l1.711-2.283a6.153,6.153,0,0,0,1.225-3.674,6.09,6.09,0,0,0-3.384-5.477l-1.072-.536a.979.979,0,0,0-1.417.876v3.684a.979.979,0,0,1-1.958,0v-3.684a.98.98,0,0,0-1.417-.876l-1.072.536a6.093,6.093,0,0,0-3.385,5.477,6.161,6.161,0,0,0,1.225,3.674l1.712,2.283v2.611h-1.958a.979.979,0,0,0-.979-.979h-5.873a.979.979,0,0,0-.942.713l-2.737-.684h0a.966.966,0,0,0-.239-.03H516.44a.978.978,0,0,0-.978.979v5.873a.979.979,0,0,0,.978.979s3.879,0,3.916-.007c.01,0,2.974-.707,2.974-.707a.981.981,0,0,0,.942.714v7.831h-6.853a.98.98,0,0,0-.979.979v23.495a.98.98,0,0,0,.979.979h50.9a.979.979,0,0,0,.978-.979v-6.8c0-.016,0-.032,0-.047a12.664,12.664,0,0,0,.981-4.9Zm-23.494,0a10.768,10.768,0,1,1,10.768,10.769,10.768,10.768,0,0,1-10.768-10.769ZM518.4,535.753h26.774a12.751,12.751,0,0,0,0,5.873H518.4Zm48.947-5.186a12.819,12.819,0,0,0-3.015-2.646h3.015Zm-4.68-32.014.489,1.958h-3.366l.489-1.958Zm-2.223,5.564-.55-1.648h3.158l-.55,1.648a.99.99,0,0,0-.05.31v11.747h-1.958V504.427a.992.992,0,0,0-.05-.31Zm-1.908,14.015h5.874a.979.979,0,0,1,0,1.958h-5.874a.979.979,0,0,1,0-1.958Zm.979,3.916h3.916v3.915h-3.916ZM547.277,516.5a5.1,5.1,0,0,1-.525-.351,4.894,4.894,0,1,1,5.419.351.978.978,0,0,0-.489.847v8.619h-3.916v-8.619a.978.978,0,0,0-.489-.847Zm-16.153.656h.422a4.49,4.49,0,0,0,1.536,1.4v7.414h-1.958Zm1.812-11.941a4.2,4.2,0,0,1-.833-2.5,4.14,4.14,0,0,1,1.958-3.533v2.08a2.937,2.937,0,0,0,5.874,0v-2.08a4.142,4.142,0,0,1,1.958,3.533,4.2,4.2,0,0,1-.833,2.5l-1.909,2.543a.988.988,0,0,0-.2.588v17.62H535.04V519.1c.077,0,.154.007.231.007H537a.98.98,0,0,0,.876-1.417l-2.834-5.667v-3.684a.982.982,0,0,0-.2-.588Zm.52,8.025,1.958,3.916h-.143a2.547,2.547,0,0,1-2.292-1.417.981.981,0,0,0-.876-.541h-.979v-1.958Zm-8.205-.979h3.915v3.916h-3.915Zm-3.916.275,1.958.49v2.387l-1.958.489Zm-1.958,3.641h-1.958v-3.916h1.958Zm6.853,1.958h2.936v7.831H526.23Zm-7.832,9.789h32.383a12.805,12.805,0,0,0-4.972,5.874H518.4Zm0,15.663h27.411a12.805,12.805,0,0,0,4.972,5.874H518.4Zm48.947,5.874H564.33a12.825,12.825,0,0,0,3.015-2.647Zm0,0" fill="#006ca7"/>
      </g>
      <g id="Сгруппировать_293" data-name="Сгруппировать 293">
        <path id="Контур_215" data-name="Контур 215" d="M564.4,536.61a1.22,1.22,0,0,0-.023-.12l-.007-.024a.93.93,0,0,0-.044-.126l-.005-.012a1.159,1.159,0,0,0-.059-.109l-.012-.02a.9.9,0,0,0-.079-.1l-.018-.02a1,1,0,0,0-.093-.091l0,0,0,0h0l-5.869-4.891a.978.978,0,0,0-1.254,0l-5.869,4.891h0l0,0,0,0a1,1,0,0,0-.093.091l-.019.02a1.019,1.019,0,0,0-.078.1l-.012.02a.953.953,0,0,0-.058.109l-.006.012a1.115,1.115,0,0,0-.045.126l-.005.024a1.206,1.206,0,0,0-.024.12l0,.015a.953.953,0,0,0-.006.107v7.831a.979.979,0,0,0,.979.979h11.747a.98.98,0,0,0,.979-.979v-7.831a.758.758,0,0,0-.007-.107v-.015Zm-6.845-3.5,3.17,2.642h-6.339Zm-.979,10.473v-1.958h1.958v1.958Zm5.874,0h-1.958v-2.937a.979.979,0,0,0-.979-.979H555.6a.979.979,0,0,0-.978.979v2.937h-1.958v-5.873h9.789Zm0,0" fill="#006ca7"/>
      </g>
      <g id="Сгруппировать_294" data-name="Сгруппировать 294">
        <path id="Контур_216" data-name="Контур 216" d="M548.647,515.106h2.2a.977.977,0,0,0,.85-.49l1.1-1.9a.984.984,0,0,0,0-.982l-1.1-1.9a.976.976,0,0,0-.85-.491h-2.2a.979.979,0,0,0-.851.491l-1.1,1.9a.984.984,0,0,0,0,.982l1.1,1.9a.98.98,0,0,0,.851.49Zm.566-3.8h1.062l.531.919-.531.919h-1.062l-.53-.919Zm0,0" fill="#006ca7"/>
      </g>
    </g>
  </g>
</svg>
