<?xml version="1.0" standalone="no"?>
<!DOCTYPE svg PUBLIC "-//W3C//DTD SVG 20010904//EN"
 "http://www.w3.org/TR/2001/REC-SVG-20010904/DTD/svg10.dtd">
<svg version="1.0" xmlns="http://www.w3.org/2000/svg"
 width="700.000000pt" height="700.000000pt" viewBox="0 0 700.000000 700.000000"
 preserveAspectRatio="xMidYMid meet">
<metadata>
Created by potrace 1.11, written by Peter Selinger 2001-2013
</metadata>
<g transform="translate(0.000000,700.000000) scale(0.100000,-0.100000)"
fill="#000000" stroke="none">
<path d="M3310 6993 c-36 -4 -249 -39 -285 -47 -235 -53 -518 -184 -725 -334
-466 -339 -776 -868 -837 -1428 -10 -89 -10 -379 -1 -468 74 -680 511 -1299
1133 -1606 141 -69 341 -139 470 -165 205 -41 533 -56 690 -30 44 7 98 16 120
19 103 17 312 78 415 123 385 167 688 417 919 762 66 98 191 334 191 362 0 8
4 19 9 25 7 7 69 188 76 224 1 3 7 30 13 61 7 30 15 69 18 85 3 16 7 36 9 44
19 70 27 428 13 560 -20 186 -76 395 -155 578 -189 444 -535 809 -971 1027
-147 74 -353 147 -477 169 -16 3 -41 8 -55 11 -14 3 -47 8 -75 11 -27 3 -57 8
-65 11 -17 6 -378 11 -430 6z m325 -617 c414 -55 757 -365 864 -781 29 -113
32 -328 6 -440 -72 -316 -266 -568 -546 -710 -62 -32 -169 -72 -214 -81 -139
-27 -272 -37 -335 -23 -19 4 -46 10 -60 12 -90 17 -227 99 -303 182 -59 65
-131 195 -143 259 -2 12 -7 41 -12 66 -14 78 -5 195 23 277 50 146 143 262
274 341 106 63 196 84 368 86 79 1 144 0 144 -3 4 -19 3 -401 -1 -402 -3 -1
-59 -2 -125 -4 -157 -3 -201 -22 -253 -107 -57 -94 -16 -228 89 -284 25 -13
54 -18 114 -17 209 4 411 130 517 323 130 237 78 553 -122 738 -77 71 -211
138 -315 158 -38 8 -186 7 -245 -1 -124 -16 -294 -78 -405 -147 -355 -224
-544 -662 -460 -1068 3 -14 7 -36 10 -50 8 -44 45 -141 82 -214 173 -346 539
-567 928 -560 129 2 205 11 325 41 251 61 442 166 665 365 69 61 91 78 100 77
6 0 30 -24 55 -53 86 -99 165 -190 188 -214 26 -29 27 -38 8 -49 -8 -4 -34
-26 -58 -48 -372 -347 -813 -528 -1288 -529 -200 0 -351 28 -535 99 -93 36
-254 122 -291 156 -11 10 -25 19 -32 19 -6 0 -15 6 -19 13 -4 6 -24 24 -43 39
-60 45 -168 157 -229 236 -422 556 -390 1312 76 1832 236 263 563 429 914 466
35 3 65 7 66 8 5 4 172 -2 218 -8z"/>
<path d="M2070 2483 c0 -8 132 -348 151 -388 5 -11 65 -159 133 -330 103 -255
128 -310 143 -308 216 21 393 81 548 184 33 23 103 85 155 138 l95 98 0 -939
0 -938 205 0 205 0 0 939 c0 747 3 937 13 934 6 -3 12 -9 12 -13 0 -16 106
-125 179 -182 84 -67 213 -136 315 -167 89 -27 288 -63 296 -54 4 5 82 197
174 428 92 231 183 458 202 503 19 46 34 88 34 93 0 5 -589 9 -1430 9 -786 0
-1430 -3 -1430 -7z"/>
</g>
</svg>
