<svg xmlns="http://www.w3.org/2000/svg" width="75.849" height="125.091" viewBox="0 0 75.849 125.091">
  <g id="Сгруппировать_770" data-name="Сгруппировать 770" transform="translate(-786 -1924)">
    <path id="Контур_1219" data-name="Контур 1219" d="M0,39.7v85.4L75.849,87.382V0Z" transform="translate(786 1924)" fill="#cee8ff"/>
    <path id="call" d="M63.527,40.7a7.194,7.194,0,0,0-5.2-6.889L49.2,31.2V28.525a9.235,9.235,0,0,0,2.493-3.775,5.011,5.011,0,0,0,4.584-5.065H56.3V13.542a13.307,13.307,0,1,0-26.615,0v6.142h.028A5.011,5.011,0,0,0,34.3,24.75a9.223,9.223,0,0,0,2.553,3.829V31.2l-9.134,2.61a7.194,7.194,0,0,0-5.2,6.889v5.421a3.771,3.771,0,0,1-1.747-.964L18.55,42.928a3.919,3.919,0,0,1,0-5.542l1.2-1.2A5.917,5.917,0,0,0,21.5,31.972v-.2a5.964,5.964,0,0,0-1.474-3.924l-4.469-5.108a5.959,5.959,0,0,0-8.41-.562l-3.862,3.38A9.606,9.606,0,0,0,1.234,37.5,64.662,64.662,0,0,0,23.82,60.919l2.3,1.408A9.381,9.381,0,0,0,38.071,60.5l3.448-3.941a5.931,5.931,0,0,0,1.347-5.14H63.527ZM52.391,34.239l-3.55,6.388L44.51,37.018,48.423,33.1ZM53.456,21.75a3.07,3.07,0,0,1-1.292.827c.025-.279.043-.56.043-.846v-4.9a3.093,3.093,0,0,1,2.033,2.546,3.051,3.051,0,0,1-.784,2.371ZM42.994,2.282a11.274,11.274,0,0,1,11.26,11.26v2.134a5.378,5.378,0,0,0-3.247-1.111h-.6a9.4,9.4,0,0,1-6.691-2.771l-.724-.723-.724.723a9.4,9.4,0,0,1-6.691,2.771H34.8v0a5.37,5.37,0,0,0-3.071,1.107V13.542a11.274,11.274,0,0,1,11.26-11.26ZM32.532,21.75a3.049,3.049,0,0,1-.784-2.37,3.093,3.093,0,0,1,2.033-2.546v4.9c0,.286.017.566.043.846a3.08,3.08,0,0,1-1.292-.827Zm3.3-.018V16.6a11.415,11.415,0,0,0,7.166-2.694A11.415,11.415,0,0,0,50.159,16.6v5.129a7.166,7.166,0,1,1-14.331,0Zm7.166,9.213a9.141,9.141,0,0,0,4.155-1v1.541l-4.155,4.155L38.9,31.545V29.972a9.131,9.131,0,0,0,4.095.972Zm-5.416,2.173,3.9,3.9-4.331,3.609-3.541-6.374ZM14.012,24.091,18.482,29.2a3.911,3.911,0,0,1,.968,2.576v.2a3.888,3.888,0,0,1-.256,1.366L9.133,23.276a3.892,3.892,0,0,1,4.879.816Zm22.519,35.06a7.333,7.333,0,0,1-9.341,1.427l-2.3-1.408A62.607,62.607,0,0,1,3.018,36.5,7.558,7.558,0,0,1,4.628,27.1l2.9-2.538L18,35.039l-.9.9a5.964,5.964,0,0,0,0,8.437L19.326,46.6a5.966,5.966,0,0,0,8.437,0l.9-.9L39.137,56.173Zm3.9-4.582L30.366,44.508a3.916,3.916,0,0,1,1.366-.256h.194a3.914,3.914,0,0,1,2.577.969L39.61,49.69a3.9,3.9,0,0,1,.817,4.88Zm21.052-5.2H55.308V42.2H53.261V49.37H42.011a5.973,5.973,0,0,0-1.052-1.221L35.852,43.68A5.962,5.962,0,0,0,31.926,42.2h-.194a5.92,5.92,0,0,0-4.215,1.745l-1.2,1.2a3.776,3.776,0,0,1-1.747.964V40.7a5.139,5.139,0,0,1,3.712-4.921l3.3-.944,4.973,8.951,5.412-4.51v8.051h2.047V39.272l5.413,4.51,4.981-8.966,3.357.959A5.138,5.138,0,0,1,61.48,40.7Zm0,0" transform="translate(791.473 1951.031)" fill="#173c8f"/>
  </g>
</svg>
