<svg xmlns="http://www.w3.org/2000/svg" width="75.849" height="125.091" viewBox="0 0 75.849 125.091">
  <g id="Сгруппировать_771" data-name="Сгруппировать 771" transform="translate(-112.213 -2150)">
    <path id="Контур_1217" data-name="Контур 1217" d="M0,39.7v85.4L75.849,87.382V0Z" transform="translate(112.213 2150)" fill="#cee8ff"/>
    <path id="construction-worker" d="M46,46H38V43.63A14,14,0,0,0,45.949,32H47a3,3,0,0,0,3-3V26.722A1.993,1.993,0,0,0,51,25V21a2,2,0,0,0-2-2H48A16.036,16.036,0,0,0,35.95,3.508,3,3,0,0,0,33,1H31a3,3,0,0,0-2.95,2.508A16.036,16.036,0,0,0,16,19H15a2,2,0,0,0-2,2v4a1.993,1.993,0,0,0,1,1.722V29a3,3,0,0,0,3,3h1.051A14,14,0,0,0,26,43.63V46H18A13.015,13.015,0,0,0,5,59v3a1,1,0,0,0,1,1H58a1,1,0,0,0,1-1V59A13.015,13.015,0,0,0,46,46ZM32,53a6.006,6.006,0,0,0,5.91-5H40v7H24V48h2.09A6.006,6.006,0,0,0,32,53ZM22,55H20V48h2Zm-3,2H45a1,1,0,0,1,1,1v3H18V58A1,1,0,0,1,19,57Zm25-2H42V48h2Zm3-25H46V27h2v2A1,1,0,0,1,47,30ZM46,19H44V18a3,3,0,0,0-3-3H36V5.58A14.046,14.046,0,0,1,46,19Zm-5-2a1,1,0,0,1,1,1v1H22V18a1,1,0,0,1,1-1ZM31,3h2a1,1,0,0,1,1,1V15H30V4A1,1,0,0,1,31,3ZM28,5.58V15H23a3,3,0,0,0-3,3v1H18A14.046,14.046,0,0,1,28,5.58ZM15,21H49v4H15Zm1,8V27h2v3H17A1,1,0,0,1,16,29Zm4,2V27H44v4a12,12,0,0,1-24,0ZM32,45a13.917,13.917,0,0,0,4-.59V47a4,4,0,0,1-8,0V44.41A13.917,13.917,0,0,0,32,45ZM7,59A11.013,11.013,0,0,1,18,48v7.184A3,3,0,0,0,16,58v3H7Zm50,2H48V58a3,3,0,0,0-2-2.816V48A11.013,11.013,0,0,1,57,59Z" transform="translate(116 2179)" fill="#173c8f"/>
  </g>
</svg>
