<svg width="200" height="59" viewBox="0 0 200 59" fill="none" xmlns="http://www.w3.org/2000/svg">
<path d="M38.44 32.776H32.446L32.464 43H29.566V30.4H38.458L38.44 32.776ZM43.7819 33.172C45.2819 33.172 46.4339 33.532 47.2379 34.252C48.0419 34.96 48.4439 36.034 48.4439 37.474V43H45.8159V41.794C45.2879 42.694 44.3039 43.144 42.8639 43.144C42.1199 43.144 41.4719 43.018 40.9199 42.766C40.3799 42.514 39.9659 42.166 39.6779 41.722C39.3899 41.278 39.2459 40.774 39.2459 40.21C39.2459 39.31 39.5819 38.602 40.2539 38.086C40.9379 37.57 41.9879 37.312 43.4039 37.312H45.6359C45.6359 36.7 45.4499 36.232 45.0779 35.908C44.7059 35.572 44.1479 35.404 43.4039 35.404C42.8879 35.404 42.3779 35.488 41.8739 35.656C41.3819 35.812 40.9619 36.028 40.6139 36.304L39.6059 34.342C40.1339 33.97 40.7639 33.682 41.4959 33.478C42.2399 33.274 43.0019 33.172 43.7819 33.172ZM43.5659 41.254C44.0459 41.254 44.4719 41.146 44.8439 40.93C45.2159 40.702 45.4799 40.372 45.6359 39.94V38.95H43.7099C42.5579 38.95 41.9819 39.328 41.9819 40.084C41.9819 40.444 42.1199 40.732 42.3959 40.948C42.6839 41.152 43.0739 41.254 43.5659 41.254ZM56.5892 33.172C57.4892 33.172 58.3052 33.382 59.0372 33.802C59.7812 34.21 60.3632 34.792 60.7832 35.548C61.2032 36.292 61.4132 37.162 61.4132 38.158C61.4132 39.154 61.2032 40.03 60.7832 40.786C60.3632 41.53 59.7812 42.112 59.0372 42.532C58.3052 42.94 57.4892 43.144 56.5892 43.144C55.3532 43.144 54.3812 42.754 53.6732 41.974V46.492H50.8652V33.316H53.5472V34.432C54.2432 33.592 55.2572 33.172 56.5892 33.172ZM56.1032 40.84C56.8232 40.84 57.4112 40.6 57.8672 40.12C58.3352 39.628 58.5692 38.974 58.5692 38.158C58.5692 37.342 58.3352 36.694 57.8672 36.214C57.4112 35.722 56.8232 35.476 56.1032 35.476C55.3832 35.476 54.7892 35.722 54.3212 36.214C53.8652 36.694 53.6372 37.342 53.6372 38.158C53.6372 38.974 53.8652 39.628 54.3212 40.12C54.7892 40.6 55.3832 40.84 56.1032 40.84ZM66.985 33.172C68.485 33.172 69.637 33.532 70.441 34.252C71.245 34.96 71.647 36.034 71.647 37.474V43H69.019V41.794C68.491 42.694 67.507 43.144 66.067 43.144C65.323 43.144 64.675 43.018 64.123 42.766C63.583 42.514 63.169 42.166 62.881 41.722C62.593 41.278 62.449 40.774 62.449 40.21C62.449 39.31 62.785 38.602 63.457 38.086C64.141 37.57 65.191 37.312 66.607 37.312H68.839C68.839 36.7 68.653 36.232 68.281 35.908C67.909 35.572 67.351 35.404 66.607 35.404C66.091 35.404 65.581 35.488 65.077 35.656C64.585 35.812 64.165 36.028 63.817 36.304L62.809 34.342C63.337 33.97 63.967 33.682 64.699 33.478C65.443 33.274 66.205 33.172 66.985 33.172ZM66.769 41.254C67.249 41.254 67.675 41.146 68.047 40.93C68.419 40.702 68.683 40.372 68.839 39.94V38.95H66.913C65.761 38.95 65.185 39.328 65.185 40.084C65.185 40.444 65.323 40.732 65.599 40.948C65.887 41.152 66.277 41.254 66.769 41.254ZM74.0863 33.316H76.8763V37.096H81.0883V33.316H83.8963V43H81.0883V39.382H76.8763V43H74.0863V33.316ZM94.7204 35.62H91.4444V43H88.6544V35.62H85.3784V33.316H94.7204V35.62ZM106.985 30.4C108.101 30.4 109.067 30.586 109.883 30.958C110.711 31.33 111.347 31.858 111.791 32.542C112.235 33.226 112.457 34.036 112.457 34.972C112.457 35.896 112.235 36.706 111.791 37.402C111.347 38.086 110.711 38.614 109.883 38.986C109.067 39.346 108.101 39.526 106.985 39.526H104.447V43H101.531V30.4H106.985ZM106.823 37.15C107.699 37.15 108.365 36.964 108.821 36.592C109.277 36.208 109.505 35.668 109.505 34.972C109.505 34.264 109.277 33.724 108.821 33.352C108.365 32.968 107.699 32.776 106.823 32.776H104.447V37.15H106.823ZM123.561 38.194C123.561 38.23 123.543 38.482 123.507 38.95H116.181C116.313 39.55 116.625 40.024 117.117 40.372C117.609 40.72 118.221 40.894 118.953 40.894C119.457 40.894 119.901 40.822 120.285 40.678C120.681 40.522 121.047 40.282 121.383 39.958L122.877 41.578C121.965 42.622 120.633 43.144 118.881 43.144C117.789 43.144 116.823 42.934 115.983 42.514C115.143 42.082 114.495 41.488 114.039 40.732C113.583 39.976 113.355 39.118 113.355 38.158C113.355 37.21 113.577 36.358 114.021 35.602C114.477 34.834 115.095 34.24 115.875 33.82C116.667 33.388 117.549 33.172 118.521 33.172C119.469 33.172 120.327 33.376 121.095 33.784C121.863 34.192 122.463 34.78 122.895 35.548C123.339 36.304 123.561 37.186 123.561 38.194ZM118.539 35.296C117.903 35.296 117.369 35.476 116.937 35.836C116.505 36.196 116.241 36.688 116.145 37.312H120.915C120.819 36.7 120.555 36.214 120.123 35.854C119.691 35.482 119.163 35.296 118.539 35.296ZM135.163 43V37.204L132.265 42.064H131.077L128.251 37.186V43H125.713V33.316H128.647L131.743 38.914L135.037 33.316H137.665L137.701 43H135.163ZM144.927 43.144C143.907 43.144 142.989 42.934 142.173 42.514C141.369 42.082 140.739 41.488 140.283 40.732C139.827 39.976 139.599 39.118 139.599 38.158C139.599 37.198 139.827 36.34 140.283 35.584C140.739 34.828 141.369 34.24 142.173 33.82C142.989 33.388 143.907 33.172 144.927 33.172C145.947 33.172 146.859 33.388 147.663 33.82C148.467 34.24 149.097 34.828 149.553 35.584C150.009 36.34 150.237 37.198 150.237 38.158C150.237 39.118 150.009 39.976 149.553 40.732C149.097 41.488 148.467 42.082 147.663 42.514C146.859 42.934 145.947 43.144 144.927 43.144ZM144.927 40.84C145.647 40.84 146.235 40.6 146.691 40.12C147.159 39.628 147.393 38.974 147.393 38.158C147.393 37.342 147.159 36.694 146.691 36.214C146.235 35.722 145.647 35.476 144.927 35.476C144.207 35.476 143.613 35.722 143.145 36.214C142.677 36.694 142.443 37.342 142.443 38.158C142.443 38.974 142.677 39.628 143.145 40.12C143.613 40.6 144.207 40.84 144.927 40.84ZM152.168 33.316H154.958V37.096H159.17V33.316H161.978V43H159.17V39.382H154.958V43H152.168V33.316ZM172.802 35.62H169.526V43H166.736V35.62H163.46V33.316H172.802V35.62Z" fill="white"/>
<path d="M198 57H2V19.9592L110 2V19.9592H198V57Z" stroke="#FFC700" stroke-width="3"/>
</svg>
