<svg id="Сгруппировать_752" data-name="Сгруппировать 752" xmlns="http://www.w3.org/2000/svg" xmlns:xlink="http://www.w3.org/1999/xlink" width="68.025" height="70.086" viewBox="0 0 68.025 70.086">
  <defs>
    <clipPath id="clip-path">
      <rect id="Прямоугольник_574" data-name="Прямоугольник 574" width="68.025" height="70.086" fill="#173c8f"/>
    </clipPath>
  </defs>
  <path id="Контур_1273" data-name="Контур 1273" d="M58.737,276.662H56.611v-2.127h2.126Zm-4.253,0H52.358v-2.127h2.126Zm-4.253,0H48.1v-2.127h2.126Z" transform="translate(-39.325 -224.428)" fill="#173c8f"/>
  <g id="Сгруппировать_751" data-name="Сгруппировать 751">
    <g id="Сгруппировать_750" data-name="Сгруппировать 750" clip-path="url(#clip-path)">
      <path id="Контур_1274" data-name="Контур 1274" d="M64.827,67.96V56.331H62.7v3.123H43.573V47.7H62.7v6.512h2.126V41.417a7.417,7.417,0,0,0,2.135-5.211V33.949L62.477,16H51.961A18,18,0,0,0,45.4,4.039l-1.341,1.65a15.936,15.936,0,0,1-2.608,26.47V23.741c2.684-.46,4.253-2.711,4.253-6.22,0-4.451-2.335-7.938-5.316-7.938s-5.316,3.487-5.316,7.938c0,3.509,1.569,5.76,4.253,6.22v9.352a15.931,15.931,0,0,1-10.627,0l0-10.707h.354a3.9,3.9,0,0,0,3.9-3.9v-7.8H30.828V13.87H28.7V10.689H26.575V13.87H24.449V10.686H22.322v7.8a3.9,3.9,0,0,0,3.9,3.9h.354l0,9.772A15.938,15.938,0,1,1,42.428,4.527l1.125-1.8A18.069,18.069,0,0,0,16.066,16H5.531L1.045,33.949v2.257A7.417,7.417,0,0,0,3.18,41.417V67.96H0v2.126H68.025V67.96Zm.009-31.754a5.316,5.316,0,0,1-10.632,0h-.026l-.116-1.059H64.836Zm-4.02-18.074L64.539,33.02H53.83L52.2,18.132ZM50.788,24.769l.9,8.252H44.135a18.162,18.162,0,0,0,6.653-8.252m1.136,10.378.147,1.342a5.315,5.315,0,0,1-10.619-.112v-1.23ZM37.2,17.522c0-2.749,1.31-5.813,3.189-5.813s3.19,3.064,3.19,5.813c0,2.775-1.073,4.181-3.19,4.181S37.2,20.3,37.2,17.522M34.013,36.13a17.985,17.985,0,0,0,5.311-.8v.873h0a5.316,5.316,0,0,1-10.623.3V35.332a18,18,0,0,0,5.316.8M26.22,20.258a1.774,1.774,0,0,1-1.772-1.772V16h6.379v2.49a1.773,1.773,0,0,1-1.772,1.772Zm1.414,19.8a7.443,7.443,0,0,0,12.749-.024,7.439,7.439,0,0,0,12.758,0,7.435,7.435,0,0,0,9.56,2.9v2.638H5.306V42.933a7.436,7.436,0,0,0,9.569-2.911,7.444,7.444,0,0,0,12.758.039M15.947,36.105l.107-.958h5.21V33.02H16.29l.923-8.311a18.172,18.172,0,0,0,9.356,9.815v1.981a5.316,5.316,0,0,1-10.623-.3ZM7.191,18.132h8.614L14.151,33.02H3.469ZM3.172,36.206V35.147H13.8v1.059a5.316,5.316,0,1,1-10.632,0M24.444,67.96H5.306V61.581H24.444Zm0-8.506H5.306V47.7H24.444ZM41.437,67.96H26.57V47.7H41.437Zm21.264,0H43.563V61.581H62.7Z" fill="#173c8f"/>
      <rect id="Прямоугольник_572" data-name="Прямоугольник 572" width="2.126" height="4.253" transform="translate(30.814 55.206)" fill="#173c8f"/>
      <rect id="Прямоугольник_573" data-name="Прямоугольник 573" width="2.126" height="4.253" transform="translate(35.067 55.206)" fill="#173c8f"/>
    </g>
  </g>
</svg>
