<svg xmlns="http://www.w3.org/2000/svg" xmlns:xlink="http://www.w3.org/1999/xlink" width="82" height="53" viewBox="0 0 82 53">
  <defs>
    <clipPath id="clip-path">
      <rect id="Прямоугольник_575" data-name="Прямоугольник 575" width="82" height="53" transform="translate(0 -0.475)" fill="#173c8f"/>
    </clipPath>
  </defs>
  <g id="Сгруппировать_754" data-name="Сгруппировать 754" transform="translate(0 0.475)">
    <g id="Сгруппировать_753" data-name="Сгруппировать 753" clip-path="url(#clip-path)">
      <path id="Контур_1275" data-name="Контур 1275" d="M79.2,7.521a2.806,2.806,0,0,0,2.8-2.8V2.8A2.806,2.806,0,0,0,79.2,0H16.7a1.2,1.2,0,1,0,0,2.4H79.2a.4.4,0,0,1,.4.4V4.718a.4.4,0,0,1-.4.4H2.8a.4.4,0,0,1-.4-.4V2.8a.4.4,0,0,1,.4-.4h8.366a1.2,1.2,0,0,0,0-2.4H2.8A2.806,2.806,0,0,0,0,2.8V4.718a2.806,2.806,0,0,0,2.8,2.8H4.388V21.134H2.8a2.806,2.806,0,0,0-2.8,2.8v1.915a2.806,2.806,0,0,0,2.8,2.8H4.388v5.63H4.111a1.2,1.2,0,1,0,0,2.4h.277V50.85a1.2,1.2,0,0,0,1.2,1.2H57.454a1.2,1.2,0,0,0,0-2.4H55.242V36.686h9.709V49.648H62.983a1.2,1.2,0,0,0,0,2.4H76.411a1.2,1.2,0,0,0,1.2-1.2V36.686h.277a1.2,1.2,0,0,0,0-2.4h-.277v-5.63H79.2a2.806,2.806,0,0,0,2.8-2.8V23.936a2.806,2.806,0,0,0-2.8-2.8H77.613V7.521ZM6.79,28.654h7.856v5.63H6.79Zm22.37,8.032H37.24V49.648H29.16Zm-2.4,12.962H17.048V36.686h9.709ZM37.24,34.284H29.16v-5.63H37.24Zm-10.482,0H17.048v-5.63h9.709ZM6.79,36.686h7.856V49.648H6.79ZM52.84,49.648H44.76V45.927a1.2,1.2,0,1,0-2.4,0v3.722H39.642V28.654h2.716V40.4a1.2,1.2,0,0,0,2.4,0V36.686H52.84ZM44.76,28.654H52.84v5.63H44.76Zm10.481,0h9.709v5.63H55.242ZM75.21,49.648H67.354V36.686H75.21Zm0-15.364H67.354v-5.63H75.21ZM79.6,23.936v1.915a.4.4,0,0,1-.4.4H2.8a.4.4,0,0,1-.4-.4V23.936a.4.4,0,0,1,.4-.4H79.2a.4.4,0,0,1,.4.4m-26.244-2.8H28.647V14.968a.4.4,0,0,1,.4-.4H52.953a.4.4,0,0,1,.4.4Zm21.857,0H55.756V14.968a2.806,2.806,0,0,0-2.8-2.8H29.047a2.806,2.806,0,0,0-2.8,2.8v6.166H6.79V7.521H75.21Z" fill="#173c8f"/>
      <path id="Контур_1276" data-name="Контур 1276" d="M214.19,104.668H197.455a1.2,1.2,0,0,0,0,2.4H214.19a1.2,1.2,0,0,0,0-2.4" transform="translate(-164.823 -87.905)" fill="#173c8f"/>
      <path id="Контур_1277" data-name="Контур 1277" d="M61.244,107.07h2.681a1.2,1.2,0,0,0,0-2.4H61.244a1.2,1.2,0,1,0,0,2.4" transform="translate(-50.427 -87.905)" fill="#173c8f"/>
    </g>
  </g>
</svg>
