<svg id="Сгруппировать_756" data-name="Сгруппировать 756" xmlns="http://www.w3.org/2000/svg" xmlns:xlink="http://www.w3.org/1999/xlink" width="74" height="74" viewBox="0 0 74 74">
  <defs>
    <clipPath id="clip-path">
      <rect id="Прямоугольник_576" data-name="Прямоугольник 576" width="74" height="74" transform="translate(0 0)" fill="#173c8f"/>
    </clipPath>
  </defs>
  <g id="Сгруппировать_755" data-name="Сгруппировать 755" clip-path="url(#clip-path)">
    <path id="Контур_1278" data-name="Контур 1278" d="M65.891,327.445A1.445,1.445,0,1,1,64.445,326a1.445,1.445,0,0,1,1.445,1.445" transform="translate(-53.895 -278.883)" fill="#173c8f"/>
    <path id="Контур_1279" data-name="Контур 1279" d="M72.555,71.109H71.109V37a4.341,4.341,0,0,0-4.336-4.336H64.895V25.438a1.445,1.445,0,0,0-1.883-1.378l-7.223,2.293V16.766a1.445,1.445,0,0,0-1.445-1.445H50.008V12.43h4.336a1.445,1.445,0,0,0,1.445-1.445V1.445A1.445,1.445,0,0,0,54.344,0H19.656a1.445,1.445,0,0,0-1.445,1.445v9.539a1.445,1.445,0,0,0,1.445,1.445h4.336V15.32H19.656a1.445,1.445,0,0,0-1.445,1.445v9.588L10.988,24.06a1.445,1.445,0,0,0-1.883,1.378v7.227H7.227A4.341,4.341,0,0,0,2.891,37V71.109H1.445a1.445,1.445,0,0,0,0,2.891H72.555a1.445,1.445,0,0,0,0-2.891M66.773,35.555A1.447,1.447,0,0,1,68.219,37V71.109H64.895V35.555ZM62,27.413v43.7H55.789V29.386ZM21.1,2.891H52.9V9.539H21.1Zm5.781,9.539H47.117V15.32H26.883ZM52.9,18.211v52.9H47.117V57.234a1.445,1.445,0,0,0-1.445-1.445H28.328a1.445,1.445,0,0,0-1.445,1.445V71.109H21.1v-52.9ZM38.445,58.68h5.781v12.43H38.445Zm-2.891,12.43H29.773V58.68h5.781ZM5.781,37a1.447,1.447,0,0,1,1.445-1.445H9.105v7.227a1.445,1.445,0,0,0,2.891,0V27.413l6.215,1.973V71.109H12V54.344a1.445,1.445,0,0,0-2.891,0V71.109H5.781Z" fill="#173c8f"/>
    <path id="Контур_1280" data-name="Контур 1280" d="M167.445,154.672h8.672a1.445,1.445,0,0,0,1.445-1.445v-5.781A1.445,1.445,0,0,0,176.117,146h-8.672A1.445,1.445,0,0,0,166,147.445v5.781a1.445,1.445,0,0,0,1.445,1.445m1.445-5.781h5.781v2.891h-5.781Z" transform="translate(-142.008 -124.898)" fill="#173c8f"/>
    <path id="Контур_1281" data-name="Контур 1281" d="M267.445,154.672h8.672a1.445,1.445,0,0,0,1.445-1.445v-5.781A1.445,1.445,0,0,0,276.117,146h-8.672A1.445,1.445,0,0,0,266,147.445v5.781a1.445,1.445,0,0,0,1.445,1.445m1.445-5.781h5.781v2.891h-5.781Z" transform="translate(-227.555 -124.898)" fill="#173c8f"/>
    <path id="Контур_1282" data-name="Контур 1282" d="M167.445,234.672h8.672a1.445,1.445,0,0,0,1.445-1.445v-5.781A1.445,1.445,0,0,0,176.117,226h-8.672A1.445,1.445,0,0,0,166,227.445v5.781a1.445,1.445,0,0,0,1.445,1.445m1.445-5.781h5.781v2.891h-5.781Z" transform="translate(-142.008 -193.336)" fill="#173c8f"/>
    <path id="Контур_1283" data-name="Контур 1283" d="M267.445,234.672h8.672a1.445,1.445,0,0,0,1.445-1.445v-5.781A1.445,1.445,0,0,0,276.117,226h-8.672A1.445,1.445,0,0,0,266,227.445v5.781a1.445,1.445,0,0,0,1.445,1.445m1.445-5.781h5.781v2.891h-5.781Z" transform="translate(-227.555 -193.336)" fill="#173c8f"/>
    <path id="Контур_1284" data-name="Контур 1284" d="M167.445,314.672h8.672a1.445,1.445,0,0,0,1.445-1.445v-5.781A1.445,1.445,0,0,0,176.117,306h-8.672A1.445,1.445,0,0,0,166,307.445v5.781a1.445,1.445,0,0,0,1.445,1.445m1.445-5.781h5.781v2.891h-5.781Z" transform="translate(-142.008 -261.773)" fill="#173c8f"/>
    <path id="Контур_1285" data-name="Контур 1285" d="M267.445,314.672h8.672a1.445,1.445,0,0,0,1.445-1.445v-5.781A1.445,1.445,0,0,0,276.117,306h-8.672A1.445,1.445,0,0,0,266,307.445v5.781a1.445,1.445,0,0,0,1.445,1.445m1.445-5.781h5.781v2.891h-5.781Z" transform="translate(-227.555 -261.773)" fill="#173c8f"/>
  </g>
</svg>
