<svg id="Сгруппировать_758" data-name="Сгруппировать 758" xmlns="http://www.w3.org/2000/svg" xmlns:xlink="http://www.w3.org/1999/xlink" width="70" height="70" viewBox="0 0 70 70">
  <defs>
    <clipPath id="clip-path">
      <rect id="Прямоугольник_577" data-name="Прямоугольник 577" width="70" height="70" fill="#173c8f"/>
    </clipPath>
  </defs>
  <g id="Сгруппировать_757" data-name="Сгруппировать 757" clip-path="url(#clip-path)">
    <path id="Контур_1286" data-name="Контур 1286" d="M68.871,63.226H67.742V1.129A1.129,1.129,0,0,0,66.613,0H25.968a1.129,1.129,0,0,0-1.129,1.129V20.323H3.387a1.129,1.129,0,0,0-1.129,1.129V63.226H1.129A1.129,1.129,0,0,0,0,64.355v4.516A1.129,1.129,0,0,0,1.129,70H68.871A1.129,1.129,0,0,0,70,68.871V64.355a1.129,1.129,0,0,0-1.129-1.129m-16.935,0V57.581a5.645,5.645,0,0,0-11.29,0v5.645H38.387V49.677h27.1V63.226Zm-2.258,0H42.9V57.581a3.387,3.387,0,1,1,6.774,0ZM38.387,22.581H42.9v6.774H38.387Zm0,13.548H42.9V42.9H38.387Zm-2.258,0H27.1V27.1h9.032Zm-11.29,0H15.806V27.1h9.032Zm-11.29,0H4.516V27.1h9.032Zm0,11.29H4.516V38.387h9.032Zm2.258-9.032h9.032v9.032H15.806Zm11.29,0h9.032v9.032H27.1ZM65.484,15.806H27.1V2.258H65.484ZM27.1,18.065H65.484V47.419h-27.1V45.161h5.645a1.129,1.129,0,0,0,1.129-1.129V35a1.129,1.129,0,0,0-1.129-1.129H38.387V31.613h5.645a1.129,1.129,0,0,0,1.129-1.129V21.452a1.129,1.129,0,0,0-1.129-1.129H27.1Zm9.032,6.774H4.516V22.581H36.129ZM4.516,49.677H36.129V63.226h-7.9V53.065A1.129,1.129,0,0,0,27.1,51.935H13.548a1.129,1.129,0,0,0-1.129,1.129V63.226h-7.9Zm10.161,4.516h4.516v9.032H14.677Zm6.774,0h4.516v9.032H21.452Zm46.29,13.548H2.258V65.484H67.742Z" fill="#173c8f"/>
    <path id="Контур_1287" data-name="Контур 1287" d="M170.258,29.909l.118.239a1.176,1.176,0,0,0,2.02,0l.12-.239V33.03h2.258v-7.9a1.13,1.13,0,0,0-2.14-.505l-1.247,2.5-1.247-2.5a1.13,1.13,0,0,0-2.14.505v7.9h2.258Z" transform="translate(-136.387 -19.482)" fill="#173c8f"/>
    <path id="Контур_1288" data-name="Контур 1288" d="M218.258,30.774h2.258v2.258h2.258V27.387a3.387,3.387,0,1,0-6.774,0v5.645h2.258Zm1.129-4.516a1.13,1.13,0,0,1,1.129,1.129v1.129h-2.258V27.387a1.13,1.13,0,0,1,1.129-1.129" transform="translate(-175.355 -19.484)" fill="#173c8f"/>
    <path id="Контур_1289" data-name="Контур 1289" d="M265.129,33.032h3.387V30.774h-2.258V24H264v7.9a1.129,1.129,0,0,0,1.129,1.129" transform="translate(-214.323 -19.484)" fill="#173c8f"/>
    <path id="Контур_1290" data-name="Контур 1290" d="M301.129,33.032h3.387V30.774h-2.258V24H300v7.9a1.129,1.129,0,0,0,1.129,1.129" transform="translate(-243.548 -19.484)" fill="#173c8f"/>
    <path id="Контур_1291" data-name="Контур 1291" d="M253.129,119.29h13.548a1.129,1.129,0,0,0,1.129-1.129v-9.032A1.129,1.129,0,0,0,266.677,108H253.129A1.129,1.129,0,0,0,252,109.129v9.032a1.129,1.129,0,0,0,1.129,1.129m12.419-2.258h-4.516v-6.774h4.516Zm-11.29-6.774h4.516v6.774h-4.516Z" transform="translate(-204.581 -87.677)" fill="#173c8f"/>
    <path id="Контур_1292" data-name="Контур 1292" d="M253.129,191.29h13.548a1.129,1.129,0,0,0,1.129-1.129v-9.032A1.129,1.129,0,0,0,266.677,180H253.129A1.129,1.129,0,0,0,252,181.129v9.032a1.129,1.129,0,0,0,1.129,1.129m12.419-2.258h-4.516v-6.774h4.516Zm-11.29-6.774h4.516v6.774h-4.516Z" transform="translate(-204.581 -146.129)" fill="#173c8f"/>
  </g>
</svg>
