<svg xmlns="http://www.w3.org/2000/svg" width="83.356" height="72.185" viewBox="0 0 83.356 72.185">
  <g id="Сгруппировать_774" data-name="Сгруппировать 774" transform="translate(-534.5 -2914.647)">
    <path id="Контур_1207" data-name="Контур 1207" d="M0,22.691V71.5L43.356,49.949V0Z" transform="translate(534.5 2914.647)" fill="#ff6b16"/>
    <g id="sewage" transform="translate(548.144 2917.104)">
      <path id="Контур_1222" data-name="Контур 1222" d="M55.028,436.375a17.15,17.15,0,0,0-8.338,3.212l-3.284,2.451c-5.243,3.914-13.924,3.185-19.352-1.626a17.143,17.143,0,0,0-11.436-4.11A16.912,16.912,0,0,0,.279,441.275a1.021,1.021,0,0,0,1.485,1.4,14.868,14.868,0,0,1,10.854-4.332,15.107,15.107,0,0,1,10.082,3.6,19.328,19.328,0,0,0,10.713,4.573q.938.093,1.856.093a15.555,15.555,0,0,0,9.358-2.931l3.284-2.451a15.108,15.108,0,0,1,7.347-2.82,1.021,1.021,0,0,0-.231-2.03Z" transform="translate(0 -376.877)" fill="#173c8f"/>
      <path id="Контур_1223" data-name="Контур 1223" d="M433.676,437.5a1.021,1.021,0,0,0-.312,2.019,14.4,14.4,0,0,1,8.2,4.062,1.021,1.021,0,0,0,1.473-1.415A16.45,16.45,0,0,0,433.676,437.5Z" transform="translate(-373.611 -377.904)" fill="#173c8f"/>
      <path id="Контур_1224" data-name="Контур 1224" d="M46.7,55.354l-.834.613a10.007,10.007,0,0,0-.5-1.069,4.982,4.982,0,0,1-.7-2.826l3.25-2.425c5.923-4.421,15.1-3.811,20.043,1.332a1.021,1.021,0,0,0,1.473-1.415C63.809,43.715,53.4,43,46.69,48.009l-.895.668a6.727,6.727,0,0,0,.5-2.7,6.847,6.847,0,0,0-.933-3.6,4.851,4.851,0,0,1-.7-2.659,6.283,6.283,0,0,1,.049-.818,3.748,3.748,0,0,0,3.7-3.743V31.883a3.75,3.75,0,0,0-2.927-3.653s0-5.368,0-5.487a1.021,1.021,0,1,0-2.042.036c0,.107,0,5.36,0,5.36H26.414V24.463a2.386,2.386,0,0,0-2.383-2.383H10.756V12.685a1.021,1.021,0,0,0-2.042,0V23.373a1.7,1.7,0,0,1-1.7,1.7H3.744a1.7,1.7,0,0,1-1.7-1.7V3.766a1.7,1.7,0,0,1,1.7-1.7H7.012a1.7,1.7,0,0,1,1.7,1.7V7.919a1.021,1.021,0,0,0,2.042,0V5.06H12.8V8.8a1.7,1.7,0,0,0,1.7,1.7h9.259a1.7,1.7,0,0,0,1.7-1.7V5.06A18.089,18.089,0,0,1,42.779,18.268a1.021,1.021,0,0,0,1.968-.546,20.137,20.137,0,0,0-19.354-14.7H10.681a3.751,3.751,0,0,0-3.669-3H3.744A3.749,3.749,0,0,0,0,3.766V23.373a3.749,3.749,0,0,0,3.744,3.744H7.012a3.751,3.751,0,0,0,3.669-3H24.032a.341.341,0,0,1,.34.34V28.2a3.75,3.75,0,0,0-3.064,3.681V35.15a3.75,3.75,0,0,0,2.316,3.461,8.3,8.3,0,0,0-.07,1.1,6.847,6.847,0,0,0,.933,3.6,4.851,4.851,0,0,1,.7,2.659,5.488,5.488,0,0,1-.905,3.058c-.077-.066-.154-.132-.23-.2-6.541-5.8-17.873-5.388-23.775.862a1.021,1.021,0,0,0,1.485,1.4c5.191-5.5,15.169-5.848,20.936-.736.3.262.607.518.927.763a8.288,8.288,0,0,0-.071,1.112A8.04,8.04,0,0,0,24.466,56c.117.254.231.5.332.759-.318-.228-.57-.423-.745-.578C17.513,50.384,6.18,50.8.278,57.048a1.021,1.021,0,1,0,1.485,1.4c5.19-5.5,15.169-5.85,20.935-.738a16.9,16.9,0,0,0,1.765,1.3,1.713,1.713,0,0,0,2.6-1.773,9.275,9.275,0,0,0-.748-2.089,6.056,6.056,0,0,1-.723-2.908,4.853,4.853,0,0,1,.7-2.659,7.429,7.429,0,0,0,0-7.208,4.851,4.851,0,0,1-.7-2.659,6.29,6.29,0,0,1,.049-.817h3.9a1.021,1.021,0,1,0,0-2.042s-4.666-.023-4.743-.02a1.7,1.7,0,0,1-1.452-1.682V31.883a1.7,1.7,0,0,1,1.7-1.7H44.659a1.7,1.7,0,0,1,1.7,1.7v3.268a1.7,1.7,0,0,1-1.7,1.7H34.311a1.021,1.021,0,1,0,0,2.042h8.343c-.025.261-.037.533-.037.817a6.847,6.847,0,0,0,.933,3.6,5.394,5.394,0,0,1,0,5.318,7.2,7.2,0,0,0-.933,3.6,6.848,6.848,0,0,0,.933,3.6A6.3,6.3,0,0,1,44.059,57c.886,2.086,2.605,1.066,3.853-.007,5.924-4.421,15.1-3.81,20.043,1.334a1.021,1.021,0,0,0,1.473-1.415C63.81,51.065,53.4,50.353,46.7,55.354ZM14.841,8.464V5.06h8.578v3.4Z" transform="translate(0)" fill="#173c8f"/>
    </g>
  </g>
</svg>
