<svg xmlns="http://www.w3.org/2000/svg" width="84.508" height="77.636" viewBox="0 0 84.508 77.636">
  <g id="Сгруппировать_773" data-name="Сгруппировать 773" transform="translate(-1148.365 -2671.585)">
    <path id="Контур_1209" data-name="Контур 1209" d="M0,22.691V71.5L43.356,49.949V0Z" transform="translate(1148.365 2671.584)" fill="#ff6b16"/>
    <g id="_011---Water-Supply" data-name="011---Water-Supply" transform="translate(1167.127 2678.778)">
      <path id="Shape" d="M49.9,31.7c-.2,0-.391.022-.587.029V27.774l1.376,1.376a2.348,2.348,0,0,0,3.32,0l1.66-1.66a2.348,2.348,0,0,0,0-3.321L32.185.688a2.348,2.348,0,0,0-3.32,0L19.959,9.594V5.87a2.348,2.348,0,0,0-2.348-2.348H14.088A2.348,2.348,0,0,0,11.74,5.87V17.812L5.384,24.169a2.348,2.348,0,0,0,0,3.321l1.66,1.66a2.348,2.348,0,0,0,3.32,0l1.376-1.376v6.273h-.587A11.166,11.166,0,0,0,0,45.2V59.289a11.153,11.153,0,0,0,22.307,0,1.761,1.761,0,1,1,3.522,0v4.3a2.339,2.339,0,0,0-1.362,1.585l-.587,2.348a2.348,2.348,0,0,0,2.279,2.917h8.732a2.348,2.348,0,0,0,2.279-2.917l-.587-2.348a2.339,2.339,0,0,0-1.362-1.585v-4.3a11.153,11.153,0,0,0-22.307,0,1.761,1.761,0,0,1-3.522,0V45.2a1.761,1.761,0,0,1,1.761-1.761h.587a2.348,2.348,0,0,0,2.348,2.348H34.15a16.14,16.14,0,0,0-.1,1.761A15.85,15.85,0,1,0,49.9,31.7ZM14.088,5.87h3.522v6.072l-3.522,3.522ZM8.7,27.49l-1.66-1.661L30.525,2.348,54.006,25.829l-1.66,1.661L32.185,7.329a2.348,2.348,0,0,0-3.32,0Zm17.454,40.6.587-2.348H34.3l.587,2.348Zm-15.005-27A4.109,4.109,0,0,0,7.044,45.2V59.289a4.109,4.109,0,0,0,8.218,0,8.805,8.805,0,1,1,17.611,0V63.4h-4.7V59.289a4.109,4.109,0,1,0-8.218,0,8.805,8.805,0,0,1-17.611,0V45.2A8.815,8.815,0,0,1,11.153,36.4h.587v4.7Zm9.979,2.348V30.525h7.044V43.439Zm9.392,0V30.525a2.348,2.348,0,0,0-2.348-2.348H21.133a2.348,2.348,0,0,0-2.348,2.348V43.439h-4.7V25.426L30.525,8.99,46.961,25.426v6.557A15.876,15.876,0,0,0,34.607,43.439ZM49.9,61.05a13.5,13.5,0,1,1,13.5-13.5A13.5,13.5,0,0,1,49.9,61.05Z" transform="translate(0 0)" fill="#173c8f"/>
      <path id="Shape-2" data-name="Shape" d="M43.457,32a2.339,2.339,0,0,0-2.071,1.249C39.88,36.1,37,43.084,37,45.5a6.457,6.457,0,0,0,12.914,0c0-2.417-2.88-9.405-4.386-12.253A2.34,2.34,0,0,0,43.457,32Zm0,17.611A4.109,4.109,0,0,1,39.348,45.5c0-1.741,2.566-8.229,4.109-11.153C45,37.274,47.566,43.762,47.566,45.5a4.109,4.109,0,0,1-4.109,4.109Z" transform="translate(6.439 5.569)" fill="#173c8f"/>
    </g>
  </g>
</svg>
