<svg xmlns="http://www.w3.org/2000/svg" width="79.258" height="72.508" viewBox="0 0 79.258 72.508">
  <g id="Сгруппировать_771" data-name="Сгруппировать 771" transform="translate(-836.835 -2671.585)">
    <path id="Контур_1208" data-name="Контур 1208" d="M0,22.691V71.5L43.356,49.949V0Z" transform="translate(836.835 2671.584)" fill="#ff6b16"/>
    <path id="eco-house" d="M41.547,14.637q-1.891-1.088-3.778-2.185c.687-1.613,1.4-3.276,2.043-4.942a2.066,2.066,0,0,0-.227-1.923,2.15,2.15,0,0,0-3.337-.238c-2.7,2.565-5.358,5.071-8.04,7.613a2.188,2.188,0,0,0-.7,1.827,2.161,2.161,0,0,0,1.059,1.616c1.281.773,2.572,1.5,3.852,2.233-.637,1.5-1.422,3.324-2.045,4.935a2.085,2.085,0,0,0,1.055,2.641,2.12,2.12,0,0,0,2.508-.477c2.621-2.494,5.411-5.118,8.043-7.615a2.175,2.175,0,0,0,.7-1.839A2.207,2.207,0,0,0,41.547,14.637Zm-.984,1.993c-2.814,2.67-7.945,7.61-8.216,7.743-.02-.008-.069-.026-.057-.058.711-1.858,1.595-3.867,2.32-5.585a1.16,1.16,0,0,0-.517-1.5c-1.486-.855-2.988-1.692-4.464-2.583-.11-.066-.105-.1-.007-.19,1.764-1.672,7.595-7.333,8.2-7.739.054.012.075.041.075.053-.727,1.874-1.538,3.744-2.317,5.585a1.16,1.16,0,0,0,.513,1.505c1.478.853,2.952,1.713,4.431,2.562.151.087.156.1.041.211ZM62.989,53.24a1.028,1.028,0,0,0,1.028-1.028V29.572l3.711,1.792a1.714,1.714,0,0,0,2.457-1.544V23.666a1.72,1.72,0,0,0-.969-1.543l-18.78-9.069a15.544,15.544,0,1,0-30.1,7.39L2.056,29.274V23.881L16.719,16.8a1.028,1.028,0,0,0-.894-1.852L.971,22.122A1.721,1.721,0,0,0,0,23.666v6.154a1.714,1.714,0,0,0,2.458,1.544l3.711-1.792V64.017H1.851A1.853,1.853,0,0,0,0,65.867v2.467a1.853,1.853,0,0,0,1.851,1.851H68.335a1.853,1.853,0,0,0,1.851-1.851V65.867a1.853,1.853,0,0,0-1.851-1.851H64.017V56.324a1.028,1.028,0,1,0-2.056,0v7.693H36.121V56.434a7.859,7.859,0,0,0,6.82-7.779V41.927a1.958,1.958,0,0,0-1.956-1.956h-1.78V36.41a1.028,1.028,0,0,0-2.056,0v3.561H33.037V36.41a1.028,1.028,0,0,0-2.056,0v3.561H29.2a1.958,1.958,0,0,0-1.956,1.956v6.728a7.859,7.859,0,0,0,6.82,7.779v7.583H8.225V28.579l12.9-6.227a15.54,15.54,0,0,0,27.943,0l12.9,6.227V52.211A1.028,1.028,0,0,0,62.989,53.24ZM29.3,48.655V42.028H40.885v6.627a5.792,5.792,0,0,1-11.584,0ZM68.129,66.073v2.056H2.056V66.073ZM35.093,29.031A13.488,13.488,0,1,1,48.58,15.544,13.5,13.5,0,0,1,35.093,29.031Zm14.752-8.587a15.483,15.483,0,0,0,.792-4.9c0-.037,0-.073,0-.11l17.494,8.448v5.392Z" transform="translate(845.907 2673.907)" fill="#173c8f"/>
  </g>
</svg>
