<svg xmlns="http://www.w3.org/2000/svg" width="80.508" height="74.397" viewBox="0 0 80.508 74.397">
  <g id="Сгруппировать_775" data-name="Сгруппировать 775" transform="translate(-1148.365 -2910.771)">
    <path id="Контур_1209" data-name="Контур 1209" d="M0,22.691V71.5L43.356,49.949V0Z" transform="translate(1148.365 2913.584)" fill="#ff6b16"/>
    <g id="carpenter" transform="translate(1137.273 2910.771)">
      <g id="Сгруппировать_711" data-name="Сгруппировать 711" transform="translate(51.473 38.559)">
        <g id="Сгруппировать_710" data-name="Сгруппировать 710">
          <path id="Контур_1233" data-name="Контур 1233" d="M214.08,265.786a1.452,1.452,0,1,0,.426,1.027A1.46,1.46,0,0,0,214.08,265.786Z" transform="translate(-211.6 -265.359)" fill="#173c8f"/>
        </g>
      </g>
      <g id="Сгруппировать_713" data-name="Сгруппировать 713" transform="translate(38.796 38.56)">
        <g id="Сгруппировать_712" data-name="Сгруппировать 712">
          <path id="Контур_1234" data-name="Контур 1234" d="M133.364,265.366h-7.552a1.453,1.453,0,0,0,0,2.906h7.552a1.453,1.453,0,0,0,0-2.906Z" transform="translate(-124.358 -265.366)" fill="#173c8f"/>
        </g>
      </g>
      <g id="Сгруппировать_715" data-name="Сгруппировать 715" transform="translate(50.721 32.747)">
        <g id="Сгруппировать_714" data-name="Сгруппировать 714">
          <path id="Контур_1235" data-name="Контур 1235" d="M216.591,225.366h-8.711a1.453,1.453,0,0,0,0,2.906h8.711a1.453,1.453,0,0,0,0-2.906Z" transform="translate(-206.426 -225.366)" fill="#173c8f"/>
        </g>
      </g>
      <g id="Сгруппировать_717" data-name="Сгруппировать 717" transform="translate(24.249 10.607)">
        <g id="Сгруппировать_716" data-name="Сгруппировать 716">
          <path id="Контур_1236" data-name="Контур 1236" d="M91.555,134.98,84.892,108.6h4.855a1.453,1.453,0,0,0,1.453-1.453V92.034a1.453,1.453,0,0,0-1.453-1.453H85.066l-3.416-5.772a6.625,6.625,0,0,0-5.677-3.237H69.252l-2.59-6.315a1.453,1.453,0,0,0-1.344-.9H60.885a1.453,1.453,0,0,0-1.344,2l2.138,5.212H59.868l-4.51-7.844a1.453,1.453,0,0,0-2.519,1.448l4.736,8.237V85.35H42.163a1.453,1.453,0,1,0,0,2.906H57.574v2.325H26.1a1.453,1.453,0,0,0-1.453,1.453v15.112A1.453,1.453,0,0,0,26.1,108.6h4.855L24.294,134.98a1.453,1.453,0,0,0,1.409,1.809H30.79a1.453,1.453,0,0,0,1.384-1.011l4.459-13.956H79.215l4.459,13.956a1.453,1.453,0,0,0,1.384,1.011h5.088a1.453,1.453,0,0,0,1.409-1.809ZM64.343,77.261l1.768,4.311H64.82l-1.768-4.311ZM60.48,84.478H75.973a3.707,3.707,0,0,1,3.176,1.811l2.54,4.292H60.48ZM27.555,93.487H38.587L37,95.032a5.593,5.593,0,0,1-3.922,1.594H27.555Zm0,12.206V99.532h5.523a8.484,8.484,0,0,0,5.949-2.417l3.726-3.627h29.73a6.659,6.659,0,0,0-.588,1.057L69.79,99.3a3.753,3.753,0,0,1-3.43,2.233H62.993a1.453,1.453,0,1,0,0,2.906H66.36a6.661,6.661,0,0,0,6.088-3.964l2.105-4.759a3.753,3.753,0,0,1,3.43-2.233H88.294v4.65H78.849a1.453,1.453,0,1,0,0,2.906h9.445v4.65Zm2.174,28.19H27.568L33.954,108.6h3.853Zm7.833-14.967,3.3-10.317H74.991l3.3,10.317ZM86.12,133.883l-4.454-13.94,0-.014-3.62-11.33h3.853l6.386,25.283Z" transform="translate(-24.249 -72.999)" fill="#173c8f"/>
        </g>
      </g>
      <g id="Сгруппировать_719" data-name="Сгруппировать 719" transform="translate(30.195 17.721)">
        <g id="Сгруппировать_718" data-name="Сгруппировать 718">
          <path id="Контур_1237" data-name="Контур 1237" d="M83.822,121.957h-17.2a1.453,1.453,0,0,0,0,2.906h17.2a1.453,1.453,0,1,0,0-2.906Z" transform="translate(-65.168 -121.957)" fill="#173c8f"/>
        </g>
      </g>
      <g id="Сгруппировать_721" data-name="Сгруппировать 721" transform="translate(24.664 17.722)">
        <g id="Сгруппировать_720" data-name="Сгруппировать 720">
          <path id="Контур_1238" data-name="Контур 1238" d="M29.58,122.386a1.452,1.452,0,1,0,.426,1.027A1.458,1.458,0,0,0,29.58,122.386Z" transform="translate(-27.1 -121.96)" fill="#173c8f"/>
        </g>
      </g>
      <g id="Сгруппировать_723" data-name="Сгруппировать 723" transform="translate(69.155)">
        <g id="Сгруппировать_722" data-name="Сгруппировать 722">
          <path id="Контур_1239" data-name="Контур 1239" d="M337.643,2.906a.6.6,0,0,1,.6.6,1.453,1.453,0,0,0,2.906,0A3.51,3.51,0,0,0,337.643,0a4.361,4.361,0,0,0-4.356,4.356,5.564,5.564,0,0,0,5.558,5.558,1.453,1.453,0,0,0,0-2.906,2.655,2.655,0,0,1-2.652-2.652A1.452,1.452,0,0,1,337.643,2.906Z" transform="translate(-333.287)" fill="#173c8f"/>
        </g>
      </g>
      <g id="Сгруппировать_725" data-name="Сгруппировать 725" transform="translate(84.13 14.146)">
        <g id="Сгруппировать_724" data-name="Сгруппировать 724">
          <path id="Контур_1240" data-name="Контур 1240" d="M440.649,97.354a1.453,1.453,0,0,0-1.453,1.453,1.4,1.4,0,0,1-1.4,1.4,1.453,1.453,0,1,0,0,2.906,4.31,4.31,0,0,0,4.3-4.3A1.453,1.453,0,0,0,440.649,97.354Z" transform="translate(-436.344 -97.354)" fill="#173c8f"/>
        </g>
      </g>
      <g id="Сгруппировать_727" data-name="Сгруппировать 727" transform="translate(81.083 4.559)">
        <g id="Сгруппировать_726" data-name="Сгруппировать 726">
          <path id="Контур_1241" data-name="Контур 1241" d="M420.114,34.661a1.837,1.837,0,0,1-1.835-1.835,1.453,1.453,0,1,0-2.906,0,4.746,4.746,0,0,0,4.741,4.741,1.453,1.453,0,1,0,0-2.906Z" transform="translate(-415.373 -31.373)" fill="#173c8f"/>
        </g>
      </g>
      <g id="Сгруппировать_729" data-name="Сгруппировать 729" transform="translate(72.071 12.518)">
        <g id="Сгруппировать_728" data-name="Сгруппировать 728">
          <path id="Контур_1242" data-name="Контур 1242" d="M357.463,86.576a1.453,1.453,0,0,0-2.055,0L353.78,88.2a1.453,1.453,0,1,0,2.055,2.055l1.628-1.628A1.453,1.453,0,0,0,357.463,86.576Z" transform="translate(-353.354 -86.151)" fill="#173c8f"/>
        </g>
      </g>
    </g>
  </g>
</svg>
