<svg xmlns="http://www.w3.org/2000/svg" width="77.258" height="72.508" viewBox="0 0 77.258 72.508">
  <g id="Сгруппировать_772" data-name="Сгруппировать 772" transform="translate(-836.835 -2913.585)">
    <path id="Контур_1208" data-name="Контур 1208" d="M0,22.691V71.5L43.356,49.949V0Z" transform="translate(836.835 2913.584)" fill="#ff6b16"/>
    <g id="Outline" transform="translate(843.907 2915.907)">
      <g id="Сгруппировать_709" data-name="Сгруппировать 709" transform="translate(2 2)">
        <path id="Контур_1225" data-name="Контур 1225" d="M17.2,47.229a1.136,1.136,0,0,0,.485-.932V39.183a1.136,1.136,0,1,0-2.273,0v6.546a9.091,9.091,0,1,0,11.364,0V26.682a5.682,5.682,0,1,0-11.364,0v7.955a1.136,1.136,0,1,0,2.273,0V26.682a3.409,3.409,0,1,1,6.819,0v2.273H22.228V26.682a1.136,1.136,0,1,0-2.273,0V48.436a4.538,4.538,0,1,0,5.682,4.384,1.136,1.136,0,1,0-2.273,0,2.273,2.273,0,1,1-2.273-2.273,1.136,1.136,0,0,0,1.136-1.136V44.865H24.5V46.3a1.136,1.136,0,0,0,.485.932,6.819,6.819,0,1,1-7.789,0Zm5.031-11.455H24.5v2.273H22.228ZM24.5,31.228V33.5H22.228V31.228ZM22.228,42.592V40.319H24.5v2.273Z" transform="translate(-0.636 0.592)" fill="#173c8f"/>
        <path id="Контур_1226" data-name="Контур 1226" d="M33.136,52.546A1.136,1.136,0,0,0,32,53.682v4.546a1.136,1.136,0,0,0,1.136,1.136h4.546a1.136,1.136,0,1,0,0-2.273H34.273V54.819h3.409a1.136,1.136,0,0,0,1.136-1.136V49.136A1.136,1.136,0,0,0,37.682,48H33.136a1.136,1.136,0,1,0,0,2.273h3.409v2.273Z" transform="translate(2.093 4.276)" fill="#173c8f"/>
        <path id="Контур_1227" data-name="Контур 1227" d="M41.136,57.091a1.136,1.136,0,1,0,0,2.273h4.546a1.136,1.136,0,0,0,1.136-1.136V53.682a1.136,1.136,0,0,0-1.136-1.136H42.273V50.273h3.409a1.136,1.136,0,1,0,0-2.273H41.136A1.136,1.136,0,0,0,40,49.136v4.546a1.136,1.136,0,0,0,1.136,1.136h3.409v2.273Z" transform="translate(3.184 4.276)" fill="#173c8f"/>
        <circle id="Эллипс_128" data-name="Эллипс 128" cx="1" cy="1" r="1" transform="translate(50.093 49.093)" fill="#173c8f"/>
        <path id="Контур_1228" data-name="Контур 1228" d="M51.729,30.364A11.364,11.364,0,1,0,40.364,41.729,11.364,11.364,0,0,0,51.729,30.364Zm-20.456,0a9.091,9.091,0,1,1,9.091,9.091A9.091,9.091,0,0,1,31.273,30.364Z" transform="translate(1.683 0.319)" fill="#173c8f"/>
        <path id="Контур_1229" data-name="Контур 1229" d="M41.033,30.934a1.136,1.136,0,1,0,1.607-1.607,4.651,4.651,0,0,0-6.428,0,1.136,1.136,0,1,0,1.607,1.607,2.326,2.326,0,0,1,3.214,0Z" transform="translate(2.622 1.552)" fill="#173c8f"/>
        <path id="Контур_1230" data-name="Контур 1230" d="M44.634,28.27a1.136,1.136,0,1,0,1.607-1.607,9.091,9.091,0,0,0-12.858,0A1.136,1.136,0,1,0,34.99,28.27a6.819,6.819,0,0,1,9.644,0Z" transform="translate(2.236 1.001)" fill="#173c8f"/>
        <circle id="Эллипс_129" data-name="Эллипс 129" cx="1" cy="1" r="1" transform="translate(41.093 34.093)" fill="#173c8f"/>
        <path id="Контур_1231" data-name="Контур 1231" d="M69.695,24.93l-12.01-8.282V3.136A1.136,1.136,0,0,0,56.548,2H47.457a1.136,1.136,0,0,0-1.136,1.136V8.809L36.738,2.2a1.136,1.136,0,0,0-1.291,0L2.491,24.93A1.136,1.136,0,0,0,2,25.865v3.409a1.136,1.136,0,0,0,1.136,1.136H8.819v5.682a1.136,1.136,0,0,0,2.273,0V29.274a1.136,1.136,0,0,0-1.136-1.136H4.273V26.462L36.093,4.517,46.812,11.91a1.136,1.136,0,0,0,1.782-.932v-6.7h6.819V17.244a1.136,1.136,0,0,0,.491.935l12.01,8.282v1.676H62.231a1.136,1.136,0,0,0-1.136,1.136V53.139a1.136,1.136,0,1,0,2.273,0V30.411h5.682a1.136,1.136,0,0,0,1.136-1.136V25.865a1.136,1.136,0,0,0-.491-.935Z" transform="translate(-2 -2)" fill="#173c8f"/>
        <path id="Контур_1232" data-name="Контур 1232" d="M69.049,58.865H63.367V53.183a1.136,1.136,0,1,0-2.273,0V60a1.136,1.136,0,0,0,1.136,1.136h5.682v2.273H58.821V42.955a1.136,1.136,0,0,0-1.136-1.136H31.547a1.136,1.136,0,0,0,0,2.273h25V63.411h-25V60a1.136,1.136,0,1,0-2.273,0v3.409h-25V61.138H9.955A1.136,1.136,0,0,0,11.091,60V36.136a1.136,1.136,0,0,0-2.273,0V58.865H3.136A1.136,1.136,0,0,0,2,60v4.546a1.136,1.136,0,0,0,1.136,1.136H69.049a1.136,1.136,0,0,0,1.136-1.136V60A1.136,1.136,0,0,0,69.049,58.865Z" transform="translate(-2 2.502)" fill="#173c8f"/>
      </g>
    </g>
  </g>
</svg>
