<svg xmlns="http://www.w3.org/2000/svg" width="60.133" height="82" viewBox="0 0 60.133 82">
  <g id="location" transform="translate(-64)">
    <g id="Сгруппировать_656" data-name="Сгруппировать 656" transform="translate(64)">
      <g id="Сгруппировать_655" data-name="Сгруппировать 655" transform="translate(0)">
        <path id="Контур_1186" data-name="Контур 1186" d="M94.067,0A30.067,30.067,0,0,0,64,30.067c0,16.157,27.828,50,29.013,51.437a1.367,1.367,0,0,0,2.107,0c1.185-1.432,29.013-35.28,29.013-51.437A30.067,30.067,0,0,0,94.067,0Zm0,78.462c-5.143-6.419-27.333-34.9-27.333-48.395a27.333,27.333,0,0,1,54.667,0C121.4,43.556,99.209,72.041,94.067,78.462Z" transform="translate(-64)" fill="#173c8f"/>
        <path id="Контур_1187" data-name="Контур 1187" d="M165.737,77.954,147.97,64.287a1.367,1.367,0,0,0-1.667,0L128.536,77.954a1.367,1.367,0,0,0,.834,2.449h4.1V95.436a1.367,1.367,0,0,0,1.367,1.367h24.6a1.367,1.367,0,0,0,1.367-1.367V80.4h4.1a1.367,1.367,0,0,0,.834-2.449ZM149.87,94.07H144.4v-8.2h5.467Zm9.567-16.4a1.367,1.367,0,0,0-1.367,1.367V94.07H152.6V84.5a1.367,1.367,0,0,0-1.367-1.367h-8.2A1.367,1.367,0,0,0,141.67,84.5V94.07H136.2V79.036a1.367,1.367,0,0,0-1.367-1.367h-1.449l13.749-10.575L160.885,77.67Z" transform="translate(-117.07 -53.07)" fill="#173c8f"/>
      </g>
    </g>
  </g>
</svg>
