<svg xmlns="http://www.w3.org/2000/svg" width="68.186" height="68.186" viewBox="0 0 68.186 68.186">
  <g id="ventilate" transform="translate(-16 -16)">
    <rect id="Прямоугольник_564" data-name="Прямоугольник 564" width="6" height="2" transform="translate(31.093 41.093)" fill="#173c8f"/>
    <path id="Контур_1221" data-name="Контур 1221" d="M17.136,84.186H71.685a1.136,1.136,0,0,0,1.136-1.136V73.958a1.136,1.136,0,0,0-1.136-1.136H64.866V69.9a16.065,16.065,0,0,0,3.728-.3,15.056,15.056,0,0,0,10.582-8.082,15.231,15.231,0,0,0,1.6-6.777V33.046h2.273a1.136,1.136,0,0,0,.909-1.818L77.14,22.137a1.136,1.136,0,0,0-1.818,0L68.5,31.228a1.136,1.136,0,0,0,.909,1.818h2.273V44.4a8.31,8.31,0,0,1-3.134,6.52,6.61,6.61,0,0,1-7.085.751l-5.423-2.711a10.764,10.764,0,0,0-9.628,0l-5.023,2.512a8.544,8.544,0,0,1-3.8.9h0a8.523,8.523,0,0,1-3.793-.9l-5.431-2.716a8.861,8.861,0,0,0-2.138-.74V41.182l3.586-2.454H39.865V36.456H33.136l3.322-2.273H52.364l3.322,2.273H42.138v2.273h16.87L62.329,41h-23.6v2.273H62.593v6.819h2.273V42.737l.495.338a1.136,1.136,0,0,0,1.587-.308l2.273-3.409a1.136,1.136,0,0,0-.285-1.555l-6.343-4.53V17.136A1.136,1.136,0,0,0,61.457,16H54.638A1.136,1.136,0,0,0,53.5,17.136v9.643l-8.431-6.022a1.136,1.136,0,0,0-1.321,0L19.885,37.8a1.136,1.136,0,0,0-.285,1.555l2.273,3.409a1.136,1.136,0,0,0,1.587.308l.495-.338v5.092a9.058,9.058,0,0,0-5.086,1.816l-1.506,1.129A2.286,2.286,0,0,1,16,51.229V53.5a4.573,4.573,0,0,0,2.727-.909l1.506-1.13a6.812,6.812,0,0,1,4.12-1.37h.058a6.6,6.6,0,0,1,2.939.694L32.78,53.5a10.807,10.807,0,0,0,4.809,1.136h0A10.83,10.83,0,0,0,42.408,53.5l5.023-2.512a8.491,8.491,0,0,1,7.595,0L60.45,53.7a8.883,8.883,0,0,0,9.521-1.009,10.571,10.571,0,0,0,3.987-8.3V31.91a1.136,1.136,0,0,0-1.136-1.136H71.685l4.546-6.061,4.546,6.061H79.64A1.136,1.136,0,0,0,78.5,31.91V46.784a12.948,12.948,0,0,1-1.36,5.76,12.8,12.8,0,0,1-8.995,6.87,13.681,13.681,0,0,1-8.283-.918l-3.825-1.7a11.773,11.773,0,0,0-4.811-1.021,10.819,10.819,0,0,0-4.814,1.136l-5.023,2.512a8.544,8.544,0,0,1-3.8.9h0a8.523,8.523,0,0,1-3.793-.9l-5.431-2.716a8.888,8.888,0,0,0-3.955-.934h-.058A9.068,9.068,0,0,0,18.869,57.6L17.364,58.73A2.286,2.286,0,0,1,16,59.184v2.273a4.573,4.573,0,0,0,2.727-.909l1.506-1.13a6.812,6.812,0,0,1,4.12-1.37h.058a6.6,6.6,0,0,1,2.939.694l5.431,2.716a10.807,10.807,0,0,0,4.809,1.136h0a10.83,10.83,0,0,0,4.816-1.138l5.023-2.512a8.535,8.535,0,0,1,3.8-.9,9.514,9.514,0,0,1,3.888.825l3.825,1.7a15.941,15.941,0,0,0,9.652,1.07A15.042,15.042,0,0,0,78.5,54.768,12.948,12.948,0,0,1,77.144,60.5a12.8,12.8,0,0,1-8.995,6.87,13.681,13.681,0,0,1-8.283-.918l-3.825-1.7a11.773,11.773,0,0,0-4.811-1.021,10.819,10.819,0,0,0-4.814,1.136l-5.023,2.512a8.544,8.544,0,0,1-3.8.9h0a8.523,8.523,0,0,1-3.793-.9l-5.431-2.716a8.888,8.888,0,0,0-3.955-.934h-.058a9.068,9.068,0,0,0-5.484,1.825l-1.506,1.129A2.286,2.286,0,0,1,16,67.139v2.273a4.573,4.573,0,0,0,2.727-.909l1.506-1.13A6.812,6.812,0,0,1,24.353,66h.058a6.6,6.6,0,0,1,2.939.694l5.431,2.716a10.807,10.807,0,0,0,4.809,1.136h0a10.829,10.829,0,0,0,4.816-1.138L47.432,66.9a8.535,8.535,0,0,1,3.8-.9,9.514,9.514,0,0,1,3.888.825l3.825,1.7a16.062,16.062,0,0,0,3.651,1.126v3.167H51.229a1.136,1.136,0,0,0-1.136,1.136v1.136H39.865V73.958a1.136,1.136,0,0,0-1.136-1.136h-12.5V68.276H23.955v4.546H17.136A1.136,1.136,0,0,0,16,73.958v9.091a1.136,1.136,0,0,0,1.136,1.136ZM39.779,31.91l4.631-3.169,4.631,3.169Zm16-13.637h4.546V31.65L55.775,28.4ZM23.126,40.55,22.1,39.014,44.411,23.079,66.72,39.014,65.7,40.55,45.052,26.426a1.137,1.137,0,0,0-1.283,0ZM70.548,81.913h-12.5V75.094h12.5ZM52.366,75.094h3.409v6.819H52.366Zm-12.5,6.819V80.776H50.093v1.136Zm10.228-4.546V78.5H39.865V77.367Zm-12.5,4.546H34.183V75.094h3.409ZM18.273,75.094H31.91v6.819H18.273Z" fill="#173c8f"/>
  </g>
</svg>
