<svg width="64" height="64" viewBox="0 0 64 64" fill="none" xmlns="http://www.w3.org/2000/svg">
<path d="M64 33.0323V24.7495C64 22.4526 62.5217 20.4657 60.3221 19.8059L53.6774 17.8125V16.2445C55.5469 14.937 56.7742 12.7722 56.7742 10.3236V7.22581C56.7742 3.24143 53.5328 0 49.5484 0C45.564 0 42.3226 3.24143 42.3226 7.22581V10.3226C42.3226 12.7722 43.5499 14.937 45.4194 16.2434V17.8115L39.5635 19.5685C37.3659 17.6033 34.566 16.5161 31.5932 16.5161C28.6326 16.5161 25.9239 17.6008 23.8306 19.3881L18.5806 17.8125V16.2445C20.4501 14.937 21.6774 12.7722 21.6774 10.3236V7.22581C21.6774 3.24143 18.436 0 14.4516 0C10.4672 0 7.22581 3.24143 7.22581 7.22581V10.3226C7.22581 12.7722 8.45312 14.937 10.3226 16.2434V17.8115L3.67792 19.8049C1.47833 20.4657 0 22.4526 0 24.7495V33.0323H2.06452V24.7495C2.06452 23.3715 2.95111 22.1789 4.27167 21.7838L10.9183 19.7893C11.5192 20.5696 12.6815 21.6774 14.4516 21.6774C16.2218 21.6774 17.3841 20.5696 17.9849 19.7893L22.2182 21.059C20.8745 22.749 19.9793 24.8059 19.7077 27.0564C18.3896 25.6557 16.5232 24.7742 14.4516 24.7742C10.4672 24.7742 7.22581 28.0156 7.22581 32V35.0968C7.22581 37.5464 8.45312 39.7112 10.3226 41.0176V42.5857L3.67792 44.5791C1.47833 45.2399 0 47.2268 0 49.5237V58.8387H12.3871C12.9556 58.8387 13.4194 59.3024 13.4194 59.871V64H50.5806V59.871C50.5806 59.3024 51.0444 58.8387 51.6129 58.8387H64V49.5237C64 47.2268 62.5217 45.2399 60.3221 44.5801L53.6774 42.5867V41.0186C55.5469 39.7112 56.7742 37.5464 56.7742 35.0978V32.001C56.7742 28.0166 53.5328 24.7752 49.5484 24.7752C47.5272 24.7752 45.7001 25.6114 44.3871 26.9531V25.9748C44.3871 23.936 43.2792 22.1008 41.5504 21.1305L46.0151 19.7903C46.6159 20.5696 47.7782 21.6774 49.5484 21.6774C51.3185 21.6774 52.4808 20.5696 53.0816 19.7893L59.7293 21.7838C61.0489 22.1789 61.9355 23.3715 61.9355 24.7495V33.0323H64ZM14.4516 2.06452C17.2974 2.06452 19.6129 4.38004 19.6129 7.22581H14.879C14.2233 7.22581 13.5801 6.95968 13.1169 6.49597L12.3871 5.76613L11.6573 6.49597C11.1941 6.95968 10.5509 7.22581 9.89516 7.22581H9.29032C9.29032 4.38004 11.6058 2.06452 14.4516 2.06452ZM9.29032 10.3226V9.29032H9.89516C10.7944 9.29032 11.6532 9.03226 12.3871 8.5504C13.121 9.03226 13.9798 9.29032 14.879 9.29032H19.6129V10.3226C19.6129 13.1683 17.2974 15.4839 14.4516 15.4839C11.6058 15.4839 9.29032 13.1683 9.29032 10.3226ZM14.4516 19.6129C13.3543 19.6129 12.6431 18.691 12.3871 18.2969V17.245C13.0413 17.44 13.7344 17.5484 14.4516 17.5484C15.1688 17.5484 15.8619 17.44 16.5161 17.244V18.2959C16.2601 18.692 15.5489 19.6129 14.4516 19.6129ZM42.8261 37.7308C43.3518 39.066 44.2591 40.2077 45.4194 41.0186V42.5867L38.7757 44.5801C38.557 44.6452 38.3443 44.7298 38.1366 44.8236L37.1613 44.5988V42.565C38.2646 41.6784 39.1341 40.5141 39.6678 39.1794C40.8569 39.0751 41.9718 38.569 42.8261 37.7308ZM32 44.3871C33.0953 44.3871 34.1401 44.1683 35.0968 43.7792V44.9032L32 47.2258L28.9032 44.9032V43.7792C29.8599 44.1683 30.9047 44.3871 32 44.3871ZM27.6356 46.5333L30.1522 48.4214L27.5635 49.9748L26.9088 46.7016L27.6356 46.5333ZM30.8594 54.7097H33.1406L33.9435 61.9355H30.0564L30.8594 54.7097ZM33.3201 52.6452H30.6789L30.0862 50.8674L32 49.7198L33.9128 50.8674L33.3201 52.6452ZM33.8478 48.4214L36.3644 46.5333L37.0912 46.7006L36.4365 49.9738L33.8478 48.4214ZM41.5176 36.1477C41.1603 36.5398 40.7061 36.8145 40.2137 36.9819C40.2424 36.7011 40.2581 36.4168 40.2581 36.129V31.1895C41.3689 31.6109 42.1956 32.5882 42.307 33.756C42.3916 34.6447 42.1119 35.4929 41.5176 36.1477ZM38.1935 36.129C38.1935 39.5449 35.4158 42.3226 32 42.3226C28.5842 42.3226 25.8064 39.5449 25.8064 36.129V30.9677H29.311C31.5605 30.9677 33.7495 30.4062 35.7067 29.3337L36.5232 30.9677H38.1935V36.129ZM23.7863 36.9819C23.2938 36.8145 22.8397 36.5398 22.4824 36.1477C21.8881 35.4939 21.6084 34.6447 21.693 33.7571C21.8044 32.5892 22.631 31.6109 23.7419 31.1905V36.129C23.7419 36.4168 23.7576 36.7011 23.7863 36.9819ZM24.3322 39.1794C24.8649 40.5141 25.7344 41.6784 26.8387 42.565V44.5988L25.8634 44.8236C25.6547 44.7298 25.443 44.6462 25.2253 44.5801L18.5806 42.5867V41.0186C19.7399 40.2077 20.6482 39.066 21.1739 37.7308C22.0282 38.569 23.1431 39.0751 24.3322 39.1794ZM14.4516 26.8387C17.2974 26.8387 19.6129 29.1542 19.6129 32H19.0081C18.3523 32 17.7092 31.7339 17.246 31.2702L16.5161 30.5403L15.7863 31.2702C15.3231 31.7339 14.6799 32 14.0242 32H9.29032C9.29032 29.1542 11.6058 26.8387 14.4516 26.8387ZM9.29032 35.0968V34.0645H14.0242C14.9234 34.0645 15.7823 33.8064 16.5161 33.3246C17.25 33.8064 18.1089 34.0645 19.0081 34.0645H19.6129V35.0968C19.6129 37.9425 17.2974 40.2581 14.4516 40.2581C11.6058 40.2581 9.29032 37.9425 9.29032 35.0968ZM14.4516 42.3226C15.1688 42.3226 15.8619 42.2142 16.5161 42.0181V43.0701C16.2601 43.4662 15.5489 44.3871 14.4516 44.3871C13.3543 44.3871 12.6431 43.4652 12.3871 43.0711V42.0192C13.0413 42.2142 13.7344 42.3226 14.4516 42.3226ZM12.3871 56.7742H8.25806V49.5484H6.19355V56.7742H2.06452V49.5237C2.06452 48.1457 2.95111 46.9531 4.27167 46.558L10.9183 44.5635C11.5192 45.3438 12.6815 46.4516 14.4516 46.4516C16.2218 46.4516 17.3841 45.3438 17.9849 44.5635L21.8992 45.7384L19.0202 46.4022C15.7223 47.1638 13.4194 50.0595 13.4194 53.443V54.7097H15.4839V53.443C15.4839 51.0257 17.1295 48.9582 19.4849 48.4138L24.8962 47.1648L26.1129 53.251L28.2727 51.9556L28.8836 53.7888L27.9793 61.9355H22.7097V53.6774H20.6452V61.9355H15.4839V59.871C15.4839 58.1638 14.0943 56.7742 12.3871 56.7742ZM59.7283 46.558C61.0489 46.9531 61.9355 48.1457 61.9355 49.5237V56.7742H57.8064V49.5484H55.7419V56.7742H51.6129C49.9057 56.7742 48.5161 58.1638 48.5161 59.871V61.9355H43.3548V53.6774H41.2903V61.9355H36.0207L35.1154 53.7888L35.7263 51.9556L37.8861 53.251L39.1028 47.1648L44.5151 48.4138C46.8705 48.9582 48.5161 51.0257 48.5161 53.443V54.7097H50.5806V53.443C50.5806 50.0595 48.2777 47.1638 44.9798 46.4022L42.1008 45.7384L46.0151 44.5635C46.6159 45.3438 47.7782 46.4516 49.5484 46.4516C51.3185 46.4516 52.4808 45.3438 53.0816 44.5635L59.7283 46.558ZM51.6129 43.0711C51.3569 43.4662 50.6457 44.3871 49.5484 44.3871C48.4491 44.3871 47.7369 43.4622 47.4839 43.0711V42.0181C48.1381 42.2142 48.8311 42.3226 49.5484 42.3226C50.2656 42.3226 50.9587 42.2142 51.6129 42.0181V43.0711ZM49.5484 40.2581C46.7026 40.2581 44.3871 37.9425 44.3871 35.0968V34.0645H44.9919C45.8911 34.0645 46.75 33.8064 47.4839 33.3246C48.2177 33.8064 49.0766 34.0645 49.9758 34.0645H54.7097V35.0968C54.7097 37.9425 52.3941 40.2581 49.5484 40.2581ZM49.5484 26.8387C52.3941 26.8387 54.7097 29.1542 54.7097 32H49.9758C49.3201 32 48.6769 31.7339 48.2137 31.2702L47.4839 30.5403L46.754 31.2702C46.2908 31.7339 45.6477 32 44.9919 32H44.3871C44.3871 29.1542 46.7026 26.8387 49.5484 26.8387ZM42.3226 30.0232C41.4093 29.3317 40.2747 28.9032 39.0484 28.9032H37.7994L36.5297 26.3639L35.557 27.0121C33.7001 28.25 31.5408 28.9032 29.311 28.9032H24.9516C23.7253 28.9032 22.5907 29.3317 21.6774 30.0232V28.4965C21.6774 23.0297 26.1265 18.5806 31.5932 18.5806C34.2419 18.5806 36.7329 19.6119 38.6053 21.4844L39.7006 22.5796L39.932 22.6573C41.3614 23.1341 42.3226 24.4667 42.3226 25.9738V30.0232ZM49.5484 2.06452C52.3941 2.06452 54.7097 4.38004 54.7097 7.22581H54.1048C53.4491 7.22581 52.8059 6.95968 52.3427 6.49597L51.6129 5.76613L50.8831 6.49597C50.4199 6.95968 49.7767 7.22581 49.121 7.22581H44.3871C44.3871 4.38004 46.7026 2.06452 49.5484 2.06452ZM44.3871 10.3226V9.29032H49.121C50.0202 9.29032 50.879 9.03226 51.6129 8.5504C52.3468 9.03226 53.2056 9.29032 54.1048 9.29032H54.7097V10.3226C54.7097 13.1683 52.3941 15.4839 49.5484 15.4839C46.7026 15.4839 44.3871 13.1683 44.3871 10.3226ZM49.5484 19.6129C48.4491 19.6129 47.7369 18.688 47.4839 18.2969V17.244C48.1381 17.44 48.8311 17.5484 49.5484 17.5484C50.2656 17.5484 50.9587 17.44 51.6129 17.244V18.2959C51.3569 18.692 50.6457 19.6129 49.5484 19.6129Z" fill="#0E7BAB"/>
<path d="M23.7422 0H25.8067V2.06452H23.7422V0Z" fill="#0E7BAB"/>
<path d="M23.7422 4.12903H25.8067V15.4839H23.7422V4.12903Z" fill="#0E7BAB"/>
<path d="M38.1934 0H40.2579V2.06452H38.1934V0Z" fill="#0E7BAB"/>
<path d="M38.1934 4.12903H40.2579V15.4839H38.1934V4.12903Z" fill="#0E7BAB"/>
<path d="M27.8711 4.12903H29.9356V11.3548H27.8711V4.12903Z" fill="#0E7BAB"/>
<path d="M27.8711 13.4193H29.9356V15.4838H27.8711V13.4193Z" fill="#0E7BAB"/>
<path d="M34.0645 4.12903H36.129V11.3548H34.0645V4.12903Z" fill="#0E7BAB"/>
<path d="M34.0645 13.4193H36.129V15.4838H34.0645V13.4193Z" fill="#0E7BAB"/>
</svg>
