<svg width="64" height="64" viewBox="0 0 64 64" fill="none" xmlns="http://www.w3.org/2000/svg">
<path d="M58 1H20C18.6739 1 17.4021 1.52678 16.4645 2.46447C15.5268 3.40215 15 4.67392 15 6V9H6C5.34339 9 4.69321 9.12933 4.08658 9.3806C3.47995 9.63188 2.92876 10.0002 2.46447 10.4645C1.52678 11.4021 1 12.6739 1 14V44C1 45.3261 1.52678 46.5979 2.46447 47.5355C2.92876 47.9998 3.47995 48.3681 4.08658 48.6194C4.69321 48.8707 5.34339 49 6 49H20V55H18C16.6739 55 15.4021 55.5268 14.4645 56.4645C13.5268 57.4021 13 58.6739 13 60V62C13 62.2652 13.1054 62.5196 13.2929 62.7071C13.4804 62.8946 13.7348 63 14 63H40C40.2652 63 40.5196 62.8946 40.7071 62.7071C40.8946 62.5196 41 62.2652 41 62V60C41 59.3434 40.8707 58.6932 40.6194 58.0866C40.3681 57.48 39.9998 56.9288 39.5355 56.4645C39.0712 56.0002 38.52 55.6319 37.9134 55.3806C37.3068 55.1293 36.6566 55 36 55H34V49H48C49.3261 49 50.5979 48.4732 51.5355 47.5355C52.4732 46.5979 53 45.3261 53 44V37H58C59.3261 37 60.5979 36.4732 61.5355 35.5355C62.4732 34.5979 63 33.3261 63 32V6C63 5.34339 62.8707 4.69321 62.6194 4.08658C62.3681 3.47995 61.9998 2.92876 61.5355 2.46447C61.0712 2.00017 60.52 1.63188 59.9134 1.3806C59.3068 1.12933 58.6566 1 58 1ZM20 3H58C58.7957 3 59.5587 3.31607 60.1213 3.87868C60.6839 4.44129 61 5.20435 61 6V7H17V6C17 5.20435 17.3161 4.44129 17.8787 3.87868C18.4413 3.31607 19.2044 3 20 3ZM39 60V61H15V60C15 59.2043 15.3161 58.4413 15.8787 57.8787C16.4413 57.3161 17.2044 57 18 57H36C36.7957 57 37.5587 57.3161 38.1213 57.8787C38.6839 58.4413 39 59.2043 39 60ZM32 55H22V49H32V55ZM48 47H6C5.20435 47 4.44129 46.6839 3.87868 46.1213C3.31607 45.5587 3 44.7957 3 44V41H51V44C51 44.7957 50.6839 45.5587 50.1213 46.1213C49.5587 46.6839 48.7957 47 48 47ZM51 39H3V14C3 13.2044 3.31607 12.4413 3.87868 11.8787C4.44129 11.3161 5.20435 11 6 11H15V32C15 33.3261 15.5268 34.5979 16.4645 35.5355C17.4021 36.4732 18.6739 37 20 37H51V39ZM58 35H20C19.2044 35 18.4413 34.6839 17.8787 34.1213C17.3161 33.5587 17 32.7956 17 32V9H61V32C61 32.7956 60.6839 33.5587 60.1213 34.1213C59.5587 34.6839 58.7957 35 58 35Z" fill="#0E7BAB"/>
<path d="M47 43H49V45H47V43Z" fill="#0E7BAB"/>
<path d="M43 43H45V45H43V43Z" fill="#0E7BAB"/>
<path d="M39 43H41V45H39V43Z" fill="#0E7BAB"/>
<path d="M58 11H20C19.7348 11 19.4804 11.1054 19.2929 11.2929C19.1054 11.4804 19 11.7348 19 12V32C19 32.2652 19.1054 32.5196 19.2929 32.7071C19.4804 32.8946 19.7348 33 20 33H58C58.2652 33 58.5196 32.8946 58.7071 32.7071C58.8946 32.5196 59 32.2652 59 32V12C59 11.7348 58.8946 11.4804 58.7071 11.2929C58.5196 11.1054 58.2652 11 58 11ZM27 29H31V27H27V25H29V23H27V21H29V19H27V17H33V31H27V29ZM42.11 22.83C41.8823 22.9403 41.633 22.9984 41.38 23H40.62C40.367 22.9984 40.1177 22.9403 39.89 22.83C39.621 22.6955 39.3951 22.4884 39.2378 22.2322C39.0805 21.9759 38.9981 21.6807 39 21.38C38.9989 21.1513 39.062 20.927 39.1823 20.7325C39.3025 20.538 39.475 20.3812 39.68 20.28C40.0402 20.1027 40.35 19.8376 40.5807 19.509C40.8114 19.1804 40.9556 18.799 41 18.4L42.33 19.73C42.5449 19.9473 42.7146 20.205 42.8296 20.4882C42.9446 20.7713 43.0025 21.0744 43 21.38C43.0019 21.6807 42.9195 21.9759 42.7622 22.2322C42.6049 22.4884 42.379 22.6955 42.11 22.83ZM40 24.93C40.2046 24.9687 40.4119 24.9921 40.62 25H41.38C41.5881 24.9921 41.7954 24.9687 42 24.93V31H40V24.93ZM49 23H51V31H49V23ZM49.39 21L50 19.16L50.61 21H49.39ZM57 31H53V22C53.0144 21.8938 53.0144 21.7862 53 21.68L51 15.68C50.9342 15.4799 50.807 15.3057 50.6364 15.1822C50.4658 15.0587 50.2606 14.9922 50.05 14.9922C49.8394 14.9922 49.6342 15.0587 49.4636 15.1822C49.293 15.3057 49.1658 15.4799 49.1 15.68L47.1 21.68C47.0517 21.7814 47.0181 21.8891 47 22V31H44V23.87C44.6427 23.2005 45.001 22.3081 45 21.38C45.0028 20.8111 44.892 20.2473 44.6739 19.7218C44.4558 19.1963 44.1349 18.7197 43.73 18.32L40.73 15.32C40.5894 15.1812 40.4108 15.0872 40.2168 15.0499C40.0228 15.0125 39.8221 15.0334 39.64 15.11C39.4583 15.1799 39.3009 15.3014 39.1872 15.4595C39.0735 15.6176 39.0084 15.8054 39 16V18.15C38.9989 18.2203 38.9788 18.2891 38.9419 18.3489C38.9049 18.4088 38.8524 18.4575 38.79 18.49C38.2518 18.7568 37.7989 19.1688 37.4825 19.6795C37.1662 20.1902 36.9991 20.7793 37 21.38C36.999 22.3081 37.3573 23.2005 38 23.87V31H35V16C35 15.7348 34.8946 15.4804 34.7071 15.2929C34.5196 15.1054 34.2652 15 34 15H26C25.7348 15 25.4804 15.1054 25.2929 15.2929C25.1054 15.4804 25 15.7348 25 16V31H21V13H57V31Z" fill="#0E7BAB"/>
</svg>
