<svg width="64" height="64" viewBox="0 0 64 64" fill="none" xmlns="http://www.w3.org/2000/svg">
<path d="M57.495 47.0631C57.564 46.9825 57.6174 46.8897 57.6525 46.7896C60.2548 42.2951 61.6251 37.1936 61.6251 32.0001C61.6251 26.8066 60.2548 21.7051 57.6525 17.2106C57.6174 17.1105 57.564 17.0177 57.495 16.9371C53.6465 10.4471 47.4758 5.66183 40.232 3.55011C40.1583 3.5165 40.0802 3.49344 40 3.48161C34.7687 2.00613 29.2313 2.00613 24 3.48161C23.9211 3.4928 23.8441 3.51467 23.771 3.54661C16.5254 5.6582 10.3533 10.4449 6.50503 16.9371C6.43605 17.0177 6.38264 17.1105 6.34753 17.2106C3.7453 21.7051 2.375 26.8066 2.375 32.0001C2.375 37.1936 3.7453 42.2951 6.34753 46.7896C6.38264 46.8897 6.43605 46.9825 6.50503 47.0631C10.3504 53.5504 16.5161 58.335 23.755 60.4491C23.8315 60.4832 23.9125 60.5063 23.9955 60.5176C29.2284 61.9939 34.7677 61.9939 40.0005 60.5176C40.0878 60.5066 40.1729 60.4825 40.253 60.4461C47.4883 58.3306 53.6508 53.5474 57.495 47.0631ZM32.875 59.8531V47.3751H44.8315C43.5315 52.1301 41.661 56.0811 39.386 58.8751C37.2622 59.4581 35.0765 59.7864 32.875 59.8531ZM24.614 58.8741C22.339 56.0811 20.4685 52.1306 19.1685 47.3741H31.125V59.8521C28.9236 59.7854 26.7379 59.4571 24.614 58.8741ZM4.14703 32.8741H8.00003V39.7501C8.00016 39.9821 8.09239 40.2046 8.25646 40.3687C8.42052 40.5327 8.643 40.625 8.87503 40.6251H16.0325C16.2645 42.3366 16.5655 44.0101 16.9325 45.6251H7.69503C5.49886 41.7245 4.2814 37.3495 4.14703 32.8751V32.8741ZM7.69703 18.3741H16.933C16.5655 19.9891 16.2645 21.6631 16.033 23.3741H8.87503C8.76006 23.3742 8.64622 23.3969 8.54003 23.4409C8.43383 23.485 8.33735 23.5495 8.2561 23.6309C8.17485 23.7122 8.11042 23.8088 8.06648 23.915C8.02254 24.0213 7.99996 24.1351 8.00003 24.2501V31.1251H4.14703C4.2814 26.6507 5.49886 22.2757 7.69503 18.3751L7.69703 18.3741ZM31.125 4.14711V16.6251H19.1685C20.4685 11.8701 22.339 7.91911 24.614 5.12511C26.7379 4.54208 28.9236 4.21377 31.125 4.14711ZM39.386 5.12611C41.661 7.91911 43.5315 11.8696 44.8315 16.6261H32.875V4.14711C35.0765 4.2141 37.2622 4.54274 39.386 5.12611ZM59.853 31.1261H56V24.2501C55.9999 24.0181 55.9077 23.7956 55.7436 23.6315C55.5795 23.4675 55.3571 23.3752 55.125 23.3751H47.9675C47.7355 21.6636 47.4345 19.9901 47.0675 18.3751H56.305C58.5012 22.2757 59.7187 26.6507 59.853 31.1251V31.1261ZM56.303 45.6261H47.067C47.4345 44.0111 47.7355 42.3371 47.967 40.6261H55.125C55.24 40.626 55.3538 40.6033 55.46 40.5593C55.5662 40.5152 55.6627 40.4507 55.744 40.3693C55.8252 40.288 55.8896 40.1914 55.9336 40.0852C55.9775 39.9789 56.0001 39.8651 56 39.7501V32.8751H59.853C59.7187 37.3495 58.5012 41.7245 56.305 45.6251L56.303 45.6261ZM32.873 45.6261V40.6261H46.2C45.9605 42.3416 45.65 44.0156 45.269 45.6261H32.873ZM9.75003 38.8751V25.1251H54.25V38.8751H9.75003ZM46.2 23.3751H32.875V18.3751H45.2705C45.65 19.9851 45.9615 21.6596 46.2 23.3751ZM31.1235 18.3751V23.3751H17.8C18.0395 21.6596 18.35 19.9856 18.731 18.3751H31.1235ZM17.8 40.6251H31.125V45.6251H18.7295C18.35 44.0146 18.0385 42.3406 17.8 40.6251ZM42.228 57.9251C44.2369 54.6581 45.7263 51.0991 46.643 47.3751H55.2375C52.0772 52.1353 47.5374 55.8157 42.2265 57.9231L42.228 57.9251ZM55.2375 16.6251H46.6415C45.7243 12.9013 44.2349 9.34231 42.2265 6.07511C47.537 8.18358 52.0762 11.8646 55.236 16.6251H55.2375ZM21.775 6.07511C19.7665 9.34225 18.2772 12.9013 17.36 16.6251H8.76403C11.9239 11.8651 16.4632 8.18449 21.7735 6.07661L21.775 6.07511ZM8.76403 47.3751H17.3585C18.2753 51.099 19.7645 54.658 21.773 57.9251C16.4628 55.8165 11.9237 52.1355 8.76403 47.3751Z" fill="#0E7BAB"/>
<path d="M22.895 33.594L21.156 28.3125H19.696L17.9465 33.594L16.3685 28.3125H14.8975L17.238 35.6875H18.569L20.426 30.213L22.2725 35.6875H23.6145L25.9435 28.3125H24.473L22.895 33.594Z" fill="#0E7BAB"/>
<path d="M33.8525 35.6875H35.1941L37.5236 28.3125H36.0525L34.475 33.594L32.736 28.3125H31.276L29.526 33.594L27.9485 28.3125H26.4775L28.8175 35.6875H30.149L32.006 30.213L33.8525 35.6875Z" fill="#0E7BAB"/>
<path d="M41.7281 35.6875L43.5846 30.213L45.4311 35.6875H46.7731L49.1026 28.3125H47.6316L46.0536 33.594L44.3146 28.3125H42.8546L41.1051 33.594L39.5271 28.3125H38.0566L40.3966 35.6875H41.7281Z" fill="#0E7BAB"/>
</svg>
