<svg width="64" height="64" viewBox="0 0 64 64" fill="none" xmlns="http://www.w3.org/2000/svg">
<path d="M30 8H37V16C37 16.2652 37.1054 16.5196 37.2929 16.7071C37.4804 16.8946 37.7348 17 38 17H46C46.2652 17 46.5196 16.8946 46.7071 16.7071C46.8946 16.5196 47 16.2652 47 16V8H54V18H56V7C56 6.73478 55.8946 6.48043 55.7071 6.29289C55.5196 6.10536 55.2652 6 55 6H3C2.73478 6 2.48043 6.10536 2.29289 6.29289C2.10536 6.48043 2 6.73478 2 7V59C2 59.2652 2.10536 59.5196 2.29289 59.7071C2.48043 59.8946 2.73478 60 3 60H34V58H30V34H34V32H30V8ZM45 15H39V8H45V15ZM13 8H19V15H13V8ZM11 8V16C11 16.2652 11.1054 16.5196 11.2929 16.7071C11.4804 16.8946 11.7348 17 12 17H20C20.2652 17 20.5196 16.8946 20.7071 16.7071C20.8946 16.5196 21 16.2652 21 16V8H28V32H4V8H11ZM13 34H19V41H13V34ZM28 58H4V34H11V42C11 42.2652 11.1054 42.5196 11.2929 42.7071C11.4804 42.8946 11.7348 43 12 43H20C20.2652 43 20.5196 42.8946 20.7071 42.7071C20.8946 42.5196 21 42.2652 21 42V34H28V58Z" fill="#0E7BAB"/>
<path d="M24 28H26V30H24V28Z" fill="#0E7BAB"/>
<path d="M20 28H22V30H20V28Z" fill="#0E7BAB"/>
<path d="M24 54H26V56H24V54Z" fill="#0E7BAB"/>
<path d="M20 54H22V56H20V54Z" fill="#0E7BAB"/>
<path d="M11 2H41V4H11V2Z" fill="#0E7BAB"/>
<path d="M43 2H45V4H43V2Z" fill="#0E7BAB"/>
<path d="M58 20H40C38.9395 20.0012 37.9228 20.423 37.1729 21.1729C36.423 21.9228 36.0012 22.9395 36 24V58C36.0012 59.0605 36.423 60.0772 37.1729 60.8271C37.9228 61.577 38.9395 61.9988 40 62H58C59.0605 61.9988 60.0772 61.577 60.8271 60.8271C61.577 60.0772 61.9988 59.0605 62 58V24C61.9988 22.9395 61.577 21.9228 60.8271 21.1729C60.0772 20.423 59.0605 20.0012 58 20ZM60 58C59.9994 58.5302 59.7885 59.0386 59.4135 59.4135C59.0386 59.7885 58.5302 59.9994 58 60H40C39.4698 59.9994 38.9614 59.7885 38.5865 59.4135C38.2115 59.0386 38.0006 58.5302 38 58V24C38.0006 23.4698 38.2115 22.9614 38.5865 22.5865C38.9614 22.2115 39.4698 22.0006 40 22H58C58.5302 22.0006 59.0386 22.2115 59.4135 22.5865C59.7885 22.9614 59.9994 23.4698 60 24V58Z" fill="#0E7BAB"/>
<path d="M46 24H48V26H46V24Z" fill="#0E7BAB"/>
<path d="M50 24H52V26H50V24Z" fill="#0E7BAB"/>
<path d="M48 56H50V58H48V56Z" fill="#0E7BAB"/>
<path d="M49.0002 37.586L47.1916 35.7772L45.7773 37.1915L48.2931 39.7072C48.386 39.8001 48.4962 39.8738 48.6175 39.924C48.7389 39.9743 48.8689 40.0001 49.0002 40.0001C49.1315 40.0001 49.2616 39.9743 49.3829 39.924C49.5042 39.8738 49.6145 39.8001 49.7073 39.7072L57.7073 31.7072L56.2931 30.293L49.0002 37.586Z" fill="#0E7BAB"/>
<path d="M49 44C50.8559 43.9979 52.6351 43.2598 53.9475 41.9475C55.2598 40.6352 55.9979 38.8559 56 37H54C53.9995 38.0999 53.636 39.1689 52.9661 40.0413C52.2962 40.9137 51.3572 41.5407 50.2947 41.8251C49.2322 42.1095 48.1055 42.0354 47.0894 41.6143C46.0733 41.1933 45.2244 40.4487 44.6745 39.4962C44.1245 38.5436 43.9042 37.4362 44.0477 36.3457C44.1911 35.2552 44.6904 34.2424 45.468 33.4645C46.2455 32.6866 47.258 32.1869 48.3485 32.043C49.439 31.899 50.5464 32.1189 51.4993 32.6684L52.5008 30.9371C51.5709 30.4005 50.5301 30.085 49.4588 30.0149C48.3875 29.9449 47.3145 30.1221 46.3227 30.5331C45.3308 30.944 44.4468 31.5775 43.739 32.3847C43.0311 33.1919 42.5184 34.151 42.2405 35.188C41.9626 36.225 41.927 37.312 42.1363 38.365C42.3457 39.4179 42.7944 40.4086 43.4478 41.2605C44.1012 42.1123 44.9418 42.8024 45.9046 43.2774C46.8673 43.7525 47.9264 43.9997 49 44Z" fill="#0E7BAB"/>
<path d="M41 47H43V49H41V47Z" fill="#0E7BAB"/>
<path d="M45 47H57V49H45V47Z" fill="#0E7BAB"/>
<path d="M41 51H57V53H41V51Z" fill="#0E7BAB"/>
</svg>
