<svg width="64" height="64" viewBox="0 0 64 64" fill="none" xmlns="http://www.w3.org/2000/svg">
<g clip-path="url(#clip0)">
<path d="M26.6667 64.0001C12 64.0001 0 52.0001 0 37.3334C0 22.6667 12 10.6667 26.6667 10.6667C41.3333 10.6667 53.3333 22.6667 53.3333 37.3334C53.3333 52.0001 41.3333 64.0001 26.6667 64.0001ZM26.6667 13.3334C13.3333 13.3334 2.66667 24.0001 2.66667 37.3334C2.66667 50.6667 13.3333 61.3334 26.6667 61.3334C40 61.3334 50.6667 50.6667 50.6667 37.3334C50.6667 24.0001 40 13.3334 26.6667 13.3334Z" fill="#0E7BAB"/>
<path d="M26.6663 54.6667C17.0663 54.6667 9.33301 46.9333 9.33301 37.3333C9.33301 27.7333 17.0663 20 26.6663 20C36.2663 20 43.9997 27.7333 43.9997 37.3333C43.9997 46.9333 36.2663 54.6667 26.6663 54.6667ZM26.6663 22.6667C18.6663 22.6667 11.9997 29.3333 11.9997 37.3333C11.9997 45.3333 18.6663 52 26.6663 52C34.6663 52 41.333 45.3333 41.333 37.3333C41.333 29.3333 34.6663 22.6667 26.6663 22.6667Z" fill="#0E7BAB"/>
<path d="M26.667 45.3333C22.1337 45.3333 18.667 41.8666 18.667 37.3333C18.667 32.7999 22.1337 29.3333 26.667 29.3333C31.2003 29.3333 34.667 32.7999 34.667 37.3333C34.667 41.8666 31.2003 45.3333 26.667 45.3333ZM26.667 31.9999C23.7337 31.9999 21.3337 34.3999 21.3337 37.3333C21.3337 40.2666 23.7337 42.6666 26.667 42.6666C29.6003 42.6666 32.0003 40.2666 32.0003 37.3333C32.0003 34.3999 29.6003 31.9999 26.667 31.9999Z" fill="#0E7BAB"/>
<path d="M26.6669 38.6666C26.4002 38.6666 25.8669 38.6666 25.6002 38.4C25.0669 37.8666 25.0669 37.0666 25.6002 36.5333L45.6002 16.5333C46.1335 16 46.9335 16 47.4669 16.5333C48.0002 17.0666 48.0002 17.8666 47.4669 18.4L27.4669 38.4C27.4669 38.6666 26.9335 38.6666 26.6669 38.6666Z" fill="#0E7BAB"/>
<path d="M53.333 18.6667H46.6663C45.8663 18.6667 45.333 18.1333 45.333 17.3333V10.6667C45.333 10.4 45.5997 9.86667 45.5997 9.6L54.933 0.266667C55.4663 0 55.9997 0 56.533 0C57.0663 0.266667 57.333 0.8 57.333 1.33333V6.66667H62.6663C63.1997 6.66667 63.733 6.93333 63.9997 7.46667C63.9997 8 63.9997 8.53333 63.733 9.06667L54.3997 18.4C54.133 18.4 53.5997 18.6667 53.333 18.6667ZM47.9997 16H52.7997L59.4663 9.33333H55.9997C55.1997 9.33333 54.6663 8.8 54.6663 8V4.53333L47.9997 11.2V16Z" fill="#0E7BAB"/>
</g>
<defs>
<clipPath id="clip0">
<rect width="64" height="64" fill="white"/>
</clipPath>
</defs>
</svg>
