<svg width="64" height="64" viewBox="0 0 64 64" fill="none" xmlns="http://www.w3.org/2000/svg">
<g clip-path="url(#clip0)">
<path d="M19.5 46.2502C18.81 46.2502 18.25 46.8102 18.25 47.5002C18.25 48.1902 18.81 48.7502 19.5 48.7502C20.19 48.7502 20.75 48.1902 20.75 47.5002C20.75 46.8102 20.19 46.2502 19.5 46.2502Z" fill="#0E7BAB"/>
<path d="M56.2679 23.7501L63.6341 16.384C63.9439 16.0741 64.0688 15.6246 63.9634 15.1994C63.8581 14.774 63.5376 14.435 63.1188 14.3057L45.1813 8.76949C43.5643 3.57187 38.7583 0.000244141 33.2499 0.000244141C28.1294 0.000244141 23.5499 3.12087 21.6546 7.82837L0.877807 14.3069C0.460182 14.4371 0.140932 14.7764 0.0363069 15.2012C-0.0683181 15.626 0.056682 16.0747 0.366057 16.3841L7.92593 23.944L3.15793 31.8909C2.96281 32.216 2.92593 32.6121 3.05743 32.9677C3.18893 33.3234 3.47481 33.6 3.83456 33.7199L10.7499 36.0249V55.2501C10.7499 55.7711 11.0732 56.2375 11.5611 56.4205C15.7894 58.006 31.5001 63.8982 31.5844 63.9281C31.8324 64.0155 32.1118 64.0274 32.3842 63.9392C32.3878 63.938 32.3916 63.9372 32.3952 63.936L54.8952 56.436C55.4056 56.2659 55.7499 55.7881 55.7499 55.2501V35.5101L63.1247 33.1926C63.5417 33.0616 63.8599 32.7224 63.9641 32.2979C64.0681 31.8734 63.9429 31.4254 63.6339 31.1162L56.2679 23.7501ZM45.7499 12.5002C45.7499 12.1826 45.7366 11.8657 45.7127 11.5499L60.3994 16.083L54.1623 22.32L43.9713 18.9234C45.1253 16.9945 45.7499 14.7687 45.7499 12.5002ZM23.7908 9.24674C25.1784 5.21149 28.9798 2.50024 33.2499 2.50024C37.8501 2.50024 41.8398 5.61174 42.9522 10.0667C43.1498 10.8584 43.2499 11.6771 43.2499 12.5002C43.2499 14.822 42.4794 16.9981 41.0214 18.7942C39.1118 21.1495 36.2792 22.5002 33.2499 22.5002C29.9754 22.5002 26.9041 20.893 25.0333 18.1997C23.8667 16.524 23.2499 14.553 23.2499 12.5002C23.2499 11.3839 23.4318 10.2892 23.7908 9.24674ZM3.59556 16.0781L20.8831 10.6876C20.7963 11.2849 20.7499 11.8899 20.7499 12.5001C20.7499 14.5127 21.2267 16.4621 22.1354 18.221L9.83756 22.32L3.59556 16.0781ZM6.10343 31.8409L10.0559 25.2531L30.1263 31.9432L26.1739 38.531C24.0308 37.8166 8.39168 32.6035 6.10343 31.8409ZM30.7499 60.9465L13.2499 54.384V36.8582C27.0187 41.4235 26.3463 41.2841 26.7297 41.2841C27.1594 41.2841 27.5709 41.0617 27.8018 40.6771L30.7499 35.7632V60.9465ZM31.9999 29.9326L13.4529 23.7504L23.5522 20.3841C25.9159 23.29 29.4743 25.0002 33.2499 25.0002C36.7427 25.0002 40.0253 23.5629 42.3864 21.0304L50.5469 23.7502L31.9999 29.9326ZM53.2499 54.3492L33.2499 61.0159V34.8134L37.6813 40.3521C38.0037 40.755 38.5403 40.9182 39.0322 40.7637L53.2499 36.2959V54.3492ZM39.0989 38.1224L34.0959 31.8691L54.1623 25.1804L60.4078 31.4259L39.0989 38.1224Z" fill="#0E7BAB"/>
<path d="M27.439 49.0248L24.659 47.9823C24.0126 47.7401 23.2921 48.0675 23.0496 48.7138C22.8073 49.3603 23.1348 50.0808 23.7811 50.3232L26.5611 51.3657C27.2089 51.6084 27.9285 51.2794 28.1705 50.6342C28.4129 49.9878 28.0854 49.2672 27.439 49.0248Z" fill="#0E7BAB"/>
<path d="M27.4393 54.3646L19.9393 51.5521C19.293 51.3097 18.5725 51.6372 18.33 52.2836C18.0875 52.93 18.4151 53.6506 19.0615 53.893L26.5615 56.7055C26.7061 56.7597 26.8543 56.7855 27.0002 56.7855C27.5063 56.7855 27.9826 56.4758 28.1708 55.974C28.4133 55.3275 28.0858 54.607 27.4393 54.3646Z" fill="#0E7BAB"/>
<path d="M40.3841 7.86614C39.896 7.37789 39.1045 7.37802 38.6163 7.86614L32.0001 14.4824L30.384 12.8663C29.8959 12.3781 29.1044 12.3781 28.6161 12.8663C28.1279 13.3544 28.128 14.1459 28.6161 14.6341L31.1163 17.134C31.6044 17.6221 32.3959 17.6221 32.8841 17.134L40.3841 9.63402C40.8723 9.14589 40.8723 8.35439 40.3841 7.86614Z" fill="#0E7BAB"/>
</g>
<defs>
<clipPath id="clip0">
<rect width="64" height="64" fill="white"/>
</clipPath>
</defs>
</svg>
