<svg width="64" height="64" viewBox="0 0 64 64" fill="none" xmlns="http://www.w3.org/2000/svg">
<g clip-path="url(#clip0)">
<path d="M63.9953 13.002C63.9953 12.7689 64.2812 13.6972 60.4002 2.05457C59.9913 0.827828 58.8477 0.00341797 57.5544 0.00341797C40.992 0.00341797 16.2277 0.00341797 6.44302 0.00341797C5.14979 0.00341797 4.00629 0.827703 3.59721 2.05457C-0.468721 14.2525 0.10784 12.5189 0.0519715 12.6918C-0.016396 12.9013 0.00235196 12.8383 0.00235196 15.0018C0.00235196 16.9042 0.766268 18.6308 2.00213 19.8935V49.9979C2.00213 52.2033 3.79631 53.9975 6.0017 53.9975H20.8196L20.153 57.9971H18.7504C17.2342 57.9971 16.0007 59.2306 16.0007 60.7468V62.9965C16.0007 63.5487 16.4484 63.9964 17.0006 63.9964H46.9973C47.5495 63.9964 47.9972 63.5487 47.9972 62.9965V60.7468C47.9972 59.2306 46.7637 57.9971 45.2475 57.9971H43.8449L43.1784 53.9975H57.9963C60.2016 53.9975 61.9958 52.2033 61.9958 49.9979C61.9958 48.562 61.9958 21.2181 61.9958 19.8935C63.2317 18.6306 63.9956 16.9041 63.9956 15.0018V13.002H63.9953ZM58.503 2.68687L61.6081 12.0021H51.8438L50.1774 2.0032H57.5546C57.9856 2.0032 58.3667 2.27792 58.503 2.68687ZM59.9958 21.3243V43.9986H4.00191V21.3243C4.62372 21.6206 5.2959 21.827 6.0017 21.9285V40.9991C6.0017 41.5512 6.4494 41.9989 7.00159 41.9989H56.9961C57.5483 41.9989 57.996 41.5512 57.996 40.9991V21.9285C58.7018 21.827 59.374 21.6206 59.9958 21.3243ZM2.00213 14.0019H12.001V15.0018C12.001 17.7585 9.75828 20.0012 7.00159 20.0012C4.24489 20.0012 2.00213 17.7585 2.00213 15.0018V14.0019ZM24.9128 2.0032L24.0795 12.0021H14.1812L15.8476 2.0032H24.9128ZM37.078 2.0032L37.9113 12.0021H26.0864L26.9197 2.0032H37.078ZM48.1498 2.0032L49.8163 12.0021H39.9181L39.0848 2.0032H48.1498ZM31.9989 20.0012C28.6907 20.0012 25.9995 17.3099 25.9995 14.0019H37.9982C37.9982 17.3099 35.3069 20.0012 31.9989 20.0012ZM14.0008 14.0019H23.9997V15.0018C23.9997 17.7585 21.757 20.0012 19.0003 20.0012C16.2436 20.0012 14.0008 17.7585 14.0008 15.0018V14.0019ZM55.9962 39.999H8.00148V21.9285C10.1222 21.6237 11.9388 20.3656 13.0009 18.6026C15.8245 23.2894 22.6762 23.086 25.21 18.2253C28.3474 23.2504 35.6427 23.2626 38.7879 18.2253C41.3176 23.0785 48.1682 23.2977 50.9969 18.6026C52.059 20.3654 53.8756 21.6237 55.9963 21.9285V39.999H55.9962ZM44.9974 20.0012C42.2407 20.0012 39.998 17.7585 39.998 15.0018V14.0019H49.9969V15.0018C49.9969 17.7585 47.754 20.0012 44.9974 20.0012ZM5.49463 2.68687C5.63086 2.27792 6.01207 2.0032 6.44315 2.0032H13.8203L12.1539 12.0021H2.38947L5.49463 2.68687ZM45.9973 60.7468V61.9966H18.0004V60.7468C18.0004 60.3332 18.3367 59.9969 18.7503 59.9969H45.2474C45.6609 59.9969 45.9973 60.3333 45.9973 60.7468ZM41.8173 57.9971H22.1803L22.847 53.9975H41.1506L41.8173 57.9971ZM59.9958 49.9979C59.9958 51.1006 59.0986 51.9977 57.996 51.9977C54.932 51.9977 9.10873 51.9977 6.0017 51.9977C4.89907 51.9977 4.00191 51.1006 4.00191 49.9979V45.9984H59.9958V49.9979ZM61.9956 15.0018C61.9956 17.7585 59.7528 20.0012 56.9961 20.0012C54.2394 20.0012 51.9967 17.7585 51.9967 15.0018V14.0019H61.9956V15.0018Z" fill="#0E7BAB"/>
<path d="M30.9989 25.0007C30.4467 25.0007 29.999 25.4484 29.999 26.0006C29.999 26.5528 30.4467 27.0005 30.9989 27.0005H51.9966C52.5488 27.0005 52.9965 26.5528 52.9965 26.0006C52.9965 25.4484 52.5488 25.0007 51.9966 25.0007H30.9989Z" fill="#0E7BAB"/>
<path d="M51.9966 30H30.9989C30.4467 30 29.999 30.4477 29.999 30.9999C29.999 31.5521 30.4467 31.9998 30.9989 31.9998H51.9966C52.5488 31.9998 52.9965 31.5521 52.9965 30.9999C52.9965 30.4477 52.5488 30 51.9966 30Z" fill="#0E7BAB"/>
<path d="M44.9974 34.9995H30.9989C30.4467 34.9995 29.999 35.4472 29.999 35.9994C29.999 36.5516 30.4467 36.9993 30.9989 36.9993H44.9974C45.5496 36.9993 45.9973 36.5516 45.9973 35.9994C45.9973 35.4472 45.5496 34.9995 44.9974 34.9995Z" fill="#0E7BAB"/>
<path d="M24.9993 29.0002C24.4281 29.0002 23.3335 29.0002 22.7803 29.0002L21.9698 25.7581C21.836 25.2224 21.294 24.8967 20.7573 25.0306C20.2216 25.1645 19.8957 25.7074 20.0299 26.2432L20.7192 29.0004H17.281L17.9703 26.2432C18.1043 25.7074 17.7786 25.1645 17.2429 25.0306C16.7073 24.8968 16.1643 25.2224 16.0304 25.7581L15.2199 29.0002C14.6619 29.0002 13.5648 29.0002 13.0009 29.0002C12.4487 29.0002 12.001 29.4479 12.001 30.0001C12.001 30.5523 12.4487 31 13.0009 31H13.1536L14.0143 36.1638C14.0947 36.6459 14.5117 36.9994 15.0006 36.9994H22.9998C23.4886 36.9994 23.9057 36.646 23.9862 36.1638L24.8468 31H24.9996C25.5518 31 25.9995 30.5523 25.9995 30.0001C25.9995 29.4479 25.5515 29.0002 24.9993 29.0002ZM22.1524 34.9996H15.8474L15.1808 31H22.819L22.1524 34.9996Z" fill="#0E7BAB"/>
<path d="M31.0755 49.3806C31.3896 50.1337 32.4022 50.2025 32.8303 49.5531C33.1424 49.0903 33.004 48.4629 32.5541 48.167C31.7508 47.6248 30.694 48.4617 31.0755 49.3806Z" fill="#0E7BAB"/>
</g>
<defs>
<clipPath id="clip0">
<rect width="64" height="64" fill="white"/>
</clipPath>
</defs>
</svg>
