<svg width="64" height="64" viewBox="0 0 64 64" fill="none" xmlns="http://www.w3.org/2000/svg">
<path d="M59 14.9999H57V13.9999H58C58.7957 13.9999 59.5587 13.6839 60.1213 13.1213C60.6839 12.5586 61 11.7956 61 10.9999C61 10.2043 60.6839 9.44122 60.1213 8.87861C59.5587 8.31601 58.7957 7.99994 58 7.99994H57V2.99994C57.0015 2.84337 56.9649 2.68879 56.8935 2.54946C56.8221 2.41012 56.7179 2.29018 56.59 2.19993C56.4661 2.10615 56.3219 2.0428 56.1691 2.01501C56.0162 1.98721 55.859 1.99575 55.71 2.03993L42.85 5.99994H36C35.7348 5.99994 35.4804 6.10529 35.2929 6.29283C35.1054 6.48036 35 6.73472 35 6.99994V7.99994H33C32.7348 7.99994 32.4804 8.10529 32.2929 8.29283C32.1054 8.48037 32 8.73472 32 8.99994V12.9999C32 13.2652 32.1054 13.5195 32.2929 13.707C32.4804 13.8946 32.7348 13.9999 33 13.9999H35V14.9999H29V5.99994C29 5.73472 28.8946 5.48037 28.7071 5.29283C28.5196 5.10529 28.2652 4.99994 28 4.99994H8C7.73478 4.99994 7.48043 5.10529 7.29289 5.29283C7.10536 5.48037 7 5.73472 7 5.99994V14.9999H5C4.20508 15.0023 3.4434 15.3191 2.8813 15.8812C2.31921 16.4433 2.00237 17.205 2 17.9999V49.9999C2.00237 50.7949 2.31921 51.5565 2.8813 52.1186C3.4434 52.6807 4.20508 52.9976 5 52.9999H28V55.9999H22C21.7348 55.9999 21.4804 56.1053 21.2929 56.2928C21.1054 56.4804 21 56.7347 21 56.9999V60.9999C21 61.2652 21.1054 61.5195 21.2929 61.7071C21.4804 61.8946 21.7348 61.9999 22 61.9999H42C42.2652 61.9999 42.5196 61.8946 42.7071 61.7071C42.8946 61.5195 43 61.2652 43 60.9999V56.9999C43 56.7347 42.8946 56.4804 42.7071 56.2928C42.5196 56.1053 42.2652 55.9999 42 55.9999H36V52.9999H59C59.7949 52.9976 60.5566 52.6807 61.1187 52.1186C61.6808 51.5565 61.9976 50.7949 62 49.9999V17.9999C61.9976 17.205 61.6808 16.4433 61.1187 15.8812C60.5566 15.3191 59.7949 15.0023 59 14.9999ZM57 9.99994H58C58.2652 9.99994 58.5196 10.1053 58.7071 10.2928C58.8946 10.4804 59 10.7347 59 10.9999C59 11.2652 58.8946 11.5195 58.7071 11.707C58.5196 11.8946 58.2652 11.9999 58 11.9999H57V9.99994ZM44 7.73993L55 4.34994V17.6499L44 14.2599V7.73993ZM37 7.99994H42V13.9999H37V7.99994ZM39.85 15.9999L39.13 20.9999H38V15.9999H39.85ZM34 11.9999V9.99994H35V11.9999H34ZM9 6.99994H27V20.9999H9V6.99994ZM41 57.9999V59.9999H23V57.9999H41ZM30 55.9999V52.9999H34V55.9999H30ZM60 49.9999C60 50.2652 59.8946 50.5195 59.7071 50.7071C59.5196 50.8946 59.2652 50.9999 59 50.9999H5C4.73478 50.9999 4.48043 50.8946 4.29289 50.7071C4.10536 50.5195 4 50.2652 4 49.9999V48.9999H60V49.9999ZM60 46.9999H4V17.9999C4 17.7347 4.10536 17.4804 4.29289 17.2928C4.48043 17.1053 4.73478 16.9999 5 16.9999H7V21.9999C7 22.2652 7.10536 22.5195 7.29289 22.707C7.48043 22.8946 7.73478 22.9999 8 22.9999H28C28.2652 22.9999 28.5196 22.8946 28.7071 22.707C28.8946 22.5195 29 22.2652 29 21.9999V16.9999H36V21.9999C36 22.2652 36.1054 22.5195 36.2929 22.707C36.4804 22.8946 36.7348 22.9999 37 22.9999H40C40.2409 22.9999 40.4738 22.9129 40.6557 22.7549C40.8375 22.5969 40.9563 22.3785 40.99 22.1399L41.87 15.9999H42.85L55.71 19.9599C55.8039 19.9886 55.9018 20.0021 56 19.9999C56.264 19.9961 56.5161 19.8895 56.7028 19.7028C56.8895 19.5161 56.9961 19.2639 57 18.9999V16.9999H59C59.2652 16.9999 59.5196 17.1053 59.7071 17.2928C59.8946 17.4804 60 17.7347 60 17.9999V46.9999Z" fill="#0E7BAB"/>
<path d="M7 45H33C33.2652 45 33.5196 44.8946 33.7071 44.7071C33.8946 44.5196 34 44.2652 34 44V28C34 27.7348 33.8946 27.4804 33.7071 27.2929C33.5196 27.1054 33.2652 27 33 27H7C6.73478 27 6.48043 27.1054 6.29289 27.2929C6.10536 27.4804 6 27.7348 6 28V44C6 44.2652 6.10536 44.5196 6.29289 44.7071C6.48043 44.8946 6.73478 45 7 45ZM8 43V29.789L19.476 36.852C19.6336 36.949 19.815 37.0003 20 37.0003C20.185 37.0003 20.3664 36.949 20.524 36.852L32 29.789V43H8ZM10.533 29H29.467L20 34.826L10.533 29Z" fill="#0E7BAB"/>
<path d="M37 39H39V42C39 42.2652 39.1054 42.5196 39.2929 42.7071C39.4804 42.8946 39.7348 43 40 43H57C57.2652 43 57.5196 42.8946 57.7071 42.7071C57.8946 42.5196 58 42.2652 58 42V30C58 29.7348 57.8946 29.4804 57.7071 29.2929C57.5196 29.1054 57.2652 29 57 29H56V26C56 25.7348 55.8946 25.4804 55.7071 25.2929C55.5196 25.1054 55.2652 25 55 25H37C36.7348 25 36.4804 25.1054 36.2929 25.2929C36.1054 25.4804 36 25.7348 36 26V38C36 38.2652 36.1054 38.5196 36.2929 38.7071C36.4804 38.8946 36.7348 39 37 39ZM56 41H41V31H56V41ZM38 27H54V29H40C39.7348 29 39.4804 29.1054 39.2929 29.2929C39.1054 29.4804 39 29.7348 39 30V37H38V27Z" fill="#0E7BAB"/>
<path d="M43 33H45V35H43V33Z" fill="#0E7BAB"/>
<path d="M47 33H54V35H47V33Z" fill="#0E7BAB"/>
<path d="M43 37H47V39H43V37Z" fill="#0E7BAB"/>
<path d="M49 37H54V39H49V37Z" fill="#0E7BAB"/>
<path d="M15.474 17.8507C15.619 17.9404 15.7845 17.9915 15.9548 17.9992C16.1251 18.0069 16.2945 17.9709 16.447 17.8947L22.447 14.8947C22.6134 14.8118 22.7534 14.6841 22.8512 14.526C22.9491 14.3679 23.0009 14.1857 23.0009 13.9997C23.0009 13.8138 22.9491 13.6316 22.8512 13.4735C22.7534 13.3154 22.6134 13.1877 22.447 13.1047L16.447 10.1047C16.2945 10.0285 16.1251 9.99258 15.9548 10.0003C15.7845 10.008 15.619 10.0591 15.474 10.1488C15.329 10.2385 15.2093 10.3637 15.1264 10.5127C15.0434 10.6616 14.9999 10.8293 15 10.9997V16.9997C14.9999 17.1702 15.0434 17.3379 15.1264 17.4868C15.2093 17.6358 15.329 17.7611 15.474 17.8507ZM17 12.6177L19.764 13.9997L17 15.3817V12.6177Z" fill="#0E7BAB"/>
</svg>
