<svg width="64" height="64" viewBox="0 0 64 64" fill="none" xmlns="http://www.w3.org/2000/svg">
<path d="M64 15.4839C64 6.94606 57.0539 0 48.5161 0C41.7899 0 36.0681 4.31897 33.9355 10.3226H4.12903C2.99045 10.3226 2.06452 11.2485 2.06452 12.3871V37.1613C0.925935 37.1613 0 38.0872 0 39.2258V61.9355C0 63.0741 0.925935 64 2.06452 64H28.9032C30.0418 64 30.9677 63.0741 30.9677 61.9355V57.8064H59.871C61.0095 57.8064 61.9355 56.8805 61.9355 55.7419V23.1752C63.2413 20.9063 64 18.2844 64 15.4839ZM55.7419 43.9597L48.0888 51.6129H30.9677V39.2258C30.9677 38.0872 30.0418 37.1613 28.9032 37.1613H8.25806V24.1693L15.9112 16.5161H33.0849C33.1314 17.216 33.2077 17.9086 33.345 18.5806H16.5161C15.3775 18.5806 14.4516 19.5066 14.4516 20.6452V24.7742C14.4516 25.9128 15.3775 26.8387 16.5161 26.8387H38.0253C40.7876 29.3925 44.4666 30.9677 48.5161 30.9677C51.1257 30.9677 53.5825 30.3123 55.7419 29.1675V43.9597ZM55.7419 46.879V51.6129H51.008L55.7419 46.879ZM12.3871 39.2258H18.5806V45.8137L15.4839 44.2653L12.3871 45.8137V39.2258ZM8.25806 21.2501V16.5161H12.992L8.25806 21.2501ZM43.3548 15.4839C43.3548 13.7321 43.6346 11.9907 44.1486 10.3226H52.8826C53.3977 11.9907 53.6774 13.7321 53.6774 15.4839C53.6774 17.2356 53.3977 18.977 52.8836 20.6452H44.1497C43.6346 18.977 43.3548 17.2356 43.3548 15.4839ZM48.5161 2.75303L50.1677 4.95484C50.9368 5.97987 51.5778 7.09265 52.1032 8.25806H44.9301C45.4555 7.09368 46.0965 5.97987 46.8655 4.95484L48.5161 2.75303ZM52.1032 22.7097C51.5778 23.8741 50.9368 24.9879 50.1677 26.0129L48.5161 28.2147L46.8645 26.0129C46.0955 24.9879 45.4545 23.8751 44.929 22.7097H52.1032ZM45.2129 27.2516L46.303 28.705C42.497 28.0692 39.2341 25.8354 37.2263 22.7097H42.6911C43.3301 24.3231 44.1683 25.8591 45.2129 27.2516ZM36.159 24.7742H16.5161V20.6452H33.9355C34.4671 22.1409 35.2196 23.5293 36.159 24.7742ZM50.7293 28.705L51.8194 27.2516C52.864 25.8591 53.7022 24.3241 54.3412 22.7097H59.8059C57.7982 25.8354 54.5342 28.0692 50.7293 28.705ZM60.9001 20.6452H55.0297C55.489 18.9667 55.7419 17.2305 55.7419 15.4839C55.7419 13.7373 55.4901 12.001 55.0297 10.3226H60.9001C61.5649 11.9123 61.9355 13.6557 61.9355 15.4839C61.9355 17.312 61.5649 19.0555 60.9001 20.6452ZM59.8059 8.25806H54.3412C53.7022 6.64465 52.864 5.10864 51.8194 3.71613L50.7293 2.26271C54.5342 2.89858 57.7982 5.13239 59.8059 8.25806ZM46.303 2.26271L45.2129 3.71613C44.1683 5.10864 43.3301 6.64361 42.6911 8.25806H37.2263C39.2341 5.13239 42.4981 2.89858 46.303 2.26271ZM36.1321 10.3226H42.0026C41.5422 12.001 41.2903 13.7373 41.2903 15.4839C41.2903 17.2305 41.5422 18.9667 42.0026 20.6452H36.1321C35.4674 19.0555 35.0968 17.312 35.0968 15.4839C35.0968 13.6557 35.4674 11.9123 36.1321 10.3226ZM4.12903 12.3871H33.344C33.2067 13.0591 33.1303 13.7517 33.0839 14.4516H6.19355V37.1613H4.12903V12.3871ZM2.06452 61.9355V39.2258H10.3226V49.1541L15.4839 46.5734L20.6452 49.1541V39.2258H28.9032L28.9043 61.9355H2.06452ZM59.871 55.7419H30.9677V53.6774H57.8064V27.841C58.5497 27.2805 59.2403 26.657 59.871 25.9747V55.7419Z" fill="#0E7BAB"/>
<path d="M4.12891 57.8064H6.19342V59.8709H4.12891V57.8064Z" fill="#0E7BAB"/>
<path d="M8.25781 57.8064H10.3223V59.8709H8.25781V57.8064Z" fill="#0E7BAB"/>
<path d="M12.3867 57.8064H14.4512V59.8709H12.3867V57.8064Z" fill="#0E7BAB"/>
<path d="M14.4521 28.9032H30.9683V30.9677H14.4521V28.9032Z" fill="#0E7BAB"/>
<path d="M33.0322 28.9032H39.2258V30.9677H33.0322V28.9032Z" fill="#0E7BAB"/>
<path d="M41.29 35.0967V37.1612C41.29 38.2998 42.216 39.2258 43.3546 39.2258H51.6126C52.7512 39.2258 53.6771 38.2998 53.6771 37.1612V35.0967C53.6771 33.9582 52.7512 33.0322 51.6126 33.0322H43.3546C42.216 33.0322 41.29 33.9582 41.29 35.0967ZM51.6137 37.1612H43.3546V35.0967H51.6126L51.6137 37.1612Z" fill="#0E7BAB"/>
<path d="M14.4521 33.0322H39.2263V35.0968H14.4521V33.0322Z" fill="#0E7BAB"/>
<path d="M33.0322 41.2904H41.2903V43.3549H33.0322V41.2904Z" fill="#0E7BAB"/>
<path d="M43.3545 41.2904H45.419V43.3549H43.3545V41.2904Z" fill="#0E7BAB"/>
<path d="M47.4834 41.2904H49.5479V43.3549H47.4834V41.2904Z" fill="#0E7BAB"/>
<path d="M51.6133 41.2904H53.6778V43.3549H51.6133V41.2904Z" fill="#0E7BAB"/>
</svg>
