<svg width="64" height="64" viewBox="0 0 64 64" fill="none" xmlns="http://www.w3.org/2000/svg">
<path d="M57.5998 9.6001H28.7998V11.7334H57.5998V9.6001Z" fill="#0E7BAB"/>
<path d="M46.9331 13.8667H28.7998V16H46.9331V13.8667Z" fill="#0E7BAB"/>
<path d="M46.9331 18.1333H28.7998V20.2666H46.9331V18.1333Z" fill="#0E7BAB"/>
<path d="M57.5997 5.33325H37.333V7.46659H57.5997V5.33325Z" fill="#0E7BAB"/>
<path d="M35.1997 5.33325H33.0664V7.46659H35.1997V5.33325Z" fill="#0E7BAB"/>
<path d="M33.0669 42.6667H30.9336V44.8001H33.0669V42.6667Z" fill="#0E7BAB"/>
<path d="M17.8211 7.15402L16.3128 5.64575L14.1795 7.77909C13.7631 8.19562 13.7631 8.87082 14.1795 9.28735L16.3128 11.4207L17.8211 9.91242L16.4419 8.53322L17.8211 7.15402Z" fill="#0E7BAB"/>
<path d="M26.3545 7.77909L24.2212 5.64575L22.7129 7.15402L24.0921 8.53322L22.7129 9.91242L24.2212 11.4207L26.3545 9.28735C26.7709 8.87082 26.7709 8.19562 26.3545 7.77909Z" fill="#0E7BAB"/>
<path d="M20.3218 4.99464L18.1865 11.3945L20.2092 12.0694L22.3445 5.66951L20.3218 4.99464Z" fill="#0E7BAB"/>
<path d="M55.4671 33.0666V24.5332H53.3338V33.0666H51.2005V22.3999H49.0671V33.0666H46.9338V27.7332H44.8005V33.0666H42.6671V26.6666H40.5338V33.0666H38.4005V28.7999H36.2671V33.0666H34.1338V35.1999H57.6005V33.0666H55.4671Z" fill="#0E7BAB"/>
<path d="M56.5331 0H7.46641C3.93321 0.00346667 1.06987 2.8668 1.06641 6.4V27.3344V27.344V39.4667V42.6667C1.06987 46.1999 3.93321 49.0632 7.46641 49.0667H20.6739L16.4072 57.6H10.6664C8.89907 57.6 7.46641 59.0327 7.46641 60.8C7.46641 62.5673 8.89907 64 10.6664 64H53.3331C55.1004 64 56.5331 62.5673 56.5331 60.8C56.5331 59.0327 55.1004 57.6 53.3331 57.6H47.5923L43.3256 49.0667H56.5331C60.0663 49.0632 62.9296 46.1999 62.9331 42.6667V6.4C62.9296 2.8668 60.0663 0.00346667 56.5331 0ZM3.19974 15.008L5.62427 17.8944C5.82694 18.1359 6.12614 18.2752 6.44134 18.2752H9.70641C10.0216 18.2752 10.3208 18.1359 10.5235 17.8944L12.9491 15.008L15.3427 15.7856L15.6072 19.5435C15.6291 19.8577 15.7888 20.1463 16.0435 20.3317L18.6856 22.2517C18.9412 22.4363 19.2649 22.4991 19.5709 22.4235L23.2328 21.5136L24.7133 23.5499L22.7176 26.7499C22.5523 27.0181 22.514 27.3457 22.6131 27.6448L23.6232 30.7499C23.7204 31.0493 23.9448 31.2907 24.2365 31.4091L27.7331 32.8267V35.344L24.2344 36.7616C23.942 36.8795 23.7172 37.1215 23.6211 37.4219L23.3011 38.4H17.156C19.5464 33.3952 17.4269 27.4001 12.4221 25.0097C9.48254 23.6057 6.04441 23.7148 3.19974 25.3024V15.008ZM3.19974 27.84C6.64987 25.1484 11.6288 25.7633 14.3203 29.2136C16.3984 31.8773 16.5588 35.5659 14.7197 38.4H3.19974V27.84ZM53.3331 59.7333C53.9221 59.7333 54.3997 60.2109 54.3997 60.8C54.3997 61.3891 53.9221 61.8667 53.3331 61.8667H10.6664C10.0773 61.8667 9.59974 61.3891 9.59974 60.8C9.59974 60.2109 10.0773 59.7333 10.6664 59.7333H53.3331ZM45.2072 57.6H18.7923L23.0589 49.0667H40.9405L45.2072 57.6ZM60.7997 42.6667C60.7997 45.0231 58.8895 46.9333 56.5331 46.9333H7.46641C5.11001 46.9333 3.19974 45.0231 3.19974 42.6667V40.5333H15.2765H15.2861H60.7997V42.6667ZM60.7997 38.4H25.8717L29.2008 37.0507C29.6029 36.8875 29.8661 36.4969 29.8664 36.0629V32.1067C29.8665 31.6723 29.6033 31.2812 29.2008 31.1179L25.4931 29.6181L24.7912 27.4581L26.9053 24.0661C27.1347 23.6976 27.1177 23.2269 26.8627 22.8757L24.5373 19.6757C24.282 19.3241 23.8391 19.1625 23.4173 19.2672L19.5389 20.2272L17.7064 18.896L17.4259 14.9173C17.3953 14.4836 17.1045 14.1117 16.6909 13.9776L12.9309 12.7552C12.5172 12.6235 12.0649 12.7535 11.7843 13.0848L9.21681 16.1408H6.94161L4.37307 13.0848C4.09227 12.7531 3.63934 12.6229 3.22534 12.7552L3.19974 12.7648V6.4C3.19974 4.0436 5.11001 2.13333 7.46641 2.13333H56.5331C58.8895 2.13333 60.7997 4.0436 60.7997 6.4V38.4Z" fill="#0E7BAB"/>
</svg>
