<svg width="64" height="64" viewBox="0 0 64 64" fill="none" xmlns="http://www.w3.org/2000/svg">
<path d="M57 2H39C37.6744 2.00159 36.4036 2.52888 35.4662 3.46622C34.5289 4.40356 34.0016 5.67441 34 7V23H30V22H28V23H25C23.6744 23.0016 22.4036 23.5289 21.4662 24.4662C20.5289 25.4036 20.0016 26.6744 20 28H19.114V30H20V34H6V62H58V34H48V30H57C58.3256 29.9984 59.5964 29.4711 60.5338 28.5338C61.4711 27.5964 61.9984 26.3256 62 25V7C61.9984 5.67441 61.4711 4.40356 60.5338 3.46622C59.5964 2.52888 58.3256 2.00159 57 2ZM25 25H43C43.7957 25 44.5587 25.3161 45.1213 25.8787C45.6839 26.4413 46 27.2044 46 28V35.586L41 30.586L31 40.586L26 35.586L22 39.586V28C22 27.2044 22.3161 26.4413 22.8787 25.8787C23.4413 25.3161 24.2044 25 25 25ZM35 44H34.414L32.414 42L41 33.414L46 38.414V46C46 46.7957 45.6839 47.5587 45.1213 48.1213C44.5587 48.6839 43.7957 49 43 49H40C39.9984 47.6744 39.4711 46.4036 38.5338 45.4662C37.5964 44.5289 36.3256 44.0016 35 44ZM28 52C27.7348 52 27.4804 51.8946 27.2929 51.7071C27.1054 51.5196 27 51.2652 27 51C27 50.7348 27.1054 50.4804 27.2929 50.2929C27.4804 50.1054 27.7348 50 28 50H30V49C30 48.2043 30.3161 47.4413 30.8787 46.8787C31.4413 46.3161 32.2044 46 33 46H35C35.7956 46 36.5587 46.3161 37.1213 46.8787C37.6839 47.4413 38 48.2043 38 49V55C38 55.2652 37.8946 55.5196 37.7071 55.7071C37.5196 55.8946 37.2652 56 37 56H31C30.7348 56 30.4804 55.8946 30.2929 55.7071C30.1054 55.5196 30 55.2652 30 55V52H28ZM25.78 49H25C24.2044 49 23.4413 48.6839 22.8787 48.1213C22.3161 47.5587 22 46.7957 22 46V42.414L26 38.414L31.76 44.175C30.8531 44.4061 30.0293 44.8872 29.3822 45.5634C28.7352 46.2396 28.2909 47.0838 28.1 48H28C27.5805 48.0013 27.1659 48.0911 26.7834 48.2634C26.4009 48.4357 26.059 48.6867 25.78 49ZM8 36H20V40H8V36ZM56 60H8V42H20V46C20.0016 47.3256 20.5289 48.5964 21.4662 49.5338C22.4036 50.4711 23.6744 50.9984 25 51C25 51.7957 25.3161 52.5587 25.8787 53.1213C26.4413 53.6839 27.2044 54 28 54V55C28 55.7957 28.3161 56.5587 28.8787 57.1213C29.4413 57.6839 30.2044 58 31 58H37C37.7956 58 38.5587 57.6839 39.1213 57.1213C39.6839 56.5587 40 55.7957 40 55V51H43C44.3256 50.9984 45.5964 50.4711 46.5338 49.5338C47.4711 48.5964 47.9984 47.3256 48 46V42H56V60ZM56 36V40H48V36H56ZM60 25C60 25.7956 59.6839 26.5587 59.1213 27.1213C58.5587 27.6839 57.7957 28 57 28H48C47.9994 27.3111 47.855 26.6299 47.576 26H51V24H49V8H54V10H56V6H40V10H42V8H47V24H45.969C45.1136 23.3541 44.0718 23.0032 43 23H36V7C36 6.20435 36.3161 5.44129 36.8787 4.87868C37.4413 4.31607 38.2043 4 39 4H57C57.7957 4 58.5587 4.31607 59.1213 4.87868C59.6839 5.44129 60 6.20435 60 7V25Z" fill="#0E7BAB"/>
<path d="M9.29 37.29C9.10743 37.4817 9.00388 37.7352 9 38C9.00197 38.2651 9.1058 38.5193 9.29 38.71C9.48174 38.8925 9.73527 38.9961 10 39C10.0671 38.9983 10.1339 38.9916 10.2 38.98C10.2627 38.9691 10.3233 38.9489 10.38 38.92C10.4415 38.9001 10.499 38.8696 10.55 38.83C10.61 38.79 10.66 38.75 10.71 38.71C10.8942 38.5193 10.998 38.2651 11 38C11.0012 37.8013 10.9431 37.6069 10.8333 37.4413C10.7235 37.2758 10.5669 37.1468 10.3835 37.0706C10.2 36.9944 9.99807 36.9746 9.80332 37.0137C9.60857 37.0527 9.42987 37.1489 9.29 37.29Z" fill="#0E7BAB"/>
<path d="M12.62 37.0801C12.4989 37.1309 12.3873 37.2019 12.29 37.2901C12.1074 37.4819 12.0039 37.7354 12 38.0001C12.002 38.2652 12.1058 38.5195 12.29 38.7101C12.3873 38.7984 12.4989 38.8694 12.62 38.9201C12.7387 38.9762 12.8688 39.0036 13 39.0001C13.2647 38.9963 13.5183 38.8927 13.71 38.7101C13.8942 38.5195 13.998 38.2652 14 38.0001C13.9961 37.7354 13.8926 37.4819 13.71 37.2901C13.5694 37.1514 13.3908 37.0574 13.1968 37.02C13.0028 36.9826 12.8021 37.0036 12.62 37.0801Z" fill="#0E7BAB"/>
<path d="M16.71 37.29C16.5701 37.1489 16.3914 37.0527 16.1967 37.0137C16.0019 36.9746 15.8 36.9944 15.6165 37.0706C15.4331 37.1468 15.2765 37.2758 15.1667 37.4413C15.0569 37.6069 14.9989 37.8013 15 38C15.002 38.2651 15.1058 38.5193 15.29 38.71C15.4796 38.8959 15.7345 39 16 39C16.2655 39 16.5205 38.8959 16.71 38.71C16.753 38.6625 16.7931 38.6124 16.83 38.56C16.8679 38.5042 16.8982 38.4437 16.92 38.38C16.9489 38.3233 16.9691 38.2626 16.98 38.2C16.9916 38.1339 16.9983 38.067 17 38C16.9961 37.7352 16.8926 37.4817 16.71 37.29Z" fill="#0E7BAB"/>
<path d="M27 33C27.5933 33 28.1734 32.8241 28.6667 32.4944C29.1601 32.1648 29.5446 31.6962 29.7716 31.1481C29.9987 30.5999 30.0581 29.9967 29.9424 29.4147C29.8266 28.8328 29.5409 28.2982 29.1213 27.8787C28.7018 27.4591 28.1672 27.1734 27.5853 27.0576C27.0033 26.9419 26.4001 27.0013 25.8519 27.2284C25.3038 27.4554 24.8352 27.8399 24.5056 28.3333C24.1759 28.8266 24 29.4067 24 30C24 30.7957 24.3161 31.5587 24.8787 32.1213C25.4413 32.6839 26.2043 33 27 33ZM27 29C27.1978 29 27.3911 29.0587 27.5556 29.1685C27.72 29.2784 27.8482 29.4346 27.9239 29.6173C27.9996 29.8001 28.0194 30.0011 27.9808 30.1951C27.9422 30.3891 27.847 30.5673 27.7071 30.7071C27.5673 30.847 27.3891 30.9422 27.1951 30.9808C27.0011 31.0194 26.8 30.9996 26.6173 30.9239C26.4346 30.8482 26.2784 30.72 26.1685 30.5556C26.0586 30.3911 26 30.1978 26 30C26 29.7348 26.1054 29.4804 26.2929 29.2929C26.4804 29.1054 26.7348 29 27 29Z" fill="#0E7BAB"/>
<path d="M24.9998 2H21.9658V4H25.0458L24.9998 2Z" fill="#0E7BAB"/>
<path d="M27.0879 4.84591C27.6408 5.37904 27.9674 6.10451 27.9999 6.87191L29.9999 6.78791C29.9466 5.50831 29.4022 4.29846 28.4799 3.40991L27.0879 4.84591Z" fill="#0E7BAB"/>
<path d="M16.0789 28H13.0449V30H16.0789V28Z" fill="#0E7BAB"/>
<path d="M4 6.98804L2 7.00004V10.022H4V6.98804Z" fill="#0E7BAB"/>
<path d="M18.9314 2H15.8975V4H18.9314V2Z" fill="#0E7BAB"/>
<path d="M12.8631 2H9.8291V4H12.8631V2Z" fill="#0E7BAB"/>
<path d="M30 9.86377H28V12.8978H30V9.86377Z" fill="#0E7BAB"/>
<path d="M30 15.9319H28V18.9659H30V15.9319Z" fill="#0E7BAB"/>
<path d="M6.74388 2.00708C5.46563 2.06962 4.26071 2.62265 3.37988 3.55108L4.82788 4.93008C5.35556 4.37217 6.07795 4.03909 6.84488 4.00008L6.74388 2.00708Z" fill="#0E7BAB"/>
<path d="M6.97754 28L7.00054 30H10.0115V28L7.06254 28.002L6.97754 28Z" fill="#0E7BAB"/>
<path d="M2.00586 25.241C2.06517 26.5196 2.61492 27.7262 3.54086 28.61L4.92486 27.166C4.36784 26.6369 4.03649 25.9133 3.99986 25.146L2.00586 25.241Z" fill="#0E7BAB"/>
<path d="M4 19.125H2V22.159H4V19.125Z" fill="#0E7BAB"/>
<path d="M4 13.0569H2V16.0919H4V13.0569Z" fill="#0E7BAB"/>
</svg>
