<svg width="64" height="64" viewBox="0 0 64 64" fill="none" xmlns="http://www.w3.org/2000/svg">
<path d="M58.9995 2H30.9995C30.2046 2.00237 29.4429 2.31921 28.8808 2.8813C28.3187 3.4434 28.0019 4.20508 27.9995 5V19.53C25.6481 17.6396 22.81 16.4526 19.8129 16.106C16.8158 15.7593 13.7817 16.2672 11.0608 17.5709C8.33992 18.8746 6.0431 20.9211 4.43539 23.4742C2.82768 26.0273 1.97461 28.9829 1.97461 32C1.97461 35.0171 2.82768 37.9727 4.43539 40.5258C6.0431 43.0789 8.33992 45.1254 11.0608 46.4291C13.7817 47.7328 16.8158 48.2407 19.8129 47.894C22.81 47.5474 25.6481 46.3604 27.9995 44.47V59C28.0019 59.7949 28.3187 60.5566 28.8808 61.1187C29.4429 61.6808 30.2046 61.9976 30.9995 62H58.9995C59.7945 61.9976 60.5561 61.6808 61.1182 61.1187C61.6803 60.5566 61.9972 59.7949 61.9995 59V5C61.9972 4.20508 61.6803 3.4434 61.1182 2.8813C60.5561 2.31921 59.7945 2.00237 58.9995 2ZM54.7195 4L54.2195 6H35.7795L35.2795 4H54.7195ZM17.9995 46C15.2306 46 12.5238 45.1789 10.2215 43.6406C7.91926 42.1022 6.12485 39.9157 5.06522 37.3576C4.00559 34.7994 3.72835 31.9845 4.26854 29.2687C4.80873 26.553 6.1421 24.0584 8.10004 22.1005C10.058 20.1426 12.5525 18.8092 15.2683 18.269C17.984 17.7288 20.7989 18.0061 23.3571 19.0657C25.9153 20.1253 28.1018 21.9197 29.6401 24.222C31.1784 26.5243 31.9995 29.2311 31.9995 32C31.9956 35.7118 30.5193 39.2705 27.8946 41.8951C25.27 44.5198 21.7113 45.996 17.9995 46ZM59.9995 59C59.9995 59.2652 59.8942 59.5196 59.7066 59.7071C59.5191 59.8946 59.2648 60 58.9995 60H30.9995C30.7343 60 30.48 59.8946 30.2924 59.7071C30.1049 59.5196 29.9995 59.2652 29.9995 59V42.55C32.5767 39.6399 33.9995 35.8872 33.9995 32C33.9995 28.1128 32.5767 24.3601 29.9995 21.45V5C29.9995 4.73478 30.1049 4.48043 30.2924 4.29289C30.48 4.10536 30.7343 4 30.9995 4H33.2195L34.0295 7.24C34.0831 7.4568 34.2078 7.64942 34.3836 7.78716C34.5594 7.9249 34.7762 7.99983 34.9995 8H54.9995C55.2229 7.99983 55.4397 7.9249 55.6155 7.78716C55.7913 7.64942 55.9159 7.4568 55.9695 7.24L56.7795 4H58.9995C59.2648 4 59.5191 4.10536 59.7066 4.29289C59.8942 4.48043 59.9995 4.73478 59.9995 5V59Z" fill="#0E7BAB"/>
<path d="M25 4.99992H12V2.99992C12.0003 2.80973 11.9464 2.6234 11.8445 2.46279C11.7427 2.30217 11.5972 2.17393 11.425 2.0931C11.2529 2.01227 11.0612 1.98221 10.8726 2.00644C10.6839 2.03068 10.5061 2.1082 10.36 2.22992L4.36 7.22992C4.24676 7.32375 4.15561 7.44141 4.09305 7.5745C4.03048 7.7076 3.99805 7.85285 3.99805 7.99992C3.99805 8.14698 4.03048 8.29224 4.09305 8.42533C4.15561 8.55843 4.24676 8.67608 4.36 8.76992L10.36 13.7699C10.5399 13.919 10.7664 14.0004 11 13.9999C11.1448 14 11.2879 13.9693 11.42 13.9099C11.5936 13.8296 11.7405 13.7012 11.8433 13.5399C11.9461 13.3786 12.0005 13.1912 12 12.9999V10.9999H25C25.2652 10.9999 25.5196 10.8946 25.7071 10.707C25.8946 10.5195 26 10.2651 26 9.99992V5.99992C26 5.7347 25.8946 5.48035 25.7071 5.29281C25.5196 5.10527 25.2652 4.99992 25 4.99992ZM24 8.99992H11C10.7348 8.99992 10.4804 9.10528 10.2929 9.29281C10.1054 9.48035 10 9.7347 10 9.99992V10.8699L6.56 7.99992L10 5.12992V5.99992C10 6.26513 10.1054 6.51949 10.2929 6.70702C10.4804 6.89456 10.7348 6.99992 11 6.99992H24V8.99992Z" fill="#0E7BAB"/>
<path d="M25.64 55.2299L19.64 50.2299C19.4939 50.1082 19.3161 50.0307 19.1274 50.0064C18.9388 49.9822 18.7472 50.0123 18.575 50.0931C18.4028 50.1739 18.2573 50.3022 18.1555 50.4628C18.0536 50.6234 17.9997 50.8097 18 50.9999V52.9999H5C4.73478 52.9999 4.48043 53.1053 4.29289 53.2928C4.10536 53.4803 4 53.7347 4 53.9999V57.9999C4 58.2651 4.10536 58.5195 4.29289 58.707C4.48043 58.8946 4.73478 58.9999 5 58.9999H18V60.9999C17.9995 61.1912 18.0539 61.3786 18.1567 61.5399C18.2595 61.7012 18.4064 61.8296 18.58 61.9099C18.7121 61.9693 18.8552 62 19 61.9999C19.2337 62.0004 19.4601 61.919 19.64 61.7699L25.64 56.7699C25.7532 56.6761 25.8444 56.5584 25.907 56.4253C25.9695 56.2922 26.002 56.147 26.002 55.9999C26.002 55.8529 25.9695 55.7076 25.907 55.5745C25.8444 55.4414 25.7532 55.3238 25.64 55.2299ZM20 58.8699V57.9999C20 57.7347 19.8946 57.4804 19.7071 57.2928C19.5196 57.1053 19.2652 56.9999 19 56.9999H6V54.9999H19C19.2652 54.9999 19.5196 54.8946 19.7071 54.707C19.8946 54.5195 20 54.2651 20 53.9999V53.1299L23.44 55.9999L20 58.8699Z" fill="#0E7BAB"/>
<path d="M18 27C18.5304 27 19.0391 27.2107 19.4142 27.5858C19.7893 27.9609 20 28.4696 20 29H22C21.9967 28.1158 21.7005 27.2576 21.1577 26.5596C20.6149 25.8615 19.8561 25.363 19 25.142V23H17V25.142C16.0584 25.3844 15.2376 25.962 14.6916 26.7666C14.1457 27.5712 13.9122 28.5474 14.035 29.512C14.1577 30.4765 14.6283 31.3631 15.3583 32.0053C16.0883 32.6475 17.0277 33.0012 18 33C18.3956 33 18.7822 33.1173 19.1111 33.3371C19.44 33.5568 19.6964 33.8692 19.8478 34.2346C19.9991 34.6001 20.0387 35.0022 19.9616 35.3902C19.8844 35.7781 19.6939 36.1345 19.4142 36.4142C19.1345 36.6939 18.7781 36.8844 18.3902 36.9616C18.0022 37.0387 17.6001 36.9991 17.2346 36.8478C16.8692 36.6964 16.5568 36.44 16.3371 36.1111C16.1173 35.7822 16 35.3956 16 35H14C14.0033 35.8842 14.2995 36.7424 14.8423 37.4404C15.3851 38.1385 16.1439 38.637 17 38.858V41H19V38.858C19.9416 38.6156 20.7624 38.0379 21.3084 37.2334C21.8543 36.4288 22.0878 35.4526 21.965 34.488C21.8423 33.5235 21.3717 32.6369 20.6417 31.9947C19.9117 31.3525 18.9723 30.9988 18 31C17.4696 31 16.9609 30.7893 16.5858 30.4142C16.2107 30.0391 16 29.5304 16 29C16 28.4696 16.2107 27.9609 16.5858 27.5858C16.9609 27.2107 17.4696 27 18 27Z" fill="#0E7BAB"/>
<path d="M9.51394 23.5149C7.26686 25.767 6.00488 28.8185 6.00488 31.9999C6.00488 35.1813 7.26686 38.2328 9.51394 40.4849L10.9279 39.0709C9.05531 37.1941 8.00363 34.6511 8.00363 31.9999C8.00363 29.3487 9.05531 26.8057 10.9279 24.9289L9.51394 23.5149Z" fill="#0E7BAB"/>
<path d="M26.4843 23.5149L25.0703 24.9289C26.9429 26.8057 27.9946 29.3487 27.9946 31.9999C27.9946 34.6511 26.9429 37.1941 25.0703 39.0709L26.4843 40.4849C28.7314 38.2328 29.9934 35.1813 29.9934 31.9999C29.9934 28.8185 28.7314 25.767 26.4843 23.5149Z" fill="#0E7BAB"/>
<path d="M52.394 26.081L45.394 23.081C45.2694 23.028 45.1354 23.0007 45 23.0007C44.8646 23.0007 44.7306 23.028 44.606 23.081L37.606 26.081C37.4262 26.1581 37.2729 26.2863 37.1652 26.4496C37.0575 26.613 37 26.8043 37 27V30.515C36.9977 31.4346 37.1776 32.3456 37.5295 33.1952C37.8814 34.0449 38.3982 34.8163 39.05 35.465L44.293 40.707C44.4805 40.8945 44.7349 40.9998 45 40.9998C45.2652 40.9998 45.5195 40.8945 45.707 40.707L50.95 35.465C51.6019 34.8163 52.1187 34.0449 52.4706 33.1952C52.8224 32.3456 53.0024 31.4346 53 30.515V27C53 26.8043 52.9426 26.613 52.8349 26.4496C52.7271 26.2863 52.5739 26.1581 52.394 26.081ZM51 30.515C51.0016 31.1719 50.8731 31.8226 50.6218 32.4295C50.3705 33.0364 50.0015 33.5875 49.536 34.051L45 38.586L40.465 34.051C39.9992 33.5877 39.6299 33.0366 39.3785 32.4297C39.127 31.8228 38.9984 31.172 39 30.515V27.659L45 25.088L51 27.659V30.515Z" fill="#0E7BAB"/>
<path d="M43.707 30.293L42.293 31.707L44.293 33.707C44.4805 33.8944 44.7348 33.9998 45 33.9998C45.2651 33.9998 45.5194 33.8944 45.707 33.707L49.707 29.707L48.293 28.293L45 31.586L43.707 30.293Z" fill="#0E7BAB"/>
</svg>
