<svg width="48" height="48" viewBox="0 0 48 48" fill="none" xmlns="http://www.w3.org/2000/svg">
<path d="M37.5 14.25H36V15.75C35.6022 15.75 35.2206 15.908 34.9393 16.1893C34.658 16.4706 34.5 16.8522 34.5 17.25V18.75C34.5 19.1478 34.658 19.5294 34.9393 19.8107C35.2206 20.092 35.6022 20.25 36 20.25H37.5V21.75H34.5V23.25H36V24.75H37.5V23.25C37.8978 23.25 38.2794 23.092 38.5607 22.8107C38.842 22.5294 39 22.1478 39 21.75V20.25C39 19.8522 38.842 19.4706 38.5607 19.1893C38.2794 18.908 37.8978 18.75 37.5 18.75H36V17.25H39V15.75H37.5V14.25Z" fill="#0E7BAB"/>
<path d="M45.75 4.49985H27.675C27.5029 3.65214 27.043 2.89 26.3732 2.34257C25.7034 1.79514 24.865 1.49609 24 1.49609C23.135 1.49609 22.2966 1.79514 21.6268 2.34257C20.957 2.89 20.4971 3.65214 20.325 4.49985H2.25C2.05109 4.49985 1.86032 4.57887 1.71967 4.71952C1.57902 4.86018 1.5 5.05094 1.5 5.24985V8.24985C1.5 8.44877 1.57902 8.63953 1.71967 8.78018C1.86032 8.92084 2.05109 8.99985 2.25 8.99985H5.775L4.035 15.5024C3.33858 16.7583 2.98206 18.1742 3.00069 19.6102C3.01933 21.0461 3.41247 22.4524 4.14124 23.6898C4.87001 24.9272 5.90916 25.953 7.15594 26.6656C8.40271 27.3783 9.81392 27.7531 11.25 27.7531C12.6861 27.7531 14.0973 27.3783 15.3441 26.6656C16.5908 25.953 17.63 24.9272 18.3588 23.6898C19.0875 22.4524 19.4807 21.0461 19.4993 19.6102C19.5179 18.1742 19.1614 16.7583 18.465 15.5024L16.725 8.99985H21.75V32.8349L12.21 30.0299C12.1421 30.0084 12.0712 29.9982 12 29.9999H7.5V28.4999C7.5 28.3009 7.42098 28.1102 7.28033 27.9695C7.13968 27.8289 6.94891 27.7499 6.75 27.7499H2.25C2.05109 27.7499 1.86032 27.8289 1.71967 27.9695C1.57902 28.1102 1.5 28.3009 1.5 28.4999V44.9999C1.5 45.1988 1.57902 45.3895 1.71967 45.5302C1.86032 45.6708 2.05109 45.7499 2.25 45.7499H6.75C6.94891 45.7499 7.13968 45.6708 7.28033 45.5302C7.42098 45.3895 7.5 45.1988 7.5 44.9999V43.7924L15.51 46.4624C15.5879 46.4858 15.6687 46.4984 15.75 46.4999H27C27.0846 46.5002 27.1685 46.4849 27.2475 46.4549L39 42.3074C39.4389 42.1522 39.8188 41.8647 40.0875 41.4846C40.3561 41.1044 40.5002 40.6503 40.5 40.1849V39.5024C40.5009 39.1529 40.42 38.8081 40.2637 38.4955C40.1075 38.1829 39.8801 37.9113 39.6 37.7024C39.319 37.4929 38.9934 37.3514 38.6485 37.289C38.3037 37.2265 37.9491 37.2448 37.6125 37.3424L26.895 40.4999H26.25V8.99985H31.275L29.535 15.5024C28.8386 16.7583 28.4821 18.1742 28.5007 19.6102C28.5193 21.0461 28.9125 22.4524 29.6412 23.6898C30.37 24.9272 31.4092 25.953 32.6559 26.6656C33.9027 27.3783 35.3139 27.7531 36.75 27.7531C38.1861 27.7531 39.5973 27.3783 40.8441 26.6656C42.0908 25.953 43.13 24.9272 43.8588 23.6898C44.5875 22.4524 44.9807 21.0461 44.9993 19.6102C45.0179 18.1742 44.6614 16.7583 43.965 15.5024L42.225 8.99985H45.75C45.9489 8.99985 46.1397 8.92084 46.2803 8.78018C46.421 8.63953 46.5 8.44877 46.5 8.24985V5.24985C46.5 5.05094 46.421 4.86018 46.2803 4.71952C46.1397 4.57887 45.9489 4.49985 45.75 4.49985ZM6 44.2499H3V29.2499H6V44.2499ZM18 19.4999C18 20.8349 17.6041 22.1399 16.8624 23.25C16.1207 24.36 15.0665 25.2251 13.8331 25.736C12.5997 26.2469 11.2425 26.3806 9.93314 26.1202C8.62377 25.8597 7.42103 25.2168 6.47703 24.2728C5.53302 23.3288 4.89015 22.1261 4.6297 20.8167C4.36925 19.5073 4.50292 18.1501 5.01381 16.9167C5.5247 15.6833 6.38987 14.6291 7.4999 13.8874C8.60993 13.1457 9.91498 12.7499 11.25 12.7499C13.0394 12.7526 14.7546 13.4647 16.0199 14.7299C17.2852 15.9952 17.9972 17.7105 18 19.4999ZM6.2775 12.9299L7.3275 8.99985H15.1725L16.2225 12.9299C14.7939 11.8401 13.0468 11.2499 11.25 11.2499C9.4532 11.2499 7.70614 11.8401 6.2775 12.9299V12.9299ZM27 41.9999C27.0712 42.0015 27.1421 41.9913 27.21 41.9699L38.04 38.7824C38.1518 38.7498 38.2696 38.7436 38.3842 38.7645C38.4987 38.7853 38.6069 38.8325 38.7 38.9024C38.7931 38.9722 38.8688 39.0628 38.9208 39.1669C38.9729 39.2711 39 39.3859 39 39.5024V40.1849C39.0009 40.3412 38.953 40.4939 38.8629 40.6216C38.7728 40.7494 38.6451 40.8458 38.4975 40.8974L26.8725 44.9999H15.87L7.5 42.2099V31.4999H11.895L23.46 34.9049C23.6158 34.9503 23.7526 35.045 23.85 35.1749C23.9474 35.3047 24 35.4626 24 35.6249V35.9999C24 36.1988 23.921 36.3895 23.7803 36.5302C23.6397 36.6708 23.4489 36.7499 23.25 36.7499H14.25C14.0846 36.7504 13.924 36.8055 13.7932 36.9068C13.6624 37.0081 13.5687 37.1497 13.5268 37.3097C13.4848 37.4698 13.497 37.6392 13.5613 37.7915C13.6257 37.9439 13.7386 38.0708 13.8825 38.1524L20.6325 41.9024C20.7439 41.9676 20.8709 42.0014 21 41.9999H27ZM23.25 33.2774V8.99985H24.75V33.9524C24.5017 33.7287 24.2072 33.5622 23.8875 33.4649L23.25 33.2774ZM24.75 37.6649V40.4999H23.25V38.2499C23.8054 38.2484 24.3403 38.0398 24.75 37.6649V37.6649ZM21.75 38.2499V40.4999H21.195L17.145 38.2499H21.75ZM43.5 19.4999C43.5 20.8349 43.1041 22.1399 42.3624 23.25C41.6207 24.36 40.5665 25.2251 39.3331 25.736C38.0997 26.2469 36.7425 26.3806 35.4331 26.1202C34.1238 25.8597 32.921 25.2168 31.977 24.2728C31.033 23.3288 30.3901 22.1261 30.1297 20.8167C29.8692 19.5073 30.0029 18.1501 30.5138 16.9167C31.0247 15.6833 31.8899 14.6291 32.9999 13.8874C34.1099 13.1457 35.415 12.7499 36.75 12.7499C38.5394 12.7526 40.2546 13.4647 41.5199 14.7299C42.7852 15.9952 43.4972 17.7105 43.5 19.4999ZM31.7775 12.9299L32.8275 8.99985H40.6725L41.7225 12.9299C40.2939 11.8401 38.5468 11.2499 36.75 11.2499C34.9532 11.2499 33.2061 11.8401 31.7775 12.9299V12.9299ZM45 7.49985H3V5.99985H21C21.1989 5.99985 21.3897 5.92084 21.5303 5.78018C21.671 5.63953 21.75 5.44877 21.75 5.24985C21.75 4.65312 21.9871 4.08082 22.409 3.65886C22.831 3.23691 23.4033 2.99985 24 2.99985C24.5967 2.99985 25.169 3.23691 25.591 3.65886C26.0129 4.08082 26.25 4.65312 26.25 5.24985C26.25 5.44877 26.329 5.63953 26.4697 5.78018C26.6103 5.92084 26.8011 5.99985 27 5.99985H45V7.49985Z" fill="#0E7BAB"/>
<path d="M11.25 14.25C10.2116 14.25 9.19661 14.5579 8.33326 15.1348C7.4699 15.7117 6.79699 16.5316 6.39963 17.4909C6.00227 18.4502 5.89831 19.5058 6.10088 20.5242C6.30345 21.5426 6.80347 22.4781 7.53769 23.2123C8.27192 23.9465 9.20738 24.4465 10.2258 24.6491C11.2442 24.8517 12.2998 24.7477 13.2591 24.3504C14.2184 23.953 15.0383 23.2801 15.6152 22.4167C16.1921 21.5534 16.5 20.5383 16.5 19.5C16.4984 18.1081 15.9448 16.7737 14.9606 15.7894C13.9763 14.8052 12.6419 14.2516 11.25 14.25V14.25ZM11.25 23.25C10.5083 23.25 9.7833 23.0301 9.16661 22.618C8.54993 22.206 8.06928 21.6203 7.78545 20.9351C7.50162 20.2498 7.42736 19.4958 7.57206 18.7684C7.71675 18.041 8.0739 17.3728 8.59835 16.8483C9.1228 16.3239 9.79098 15.9667 10.5184 15.8221C11.2458 15.6774 11.9998 15.7516 12.6851 16.0355C13.3703 16.3193 13.956 16.7999 14.368 17.4166C14.7801 18.0333 15 18.7583 15 19.5C14.9988 20.4942 14.6033 21.4473 13.9003 22.1503C13.1973 22.8533 12.2442 23.2488 11.25 23.25Z" fill="#0E7BAB"/>
<path d="M11.9997 19.599V17.25H10.4997V19.599L9.416 18.876L8.5835 20.124L10.8335 21.624C10.9567 21.7062 11.1016 21.7501 11.2497 21.7501C11.3979 21.7501 11.5427 21.7062 11.666 21.624L13.916 20.124L13.0835 18.876L11.9997 19.599Z" fill="#0E7BAB"/>
</svg>
