<svg width="48" height="48" viewBox="0 0 48 48" fill="none" xmlns="http://www.w3.org/2000/svg">
<path d="M46.3998 0H6.3998C5.958 0 5.5998 0.3582 5.5998 0.8V35.1842L1.4428 36.0157C1.0689 36.0904 0.799805 36.4187 0.799805 36.8V40.8C0.799805 41.2418 1.158 41.6 1.5998 41.6H3.1998V44C3.1998 44.4418 3.558 44.8 3.9998 44.8H5.5998V47.2C5.5998 47.6418 5.958 48 6.3998 48H46.3998C46.8416 48 47.1998 47.6418 47.1998 47.2V0.8C47.1998 0.3582 46.8416 0 46.3998 0ZM2.3998 40V37.4559L9.7568 35.9844C10.0768 35.9204 10.3258 35.6684 10.3861 35.3477L12.5374 23.8789C13.2364 24.0406 13.9631 24.0405 14.6621 23.8787L16.8134 35.3477C16.8737 35.6684 17.1227 35.9204 17.4427 35.9844L24.7998 37.4559V40H2.3998ZM10.6984 20.5515C10.5015 20.1282 10.3996 19.6669 10.3998 19.2C10.401 17.4327 11.8347 16.001 13.602 16.0022C15.3693 16.0034 16.801 17.4371 16.7998 19.2044C16.7989 20.4482 16.0775 21.5788 14.9498 22.1035C13.3472 22.8489 11.4438 22.1541 10.6984 20.5515ZM4.7998 43.2V41.6H22.3998V43.2H4.7998ZM45.5998 46.4H7.1998V44.8H23.1998C23.6416 44.8 23.9998 44.4418 23.9998 44V41.6H25.5998C26.0416 41.6 26.3998 41.2418 26.3998 40.8V36.8C26.3998 36.4187 26.1307 36.0904 25.7568 36.0156L18.2865 34.5215L16.1718 23.2476C18.4107 21.8275 19.0744 18.8612 17.6543 16.6223C16.2342 14.3834 13.2679 13.7197 11.029 15.1398C8.7901 16.5599 8.12641 19.5262 9.54651 21.7651C9.92521 22.3621 10.431 22.868 11.0278 23.2469L8.91311 34.5215L7.1998 34.8642V9.8961L25.5998 15.7841V18.4808C23.4353 18.9226 22.0388 21.0355 22.4806 23.2C22.9224 25.3645 25.0353 26.761 27.1998 26.3192C29.3643 25.8774 30.7608 23.7645 30.319 21.6C29.9983 20.0291 28.7707 18.8015 27.1998 18.4808V15.7841L45.5998 9.8961V46.4ZM28.7998 22.4C28.7998 23.7255 27.7253 24.8 26.3998 24.8C25.0743 24.8 23.9998 23.7255 23.9998 22.4C23.9998 21.0745 25.0743 20 26.3998 20C27.7247 20.0014 28.7984 21.0751 28.7998 22.4ZM24.7998 7.2C24.7998 6.3163 25.5161 5.6 26.3998 5.6C27.2835 5.6 27.9998 6.3163 27.9998 7.2C27.9998 8.0837 27.2835 8.8 26.3998 8.8C25.5165 8.7991 24.8007 8.0833 24.7998 7.2ZM45.5998 8.2159L27.1998 14.1041V10.2864C28.911 9.8446 29.94 8.0992 29.4982 6.388C29.0564 4.6768 27.311 3.6478 25.5998 4.0896C23.8886 4.5314 22.8596 6.2768 23.3014 7.988C23.5924 9.1152 24.4726 9.9954 25.5998 10.2864V14.1042L7.1998 8.2159V1.6H45.5998V8.2159Z" fill="#0E7BAB"/>
<path d="M43.9999 12.7998H42.3999V15.9998H43.9999V12.7998Z" fill="#0E7BAB"/>
<path d="M43.9999 18.3999H42.3999V21.5999H43.9999V18.3999Z" fill="#0E7BAB"/>
<path d="M43.9999 24H42.3999V27.2H43.9999V24Z" fill="#0E7BAB"/>
<path d="M43.9999 29.6001H42.3999V32.8001H43.9999V29.6001Z" fill="#0E7BAB"/>
<path d="M43.9999 35.2002H42.3999V38.4002H43.9999V35.2002Z" fill="#0E7BAB"/>
<path d="M43.9999 40.7998H42.3999V43.9998H43.9999V40.7998Z" fill="#0E7BAB"/>
</svg>
