<svg width="48" height="48" viewBox="0 0 48 48" fill="none" xmlns="http://www.w3.org/2000/svg">
<path d="M11.6128 20.1289H36.387V21.6773H11.6128V20.1289Z" fill="#0E7BAB"/>
<path d="M26.3228 23.2256H36.3873V24.774H26.3228V23.2256Z" fill="#0E7BAB"/>
<path d="M11.6128 23.2256H21.6773V24.774H11.6128V23.2256Z" fill="#0E7BAB"/>
<path d="M26.3228 17.0322H36.3873V18.5806H26.3228V17.0322Z" fill="#0E7BAB"/>
<path d="M11.6128 17.0322H21.6773V18.5806H11.6128V17.0322Z" fill="#0E7BAB"/>
<path d="M11.6128 13.9355H36.387V15.4839H11.6128V13.9355Z" fill="#0E7BAB"/>
<path d="M41.0324 17.939V13.9357C41.0324 11.3738 38.9491 9.29053 36.3872 9.29053V10.8389C38.0951 10.8389 39.484 12.2278 39.484 13.9357V17.939C39.484 19.3116 39.9369 20.6154 40.773 21.6776C39.9369 22.7399 39.484 24.0437 39.484 25.4163V29.4196C39.484 31.1275 38.0951 32.5163 36.3872 32.5163V34.0647C38.9491 34.0647 41.0324 31.9814 41.0324 29.4196V25.4163C41.0324 24.2108 41.5015 23.0774 42.3539 22.225L42.9013 21.6776L42.3539 21.1302C41.5015 20.2778 41.0324 19.1452 41.0324 17.939Z" fill="#0E7BAB"/>
<path d="M8.51597 29.4196V25.4163C8.51597 24.0437 8.0631 22.7399 7.22691 21.6776C8.0631 20.6154 8.51597 19.3116 8.51597 17.939V13.9357C8.51597 12.2278 9.90483 10.8389 11.6127 10.8389V9.29053C9.05088 9.29053 6.96758 11.3738 6.96758 13.9357V17.939C6.96758 19.1445 6.49846 20.2778 5.64601 21.1302L5.09863 21.6776L5.64601 22.225C6.49846 23.0774 6.96758 24.21 6.96758 25.4163V29.4196C6.96758 31.9814 9.05088 34.0647 11.6127 34.0647V32.5163C9.90483 32.5163 8.51597 31.1275 8.51597 29.4196Z" fill="#0E7BAB"/>
<path d="M24.0001 34.0645C22.2922 34.0645 20.9033 35.4533 20.9033 37.1612C20.9033 38.8691 22.2922 40.258 24.0001 40.258C25.708 40.258 27.0969 38.8691 27.0969 37.1612C27.0969 35.4533 25.708 34.0645 24.0001 34.0645ZM24.0001 38.7096C23.1461 38.7096 22.4517 38.0152 22.4517 37.1612C22.4517 36.3073 23.1461 35.6128 24.0001 35.6128C24.8541 35.6128 25.5485 36.3073 25.5485 37.1612C25.5485 38.0152 24.8541 38.7096 24.0001 38.7096Z" fill="#0E7BAB"/>
<path d="M24.0002 30.9678C22.972 30.9678 21.9524 31.2256 21.0527 31.7125L21.7906 33.0745C22.465 32.7097 23.2283 32.5162 24.0002 32.5162C26.5621 32.5162 28.6454 34.5995 28.6454 37.1613C28.6454 37.9332 28.4518 38.6965 28.087 39.3709L29.449 40.1088C29.9359 39.2091 30.1937 38.1895 30.1937 37.1613C30.1937 33.7463 27.4153 30.9678 24.0002 30.9678V30.9678Z" fill="#0E7BAB"/>
<path d="M24.0002 41.8065C21.4383 41.8065 19.355 39.7232 19.355 37.1613C19.355 36.3894 19.5486 35.6262 19.9134 34.9518L18.5513 34.2139C18.0645 35.1136 17.8066 36.1331 17.8066 37.1613C17.8066 40.5764 20.5851 43.3549 24.0002 43.3549C25.0284 43.3549 26.0479 43.0971 26.9476 42.6102L26.2097 41.2481C25.5353 41.6129 24.7721 41.8065 24.0002 41.8065V41.8065Z" fill="#0E7BAB"/>
<path d="M48 2.32258C48 1.04221 46.9578 0 45.6774 0H2.32258C1.04221 0 0 1.04221 0 2.32258V37.9355H13.1613V39.3141L15.099 39.7991C15.2835 40.4199 15.5319 41.019 15.8415 41.5891L14.8125 43.303L17.8567 46.3473L19.5707 45.3183C20.1408 45.6287 20.7399 45.877 21.3606 46.0607L21.8472 48H26.1528L26.6379 46.0622C27.2586 45.8778 27.8577 45.6294 28.4278 45.3198L30.1418 46.3488L33.186 43.3046L32.157 41.5906C32.4674 41.0205 32.7157 40.4214 32.8994 39.8007L34.8387 39.3141V37.9355H48V2.32258ZM2.32258 1.54839H45.6774C46.1038 1.54839 46.4516 1.89617 46.4516 2.32258V6.19355H1.54839V2.32258C1.54839 1.89617 1.89617 1.54839 2.32258 1.54839ZM33.2903 38.1052L31.6289 38.5207L31.5189 38.9769C31.331 39.7587 31.021 40.5042 30.5999 41.1925L30.3546 41.5929L31.2373 43.063L29.9025 44.3978L28.4323 43.5151L28.032 43.7605C27.3436 44.1816 26.5982 44.4912 25.8164 44.6794L25.3601 44.7894L24.9439 46.4516H23.0561L22.6406 44.7902L22.1843 44.6802C21.4026 44.4923 20.6571 44.1823 19.9687 43.7612L19.5684 43.5159L18.0983 44.3986L16.7635 43.0638L17.6462 41.5936L17.4008 41.1933C16.9797 40.5049 16.6701 39.7594 16.4819 38.9777L16.3718 38.5214L14.7097 38.1052V36.2174L16.3711 35.8019L16.4811 35.3456C16.669 34.5639 16.979 33.8184 17.4001 33.13L17.6454 32.7297L16.7627 31.2596L18.0975 29.9248L19.5677 30.8075L19.968 30.5621C20.6564 30.141 21.4018 29.8314 22.1836 29.6431L22.6399 29.5331L23.0561 27.871H24.9439L25.3594 29.5324L25.8156 29.6424C26.5974 29.8303 27.3429 30.1402 28.0312 30.5614L28.4316 30.8067L29.9017 29.924L31.2365 31.2588L30.3538 32.729L30.5992 33.1293C31.0203 33.8177 31.3299 34.5631 31.5181 35.3449L31.6281 35.8012L33.2903 36.2174V38.1052ZM34.8387 36.3871V35.0084L32.901 34.5234C32.7165 33.9027 32.4681 33.3036 32.1585 32.7335L33.1875 31.0195L30.1433 27.9753L28.4293 29.0043C27.8592 28.6939 27.2601 28.4456 26.6394 28.2618L26.1528 26.3226H21.8472L21.3621 28.2603C20.7414 28.4448 20.1423 28.6932 19.5722 29.0028L17.8582 27.9738L14.814 31.018L15.843 32.732C15.5326 33.302 15.2843 33.9012 15.1006 34.5219L13.1613 35.0084V36.3871H1.54839V7.74194H46.4516V36.3871H34.8387Z" fill="#0E7BAB"/>
<path d="M3.09668 3.09668H4.64507V4.64507H3.09668V3.09668Z" fill="#0E7BAB"/>
<path d="M6.19336 3.09668H7.74175V4.64507H6.19336V3.09668Z" fill="#0E7BAB"/>
<path d="M9.29053 3.09668H10.8389V4.64507H9.29053V3.09668Z" fill="#0E7BAB"/>
</svg>
