<svg width="48" height="48" viewBox="0 0 48 48" fill="none" xmlns="http://www.w3.org/2000/svg">
<path d="M43.5117 26.0811L43.3864 3.64107C43.3813 3.04488 43.1404 2.47496 42.7165 2.05578C42.2925 1.63659 41.7199 1.40221 41.1237 1.40382L6.62369 1.59657C6.02764 1.60191 5.45791 1.84286 5.03889 2.2668C4.61986 2.69074 4.38558 3.26324 4.38719 3.85932L4.51244 26.2986L1.62794 45.7626C1.61234 45.8697 1.62013 45.979 1.65077 46.0828C1.68141 46.1867 1.73418 46.2827 1.80544 46.3642C1.8767 46.4457 1.96478 46.5109 2.0636 46.5551C2.16243 46.5994 2.26966 46.6217 2.37794 46.6206L45.8779 46.3783C45.9861 46.3779 46.0929 46.3541 46.191 46.3086C46.2891 46.263 46.3761 46.1968 46.4462 46.1145C46.5163 46.0321 46.5678 45.9356 46.5971 45.8315C46.6264 45.7273 46.6328 45.6181 46.6159 45.5113L43.5117 26.0811ZM5.88719 3.85032C5.88619 3.65153 5.96415 3.46048 6.10394 3.31915C6.24373 3.17781 6.43391 3.09776 6.63269 3.09657L41.1327 2.90382C41.2312 2.90322 41.3288 2.92204 41.4201 2.95918C41.5113 2.99633 41.5943 3.05107 41.6643 3.1203C41.7344 3.18953 41.7901 3.27188 41.8284 3.36264C41.8666 3.45341 41.8866 3.55082 41.8872 3.64932L42.0087 25.3993L6.00869 25.6003L5.88719 3.85032ZM3.24494 45.1161L5.91194 27.1011L42.1212 26.8986L44.9892 44.8828L3.24494 45.1161Z" fill="#0E7BAB"/>
<path d="M40.1994 28.4097L7.84662 28.5897C7.6676 28.5908 7.49488 28.6559 7.35967 28.7732C7.22446 28.8906 7.13568 29.0524 7.10937 29.2295L5.10912 42.7415C5.09328 42.8487 5.10089 42.9582 5.13142 43.0622C5.16195 43.1662 5.21468 43.2624 5.28597 43.3441C5.35726 43.4258 5.44542 43.4911 5.54436 43.5354C5.64331 43.5798 5.7507 43.6021 5.85912 43.601L42.3646 43.3977C42.4728 43.3971 42.5796 43.3731 42.6776 43.3274C42.7756 43.2817 42.8626 43.2153 42.9326 43.1328C43.0025 43.0503 43.0538 42.9536 43.0829 42.8495C43.112 42.7453 43.1182 42.636 43.1011 42.5292L40.9494 29.0412C40.9209 28.8635 40.8295 28.7019 40.6918 28.586C40.5542 28.47 40.3794 28.4075 40.1994 28.4097ZM24.7831 29.9952L32.2831 29.9532L32.3506 41.9532L24.8506 41.9952L24.7831 29.9952ZM23.3499 42.0035L15.8499 42.0455L15.7831 30.0455L23.2831 30.0035L23.3499 42.0035ZM8.49987 30.086L14.2824 30.0537L14.3491 42.0537L6.72012 42.0965L8.49987 30.086ZM33.8499 41.945L33.7824 29.945L39.5656 29.9127L41.4781 41.9022L33.8499 41.945Z" fill="#0E7BAB"/>
<path d="M14.1748 10.5543C14.3736 10.5534 14.5646 10.6313 14.706 10.7711C14.8473 10.9109 14.9274 11.1011 14.9285 11.2998C14.9285 11.3987 14.9481 11.4966 14.9861 11.5879C15.024 11.6792 15.0797 11.7621 15.1498 11.8318C15.2199 11.9015 15.3031 11.9566 15.3947 11.9941C15.4862 12.0315 15.5842 12.0504 15.683 12.0498L18.683 12.0326C18.8818 12.0314 19.072 11.9513 19.2118 11.81C19.3516 11.6687 19.4295 11.4776 19.4285 11.2788C19.4216 10.2859 19.1338 9.3152 18.5982 8.47903C18.0627 7.64287 17.3013 6.9754 16.4023 6.55385L16.3955 5.29385C16.395 5.19536 16.375 5.09795 16.3367 5.00718C16.2985 4.91641 16.2428 4.83406 16.1727 4.76484C16.1026 4.69561 16.0196 4.64086 15.9284 4.60372C15.8372 4.56657 15.7395 4.54776 15.641 4.54835L12.641 4.56485C12.5426 4.56544 12.4451 4.58543 12.3544 4.62366C12.2636 4.6619 12.1813 4.71764 12.112 4.7877C12.0428 4.85776 11.9881 4.94077 11.9509 5.032C11.9138 5.12322 11.895 5.22086 11.8955 5.31935L11.9023 6.5711C11.1763 6.91611 10.5401 7.42452 10.0434 8.0565C9.54675 8.68849 9.20315 9.42689 9.03955 10.2138C8.87716 10.9815 8.88875 11.7759 9.07346 12.5385C9.25818 13.3011 9.61133 14.0127 10.107 14.621C10.6027 15.2294 11.2283 15.719 11.9379 16.0539C12.6475 16.3888 13.4231 16.5606 14.2078 16.5566C14.3563 16.5557 14.5018 16.5989 14.6257 16.6808C14.7496 16.7627 14.8465 16.8795 14.9039 17.0164C14.9614 17.1534 14.9769 17.3044 14.9484 17.4501C14.92 17.5959 14.8489 17.73 14.7442 17.8353C14.6395 17.9407 14.5059 18.0125 14.3603 18.0418C14.2147 18.0711 14.0636 18.0566 13.9263 17.9999C13.789 17.9433 13.6716 17.8472 13.589 17.7237C13.5064 17.6003 13.4623 17.4551 13.4623 17.3066C13.4617 17.2081 13.4417 17.1107 13.4035 17.0199C13.3653 16.9292 13.3095 16.8468 13.2395 16.7776C13.1694 16.7084 13.0864 16.6536 12.9952 16.6165C12.9039 16.5793 12.8063 16.5605 12.7078 16.5611L9.7078 16.5776C9.60931 16.5782 9.51189 16.5982 9.42113 16.6364C9.33036 16.6746 9.24801 16.7304 9.17878 16.8004C9.10956 16.8705 9.05481 16.9535 9.01766 17.0447C8.98052 17.136 8.96171 17.2336 8.9623 17.3321C8.96902 18.3251 9.25683 19.2959 9.79239 20.1321C10.328 20.9683 11.0894 21.6357 11.9885 22.0571L11.996 23.3171C11.996 23.4159 12.0156 23.5137 12.0535 23.605C12.0914 23.6962 12.147 23.7791 12.217 23.8487C12.2871 23.9184 12.3702 23.9736 12.4616 24.0111C12.5531 24.0485 12.651 24.0676 12.7498 24.0671L15.7498 24.0498C15.9487 24.0498 16.1395 23.9708 16.2801 23.8302C16.4208 23.6895 16.4998 23.4988 16.4998 23.2998L16.4923 22.0391C17.5631 21.5205 18.4261 20.6535 18.9396 19.5802C19.4532 18.507 19.587 17.2911 19.3191 16.1318C19.0511 14.9726 18.3974 13.9387 17.4649 13.1996C16.5325 12.4606 15.3766 12.0602 14.1868 12.0641C14.0883 12.0646 13.9907 12.0458 13.8995 12.0086C13.8083 11.9714 13.7253 11.9166 13.6553 11.8473C13.5852 11.7781 13.5295 11.6957 13.4913 11.6049C13.4532 11.5141 13.4332 11.4167 13.4327 11.3182C13.4321 11.2197 13.451 11.1221 13.4882 11.0309C13.5254 10.9397 13.5802 10.8567 13.6494 10.7867C13.7187 10.7167 13.8011 10.661 13.8918 10.6228C13.9826 10.5846 14.0801 10.5646 14.1785 10.5641L14.1748 10.5543ZM14.1913 13.5543C15.0742 13.5517 15.9297 13.8606 16.6072 14.4267C17.2848 14.9929 17.7408 15.7799 17.895 16.6492C18.0493 17.5186 17.8918 18.4144 17.4504 19.1791C17.009 19.9437 16.312 20.5281 15.482 20.8293C15.3362 20.8819 15.2103 20.9783 15.1215 21.1054C15.0327 21.2324 14.9855 21.3838 14.9863 21.5388L14.9915 22.5506L13.4915 22.5588L13.4863 21.5478C13.4854 21.3927 13.4365 21.2417 13.3462 21.1156C13.256 20.9895 13.1288 20.8945 12.9823 20.8436C12.3719 20.6307 11.8267 20.2641 11.3993 19.779C10.9719 19.294 10.6769 18.7069 10.5425 18.0746L12.095 18.0656C12.2346 18.4538 12.4782 18.7961 12.7993 19.0552C13.1203 19.3143 13.5064 19.4802 13.9153 19.5346C14.3242 19.5891 14.7402 19.5301 15.1179 19.364C15.4955 19.198 15.8203 18.9313 16.0566 18.5932C16.2929 18.2551 16.4317 17.8585 16.4578 17.4468C16.4839 17.0351 16.3964 16.6241 16.2047 16.2588C16.013 15.8935 15.7246 15.588 15.3709 15.3755C15.0173 15.1631 14.6121 15.052 14.1995 15.0543C13.6416 15.0581 13.0899 14.937 12.5848 14.6999C12.0798 14.4628 11.6341 14.1157 11.2805 13.6841C10.9233 13.2459 10.6687 12.7334 10.5353 12.1841C10.4019 11.6348 10.3931 11.0625 10.5095 10.5093C10.6403 9.88598 10.9295 9.30683 11.3493 8.82774C11.769 8.34864 12.3051 7.98577 12.9058 7.7741C13.0526 7.7221 13.1795 7.62571 13.269 7.49831C13.3585 7.3709 13.4061 7.2188 13.4053 7.0631L13.3993 6.0581L14.8993 6.04985L14.9053 7.06085C14.9062 7.21594 14.9551 7.36695 15.0454 7.49307C15.1356 7.61919 15.2628 7.71423 15.4093 7.7651C16.0199 7.97759 16.5653 8.34403 16.9928 8.82897C17.4203 9.31391 17.7155 9.90096 17.8498 10.5333L16.2973 10.5423C16.1576 10.1542 15.9139 9.812 15.5928 9.55304C15.2718 9.29408 14.8857 9.12837 14.4768 9.07401C14.0679 9.01965 13.6519 9.07874 13.2744 9.24481C12.8968 9.41089 12.5721 9.67757 12.3359 10.0157C12.0996 10.3538 11.9609 10.7504 11.9348 11.162C11.9087 11.5737 11.9963 11.9846 12.1879 12.3499C12.3796 12.7151 12.668 13.0207 13.0216 13.2331C13.3751 13.4455 13.7803 13.5566 14.1928 13.5543H14.1913Z" fill="#0E7BAB"/>
<path d="M20.8931 4.50879L23.8931 4.49079L23.9021 5.99079L20.9021 6.00879L20.8931 4.50879Z" fill="#0E7BAB"/>
<path d="M25.3926 4.48096L38.8926 4.39996L38.9016 5.89996L25.4016 5.98096L25.3926 4.48096Z" fill="#0E7BAB"/>
<path d="M20.9199 9.00781L23.9199 8.98981L23.9289 10.4898L20.9289 10.5078L20.9199 9.00781Z" fill="#0E7BAB"/>
<path d="M25.4199 8.98145L38.9199 8.90045L38.9289 10.4004L25.4289 10.4814L25.4199 8.98145Z" fill="#0E7BAB"/>
<path d="M20.9463 13.5078L23.9463 13.4898L23.9553 14.9898L20.9553 15.0078L20.9463 13.5078Z" fill="#0E7BAB"/>
<path d="M25.4473 13.4814L38.9473 13.4004L38.9563 14.9004L25.4563 14.9814L25.4473 13.4814Z" fill="#0E7BAB"/>
<path d="M32.7859 20.8254L32.1971 18.5251C32.1642 18.3964 32.0978 18.2786 32.0045 18.184C31.9111 18.0894 31.7944 18.0213 31.6661 17.9866C31.5381 17.9514 31.403 17.9511 31.2749 17.9856C31.1467 18.0202 31.0301 18.0884 30.9371 18.1831L28.6871 20.4601L27.6409 18.3969C27.587 18.2913 27.5089 18.1999 27.413 18.1303C27.3171 18.0607 27.206 18.0149 27.0889 17.9965C26.9718 17.9782 26.852 17.9878 26.7394 18.0247C26.6267 18.0615 26.5244 18.1246 26.4409 18.2086L23.4536 21.2251L24.5201 22.2751L26.7701 19.9989L27.8201 22.0621C27.8739 22.1682 27.9521 22.26 28.0484 22.3299C28.1446 22.3998 28.2561 22.4458 28.3736 22.4641C28.491 22.483 28.6111 22.4734 28.724 22.4363C28.8369 22.3991 28.9392 22.3353 29.0224 22.2503L31.0721 20.1751L31.5101 21.8873C31.5514 22.0495 31.6458 22.1931 31.7781 22.2955C31.9105 22.3978 32.0733 22.4529 32.2406 22.4521C32.291 22.4518 32.3412 22.4465 32.3906 22.4363L36.1361 21.6653L35.8361 20.1961L32.7859 20.8254Z" fill="#0E7BAB"/>
<path d="M9.81445 33.0762L12.8145 33.0582L12.8235 34.5582L9.82345 34.5762L9.81445 33.0762Z" fill="#0E7BAB"/>
<path d="M9.84082 37.5757L12.8408 37.5577L12.8498 39.0577L9.84982 39.0757L9.84082 37.5757Z" fill="#0E7BAB"/>
<path d="M35.314 32.9229L38.314 32.9049L38.323 34.4049L35.323 34.4229L35.314 32.9229Z" fill="#0E7BAB"/>
<path d="M35.3413 37.4229L38.3413 37.4049L38.3503 38.9049L35.3503 38.9229L35.3413 37.4229Z" fill="#0E7BAB"/>
<path d="M17.3145 33.0303L21.8145 33.0033L21.8235 34.5033L17.3235 34.5303L17.3145 33.0303Z" fill="#0E7BAB"/>
<path d="M17.3413 37.5298L21.8413 37.5028L21.8503 39.0028L17.3503 39.0298L17.3413 37.5298Z" fill="#0E7BAB"/>
<path d="M26.314 32.9766L30.814 32.9496L30.823 34.4496L26.323 34.4766L26.314 32.9766Z" fill="#0E7BAB"/>
<path d="M26.3408 37.4761L30.8408 37.4491L30.8498 38.9491L26.3498 38.9761L26.3408 37.4761Z" fill="#0E7BAB"/>
</svg>
