<svg width="48" height="48" viewBox="0 0 48 48" fill="none" xmlns="http://www.w3.org/2000/svg">
<g clip-path="url(#clip0)">
<path d="M47.0625 41.4375H46.125V11.4377C46.125 9.88693 44.8633 8.62525 43.3125 8.62525H41.4373V1.87499C41.4373 0.841122 40.5962 0 39.5623 0H8.43765C7.40378 0 6.56266 0.841122 6.56266 1.87499V8.62534H4.68758C3.13677 8.62534 1.87509 9.88702 1.87509 11.4378V41.4376H0.937496C0.419717 41.4376 0 41.8573 0 42.3751V45.1876C0 46.7384 1.26168 48.0001 2.81249 48.0001H45.1874C46.7382 48.0001 47.9999 46.7384 47.9999 45.1876V42.3751C48 41.8572 47.5803 41.4375 47.0625 41.4375V41.4375ZM41.4372 14.2503C41.4372 14.2503 41.4373 14.2503 41.4372 14.2503H44.2498V37.6874H41.4372V14.2503ZM41.4373 10.5002H43.3124C43.8294 10.5002 44.2499 10.9208 44.2499 11.4377V12.3753H41.4373V10.5002C41.4373 10.5002 41.4372 10.5002 41.4373 10.5002ZM3.75008 14.2503H6.56266V37.6874H3.75008V14.2503ZM4.68758 10.5002H6.56266V12.3753H3.75008V11.4377C3.75008 10.9208 4.17064 10.5002 4.68758 10.5002ZM3.75008 41.4374V39.5623H19.7809C20.2987 39.5623 20.7184 39.1426 20.7184 38.6248C20.7184 38.1071 20.2987 37.6874 19.7809 37.6874H8.43775V1.87499H39.5623V37.6874H28.2184C27.7006 37.6874 27.2809 38.1071 27.2809 38.6248C27.2809 39.1426 27.7006 39.5623 28.2184 39.5623H44.2498V41.4374H29.6249C29.1071 41.4374 28.6874 41.8572 28.6874 42.3749H19.3124C19.3124 41.8572 18.8927 41.4374 18.3749 41.4374H3.75008C3.75008 41.4375 3.75008 41.4375 3.75008 41.4374V41.4374ZM46.125 45.1875C46.125 45.7044 45.7044 46.125 45.1875 46.125H2.81249C2.29555 46.125 1.87499 45.7044 1.87499 45.1875V43.3125H17.6891C18.0138 43.8726 18.6199 44.25 19.3125 44.25H28.6875C29.3801 44.25 29.9862 43.8726 30.3108 43.3125H46.125V45.1875Z" fill="#0E7BAB"/>
<path d="M34.8749 25.6113C34.1236 25.6113 33.4174 25.9039 32.8862 26.4351L30.2987 29.0226L29.859 28.5829C29.3279 28.0517 28.6216 27.7592 27.8704 27.7592C27.1192 27.7592 26.413 28.0518 25.8819 28.5829C25.3507 29.1141 25.0581 29.8203 25.0581 30.5715C25.0581 31.3228 25.3507 32.029 25.8818 32.5602L28.3101 34.9885C28.8584 35.5367 29.5785 35.8109 30.2987 35.8109C31.0189 35.8109 31.7391 35.5367 32.2874 34.9885L36.8635 30.4124C37.96 29.3159 37.96 27.5317 36.8635 26.4351C36.3323 25.9039 35.6261 25.6113 34.8749 25.6113ZM35.5377 29.0865L30.9615 33.6626C30.5962 34.028 30.0014 34.028 29.636 33.6626L27.2077 31.2343C27.0306 31.0573 26.9332 30.8219 26.9332 30.5715C26.9332 30.3211 27.0307 30.0858 27.2077 29.9088C27.3847 29.7317 27.6201 29.6343 27.8704 29.6343C28.1207 29.6343 28.3561 29.7318 28.5331 29.9088L29.6357 31.0114C29.8115 31.1872 30.05 31.286 30.2986 31.286C30.5473 31.286 30.7858 31.1872 30.9615 31.0114L34.2119 27.761C34.3889 27.5839 34.6244 27.4865 34.8748 27.4865C35.1251 27.4865 35.3605 27.584 35.5375 27.761C35.9031 28.1264 35.9031 28.721 35.5377 29.0865V29.0865Z" fill="#0E7BAB"/>
<path d="M13.1255 3.75C11.5747 3.75 10.313 5.01169 10.313 6.5625C10.313 8.11331 11.5747 9.375 13.1255 9.375C14.6763 9.375 15.938 8.11331 15.938 6.5625C15.938 5.01169 14.6763 3.75 13.1255 3.75V3.75ZM13.1255 7.5C12.6086 7.5 12.188 7.07944 12.188 6.5625C12.188 6.04556 12.6086 5.625 13.1255 5.625C13.6424 5.625 14.063 6.04556 14.063 6.5625C14.063 7.07944 13.6424 7.5 13.1255 7.5Z" fill="#0E7BAB"/>
<path d="M18.7505 5.625H36.7498C37.2676 5.625 37.6873 5.20528 37.6873 4.6875C37.6873 4.16972 37.2676 3.75 36.7498 3.75H18.7505C18.2327 3.75 17.813 4.16972 17.813 4.6875C17.813 5.20528 18.2327 5.625 18.7505 5.625Z" fill="#0E7BAB"/>
<path d="M18.7505 9.375H36.7498C37.2676 9.375 37.6873 8.95528 37.6873 8.4375C37.6873 7.91972 37.2676 7.5 36.7498 7.5H18.7505C18.2327 7.5 17.813 7.91972 17.813 8.4375C17.813 8.95528 18.2327 9.375 18.7505 9.375Z" fill="#0E7BAB"/>
<path d="M13.1255 12.188C11.5747 12.188 10.313 13.4497 10.313 15.0005C10.313 16.5513 11.5747 17.813 13.1255 17.813C14.6763 17.813 15.938 16.5513 15.938 15.0005C15.938 13.4497 14.6763 12.188 13.1255 12.188ZM13.1255 15.938C12.6086 15.938 12.188 15.5174 12.188 15.0005C12.188 14.4836 12.6086 14.063 13.1255 14.063C13.6424 14.063 14.063 14.4836 14.063 15.0005C14.063 15.5174 13.6424 15.938 13.1255 15.938Z" fill="#0E7BAB"/>
<path d="M18.7505 14.063H36.7498C37.2676 14.063 37.6873 13.6433 37.6873 13.1255C37.6873 12.6077 37.2676 12.188 36.7498 12.188H18.7505C18.2327 12.188 17.813 12.6077 17.813 13.1255C17.813 13.6433 18.2327 14.063 18.7505 14.063Z" fill="#0E7BAB"/>
<path d="M18.7505 17.8125H36.7498C37.2676 17.8125 37.6873 17.3928 37.6873 16.875C37.6873 16.3572 37.2676 15.9375 36.7498 15.9375H18.7505C18.2327 15.9375 17.813 16.3572 17.813 16.875C17.813 17.3928 18.2327 17.8125 18.7505 17.8125Z" fill="#0E7BAB"/>
<path d="M13.1255 20.6255C11.5747 20.6255 10.313 21.8872 10.313 23.438C10.313 24.9888 11.5747 26.2505 13.1255 26.2505C14.6763 26.2505 15.938 24.9888 15.938 23.438C15.938 21.8872 14.6763 20.6255 13.1255 20.6255V20.6255ZM13.1255 24.3755C12.6086 24.3755 12.188 23.9549 12.188 23.438C12.188 22.9211 12.6086 22.5005 13.1255 22.5005C13.6424 22.5005 14.063 22.9211 14.063 23.438C14.063 23.9549 13.6424 24.3755 13.1255 24.3755Z" fill="#0E7BAB"/>
<path d="M18.7505 22.5005H36.7498C37.2676 22.5005 37.6873 22.0808 37.6873 21.563C37.6873 21.0452 37.2676 20.6255 36.7498 20.6255H18.7505C18.2327 20.6255 17.813 21.0452 17.813 21.563C17.813 22.0808 18.2327 22.5005 18.7505 22.5005Z" fill="#0E7BAB"/>
<path d="M18.7505 26.2505H27.7502C28.268 26.2505 28.6877 25.8308 28.6877 25.313C28.6877 24.7952 28.268 24.3755 27.7502 24.3755H18.7505C18.2327 24.3755 17.813 24.7952 17.813 25.313C17.813 25.8308 18.2327 26.2505 18.7505 26.2505Z" fill="#0E7BAB"/>
<path d="M13.1255 29.0625C11.5747 29.0625 10.313 30.3242 10.313 31.875C10.313 33.4258 11.5747 34.6875 13.1255 34.6875C14.6763 34.6875 15.938 33.4258 15.938 31.875C15.938 30.3242 14.6763 29.0625 13.1255 29.0625ZM13.1255 32.8126C12.6086 32.8126 12.188 32.392 12.188 31.8751C12.188 31.3582 12.6086 30.9376 13.1255 30.9376C13.6424 30.9376 14.063 31.3582 14.063 31.8751C14.063 32.392 13.6424 32.8126 13.1255 32.8126Z" fill="#0E7BAB"/>
<path d="M18.7504 30.938H22.1999C22.7177 30.938 23.1374 30.5183 23.1374 30.0005C23.1374 29.4827 22.7177 29.063 22.1999 29.063H18.7505C18.2327 29.063 17.813 29.4827 17.813 30.0005C17.813 30.5183 18.2326 30.938 18.7504 30.938V30.938Z" fill="#0E7BAB"/>
<path d="M23.1374 33.7505C23.1374 33.2327 22.7177 32.813 22.1999 32.813H18.7505C18.2327 32.813 17.813 33.2327 17.813 33.7505C17.813 34.2683 18.2327 34.688 18.7505 34.688H22.1999C22.7177 34.688 23.1374 34.2683 23.1374 33.7505Z" fill="#0E7BAB"/>
<path d="M23.9998 37.687H23.9991C23.4814 37.687 23.062 38.1067 23.062 38.6245C23.062 39.1423 23.482 39.562 23.9998 39.562C24.5176 39.562 24.9373 39.1423 24.9373 38.6245C24.9373 38.1067 24.5176 37.687 23.9998 37.687Z" fill="#0E7BAB"/>
</g>
<defs>
<clipPath id="clip0">
<rect width="48" height="48" fill="white"/>
</clipPath>
</defs>
</svg>
