<svg width="20" height="20" viewBox="0 0 20 20" fill="none" xmlns="http://www.w3.org/2000/svg">
<g clip-path="url(#clip0)">
<path d="M20 9.98555V10C20 10.3359 19.9832 10.6684 19.9508 10.9961C19.8773 11.7395 19.7227 12.4586 19.4953 13.1449C18.3355 16.6484 15.291 19.2938 11.5625 19.8785C11.066 19.9563 10.557 19.9977 10.0391 19.9996C10.0262 20 10.0129 20 10 20C9.90859 20 9.81758 19.9988 9.72656 19.9965C9.25078 19.9836 8.78359 19.9379 8.32656 19.8605C3.60078 19.0645 0 14.9523 0 10C0 4.47734 4.47734 0 10 0C15.1254 0 19.3504 3.85625 19.9316 8.82539C19.9762 9.20586 19.9996 9.59297 20 9.98555Z" fill="#FD9E27"/>
<path d="M20.0001 9.98554V9.99999C20.0001 10.3359 19.9833 10.6684 19.9509 10.9961C19.8774 11.7394 19.7227 12.4586 19.4954 13.1449C18.3356 16.6484 15.2911 19.2937 11.5626 19.8785C11.0661 19.9562 10.5571 19.9977 10.0392 19.9996C10.0263 20 10.013 20 10.0001 20C9.90869 20 9.81767 19.9988 9.72666 19.9965C9.25088 19.9836 8.78369 19.9379 8.32666 19.8605C8.3208 19.8547 2.80127 14.3352 2.80127 14.3352L3.31533 11.9121L4.3501 9.86601H5.70947L7.58369 8.72265L6.07197 7.21015L13.9767 3.20859C13.9767 3.20859 16.8802 6.11171 16.8868 6.11796L17.2876 6.18124L19.9317 8.82538C19.9763 9.20585 19.9997 9.59296 20.0001 9.98554Z" fill="#DA7D00"/>
<path d="M8.83374 6.82793V9.64664V9.89175V15.7511H11.1775V9.89175V9.64664V6.82793H8.83374Z" fill="#06465E"/>
<path d="M10 6.82793V15.7511H11.1775V9.89175V9.64664V6.82793H10Z" fill="#022B3A"/>
<path d="M15.7436 7.90923V9.62036H14.1824V10.6113H15.7436H16.7182H16.7345V7.90923H15.7436Z" fill="#06465E"/>
<path d="M16.9678 5.93034L16.7013 6.54566L16.599 6.78195C16.7136 6.88226 16.7865 7.02921 16.7865 7.19312C16.7865 7.49468 16.5412 7.73999 16.2396 7.73999C15.938 7.73999 15.6927 7.49464 15.6927 7.19312C15.6927 7.02921 15.7656 6.88226 15.8802 6.78195L15.7779 6.54566L15.5114 5.93034C15.0754 6.18277 14.7812 6.65405 14.7812 7.19308C14.7812 7.99722 15.4355 8.65144 16.2396 8.65144C17.0437 8.65144 17.698 7.99722 17.698 7.19308C17.698 6.65409 17.4038 6.18277 16.9678 5.93034Z" fill="#EAEAEA"/>
<path d="M4.30608 12.568V10.8568H5.86733V9.86591H4.30608H3.33155H3.31519V12.568H4.30608Z" fill="#06465E"/>
<path d="M3.81023 11.0841C4.21295 11.0841 4.53941 10.7576 4.53941 10.3549C4.53941 9.95221 4.21295 9.62575 3.81023 9.62575C3.40752 9.62575 3.08105 9.95221 3.08105 10.3549C3.08105 10.7576 3.40752 11.0841 3.81023 11.0841Z" fill="white"/>
<path d="M3.082 14.5468L3.34845 13.9316L3.45075 13.6953C3.33614 13.595 3.26329 13.448 3.26329 13.2841C3.26329 12.9825 3.5086 12.7372 3.81016 12.7372C4.11172 12.7372 4.35704 12.9826 4.35704 13.2841C4.35704 13.448 4.28419 13.595 4.16958 13.6953L4.27188 13.9316L4.53833 14.5468C4.97434 14.2944 5.26852 13.8231 5.26852 13.2841C5.26852 12.48 4.6143 11.8257 3.81016 11.8257C3.00602 11.8257 2.35181 12.48 2.35181 13.2841C2.35181 13.8231 2.64599 14.2944 3.082 14.5468Z" fill="white"/>
<path d="M13.1306 7.53442H6.88062C6.23339 7.53442 5.70874 7.00978 5.70874 6.36255V4.0188C5.70874 3.37157 6.23339 2.84692 6.88062 2.84692H13.1306C13.7778 2.84692 14.3025 3.37157 14.3025 4.0188V6.36255C14.3025 7.00978 13.7778 7.53442 13.1306 7.53442Z" fill="white"/>
<path d="M13.1306 2.84692H10V7.53442H13.1306C13.7778 7.53442 14.3025 7.00978 14.3025 6.36255V4.0188C14.3025 3.37161 13.7778 2.84692 13.1306 2.84692Z" fill="#EAEAEA"/>
<path d="M13.1306 13.8006H6.88062C6.23339 13.8006 5.70874 13.2759 5.70874 12.6287V9.89433C5.70874 9.24711 6.23339 8.72246 6.88062 8.72246H13.1306C13.7778 8.72246 14.3025 9.24711 14.3025 9.89433V12.6287C14.3025 13.2759 13.7778 13.8006 13.1306 13.8006Z" fill="white"/>
<path d="M13.1306 8.72246H10V13.8006H13.1306C13.7778 13.8006 14.3025 13.2759 14.3025 12.6287V9.89433C14.3025 9.24715 13.7778 8.72246 13.1306 8.72246Z" fill="#EAEAEA"/>
<path d="M13.0371 16.7625H7.01714C6.52214 16.7625 6.12085 16.3612 6.12085 15.8662C6.12085 15.3712 6.52214 14.9699 7.01714 14.9699H13.0371C13.5321 14.9699 13.9334 15.3712 13.9334 15.8662C13.9333 16.3612 13.5321 16.7625 13.0371 16.7625Z" fill="white"/>
<path d="M13.037 14.9699H10V16.7625H13.037C13.532 16.7625 13.9333 16.3612 13.9333 15.8662C13.9333 15.3712 13.532 14.9699 13.037 14.9699Z" fill="#EAEAEA"/>
<path d="M11.9587 6.26489C12.552 6.26489 13.033 5.78395 13.033 5.19067C13.033 4.5974 12.552 4.11646 11.9587 4.11646C11.3655 4.11646 10.8845 4.5974 10.8845 5.19067C10.8845 5.78395 11.3655 6.26489 11.9587 6.26489Z" fill="#06465E"/>
<path d="M11.9587 6.75317C11.0972 6.75317 10.3962 6.05224 10.3962 5.19067C10.3962 4.32911 11.0972 3.62817 11.9587 3.62817C12.8203 3.62817 13.5212 4.32911 13.5212 5.19067C13.5212 6.05224 12.8203 6.75317 11.9587 6.75317ZM11.9587 4.60474C11.6357 4.60474 11.3728 4.86759 11.3728 5.19067C11.3728 5.51376 11.6357 5.77661 11.9587 5.77661C12.2818 5.77661 12.5447 5.51376 12.5447 5.19067C12.5447 4.86759 12.2818 4.60474 11.9587 4.60474Z" fill="#2284EC"/>
<path d="M8.05249 6.26489C8.64577 6.26489 9.12671 5.78395 9.12671 5.19067C9.12671 4.5974 8.64577 4.11646 8.05249 4.11646C7.45922 4.11646 6.97827 4.5974 6.97827 5.19067C6.97827 5.78395 7.45922 6.26489 8.05249 6.26489Z" fill="#06465E"/>
<path d="M8.05249 6.75317C7.19093 6.75317 6.48999 6.05224 6.48999 5.19067C6.48999 4.32911 7.19093 3.62817 8.05249 3.62817C8.91405 3.62817 9.61499 4.32911 9.61499 5.19067C9.61499 6.05224 8.91401 6.75317 8.05249 6.75317ZM8.05249 4.60474C7.7294 4.60474 7.46655 4.86759 7.46655 5.19067C7.46655 5.51376 7.7294 5.77661 8.05249 5.77661C8.37558 5.77661 8.63843 5.51376 8.63843 5.19067C8.63843 4.86759 8.37558 4.60474 8.05249 4.60474Z" fill="#27ADE5"/>
</g>
<defs>
<clipPath id="clip0">
<rect width="20" height="20" fill="white"/>
</clipPath>
</defs>
</svg>
