<svg width="15" height="15" viewBox="0 0 15 15" fill="none" xmlns="http://www.w3.org/2000/svg">
<g clip-path="url(#clip0)">
<path d="M10.1659 0.439446V11.9238C10.1659 12.1699 9.97263 12.3633 9.72646 12.3633H5.33204L0.9375 -7.62939e-06H9.72646C9.97263 -7.62939e-06 10.1659 0.193283 10.1659 0.439446Z" fill="#575F64"/>
<path d="M10.1659 0.439446V11.9238C10.1659 12.1699 9.97263 12.3633 9.72647 12.3633H5.77148V-7.62939e-06H9.72647C9.97263 -7.62939e-06 10.1659 0.193283 10.1659 0.439446Z" fill="#32393F"/>
<path d="M5.1059 14.9377L0.711365 12.301C0.579186 12.2216 0.498047 12.0786 0.498047 11.9241V0.439728C0.498047 0.281456 0.582962 0.135543 0.720749 0.05738C0.858536 -0.0206688 1.02757 -0.0186089 1.16364 0.0629876L5.55817 2.69971C5.69035 2.77902 5.77149 2.92195 5.77149 3.07645V14.5608C5.77149 14.7192 5.68646 14.8651 5.54868 14.9432C5.41112 15.0212 5.24197 15.0191 5.1059 14.9377Z" fill="#FF9100"/>
<path d="M4.01294 8.37892C4.01294 8.62165 3.81622 8.81838 3.57349 8.81838C3.33087 8.81838 3.13403 8.62165 3.13403 8.37892C3.13403 8.13619 3.33087 7.93947 3.57349 7.93947C3.81622 7.93947 4.01294 8.13619 4.01294 8.37892Z" fill="#575F64"/>
<path d="M14.3672 5.81246L12.6093 4.4941C12.4687 4.40621 12.3017 4.3974 12.1523 4.47659C12.0116 4.55567 11.9237 4.70513 11.9237 4.86329V5.30274H7.96875C7.72259 5.30274 7.5293 5.49603 7.5293 5.7422V6.6211C7.5293 6.86715 7.72259 7.06056 7.96875 7.06056H11.9237V7.50001C11.9237 7.65817 12.0116 7.80763 12.1523 7.88671C12.2929 7.96579 12.4687 7.95697 12.6093 7.86908L14.3672 6.55072C14.4902 6.46295 14.5604 6.331 14.5604 6.18165C14.5604 6.03219 14.4902 5.90035 14.3672 5.81246Z" fill="#9CDD05"/>
<path d="M14.5604 6.18165C14.5604 6.33099 14.4902 6.46294 14.3672 6.55072L12.6093 7.86908C12.4687 7.95697 12.2929 7.96578 12.1523 7.88671C12.0116 7.80763 11.9237 7.65817 11.9237 7.50001V7.06056H7.96875C7.72259 7.06056 7.5293 6.86715 7.5293 6.6211V6.18165H14.5604Z" fill="#66BB00"/>
</g>
<defs>
<clipPath id="clip0">
<rect width="15" height="15" fill="white"/>
</clipPath>
</defs>
</svg>
