<svg width="22" height="22" viewBox="0 0 22 22" fill="none" xmlns="http://www.w3.org/2000/svg">
<circle cx="11" cy="11" r="11" fill="#C0BDBB"/>
<path d="M11.8844 11.0001L15.8168 7.06756C16.0611 6.82345 16.0611 6.42736 15.8168 6.18324C15.5724 5.93892 15.1768 5.93892 14.9325 6.18324L11.0001 10.1158L7.06752 6.18324C6.82321 5.93892 6.42755 5.93892 6.18324 6.18324C5.93892 6.42736 5.93892 6.82345 6.18324 7.06756L10.1158 11.0001L6.18324 14.9326C5.93892 15.1768 5.93892 15.5728 6.18324 15.817C6.30539 15.9389 6.46549 16 6.62538 16C6.78527 16 6.94536 15.9389 7.06752 15.8168L11.0001 11.8842L14.9325 15.8168C15.0546 15.9389 15.2147 16 15.3746 16C15.5345 16 15.6946 15.9389 15.8168 15.8168C16.0611 15.5726 16.0611 15.1766 15.8168 14.9324L11.8844 11.0001Z" fill="black"/>
</svg>
