<svg width="18" height="17" viewBox="0 0 18 17" fill="none" xmlns="http://www.w3.org/2000/svg">
<path d="M14.2258 10.3993C13.8573 10.0415 13.4128 9.8501 12.9417 9.8501C12.4744 9.8501 12.0261 10.0379 11.6424 10.3958L10.4419 11.512C10.3432 11.4624 10.2444 11.4163 10.1494 11.3703C10.0127 11.3065 9.88349 11.2462 9.77331 11.1825C8.6488 10.5163 7.62686 9.64812 6.64672 8.52484C6.17184 7.96496 5.85272 7.49368 5.62098 7.0153C5.9325 6.74954 6.22123 6.47315 6.50235 6.20739C6.60873 6.10817 6.7151 6.00541 6.82147 5.90619C7.61927 5.16205 7.61927 4.19822 6.82147 3.45409L5.78434 2.48671C5.66657 2.37686 5.545 2.26347 5.43103 2.15008C5.20309 1.93038 4.96375 1.7036 4.71681 1.49099C4.34831 1.15081 3.90762 0.970093 3.44414 0.970093C2.98066 0.970093 2.53237 1.15081 2.15247 1.49099C2.14867 1.49453 2.14867 1.49453 2.14487 1.49807L0.853204 2.7135C0.366929 3.16706 0.0896004 3.71985 0.028816 4.36122C-0.0623606 5.39592 0.264356 6.35976 0.515091 6.9905C1.13053 8.53901 2.0499 9.97413 3.42134 11.512C5.08532 13.3653 7.0874 14.8287 9.37442 15.8599C10.2482 16.2461 11.4145 16.7032 12.7176 16.7812C12.7973 16.7847 12.8809 16.7883 12.9569 16.7883C13.8345 16.7883 14.5715 16.4942 15.1489 15.9095C15.1527 15.9024 15.1603 15.8989 15.1641 15.8918C15.3617 15.6685 15.5896 15.4666 15.829 15.2504C15.9923 15.1051 16.1595 14.9527 16.3228 14.7933C16.6989 14.4283 16.8965 14.0031 16.8965 13.5672C16.8965 13.1278 16.6951 12.7062 16.3114 12.3518L14.2258 10.3993ZM15.5858 14.1307C15.582 14.1307 15.582 14.1342 15.5858 14.1307C15.4377 14.2795 15.2857 14.4141 15.1223 14.563C14.8754 14.7827 14.6247 15.013 14.3891 15.2717C14.0054 15.6544 13.5533 15.8351 12.9607 15.8351C12.9037 15.8351 12.8429 15.8351 12.7859 15.8315C11.6576 15.7642 10.6091 15.3532 9.8227 15.0024C7.67245 14.0314 5.78434 12.653 4.21534 10.9061C2.91987 9.44969 2.0537 8.10316 1.48004 6.65741C1.12673 5.77508 0.997567 5.08764 1.05455 4.43918C1.09254 4.02459 1.2635 3.68087 1.57882 3.38676L2.87429 2.17843C3.06044 2.01543 3.25799 1.92684 3.45174 1.92684C3.69108 1.92684 3.88483 2.06149 4.00639 2.17488C4.01019 2.17843 4.01399 2.18197 4.01779 2.18551C4.24953 2.38749 4.46988 2.59656 4.70162 2.8198C4.81939 2.93319 4.94095 3.04658 5.06252 3.16352L6.09966 4.1309C6.50235 4.50651 6.50235 4.85377 6.09966 5.22938C5.98949 5.33214 5.88311 5.4349 5.77294 5.53412C5.45382 5.83886 5.1499 6.12234 4.81939 6.39874C4.81179 6.40582 4.80419 6.40937 4.80039 6.41645C4.47367 6.72119 4.53446 7.01885 4.60284 7.22083C4.60664 7.23146 4.61044 7.24209 4.61424 7.25272C4.88397 7.8622 5.26387 8.43625 5.84132 9.12014L5.84512 9.12369C6.89365 10.3285 7.99917 11.2675 9.21866 11.9868C9.37442 12.079 9.53397 12.1534 9.68594 12.2242C9.8227 12.288 9.95187 12.3483 10.062 12.4121C10.0772 12.4191 10.0924 12.4298 10.1076 12.4369C10.2368 12.4971 10.3584 12.5254 10.4837 12.5254C10.799 12.5254 10.9966 12.3412 11.0612 12.2809L12.3604 11.0691C12.4896 10.9486 12.6948 10.8033 12.9341 10.8033C13.1696 10.8033 13.3634 10.9415 13.4812 11.062C13.485 11.0655 13.485 11.0655 13.4888 11.0691L15.582 13.0215C15.9733 13.383 15.9733 13.755 15.5858 14.1307Z" fill="#F4FBFF"/>
<path d="M9.7277 3.99292C10.723 4.14883 11.6272 4.58823 12.349 5.26149C13.0708 5.93476 13.5381 6.77811 13.7091 7.70651C13.7509 7.94038 13.9674 8.10338 14.2144 8.10338C14.2447 8.10338 14.2713 8.09984 14.3017 8.09629C14.5829 8.05377 14.769 7.80573 14.7234 7.54351C14.5183 6.42022 13.9484 5.39615 13.0784 4.58469C12.2085 3.77322 11.1105 3.2417 9.90625 3.05035C9.62513 3.00783 9.36299 3.18146 9.3136 3.44013C9.26422 3.69881 9.44657 3.9504 9.7277 3.99292Z" fill="#F4FBFF"/>
<path d="M17.9792 7.40612C17.6411 5.55641 16.7065 3.87325 15.2705 2.53381C13.8344 1.19437 12.0299 0.322665 10.0468 0.00729305C9.76949 -0.0387725 9.50736 0.138403 9.45797 0.397078C9.41238 0.659297 9.59854 0.903799 9.87966 0.949864C11.65 1.2298 13.2646 2.01291 14.5487 3.20707C15.8327 4.40478 16.6685 5.91076 16.9686 7.56204C17.0104 7.79591 17.227 7.95891 17.4739 7.95891C17.5043 7.95891 17.5309 7.95536 17.5613 7.95182C17.8386 7.91284 18.0286 7.6648 17.9792 7.40612Z" fill="#F4FBFF"/>
</svg>
