<svg width="63" height="63" viewBox="0 0 63 63" fill="none" xmlns="http://www.w3.org/2000/svg">
<path d="M55.6172 4.92188H52.6641V0H47.7422V4.92188H15.2578V0H10.3359V4.92188H7.38281C3.31169 4.92188 0 8.23357 0 12.3047V55.6172C0 59.6883 3.31169 63 7.38281 63H55.6172C59.6883 63 63 59.6883 63 55.6172V12.3047C63 8.23357 59.6883 4.92188 55.6172 4.92188ZM7.38281 9.84375H10.3359V14.7656H15.2578V9.84375H47.7422V14.7656H52.6641V9.84375H55.6172C56.9741 9.84375 58.0781 10.9478 58.0781 12.3047V18.2109H4.92188V12.3047C4.92188 10.9478 6.02593 9.84375 7.38281 9.84375ZM55.6172 58.0781H7.38281C6.02593 58.0781 4.92188 56.9741 4.92188 55.6172V23.1328H58.0781V55.6172C58.0781 56.9741 56.9741 58.0781 55.6172 58.0781ZM38.8828 52.9102H53.6484V38.1445H38.8828V52.9102ZM43.8047 43.0664H48.7266V47.9883H43.8047V43.0664Z" fill="#49494B"/>
<rect x="42" y="41.125" width="8.75" height="8.75" stroke="#FCCD63" stroke-width="7"/>
<rect x="43" y="42" width="7" height="7" fill="#F8F8F8"/>
</svg>
