<svg width="63" height="63" viewBox="0 0 63 63" fill="none" xmlns="http://www.w3.org/2000/svg">
<g clip-path="url(#clip0)">
<path d="M10.4678 55.9778C10.2391 55.7488 9.92164 55.6173 9.59802 55.6173C9.27441 55.6173 8.95695 55.7488 8.72808 55.9778C8.49921 56.2068 8.36755 56.5242 8.36755 56.8478C8.36755 57.1714 8.49909 57.4889 8.72808 57.7176C8.95695 57.9465 9.27441 58.0782 9.59802 58.0782C9.92164 58.0782 10.2391 57.9466 10.4678 57.7176C10.6967 57.4889 10.8285 57.1714 10.8285 56.8478C10.8285 56.5242 10.6968 56.2067 10.4678 55.9778Z" fill="#49494B"/>
<path d="M57.7735 22.51C57.5446 22.281 57.2284 22.1494 56.9035 22.1494C56.5799 22.1494 56.2625 22.281 56.0336 22.51C55.8048 22.7388 55.6731 23.0563 55.6731 23.3799C55.6731 23.7035 55.8047 24.021 56.0336 24.2497C56.2625 24.4786 56.5799 24.6104 56.9035 24.6104C57.2284 24.6104 57.5446 24.4787 57.7735 24.2497C58.0035 24.021 58.1351 23.7035 58.1351 23.3799C58.1351 23.0563 58.0035 22.7388 57.7735 22.51Z" fill="#49494B"/>
<path d="M62.6392 0.360404C62.4084 0.129691 62.0953 0 61.7689 0L31.5001 0.00159961C30.8206 0.00159961 30.2697 0.552603 30.2697 1.23207V4.75084L18.6062 7.87611C17.9498 8.05206 17.5602 8.72673 17.7362 9.38306L23.7811 31.9427L18.5517 37.1721C17.8862 36.2003 16.7687 35.5612 15.5046 35.5612H3.69247C1.65703 35.5612 0.00119019 37.2171 0.00119019 39.2524V59.3086C0.00119019 61.344 1.65703 63 3.69247 63H15.5047C17.2339 63 18.6886 61.8045 19.0872 60.197L20.5503 61.4729C21.6797 62.4577 23.1267 63.0001 24.6253 63.0001H61.7691C62.4486 63.0001 62.9996 62.4491 62.9996 61.7697V1.23047C62.9993 0.904148 62.8699 0.591117 62.6392 0.360404ZM16.7349 59.3087C16.7349 59.9871 16.183 60.5392 15.5045 60.5392H3.69235C3.01387 60.5392 2.46188 59.9872 2.46188 59.3087V39.2526C2.46188 38.5741 3.01387 38.0221 3.69235 38.0221H8.36801V52.1965C8.36801 52.876 8.91901 53.427 9.59848 53.427C10.2779 53.427 10.8289 52.876 10.8289 52.1965V38.0221H15.5046C16.1831 38.0221 16.7351 38.5741 16.7351 39.2526V59.3087H16.7349ZM20.4316 9.93468L30.2697 7.29853V11.858L29.4451 12.079C29.1297 12.1636 28.8611 12.3697 28.6979 12.6523C28.5348 12.9349 28.4905 13.2707 28.575 13.586C29.0479 15.3506 27.9969 17.1708 26.2323 17.6437C25.9167 17.7283 25.6476 17.9348 25.4846 18.2181C25.3215 18.5012 25.2776 18.8376 25.3629 19.1531L30.1591 36.9134H27.6896L26.4169 31.9345C26.3764 31.776 26.3055 31.6299 26.2107 31.503L20.4316 9.93468ZM30.2697 17.5008V27.8837L28.0255 19.5737C28.963 19.0896 29.7302 18.3654 30.2697 17.5008ZM47.9471 60.5391H24.6251C23.7213 60.5391 22.8485 60.212 22.1673 59.6181L19.1959 57.0266V40.0083L24.5679 34.6363L25.5422 38.4483C25.6814 38.9931 26.172 39.374 26.7342 39.374L50.9257 39.3755C51.8757 39.3755 52.6484 40.1482 52.6484 41.0981C52.6484 42.0481 51.8757 42.8208 50.9257 42.8208H38.53C37.8505 42.8208 37.2995 43.3718 37.2995 44.0513C37.2995 44.7307 37.8505 45.2817 38.53 45.2817H54.7771C55.727 45.2817 56.4998 46.0545 56.4998 47.0044C56.4998 47.9543 55.727 48.7271 54.7771 48.7271H38.53C37.8505 48.7271 37.2995 49.2781 37.2995 49.9575C37.2995 50.637 37.8505 51.188 38.53 51.188H52.1443C53.0942 51.188 53.8669 51.9607 53.8669 52.9106C53.8669 53.8606 53.0942 54.6333 52.1443 54.6333H38.53C37.8505 54.6333 37.2995 55.1843 37.2995 55.8638C37.2995 56.5432 37.8505 57.0942 38.53 57.0942H47.9471C48.8971 57.0942 49.6698 57.867 49.6698 58.8169C49.6697 59.7663 48.8969 60.5391 47.9471 60.5391ZM60.5387 60.5391H60.5385H51.758C51.9966 60.0133 52.1306 59.4304 52.1306 58.8164C52.1306 58.2024 51.9966 57.6195 51.758 57.0938H52.1443C54.451 57.0938 56.3277 55.217 56.3277 52.9103C56.3277 52.2375 56.1672 51.6017 55.8837 51.0379C57.6551 50.5513 58.9605 48.9277 58.9605 47.0042C58.9605 46.071 58.6531 45.2083 58.1347 44.5118V28.9169C58.1347 28.2374 57.5837 27.6864 56.9042 27.6864C56.2248 27.6864 55.6738 28.2374 55.6738 28.9169V42.9186C55.3846 42.8553 55.0847 42.8208 54.7769 42.8208H54.7365C54.9751 42.295 55.1091 41.7122 55.1091 41.0981C55.1091 38.7913 53.2324 36.9147 50.9256 36.9147H48.9476C51.0479 36.014 52.523 33.9264 52.523 31.5C52.523 28.2529 49.8814 25.6112 46.6344 25.6112C43.3874 25.6112 40.7457 28.2529 40.7457 31.5C40.7457 33.9264 42.2209 36.014 44.3211 36.9147H37.595V13.5183C39.7931 13.0393 41.5275 11.3049 42.0064 9.1067H51.2622C51.741 11.3049 53.4755 13.0393 55.6736 13.5183V17.3438C55.6736 18.0233 56.2246 18.5743 56.9041 18.5743C57.5836 18.5743 58.1346 18.0233 58.1346 17.3438V12.4197C58.1346 11.7403 57.5836 11.1893 56.9041 11.1893C55.0772 11.1893 53.5912 9.70298 53.5912 7.87623C53.5912 7.19677 53.0402 6.64576 52.3607 6.64576H40.908C40.2285 6.64576 39.6775 7.19677 39.6775 7.87623C39.6775 9.70311 38.1914 11.1893 36.3646 11.1893C35.6852 11.1893 35.1342 11.7403 35.1342 12.4197V36.9146H32.7308V2.46229L60.5387 2.46094V60.5391ZM46.6346 34.9278C44.7445 34.9278 43.2069 33.3901 43.2069 31.5001C43.2069 29.6101 44.7446 28.0723 46.6346 28.0723C48.5246 28.0723 50.0623 29.61 50.0623 31.5C50.0623 33.39 48.5247 34.9278 46.6346 34.9278Z" fill="#49494B"/>
<circle cx="46.5" cy="31.5" r="6.5" fill="#FCCD63"/>
<line x1="42" y1="37.5" x2="51" y2="37.5" stroke="#49494B"/>
</g>
<defs>
<clipPath id="clip0">
<rect width="63" height="63" fill="white"/>
</clipPath>
</defs>
</svg>
