<svg xmlns="http://www.w3.org/2000/svg" width="68.687" height="76.725" viewBox="0 0 68.687 76.725">
  <g id="Сгруппировать_774" data-name="Сгруппировать 774" transform="translate(-616.5 -2218.647)">
    <path id="Контур_1301" data-name="Контур 1301" d="M0,22.691V71.5L43.356,49.949V0Z" transform="translate(616.5 2218.647)" fill="#ff6b16"/>
    <g id="help" transform="translate(622.814 2233)">
      <g id="Сгруппировать_659" data-name="Сгруппировать 659" transform="translate(16.875 43.061)">
        <g id="Сгруппировать_658" data-name="Сгруппировать 658">
          <path id="Контур_1188" data-name="Контур 1188" d="M140.634,353.872l-.036-.036a1.218,1.218,0,0,0-1.719,1.727l.04.04a1.218,1.218,0,1,0,1.715-1.731Z" transform="translate(-138.521 -353.481)" fill="#173c8f"/>
        </g>
      </g>
      <g id="Сгруппировать_661" data-name="Сгруппировать 661" transform="translate(11.453 11.46)">
        <g id="Сгруппировать_660" data-name="Сгруппировать 660">
          <path id="Контур_1189" data-name="Контур 1189" d="M127.7,99.847a19.738,19.738,0,0,0-31.067,23.8,1.218,1.218,0,0,0,2.111-1.216,17.3,17.3,0,1,1,6.289,6.326,1.218,1.218,0,1,0-1.228,2.1A19.738,19.738,0,0,0,127.7,99.847Z" transform="translate(-94.016 -94.076)" fill="#173c8f"/>
        </g>
      </g>
      <g id="Сгруппировать_663" data-name="Сгруппировать 663" transform="translate(0)">
        <g id="Сгруппировать_662" data-name="Сгруппировать 662">
          <path id="Контур_1190" data-name="Контур 1190" d="M62.368,25.834a1.218,1.218,0,0,0-1.028-1.2l-4.5-.713-2.386-5.753,2.673-3.686a1.218,1.218,0,0,0-.125-1.577l-7.555-7.55a1.218,1.218,0,0,0-1.577-.124L44.192,7.9,38.434,5.521l-.716-4.494A1.218,1.218,0,0,0,36.516,0h0L25.834,0a1.218,1.218,0,0,0-1.2,1.028l-.712,4.5L18.165,7.914,14.48,5.241a1.218,1.218,0,0,0-1.577.125l-7.55,7.555A1.218,1.218,0,0,0,5.229,14.5L7.9,18.181,5.521,23.938l-4.494.716A1.218,1.218,0,0,0,0,25.857L0,36.539a1.218,1.218,0,0,0,1.028,1.2l4.5.713,2.386,5.753L5.241,47.893a1.218,1.218,0,0,0,.125,1.577l7.555,7.55a1.218,1.218,0,0,0,1.577.124l3.682-2.675,5.757,2.382.716,4.494a1.218,1.218,0,0,0,1.2,1.027h0l10.681,0a1.218,1.218,0,0,0,1.2-1.028l.713-4.5,5.753-2.386,3.686,2.673a1.218,1.218,0,0,0,1.577-.125l7.55-7.555a1.218,1.218,0,0,0,.124-1.577l-2.675-3.682,2.382-5.757,4.494-.716a1.218,1.218,0,0,0,1.027-1.2Zm-6.573,10.3a1.218,1.218,0,0,0-.934.737l-2.9,7.017a1.218,1.218,0,0,0,.14,1.182l2.464,3.392-6.08,6.084-3.4-2.463a1.219,1.219,0,0,0-1.182-.139l-7.013,2.908a1.218,1.218,0,0,0-.737.935L35.5,59.932l-8.6,0-.659-4.141a1.218,1.218,0,0,0-.737-.934l-7.017-2.9a1.218,1.218,0,0,0-1.182.14l-3.392,2.464-6.084-6.08,2.463-3.4a1.218,1.218,0,0,0,.139-1.182L7.518,36.891a1.218,1.218,0,0,0-.935-.737L2.441,35.5l0-8.6,4.141-.659a1.218,1.218,0,0,0,.934-.737l2.9-7.017a1.218,1.218,0,0,0-.14-1.182L7.811,13.908l6.08-6.084,3.4,2.463a1.218,1.218,0,0,0,1.182.139l7.013-2.908a1.218,1.218,0,0,0,.737-.935l.656-4.143,8.6,0,.659,4.141a1.218,1.218,0,0,0,.737.934l7.017,2.9a1.219,1.219,0,0,0,1.182-.14l3.392-2.464,6.084,6.08-2.463,3.4a1.218,1.218,0,0,0-.139,1.182l2.908,7.013a1.218,1.218,0,0,0,.935.737l4.143.656,0,8.6Z" transform="translate(0)" fill="#173c8f"/>
        </g>
      </g>
      <g id="Сгруппировать_665" data-name="Сгруппировать 665" transform="translate(17.867 17.865)">
        <g id="Сгруппировать_664" data-name="Сгруппировать 664">
          <path id="Контур_1191" data-name="Контур 1191" d="M171.086,161.485a6.747,6.747,0,0,0-5.592-1.671l-5.35-5.35a6.779,6.779,0,0,0-9.221-7.331,1.218,1.218,0,0,0-.409,1.992l1.766,1.766a.959.959,0,0,1-1.356,1.356l-1.773-1.773a1.218,1.218,0,0,0-1.991.4,6.773,6.773,0,0,0,7.327,9.24l5.345,5.345a6.777,6.777,0,0,0,9.24,7.329,1.218,1.218,0,0,0,.405-1.991l-1.758-1.758a.959.959,0,0,1,1.356-1.356l1.755,1.755a1.218,1.218,0,0,0,1.992-.408A6.815,6.815,0,0,0,171.086,161.485Zm-.287,4.48a3.4,3.4,0,1,0-4.8,4.8l.059.06a4.345,4.345,0,0,1-3.72-5.444,1.218,1.218,0,0,0-.316-1.176l-6.275-6.275a1.218,1.218,0,0,0-1.174-.316,4.329,4.329,0,0,1-5.441-3.715l.07.07a3.4,3.4,0,0,0,4.8-4.8l-.058-.058a4.344,4.344,0,0,1,3.7,5.436,1.218,1.218,0,0,0,.316,1.175L164.236,162a1.218,1.218,0,0,0,1.173.316,4.328,4.328,0,0,1,5.433,3.69Z" transform="translate(-146.67 -146.646)" fill="#173c8f"/>
        </g>
      </g>
      <g id="Сгруппировать_667" data-name="Сгруппировать 667" transform="translate(32.813 17.377)">
        <g id="Сгруппировать_666" data-name="Сгруппировать 666">
          <path id="Контур_1192" data-name="Контур 1192" d="M278.856,147.753a14.159,14.159,0,0,0-8.015-5.08,1.218,1.218,0,1,0-.535,2.377,11.716,11.716,0,0,1,6.631,4.2,1.218,1.218,0,1,0,1.918-1.5Z" transform="translate(-269.356 -142.643)" fill="#173c8f"/>
        </g>
      </g>
      <g id="Сгруппировать_669" data-name="Сгруппировать 669" transform="translate(42.245 25.981)">
        <g id="Сгруппировать_668" data-name="Сгруппировать 668">
          <path id="Контур_1193" data-name="Контур 1193" d="M349.179,214.167l-.018-.055a1.218,1.218,0,0,0-2.319.749l.016.048a1.218,1.218,0,1,0,2.321-.741Z" transform="translate(-346.783 -213.268)" fill="#173c8f"/>
        </g>
      </g>
    </g>
  </g>
</svg>
