<svg xmlns="http://www.w3.org/2000/svg" width="80.949" height="78.351" viewBox="0 0 80.949 78.351">
  <g id="Сгруппировать_776" data-name="Сгруппировать 776" transform="translate(-412.5 -2559.647)">
    <path id="Контур_1303" data-name="Контур 1303" d="M0,22.691V71.5L43.356,49.949V0Z" transform="translate(412.5 2559.647)" fill="#ff6b16"/>
    <g id="data" transform="translate(424.551 2572)">
      <g id="Сгруппировать_671" data-name="Сгруппировать 671" transform="translate(4)">
        <g id="Сгруппировать_670" data-name="Сгруппировать 670" transform="translate(0)">
          <path id="Контур_1201" data-name="Контур 1201" d="M53.5,0H9.5A5.506,5.506,0,0,0,4,5.5V40.7a5.5,5.5,0,0,0,4.126,5.326l.55-2.13A3.3,3.3,0,0,1,6.2,40.7V5.5A3.3,3.3,0,0,1,9.5,2.2h44a3.3,3.3,0,0,1,3.3,3.3V6.6H59V5.5A5.506,5.506,0,0,0,53.5,0Z" transform="translate(-4)" fill="#173c8f"/>
        </g>
      </g>
      <g id="Сгруппировать_673" data-name="Сгруппировать 673" transform="translate(7.986 4.535)">
        <g id="Сгруппировать_672" data-name="Сгруппировать 672" transform="translate(0 0)">
          <rect id="Прямоугольник_551" data-name="Прямоугольник 551" width="2" height="2" transform="translate(0.463 0.465)" fill="#173c8f"/>
        </g>
      </g>
      <g id="Сгруппировать_675" data-name="Сгруппировать 675" transform="translate(12.539 4.535)">
        <g id="Сгруппировать_674" data-name="Сгруппировать 674" transform="translate(0 0)">
          <rect id="Прямоугольник_552" data-name="Прямоугольник 552" width="2" height="2" transform="translate(-0.089 0.465)" fill="#173c8f"/>
        </g>
      </g>
      <g id="Сгруппировать_677" data-name="Сгруппировать 677" transform="translate(17.095 4.535)">
        <g id="Сгруппировать_676" data-name="Сгруппировать 676" transform="translate(0 0)">
          <rect id="Прямоугольник_553" data-name="Прямоугольник 553" width="2" height="2" transform="translate(0.356 0.465)" fill="#173c8f"/>
        </g>
      </g>
      <g id="Сгруппировать_679" data-name="Сгруппировать 679" transform="translate(15 17.6)">
        <g id="Сгруппировать_678" data-name="Сгруппировать 678">
          <path id="Контур_1202" data-name="Контур 1202" d="M137.576,171.221l-10.433-10.433a15.212,15.212,0,0,0,1.307-3.089H130.2v-2.2h-1.276a14.821,14.821,0,0,0-.924-7.882V136.8h-2.2v7a15.482,15.482,0,0,0-2.2-2.284V132.4h-2.2v7.583a15.3,15.3,0,0,0-2.2-1.05V128H117v10.265a15.232,15.232,0,0,0-2.2-.309V130.2h-2.2v7.756a15.232,15.232,0,0,0-2.2.309V134.6h-2.2v4.333a15.307,15.307,0,0,0-2.2,1.05V133.5h-2.2v8.021a15.481,15.481,0,0,0-2.2,2.284v-8.1H99.4v11.917a14.821,14.821,0,0,0-.924,7.882H84v2.2H98.949a15.368,15.368,0,0,0,23.588,8.193l10.185,10.185a1.1,1.1,0,0,0,1.555,0l3.3-3.3A1.1,1.1,0,0,0,137.576,171.221ZM113.7,166.5a13.2,13.2,0,1,1,13.2-13.2A13.214,13.214,0,0,1,113.7,166.5Zm19.8,7.244-9.253-9.253a15.583,15.583,0,0,0,1.655-1.834L135.243,172Z" transform="translate(-84 -128)" fill="#173c8f"/>
        </g>
      </g>
      <g id="Сгруппировать_681" data-name="Сгруппировать 681" transform="translate(33.699 31.899)">
        <g id="Сгруппировать_680" data-name="Сгруппировать 680">
          <path id="Контур_1203" data-name="Контур 1203" d="M231,232a11,11,0,1,0,11,11A11,11,0,0,0,231,232Zm0,19.8a8.8,8.8,0,0,1-7.61-4.4h15.219A8.8,8.8,0,0,1,231,251.8Zm-8.51-6.6a8.719,8.719,0,0,1,3.011-9.058V243h2.2v-8.152a8.761,8.761,0,0,1,2.2-.572V243h2.2v-8.724a8.76,8.76,0,0,1,2.2.572V243h2.2v-6.858a8.719,8.719,0,0,1,3.011,9.058Z" transform="translate(-220 -232)" fill="#173c8f"/>
        </g>
      </g>
      <g id="Сгруппировать_683" data-name="Сгруппировать 683" transform="translate(10.6 8.8)">
        <g id="Сгруппировать_682" data-name="Сгруппировать 682">
          <path id="Контур_1204" data-name="Контур 1204" d="M101.5,64h-44A5.506,5.506,0,0,0,52,69.5v35.2a5.506,5.506,0,0,0,5.5,5.5H71.8V108H57.5a3.3,3.3,0,0,1-3.3-3.3V69.5a3.3,3.3,0,0,1,3.3-3.3h44a3.3,3.3,0,0,1,3.3,3.3v35.2a3.3,3.3,0,0,1-.825,2.182l1.65,1.455A5.493,5.493,0,0,0,107,104.7V69.5A5.506,5.506,0,0,0,101.5,64Z" transform="translate(-52 -64)" fill="#173c8f"/>
        </g>
      </g>
      <g id="Сгруппировать_685" data-name="Сгруппировать 685" transform="translate(14.817 13.644)">
        <g id="Сгруппировать_684" data-name="Сгруппировать 684" transform="translate(0 0)">
          <rect id="Прямоугольник_554" data-name="Прямоугольник 554" width="3" height="2" transform="translate(-0.367 0.356)" fill="#173c8f"/>
        </g>
      </g>
      <g id="Сгруппировать_687" data-name="Сгруппировать 687" transform="translate(19.37 13.644)">
        <g id="Сгруппировать_686" data-name="Сгруппировать 686" transform="translate(0 0)">
          <rect id="Прямоугольник_555" data-name="Прямоугольник 555" width="2" height="2" transform="translate(0.08 0.356)" fill="#173c8f"/>
        </g>
      </g>
      <g id="Сгруппировать_689" data-name="Сгруппировать 689" transform="translate(23.926 13.644)">
        <g id="Сгруппировать_688" data-name="Сгруппировать 688" transform="translate(0 0)">
          <rect id="Прямоугольник_556" data-name="Прямоугольник 556" width="3" height="2" transform="translate(-0.476 0.356)" fill="#173c8f"/>
        </g>
      </g>
      <g id="Сгруппировать_691" data-name="Сгруппировать 691" transform="translate(17.095 36.416)">
        <g id="Сгруппировать_690" data-name="Сгруппировать 690" transform="translate(0 0)">
          <rect id="Прямоугольник_557" data-name="Прямоугольник 557" width="2" height="7" transform="translate(0.356 -0.416)" fill="#173c8f"/>
        </g>
      </g>
      <g id="Сгруппировать_693" data-name="Сгруппировать 693" transform="translate(21.648 29.584)">
        <g id="Сгруппировать_692" data-name="Сгруппировать 692" transform="translate(0 0)">
          <rect id="Прямоугольник_558" data-name="Прямоугольник 558" width="2" height="13" transform="translate(-0.199 0.416)" fill="#173c8f"/>
        </g>
      </g>
      <g id="Сгруппировать_695" data-name="Сгруппировать 695" transform="translate(26.204 33)">
        <g id="Сгруппировать_694" data-name="Сгруппировать 694" transform="translate(0 0)">
          <rect id="Прямоугольник_559" data-name="Прямоугольник 559" width="2" height="10" transform="translate(0.247 0)" fill="#173c8f"/>
        </g>
      </g>
    </g>
  </g>
</svg>
