<svg xmlns="http://www.w3.org/2000/svg" width="76.5" height="76.353" viewBox="0 0 76.5 76.353">
  <g id="Сгруппировать_775" data-name="Сгруппировать 775" transform="translate(-1031.5 -2218.647)">
    <path id="Контур_1302" data-name="Контур 1302" d="M0,22.691V71.5L43.356,49.949V0Z" transform="translate(1031.5 2218.647)" fill="#ff6b16"/>
    <path id="Контур_1199" data-name="Контур 1199" d="M60.516,118.9H58.355V88.646H51.871V109a16.3,16.3,0,0,0-2.161-1.954v-13H43.226V104.1a16.257,16.257,0,0,0-2.161-.272V99.452H34.581v5.268a16.127,16.127,0,0,0-3.087,1.482,14.944,14.944,0,0,0-.747-1.757l1.709-2.393-5.878-5.88-2.394,1.71a15.049,15.049,0,0,0-2.252-.929l-.483-2.9H13.133l-.483,2.9a15.049,15.049,0,0,0-2.252.929L8,96.172l-5.878,5.88,1.709,2.393A14.853,14.853,0,0,0,2.9,106.7l-2.9.485V115.5l2.9.484a14.961,14.961,0,0,0,.93,2.252l-1.709,2.392L8,126.505,10.4,124.8a15.049,15.049,0,0,0,2.252.929l.483,2.9h8.316l.483-2.9a15.049,15.049,0,0,0,2.252-.929l.432.309a16.192,16.192,0,0,0,31.524-4.04H67V80H60.516Zm-6.484-28.1h2.161v28.1h-.055a16.084,16.084,0,0,0-2.106-6.971Zm-8.645,5.4h2.161v9.449a16.076,16.076,0,0,0-2.161-.938Zm-8.645,5.4H38.9v2.216a16.171,16.171,0,0,0-2.161.273ZM23.726,122.587a12.859,12.859,0,0,1-3.032,1.252l-.669.182-.408,2.448H14.964l-.408-2.448-.669-.182a12.877,12.877,0,0,1-3.032-1.252l-.6-.345-2.015,1.441-3.29-3.289,1.441-2.017-.345-.6a12.84,12.84,0,0,1-1.252-3.031l-.18-.669-2.448-.407v-4.653l2.448-.407.182-.669a12.874,12.874,0,0,1,1.252-3.031l.345-.6-1.441-2.017L8.238,99l2.015,1.441.6-.345a12.858,12.858,0,0,1,3.032-1.252l.669-.182.408-2.448h4.652l.408,2.448.669.182a12.877,12.877,0,0,1,3.032,1.252l.6.345L26.344,99l3.29,3.289L28.194,104.3l.345.6a12.855,12.855,0,0,1,1.108,2.606,16.4,16.4,0,0,0-1.758,1.72,10.848,10.848,0,1,0-4.113,10.725c0,.009,0,.02,0,.029a16.175,16.175,0,0,0,.206,2.456Zm2.183-10.611a16.126,16.126,0,0,0-1.776,4.632,8.634,8.634,0,1,1,1.8-5.268c0,.215-.012.426-.027.636Zm14.075,22.057a14.048,14.048,0,1,1,14.048-14.048A14.065,14.065,0,0,1,39.984,134.033ZM62.677,82.162h2.161V118.9H62.677Zm0,0" transform="translate(1041 2158.806)" fill="#173c8f"/>
  </g>
</svg>
