<svg xmlns="http://www.w3.org/2000/svg" width="70.5" height="71.503" viewBox="0 0 70.5 71.503">
  <g id="Сгруппировать_777" data-name="Сгруппировать 777" transform="translate(-837.5 -2559.647)">
    <path id="Контур_1304" data-name="Контур 1304" d="M0,22.691V71.5L43.356,49.949V0Z" transform="translate(837.5 2559.647)" fill="#ff6b16"/>
    <path id="team" d="M64,26.839H61.68l-3.457,1.819a5.132,5.132,0,0,0-1.23-.506l-4.349-1.088v-.494a7.249,7.249,0,0,0,3.1-5.924v-1.8a7.416,7.416,0,0,0-7-7.483c-.2-.005-.389,0-.583.012l1.128-2.64L43.816,3.265l-3.222,2.1a17.461,17.461,0,0,0-3.864-1.6L35.934,0H28.067l-.8,3.761a17.44,17.44,0,0,0-3.864,1.6l-3.222-2.1L14.723,8.728l1.108,2.642c-.042,0-.083-.01-.125-.011a7.229,7.229,0,0,0-7.449,7.222v2.065a7.246,7.246,0,0,0,3.1,5.923v.5l-2.837.709-5.142-3H0v21.39l10.155,3.385h1.978l.247-.865,3.113,1.868a3.214,3.214,0,0,0,3.1,3.114,3.214,3.214,0,0,0,3.1,3.1,3.214,3.214,0,0,0,3.1,3.1,3.21,3.21,0,0,0,5.02,2.549l.914.807A3.143,3.143,0,0,0,32.8,64h.191a3.143,3.143,0,0,0,3.137-3.1,3.14,3.14,0,0,0,3.1-3.1,3.14,3.14,0,0,0,3.1-3.1,3.174,3.174,0,0,0,3.1-3.167,3.022,3.022,0,0,0-.016-.309l18.6-9.3Zm-10.323-8v1.8a5.181,5.181,0,0,1-2.584,4.467l-.516.3,0,3.267,5.157,1.288L44.387,35.94V33.159a5.136,5.136,0,0,0-1.478-3.6l3.543-.885V25.408l-.515-.3a5.176,5.176,0,0,1-2.582-4.465V18.581a5.161,5.161,0,0,1,5.321-5.158,5.337,5.337,0,0,1,5,5.418ZM33.556,35.128l-4.673-1.493a12.748,12.748,0,0,0-6.614-.3l-.592.131v-.305a3.1,3.1,0,0,1,2.345-3.005l5.913-1.477V25.408l-.515-.3a5.176,5.176,0,0,1-2.582-4.465V18.581a5.161,5.161,0,0,1,5.321-5.158,5.337,5.337,0,0,1,5,5.418v1.8a5.181,5.181,0,0,1-2.584,4.467l-.516.3,0,3.267,5.912,1.477a3.1,3.1,0,0,1,2.345,3.005v3.868l-.255.134h-.633l-6.346-1.814a6.507,6.507,0,0,0-1.532-.219ZM21.909,15.449a11.347,11.347,0,0,1,20.14-.083,7.179,7.179,0,0,0-.759,3.214v2.065a7.246,7.246,0,0,0,3.1,5.923v.5L40.258,28.1l-4.13-1.034v-.494a7.249,7.249,0,0,0,3.1-5.924v-1.8a7.416,7.416,0,0,0-7-7.483,7.227,7.227,0,0,0-7.448,7.223v2.065a7.246,7.246,0,0,0,3.1,5.923v.5L23.742,28.1l-4.13-1.034v-.494a7.249,7.249,0,0,0,3.1-5.924v-1.8a7.608,7.608,0,0,0-.8-3.391ZM17.161,9.207l3.3-3.3,2.9,1.889.555-.341A15.4,15.4,0,0,1,28.387,5.6l.635-.152.718-3.387h4.52l.716,3.386.635.152a15.419,15.419,0,0,1,4.47,1.854l.555.341,2.9-1.889L46.833,9.2l-1.171,2.741a7.215,7.215,0,0,0-2.179,1.449c-.042.041-.079.086-.12.128a13.406,13.406,0,0,0-22.767.062,7.281,7.281,0,0,0-2.277-1.614Zm-3.742,19.47V25.408l-.515-.3a5.176,5.176,0,0,1-2.582-4.465V18.581a5.161,5.161,0,0,1,5.321-5.158,5.337,5.337,0,0,1,5,5.418v1.8a5.181,5.181,0,0,1-2.584,4.467l-.516.3,0,3.267,3.542.885a5.136,5.136,0,0,0-1.478,3.6v.765l-3.22.716.084-.292.039-1.908-5.444-3.176ZM2.064,26.839h.753l7.424,4.33L6.495,46.152l-4.43-1.477ZM10.49,47.484l-2.032-.677L12.1,32.252l2.354,1.373v.295L10.576,47.484Zm7.058,2.972a1.165,1.165,0,0,1,.339-.819L19.7,47.823a1.158,1.158,0,0,1,1.637,1.637l-1.815,1.815a1.158,1.158,0,0,1-1.976-.819Zm3.1,3.1a1.165,1.165,0,0,1,.339-.819L22.8,50.919a1.158,1.158,0,0,1,1.637,1.637l-1.815,1.815a1.158,1.158,0,0,1-1.976-.819Zm3.1,3.1a1.165,1.165,0,0,1,.339-.819l1.815-1.815a1.158,1.158,0,0,1,1.637,1.637l-1.815,1.815a1.158,1.158,0,0,1-1.976-.819ZM28,60.9a1.158,1.158,0,0,1-.819-1.976l1.815-1.815a1.158,1.158,0,0,1,1.637,1.637l-1.815,1.815A1.165,1.165,0,0,1,28,60.9Zm4.992,1.032H32.8a1.07,1.07,0,0,1-.711-.27l-.772-.681.775-.775a3.209,3.209,0,0,0,.65-.959l.939.781a1.077,1.077,0,0,1-.69,1.9Zm9.257-9.29h-.178a1.107,1.107,0,0,1-.71-.258l-5.6-4.665-1.323,1.587,5.436,4.529a1.077,1.077,0,0,1-.691,1.9h-.225a1.077,1.077,0,0,1-.689-.25L32.661,50.82l-1.323,1.587,5.436,4.53a1.076,1.076,0,0,1-.69,1.9A1.7,1.7,0,0,1,35,58.446l-2.3-1.92a3.211,3.211,0,0,0-2.772-1.8,3.214,3.214,0,0,0-3.1-3.1,3.214,3.214,0,0,0-3.1-3.1,3.214,3.214,0,0,0-5.487-2.165l-1.815,1.815a3.181,3.181,0,0,0-.289.353l-3.171-1.9,2.78-9.729,6.969-1.549a10.634,10.634,0,0,1,5.538.251l1.521.486-5.155,2.578a3.441,3.441,0,0,0-1.91,3.093v.2a3.457,3.457,0,0,0,5.237,2.965l3.844-2.3a2.131,2.131,0,0,1,2.475.238l8.722,7.849a1.111,1.111,0,0,1-.742,1.936ZM61.935,40.652l-17.391,8.7c-.056-.06-.115-.117-.177-.172l-8.72-7.849a4.154,4.154,0,0,0-4.92-.476l-3.845,2.306a1.392,1.392,0,0,1-2.108-1.2v-.2a1.385,1.385,0,0,1,.77-1.246L31.3,37.632a4.487,4.487,0,0,1,3.217-.3l6.487,1.853,1.571.039L61.935,29.037Zm0,0" transform="translate(844 2566)" fill="#173c8f"/>
  </g>
</svg>
