<svg width="17" height="18" viewBox="0 0 17 18" fill="none" xmlns="http://www.w3.org/2000/svg">
<g clip-path="url(#clip0)">
<path fill-rule="evenodd" clip-rule="evenodd" d="M14.0795 3.47197C14.0793 3.46834 14.0792 3.46471 14.0789 3.46108C14.0779 3.44668 14.0765 3.43254 14.0736 3.41853C14.0736 3.41853 14.0736 3.41853 14.0736 3.4184C14.0708 3.4044 14.0667 3.39052 14.0622 3.37703C14.061 3.37366 14.0599 3.37029 14.0586 3.36691C14.0538 3.35407 14.0483 3.34149 14.0421 3.3293C14.0417 3.32865 14.0415 3.328 14.0411 3.32736C14.0343 3.31465 14.0265 3.30258 14.0181 3.29078C14.016 3.2878 14.0138 3.28494 14.0116 3.28196C14.0027 3.27029 13.9933 3.259 13.9828 3.2485L10.9782 0.243881C10.9677 0.233375 10.9564 0.224037 10.9448 0.215088C10.9418 0.212883 10.9388 0.210548 10.9358 0.208473C10.924 0.200043 10.9121 0.192261 10.8995 0.185646C10.8986 0.185127 10.8977 0.184868 10.8969 0.184349C10.885 0.178123 10.8725 0.172806 10.8599 0.168007C10.8564 0.16671 10.8531 0.165543 10.8494 0.164375C10.8359 0.159836 10.8223 0.155815 10.8082 0.152962C10.8081 0.152962 10.8079 0.152962 10.8079 0.152962C10.794 0.150238 10.7799 0.148682 10.7656 0.147644C10.762 0.147514 10.7584 0.147255 10.7547 0.147125C10.751 0.146996 10.7472 0.146606 10.7435 0.146606H3.22076C3.03737 0.146606 2.88873 0.295242 2.88873 0.478637V14.6903C2.88873 14.8737 3.03737 15.0224 3.22076 15.0224H8.21964V16.8145C8.21964 16.9353 8.28527 17.0466 8.39097 17.1051C8.49681 17.1636 8.62586 17.1601 8.72819 17.0959L9.99276 16.3025L11.2573 17.0959C11.3112 17.1296 11.3725 17.1466 11.4339 17.1466C11.4891 17.1466 11.5445 17.1328 11.5945 17.1052C11.7003 17.0467 11.7659 16.9354 11.7659 16.8145V15.0224H13.7479C13.9313 15.0224 14.08 14.8737 14.08 14.6903V3.48325C14.08 3.47949 14.0796 3.47573 14.0795 3.47197ZM11.0755 1.28031L12.9464 3.15122H11.0755V1.28031ZM8.05583 10.4021C8.03248 10.3386 7.99448 10.235 7.99357 10.1926C8.01951 10.1604 8.10952 10.1035 8.16465 10.0687C8.28293 9.99404 8.41704 9.90921 8.51432 9.77666C8.6125 9.64268 8.65245 9.48795 8.68772 9.35151C8.70316 9.29184 8.72806 9.19548 8.74933 9.15903C8.761 9.15657 8.78552 9.15307 8.83156 9.15307C8.86853 9.15307 8.9099 9.15514 8.95374 9.15735C9.00406 9.15981 9.05594 9.1624 9.11016 9.1624C9.22974 9.1624 9.32624 9.14892 9.41378 9.11973C9.5667 9.06889 9.689 8.97045 9.79691 8.88355C9.85658 8.83556 9.95644 8.75515 9.9912 8.75022C10.0292 8.75515 10.1289 8.83556 10.1886 8.88355C10.2965 8.97045 10.419 9.06889 10.5719 9.11973C10.6594 9.14892 10.7558 9.1624 10.8755 9.1624C10.9296 9.1624 10.9816 9.15981 11.0318 9.15735C11.0756 9.15514 11.117 9.15307 11.1541 9.15307C11.2001 9.15307 11.2245 9.15644 11.2363 9.15903C11.2576 9.19548 11.2825 9.29184 11.2978 9.35151C11.3331 9.48795 11.3732 9.64268 11.4713 9.77666C11.5685 9.90921 11.7026 9.99391 11.821 10.0687C11.876 10.1036 11.966 10.1604 11.9919 10.1926C11.991 10.235 11.953 10.3386 11.9298 10.4021C11.8804 10.5366 11.8245 10.6891 11.8245 10.8581C11.8245 11.0271 11.8804 11.1796 11.9297 11.3142C11.953 11.3777 11.991 11.4813 11.9919 11.5237C11.966 11.5559 11.876 11.6127 11.821 11.6476C11.7026 11.7223 11.5685 11.8071 11.4713 11.9397C11.3732 12.0736 11.3331 12.2284 11.2978 12.3648C11.2825 12.4243 11.2575 12.5208 11.2363 12.5573C11.2245 12.5598 11.2001 12.5633 11.1541 12.5633C11.117 12.5633 11.0756 12.5612 11.0318 12.559C10.9816 12.5565 10.9296 12.5539 10.8755 12.5539C10.7558 12.5539 10.6594 12.5674 10.5719 12.5966C10.419 12.6474 10.2965 12.746 10.1886 12.8328C10.1299 12.8802 10.0318 12.959 9.99276 12.966C9.95372 12.959 9.8558 12.8802 9.79704 12.8328C9.689 12.746 9.5667 12.6474 9.41378 12.5966C9.32624 12.5674 9.22974 12.5539 9.11016 12.5539C9.05607 12.5539 9.00406 12.5565 8.95374 12.559C8.91003 12.5612 8.86866 12.5633 8.83156 12.5633C8.78552 12.5633 8.76113 12.5598 8.74933 12.5573C8.72806 12.5208 8.70316 12.4245 8.68772 12.3648C8.65258 12.2284 8.6125 12.0736 8.51432 11.9397C8.41717 11.8071 8.28306 11.7223 8.16465 11.6476C8.10965 11.6128 8.01964 11.5559 7.9937 11.5237C7.99461 11.4814 8.03261 11.3777 8.05583 11.3142C8.10524 11.1797 8.16115 11.0272 8.16115 10.8582C8.16115 10.6891 8.10511 10.5366 8.05583 10.4021ZM11.1018 16.2143L10.1693 15.6292C10.0614 15.5616 9.92415 15.5616 9.81624 15.6292L8.8837 16.2143V13.2263C8.91898 13.2252 8.95361 13.2239 8.9872 13.2223C9.03117 13.2199 9.07267 13.2178 9.11016 13.2178C9.16904 13.2178 9.1942 13.2233 9.20393 13.2265C9.24349 13.2398 9.31949 13.301 9.38058 13.3501C9.53557 13.4749 9.72843 13.6302 9.99276 13.6302C10.2571 13.6302 10.45 13.4749 10.6049 13.3501C10.666 13.301 10.742 13.2398 10.7815 13.2267C10.7913 13.2234 10.8165 13.218 10.8754 13.218C10.9128 13.218 10.9544 13.2201 10.9983 13.2223C11.0319 13.2239 11.0665 13.2254 11.1017 13.2263V16.2143H11.1018ZM11.7659 14.3583V12.9587C11.8646 12.8246 11.9058 12.6658 11.9407 12.531C11.959 12.4601 11.984 12.3633 12.0069 12.3323C12.0296 12.3011 12.114 12.2478 12.1756 12.2089C12.339 12.1057 12.5424 11.9771 12.6232 11.7341C12.7031 11.4943 12.62 11.2677 12.5532 11.0856C12.5228 11.003 12.4884 10.9092 12.4884 10.8581C12.4884 10.807 12.5228 10.7134 12.5532 10.6307C12.62 10.4486 12.7031 10.2219 12.6232 9.9821C12.5424 9.73918 12.339 9.61065 12.1756 9.5074C12.114 9.46849 12.0296 9.41506 12.0069 9.38419C11.984 9.35306 11.959 9.25618 11.9407 9.18536C11.893 9.00054 11.8336 8.77045 11.6302 8.6213C11.4684 8.50275 11.2809 8.489 11.154 8.489C11.1003 8.489 11.0484 8.4916 10.9983 8.49419C10.9544 8.4964 10.9128 8.49847 10.8755 8.49847C10.8165 8.49847 10.7913 8.49302 10.7816 8.48978C10.7422 8.47668 10.6662 8.41546 10.6051 8.36618C10.45 8.24154 10.2571 8.08629 9.99276 8.08629C9.72856 8.08629 9.53557 8.24154 9.38058 8.36618C9.31949 8.41533 9.24349 8.47668 9.20406 8.48978C9.19433 8.49302 9.16904 8.49847 9.11016 8.49847C9.0728 8.49847 9.03117 8.4964 8.9872 8.49406C8.93714 8.4916 8.88539 8.489 8.83156 8.489C8.70472 8.489 8.5173 8.50275 8.35556 8.6213C8.15207 8.77045 8.09253 9.00054 8.0448 9.18536C8.02652 9.25618 8.00148 9.35306 7.97879 9.38406C7.95596 9.41506 7.87153 9.46849 7.80992 9.5074C7.6465 9.61065 7.44326 9.73918 7.36233 9.9821C7.28243 10.222 7.36557 10.4486 7.43236 10.6307C7.46271 10.7134 7.49708 10.807 7.49708 10.8581C7.49708 10.9092 7.46271 11.003 7.43236 11.0856C7.36557 11.2677 7.28243 11.4943 7.36233 11.7342C7.44326 11.9771 7.64663 12.1057 7.80992 12.2089C7.87166 12.2478 7.95596 12.3013 7.97879 12.3323C8.00148 12.3633 8.02652 12.4601 8.0448 12.531C8.07969 12.6658 8.12107 12.8247 8.21977 12.9587V14.3583H3.55279V0.810668H10.4114V3.48325C10.4114 3.66665 10.5601 3.81528 10.7435 3.81528H13.4159V14.3583H11.7659Z" fill="#2DAEFF"/>
<path fill-rule="evenodd" clip-rule="evenodd" d="M4.8432 3.81531H9.12096C9.30422 3.81531 9.45299 3.66667 9.45299 3.48328C9.45299 3.29988 9.30422 3.15125 9.12096 3.15125H4.8432C4.65981 3.15125 4.51117 3.29988 4.51117 3.48328C4.51117 3.66667 4.65994 3.81531 4.8432 3.81531Z" fill="#2DAEFF"/>
<path fill-rule="evenodd" clip-rule="evenodd" d="M12.1627 4.82721H4.8432C4.65981 4.82721 4.51117 4.97585 4.51117 5.15924C4.51117 5.34264 4.65981 5.49127 4.8432 5.49127H12.1627C12.3461 5.49127 12.4947 5.34264 12.4947 5.15924C12.4947 4.97585 12.3461 4.82721 12.1627 4.82721Z" fill="#2DAEFF"/>
<path fill-rule="evenodd" clip-rule="evenodd" d="M10.8346 6.50317H4.8432C4.65981 6.50317 4.51117 6.65194 4.51117 6.83521C4.51117 7.0186 4.65981 7.16724 4.8432 7.16724H10.8346C11.0179 7.16724 11.1666 7.0186 11.1666 6.83521C11.1666 6.65194 11.0179 6.50317 10.8346 6.50317Z" fill="#2DAEFF"/>
<path fill-rule="evenodd" clip-rule="evenodd" d="M12.1627 6.50317C11.9798 6.50317 11.8306 6.65233 11.8306 6.83521C11.8306 7.01808 11.9798 7.16724 12.1627 7.16724C12.3457 7.16724 12.4947 7.01808 12.4947 6.83521C12.4947 6.65233 12.3457 6.50317 12.1627 6.50317Z" fill="#2DAEFF"/>
</g>
<defs>
<clipPath id="clip0">
<rect width="17" height="17" fill="white" transform="translate(0 0.146606)"/>
</clipPath>
</defs>
</svg>
