<svg width="600" height="331" viewBox="0 0 600 331" fill="none" xmlns="http://www.w3.org/2000/svg">
<path d="M-69.5561 308.961C-70.4584 306.225 -70.1464 303.277 -68.6795 300.678C-67.2125 298.079 -64.6927 296.01 -61.5986 294.863C-58.5046 293.717 -55.0519 293.573 -51.8962 294.459C-48.7406 295.346 -46.1018 297.2 -44.4812 299.671C-43.7557 297.663 -42.3386 295.877 -40.418 294.55C-38.4973 293.223 -36.1637 292.418 -33.7267 292.242C-33.464 292.223 -33.2013 292.204 -32.9415 292.209C-32.1351 289.316 -30.3771 286.665 -27.8777 284.571C-25.3782 282.478 -22.2431 281.031 -18.8471 280.403C-15.451 279.775 -11.9377 279.993 -8.72703 281.031C-5.51635 282.069 -2.74417 283.883 -0.741848 286.257C0.878031 285.405 2.70029 284.886 4.57836 284.742C6.45643 284.597 8.3379 284.831 10.0715 285.425C11.8051 286.018 13.3424 286.954 14.5597 288.158C15.7771 289.363 16.6407 290.801 17.0808 292.357C19.0033 290.676 21.52 289.59 24.2207 289.274C26.9213 288.958 29.6466 289.432 31.952 290.619C33.2284 289.088 34.9579 287.873 36.9567 287.101C38.9555 286.33 41.1491 286.031 43.3043 286.237C45.4595 286.443 47.496 287.146 49.1973 288.272C50.8985 289.397 52.2011 290.902 52.9667 292.628C54.5809 290.9 56.7069 289.572 59.1146 288.788C61.5224 288.003 64.1202 287.792 66.6268 288.178C67.7975 285.85 69.7842 283.879 72.307 282.542C74.8298 281.205 77.7616 280.569 80.6893 280.724C83.0855 278.425 86.3943 276.971 89.9442 276.659C93.494 276.348 97.0189 277.2 99.8033 279.045C102.235 278.246 104.862 278.032 107.395 278.427C109.928 278.823 112.268 279.812 114.156 281.286C115.209 279.282 116.876 277.549 118.975 276.274C121.075 274.999 123.528 274.23 126.072 274.05L126.167 274.043C127.243 270.612 129.664 267.578 133.019 265.454C136.374 263.329 140.458 262.245 144.58 262.384C148.702 262.523 152.608 263.877 155.639 266.217C158.67 268.557 160.639 271.74 161.212 275.226C161.452 275.209 161.697 275.191 161.942 275.173C164.346 274.997 166.752 275.316 168.957 276.103C171.162 276.89 173.101 278.123 174.613 279.698C176.125 281.273 177.164 283.143 177.644 285.153C178.124 287.163 178.031 289.253 177.371 291.247C176.712 293.242 175.506 295.083 173.855 296.615C172.204 298.148 170.156 299.328 167.883 300.055C165.611 300.783 163.179 301.037 160.793 300.797C158.408 300.556 156.137 299.828 154.173 298.673L84.8684 303.677C82.2879 304.644 79.4456 304.936 76.7067 304.515C75.6673 306.588 73.9771 308.384 71.8272 309.7C69.6772 311.017 67.1532 311.8 64.5406 311.963C61.9279 312.126 59.3308 311.661 57.0427 310.621C54.7547 309.581 52.867 308.008 51.593 306.079L33.0237 307.419C31.0989 308.758 28.7547 309.57 26.3057 309.747C23.8567 309.924 21.4202 309.457 19.3231 308.408L-28.0695 311.83C-30.7282 312.898 -33.7273 313.114 -36.5118 312.439L-46.1996 313.138C-48.1792 315.09 -50.8393 316.444 -53.7702 316.994C-53.7283 317.259 -53.6909 317.524 -53.6713 317.795C-53.5391 319.708 -54.0355 321.627 -55.1045 323.335C-56.1734 325.042 -57.7724 326.472 -59.7211 327.461C-61.6697 328.45 -63.8904 328.96 -66.1326 328.933C-68.3748 328.906 -70.5493 328.343 -72.4108 327.308C-74.2722 326.272 -75.7464 324.806 -76.6672 323.074C-77.5879 321.342 -87.1761 324.143 -86.8793 322.235C-86.5824 320.328 -76.4123 313.787 -74.9872 312.277C-73.562 310.768 -71.6809 309.619 -69.5561 308.961Z" fill="white"/>
<path d="M602.5 0H366.47V185.624L326.831 222.966L275.067 251.011L179 282V304H394.139H602.5V216V133V0Z" fill="white"/>
<path d="M368.053 243.585C363.814 243.994 359.46 243.237 355.818 241.456C352.176 239.675 349.499 236.995 348.296 233.926C347.093 230.856 347.447 227.61 349.292 224.805C351.137 222 354.344 219.83 358.303 218.708C355.422 217.713 352.987 216.108 351.32 214.105C349.654 212.102 348.836 209.796 348.974 207.493C348.989 207.245 349.004 206.997 349.054 206.755C344.864 205.545 341.192 203.484 338.475 200.819C335.758 198.155 334.112 194.999 333.734 191.73C333.356 188.46 334.262 185.215 336.342 182.383C338.423 179.55 341.591 177.249 345.468 175.756C344.463 174.109 343.988 172.326 344.082 170.55C344.175 168.774 344.835 167.054 346.008 165.53C347.18 164.006 348.833 162.719 350.834 161.773C352.834 160.827 355.125 160.249 357.524 160.084C355.329 158.024 354.12 155.502 354.094 152.931C354.067 150.36 355.225 147.891 357.378 145.927C355.301 144.494 353.77 142.687 352.946 140.699C352.123 138.711 352.039 136.616 352.702 134.637C353.365 132.657 354.752 130.868 356.714 129.458C358.676 128.048 361.141 127.07 363.847 126.629C361.53 124.848 359.896 122.654 359.121 120.282C358.345 117.91 358.459 115.452 359.448 113.173C356.163 111.712 353.544 109.545 351.962 106.979C350.379 104.412 349.913 101.575 350.627 98.8663C347.586 96.2656 345.96 92.9469 346.079 89.5838C346.198 86.2208 348.054 83.0654 351.27 80.7582C350.476 78.3618 350.59 75.8755 351.599 73.5737C352.607 71.272 354.472 69.2445 356.986 67.7152C354.164 66.4145 351.849 64.5849 350.29 62.4231C348.73 60.2614 347.986 57.8495 348.136 55.447L348.141 55.3571C343.192 53.8093 339.056 51.0696 336.434 47.6013C333.813 44.1331 332.865 40.1492 333.753 36.3236C334.641 32.498 337.309 29.0655 341.306 26.6068C345.303 24.148 350.383 22.8139 355.688 22.8302C355.702 22.6034 355.716 22.3723 355.73 22.1412C355.863 19.8688 356.736 17.6735 358.276 15.7398C359.816 13.8062 361.978 12.1905 364.581 11.0286C367.184 9.86676 370.151 9.19254 373.234 9.06262C376.317 8.93271 379.425 9.3509 382.297 10.2821C385.169 11.2132 387.721 12.6302 389.74 14.4139C391.758 16.1976 393.183 18.2959 393.896 20.5327C394.608 22.7695 394.587 25.0794 393.835 27.2684C393.082 29.4573 391.619 31.4614 389.57 33.1124L385.619 98.598C386.639 101.16 386.607 103.859 385.525 106.349C388.453 107.648 390.858 109.51 392.471 111.725C394.084 113.94 394.839 116.42 394.651 118.885C394.464 121.35 393.341 123.7 391.409 125.672C389.478 127.643 386.815 129.156 383.722 130.04L382.663 147.586C384.347 149.595 385.174 151.911 385.035 154.225C384.895 156.539 383.795 158.74 381.882 160.532L379.181 205.313C380.339 207.964 380.168 210.797 378.699 213.29L378.147 222.444C380.737 224.6 382.323 227.298 382.66 230.121C383.064 230.124 383.467 230.131 383.875 230.155C386.755 230.335 389.541 231.102 391.917 232.37C394.293 233.638 396.165 235.357 397.322 237.332C398.479 239.308 398.875 241.462 398.465 243.55C398.055 245.639 396.855 247.58 395.001 249.154C393.147 250.727 390.712 251.872 387.972 252.457C385.232 253.042 387.837 262.436 385.035 261.857C382.233 261.278 374.135 250.749 372.113 249.18C370.092 247.611 368.686 245.673 368.053 243.585Z" fill="white"/>
<path d="M155.292 296.629C153.635 294.271 153.08 291.359 153.732 288.447C154.383 285.534 156.195 282.824 158.825 280.831C161.454 278.837 164.717 277.7 167.994 277.634C171.271 277.568 174.334 278.579 176.601 280.474C176.714 278.342 177.553 276.222 179.007 274.396C180.461 272.57 182.461 271.124 184.743 270.249C184.989 270.155 185.235 270.06 185.485 269.99C185.419 266.988 186.334 263.941 188.12 261.213C189.905 258.485 192.487 256.192 195.556 254.608C198.624 253.023 202.05 252.215 205.424 252.278C208.798 252.342 211.977 253.275 214.58 254.967C215.884 253.683 217.478 252.658 219.234 251.976C220.99 251.294 222.858 250.973 224.689 251.038C226.52 251.104 228.263 251.555 229.777 252.355C231.291 253.155 232.534 254.281 233.406 255.644C234.759 253.478 236.853 251.709 239.347 250.625C241.84 249.54 244.586 249.205 247.136 249.673C247.915 247.838 249.218 246.174 250.908 244.856C252.597 243.539 254.61 242.618 256.733 242.191C258.856 241.764 261.008 241.847 262.963 242.431C264.917 243.016 266.6 244.079 267.832 245.509C268.877 243.388 270.527 241.501 272.604 240.053C274.682 238.605 277.107 237.65 279.618 237.293C280.064 234.727 281.395 232.264 283.422 230.254C285.45 228.243 288.072 226.786 290.919 226.086C292.546 223.191 295.292 220.842 298.6 219.515C301.907 218.189 305.528 217.984 308.727 218.943C310.823 217.474 313.276 216.508 315.815 216.153C318.354 215.798 320.88 216.067 323.114 216.931C323.542 214.708 324.635 212.566 326.275 210.738C327.915 208.909 330.041 207.463 332.423 206.554L332.512 206.52C332.548 202.924 333.986 199.319 336.583 196.314C339.179 193.309 342.773 191.088 346.759 190.027C350.744 188.967 354.876 189.131 358.454 190.493C362.033 191.855 364.839 194.331 366.398 197.502C366.623 197.416 366.852 197.328 367.081 197.24C369.331 196.375 371.726 195.983 374.064 196.098C376.403 196.213 378.617 196.831 380.52 197.901C382.423 198.97 383.96 200.46 385.001 202.244C386.042 204.029 386.558 206.056 386.505 208.156C386.451 210.256 385.83 212.367 384.694 214.313C383.558 216.258 381.939 217.98 379.975 219.335C378.01 220.689 375.756 221.637 373.403 222.098C371.05 222.559 368.666 222.519 366.452 221.983L301.567 246.844C299.377 248.518 296.741 249.621 293.997 250.01C293.603 252.296 292.506 254.505 290.829 256.387C289.152 258.27 286.964 259.751 284.51 260.663C282.057 261.576 279.436 261.883 276.945 261.551C274.454 261.218 272.191 260.259 270.413 258.781L253.028 265.443C251.574 267.282 249.565 268.738 247.272 269.617C244.979 270.495 242.512 270.754 240.201 270.357L195.831 287.358C193.595 289.151 190.788 290.227 187.927 290.387L178.857 293.862C177.527 296.303 175.373 298.37 172.727 299.745C172.844 299.987 172.957 300.23 173.054 300.483C173.735 302.276 173.815 304.256 173.287 306.201C172.758 308.145 171.642 309.976 170.063 311.487C168.485 312.998 166.507 314.129 164.353 314.753C162.199 315.376 159.954 315.467 157.873 315.016C155.792 314.564 153.956 313.588 152.573 312.197C151.19 310.806 142.824 316.264 142.556 314.352C142.287 312.44 150.127 303.234 151.054 301.376C151.981 299.518 153.448 297.874 155.292 296.629Z" fill="white"/>
<path d="M77.4425 292.961C76.5402 290.225 76.8521 287.277 78.3191 284.678C79.7861 282.079 82.3059 280.01 85.3999 278.863C88.494 277.717 91.9467 277.573 95.1023 278.459C98.258 279.346 100.897 281.2 102.517 283.671C103.243 281.663 104.66 279.877 106.581 278.55C108.501 277.223 110.835 276.418 113.272 276.242C113.535 276.223 113.797 276.204 114.057 276.209C114.863 273.316 116.621 270.665 119.121 268.571C121.62 266.478 124.755 265.031 128.151 264.403C131.548 263.775 135.061 263.993 138.272 265.031C141.482 266.069 144.254 267.883 146.257 270.257C147.877 269.405 149.699 268.886 151.577 268.742C153.455 268.597 155.336 268.831 157.07 269.425C158.804 270.018 160.341 270.954 161.558 272.158C162.776 273.363 163.639 274.801 164.079 276.357C166.002 274.676 168.519 273.59 171.219 273.274C173.92 272.958 176.645 273.432 178.951 274.619C180.227 273.088 181.956 271.873 183.955 271.101C185.954 270.33 188.148 270.031 190.303 270.237C192.458 270.443 194.495 271.146 196.196 272.272C197.897 273.397 199.2 274.902 199.965 276.628C201.579 274.9 203.705 273.572 206.113 272.788C208.521 272.003 211.119 271.792 213.625 272.178C214.796 269.85 216.783 267.879 219.306 266.542C221.828 265.205 224.76 264.569 227.688 264.724C230.084 262.425 233.393 260.971 236.943 260.659C240.493 260.348 244.017 261.2 246.802 263.045C249.233 262.246 251.861 262.032 254.394 262.427C256.926 262.823 259.266 263.812 261.154 265.286C262.208 263.282 263.874 261.549 265.974 260.274C268.073 258.999 270.527 258.23 273.07 258.05L273.165 258.043C274.242 254.612 276.662 251.578 280.017 249.454C283.373 247.329 287.457 246.245 291.578 246.384C295.7 246.523 299.607 247.877 302.638 250.217C305.668 252.557 307.637 255.74 308.211 259.226C308.451 259.209 308.696 259.191 308.94 259.173C311.345 258.997 313.75 259.316 315.955 260.103C318.16 260.89 320.1 262.123 321.612 263.698C323.123 265.273 324.163 267.143 324.643 269.153C325.123 271.163 325.029 273.253 324.37 275.247C323.71 277.242 322.505 279.083 320.854 280.615C319.203 282.148 317.155 283.328 314.882 284.055C312.609 284.783 310.178 285.037 307.792 284.797C305.406 284.556 303.136 283.828 301.171 282.673L231.867 287.677C229.286 288.644 226.444 288.936 223.705 288.515C222.666 290.588 220.976 292.384 218.826 293.7C216.676 295.017 214.152 295.8 211.539 295.963C208.926 296.126 206.329 295.661 204.041 294.621C201.753 293.581 199.866 292.008 198.592 290.079L180.022 291.419C178.097 292.758 175.753 293.57 173.304 293.747C170.855 293.924 168.419 293.457 166.322 292.408L118.929 295.83C116.27 296.898 113.271 297.114 110.487 296.439L100.799 297.138C98.8194 299.09 96.1592 300.444 93.2284 300.994C93.2703 301.259 93.3077 301.524 93.3272 301.795C93.4594 303.708 92.9631 305.627 91.8941 307.335C90.8251 309.042 89.2261 310.472 87.2775 311.461C85.3288 312.45 83.1081 312.96 80.8659 312.933C78.6237 312.906 76.4492 312.343 74.5878 311.308C72.7264 310.272 71.2521 308.806 70.3314 307.074C69.4106 305.342 59.8224 308.143 60.1193 306.235C60.4161 304.328 70.5862 297.787 72.0114 296.277C73.4365 294.768 75.3177 293.619 77.4425 292.961Z" fill="white"/>
</svg>
