<svg width="600" height="260" viewBox="0 0 600 260" fill="none" xmlns="http://www.w3.org/2000/svg">
<path d="M421.423 26.8904C420.368 27.017 419.294 26.8118 418.435 26.3198C418.416 26.9153 418.215 27.499 417.848 28.0219C417.482 28.5449 416.96 28.9918 416.326 29.3252C415.693 29.6586 414.967 29.8687 414.209 29.938C413.451 30.0072 412.683 29.9336 411.97 29.7232C411.845 30.7073 411.447 31.6591 410.805 32.5123C410.162 33.3656 409.29 34.1 408.249 34.6647C407.207 35.2294 406.022 35.6108 404.774 35.7824C403.526 35.9541 402.246 35.912 401.022 35.6589C401.059 35.8484 401.123 36.0345 401.159 36.224C401.42 37.5767 401.254 38.9595 400.674 40.2521C400.095 41.5447 399.12 42.7081 397.835 43.6412C396.55 44.5742 394.993 45.2487 393.3 45.606C391.606 45.9633 389.828 45.9926 388.119 45.6914C388.099 46.6175 387.809 47.5285 387.271 48.355C386.733 49.1816 385.961 49.9021 385.014 50.4619C384.067 51.0216 382.969 51.4059 381.804 51.5855C380.64 51.7651 379.439 51.7354 378.292 51.4986C378.187 53.2811 377.345 54.9903 375.891 56.3698C374.437 57.7494 372.451 58.7247 370.229 59.1496C368.008 59.5745 365.672 59.4261 363.572 58.7265C361.471 58.0269 359.72 56.8139 358.58 55.2695C357.327 55.3996 356.053 55.2835 354.874 54.9316C354.411 55.932 353.616 56.8188 352.57 57.5008C351.523 58.1827 350.264 58.6351 348.921 58.8114C347.578 58.9877 346.199 58.8816 344.928 58.5039C343.657 58.1262 342.538 57.4906 341.687 56.6626C340.989 57.4233 340.072 58.046 339.01 58.4808C337.949 58.9155 336.772 59.1502 335.575 59.1659C334.377 59.1817 333.192 58.9781 332.115 58.5714C331.038 58.1648 330.099 57.5665 329.372 56.8246C329.134 57.1449 328.815 57.4242 328.434 57.6452C328.053 57.8663 327.619 58.0245 327.157 58.1102C326.696 58.1959 326.217 58.2074 325.751 58.1438C325.284 58.0802 324.839 57.943 324.443 57.7405C324.717 58.0393 324.889 58.3883 324.941 58.7541C324.993 59.1199 324.924 59.4902 324.74 59.8296C324.556 60.169 324.264 60.466 323.891 60.6923C323.519 60.9185 323.078 61.0664 322.611 61.1218L322.372 61.1504C322.606 61.4328 322.751 61.7542 322.796 62.0888C322.841 62.4234 322.784 62.7617 322.631 63.0765C322.477 63.3913 322.232 63.6737 321.913 63.9009C321.594 64.1282 321.212 64.2939 320.797 64.3848C321.355 64.7026 321.739 65.1728 321.873 65.7021C322.007 66.2314 321.881 66.7812 321.52 67.2424C321.16 67.7037 320.591 68.0427 319.926 68.1924C319.261 68.342 318.549 68.2913 317.931 68.0503C317.781 68.4924 317.468 68.8906 317.031 69.1952C316.594 69.4999 316.051 69.6976 315.472 69.7636C314.892 69.8296 314.301 69.761 313.772 69.5664C313.243 69.3718 312.8 69.0598 312.497 68.6693C312.278 68.9642 311.973 69.2147 311.607 69.4001C311.241 69.5855 310.824 69.7006 310.39 69.736C309.957 69.7713 309.519 69.7259 309.112 69.6034C308.706 69.481 308.343 69.285 308.053 69.0315L307.775 69.0647C307.616 69.3377 307.385 69.5818 307.097 69.7812C306.81 69.9807 306.472 70.1311 306.106 70.2229C305.74 70.3146 305.354 70.3456 304.972 70.3138C304.59 70.2821 304.222 70.1884 303.889 70.0386C303.703 70.4216 303.381 70.7555 302.961 71.001C302.54 71.2466 302.04 71.3937 301.517 71.4251C300.994 71.4565 300.471 71.3709 300.008 71.1783C299.546 70.9857 299.165 70.6941 298.908 70.3377C298.54 70.5935 298.091 70.7679 297.608 70.8426C297.125 70.9173 296.625 70.8897 296.161 70.7625C295.697 70.6353 295.285 70.4132 294.969 70.1194C294.653 69.8256 294.443 69.4708 294.363 69.092C294.154 69.1601 293.936 69.2085 293.713 69.2361C293.26 69.2895 292.798 69.2543 292.368 69.1339C291.937 69.0135 291.552 68.8115 291.247 68.546C290.942 68.2806 290.726 67.96 290.619 67.613C290.512 67.2661 290.517 66.9036 290.633 66.558C290.56 66.5667 290.484 66.5759 290.408 66.585C289.96 66.6383 289.504 66.6051 289.077 66.4883C288.651 66.3714 288.268 66.1745 287.962 65.9149C287.657 65.6552 287.437 65.3408 287.324 64.9992C287.211 64.6576 287.207 64.2993 287.313 63.9558C287.17 63.993 287.023 64.0207 286.875 64.0387C286.151 64.1252 285.413 63.9837 284.824 63.6454C284.235 63.3071 283.842 62.7997 283.733 62.2347C283.706 62.091 283.697 61.9456 283.706 61.8004C283.214 62.0787 282.636 62.2495 282.032 62.2955C281.427 62.3414 280.819 62.2608 280.268 62.0618C279.568 63.1851 278.434 64.1091 277.026 64.7037C275.619 65.2982 274.009 65.5331 272.423 65.3753C272.514 65.6046 272.584 65.8387 272.633 66.0758C272.802 66.9308 272.677 67.806 272.27 68.6121C271.864 69.4181 271.192 70.126 270.321 70.6637C269.451 71.2013 268.414 71.5494 267.316 71.6723C266.218 71.7952 265.099 71.6887 264.073 71.3634C263.618 72.878 262.562 74.2429 261.056 75.2632C259.55 76.2834 257.671 76.9069 255.686 77.0446C253.702 77.1822 251.714 76.827 250.006 76.0297C248.299 75.2324 246.959 74.0337 246.178 72.6048C245.112 73.2011 243.868 73.5741 242.565 73.688C241.263 73.8019 239.946 73.653 238.74 73.2556C237.533 72.8581 236.479 72.2253 235.677 71.4179C234.875 70.6104 234.353 69.6553 234.16 68.644C234.013 67.8908 234.055 67.1221 234.284 66.3806C232.944 66.3233 231.662 65.9392 230.618 65.2825C229.575 64.6258 228.822 63.7295 228.467 62.7199C227.434 63.3265 226.192 63.6756 224.902 63.7213C223.613 63.7671 222.337 63.5074 221.241 62.9763C220.146 62.4452 219.283 61.6676 218.766 60.7456C218.248 59.8237 218.1 58.8004 218.341 57.8101C217.272 57.5824 216.298 57.1417 215.514 56.5313C214.73 55.9209 214.163 55.1616 213.869 54.3278C213.574 53.494 213.563 52.6143 213.835 51.7748C214.106 50.9353 214.653 50.1648 215.42 49.5388C215.705 48.8373 216.264 48.2223 217.017 47.7793C217.771 47.3364 218.682 47.0875 219.624 47.0675L219.618 47.0404L395.453 26.0258C396.078 25.0467 396.994 24.1986 398.125 23.5529C399.257 22.9071 400.57 22.4828 401.953 22.3155C403.337 22.1482 404.752 22.2429 406.077 22.5916C407.403 22.9403 408.601 23.5328 409.57 24.3193C409.932 23.85 410.42 23.4482 411.002 23.1424C411.584 22.8365 412.244 22.6342 412.937 22.5496C413.629 22.465 414.336 22.5002 415.009 22.6528C415.681 22.8054 416.302 23.0717 416.827 23.4327C416.913 22.8505 417.206 22.2984 417.672 21.8387C418.139 21.379 418.761 21.03 419.467 20.8313C420.174 20.6325 420.937 20.5918 421.671 20.7138C422.405 20.8358 423.079 21.1156 423.619 21.5217C424.159 21.9277 424.542 22.4438 424.725 23.0116C424.909 23.5793 424.885 24.1762 424.656 24.7347C424.428 25.2931 424.004 25.791 423.433 26.1719C422.861 26.5528 422.165 26.8017 421.423 26.8904V26.8904Z" fill="#D9D9D9"/>
<path d="M221.964 94.3365C223.202 96.6068 225.125 98.5745 227.368 99.866C229.611 101.157 232.018 101.683 234.131 101.342C236.245 101.001 237.918 99.8182 238.832 98.0176C239.747 96.2171 239.839 93.9243 239.092 91.575C240.638 92.7245 242.367 93.4596 244.05 93.6829C245.734 93.9062 247.292 93.6071 248.518 92.8252C248.65 92.7408 248.782 92.6565 248.899 92.5566C251.015 94.3012 253.424 95.5214 255.836 96.0714C258.248 96.6215 260.562 96.478 262.501 95.6583C264.44 94.8385 265.922 93.3771 266.771 91.4488C267.619 89.5204 267.797 87.2067 267.284 84.7841C268.542 84.7833 269.693 84.4721 270.643 83.8755C271.593 83.2789 272.316 82.4135 272.754 81.3491C273.192 80.2846 273.333 79.0507 273.165 77.7466C272.997 76.4425 272.526 75.1046 271.788 73.8405C273.686 74.3134 275.498 74.1453 276.93 73.3637C278.361 72.5821 279.327 71.233 279.669 69.5365C281.18 70.1436 282.708 70.3595 284.092 70.1612C285.476 69.9628 286.664 69.3578 287.53 68.4102C288.395 67.4627 288.906 66.2081 289.009 64.7796C289.111 63.3512 288.8 61.8023 288.11 60.2974C289.895 60.9184 291.673 61.0663 293.253 60.725C294.833 60.3837 296.153 59.5662 297.072 58.3611C299.015 59.5709 301.118 60.2252 303.084 60.2318C305.05 60.2385 306.781 59.5972 308.032 58.3982C310.521 59.1323 312.919 58.9285 314.738 57.8283C316.557 56.728 317.661 54.8136 317.827 52.4738C319.426 52.1342 320.762 51.3078 321.687 50.0858C322.612 48.8638 323.089 47.2938 323.067 45.5493C324.761 46.5743 326.573 47.1795 328.307 47.2997C330.041 47.4199 331.633 47.0506 332.91 46.2316L332.957 46.2011C335.523 48.2258 338.467 49.4702 341.291 49.7237C344.115 49.9773 346.646 49.2244 348.455 47.5925C350.265 45.9606 351.242 43.5498 351.221 40.7679C351.201 37.986 350.184 35.0039 348.342 32.3258C348.463 32.2488 348.586 32.1703 348.709 32.0917C349.92 31.322 350.833 30.2016 351.371 28.8247C351.908 27.4478 352.055 25.8546 351.799 24.1789C351.542 22.5032 350.89 20.7939 349.897 19.1946C348.905 17.5954 347.6 16.1529 346.093 14.9882C344.586 13.8236 342.92 12.9708 341.236 12.5016C339.553 12.0324 337.9 11.9604 336.416 12.2917C334.933 12.623 333.662 13.3479 332.712 14.4055C331.761 15.4631 331.158 16.8225 330.952 18.3696L296.094 40.6179C294.325 40.8941 292.843 41.7453 291.839 43.0622C290.11 41.9833 288.249 41.3423 286.467 41.2117C284.684 41.0811 283.052 41.4661 281.753 42.3231C280.455 43.1802 279.542 44.475 279.119 46.0614C278.696 47.6478 278.779 49.4624 279.358 51.3001L270.018 57.2613C268.326 57.031 266.759 57.3289 265.527 58.1151C264.295 58.9012 263.458 60.1381 263.127 61.6595L239.291 76.8736C237.424 77.1077 235.916 78.0705 235.044 79.5838L230.172 82.6938C228.084 82.0509 226.044 82.083 224.366 82.7852C224.226 82.5821 224.082 82.3804 223.928 82.1818C222.834 80.7803 221.447 79.6087 219.925 78.799C218.403 77.9894 216.806 77.5741 215.313 77.5998C213.821 77.6255 212.493 78.0914 211.479 78.9448C210.465 79.7981 209.806 81.005 209.576 82.4294C209.346 83.8537 209.554 85.4387 210.177 87.0056C210.799 88.5725 211.812 90.0589 213.1 91.297C214.388 92.5352 215.901 93.4759 217.467 94.0129C219.033 94.55 220.591 94.6621 221.964 94.3365Z" fill="white"/>
<path d="M320.975 32.1712C320.77 34.0495 321.407 35.9662 322.765 37.5573C324.123 39.1484 326.107 40.3031 328.342 40.8019C330.576 41.3008 332.904 41.1091 334.885 40.2634C336.865 39.4176 338.359 37.9766 339.083 36.2142C339.86 37.4772 341.066 38.5365 342.543 39.2516C344.019 39.9666 345.696 40.3036 347.35 40.2178C347.528 40.2085 347.707 40.1992 347.88 40.1746C348.839 42.0138 350.399 43.6153 352.374 44.7876C354.348 45.96 356.654 46.6536 359.015 46.7857C361.376 46.9177 363.692 46.4825 365.687 45.5322C367.682 44.5818 369.271 43.1564 370.264 41.4265C371.471 41.8532 372.764 42.044 374.04 41.9834C375.316 41.9229 376.54 41.6127 377.612 41.0779C378.685 40.543 379.576 39.7985 380.215 38.904C380.853 38.0096 381.221 36.9902 381.29 35.928C382.819 36.8761 384.658 37.3837 386.509 37.3677C388.36 37.3518 390.113 36.8133 391.481 35.8402C392.556 36.743 393.889 37.4006 395.337 37.7433C396.785 38.0859 398.294 38.1007 399.705 37.7862C401.115 37.4716 402.374 36.8394 403.347 35.9567C404.321 35.0741 404.973 33.9739 405.234 32.7731C406.564 33.778 408.177 34.4768 409.9 34.7941C411.624 35.1113 413.39 35.0349 415.01 34.5729C416.13 36.0097 417.744 37.1439 419.625 37.8159C421.505 38.4879 423.557 38.6637 425.491 38.3187C427.427 39.6354 429.849 40.3186 432.267 40.2297C434.685 40.1408 436.916 39.2864 438.509 37.84C440.251 38.1651 442.038 38.088 443.673 37.6173C445.308 37.1465 446.728 36.3004 447.776 35.1725C448.771 36.406 450.137 37.4099 451.725 38.076C453.314 38.7422 455.065 39.0454 456.791 38.9531L456.856 38.9497C458.073 41.1213 460.132 42.9202 462.683 44.042C465.234 45.1638 468.121 45.5397 470.856 45.1061C473.59 44.6726 476.004 43.4561 477.69 41.6626C479.375 39.8691 480.229 37.6086 480.106 35.2634C480.269 35.255 480.435 35.2463 480.601 35.2377C482.233 35.1546 483.795 34.745 485.154 34.0433C486.513 33.3416 487.631 32.3683 488.412 31.2051C489.194 30.0419 489.617 28.7228 489.645 27.3586C489.674 25.9944 489.308 24.6249 488.577 23.3652C487.847 22.1054 486.774 20.9923 485.448 20.1191C484.121 19.246 482.581 18.6385 480.957 18.3475C479.332 18.0565 477.67 18.0907 476.111 18.447C474.551 18.8033 473.139 19.4714 471.994 20.3953L424.949 19.8334C423.084 19.4098 421.142 19.4533 419.373 19.9581C418.377 18.6781 416.986 20.6472 415.358 19.9581C413.73 19.269 411.929 18.9618 410.16 19.0712C408.39 19.1807 406.722 19.7024 405.344 20.5775C403.965 21.4525 402.932 19.9663 402.361 21.3433L389.756 22C388.275 21.2773 386.591 23.6161 384.928 23.7027C383.266 23.7893 381.705 24.2993 380.456 25.1642L348.285 26.8402C346.353 26.3568 344.317 26.4629 342.554 27.1388L335.978 27.4814C334.372 26.3597 332.397 25.6876 330.358 25.5687C330.348 25.3904 330.334 25.2123 330.308 25.0322C330.118 23.7606 329.508 22.5374 328.545 21.5005C327.583 20.4637 326.306 19.6545 324.86 19.1642C323.414 18.674 321.856 18.5222 320.361 18.726C318.867 18.9298 317.495 19.4811 316.402 20.3176C315.308 21.1542 314.536 22.2427 314.172 23.4605C313.808 24.6782 313.868 25.9766 314.343 27.2092C314.819 28.4418 315.692 29.5595 316.864 30.4363C318.035 31.3131 319.46 31.914 320.975 32.1712Z" fill="white"/>
<path d="M275.5 57L289.5 52L323.5 27H-4.5V204.5V242H112H134.539H359L285.415 220.981C226 180 226 122.5 275.5 57Z" fill="white"/>
<path d="M495.812 241.534C496.476 239.407 496.105 237.201 494.769 235.334C493.434 233.467 491.226 232.068 488.567 231.405C485.907 230.741 482.98 230.859 480.342 231.734C477.704 232.61 475.538 234.184 474.256 236.156C473.57 234.686 472.306 233.43 470.632 232.554C468.959 231.677 466.955 231.222 464.887 231.248C464.664 231.251 464.441 231.253 464.221 231.274C463.434 229.142 461.85 227.254 459.659 225.836C457.468 224.418 454.763 223.53 451.866 223.278C448.97 223.026 446.004 223.421 443.325 224.415C440.646 225.409 438.366 226.96 436.758 228.884C435.356 228.347 433.795 228.074 432.201 228.088C430.607 228.101 429.023 228.401 427.578 228.963C426.132 229.524 424.865 230.332 423.879 231.321C422.892 232.31 422.214 233.453 421.898 234.658C420.21 233.514 418.041 232.858 415.744 232.796C413.447 232.734 411.159 233.27 409.251 234.317C408.115 233.245 406.608 232.439 404.888 231.987C403.169 231.535 401.302 231.453 399.486 231.75C397.669 232.047 395.972 232.711 394.573 233.672C393.174 234.633 392.126 235.856 391.541 237.21C390.113 236.01 388.265 235.146 386.2 234.711C384.134 234.276 381.928 234.286 379.821 234.741C378.746 233.06 376.993 231.701 374.81 230.856C372.626 230.011 370.122 229.722 367.651 230.031C365.54 228.45 362.687 227.569 359.672 227.566C356.657 227.562 353.705 228.437 351.416 230.012C349.329 229.568 347.098 229.578 344.969 230.043C342.84 230.507 340.896 231.407 339.352 232.644C338.388 231.199 336.915 229.999 335.092 229.173C333.269 228.347 331.165 227.927 329.006 227.957L328.926 227.958C327.89 225.437 325.732 223.304 322.816 221.918C319.9 220.533 316.404 219.981 312.922 220.356C309.439 220.73 306.182 222.009 303.702 223.975C301.223 225.941 299.672 228.473 299.313 231.144C299.109 231.147 298.902 231.149 298.694 231.152C296.653 231.176 294.629 231.574 292.792 232.313C290.955 233.052 289.358 234.11 288.136 235.398C286.914 236.687 286.102 238.168 285.769 239.718C285.436 241.267 285.591 242.84 286.221 244.303C286.851 245.766 287.938 247.078 289.391 248.128C290.844 249.178 292.619 249.935 294.569 250.336C296.519 250.737 298.585 250.77 300.595 250.432C302.605 250.094 304.5 249.396 306.12 248.395L364.947 247.642C367.166 248.204 369.581 248.238 371.884 247.741C372.838 249.239 374.334 250.485 376.201 251.339C378.068 252.193 380.232 252.62 382.449 252.572C384.666 252.524 386.846 252.003 388.745 251.067C390.643 250.132 392.183 248.82 393.192 247.28L408.953 247.078C410.631 247.963 412.644 248.424 414.723 248.397C416.801 248.37 418.846 247.858 420.583 246.929L460.81 246.414C463.098 247.047 465.644 247.014 467.976 246.322L476.199 246.216C477.945 247.561 480.245 248.41 482.745 248.633C482.719 248.836 482.697 249.04 482.69 249.245C482.648 250.699 483.138 252.116 484.104 253.336C485.071 254.556 486.476 255.531 488.16 256.151C489.845 256.771 491.743 257.01 493.639 256.843C495.536 256.676 497.355 256.109 498.893 255.205C500.43 254.301 501.625 253.097 502.341 251.729C503.057 250.361 503.267 248.882 502.947 247.46C502.626 246.039 501.788 244.731 500.528 243.683C499.267 242.636 497.633 241.891 495.812 241.534Z" fill="white"/>
<path d="M495.812 241.534C496.476 239.407 496.105 237.201 494.769 235.334C493.434 233.467 491.226 232.068 488.567 231.405C485.907 230.741 482.98 230.859 480.342 231.734C477.704 232.61 475.538 234.184 474.256 236.156C473.57 234.686 472.306 233.43 470.632 232.554C468.959 231.677 466.955 231.222 464.887 231.248C464.664 231.251 464.441 231.253 464.221 231.274C463.434 229.142 461.85 227.254 459.659 225.836C457.468 224.418 454.763 223.53 451.866 223.278C448.97 223.026 446.004 223.421 443.325 224.415C440.646 225.409 438.366 226.96 436.758 228.884C435.356 228.347 433.795 228.074 432.201 228.088C430.607 228.101 429.023 228.401 427.578 228.963C426.132 229.524 424.865 230.332 423.879 231.321C422.892 232.31 422.214 233.453 421.898 234.658C420.21 233.514 418.041 232.858 415.744 232.796C413.447 232.734 411.159 233.27 409.251 234.317C408.115 233.245 406.608 232.439 404.888 231.987C403.169 231.535 401.302 231.453 399.486 231.75C397.669 232.047 395.972 232.711 394.573 233.672C393.174 234.633 392.126 235.856 391.541 237.21C390.113 236.01 388.265 235.146 386.2 234.711C384.134 234.276 381.928 234.286 379.821 234.741C378.746 233.06 376.993 231.701 374.81 230.856C372.626 230.011 370.122 229.722 367.651 230.031C365.54 228.45 362.687 227.569 359.672 227.566C356.657 227.562 353.705 228.437 351.416 230.012C349.329 229.568 347.098 229.578 344.969 230.043C342.84 230.507 340.896 231.407 339.352 232.644C338.388 231.199 336.915 229.999 335.092 229.173C333.269 228.347 331.165 227.927 329.006 227.957L328.926 227.958C327.89 225.437 325.732 223.304 322.816 221.918C319.9 220.533 316.404 219.981 312.922 220.356C309.439 220.73 306.182 222.009 303.702 223.975C301.223 225.941 299.672 228.473 299.313 231.144C299.109 231.147 298.902 231.149 298.694 231.152C296.653 231.176 294.629 231.574 292.792 232.313C290.955 233.052 289.358 234.11 288.136 235.398C286.914 236.687 286.102 238.168 285.769 239.718C285.436 241.267 285.591 242.84 286.221 244.303C286.851 245.766 287.938 247.078 289.391 248.128C290.844 249.178 292.619 249.935 294.569 250.336C296.519 250.737 298.585 250.77 300.595 250.432C302.605 250.094 304.5 249.396 306.12 248.395L364.947 247.642C367.166 248.204 369.581 248.238 371.884 247.741C372.838 249.239 374.334 250.485 376.201 251.339C378.068 252.193 380.232 252.62 382.449 252.572C384.666 252.524 386.846 252.003 388.745 251.067C390.643 250.132 392.183 248.82 393.192 247.28L408.953 247.078C410.631 247.963 412.644 248.424 414.723 248.397C416.801 248.37 418.846 247.858 420.583 246.929L460.81 246.414C463.098 247.047 465.644 247.014 467.976 246.322L476.199 246.216C477.945 247.561 480.245 248.41 482.745 248.633C482.719 248.836 482.697 249.04 482.69 249.245C482.648 250.699 483.138 252.116 484.104 253.336C485.071 254.556 486.476 255.531 488.16 256.151C489.845 256.771 491.743 257.01 493.639 256.843C495.536 256.676 497.355 256.109 498.893 255.205C500.43 254.301 501.625 253.097 502.341 251.729C503.057 250.361 503.267 248.882 502.947 247.46C502.626 246.039 501.788 244.731 500.528 243.683C499.267 242.636 497.633 241.891 495.812 241.534Z" fill="white"/>
<path d="M454.973 23.1707C454.768 25.049 455.405 26.9657 456.763 28.5568C458.121 30.1479 460.105 31.3026 462.34 31.8014C464.574 32.3003 466.903 32.1087 468.883 31.2629C470.863 30.4171 472.357 28.9761 473.081 27.2137C473.858 28.4768 475.064 29.5361 476.541 30.2511C478.017 30.9661 479.694 31.3031 481.348 31.2173C481.526 31.208 481.705 31.1987 481.878 31.1742C482.837 33.0133 484.397 34.6148 486.372 35.7871C488.346 36.9595 490.652 37.6532 493.013 37.7852C495.374 37.9172 497.69 37.482 499.685 36.5317C501.68 35.5813 503.269 34.156 504.263 32.426C505.469 32.8527 506.762 33.0435 508.038 32.9829C509.314 32.9224 510.538 32.6122 511.61 32.0774C512.683 31.5426 513.574 30.798 514.213 29.9035C514.851 29.0091 515.22 27.9898 515.288 26.9275C516.817 27.8757 518.656 28.3832 520.507 28.3672C522.358 28.3513 524.111 27.8128 525.479 26.8397C526.554 27.7425 527.887 28.4001 529.335 28.7428C530.783 29.0854 532.292 29.1002 533.703 28.7857C535.113 28.4711 536.372 27.8389 537.345 26.9562C538.319 26.0736 538.971 24.9734 539.232 23.7726C540.562 24.7775 542.175 25.4764 543.899 25.7936C545.622 26.1108 547.388 26.0344 549.008 25.5724C550.128 27.0092 551.742 28.1434 553.623 28.8154C555.503 29.4874 557.555 29.6632 559.489 29.3182C561.425 30.6349 563.847 31.3181 566.265 31.2292C568.683 31.1403 570.915 30.2859 572.507 28.8395C574.249 29.1646 576.036 29.0875 577.671 28.6168C579.306 28.146 580.726 27.3 581.774 26.172C582.769 27.4055 584.135 28.4094 585.723 29.0756C587.312 29.7417 589.063 30.045 590.789 29.9526L590.854 29.9493C592.071 32.1208 594.13 33.9197 596.681 35.0415C599.232 36.1633 602.119 36.5392 604.854 36.1056C607.588 35.6721 610.002 34.4557 611.688 32.6621C613.373 30.8686 614.227 28.6081 614.104 26.263C614.267 26.2545 614.433 26.2458 614.599 26.2372C616.231 26.1541 617.793 25.7446 619.152 25.0429C620.511 24.3412 621.629 23.3678 622.41 22.2046C623.192 21.0414 623.615 19.7223 623.643 18.3581C623.672 16.9939 623.306 15.6244 622.575 14.3647C621.845 13.1049 620.772 11.9918 619.446 11.1187C618.119 10.2455 616.579 9.63799 614.955 9.34702C613.33 9.05605 611.668 9.09017 610.109 9.4465C608.549 9.80283 607.137 10.471 605.992 11.3948L558.947 10.833C557.082 10.4093 555.14 10.4528 553.371 10.9576C552.375 9.67757 550.984 11.6467 549.356 10.9576C547.728 10.2685 545.927 9.96129 544.158 10.0707C542.388 10.1802 540.72 10.7019 539.342 11.577C537.964 12.4521 536.931 10.9658 536.359 12.3428L523.754 12.9995C522.273 12.2768 520.589 14.6156 518.926 14.7022C517.264 14.7888 515.703 15.2988 514.454 16.1637L482.283 17.8397C480.351 17.3563 478.315 17.4624 476.552 18.1383L469.976 18.4809C468.37 17.3592 466.395 16.6871 464.356 16.5682C464.346 16.3899 464.332 16.2118 464.306 16.0317C464.116 14.7601 463.506 13.5369 462.543 12.5C461.581 11.4632 460.304 10.654 458.858 10.1637C457.412 9.67347 455.854 9.52169 454.36 9.7255C452.865 9.9293 451.493 10.4806 450.4 11.3171C449.306 12.1537 448.534 13.2423 448.17 14.46C447.806 15.6777 447.866 16.9761 448.341 18.2087C448.817 19.4413 449.69 20.559 450.862 21.4358C452.033 22.3126 453.458 22.9135 454.973 23.1707Z" fill="white"/>
</svg>
