<svg width="375" height="305" viewBox="0 0 375 305" fill="none" xmlns="http://www.w3.org/2000/svg">
<mask id="mask0" mask-type="alpha" maskUnits="userSpaceOnUse" x="-1" y="0" width="376" height="269">
<rect x="-0.000488281" width="374.97" height="269" fill="white"/>
</mask>
<g mask="url(#mask0)">
<path d="M-42.6456 228.239C-24.3979 204.653 -1.50238 185.05 24.6283 170.64C50.759 156.23 79.5704 147.319 109.285 144.455C138.999 141.592 168.986 144.837 197.396 153.991C225.805 163.145 252.034 178.014 274.464 197.679C296.894 217.345 315.05 241.391 327.81 268.332C340.57 295.274 347.665 324.54 348.656 354.325C349.648 384.11 343.587 423.51 332.646 451.237C212.908 451.237 74.5504 451.237 -64.9608 451.237C-81.0918 425.216 -83.7342 425.255 -86.815 373.175C-89.8958 321.095 -74.1856 269.637 -42.5315 228.125L-42.6456 228.239Z" fill="url(#paint0_linear)" fill-opacity="0.35"/>
<g style="mix-blend-mode:multiply" opacity="0.15">
<path d="M298.845 498.758L266.424 486.551C298.046 451.205 294.778 471.803 298.845 424.555C302.913 377.308 291.537 330.005 266.424 289.743C241.311 249.482 203.815 218.431 159.56 201.25C115.306 184.069 66.6797 181.684 20.9753 194.452C9.48181 197.595 -1.72784 201.693 -12.537 206.702C-18.8385 209.661 -25.0022 212.913 -30.989 216.351C-11.2075 194.204 12.8841 176.318 39.817 163.782C50.6189 158.835 61.7869 154.726 73.2217 151.493C123.81 137.451 177.773 141.984 225.33 164.271C272.888 186.558 310.894 225.124 332.46 272.979C354.026 320.835 357.725 374.814 342.888 425.134C328.05 475.454 342.923 470.268 298.845 498.758Z" fill="#230753"/>
</g>
</g>
<path d="M285.689 245.233C286.547 242.436 285.72 239.582 283.364 237.213C281.008 234.844 277.288 233.124 272.91 232.381C268.532 231.637 263.802 231.922 259.617 233.181C255.432 234.439 252.084 236.584 250.209 239.208C248.946 237.327 246.769 235.75 243.967 234.685C241.166 233.62 237.872 233.118 234.523 233.245C234.162 233.259 233.801 233.273 233.447 233.309C231.952 230.571 229.192 228.186 225.497 226.44C221.801 224.694 217.326 223.66 212.607 223.463C207.887 223.266 203.123 223.913 198.884 225.328C194.645 226.742 191.109 228.864 188.701 231.439C186.374 230.803 183.817 230.519 181.235 230.609C178.653 230.699 176.117 231.16 173.833 231.956C171.548 232.752 169.578 233.861 168.081 235.192C166.584 236.524 165.602 238.041 165.214 239.623C162.362 238.211 158.78 237.454 155.052 237.478C151.324 237.501 147.67 238.302 144.686 239.751C142.736 238.406 140.21 237.427 137.378 236.916C134.545 236.406 131.511 236.383 128.599 236.851C125.686 237.319 123.003 238.26 120.835 239.574C118.668 240.888 117.095 242.526 116.286 244.313C113.848 242.817 110.766 241.776 107.374 241.303C103.982 240.83 100.409 240.944 97.0408 241.631C95.1263 239.492 92.1469 237.802 88.5223 236.801C84.8978 235.8 80.8109 235.538 76.8373 236.051C73.2543 234.09 68.5415 233.072 63.6553 233.204C58.7692 233.336 54.076 234.607 50.5281 236.76C47.1014 236.276 43.4873 236.39 40.0853 237.09C36.6832 237.791 33.6256 239.05 31.2501 240.729C29.5395 238.892 27.0297 237.397 23.9911 236.405C20.9525 235.413 17.5001 234.961 14.0054 235.098L13.8747 235.103C11.9384 231.869 8.22211 229.19 3.35449 227.52C-1.51314 225.849 -7.23331 225.288 -12.8384 225.933C-18.4435 226.578 -23.5895 228.388 -27.4059 231.058C-31.2223 233.728 -33.4748 237.093 -33.7824 240.585C-34.1123 240.598 -34.4484 240.61 -34.7845 240.623C-38.0893 240.746 -41.3284 241.356 -44.2297 242.4C-47.131 243.444 -49.6097 244.893 -51.4577 246.625C-53.3058 248.357 -54.4691 250.321 -54.85 252.352C-55.2309 254.383 -54.8183 256.422 -53.6468 258.298C-52.4753 260.174 -50.5791 261.831 -48.1175 263.132C-45.656 264.432 -42.7009 265.337 -39.5005 265.771C-36.3001 266.204 -32.9479 266.154 -29.7255 265.624C-26.503 265.094 -23.5044 264.099 -20.9815 262.724L74.2634 259.088C77.9163 259.719 81.8343 259.655 85.5139 258.904C87.2147 260.81 89.7658 262.364 92.8787 263.391C95.9916 264.417 99.5423 264.875 103.129 264.712C106.716 264.55 110.197 263.774 113.177 262.471C116.157 261.169 118.518 259.392 119.994 257.342L145.514 256.368C148.322 257.444 151.631 257.952 154.997 257.824C158.363 257.695 161.624 256.936 164.342 255.649L229.474 253.162C233.247 253.883 237.369 253.725 241.076 252.72L254.39 252.211C257.357 253.882 261.171 254.883 265.245 255.061C265.224 255.326 265.209 255.591 265.219 255.859C265.3 257.753 266.238 259.574 267.93 261.118C269.621 262.662 271.998 263.867 274.791 264.598C277.585 265.328 280.685 265.554 283.74 265.251C286.796 264.948 289.686 264.128 292.085 262.883C294.484 261.637 296.295 260.017 297.316 258.204C298.336 256.391 298.524 254.458 297.859 252.622C297.194 250.787 295.702 249.123 293.552 247.817C291.401 246.511 288.678 245.616 285.689 245.233Z" fill="#D9D9D9"/>
<path d="M407.419 262.841C408.549 258.464 407.53 253.944 404.555 250.141C401.58 246.337 396.857 243.514 391.283 242.208C385.709 240.902 379.672 241.204 374.318 243.056C368.965 244.909 364.668 248.183 362.244 252.257C360.656 249.256 357.9 246.705 354.34 244.941C350.781 243.178 346.586 242.285 342.313 242.382C341.852 242.392 341.392 242.403 340.94 242.449C339.068 238.091 335.578 234.25 330.887 231.386C326.195 228.523 320.501 226.757 314.485 226.301C308.468 225.844 302.384 226.716 296.959 228.812C291.534 230.908 286.999 234.14 283.894 238.121C280.935 237.048 277.677 236.521 274.383 236.582C271.088 236.644 267.849 237.292 264.925 238.475C262.001 239.657 259.475 241.342 257.549 243.392C255.623 245.443 254.351 247.802 253.836 250.28C250.216 247.968 245.657 246.667 240.902 246.588C236.147 246.509 231.476 247.658 227.653 249.847C225.182 247.669 221.974 246.049 218.368 245.157C214.761 244.266 210.893 244.136 207.172 244.783C203.451 245.43 200.018 246.829 197.236 248.83C194.454 250.832 192.429 253.363 191.374 256.153C188.283 253.721 184.366 251.986 180.045 251.137C175.725 250.288 171.166 250.356 166.862 251.334C164.448 247.906 160.669 245.153 156.059 243.465C151.449 241.777 146.24 241.237 141.165 241.922C136.62 238.724 130.623 236.975 124.389 237.031C118.156 237.088 112.154 238.944 107.602 242.225C103.237 241.356 98.6265 241.424 94.2787 242.422C89.9308 243.42 86.0152 245.308 82.9643 247.879C80.8058 244.933 77.6238 242.502 73.7609 240.845C69.898 239.189 65.5005 238.37 61.0417 238.478L60.8749 238.482C58.4462 233.33 53.7404 228.997 47.5533 226.215C41.3663 223.433 34.0779 222.374 26.921 223.216C19.7641 224.058 13.178 226.749 8.27683 230.835C3.37564 234.921 0.460223 240.151 0.023719 245.64C-0.397182 245.649 -0.826025 245.659 -1.25487 245.669C-5.47137 245.761 -9.61019 246.62 -13.3237 248.175C-17.0372 249.73 -20.2169 251.934 -22.5958 254.604C-24.9746 257.273 -26.4832 260.33 -26.9947 263.516C-27.5062 266.703 -27.0057 269.927 -25.5353 272.917C-24.0649 275.906 -21.6675 278.575 -18.5445 280.699C-15.4214 282.823 -11.664 284.339 -7.58772 285.121C-3.51146 285.903 0.764574 285.927 4.88121 285.192C8.99784 284.457 12.8348 282.984 16.0699 280.897L137.591 278.118C142.242 279.224 147.24 279.245 151.942 278.176C154.087 281.23 157.321 283.756 161.279 285.469C165.236 287.181 169.759 288.012 174.336 287.867C178.913 287.722 183.361 286.607 187.179 284.649C190.996 282.69 194.03 279.965 195.938 276.783L228.498 276.038C232.067 277.82 236.281 278.723 240.575 278.624C244.869 278.526 249.038 277.432 252.521 275.489L335.621 273.588C340.424 274.839 345.683 274.719 350.424 273.25L367.411 272.861C371.174 275.583 376.026 277.278 381.22 277.684C381.19 278.101 381.167 278.518 381.177 278.941C381.256 281.924 382.43 284.821 384.567 287.305C386.705 289.789 389.721 291.76 393.275 292.996C396.828 294.233 400.779 294.685 404.68 294.302C408.581 293.92 412.278 292.717 415.353 290.831C418.428 288.944 420.759 286.448 422.083 283.625C423.407 280.802 423.672 277.764 422.847 274.853C422.022 271.943 420.14 269.276 417.414 267.153C414.688 265.031 411.226 263.537 407.419 262.841Z" fill="white"/>
<g clip-path="url(#clip0)">
<path style="mix-blend-mode:multiply" opacity="0.2" d="M201.411 183.491C201.877 183.736 202.336 183.989 202.779 184.281C203.207 184.525 203.57 184.77 204.013 185.022L204.243 185.18C204.567 185.385 204.876 185.591 205.184 185.804L205.485 186.017L206.276 186.601L206.601 186.845L207.313 187.414L207.629 187.682L208.286 188.242L208.586 188.519L209.188 189.087L209.472 189.363L210.042 189.947L210.287 190.207L210.841 190.823L211.047 191.06C211.237 191.281 211.419 191.502 211.601 191.731L211.743 191.904C211.957 192.173 212.154 192.433 212.352 192.693V192.741C212.951 193.556 213.504 194.404 214.006 195.282C214.035 195.328 214.062 195.375 214.085 195.424C214.211 195.645 214.338 195.866 214.449 196.087C214.449 196.15 214.52 196.221 214.552 196.284L214.852 196.868C214.852 196.947 214.924 197.018 214.955 197.097C214.987 197.176 215.129 197.46 215.208 197.642L215.303 197.839C215.49 197.922 215.67 198.019 215.841 198.131C215.919 198.181 215.993 198.236 216.063 198.297C216.178 198.39 216.279 198.499 216.363 198.62C216.393 198.669 216.419 198.719 216.443 198.77C216.464 198.859 216.464 198.951 216.443 199.039C216.439 199.093 216.424 199.146 216.399 199.194C216.373 199.242 216.337 199.283 216.293 199.316C216.249 199.348 216.199 199.37 216.145 199.381C216.092 199.392 216.037 199.391 215.984 199.378C215.947 199.386 215.909 199.386 215.873 199.378L216.039 199.828C216.057 199.892 216.078 199.955 216.102 200.017C216.158 200.175 216.205 200.333 216.253 200.491C216.275 200.545 216.293 200.6 216.308 200.657C216.356 200.82 216.403 200.978 216.45 201.13V201.256C216.498 201.43 216.545 201.604 216.585 201.762V201.809C216.672 202.172 216.751 202.511 216.806 202.811C216.81 202.84 216.81 202.869 216.806 202.898C216.806 203.008 216.854 203.119 216.87 203.222V203.371C216.87 203.443 216.87 203.514 216.87 203.577V203.735C216.866 203.782 216.866 203.829 216.87 203.877V204.042V204.105C216.873 204.163 216.873 204.221 216.87 204.279C216.87 204.421 216.87 204.508 216.87 204.508C220.134 203.95 223.27 202.809 226.126 201.138L226.981 201.517L227.305 201.659L227.598 201.493C227.811 201.383 228.065 201.249 228.334 201.122C228.603 200.996 228.895 200.854 229.196 200.72C229.643 200.527 230.1 200.358 230.565 200.215L221.996 182.497L223.579 182.86L232.4 199.875C232.545 199.864 232.691 199.864 232.835 199.875C232.997 199.882 233.158 199.898 233.318 199.923H233.492L233.698 199.97C233.835 200.003 233.97 200.045 234.101 200.096C234.403 200.195 234.675 200.368 234.893 200.598C235.111 200.828 235.269 201.108 235.351 201.414C235.399 201.63 235.399 201.854 235.351 202.069C235.336 202.156 235.312 202.24 235.28 202.322V202.369C235.258 202.437 235.226 202.501 235.185 202.559L235.114 202.653L235.011 202.772L234.876 202.882C234.854 202.907 234.827 202.929 234.797 202.945C234.735 202.99 234.665 203.025 234.592 203.048H234.536C234.442 203.082 234.344 203.103 234.244 203.111H234.022L236.997 209.259C240.948 208.822 244.94 208.923 248.864 209.559C256.214 210.577 259.228 206.347 259.228 206.347C261.412 208.067 262.251 211.35 263.675 214.318C263.801 214.586 263.936 214.862 264.078 215.107C264.078 215.107 263.888 215.225 263.516 215.415L263.089 215.628L262.551 215.873L261.902 216.149L261.151 216.425C257.684 217.676 253.977 218.121 250.312 217.727C248.608 217.52 246.894 217.414 245.177 217.412H244.196C243.235 217.447 242.278 217.552 241.332 217.727C240.743 217.817 240.172 217.998 239.639 218.264L235.367 209.654H235.454L232.685 203.94C228.352 206.753 223.661 208.974 218.737 210.545C217.682 210.887 216.627 211.203 215.572 211.492C215.912 211.603 215.683 211.753 215.256 211.879C215.331 211.915 215.402 211.957 215.469 212.005C215.703 212.135 215.891 212.334 216.007 212.574C216.011 212.589 216.011 212.605 216.007 212.621C216.019 212.697 216.019 212.774 216.007 212.85V212.897C216.008 212.976 215.991 213.054 215.96 213.126C215.944 213.17 215.922 213.213 215.897 213.252V213.331C215.825 213.435 215.74 213.528 215.643 213.608C224.346 216.985 229.995 222.178 229.995 228.003C229.995 238.191 212.89 246.447 191.79 246.447C170.69 246.447 153.569 238.176 153.569 227.987C153.569 222.163 159.179 216.938 167.929 213.592C167.83 213.512 167.742 213.419 167.668 213.316V213.252C167.635 213.209 167.609 213.161 167.589 213.11C167.568 213.049 167.554 212.985 167.549 212.921C167.549 212.921 167.549 212.874 167.549 212.858C167.549 212.842 167.549 212.787 167.549 212.747C167.542 212.7 167.542 212.652 167.549 212.605C167.684 212.361 167.871 212.15 168.097 211.985C168.322 211.82 168.581 211.706 168.854 211.65C169.385 211.489 169.937 211.409 170.492 211.414H171.165L171.671 211.303L171.79 211.264C169.365 210.457 167.11 209.213 165.136 207.594C161.41 204.437 161.18 201.106 162.106 198.455C162.882 196.372 164.149 194.507 165.801 193.017L166.995 193.128C167.02 193.087 167.049 193.05 167.082 193.017C167.408 192.61 167.808 192.267 168.261 192.007C168.968 191.608 169.767 191.398 170.579 191.399H171.093C171.611 191.418 172.125 191.49 172.628 191.612L172.802 191.66C176.58 188.043 181.079 185.259 186.007 183.491L186.529 182.702L184.306 181.968L192.882 181.787L192.708 183.704L192.969 191.044L194.725 183.704L194.622 181.787L202.843 181.976H203.127L200.904 182.71L201.426 183.499L201.411 183.491ZM232.092 206.386L232.685 206.686L232.519 206.292L232.092 206.386Z" fill="url(#paint1_linear)"/>
<path d="M166.513 157.172C166.908 159.018 168.095 162.491 170.627 162.554C171.289 162.626 171.958 162.497 172.547 162.185C173.135 161.872 173.616 161.39 173.926 160.802L171.766 156.667L166.513 157.172Z" fill="url(#paint2_linear)"/>
<path style="mix-blend-mode:multiply" opacity="0.5" d="M172.675 162.088C173.214 161.797 173.65 161.348 173.925 160.802L171.766 156.667L169.978 156.84C170.562 158.734 171.475 160.51 172.675 162.088Z" fill="url(#paint3_linear)"/>
<path d="M167.668 157.061L166.513 157.171C166.908 159.018 168.095 162.49 170.627 162.553C170.798 162.566 170.97 162.566 171.141 162.553C168.831 160.904 168.198 158.536 167.668 157.061Z" fill="url(#paint4_linear)"/>
<path d="M239.389 109.797L221.995 184.066L223.535 184.425L240.93 110.156L239.389 109.797Z" fill="#959DBA"/>
<path d="M222.621 184.225L222.004 184.075L239.402 109.803L240.059 109.961L222.621 184.225Z" fill="white"/>
<mask id="mask1" mask-type="alpha" maskUnits="userSpaceOnUse" x="237" y="89" width="55" height="44">
<path d="M291.103 100.897C291.103 100.897 280.683 87.9063 265.306 91.5004C249.929 95.0946 245.225 89.4219 245.225 89.4219L237.537 119.108C237.537 119.108 243.488 123.299 262.493 121.972C276.322 118.118 282.351 132.729 282.351 132.729C286.816 125.598 287.933 112.791 291.103 100.897Z" fill="url(#paint5_linear)"/>
</mask>
<g mask="url(#mask1)">
<path d="M250.177 85.9933L301 93.1314C302.714 93.3828 302.42 99.4281 302.179 101.144L297.487 134.554C297.246 136.269 295.653 137.479 293.936 137.248L243.101 130.119C241.398 129.859 233.761 128.258 234 126.552L238.694 93.1317C238.935 91.4162 248.459 85.7626 250.177 85.9933Z" fill="#DE2910"/>
<path d="M253.698 95.1886L255.689 106.449L247.456 98.5061L258.784 100.097L248.682 105.465L253.698 95.1886Z" fill="#FFDE00"/>
<path d="M264.653 94.8616L263.794 98.5768L262.305 95.0693L265.57 97.0348L261.772 97.3654L264.653 94.8616Z" fill="#FFDE00"/>
<path d="M268.654 99.9236L266.418 103.013L266.404 99.2071L268.66 102.285L265.03 101.111L268.654 99.9236Z" fill="#FFDE00"/>
<path d="M268.153 106.64L264.86 108.548L266.403 105.066L267.197 108.792L264.361 106.244L268.153 106.64Z" fill="#FFDE00"/>
<path d="M262.634 108.709L261.929 112.457L260.294 109.013L263.642 110.843L259.863 111.334L262.634 108.709Z" fill="#FFDE00"/>
</g>
<path d="M227.06 140.764C227.06 140.764 230.58 145.286 232.835 145.081C236.11 144.773 235.857 138.657 234.22 138.262C232.703 137.789 231.234 137.179 229.829 136.439L227.06 140.764Z" fill="url(#paint6_linear)"/>
<g style="mix-blend-mode:multiply" opacity="0.5">
<path d="M227.685 139.777L227.06 140.764C227.06 140.764 230.58 145.286 232.835 145.081C233.301 145.038 233.743 144.853 234.101 144.552C233.341 141.664 230.311 140.811 227.685 139.777Z" fill="#767575"/>
</g>
<path d="M235.359 141.876C235.232 140.764 234.813 139.856 234.22 139.714C232.702 139.231 231.232 138.61 229.829 137.859L227.582 141.395C227.257 141.016 227.06 140.764 227.06 140.764L229.829 136.407C231.232 137.158 232.702 137.779 234.22 138.262C235.058 138.467 235.549 140.203 235.359 141.876Z" fill="url(#paint7_linear)"/>
<path d="M232.835 136.794L227.297 141.766L226.443 142.555C223.421 139.193 220.311 136.431 217.186 135.602C217.186 135.602 216.451 162.656 201.411 178.93L194.71 178.535L192.953 163.359L192.692 178.535L185.983 178.93C185.983 178.93 176.829 172.679 171.173 158.189L165.817 159.239C165.817 159.239 156.979 143.542 165.176 129.091C169.464 121.507 176.94 116.59 190.105 115.675C206.98 114.42 221.514 121.389 232.835 136.794Z" fill="#D3CDE3"/>
<path style="mix-blend-mode:multiply" opacity="0.5" d="M192.724 160.786C191.466 161.133 190.999 176.096 191.141 178.614L192.724 178.519L192.985 163.343L194.709 178.519L195.983 178.598C196.648 173.879 193.412 160.596 192.724 160.786Z" fill="url(#paint8_linear)"/>
<path d="M187.652 178.819L186.014 178.914C186.014 178.914 177.312 172.971 171.647 159.263C180.785 173.208 186.363 177.178 187.652 178.819ZM200.421 178.859L201.45 178.914C215.335 163.919 217.02 139.659 217.202 136.06C216.26 144.607 210.303 167.542 200.421 178.859ZM166.512 129.802C172.185 116.748 198.665 119.171 204.528 119.81C217.131 121.199 228.713 132.438 232.155 137.41L232.835 136.794C221.514 121.389 206.98 114.42 190.113 115.643C176.948 116.598 169.479 121.515 165.183 129.06C156.987 143.542 165.856 159.192 165.856 159.192L166.797 159.01C164.598 153.273 159.764 145.341 166.512 129.802Z" fill="#F7F7F7"/>
<path opacity="0.45" d="M191.814 60.7381C184.97 60.7381 179.788 58.2363 179.503 56.7526C179.49 56.7024 179.465 56.656 179.43 56.617C179.396 56.578 179.353 56.5474 179.305 56.5276C179.257 56.5078 179.204 56.4992 179.152 56.5027C179.101 56.5061 179.05 56.5214 179.005 56.5474C177.051 57.455 177.628 60.2014 178.641 61.5509C179.046 62.0726 179.535 62.5234 180.089 62.8847C179.298 63.1925 174.551 60.2724 175.342 55.8765C175.366 55.7896 175.357 55.6969 175.318 55.6158C175.278 55.5347 175.21 55.4708 175.127 55.436C175.043 55.4012 174.95 55.3978 174.865 55.4266C174.779 55.4554 174.707 55.5144 174.661 55.5924C173.19 57.4944 172.233 59.499 173.119 61.9061C173.633 63.179 174.539 64.2565 175.706 64.984L175.468 65.1182C174.63 64.8468 173.811 64.5199 173.016 64.1396C171.916 63.6029 169.851 62.6637 170.017 61.2116C170.017 60.9117 169.638 60.8722 169.495 61.0695C168.403 62.6006 169.59 64.2264 170.769 65.2444C171.457 65.86 171.639 67.7226 170.975 68.2829C167.692 70.9923 165.045 74.3861 163.219 78.2257C161.393 82.0652 160.432 86.2573 160.405 90.507C160.405 106.946 174.464 120.276 191.814 120.276C209.164 120.276 223.191 106.946 223.191 90.507C223.191 74.0678 209.156 60.7775 191.814 60.7381Z" fill="url(#paint9_linear)"/>
<g style="mix-blend-mode:multiply" opacity="0.15">
<path d="M223.191 90.5069C223.191 106.946 209.132 120.276 191.782 120.276C174.432 120.276 160.405 106.946 160.405 90.5069C160.405 89.3063 160.482 88.1069 160.634 86.916C164.645 98.9751 176.513 107.712 190.595 107.712C206.656 107.712 219.868 96.2918 221.767 81.5415C222.72 84.4345 223.201 87.4616 223.191 90.5069Z" fill="#231715"/>
</g>
<path d="M161.773 85.9296C166.275 68.1961 192.336 58.0074 207.795 67.9041C219.235 75.2043 224.085 89.6626 220.707 102.172C222.354 98.503 223.201 94.5269 223.191 90.507C223.191 74.0915 209.156 60.7775 191.814 60.7381C184.97 60.7381 179.788 58.2363 179.503 56.7526C179.49 56.7024 179.465 56.656 179.43 56.617C179.396 56.578 179.353 56.5474 179.305 56.5276C179.257 56.5078 179.204 56.4992 179.152 56.5027C179.101 56.5061 179.05 56.5214 179.005 56.5474C177.051 57.455 177.628 60.2014 178.641 61.5509C179.046 62.0726 179.535 62.5234 180.089 62.8847C179.298 63.1925 174.551 60.2724 175.342 55.8765C175.366 55.7896 175.357 55.6969 175.318 55.6158C175.278 55.5347 175.21 55.4708 175.127 55.436C175.043 55.4012 174.95 55.3978 174.865 55.4266C174.779 55.4554 174.707 55.5144 174.661 55.5924C173.19 57.4944 172.233 59.499 173.119 61.9061C173.633 63.179 174.539 64.2565 175.706 64.984L175.468 65.1182C174.63 64.8468 173.811 64.5199 173.016 64.1396C171.916 63.6029 169.851 62.6637 170.017 61.2116C170.017 60.9117 169.638 60.8722 169.495 61.0695C168.403 62.6006 169.59 64.2264 170.769 65.2444C171.457 65.86 171.639 67.7226 170.975 68.2829C167.692 70.9923 165.045 74.3861 163.219 78.2257C161.393 82.0653 160.432 86.2573 160.405 90.507C160.405 92.319 160.58 94.1266 160.927 95.9052C160.667 92.5562 160.953 89.1874 161.773 85.9296Z" fill="url(#paint10_linear)"/>
<g opacity="0.54">
<path opacity="0.54" d="M191.814 51.2041C198.899 51.2119 205.823 53.3148 211.71 57.2471C217.597 61.1793 222.184 66.7644 224.89 73.2963C227.596 79.8282 228.299 87.0138 226.912 93.9447C225.525 100.876 222.11 107.241 217.097 112.236C212.084 117.23 205.7 120.631 198.75 122.007C191.801 123.383 184.598 122.673 178.053 119.966C171.508 117.26 165.914 112.678 161.979 106.801C158.043 100.924 155.943 94.015 155.943 86.9473C155.955 77.4646 159.74 68.3745 166.465 61.6729C173.191 54.9713 182.308 51.2061 191.814 51.2041ZM191.814 48.8364C184.258 48.8364 176.871 51.0716 170.588 55.2593C164.306 59.447 159.409 65.3991 156.517 72.3629C153.625 79.3268 152.869 86.9896 154.343 94.3824C155.817 101.775 159.456 108.566 164.799 113.896C170.142 119.226 176.949 122.855 184.36 124.326C191.771 125.796 199.453 125.042 206.434 122.157C213.415 119.273 219.382 114.388 223.58 108.121C227.778 101.853 230.019 94.485 230.019 86.9473C230.019 76.8397 225.994 67.146 218.829 59.9989C211.664 52.8517 201.946 48.8364 191.814 48.8364V48.8364Z" fill="white"/>
</g>
<g opacity="0.19">
<path opacity="0.5" d="M229.313 92.441C232.483 71.6318 218.142 52.1993 197.281 49.0373C176.421 45.8754 156.94 60.1813 153.771 80.9905C150.601 101.8 164.942 121.232 185.803 124.394C206.663 127.556 226.144 113.25 229.313 92.441Z" fill="#0E7BAB"/>
</g>
<path d="M213.088 121.199H170.532C170.139 121.199 169.75 121.122 169.387 120.972C169.024 120.822 168.695 120.603 168.417 120.326C168.139 120.049 167.919 119.72 167.769 119.358C167.618 118.996 167.541 118.608 167.541 118.216C167.541 117.824 167.618 117.436 167.769 117.074C167.919 116.713 168.139 116.384 168.417 116.107C168.695 115.83 169.024 115.61 169.387 115.46C169.75 115.31 170.139 115.233 170.532 115.233H213.088C213.88 115.235 214.638 115.55 215.197 116.109C215.757 116.669 216.071 117.426 216.071 118.216C216.071 119.006 215.757 119.764 215.197 120.323C214.638 120.882 213.88 121.197 213.088 121.199Z" fill="url(#paint11_linear)"/>
<path style="mix-blend-mode:screen" d="M216.071 118.216C216.071 118.388 216.055 118.56 216.023 118.729C215.907 118.035 215.547 117.405 215.008 116.951C214.469 116.497 213.785 116.249 213.08 116.251H170.532C170.139 116.249 169.749 116.325 169.387 116.476C169.024 116.626 168.695 116.848 168.419 117.127C167.982 117.552 167.692 118.105 167.589 118.705C167.557 118.536 167.541 118.364 167.541 118.192C167.54 117.799 167.617 117.41 167.767 117.047C167.918 116.684 168.14 116.354 168.419 116.077C168.695 115.798 169.024 115.577 169.387 115.426C169.749 115.276 170.139 115.199 170.532 115.201H213.088C213.482 115.203 213.873 115.283 214.236 115.436C214.6 115.588 214.929 115.811 215.206 116.091C215.483 116.371 215.702 116.703 215.851 117.068C215.999 117.432 216.074 117.823 216.071 118.216Z" fill="url(#paint12_linear)"/>
<path style="mix-blend-mode:multiply" opacity="0.5" d="M216.071 118.216C216.072 118.608 215.995 118.996 215.844 119.358C215.693 119.72 215.472 120.048 215.192 120.323C214.632 120.883 213.873 121.198 213.08 121.199H170.532C170.139 121.199 169.75 121.122 169.387 120.972C169.024 120.822 168.695 120.603 168.417 120.326C168.139 120.049 167.919 119.72 167.769 119.358C167.618 118.996 167.541 118.608 167.541 118.216C167.541 117.894 167.594 117.574 167.699 117.269C167.896 117.863 168.276 118.38 168.784 118.745C169.293 119.111 169.905 119.307 170.532 119.305H213.088C213.481 119.306 213.87 119.229 214.232 119.079C214.595 118.929 214.924 118.708 215.2 118.429C215.529 118.105 215.776 117.707 215.92 117.269C216.023 117.574 216.073 117.894 216.071 118.216Z" fill="url(#paint13_linear)"/>
<path d="M186.022 178.914L186.545 180.587L184.313 182.103L192.858 181.818L192.723 178.52L186.022 178.914Z" fill="url(#paint14_linear)"/>
<path style="mix-blend-mode:screen" opacity="0.79" d="M193.855 56.3972C195.77 52.3801 209.837 53.8875 218.381 65.5047C225.739 75.4645 227.084 90.5069 223.183 90.5069C222.131 90.5069 219.283 76.088 209.433 69.5928C198.927 62.6478 190.754 63.0424 193.855 56.3972Z" fill="url(#paint15_linear)"/>
<path style="mix-blend-mode:screen" opacity="0.79" d="M192.336 113.267C190.604 117.371 176.513 116.424 167.407 105.225C159.606 95.5971 157.628 80.6258 161.481 80.4601C162.525 80.4127 166.006 94.6658 176.125 100.759C186.972 107.238 195.161 106.528 192.336 113.267Z" fill="url(#paint16_linear)"/>
<path d="M209.947 140.132C210.303 146.257 213.562 148.538 215.991 146.186C216.601 145.602 217.281 147.993 214.876 149.721C212.471 151.45 207.51 150.96 207.858 140.251C207.858 140.243 209.939 139.967 209.947 140.132Z" fill="url(#paint17_linear)"/>
<g style="mix-blend-mode:multiply" opacity="0.5">
<path d="M211.743 150.329C212.028 150.147 212.293 149.935 212.534 149.698C213.183 148.956 213.513 147.989 213.452 147.007C211.743 146.565 210.224 144.205 209.987 140.133C209.987 139.967 207.898 140.243 207.898 140.243C207.629 147.149 209.662 149.777 211.743 150.329Z" fill="#2D2244"/>
</g>
<path d="M213.405 119.597C211.173 119.81 207.621 125.224 208.824 130.488C208.998 131.277 210.192 130.828 210.232 130.109C210.469 126.013 213.064 121.91 215.272 121.199C216.862 120.655 214.014 119.542 213.405 119.597Z" fill="url(#paint18_linear)"/>
<g style="mix-blend-mode:multiply" opacity="0.5">
<path d="M210.232 122.399C208.767 124.826 208.265 127.711 208.824 130.488C208.998 131.278 210.192 130.828 210.232 130.11C210.374 128.167 210.947 126.28 211.909 124.585C211.455 123.782 210.891 123.046 210.232 122.399Z" fill="#2D2244"/>
</g>
<path style="mix-blend-mode:screen" d="M212.993 120.489C213.618 120.735 214.21 121.056 214.757 121.444C214.922 121.353 215.094 121.276 215.272 121.215C216.854 120.694 214.014 119.558 213.405 119.637C212.936 119.712 212.496 119.911 212.131 120.213C212.424 120.268 212.708 120.379 212.993 120.489Z" fill="url(#paint19_linear)"/>
<path style="mix-blend-mode:screen" d="M215.991 146.185C215.702 146.474 215.361 146.707 214.987 146.872C215.059 148.02 214.765 149.161 214.148 150.132C214.405 150.022 214.649 149.884 214.876 149.721C217.281 147.993 216.601 145.601 215.991 146.185Z" fill="url(#paint20_linear)"/>
<path d="M178.609 140.243C178.965 150.96 173.862 151.379 171.6 149.713C171.164 149.441 170.758 149.123 170.389 148.766C170.278 147.851 170.286 147.069 170.231 146.043C172.66 148.411 176.173 146.249 176.56 140.124C176.513 139.967 178.609 140.243 178.609 140.243Z" fill="#555050"/>
<g style="mix-blend-mode:multiply" opacity="0.5">
<g style="mix-blend-mode:multiply" opacity="0.5">
<path d="M178.609 140.243C178.965 150.96 173.862 151.379 171.6 149.713C171.164 149.441 170.758 149.123 170.389 148.766C170.278 147.851 170.286 147.069 170.231 146.043C172.66 148.411 176.173 146.249 176.56 140.124C176.513 139.967 178.609 140.243 178.609 140.243Z" fill="#2D2244"/>
</g>
</g>
<path d="M171.204 121.199C173.404 121.91 176.007 126.013 176.244 130.109C176.284 130.828 177.478 131.254 177.652 130.488C178.847 125.224 175.279 119.81 173.072 119.597C172.454 119.542 169.598 120.655 171.204 121.199Z" fill="url(#paint21_linear)"/>
<g style="mix-blend-mode:multiply" opacity="0.5">
<path d="M176.236 122.399C177.704 124.825 178.209 127.71 177.652 130.488C177.478 131.278 176.284 130.828 176.244 130.11C176.102 128.167 175.53 126.28 174.567 124.585C175.021 123.784 175.582 123.048 176.236 122.399Z" fill="#2D2244"/>
</g>
<path style="mix-blend-mode:screen" d="M173.483 120.489C172.858 120.734 172.265 121.055 171.719 121.444C171.554 121.353 171.382 121.276 171.204 121.215C169.622 120.694 172.454 119.558 173.071 119.637C173.538 119.711 173.975 119.91 174.337 120.213C174.052 120.268 173.768 120.379 173.483 120.489Z" fill="url(#paint22_linear)"/>
<path style="mix-blend-mode:multiply" opacity="0.5" d="M189.567 181.929L192.858 181.818L192.724 178.52L190.864 178.63C190.843 179.849 190.382 181.02 189.567 181.929Z" fill="url(#paint23_linear)"/>
<path d="M185.785 182.055C186.22 181.763 186.647 181.455 187.074 181.155C187.502 180.855 188.024 180.619 187.66 179.971C187.438 179.585 187.09 179.261 186.869 178.89L186.077 178.937L186.608 180.611L184.376 182.126L185.785 182.055Z" fill="url(#paint24_linear)"/>
<path d="M201.45 178.914L200.92 180.587L203.151 182.103L194.606 181.818L194.741 178.52L201.45 178.914Z" fill="url(#paint25_linear)"/>
<path style="mix-blend-mode:multiply" opacity="0.5" d="M196.545 178.63L194.71 178.52L194.575 181.818L197.321 181.905C196.822 180.884 196.557 179.766 196.545 178.63Z" fill="url(#paint26_linear)"/>
<path d="M200.596 178.867C200.263 179.419 199.915 179.948 199.543 180.445C200.229 180.921 200.877 181.449 201.482 182.024L203.151 182.079L200.92 180.564L201.45 178.89L200.596 178.867Z" fill="url(#paint27_linear)"/>
<path d="M175.935 114.072C177.984 111.129 204.987 111.421 207.906 114.072C210.825 116.724 211.07 154.117 208.752 156.619C206.434 159.12 177.035 158.386 175.571 156.374C172.85 152.625 173.886 117.024 175.935 114.072Z" fill="url(#paint28_linear)"/>
<g style="mix-blend-mode:multiply" opacity="0.2">
<path d="M208.752 156.619C206.458 159.113 177.027 158.379 175.571 156.374C174.305 154.63 173.854 145.988 173.934 136.96C173.989 144.552 174.479 151.165 175.571 152.673C177.027 154.677 206.426 155.419 208.752 152.917C209.718 151.868 210.24 144.631 210.335 136.407C210.382 146.051 209.86 155.38 208.752 156.619Z" fill="#767575"/>
</g>
<g style="mix-blend-mode:multiply" opacity="0.4">
<path d="M208.753 129.944C206.458 130.962 177.027 130.662 175.572 129.849C174.116 129.036 173.768 124.877 173.989 120.813C174.14 123.385 174.63 125.548 175.572 126.037C177.027 126.826 206.427 127.15 208.753 126.132C209.599 125.753 210.106 123.433 210.256 120.607C210.47 124.893 209.963 129.407 208.753 129.944Z" fill="#767575"/>
</g>
<path d="M175.935 111.823C177.984 110.616 204.987 110.734 207.906 111.823C210.825 112.912 211.07 128.136 208.752 129.186C206.434 130.235 177.035 129.912 175.571 129.091C172.85 127.528 173.886 113.023 175.935 111.823Z" fill="url(#paint29_linear)"/>
<g style="mix-blend-mode:screen" opacity="0.3">
<path d="M210.288 122.738C210.177 118.595 209.386 114.38 207.914 113.836C204.995 112.762 177.985 112.636 175.936 113.836C174.86 114.467 174.06 118.768 173.942 122.935C173.807 118.263 174.686 112.557 175.936 111.815C177.985 110.616 204.987 110.734 207.906 111.815C209.631 112.455 210.414 118.058 210.288 122.738Z" fill="#636262"/>
</g>
<g style="mix-blend-mode:multiply" opacity="0.1">
<path d="M208.753 129.154C206.458 130.172 177.027 129.872 175.572 129.06C174.116 128.247 173.768 124.087 173.989 120.023C174.14 122.596 174.63 124.758 175.572 125.248C177.027 126.037 206.427 126.36 208.753 125.342C209.599 124.964 210.106 122.643 210.256 119.818C210.47 124.103 209.963 128.618 208.753 129.154Z" fill="#767575"/>
</g>
<path style="mix-blend-mode:multiply" opacity="0.25" d="M179.828 132.935C177.945 135.089 177.565 147.93 179.828 149.121C182.091 150.313 203.135 150.479 203.903 149.121C204.67 147.764 205.643 134.742 203.903 132.935C202.162 131.128 181.719 130.78 179.828 132.935Z" fill="url(#paint30_linear)"/>
<path style="mix-blend-mode:multiply" opacity="0.5" d="M169.923 136.084C169.923 136.029 169.772 135.121 169.4 136.786C167.628 144.607 169.076 155.088 170.192 158.371C170.517 158.285 170.847 158.219 171.181 158.174C170.5 153.541 169.851 139.785 169.923 136.084Z" fill="url(#paint31_linear)"/>
<path style="mix-blend-mode:multiply" opacity="0.5" d="M227.329 141.766L226.474 142.555C223.452 139.193 220.343 136.431 217.218 135.602C217.218 135.602 218.998 134.497 223.634 137.725C225.1 138.839 226.352 140.208 227.329 141.766Z" fill="url(#paint32_linear)"/>
</g>
<defs>
<linearGradient id="paint0_linear" x1="349.669" y1="360.682" x2="-87.4391" y2="360.682" gradientUnits="userSpaceOnUse">
<stop stop-color="#00FFDF"/>
<stop offset="1" stop-color="#379FCD"/>
</linearGradient>
<linearGradient id="paint1_linear" x1="214.702" y1="153.154" x2="206.089" y2="253.143" gradientUnits="userSpaceOnUse">
<stop offset="0.19" stop-color="#772A1A"/>
<stop offset="0.9" stop-color="#22002B" stop-opacity="0"/>
</linearGradient>
<linearGradient id="paint2_linear" x1="166.513" y1="159.61" x2="173.926" y2="159.61" gradientUnits="userSpaceOnUse">
<stop stop-color="#34254C"/>
<stop offset="1" stop-color="#51397F"/>
</linearGradient>
<linearGradient id="paint3_linear" x1="251.975" y1="916.052" x2="271.556" y2="916.052" gradientUnits="userSpaceOnUse">
<stop stop-color="#34254C"/>
<stop offset="1" stop-color="#51397F"/>
</linearGradient>
<linearGradient id="paint4_linear" x1="242.231" y1="930.732" x2="269.306" y2="930.732" gradientUnits="userSpaceOnUse">
<stop stop-color="#34254C"/>
<stop offset="1" stop-color="#51397F"/>
</linearGradient>
<linearGradient id="paint5_linear" x1="237.187" y1="111.767" x2="291.103" y2="111.767" gradientUnits="userSpaceOnUse">
<stop stop-color="#95D3DA"/>
<stop offset="1" stop-color="#F7F4F9"/>
</linearGradient>
<linearGradient id="paint6_linear" x1="1001.29" y1="1143.66" x2="1089.14" y2="1143.66" gradientUnits="userSpaceOnUse">
<stop stop-color="#34254C"/>
<stop offset="1" stop-color="#51397F"/>
</linearGradient>
<linearGradient id="paint7_linear" x1="1001.75" y1="762.25" x2="1089.66" y2="762.25" gradientUnits="userSpaceOnUse">
<stop stop-color="#34254C"/>
<stop offset="1" stop-color="#51397F"/>
</linearGradient>
<linearGradient id="paint8_linear" x1="191.126" y1="169.704" x2="196.094" y2="169.704" gradientUnits="userSpaceOnUse">
<stop stop-color="#C8B8D3" stop-opacity="0.9"/>
<stop offset="1" stop-color="#C8B8D3" stop-opacity="0.3"/>
</linearGradient>
<linearGradient id="paint9_linear" x1="160.405" y1="87.8474" x2="223.215" y2="87.8474" gradientUnits="userSpaceOnUse">
<stop stop-color="#2A246D"/>
<stop offset="1" stop-color="#04074A"/>
</linearGradient>
<linearGradient id="paint10_linear" x1="702.878" y1="1831.05" x2="5687.48" y2="1831.05" gradientUnits="userSpaceOnUse">
<stop stop-color="#34254C"/>
<stop offset="1" stop-color="#F7F4F9"/>
</linearGradient>
<linearGradient id="paint11_linear" x1="1024.57" y1="639.742" x2="4001.86" y2="639.742" gradientUnits="userSpaceOnUse">
<stop stop-color="#34254C"/>
<stop offset="1" stop-color="#51397F"/>
</linearGradient>
<linearGradient id="paint12_linear" x1="1024.57" y1="419.792" x2="4001.87" y2="419.792" gradientUnits="userSpaceOnUse">
<stop stop-color="#34254C"/>
<stop offset="1" stop-color="#51397F"/>
</linearGradient>
<linearGradient id="paint13_linear" x1="1024.57" y1="467.849" x2="4001.87" y2="467.849" gradientUnits="userSpaceOnUse">
<stop stop-color="#34254C"/>
<stop offset="1" stop-color="#51397F"/>
</linearGradient>
<linearGradient id="paint14_linear" x1="516.352" y1="775.415" x2="608.633" y2="775.415" gradientUnits="userSpaceOnUse">
<stop stop-color="#34254C"/>
<stop offset="1" stop-color="#51397F"/>
</linearGradient>
<linearGradient id="paint15_linear" x1="197.202" y1="54.0612" x2="229.906" y2="87.1149" gradientUnits="userSpaceOnUse">
<stop stop-color="white"/>
<stop offset="1" stop-color="white" stop-opacity="0"/>
</linearGradient>
<linearGradient id="paint16_linear" x1="462.515" y1="1314.15" x2="1476.85" y2="2872.01" gradientUnits="userSpaceOnUse">
<stop stop-color="white"/>
<stop offset="1" stop-color="white" stop-opacity="0"/>
</linearGradient>
<linearGradient id="paint17_linear" x1="806.659" y1="1410.71" x2="902.942" y2="1410.71" gradientUnits="userSpaceOnUse">
<stop stop-color="#34254C"/>
<stop offset="1" stop-color="#51397F"/>
</linearGradient>
<linearGradient id="paint18_linear" x1="706.882" y1="1214.57" x2="771.884" y2="1214.57" gradientUnits="userSpaceOnUse">
<stop stop-color="#34254C"/>
<stop offset="1" stop-color="#51397F"/>
</linearGradient>
<linearGradient id="paint19_linear" x1="479.664" y1="284.126" x2="496.218" y2="284.126" gradientUnits="userSpaceOnUse">
<stop stop-color="#34254C"/>
<stop offset="1" stop-color="#51397F"/>
</linearGradient>
<linearGradient id="paint20_linear" x1="399.604" y1="653.801" x2="407.015" y2="653.801" gradientUnits="userSpaceOnUse">
<stop stop-color="#34254C"/>
<stop offset="1" stop-color="#51397F"/>
</linearGradient>
<linearGradient id="paint21_linear" x1="326.171" y1="1213.56" x2="391.133" y2="1213.56" gradientUnits="userSpaceOnUse">
<stop stop-color="#34254C"/>
<stop offset="1" stop-color="#51397F"/>
</linearGradient>
<linearGradient id="paint22_linear" x1="248.936" y1="284.126" x2="265.421" y2="284.126" gradientUnits="userSpaceOnUse">
<stop stop-color="#34254C"/>
<stop offset="1" stop-color="#51397F"/>
</linearGradient>
<linearGradient id="paint23_linear" x1="339.317" y1="746.115" x2="353.008" y2="746.115" gradientUnits="userSpaceOnUse">
<stop stop-color="#34254C"/>
<stop offset="1" stop-color="#51397F"/>
</linearGradient>
<linearGradient id="paint24_linear" x1="316.726" y1="718.648" x2="331.712" y2="718.648" gradientUnits="userSpaceOnUse">
<stop stop-color="#34254C"/>
<stop offset="1" stop-color="#51397F"/>
</linearGradient>
<linearGradient id="paint25_linear" x1="637.809" y1="775.415" x2="730.089" y2="775.415" gradientUnits="userSpaceOnUse">
<stop stop-color="#34254C"/>
<stop offset="1" stop-color="#51397F"/>
</linearGradient>
<linearGradient id="paint26_linear" x1="336.975" y1="742.139" x2="346.501" y2="742.139" gradientUnits="userSpaceOnUse">
<stop stop-color="#34254C"/>
<stop offset="1" stop-color="#51397F"/>
</linearGradient>
<linearGradient id="paint27_linear" x1="409.186" y1="714.677" x2="425.637" y2="714.677" gradientUnits="userSpaceOnUse">
<stop stop-color="#34254C"/>
<stop offset="1" stop-color="#51397F"/>
</linearGradient>
<linearGradient id="paint28_linear" x1="1110.18" y1="5165.12" x2="2783.29" y2="5165.12" gradientUnits="userSpaceOnUse">
<stop stop-color="#D3CDE3"/>
<stop offset="0.3125" stop-color="#F7F4F9"/>
</linearGradient>
<linearGradient id="paint29_linear" x1="1110.18" y1="1823.26" x2="2783.29" y2="1823.26" gradientUnits="userSpaceOnUse">
<stop stop-color="#D3CDE3"/>
<stop offset="0.385417" stop-color="#F7F4F9"/>
</linearGradient>
<linearGradient id="paint30_linear" x1="1008.92" y1="2301.72" x2="1903.69" y2="2301.72" gradientUnits="userSpaceOnUse">
<stop stop-color="#C8B8D3" stop-opacity="0.9"/>
<stop offset="1" stop-color="#C8B8D3" stop-opacity="0.3"/>
</linearGradient>
<linearGradient id="paint31_linear" x1="218.068" y1="2946.98" x2="226.788" y2="2946.98" gradientUnits="userSpaceOnUse">
<stop stop-color="#C8B8D3" stop-opacity="0.9"/>
<stop offset="1" stop-color="#C8B8D3" stop-opacity="0.3"/>
</linearGradient>
<linearGradient id="paint32_linear" x1="1030.65" y1="950.356" x2="1159.87" y2="950.356" gradientUnits="userSpaceOnUse">
<stop stop-color="#C8B8D3" stop-opacity="0.9"/>
<stop offset="1" stop-color="#C8B8D3" stop-opacity="0.3"/>
</linearGradient>
<clipPath id="clip0">
<rect width="147.746" height="197.674" fill="white" transform="translate(153.86 48.9092)"/>
</clipPath>
</defs>
</svg>
