<svg width="600" height="110" viewBox="0 0 600 110" fill="none" xmlns="http://www.w3.org/2000/svg">
<path d="M107.955 69.9456C106.787 72.7248 107.7 75.608 110.519 78.0475C113.338 80.487 117.867 82.313 123.246 83.1786C128.626 84.0441 134.48 83.889 139.698 82.7427C144.916 81.5964 149.134 79.5386 151.55 76.9604C153.039 78.8802 155.667 80.5212 159.087 81.6658C162.507 82.8103 166.556 83.4042 170.698 83.3689C171.145 83.3651 171.591 83.3612 172.03 83.3343C173.771 86.1202 177.088 88.5864 181.586 90.4381C186.084 92.2899 191.572 93.4488 197.394 93.7764C203.217 94.104 209.126 93.5864 214.417 92.2855C219.708 90.9845 224.157 88.9553 227.231 86.4404C230.081 87.1415 233.228 87.4969 236.422 87.478C239.615 87.4591 242.764 87.0664 245.617 86.3315C248.469 85.5966 250.945 84.54 252.846 83.2467C254.746 81.9533 256.018 80.4593 256.558 78.8849C260.027 80.3787 264.423 81.2352 269.029 81.3145C273.635 81.3939 278.179 80.6915 281.921 79.3218C284.278 80.723 287.36 81.7743 290.839 82.3639C294.319 82.9536 298.065 83.0597 301.681 82.6708C305.297 82.282 308.647 81.4128 311.376 80.1556C314.104 78.8984 316.109 77.3001 317.178 75.5306C320.132 77.0976 323.899 78.2258 328.071 78.7931C332.243 79.3603 336.661 79.3451 340.847 78.7489C343.13 80.9459 346.746 82.7209 351.184 83.824C355.623 84.9271 360.661 85.3025 365.59 84.8975C369.94 86.9616 375.723 88.1115 381.763 88.1141C387.804 88.1166 393.65 86.9715 398.116 84.9111C402.33 85.4911 406.799 85.4761 411.028 84.8677C415.257 84.2594 419.083 83.0813 422.082 81.4638C424.124 83.3519 427.167 84.9194 430.882 85.9976C434.598 87.0758 438.845 87.6238 443.167 87.5827L443.329 87.5813C445.596 90.8754 450.084 93.6626 456.032 95.4713C461.981 97.2801 469.025 97.9993 475.974 97.5074C482.922 97.0155 489.349 95.3426 494.166 92.7718C498.983 90.2009 501.894 86.8899 502.409 83.3988C502.817 83.3953 503.232 83.3917 503.648 83.3881C507.735 83.3556 511.76 82.834 515.384 81.8671C519.008 80.9003 522.125 79.5164 524.475 77.8317C526.824 76.147 528.336 74.2107 528.885 72.1854C529.434 70.1602 529.002 68.1051 527.627 66.1928C526.252 64.2806 523.974 62.567 520.983 61.1959C517.993 59.8249 514.377 58.8365 510.44 58.3137C506.504 57.791 502.361 57.7492 498.36 58.1918C494.359 58.6343 490.617 59.5484 487.447 60.8572L369.655 61.8796C365.167 61.1464 360.325 61.1028 355.75 61.7543C353.723 59.7971 350.631 58.1692 346.825 57.0547C343.02 55.9402 338.651 55.3835 334.214 55.4476C329.777 55.5117 325.448 56.194 321.716 57.4174C317.985 58.6408 315 60.3564 313.099 62.3704L281.537 62.6444C278.109 61.4882 274.041 60.8879 269.879 60.924C265.716 60.9602 261.659 61.631 258.251 62.8465L177.701 63.5456C173.068 62.7198 167.97 62.764 163.352 63.6701L146.887 63.813C143.286 62.057 138.613 60.9485 133.587 60.6584C133.623 60.3929 133.652 60.1275 133.649 59.8586C133.623 57.9588 132.533 56.1074 130.504 54.5133C128.474 52.9192 125.584 51.6459 122.161 50.837C118.739 50.0282 114.919 49.7159 111.132 49.9355C107.346 50.1551 103.744 50.8978 100.733 52.0798C97.7223 53.2618 95.4221 54.8361 94.0921 56.6251C92.7621 58.414 92.4552 60.3464 93.2062 62.2041C93.9571 64.0619 95.736 65.7712 98.3421 67.1391C100.948 68.507 104.278 69.479 107.955 69.9456Z" fill="#D9D9D9"/>
<path d="M-103.791 52.6777C-104.183 56.7706 -103.508 60.9867 -101.895 64.5252C-100.282 68.0637 -97.8432 70.6781 -95.0419 71.8718C-92.2405 73.0656 -89.2717 72.7555 -86.6994 71.0005C-84.127 69.2455 -82.1303 66.1678 -81.0884 62.352C-80.1906 65.147 -78.7329 67.5169 -76.9087 69.1474C-75.0845 70.7779 -72.9799 71.592 -70.8741 71.4818C-70.6471 71.4698 -70.4201 71.4579 -70.1988 71.4123C-69.1093 75.474 -67.2405 79.0445 -64.8158 81.6972C-62.391 84.3498 -59.5129 85.9723 -56.5255 86.3707C-53.538 86.7691 -50.5676 85.9266 -47.9693 83.9438C-45.371 81.961 -43.2547 78.9219 -41.8734 75.1897C-40.3719 76.1779 -38.7437 76.6548 -37.1197 76.582C-35.4957 76.5093 -33.9212 75.8889 -32.5228 74.7707C-31.1244 73.6525 -29.9412 72.0678 -29.0683 70.1439C-28.1954 68.2201 -27.6571 66.0108 -27.4969 63.6938C-25.6221 65.8361 -23.322 67.0303 -20.9717 67.0817C-18.6214 67.1332 -16.3596 66.0388 -14.555 63.9771C-13.2528 65.999 -11.6073 67.4975 -9.79324 68.3134C-7.97919 69.1292 -6.06439 69.2319 -4.25223 68.6106C-2.44006 67.9893 -0.798216 66.6671 0.498883 64.7846C1.79598 62.9021 2.6999 60.5295 3.11461 57.9189C4.73264 60.1757 6.73242 61.7774 8.89751 62.5506C11.0626 63.3238 13.3105 63.2391 15.3979 62.3057C16.7203 65.4959 18.6901 68.0486 21.0301 69.6039C23.37 71.1592 25.962 71.6389 28.441 70.9754C30.8062 73.9415 33.8335 75.5467 36.9085 75.4652C39.9836 75.3837 42.8759 73.6216 44.9984 70.5366C47.1859 71.3278 49.4595 71.2428 51.5679 70.2908C53.6763 69.3388 55.5375 67.557 56.9459 65.1421C58.1234 67.8827 59.7866 70.139 61.7565 71.6681C63.7264 73.1971 65.9284 73.941 68.1254 73.8198L68.2076 73.8154C69.6022 78.6153 72.09 82.6401 75.2499 85.2092C78.4099 87.7783 82.0481 88.7339 85.5492 87.9144C89.0502 87.0948 92.1992 84.5505 94.4635 80.7117C96.7277 76.873 97.9682 71.9754 97.9751 66.8475C98.1825 66.8366 98.3939 66.8254 98.6052 66.8143C100.683 66.7089 102.694 65.8872 104.468 64.4179C106.242 62.9486 107.728 60.8748 108.801 58.3706C109.874 55.8664 110.502 53.0049 110.634 50.0266C110.765 47.0483 110.396 44.04 109.556 41.2546C108.717 38.4691 107.432 35.9877 105.809 34.0189C104.187 32.0501 102.274 30.6513 100.232 29.9401C98.1904 29.2289 96.0786 29.2259 94.0743 29.9315C92.0701 30.6371 90.2319 32.0306 88.7142 33.9951L28.8301 37.1559C26.4921 36.1437 24.0241 36.1481 21.7433 37.1683C20.5683 34.326 18.8759 31.9819 16.8573 30.4008C14.8387 28.8198 12.5744 28.0649 10.3205 28.2215C8.06657 28.3781 5.91283 29.4399 4.10276 31.287C2.29269 33.134 0.898476 35.6926 0.077728 38.6735L-15.9675 39.5204C-17.7969 37.8729 -19.9116 37.0498 -22.0277 37.1615C-24.1438 37.2732 -26.16 38.3143 -27.8058 40.1452L-68.7565 42.3067C-71.1751 41.1607 -73.7666 41.2975 -76.0512 42.6917L-84.4221 43.1335C-86.3832 40.6086 -88.8429 39.0486 -91.4221 38.6939C-91.4231 38.3041 -91.4279 37.9144 -91.4487 37.5199C-91.6009 34.7337 -92.2907 32.0335 -93.4403 29.724C-94.5899 27.4145 -96.1536 25.5876 -97.9549 24.4494C-99.7562 23.3112 -101.723 22.9071 -103.635 23.2826C-105.546 23.6581 -107.325 24.7983 -108.772 26.5745C-110.218 28.3507 -111.274 30.6923 -111.82 33.335C-112.367 35.9777 -112.382 38.8164 -111.864 41.5307C-111.346 44.2451 -110.316 46.7271 -108.889 48.6967C-107.463 50.6664 -105.697 52.0452 -103.791 52.6777Z" fill="white"/>
<path d="M-103.791 52.6777C-104.183 56.7706 -103.508 60.9867 -101.895 64.5252C-100.282 68.0637 -97.8432 70.6781 -95.0419 71.8718C-92.2405 73.0656 -89.2717 72.7555 -86.6994 71.0005C-84.127 69.2455 -82.1303 66.1678 -81.0884 62.352C-80.1906 65.147 -78.7329 67.5169 -76.9087 69.1474C-75.0845 70.7779 -72.9799 71.592 -70.8741 71.4818C-70.6471 71.4698 -70.4201 71.4579 -70.1988 71.4123C-69.1093 75.474 -67.2405 79.0445 -64.8158 81.6972C-62.391 84.3498 -59.5129 85.9723 -56.5255 86.3707C-53.538 86.7691 -50.5676 85.9266 -47.9693 83.9438C-45.371 81.961 -43.2547 78.9219 -41.8734 75.1897C-40.3719 76.1779 -38.7437 76.6548 -37.1197 76.582C-35.4957 76.5093 -33.9212 75.8889 -32.5228 74.7707C-31.1244 73.6525 -29.9412 72.0678 -29.0683 70.1439C-28.1954 68.2201 -27.6571 66.0108 -27.4969 63.6938C-25.6221 65.8361 -23.322 67.0303 -20.9717 67.0817C-18.6214 67.1332 -16.3596 66.0388 -14.555 63.9771C-13.2528 65.999 -11.6073 67.4975 -9.79324 68.3134C-7.97919 69.1292 -6.06439 69.2319 -4.25223 68.6106C-2.44006 67.9893 -0.798216 66.6671 0.498883 64.7846C1.79598 62.9021 2.6999 60.5295 3.11461 57.9189C4.73264 60.1757 6.73242 61.7774 8.89751 62.5506C11.0626 63.3238 13.3105 63.2391 15.3979 62.3057C16.7203 65.4959 18.6901 68.0486 21.0301 69.6039C23.37 71.1592 25.962 71.6389 28.441 70.9754C30.8062 73.9415 33.8335 75.5467 36.9085 75.4652C39.9836 75.3837 42.8759 73.6216 44.9984 70.5366C47.1859 71.3278 49.4595 71.2428 51.5679 70.2908C53.6763 69.3388 55.5375 67.557 56.9459 65.1421C58.1234 67.8827 59.7866 70.139 61.7565 71.6681C63.7264 73.1971 65.9284 73.941 68.1254 73.8198L68.2076 73.8154C69.6022 78.6153 72.09 82.6401 75.2499 85.2092C78.4099 87.7783 82.0481 88.7339 85.5492 87.9144C89.0502 87.0948 92.1992 84.5505 94.4635 80.7117C96.7277 76.873 97.9682 71.9754 97.9751 66.8475C98.1825 66.8366 98.3939 66.8254 98.6052 66.8143C100.683 66.7089 102.694 65.8872 104.468 64.4179C106.242 62.9486 107.728 60.8748 108.801 58.3706C109.874 55.8664 110.502 53.0049 110.634 50.0266C110.765 47.0483 110.396 44.04 109.556 41.2546C108.717 38.4691 107.432 35.9877 105.809 34.0189C104.187 32.0501 102.274 30.6513 100.232 29.9401C98.1904 29.2289 96.0786 29.2259 94.0743 29.9315C92.0701 30.6371 90.2319 32.0306 88.7142 33.9951L28.8301 37.1559C26.4921 36.1437 24.0241 36.1481 21.7433 37.1683C20.5683 34.326 18.8759 31.9819 16.8573 30.4008C14.8387 28.8198 12.5744 28.0649 10.3205 28.2215C8.06657 28.3781 5.91283 29.4399 4.10276 31.287C2.29269 33.134 0.898476 35.6926 0.077728 38.6735L-15.9675 39.5204C-17.7969 37.8729 -19.9116 37.0498 -22.0277 37.1615C-24.1438 37.2732 -26.16 38.3143 -27.8058 40.1452L-68.7565 42.3067C-71.1751 41.1607 -73.7666 41.2975 -76.0512 42.6917L-84.4221 43.1335C-86.3832 40.6086 -88.8429 39.0486 -91.4221 38.6939C-91.4231 38.3041 -91.4279 37.9144 -91.4487 37.5199C-91.6009 34.7337 -92.2907 32.0335 -93.4403 29.724C-94.5899 27.4145 -96.1536 25.5876 -97.9549 24.4494C-99.7562 23.3112 -101.723 22.9071 -103.635 23.2826C-105.546 23.6581 -107.325 24.7983 -108.772 26.5745C-110.218 28.3507 -111.274 30.6923 -111.82 33.335C-112.367 35.9777 -112.382 38.8164 -111.864 41.5307C-111.346 44.2451 -110.316 46.7271 -108.889 48.6967C-107.463 50.6664 -105.697 52.0452 -103.791 52.6777Z" fill="white"/>
<path d="M110.52 62.9892C109.629 67.1085 110.676 71.305 113.461 74.7816C116.246 78.2582 120.575 80.7728 125.627 81.8478C130.678 82.9228 136.1 82.4832 140.862 80.6126C145.624 78.742 149.395 75.5707 151.459 71.701C152.973 74.4634 155.526 76.7755 158.778 78.3307C162.031 79.8858 165.829 80.6105 169.67 80.4087C170.084 80.3868 170.498 80.365 170.904 80.3097C172.712 84.3335 175.962 87.8311 180.264 90.3847C184.566 92.9382 189.739 94.4396 195.164 94.7093C200.589 94.9791 206.037 94.0058 210.856 91.9058C215.675 89.8057 219.662 86.6679 222.341 82.8672C225.033 83.7926 227.979 84.2 230.94 84.0566C233.902 83.9132 236.797 83.2231 239.393 82.0417C241.989 80.8603 244.213 79.2207 245.887 77.2546C247.56 75.2884 248.637 73.0508 249.029 70.7215C252.352 72.7874 256.49 73.8846 260.769 73.8342C265.049 73.7838 269.217 72.5888 272.593 70.4441C274.878 72.4142 277.811 73.8448 281.08 74.5838C284.349 75.3228 287.833 75.3427 291.161 74.6414C294.489 73.9401 297.538 72.5437 299.982 70.6006C302.427 68.6575 304.177 66.2403 305.045 63.6057C307.895 65.7975 311.469 67.3161 315.379 67.9972C319.29 68.6783 323.389 68.4959 327.232 67.4698C329.502 70.61 332.98 73.083 337.175 74.5404C341.371 75.9978 346.072 76.3662 350.617 75.5936C354.797 78.4639 360.242 79.9415 365.847 79.7265C371.453 79.5114 376.798 77.6199 380.798 74.4357C384.749 75.1339 388.895 74.95 392.777 73.9044C396.659 72.8588 400.127 70.9922 402.798 68.5107C404.824 71.2065 407.756 73.3958 411.278 74.8429C414.8 76.29 418.779 76.9402 422.787 76.7234L422.937 76.7154C425.269 81.4658 429.627 85.3919 435.272 87.8299C440.917 90.2678 447.503 91.0678 453.917 90.0945C460.33 89.1213 466.177 86.4345 470.469 82.4888C474.76 78.543 477.232 73.5804 477.467 68.4405C477.846 68.4205 478.231 68.4002 478.616 68.3798C482.407 68.1842 486.105 67.2733 489.4 65.7237C492.696 64.1741 495.493 62.0311 497.556 59.4746C499.619 56.9181 500.888 54.0229 501.257 51.032C501.626 48.0412 501.083 45.0421 499.674 42.2867C498.266 39.5312 496.033 37.0999 493.163 35.197C490.293 33.294 486.869 31.975 483.18 31.3507C479.491 30.7264 475.644 30.815 471.962 31.6092C468.28 32.4033 464.871 33.8798 462.021 35.9145L352.792 41.6798C348.577 40.7668 344.081 40.8781 339.881 41.9996C337.864 39.2018 334.883 36.9257 331.274 35.4286C327.665 33.9315 323.573 33.2731 319.46 33.5278C315.348 33.7825 311.378 34.9402 308 36.8699C304.623 38.7997 301.972 41.4246 300.348 44.4479L271.081 45.9927C267.82 44.4208 264.003 43.6875 260.143 43.8912C256.284 44.0949 252.565 45.2259 249.488 47.1324L174.794 51.0749C170.437 50.0313 165.71 50.2808 161.488 51.7772L146.219 52.5831C142.756 50.1375 138.343 48.6806 133.66 48.437C133.675 48.0462 133.683 47.6559 133.662 47.2614C133.506 44.4754 132.366 41.799 130.372 39.534C128.378 37.2691 125.609 35.5058 122.377 34.4432C119.145 33.3805 115.578 33.0608 112.08 33.52C108.582 33.9793 105.291 35.1992 102.58 37.0422C99.8677 38.8852 97.8425 41.278 96.7325 43.9505C95.6225 46.6229 95.4718 49.4687 96.2974 52.1669C97.1231 54.865 98.8923 57.308 101.405 59.2203C103.918 61.1325 107.075 62.4379 110.52 62.9892Z" fill="white"/>
<path d="M110.52 62.9892C109.629 67.1085 110.676 71.305 113.461 74.7816C116.246 78.2582 120.575 80.7728 125.627 81.8478C130.678 82.9228 136.1 82.4832 140.862 80.6126C145.624 78.742 149.395 75.5707 151.459 71.701C152.973 74.4634 155.526 76.7755 158.778 78.3307C162.031 79.8858 165.829 80.6105 169.67 80.4087C170.084 80.3868 170.498 80.365 170.904 80.3097C172.712 84.3335 175.962 87.8311 180.264 90.3847C184.566 92.9382 189.739 94.4396 195.164 94.7093C200.589 94.9791 206.037 94.0058 210.856 91.9058C215.675 89.8057 219.662 86.6679 222.341 82.8672C225.033 83.7926 227.979 84.2 230.94 84.0566C233.902 83.9132 236.797 83.2231 239.393 82.0417C241.989 80.8603 244.213 79.2207 245.887 77.2546C247.56 75.2884 248.637 73.0508 249.029 70.7215C252.352 72.7874 256.49 73.8846 260.769 73.8342C265.049 73.7838 269.217 72.5888 272.593 70.4441C274.878 72.4142 277.811 73.8448 281.08 74.5838C284.349 75.3228 287.833 75.3427 291.161 74.6414C294.489 73.9401 297.538 72.5437 299.982 70.6006C302.427 68.6575 304.177 66.2403 305.045 63.6057C307.895 65.7975 311.469 67.3161 315.379 67.9972C319.29 68.6783 323.389 68.4959 327.232 67.4698C329.502 70.61 332.98 73.083 337.175 74.5404C341.371 75.9978 346.072 76.3662 350.617 75.5936C354.797 78.4639 360.242 79.9415 365.847 79.7265C371.453 79.5114 376.798 77.6199 380.798 74.4357C384.749 75.1339 388.895 74.95 392.777 73.9044C396.659 72.8588 400.127 70.9922 402.798 68.5107C404.824 71.2065 407.756 73.3958 411.278 74.8429C414.8 76.29 418.779 76.9402 422.787 76.7234L422.937 76.7154C425.269 81.4658 429.627 85.3919 435.272 87.8299C440.917 90.2678 447.503 91.0678 453.917 90.0945C460.33 89.1213 466.177 86.4345 470.469 82.4888C474.76 78.543 477.232 73.5804 477.467 68.4405C477.846 68.4205 478.231 68.4002 478.616 68.3798C482.407 68.1842 486.105 67.2733 489.4 65.7237C492.696 64.1741 495.493 62.0311 497.556 59.4746C499.619 56.9181 500.888 54.0229 501.257 51.032C501.626 48.0412 501.083 45.0421 499.674 42.2867C498.266 39.5312 496.033 37.0999 493.163 35.197C490.293 33.294 486.869 31.975 483.18 31.3507C479.491 30.7264 475.644 30.815 471.962 31.6092C468.28 32.4033 464.871 33.8798 462.021 35.9145L352.792 41.6798C348.577 40.7668 344.081 40.8781 339.881 41.9996C337.864 39.2018 334.883 36.9257 331.274 35.4286C327.665 33.9315 323.573 33.2731 319.46 33.5278C315.348 33.7825 311.378 34.9402 308 36.8699C304.623 38.7997 301.972 41.4246 300.348 44.4479L271.081 45.9927C267.82 44.4208 264.003 43.6875 260.143 43.8912C256.284 44.0949 252.565 45.2259 249.488 47.1324L174.794 51.0749C170.437 50.0313 165.71 50.2808 161.488 51.7772L146.219 52.5831C142.756 50.1375 138.343 48.6806 133.66 48.437C133.675 48.0462 133.683 47.6559 133.662 47.2614C133.506 44.4754 132.366 41.799 130.372 39.534C128.378 37.2691 125.609 35.5058 122.377 34.4432C119.145 33.3805 115.578 33.0608 112.08 33.52C108.582 33.9793 105.291 35.1992 102.58 37.0422C99.8677 38.8852 97.8425 41.278 96.7325 43.9505C95.6225 46.6229 95.4718 49.4687 96.2974 52.1669C97.1231 54.865 98.8923 57.308 101.405 59.2203C103.918 61.1325 107.075 62.4379 110.52 62.9892Z" fill="white"/>
<path d="M462.555 47.2339C462.212 52.2331 462.936 57.3954 464.592 61.7404C466.247 66.0853 468.718 69.3102 471.536 70.8025C474.353 72.2948 477.32 71.9505 479.873 69.8352C482.426 67.7198 484.388 63.9807 485.386 59.3279C486.317 62.7555 487.803 65.6699 489.648 67.6847C491.492 69.6995 493.608 70.7196 495.714 70.6095C495.941 70.5976 496.168 70.5856 496.389 70.5325C497.527 75.5109 499.438 79.898 501.896 83.1695C504.353 86.4409 507.252 88.4583 510.246 88.9805C513.24 89.5026 516.203 88.5075 518.779 86.1139C521.356 83.7204 523.438 80.0298 524.776 75.4832C526.29 76.709 527.925 77.3112 529.549 77.2413C531.173 77.1714 532.741 76.4314 534.127 75.0808C535.514 73.7302 536.679 71.8067 537.53 69.465C538.381 67.1233 538.893 64.4287 539.026 61.5979C540.928 64.2389 543.243 65.7259 545.595 65.8164C547.948 65.9069 550.198 64.5955 551.98 62.0962C553.306 64.5834 554.971 66.4347 556.795 67.4534C558.62 68.4722 560.537 68.6202 562.343 67.8819C564.149 67.1436 565.777 65.5465 567.052 63.2603C568.328 60.9741 569.205 58.0841 569.589 54.8974C571.235 57.6754 573.254 59.657 575.43 60.6278C577.605 61.5985 579.854 61.5213 581.931 60.4047C583.292 64.3204 585.293 67.4643 587.653 69.3932C590.013 71.3222 592.612 71.9391 595.085 71.157C597.486 74.811 600.534 76.809 603.61 76.7455C606.686 76.682 609.559 74.5617 611.647 70.8151C613.845 71.8081 616.119 71.7308 618.218 70.5917C620.316 69.4527 622.158 67.2962 623.539 64.3604C624.749 67.7248 626.44 70.5027 628.429 72.3952C630.418 74.2877 632.63 75.223 634.827 75.1006L634.909 75.0962C636.361 80.9806 638.898 85.9304 642.09 89.1084C645.282 92.2863 648.933 93.4973 652.427 92.5366C655.921 91.5758 659.042 88.5022 661.262 83.8357C663.483 79.1692 664.667 73.1963 664.613 66.9273C664.821 66.9163 665.032 66.9052 665.243 66.894C667.321 66.7897 669.323 65.8086 671.081 64.0332C672.839 62.2578 674.302 59.7399 675.346 56.691C676.39 53.6421 676.986 50.1512 677.082 46.5116C677.179 42.872 676.773 39.1899 675.901 35.7747C675.028 32.3595 673.713 29.3108 672.067 26.8848C670.42 24.4588 668.49 22.7262 666.438 21.8327C664.387 20.9392 662.274 20.9108 660.276 21.7499C658.279 22.589 656.456 24.271 654.961 26.6548L595.077 29.8156C592.725 28.5507 590.256 28.5271 587.986 29.7475C586.776 26.259 585.055 23.3732 583.017 21.4166C580.979 19.46 578.704 18.5105 576.451 18.6755C574.197 18.8405 572.054 20.1133 570.265 22.3501C568.475 24.587 567.11 27.6986 566.324 31.3332L550.279 32.1801C548.429 30.1445 546.303 29.1134 544.187 29.225C542.071 29.3367 540.066 30.5859 538.441 32.8049L497.49 34.9664C495.056 33.5371 492.465 33.6738 490.195 35.3514L481.824 35.7933C479.832 32.6834 477.353 30.7474 474.768 30.2834C474.762 29.8068 474.753 29.3304 474.727 28.8479C474.542 25.4398 473.821 22.1305 472.643 19.2936C471.466 16.4566 469.88 14.2047 468.064 12.7921C466.248 11.3794 464.275 10.8623 462.367 11.2989C460.459 11.7355 458.692 13.1085 457.265 15.263C455.839 17.4175 454.81 20.2678 454.294 23.4923C453.778 26.7167 453.797 30.1869 454.347 33.5114C454.897 36.836 455.957 39.8824 457.407 42.3072C458.858 44.7319 460.641 46.4383 462.555 47.2339Z" fill="white"/>
<path d="M462.555 47.2339C462.212 52.2331 462.936 57.3954 464.592 61.7404C466.247 66.0853 468.718 69.3102 471.536 70.8025C474.353 72.2948 477.32 71.9505 479.873 69.8352C482.426 67.7198 484.388 63.9807 485.386 59.3279C486.317 62.7555 487.803 65.6699 489.648 67.6847C491.492 69.6995 493.608 70.7196 495.714 70.6095C495.941 70.5976 496.168 70.5856 496.389 70.5325C497.527 75.5109 499.438 79.898 501.896 83.1695C504.353 86.4409 507.252 88.4583 510.246 88.9805C513.24 89.5026 516.203 88.5075 518.779 86.1139C521.356 83.7204 523.438 80.0298 524.776 75.4832C526.29 76.709 527.925 77.3112 529.549 77.2413C531.173 77.1714 532.741 76.4314 534.127 75.0808C535.514 73.7302 536.679 71.8067 537.53 69.465C538.381 67.1233 538.893 64.4287 539.026 61.5979C540.928 64.2389 543.243 65.7259 545.595 65.8164C547.948 65.9069 550.198 64.5955 551.98 62.0962C553.306 64.5834 554.971 66.4347 556.795 67.4534C558.62 68.4722 560.537 68.6202 562.343 67.8819C564.149 67.1436 565.777 65.5465 567.052 63.2603C568.328 60.9741 569.205 58.0841 569.589 54.8974C571.235 57.6754 573.254 59.657 575.43 60.6278C577.605 61.5985 579.854 61.5213 581.931 60.4047C583.292 64.3204 585.293 67.4643 587.653 69.3932C590.013 71.3222 592.612 71.9391 595.085 71.157C597.486 74.811 600.534 76.809 603.61 76.7455C606.686 76.682 609.559 74.5617 611.647 70.8151C613.845 71.8081 616.119 71.7308 618.218 70.5917C620.316 69.4527 622.158 67.2962 623.539 64.3604C624.749 67.7248 626.44 70.5027 628.429 72.3952C630.418 74.2877 632.63 75.223 634.827 75.1006L634.909 75.0962C636.361 80.9806 638.898 85.9304 642.09 89.1084C645.282 92.2863 648.933 93.4973 652.427 92.5366C655.921 91.5758 659.042 88.5022 661.262 83.8357C663.483 79.1692 664.667 73.1963 664.613 66.9273C664.821 66.9163 665.032 66.9052 665.243 66.894C667.321 66.7897 669.323 65.8086 671.081 64.0332C672.839 62.2578 674.302 59.7399 675.346 56.691C676.39 53.6421 676.986 50.1512 677.082 46.5116C677.179 42.872 676.773 39.1899 675.901 35.7747C675.028 32.3595 673.713 29.3108 672.067 26.8848C670.42 24.4588 668.49 22.7262 666.438 21.8327C664.387 20.9392 662.274 20.9108 660.276 21.7499C658.279 22.589 656.456 24.271 654.961 26.6548L595.077 29.8156C592.725 28.5507 590.256 28.5271 587.986 29.7475C586.776 26.259 585.055 23.3732 583.017 21.4166C580.979 19.46 578.704 18.5105 576.451 18.6755C574.197 18.8405 572.054 20.1133 570.265 22.3501C568.475 24.587 567.11 27.6986 566.324 31.3332L550.279 32.1801C548.429 30.1445 546.303 29.1134 544.187 29.225C542.071 29.3367 540.066 30.5859 538.441 32.8049L497.49 34.9664C495.056 33.5371 492.465 33.6738 490.195 35.3514L481.824 35.7933C479.832 32.6834 477.353 30.7474 474.768 30.2834C474.762 29.8068 474.753 29.3304 474.727 28.8479C474.542 25.4398 473.821 22.1305 472.643 19.2936C471.466 16.4566 469.88 14.2047 468.064 12.7921C466.248 11.3794 464.275 10.8623 462.367 11.2989C460.459 11.7355 458.692 13.1085 457.265 15.263C455.839 17.4175 454.81 20.2678 454.294 23.4923C453.778 26.7167 453.797 30.1869 454.347 33.5114C454.897 36.836 455.957 39.8824 457.407 42.3072C458.858 44.7319 460.641 46.4383 462.555 47.2339Z" fill="white"/>
<path d="M-18 10H648V48H315L145.5 58L-18 48V10Z" fill="white"/>
</svg>
