<svg width="2158" height="969" viewBox="0 0 2158 969" fill="none" xmlns="http://www.w3.org/2000/svg">
<g clip-path="url(#clip0)">
<g style="mix-blend-mode:screen" opacity="0.03">
<path d="M643.742 925.77L662.059 940.38L643.742 925.77ZM643.742 925.77L625.46 911.15L643.742 925.77ZM643.742 925.77L594.277 931.17L643.742 925.77ZM643.742 925.77L693.241 920.36" stroke="white" stroke-width="2" stroke-miterlimit="10"/>
</g>
<path d="M1746.23 935.295C1750.4 924.416 1747.29 913.057 1737.49 903.375C1727.69 893.694 1711.88 886.366 1693.07 882.782C1674.25 879.197 1653.74 879.607 1635.43 883.933C1617.11 888.259 1602.28 896.2 1593.73 906.247C1588.58 898.654 1579.42 892.117 1567.48 887.503C1555.54 882.89 1541.37 880.418 1526.86 880.416C1525.29 880.416 1523.73 880.416 1522.19 880.506C1516.18 869.501 1504.63 859.698 1488.93 852.269C1473.24 844.841 1454.05 840.1 1433.66 838.615C1413.28 837.129 1392.56 838.961 1373.99 843.892C1355.42 848.823 1339.77 856.644 1328.93 866.42C1318.97 863.568 1307.95 862.064 1296.77 862.03C1285.58 861.995 1274.54 863.431 1264.52 866.221C1254.51 869.011 1245.8 873.078 1239.11 878.095C1232.41 883.111 1227.91 888.938 1225.97 895.105C1213.87 889.118 1198.49 885.603 1182.36 885.134C1166.23 884.665 1150.29 887.27 1137.15 892.524C1128.93 886.938 1118.17 882.703 1106 880.267C1093.83 877.832 1080.71 877.287 1068.03 878.692C1055.35 880.096 1043.59 883.397 1034 888.243C1024.4 893.09 1017.33 899.301 1013.53 906.217C1003.23 899.96 990.073 895.399 975.476 893.028C960.879 890.657 945.402 890.566 930.72 892.765C922.791 884.056 910.181 876.958 894.666 872.473C879.152 867.988 861.515 866.341 844.24 867.764C829.064 859.506 808.844 854.79 787.685 854.575C766.525 854.359 746.012 858.658 730.309 866.601C715.564 864.179 699.911 864.085 685.078 866.332C670.244 868.578 656.809 873.075 646.255 879.328C639.158 871.841 628.548 865.578 615.567 861.215C602.585 856.852 587.725 854.554 572.584 854.569H572.018C564.175 841.548 548.541 830.445 527.759 823.135C506.978 815.826 482.324 812.76 457.97 814.456C433.615 816.152 411.055 822.505 394.104 832.442C377.153 842.378 366.853 855.288 364.945 868.987C363.516 868.987 362.06 868.987 360.604 868.987C346.287 868.975 332.174 870.887 319.45 874.562C306.727 878.237 295.764 883.568 287.484 890.107C279.203 896.646 273.846 904.203 271.863 912.141C269.879 920.079 271.328 928.169 276.086 935.729C280.844 943.289 288.773 950.099 299.207 955.588C309.641 961.077 322.276 965.083 336.049 967.272C349.822 969.46 364.332 969.765 378.361 968.163C392.389 966.56 405.525 963.097 416.666 958.062H829.301C844.999 961.096 861.959 961.433 878.002 959.029C885.044 966.788 895.824 973.289 909.121 977.798C922.418 982.306 937.703 984.642 953.247 984.542C968.792 984.441 983.976 981.908 997.084 977.229C1010.19 972.549 1020.7 965.91 1027.42 958.062H1137.98C1149.95 962.722 1164.19 965.219 1178.77 965.219C1193.35 965.219 1207.58 962.722 1219.55 958.062H1501.73C1517.93 961.465 1535.79 961.465 1551.99 958.062H1609.67C1622.23 965.084 1638.57 969.599 1656.16 970.91C1656.03 971.952 1655.92 972.994 1655.92 974.051C1655.95 981.516 1659.71 988.827 1666.78 995.159C1673.84 1001.49 1683.92 1006.59 1695.88 1009.89C1707.85 1013.18 1721.22 1014.54 1734.49 1013.81C1747.76 1013.07 1760.4 1010.28 1770.98 1005.74C1781.56 1001.19 1789.67 995.087 1794.38 988.104C1799.09 981.121 1800.23 973.539 1797.65 966.214C1795.08 958.889 1788.9 952.113 1779.81 946.65C1770.73 941.186 1759.09 937.254 1746.23 935.295Z" fill="white"/>
<path d="M2886.23 1043.63C2890.4 1056.85 2887.29 1070.65 2877.49 1082.41C2867.69 1094.17 2851.88 1103.08 2833.07 1107.43C2814.25 1111.79 2793.74 1111.29 2775.43 1106.03C2757.11 1100.78 2742.28 1091.13 2733.73 1078.92C2728.58 1088.15 2719.42 1096.09 2707.48 1101.69C2695.54 1107.3 2681.37 1110.3 2666.86 1110.31C2665.29 1110.31 2663.73 1110.31 2662.19 1110.2C2656.18 1123.57 2644.63 1135.48 2628.93 1144.5C2613.24 1153.53 2594.05 1159.29 2573.66 1161.09C2553.28 1162.9 2532.56 1160.67 2513.99 1154.68C2495.42 1148.69 2479.77 1139.19 2468.93 1127.31C2458.97 1130.77 2447.95 1132.6 2436.77 1132.64C2425.58 1132.69 2414.54 1130.94 2404.52 1127.55C2394.51 1124.16 2385.8 1119.22 2379.11 1113.12C2372.41 1107.03 2367.91 1099.95 2365.97 1092.46C2353.87 1099.73 2338.49 1104 2322.36 1104.57C2306.23 1105.14 2290.29 1101.98 2277.15 1095.59C2268.93 1102.38 2258.17 1107.53 2246 1110.49C2233.83 1113.44 2220.71 1114.11 2208.03 1112.4C2195.35 1110.69 2183.59 1106.68 2174 1100.79C2164.4 1094.91 2157.33 1087.36 2153.53 1078.96C2143.23 1086.56 2130.07 1092.1 2115.48 1094.98C2100.88 1097.86 2085.4 1097.97 2070.72 1095.3C2062.79 1105.88 2050.18 1114.51 2034.67 1119.96C2019.15 1125.41 2001.51 1127.41 1984.24 1125.68C1969.06 1135.71 1948.84 1141.44 1927.68 1141.7C1906.53 1141.96 1886.01 1136.74 1870.31 1127.09C1855.56 1130.03 1839.91 1130.15 1825.08 1127.42C1810.24 1124.69 1796.81 1119.22 1786.26 1111.63C1779.16 1120.72 1768.55 1128.33 1755.57 1133.63C1742.59 1138.93 1727.72 1141.73 1712.58 1141.71H1712.02C1704.18 1157.53 1688.54 1171.02 1667.76 1179.9C1646.98 1188.78 1622.32 1192.51 1597.97 1190.45C1573.62 1188.39 1551.05 1180.67 1534.1 1168.59C1517.15 1156.52 1506.85 1140.84 1504.95 1124.19C1503.52 1124.19 1502.06 1124.19 1500.6 1124.19C1486.29 1124.21 1472.17 1121.88 1459.45 1117.42C1446.73 1112.95 1435.76 1106.47 1427.48 1098.53C1419.2 1090.58 1413.85 1081.4 1411.86 1071.76C1409.88 1062.11 1411.33 1052.29 1416.09 1043.1C1420.84 1033.91 1428.77 1025.64 1439.21 1018.97C1449.64 1012.3 1462.28 1007.43 1476.05 1004.78C1489.82 1002.12 1504.33 1001.75 1518.36 1003.69C1532.39 1005.64 1545.53 1009.85 1556.67 1015.96H1969.3C1985 1012.28 2001.96 1011.87 2018 1014.79C2025.04 1005.36 2035.82 997.464 2049.12 991.986C2062.42 986.508 2077.7 983.67 2093.25 983.792C2108.79 983.914 2123.98 986.992 2137.08 992.677C2150.19 998.362 2160.7 1006.43 2167.42 1015.96H2277.98C2289.95 1010.3 2304.19 1007.27 2318.77 1007.27C2333.35 1007.27 2347.58 1010.3 2359.55 1015.96H2641.73C2657.93 1011.83 2675.79 1011.83 2691.99 1015.96H2749.67C2762.23 1007.43 2778.57 1001.95 2796.16 1000.35C2796.03 999.088 2795.92 997.823 2795.92 996.538C2795.95 987.468 2799.71 978.585 2806.78 970.891C2813.84 963.198 2823.92 956.999 2835.88 952.996C2847.85 948.993 2861.22 947.344 2874.49 948.236C2887.76 949.127 2900.4 952.523 2910.98 958.041C2921.56 963.559 2929.67 970.979 2934.38 979.464C2939.09 987.948 2940.23 997.16 2937.65 1006.06C2935.08 1014.96 2928.9 1023.19 2919.81 1029.83C2910.73 1036.47 2899.09 1041.25 2886.23 1043.63Z" fill="white"/>
<rect x="292" y="915" width="1442" height="214" fill="white"/>
<g style="mix-blend-mode:overlay" opacity="0.6">
<path d="M1320.22 712.148C1321.28 711.113 1322.62 710.412 1324.07 710.134C1325.52 709.856 1327.03 710.013 1328.39 710.584C1329.76 711.156 1330.92 712.117 1331.74 713.348C1332.56 714.578 1333 716.022 1333 717.5C1333 718.977 1332.56 720.422 1331.74 721.652C1330.92 722.883 1329.76 723.844 1328.39 724.416C1327.03 724.987 1325.52 725.144 1324.07 724.866C1322.62 724.588 1321.28 723.887 1320.22 722.852C1319.52 722.149 1318.96 721.315 1318.58 720.397C1318.2 719.478 1318 718.494 1318 717.5C1318 716.506 1318.2 715.522 1318.58 714.603C1318.96 713.685 1319.52 712.85 1320.22 712.148Z" fill="#CCCFD0"/>
</g>
<g style="mix-blend-mode:overlay" opacity="0.6">
<path d="M1610.66 173.042C1610.99 172.715 1611.37 172.455 1611.79 172.276C1612.22 172.097 1612.67 172.003 1613.13 172C1613.59 171.997 1614.05 172.084 1614.47 172.257C1614.9 172.43 1615.29 172.685 1615.61 173.008C1615.94 173.331 1616.2 173.715 1616.38 174.138C1616.56 174.562 1616.65 175.016 1616.66 175.476C1616.66 175.936 1616.57 176.391 1616.4 176.817C1616.23 177.243 1615.97 177.631 1615.65 177.958C1615.33 178.285 1614.94 178.545 1614.52 178.724C1614.09 178.903 1613.64 178.997 1613.18 179C1612.72 179.003 1612.27 178.916 1611.84 178.743C1611.41 178.57 1611.03 178.315 1610.7 177.992C1610.37 177.669 1610.11 177.285 1609.93 176.862C1609.75 176.438 1609.66 175.984 1609.66 175.524C1609.65 175.064 1609.74 174.609 1609.91 174.183C1610.09 173.757 1610.34 173.369 1610.66 173.042Z" fill="#CCCFD0"/>
</g>
<g style="mix-blend-mode:overlay" opacity="0.6">
<path d="M1315.77 376.228C1316.14 375.85 1316.57 375.546 1317.05 375.336C1317.53 375.125 1318.05 375.011 1318.58 375.001C1319.1 374.99 1319.62 375.084 1320.11 375.275C1320.6 375.466 1321.05 375.752 1321.43 376.116C1321.81 376.48 1322.11 376.915 1322.32 377.396C1322.53 377.877 1322.65 378.395 1322.66 378.921C1322.67 379.446 1322.57 379.968 1322.38 380.457C1322.19 380.946 1321.9 381.393 1321.54 381.772C1320.81 382.537 1319.8 382.978 1318.74 382.999C1317.67 383.02 1316.65 382.619 1315.88 381.884C1315.12 381.149 1314.68 380.14 1314.66 379.079C1314.64 378.019 1315.04 376.993 1315.77 376.228Z" fill="#CCCFD0"/>
</g>
<g style="mix-blend-mode:overlay" opacity="0.6">
<path d="M1278.23 345.603C1279.27 344.576 1280.67 344 1282.14 344C1283.6 344 1285.01 344.576 1286.04 345.603C1287.08 346.635 1287.66 348.032 1287.66 349.488C1287.66 350.944 1287.08 352.341 1286.04 353.373C1285.54 353.888 1284.94 354.297 1284.28 354.577C1283.61 354.856 1282.9 355 1282.17 355C1281.45 355 1280.74 354.856 1280.07 354.577C1279.41 354.297 1278.81 353.888 1278.3 353.373C1277.26 352.35 1276.67 350.958 1276.66 349.502C1276.64 348.047 1277.21 346.644 1278.23 345.603Z" fill="#CCCFD0"/>
</g>
<g style="mix-blend-mode:overlay" opacity="0.6">
<path d="M1142.65 146.986C1143.13 146.403 1143.73 145.927 1144.41 145.586C1145.08 145.246 1145.82 145.049 1146.58 145.008C1147.34 144.967 1148.09 145.083 1148.8 145.348C1149.51 145.613 1150.16 146.022 1150.7 146.549C1151.25 147.076 1151.68 147.71 1151.96 148.411C1152.25 149.112 1152.39 149.865 1152.38 150.622C1152.36 151.38 1152.19 152.125 1151.87 152.813C1151.55 153.5 1151.09 154.114 1150.52 154.617C1149.49 155.536 1148.14 156.029 1146.75 155.999C1145.37 155.968 1144.05 155.415 1143.05 154.451C1142.05 153.486 1141.46 152.182 1141.39 150.798C1141.31 149.414 1141.76 148.053 1142.65 146.986Z" fill="#CCCFD0"/>
</g>
<g style="mix-blend-mode:overlay" opacity="0.6">
<path d="M867.269 317.986C867.753 317.403 868.352 316.927 869.029 316.586C869.706 316.246 870.446 316.049 871.202 316.008C871.959 315.967 872.716 316.083 873.425 316.348C874.135 316.613 874.782 317.022 875.327 317.549C875.871 318.076 876.3 318.71 876.588 319.411C876.876 320.112 877.015 320.865 876.999 321.622C876.982 322.38 876.809 323.125 876.49 323.813C876.172 324.5 875.714 325.114 875.147 325.617C874.11 326.536 872.764 327.029 871.378 326.999C869.992 326.968 868.669 326.415 867.674 325.451C866.678 324.486 866.083 323.182 866.008 321.798C865.933 320.414 866.383 319.053 867.269 317.986Z" fill="#CCCFD0"/>
</g>
<g style="mix-blend-mode:overlay" opacity="0.6">
<path d="M951.402 630.374C952.104 629.625 952.951 629.028 953.893 628.619C954.835 628.211 955.85 628 956.877 628C957.903 628 958.919 628.211 959.861 628.619C960.803 629.028 961.65 629.625 962.352 630.374C963.351 631.442 964.017 632.778 964.267 634.219C964.517 635.66 964.34 637.142 963.758 638.484C963.176 639.826 962.215 640.968 960.992 641.77C959.77 642.573 958.339 643 956.877 643C955.415 643 953.984 642.573 952.762 641.77C951.539 640.968 950.578 639.826 949.996 638.484C949.414 637.142 949.237 635.66 949.487 634.219C949.737 632.778 950.403 631.442 951.402 630.374Z" fill="#CCCFD0"/>
</g>
<g style="mix-blend-mode:overlay" opacity="0.6">
<path d="M1037.66 401.042C1038.32 400.381 1039.2 400.006 1040.13 400C1041.06 399.994 1041.95 400.356 1042.61 401.008C1043.27 401.66 1043.65 402.548 1043.66 403.476C1043.66 404.404 1043.3 405.297 1042.65 405.958C1042 406.619 1041.11 406.994 1040.18 407C1039.25 407.006 1038.36 406.644 1037.7 405.992C1037.04 405.34 1036.66 404.453 1036.66 403.524C1036.65 402.596 1037.01 401.703 1037.66 401.042Z" fill="#CCCFD0"/>
</g>
<path opacity="0.6" d="M1320.22 712.148C1321.28 711.113 1322.62 710.412 1324.07 710.134C1325.52 709.856 1327.03 710.013 1328.39 710.584C1329.76 711.156 1330.92 712.117 1331.74 713.348C1332.56 714.578 1333 716.022 1333 717.5C1333 718.977 1332.56 720.422 1331.74 721.652C1330.92 722.883 1329.76 723.844 1328.39 724.416C1327.03 724.987 1325.52 725.144 1324.07 724.866C1322.62 724.588 1321.28 723.887 1320.22 722.852C1319.52 722.149 1318.96 721.315 1318.58 720.397C1318.2 719.478 1318 718.494 1318 717.5C1318 716.506 1318.2 715.522 1318.58 714.603C1318.96 713.685 1319.52 712.85 1320.22 712.148Z" fill="#CCCFD0"/>
<path opacity="0.6" d="M1051.52 510.159C1052.28 509.416 1053.3 509 1054.36 509C1055.43 509 1056.45 509.416 1057.21 510.159C1057.96 510.913 1058.38 511.928 1058.38 512.987C1058.38 514.045 1057.96 515.06 1057.21 515.814C1056.84 516.19 1056.4 516.488 1055.91 516.692C1055.42 516.895 1054.89 517 1054.36 517C1053.83 517 1053.31 516.895 1052.82 516.692C1052.33 516.488 1051.89 516.19 1051.52 515.814C1050.79 515.053 1050.38 514.04 1050.38 512.987C1050.38 511.933 1050.79 510.92 1051.52 510.159Z" fill="white"/>
<path opacity="0.6" d="M585.141 540.159C585.9 539.416 586.922 539 587.987 539C589.052 539 590.075 539.416 590.834 540.159C591.581 540.913 592 541.928 592 542.987C592 544.045 591.581 545.06 590.834 545.814C590.462 546.19 590.019 546.488 589.53 546.692C589.042 546.895 588.517 547 587.987 547C587.457 547 586.933 546.895 586.444 546.692C585.955 546.488 585.512 546.19 585.141 545.814C584.408 545.053 584 544.04 584 542.987C584 541.933 584.408 540.92 585.141 540.159Z" fill="white"/>
<path opacity="0.6" d="M1610.66 173.042C1610.99 172.715 1611.37 172.455 1611.79 172.276C1612.22 172.097 1612.67 172.003 1613.13 172C1613.59 171.997 1614.05 172.084 1614.47 172.257C1614.9 172.43 1615.29 172.685 1615.61 173.008C1615.94 173.331 1616.2 173.715 1616.38 174.138C1616.56 174.562 1616.65 175.016 1616.66 175.476C1616.66 175.936 1616.57 176.391 1616.4 176.817C1616.23 177.243 1615.97 177.631 1615.65 177.958C1615.33 178.285 1614.94 178.545 1614.52 178.724C1614.09 178.903 1613.64 178.997 1613.18 179C1612.72 179.003 1612.27 178.916 1611.84 178.743C1611.41 178.57 1611.03 178.315 1610.7 177.992C1610.37 177.669 1610.11 177.285 1609.93 176.862C1609.75 176.438 1609.66 175.984 1609.66 175.524C1609.65 175.064 1609.74 174.609 1609.91 174.183C1610.09 173.757 1610.34 173.369 1610.66 173.042Z" fill="#CCCFD0"/>
<path opacity="0.6" d="M1615.03 304.606C1615.53 304.097 1616.13 303.693 1616.8 303.418C1617.46 303.142 1618.17 303 1618.89 303C1619.61 303 1620.32 303.142 1620.98 303.418C1621.65 303.693 1622.25 304.097 1622.75 304.606C1623.27 305.114 1623.68 305.719 1623.95 306.385C1624.23 307.052 1624.38 307.766 1624.38 308.487C1624.38 309.209 1624.23 309.923 1623.95 310.589C1623.68 311.255 1623.27 311.86 1622.75 312.369C1622.25 312.885 1621.64 313.295 1620.97 313.575C1620.31 313.856 1619.59 314 1618.86 314C1618.14 314 1617.42 313.856 1616.75 313.575C1616.09 313.295 1615.48 312.885 1614.98 312.369C1614.47 311.857 1614.06 311.249 1613.79 310.581C1613.51 309.914 1613.37 309.198 1613.38 308.477C1613.38 307.755 1613.53 307.042 1613.81 306.378C1614.1 305.713 1614.51 305.111 1615.03 304.606Z" fill="white"/>
<path opacity="0.6" d="M769.652 189.606C770.156 189.097 770.757 188.693 771.42 188.418C772.082 188.142 772.794 188 773.513 188C774.231 188 774.943 188.142 775.606 188.418C776.269 188.693 776.87 189.097 777.374 189.606C777.889 190.114 778.298 190.719 778.577 191.385C778.856 192.052 779 192.766 779 193.487C779 194.209 778.856 194.923 778.577 195.589C778.298 196.255 777.889 196.86 777.374 197.369C776.869 197.885 776.265 198.295 775.597 198.575C774.93 198.856 774.212 199 773.488 199C772.763 199 772.045 198.856 771.378 198.575C770.71 198.295 770.106 197.885 769.601 197.369C769.089 196.857 768.684 196.249 768.409 195.581C768.134 194.914 767.995 194.198 768 193.477C768.005 192.755 768.153 192.042 768.437 191.378C768.72 190.713 769.133 190.111 769.652 189.606Z" fill="white"/>
<path opacity="0.6" d="M1262.22 136.889C1262.93 136.041 1263.8 135.348 1264.78 134.853C1265.77 134.358 1266.84 134.071 1267.94 134.012C1269.04 133.952 1270.15 134.12 1271.18 134.506C1272.21 134.892 1273.15 135.487 1273.94 136.253C1274.73 137.02 1275.36 137.942 1275.78 138.962C1276.2 139.981 1276.4 141.076 1276.37 142.178C1276.35 143.279 1276.1 144.364 1275.64 145.364C1275.17 146.364 1274.51 147.257 1273.68 147.988C1272.17 149.325 1270.21 150.043 1268.2 149.998C1266.18 149.953 1264.26 149.149 1262.81 147.746C1261.36 146.344 1260.5 144.446 1260.39 142.433C1260.28 140.42 1260.93 138.44 1262.22 136.889Z" fill="#CCCFD0"/>
<path opacity="0.6" d="M1037.66 401.042C1038.32 400.381 1039.2 400.006 1040.13 400C1041.06 399.994 1041.95 400.356 1042.61 401.008C1043.27 401.66 1043.65 402.548 1043.66 403.476C1043.66 404.404 1043.3 405.297 1042.65 405.958C1042 406.619 1041.11 406.994 1040.18 407C1039.25 407.006 1038.36 406.644 1037.7 405.992C1037.04 405.34 1036.66 404.453 1036.66 403.524C1036.65 402.596 1037.01 401.703 1037.66 401.042Z" fill="white"/>
<g style="mix-blend-mode:overlay" opacity="0.6">
<path d="M624.246 671.879C624.666 671.46 625.202 671.174 625.785 671.058C626.368 670.942 626.972 671.001 627.521 671.228C628.071 671.455 628.54 671.84 628.87 672.333C629.201 672.827 629.377 673.407 629.377 674C629.377 674.593 629.201 675.174 628.87 675.667C628.54 676.16 628.071 676.545 627.521 676.772C626.972 676.999 626.368 677.058 625.785 676.942C625.202 676.826 624.666 676.54 624.246 676.121C623.689 675.555 623.377 674.793 623.377 674C623.377 673.207 623.689 672.445 624.246 671.879Z" fill="#CCCFD0"/>
</g>
<g style="mix-blend-mode:overlay" opacity="0.6">
<path d="M889.913 626.046C890.114 625.759 890.374 625.518 890.677 625.34C890.979 625.162 891.317 625.051 891.667 625.014C892.016 624.977 892.37 625.015 892.703 625.126C893.037 625.236 893.343 625.417 893.6 625.656C893.856 625.894 894.059 626.185 894.193 626.508C894.326 626.831 894.389 627.179 894.375 627.528C894.362 627.877 894.273 628.219 894.114 628.531C893.956 628.843 893.731 629.118 893.457 629.336C893.012 629.762 892.419 630 891.801 630C891.183 630 890.59 629.762 890.145 629.336C889.698 628.916 889.426 628.345 889.383 627.736C889.34 627.126 889.529 626.523 889.913 626.046Z" fill="#CCCFD0"/>
</g>
<g style="mix-blend-mode:overlay" opacity="0.6">
<path d="M728.402 642.025C728.892 641.535 729.516 641.202 730.194 641.067C730.873 640.932 731.577 641.002 732.217 641.266C732.856 641.531 733.403 641.98 733.787 642.556C734.172 643.131 734.377 643.808 734.377 644.5C734.377 645.192 734.172 645.869 733.787 646.444C733.403 647.02 732.856 647.469 732.217 647.733C731.577 647.998 730.873 648.068 730.194 647.933C729.516 647.798 728.892 647.465 728.402 646.975C728.077 646.65 727.819 646.264 727.644 645.84C727.468 645.415 727.377 644.96 727.377 644.5C727.377 644.04 727.468 643.585 727.644 643.16C727.819 642.736 728.077 642.35 728.402 642.025Z" fill="#CCCFD0"/>
</g>
<path opacity="0.6" d="M530.536 664.172C531.096 663.613 531.81 663.232 532.587 663.077C533.365 662.922 534.17 663.002 534.903 663.304C535.635 663.607 536.261 664.12 536.701 664.778C537.142 665.435 537.377 666.209 537.377 667C537.377 667.791 537.142 668.565 536.701 669.223C536.261 669.88 535.635 670.393 534.903 670.696C534.17 670.999 533.365 671.077 532.587 670.923C531.81 670.768 531.096 670.387 530.536 669.828C529.793 669.073 529.377 668.058 529.377 667C529.377 665.942 529.793 664.927 530.536 664.172Z" fill="#CCCFD0"/>
<path opacity="0.6" d="M839.913 551.046C840.114 550.759 840.374 550.518 840.677 550.34C840.979 550.162 841.317 550.051 841.667 550.014C842.016 549.977 842.37 550.015 842.703 550.126C843.037 550.236 843.343 550.417 843.6 550.656C843.856 550.894 844.059 551.185 844.193 551.508C844.326 551.831 844.389 552.179 844.375 552.528C844.362 552.877 844.273 553.219 844.114 553.531C843.956 553.843 843.731 554.118 843.457 554.336C843.012 554.762 842.419 555 841.801 555C841.183 555 840.59 554.762 840.145 554.336C839.698 553.916 839.426 553.345 839.383 552.736C839.34 552.126 839.529 551.523 839.913 551.046Z" fill="#CCCFD0"/>
<path opacity="0.6" d="M725.402 552.025C725.892 551.535 726.516 551.202 727.194 551.067C727.873 550.932 728.577 551.002 729.217 551.266C729.856 551.531 730.403 551.98 730.787 552.556C731.172 553.131 731.377 553.808 731.377 554.5C731.377 555.192 731.172 555.869 730.787 556.444C730.403 557.02 729.856 557.469 729.217 557.733C728.577 557.998 727.873 558.068 727.194 557.933C726.516 557.798 725.892 557.465 725.402 556.975C725.077 556.65 724.819 556.264 724.644 555.84C724.468 555.415 724.377 554.96 724.377 554.5C724.377 554.04 724.468 553.585 724.644 553.16C724.819 552.736 725.077 552.35 725.402 552.025Z" fill="#CCCFD0"/>
<g style="mix-blend-mode:overlay" opacity="0.6">
<path d="M582.827 717.581C582.684 717.442 582.571 717.276 582.494 717.093C582.417 716.909 582.377 716.713 582.377 716.514C582.377 716.315 582.417 716.118 582.494 715.935C582.571 715.752 582.684 715.586 582.827 715.447C582.963 715.306 583.126 715.193 583.306 715.116C583.487 715.04 583.681 715 583.877 715C584.073 715 584.267 715.04 584.448 715.116C584.628 715.193 584.791 715.306 584.927 715.447C585.069 715.586 585.183 715.752 585.26 715.935C585.337 716.118 585.377 716.315 585.377 716.514C585.377 716.713 585.337 716.909 585.26 717.093C585.183 717.276 585.069 717.442 584.927 717.581C584.644 717.85 584.268 718 583.877 718C583.486 718 583.11 717.85 582.827 717.581Z" fill="#CCCFD0"/>
</g>
<path opacity="0.6" d="M675.827 750.581C675.684 750.442 675.571 750.276 675.494 750.093C675.417 749.909 675.377 749.713 675.377 749.514C675.377 749.315 675.417 749.118 675.494 748.935C675.571 748.752 675.684 748.586 675.827 748.447C675.963 748.306 676.126 748.193 676.306 748.116C676.487 748.04 676.681 748 676.877 748C677.073 748 677.267 748.04 677.448 748.116C677.628 748.193 677.791 748.306 677.927 748.447C678.069 748.586 678.183 748.752 678.26 748.935C678.337 749.118 678.377 749.315 678.377 749.514C678.377 749.713 678.337 749.909 678.26 750.093C678.183 750.276 678.069 750.442 677.927 750.581C677.644 750.85 677.268 751 676.877 751C676.486 751 676.11 750.85 675.827 750.581Z" fill="#CCCFD0"/>
<g opacity="0.32">
<path style="mix-blend-mode:screen" opacity="0.32" d="M675.25 390.25C717.086 348.414 717.086 280.586 675.25 238.75C633.414 196.914 565.586 196.914 523.75 238.75C481.914 280.586 481.914 348.414 523.75 390.25C565.586 432.086 633.414 432.086 675.25 390.25Z" fill="url(#paint0_radial)"/>
<path style="mix-blend-mode:color-dodge" opacity="0.32" d="M690.091 314.497C690.091 332.39 684.786 349.881 674.845 364.758C664.904 379.636 650.775 391.232 634.244 398.079C617.713 404.926 599.523 406.718 581.973 403.227C564.424 399.736 548.304 391.12 535.652 378.468C523 365.816 514.383 349.696 510.893 332.146C507.402 314.597 509.194 296.407 516.041 279.876C522.888 263.345 534.484 249.216 549.361 239.275C564.239 229.334 581.73 224.028 599.623 224.028C623.617 224.028 646.628 233.56 663.594 250.526C680.56 267.492 690.091 290.503 690.091 314.497Z" fill="url(#paint1_radial)"/>
</g>
<path opacity="0.06" d="M598.001 404.925C647.901 404.925 688.353 364.473 688.353 314.572C688.353 264.672 647.901 224.22 598.001 224.22C548.1 224.22 507.648 264.672 507.648 314.572C507.648 364.473 548.1 404.925 598.001 404.925Z" fill="white"/>
<path opacity="0.06" d="M597.672 426.035C658.182 426.035 707.235 376.982 707.235 316.472C707.235 255.963 658.182 206.91 597.672 206.91C537.162 206.91 488.109 255.963 488.109 316.472C488.109 376.982 537.162 426.035 597.672 426.035Z" fill="white"/>
<path opacity="0.06" d="M668.93 314.572C668.93 328.601 664.77 342.315 656.976 353.979C649.182 365.644 638.104 374.735 625.143 380.104C612.182 385.472 597.92 386.877 584.161 384.14C570.402 381.403 557.763 374.648 547.843 364.728C537.924 354.808 531.168 342.169 528.431 328.41C525.694 314.651 527.099 300.389 532.468 287.428C537.836 274.467 546.928 263.39 558.592 255.596C570.257 247.802 583.97 243.642 597.999 243.642C616.811 243.642 634.853 251.115 648.155 264.417C661.457 277.719 668.93 295.76 668.93 314.572Z" fill="white"/>
<path d="M648.913 276.008C643.593 269.119 636.919 263.394 629.302 259.185C621.685 254.976 613.287 252.373 604.625 251.536C595.964 250.7 587.223 251.648 578.941 254.322C570.66 256.996 563.015 261.338 556.476 267.082C549.938 272.826 544.646 279.849 540.926 287.719C537.207 295.588 535.139 304.136 534.85 312.835C534.561 321.535 536.057 330.201 539.246 338.3C542.435 346.399 547.25 353.758 553.393 359.923C555.847 362.346 558.491 364.569 561.3 366.57C573.724 375.387 588.895 379.461 604.064 378.053C619.232 376.645 633.394 369.847 643.984 358.893C654.574 347.939 660.89 333.553 661.788 318.341C662.686 303.13 658.106 288.1 648.879 275.975L648.913 276.008Z" fill="url(#paint2_linear)"/>
<path d="M661.899 315.184C661.906 298.804 655.655 283.045 644.433 271.15C633.211 259.256 617.872 252.13 601.572 251.241L591.352 260.729C591.352 260.729 586.457 264.972 588.522 268.246C590.586 271.52 598.776 264.471 594.614 286.219C590.453 307.968 611.893 305.964 611.893 305.964C611.893 305.964 633.534 304.36 628.54 329.349C625.21 346.053 639.16 351.833 648.948 353.837C653.471 347.869 656.919 341.153 659.136 333.993C660.993 327.898 661.924 321.557 661.899 315.184Z" fill="url(#paint3_linear)"/>
<path d="M596.288 355.456C598.009 349.988 598.009 344.129 596.288 338.661C593.291 330.814 582.023 329.446 582.023 329.446C582.023 329.446 573.032 328.971 570.575 321.212C568.118 313.454 556.909 313.721 556.909 313.721L549.447 313.305C550.815 325.521 556.126 336.971 564.589 345.949C573.051 354.926 584.212 360.951 596.408 363.126C595.866 360.601 595.825 357.996 596.288 355.456Z" fill="url(#paint4_linear)"/>
<g style="mix-blend-mode:multiply" opacity="0.15">
<path d="M649.019 276.447L647.355 274.462C652.517 287.175 653.394 301.209 649.853 314.459C646.312 327.709 638.545 339.461 627.716 347.952C616.888 356.442 603.581 361.213 589.793 361.55C576.005 361.887 562.479 357.771 551.244 349.819C548.412 347.838 545.752 345.625 543.291 343.203C541.86 341.78 540.495 340.292 539.197 338.77C542.423 346.733 547.247 353.959 553.374 360.008C555.84 362.412 558.488 364.624 561.295 366.624C573.739 375.4 588.935 379.455 604.129 378.054C619.322 376.652 633.508 369.886 644.115 358.983C654.722 348.079 661.049 333.759 661.948 318.618C662.848 303.477 658.261 288.516 649.019 276.447Z" fill="#230753"/>
</g>
<path opacity="0.6" d="M1512.14 783.159C1512.9 782.416 1513.92 782 1514.99 782C1516.05 782 1517.07 782.416 1517.83 783.159C1518.58 783.913 1519 784.928 1519 785.987C1519 787.045 1518.58 788.06 1517.83 788.814C1517.46 789.19 1517.02 789.488 1516.53 789.692C1516.04 789.895 1515.52 790 1514.99 790C1514.46 790 1513.93 789.895 1513.44 789.692C1512.96 789.488 1512.51 789.19 1512.14 788.814C1511.41 788.053 1511 787.04 1511 785.987C1511 784.933 1511.41 783.92 1512.14 783.159Z" fill="white"/>
<g clip-path="url(#clip1)">
<path d="M793.861 853.868L776.206 836.525L784.924 804.946L943.573 653.023L947.122 658.492L816.182 833.668L793.861 853.868Z" fill="#DEE8EB"/>
<path d="M667.55 643.316L668.992 636.803L681.46 633.192L680.518 639.701L690.116 650.615L688.697 659.628L700.281 669.025L703.437 686.498L681.92 684.69L677.782 669.226L677.657 655.227L667.55 643.316Z" fill="#DEE8EB"/>
<path d="M682.31 672.186L707.738 775.963L690.703 772.115L677.783 669.226L682.31 672.186Z" fill="#888787"/>
<path d="M699.782 669.029L732.016 778.897L747.499 804.61L766.498 804.44L764.588 814.457L739.357 844.684L725.299 838.309L725.219 829.31L721.139 820.346L705.045 809.989L710.768 779.087L693.836 675.083L699.782 669.029Z" fill="#888787"/>
<path d="M691.17 657.524C696.246 656.223 699.211 648.03 700.059 644.097L696.866 642.555C696.694 643.08 696.088 644.551 695.044 646.235C693.738 648.341 691.1 649.673 684.239 652.875C678.751 655.437 672.585 653.328 670.188 651.954L669.149 654.319C669.773 655.011 671.396 656.654 672.889 657.688C674.755 658.98 684.825 659.151 691.17 657.524Z" fill="#DEE8EB"/>
<path d="M680.126 648.893C684.056 647.916 686.353 641.771 687.011 638.82L684.539 637.665C684.405 638.058 683.937 639.162 683.127 640.425C682.116 642.005 680.073 643.005 674.761 645.408C670.512 647.33 665.738 645.75 663.883 644.72L663.078 646.493C663.561 647.013 664.817 648.245 665.973 649.019C667.417 649.988 675.213 650.115 680.126 648.893Z" fill="#DEE8EB"/>
<path d="M774.102 357.074C773.581 356.427 772.921 355.905 772.172 355.546C771.422 355.187 770.602 355.001 769.771 355.001C768.94 355.001 768.119 355.187 767.37 355.546C766.62 355.905 765.96 356.427 765.439 357.074C758.19 365.469 744.391 385.824 744.391 419.284V590.522C744.391 591.674 744.848 592.778 745.662 593.592C746.476 594.407 747.581 594.864 748.732 594.864H790.809C791.961 594.864 793.065 594.407 793.879 593.592C794.693 592.778 795.151 591.674 795.151 590.522V419.284C795.151 385.824 781.351 365.469 774.102 357.074Z" fill="#11E1D9"/>
<g style="mix-blend-mode:multiply" opacity="0.15">
<path d="M795.17 426.709H744.391V428.764H795.17V426.709Z" fill="#230753"/>
</g>
<g style="mix-blend-mode:multiply" opacity="0.15">
<path d="M795.17 469.359H744.391V471.414H795.17V469.359Z" fill="#230753"/>
</g>
<g style="mix-blend-mode:multiply" opacity="0.15">
<path d="M795.17 509.585H744.391V511.64H795.17V509.585Z" fill="#230753"/>
</g>
<g style="mix-blend-mode:multiply" opacity="0.15">
<path d="M774.102 357.074C773.519 356.405 772.788 355.881 771.967 355.545C771.146 355.208 770.258 355.068 769.373 355.136C776.577 369.572 780.207 385.529 779.956 401.662V572.88C779.958 573.452 779.848 574.019 779.631 574.548C779.414 575.077 779.094 575.558 778.691 575.964C778.287 576.369 777.808 576.69 777.28 576.91C776.752 577.129 776.186 577.242 775.614 577.242H744.391V590.716C744.391 591.867 744.848 592.972 745.662 593.786C746.476 594.601 747.581 595.058 748.732 595.058H790.809C791.961 595.058 793.065 594.601 793.879 593.786C794.693 592.972 795.151 591.867 795.151 590.716V419.284C795.151 385.824 781.351 365.468 774.102 357.074Z" fill="#230753"/>
</g>
<path d="M809.125 411.607C808.803 411.217 808.399 410.903 807.942 410.688C807.484 410.472 806.985 410.36 806.479 410.36C805.974 410.36 805.474 410.472 805.017 410.688C804.56 410.903 804.156 411.217 803.834 411.607C797.945 419.407 794.883 428.978 795.151 438.748V632.066H817.788V438.787C818.06 429.007 815.006 419.425 809.125 411.607Z" fill="#E3E9EC"/>
<path d="M814.667 657.831H798.271L792.107 649.281H820.831L814.667 657.831Z" fill="#EEFAF7"/>
<path d="M800.325 640.732H812.613L820.831 649.281H792.107L800.325 640.732Z" fill="#BDC2C4"/>
<path d="M824.437 644.163H788.504L795.152 632.105H817.789L824.437 644.163Z" fill="#EEFAF7"/>
<g style="mix-blend-mode:multiply" opacity="0.15">
<path d="M817.789 632.105V438.787C818.052 429.021 814.998 419.454 809.126 411.647C808.631 411.053 807.952 410.642 807.196 410.48C806.441 410.318 805.653 410.415 804.959 410.755C808.101 417.212 809.687 424.317 809.591 431.498C809.591 449.643 809.804 638.173 809.804 638.173L788.484 644.183H824.418L817.789 632.105Z" fill="#230753"/>
</g>
<path d="M817.188 683.517C814.379 679.914 812.65 675.587 812.204 671.039C811.758 666.492 812.613 661.911 814.669 657.831H798.272C800.328 661.911 801.183 666.492 800.737 671.039C800.291 675.587 798.562 679.914 795.752 683.517C786.062 696.564 770.111 716.241 774.917 737.566H838.043C842.752 716.241 826.957 696.564 817.188 683.517Z" fill="#D9D9D9"/>
<path d="M735.728 412.286C735.406 411.896 735.002 411.582 734.545 411.366C734.087 411.151 733.588 411.039 733.082 411.039C732.577 411.039 732.078 411.151 731.62 411.366C731.163 411.582 730.759 411.896 730.437 412.286C724.565 420.093 721.511 429.66 721.773 439.427V632.725H744.392V439.465C744.672 429.684 741.617 420.099 735.728 412.286Z" fill="#E3E9EC"/>
<path d="M741.29 658.509H724.894L718.711 649.959H747.454L741.29 658.509Z" fill="#EEFAF7"/>
<g style="mix-blend-mode:multiply" opacity="0.15">
<path d="M817.148 649.281L812.322 655.969H796.934L798.271 657.831H814.668L820.831 649.281H817.148Z" fill="#230753"/>
</g>
<g style="mix-blend-mode:multiply" opacity="0.15">
<path d="M743.771 649.959L738.946 656.648H723.557L724.894 658.509H741.291L747.454 649.959H743.771Z" fill="#230753"/>
</g>
<path d="M726.948 641.411H739.217L747.454 649.96H718.711L726.948 641.411Z" fill="#BDC2C4"/>
<path d="M751.039 644.822H715.125L721.773 632.764H744.391L751.039 644.822Z" fill="#EEFAF7"/>
<g style="mix-blend-mode:multiply" opacity="0.15">
<path d="M744.392 632.764V439.465C744.664 429.698 741.609 420.127 735.728 412.325C735.245 411.728 734.573 411.313 733.823 411.147C733.073 410.982 732.29 411.076 731.6 411.414C734.95 418.017 736.646 425.335 736.542 432.738V638.134L715.223 644.822H751.136L744.392 632.764Z" fill="#230753"/>
</g>
<path d="M743.908 684.195C741.094 680.595 739.363 676.267 738.917 671.718C738.471 667.17 739.328 662.588 741.389 658.509H724.992C727.048 662.589 727.903 667.17 727.457 671.718C727.011 676.265 725.282 680.592 722.472 684.195C712.782 697.223 696.831 716.9 701.618 738.224H764.646C769.453 716.9 753.599 697.223 743.908 684.195Z" fill="#D9D9D9"/>
<g style="mix-blend-mode:multiply" opacity="0.15">
<path d="M817.788 474.942H795.189V476.881H817.788V474.942Z" fill="#230753"/>
</g>
<g style="mix-blend-mode:multiply" opacity="0.15">
<path d="M817.788 446.444H795.189V448.383H817.788V446.444Z" fill="#230753"/>
</g>
<g style="mix-blend-mode:multiply" opacity="0.15">
<path d="M744.392 474.942H721.793V476.881H744.392V474.942Z" fill="#230753"/>
</g>
<g style="mix-blend-mode:multiply" opacity="0.15">
<path d="M744.392 446.444H721.793V448.383H744.392V446.444Z" fill="#230753"/>
</g>
<path d="M826.744 588.641L797.381 555.433C794.122 551.727 791.99 547.167 791.237 542.289C788.931 527.188 783.678 492.428 780.577 468.952C776.856 441.326 771.042 437.43 769.976 436.906C769.843 436.867 769.701 436.867 769.569 436.906C768.425 437.43 762.611 441.326 758.967 468.952C755.866 492.428 750.614 527.11 748.307 542.289C747.554 547.167 745.422 551.727 742.163 555.433L712.897 588.641C712.897 588.641 708.478 593.217 708.401 606.923C708.397 607.036 708.431 607.147 708.497 607.239C708.564 607.33 708.66 607.396 708.769 607.427C728.77 612.116 749.259 614.394 769.801 614.212H769.937C790.479 614.394 810.968 612.116 830.969 607.427C831.078 607.396 831.174 607.33 831.24 607.239C831.307 607.147 831.341 607.036 831.337 606.923C831.124 593.217 826.744 588.641 826.744 588.641Z" fill="#EEFAF7"/>
<g style="mix-blend-mode:multiply" opacity="0.15">
<path d="M769.703 614.212H769.839C790.381 614.394 810.87 612.116 830.871 607.426C830.98 607.396 831.076 607.33 831.143 607.238C831.209 607.147 831.243 607.036 831.239 606.922C831.239 593.216 826.743 588.641 826.743 588.641L797.38 555.433C794.121 551.727 791.989 547.167 791.236 542.289C788.93 527.187 783.677 492.428 780.576 468.951C776.855 441.326 771.04 437.43 769.974 436.906L769.703 614.212Z" fill="#230753"/>
</g>
<path d="M801.781 677.391C800.012 677.391 798.26 677.74 796.626 678.419C796.772 677.346 796.85 676.264 796.858 675.181C796.951 671.863 796.377 668.56 795.172 665.467C793.966 662.374 792.153 659.554 789.84 657.174C787.526 654.795 784.759 652.903 781.701 651.611C778.644 650.319 775.359 649.654 772.04 649.654C768.721 649.654 765.436 650.319 762.379 651.611C759.322 652.903 756.555 654.795 754.241 657.174C751.927 659.554 750.114 662.374 748.908 665.467C747.703 668.56 747.13 671.863 747.222 675.181C747.231 676.264 747.309 677.346 747.455 678.419C745.821 677.74 744.069 677.391 742.299 677.391C740.222 677.395 738.174 677.875 736.311 678.795C734.449 679.715 732.823 681.051 731.558 682.699C730.294 684.348 729.424 686.264 729.017 688.302C728.61 690.339 728.676 692.443 729.21 694.451C729.744 696.458 730.732 698.317 732.097 699.882C733.463 701.448 735.17 702.679 737.086 703.481C739.002 704.283 741.077 704.633 743.15 704.506C745.224 704.379 747.24 703.778 749.044 702.748C749.915 704.926 751.336 706.84 753.167 708.305C754.999 709.77 757.178 710.735 759.494 711.106C761.809 711.477 764.181 711.241 766.378 710.422C768.575 709.603 770.523 708.228 772.031 706.432C773.538 708.228 775.486 709.603 777.683 710.422C779.88 711.241 782.252 711.477 784.567 711.106C786.883 710.735 789.062 709.77 790.894 708.305C792.725 706.84 794.146 704.926 795.017 702.748C796.82 703.777 798.836 704.379 800.908 704.506C802.981 704.634 805.055 704.283 806.971 703.483C808.886 702.682 810.593 701.452 811.959 699.888C813.325 698.324 814.313 696.467 814.848 694.46C815.384 692.453 815.451 690.35 815.046 688.314C814.641 686.277 813.774 684.36 812.512 682.711C811.249 681.062 809.625 679.725 807.765 678.803C805.905 677.88 803.857 677.397 801.781 677.391Z" fill="white"/>
<path d="M768.812 645.908C762.28 637.185 769.626 622.839 769.626 622.839H753.597C753.597 622.839 760.962 637.185 754.431 645.908C747.899 654.632 735.301 665.818 738.519 680.067H784.646C787.922 665.818 775.343 654.632 768.812 645.908Z" fill="white"/>
<path d="M769.626 622.838H753.598L757.164 591.51C757.279 590.498 757.764 589.563 758.526 588.887C759.288 588.21 760.273 587.84 761.292 587.846H762.009C763.025 587.845 764.005 588.217 764.763 588.893C765.521 589.569 766.004 590.501 766.118 591.51L769.626 622.838Z" fill="#4D4D5A"/>
<path d="M1433.75 938.231C1427.86 938.227 1422.2 940.563 1418.03 944.726C1417.3 940.572 1415.59 936.654 1413.03 933.3C1410.48 929.946 1407.16 927.254 1403.35 925.45C1399.54 923.646 1395.35 922.783 1391.14 922.932C1386.92 923.081 1382.81 924.24 1379.13 926.309C1377.4 919.531 1374.22 913.209 1369.81 907.781C1365.4 902.353 1359.86 897.948 1353.58 894.869C1347.3 891.791 1340.42 890.113 1333.43 889.952C1326.44 889.79 1319.5 891.149 1313.08 893.934C1313.08 892.597 1313.24 891.24 1313.24 889.863C1313.23 880.175 1310.86 870.634 1306.34 862.07C1301.81 853.505 1295.26 846.176 1287.26 840.72C1279.25 835.263 1270.04 831.844 1260.41 830.759C1250.79 829.675 1241.04 830.958 1232.03 834.496C1230.94 828.029 1228.4 821.895 1224.59 816.558C1220.78 811.222 1215.8 806.824 1210.04 803.698C1204.28 800.572 1197.88 798.8 1191.33 798.517C1184.78 798.233 1178.25 799.446 1172.24 802.063C1169.77 789.681 1163.36 778.431 1153.97 769.998C1144.58 761.565 1132.71 756.402 1120.13 755.285C1107.56 754.167 1094.97 757.153 1084.23 763.797C1073.5 770.441 1065.21 780.384 1060.6 792.138C1053.62 792.285 1046.79 794.164 1040.71 797.605C1037.13 790.988 1031.85 785.445 1025.42 781.546C1018.99 777.648 1011.63 775.535 1004.11 775.424C996.589 775.313 989.174 777.21 982.629 780.917C976.083 784.625 970.644 790.01 966.871 796.519C962.254 791.778 956.59 788.186 950.333 786.03C944.077 783.875 937.403 783.217 930.846 784.108C924.29 785 918.034 787.417 912.58 791.165C907.126 794.912 902.627 799.887 899.443 805.689C897.801 803.649 895.761 801.965 893.447 800.74C891.133 799.514 888.594 798.773 885.985 798.56C883.375 798.348 880.75 798.67 878.269 799.505C875.788 800.341 873.503 801.673 871.553 803.42C872.737 801.098 873.305 798.51 873.203 795.905C873.102 793.3 872.333 790.765 870.972 788.542C869.611 786.318 867.702 784.482 865.428 783.207C863.155 781.933 860.592 781.263 857.986 781.262C857.54 781.262 857.094 781.262 856.648 781.262C857.622 779.089 858.072 776.718 857.962 774.34C857.852 771.962 857.187 769.642 856.018 767.568C854.849 765.494 853.21 763.723 851.232 762.398C849.255 761.072 846.994 760.23 844.632 759.937C847.066 757.196 848.43 753.669 848.474 750.003C848.518 746.336 847.239 742.777 844.872 739.978C842.504 737.179 839.207 735.327 835.586 734.763C831.964 734.199 828.26 734.96 825.154 736.907C823.87 733.937 821.74 731.411 819.031 729.644C816.321 727.877 813.152 726.947 809.917 726.97C806.683 726.993 803.526 727.967 800.842 729.772C798.157 731.577 796.064 734.133 794.822 737.12C793.318 735.238 791.389 733.74 789.193 732.748C786.998 731.756 784.599 731.299 782.193 731.415C779.787 731.53 777.443 732.215 775.353 733.412C773.262 734.609 771.486 736.285 770.168 738.303H768.618C767.459 736.525 765.94 735.009 764.16 733.853C762.38 732.697 760.378 731.926 758.283 731.591C756.187 731.255 754.045 731.361 751.993 731.902C749.941 732.444 748.025 733.409 746.368 734.735C744.947 732.21 742.836 730.142 740.282 728.775C737.728 727.407 734.836 726.796 731.947 727.014C729.058 727.232 726.292 728.269 723.971 730.004C721.651 731.739 719.873 734.1 718.846 736.81C716.567 735.326 713.931 734.481 711.214 734.362C708.497 734.243 705.798 734.855 703.398 736.134C700.997 737.412 698.983 739.311 697.566 741.633C696.148 743.954 695.378 746.613 695.337 749.333C694.126 749.031 692.883 748.875 691.635 748.868C689.107 748.873 686.621 749.506 684.398 750.709C682.175 751.912 680.285 753.648 678.898 755.762C677.511 757.875 676.67 760.3 676.451 762.819C676.232 765.337 676.641 767.871 677.642 770.193C677.234 770.193 676.808 770.193 676.382 770.193C673.883 770.193 671.422 770.808 669.217 771.983C667.011 773.158 665.128 774.857 663.732 776.93C662.337 779.003 661.472 781.388 661.214 783.874C660.956 786.36 661.313 788.872 662.253 791.188C661.432 791.057 660.603 790.985 659.772 790.975C655.726 790.975 651.847 792.582 648.986 795.443C646.126 798.304 644.519 802.185 644.519 806.231C644.523 807.26 644.627 808.286 644.829 809.294C641.844 807.77 638.508 807.064 635.162 807.248C631.815 807.432 628.577 808.499 625.777 810.341C620.767 803.064 613.599 797.543 605.285 794.559C596.97 791.574 587.929 791.277 579.436 793.708C579.69 792.033 579.826 790.342 579.843 788.648C579.865 782.52 578.261 776.495 575.194 771.189C572.128 765.884 567.708 761.488 562.386 758.45C557.065 755.412 551.033 753.841 544.906 753.898C538.779 753.955 532.777 755.638 527.513 758.774C523.432 748.551 516.226 739.88 506.925 733.997C497.623 728.115 486.701 725.323 475.718 726.019C464.735 726.716 454.253 730.866 445.769 737.876C437.284 744.886 431.231 754.399 428.474 765.055C422.024 761.804 414.849 760.257 407.632 760.562C400.416 760.868 393.397 763.015 387.245 766.8C381.093 770.585 376.011 775.882 372.483 782.187C368.956 788.492 367.1 795.595 367.093 802.819C367.084 808.216 368.124 813.562 370.155 818.561C362.909 820.052 356.311 823.773 351.285 829.204C346.259 834.634 343.058 841.501 342.13 848.842C335.849 845.457 328.692 844.051 321.598 844.809C314.505 845.568 307.806 848.456 302.384 853.093C296.962 857.73 293.069 863.9 291.217 870.792C289.365 877.683 289.641 884.973 292.009 891.705C286.399 894.186 281.531 898.085 277.884 903.018C274.237 907.951 271.935 913.748 271.206 919.84C270.477 925.932 271.345 932.109 273.724 937.764C276.104 943.418 279.914 948.356 284.78 952.093C287.075 956.768 290.772 960.611 295.354 963.085C299.937 965.559 305.177 966.542 310.344 965.895V966.089H1292.83C1297.28 972.414 1303.18 977.577 1310.04 981.146C1316.9 984.714 1324.51 986.584 1332.24 986.597C1339.97 986.61 1347.6 984.767 1354.47 981.222C1361.34 977.677 1367.26 972.534 1371.73 966.225C1374.2 969.21 1377.29 971.615 1380.79 973.27C1384.29 974.924 1388.11 975.788 1391.98 975.799C1395.86 975.81 1399.68 974.968 1403.19 973.334C1406.7 971.699 1409.81 969.312 1412.29 966.341C1413.38 970.345 1415.56 973.965 1418.59 976.792C1421.63 979.62 1425.39 981.543 1429.46 982.343C1433.53 983.144 1437.74 982.79 1441.62 981.322C1445.5 979.854 1448.89 977.331 1451.41 974.036C1453.93 970.742 1455.48 966.809 1455.88 962.681C1456.28 958.553 1455.52 954.394 1453.68 950.676C1451.84 946.957 1449.01 943.827 1445.48 941.638C1441.96 939.449 1437.9 938.289 1433.75 938.29V938.231Z" fill="#D9D9D9"/>
<path d="M1358.74 937.96C1361.71 924.002 1359.46 909.441 1352.41 897.033C1345.36 884.626 1334.01 875.234 1320.5 870.636C1307 866.037 1292.28 866.552 1279.13 872.081C1265.97 877.611 1255.31 887.773 1249.14 900.642C1245.44 890.891 1238.86 882.497 1230.27 876.573C1221.69 870.649 1211.51 867.475 1201.08 867.472C1199.95 867.472 1198.83 867.472 1197.72 867.608C1193.4 853.475 1185.11 840.886 1173.82 831.345C1162.54 821.804 1148.75 815.715 1134.1 813.805C1119.45 811.895 1104.56 814.246 1091.21 820.576C1077.86 826.906 1066.61 836.948 1058.82 849.501C1051.66 845.848 1043.74 843.923 1035.71 843.883C1027.67 843.843 1019.73 845.687 1012.54 849.269C1005.34 852.85 999.088 858.069 994.274 864.506C989.46 870.943 986.221 878.419 984.818 886.335C976.117 878.646 965.069 874.133 953.475 873.531C941.881 872.929 930.425 876.274 920.976 883.02C915.068 875.854 907.331 870.421 898.586 867.297C889.841 864.174 880.414 863.477 871.305 865.28C862.196 867.083 853.745 871.318 846.848 877.537C839.951 883.756 834.865 891.727 832.131 900.603C824.728 892.568 815.27 886.711 804.778 883.667C794.287 880.622 783.163 880.506 772.611 883.33C767.6 873.478 759.962 865.204 750.541 859.425C741.121 853.646 730.285 850.587 719.234 850.587C716.296 850.593 713.362 850.807 710.455 851.226C699.547 840.621 685.012 834.567 669.803 834.293C654.593 834.02 639.85 839.547 628.568 849.753C617.972 846.627 606.717 846.499 596.053 849.384C585.389 852.269 575.732 858.054 568.156 866.096C563.067 856.464 555.446 848.404 546.115 842.785C536.785 837.165 526.098 834.199 515.206 834.205H514.799C509.162 817.487 497.925 803.229 482.989 793.844C468.052 784.458 450.333 780.521 432.829 782.699C415.325 784.876 399.109 793.034 386.926 805.793C374.743 818.552 367.34 835.129 365.969 852.719C364.942 852.719 363.895 852.719 362.849 852.719C352.558 852.704 342.415 855.159 333.27 859.878C324.125 864.598 316.246 871.443 310.295 879.839C304.343 888.236 300.493 897.938 299.067 908.132C297.642 918.325 298.683 928.712 302.103 938.42C305.522 948.127 311.221 956.872 318.721 963.92C326.22 970.968 335.301 976.113 345.2 978.922C355.1 981.732 365.529 982.125 375.611 980.067C385.693 978.009 395.135 973.561 403.143 967.097H699.717C711.005 970.972 723.19 971.397 734.72 968.319C739.78 978.283 747.526 986.632 757.082 992.423C766.638 998.214 777.623 1001.22 788.796 1001.09C799.968 1000.96 810.882 997.711 820.304 991.704C829.726 985.697 837.28 977.174 842.113 967.097H921.577C930.182 973.08 940.411 976.287 950.891 976.287C961.371 976.287 971.6 973.08 980.205 967.097H1183.01C1194.66 971.44 1207.49 971.44 1219.14 967.097H1260.6C1269.62 976.118 1281.36 981.909 1294.01 983.575C1293.91 984.913 1293.84 986.251 1293.84 987.608C1293.83 997.2 1296.51 1006.6 1301.57 1014.75C1306.63 1022.9 1313.86 1029.48 1322.46 1033.73C1331.05 1037.98 1340.67 1039.75 1350.21 1038.82C1359.76 1037.9 1368.85 1034.32 1376.47 1028.5C1384.09 1022.67 1389.93 1014.83 1393.33 1005.86C1396.73 996.893 1397.56 987.151 1395.71 977.738C1393.87 968.325 1389.43 959.615 1382.9 952.593C1376.36 945.57 1368 940.515 1358.74 937.999V937.96Z" fill="white"/>
<path d="M787.495 645.908C780.963 637.185 788.328 622.839 788.328 622.839H772.339C772.339 622.839 779.703 637.185 773.172 645.908C766.64 654.632 754.062 665.818 757.279 680.067H803.407C806.605 665.818 794.026 654.632 787.495 645.908Z" fill="white"/>
<path d="M788.33 622.839H772.34L775.867 591.511C775.982 590.501 776.464 589.57 777.222 588.894C777.98 588.218 778.961 587.845 779.976 587.847H780.732C781.75 587.844 782.733 588.217 783.494 588.892C784.255 589.568 784.741 590.5 784.86 591.511L788.33 622.839Z" fill="#4D4D5A"/>
<g style="mix-blend-mode:multiply" opacity="0.15">
<path d="M780.343 622.839H788.328L784.82 591.511C784.701 590.5 784.215 589.568 783.454 588.892C782.692 588.217 781.709 587.844 780.692 587.847H779.975L780.343 622.839Z" fill="#230753"/>
</g>
<g style="mix-blend-mode:multiply" opacity="0.15">
<path d="M761.64 622.839H769.625L766.117 591.511C766.003 590.501 765.521 589.57 764.763 588.894C764.005 588.218 763.024 587.845 762.009 587.847H761.35L761.64 622.839Z" fill="#230753"/>
</g>
<path d="M1413.11 580.396L1413.43 581.134L1358.62 599.061C1357.63 599.314 1357.24 598.246 1358.23 597.846L1413.11 580.396Z" fill="white"/>
<path d="M1413.31 579.665L1413.64 580.403L1358.82 598.33C1357.83 598.583 1357.59 597.993 1358.58 597.592L1413.31 579.665Z" fill="#CCCFD0"/>
<circle cx="1417.91" cy="574.433" r="14.5832" transform="rotate(161.816 1417.91 574.433)" fill="white"/>
<g style="mix-blend-mode:multiply" opacity="0.15">
<path d="M1417.38 589.036L1417.96 589.013C1414.98 588.185 1412.34 586.415 1410.45 583.966C1408.55 581.518 1407.5 578.525 1407.46 575.435C1407.41 572.345 1408.36 569.325 1410.18 566.829C1411.99 564.333 1414.57 562.494 1417.53 561.589C1418.27 561.358 1419.02 561.189 1419.79 561.084C1420.24 561.025 1420.7 560.987 1421.15 560.965C1419.28 560.445 1417.33 560.31 1415.41 560.569C1414.64 560.677 1413.89 560.844 1413.14 561.068C1409.88 562.075 1407.08 564.218 1405.27 567.111C1403.45 570.003 1402.73 573.453 1403.25 576.835C1403.76 580.216 1405.47 583.307 1408.06 585.545C1410.65 587.783 1413.96 589.022 1417.38 589.036Z" fill="#230753"/>
</g>
<path d="M1410.92 571.307L1411.51 572.026L1317.67 593.137C1316.13 593.629 1315.67 592.482 1317.36 592.024L1410.92 571.307Z" fill="white"/>
<path d="M1411.42 570.671L1412.01 571.39L1318.16 592.501C1316.46 592.812 1316.02 592.236 1317.71 591.778L1411.42 570.671Z" fill="#CCCFD0"/>
<path d="M1407.31 558.908L1407.32 559.715L1349.51 553.963C1348.49 553.794 1348.3 552.837 1349.38 552.872L1407.31 558.908Z" fill="white"/>
<path d="M1408.08 558.194L1408.08 559.026L1349.41 553.574C1348.37 553.408 1348.39 552.75 1349.49 552.777L1408.08 558.194Z" fill="#CCCFD0"/>
<path d="M1415.41 569.66L1415.72 572.139L1407.83 572.579C1407.41 572.383 1406.82 571.837 1407.82 571.221C1408.82 570.605 1413.3 569.923 1415.41 569.66Z" fill="#9D9D9D"/>
<path d="M1407.11 559.689C1407.11 559.689 1412.32 560.508 1412.95 560.641L1417.07 560.903L1417.41 559.127L1415.03 558.883C1414.06 558.793 1412.05 558.586 1411.67 558.48C1411.29 558.375 1410.83 558.563 1410.65 558.67L1407.32 558.117L1407.11 559.689Z" fill="#9D9D9D"/>
<path d="M1415.8 594.207L1416.25 594.705L1378.11 623.371C1377.4 623.833 1376.72 623.285 1377.39 622.706L1415.8 594.207Z" fill="white"/>
<path d="M1423.27 588.061L1420.74 590.705L1378.1 622.984C1377.39 623.446 1377.04 623.044 1377.71 622.465L1423.27 588.061Z" fill="#CCCFD0"/>
<path d="M1424.99 585.813L1426.43 587.93C1425.35 588.859 1422.37 591.03 1421.28 591.904C1420.19 592.779 1419.45 592.722 1419.21 592.585L1416.09 594.783L1415.39 593.929L1424.99 585.813Z" fill="#9D9D9D"/>
<path d="M1424.48 585.905L1429.21 582.629L1428.05 586.74L1426.23 588.197L1424.48 585.905Z" fill="#C4C4C4"/>
<path d="M1416.96 561.942L1423.53 561.4L1419.86 559.108L1417.22 559.169L1416.96 561.942Z" fill="#C4C4C4"/>
<path d="M1415.53 569.586L1415.92 572.382L1419.27 572.022L1422.58 569.857L1418.24 568.723L1415.53 569.586Z" fill="#C4C4C4"/>
<path opacity="0.6" d="M1430.14 478.159C1430.9 477.416 1431.92 477 1432.99 477C1434.05 477 1435.07 477.416 1435.83 478.159C1436.58 478.913 1437 479.928 1437 480.987C1437 482.045 1436.58 483.06 1435.83 483.814C1435.46 484.19 1435.02 484.488 1434.53 484.692C1434.04 484.895 1433.52 485 1432.99 485C1432.46 485 1431.93 484.895 1431.44 484.692C1430.96 484.488 1430.51 484.19 1430.14 483.814C1429.41 483.053 1429 482.04 1429 480.987C1429 479.933 1429.41 478.92 1430.14 478.159Z" fill="white"/>
</g>
<path d="M547.488 869.07L710.62 883.113L710.817 905.112L547.85 909.568L547.488 869.07Z" fill="#888787"/>
<rect x="284.824" y="907.917" width="485" height="65" transform="rotate(-0.511789 284.824 907.917)" fill="#A7A6A6"/>
<path d="M726.364 798.469L740 847.999L672.045 818.955L693.387 801.264L493.502 703.045L485.592 713.116L476.543 707.697L479.945 696.666L470.391 690.751L462.477 700.322L451.441 696.421L456.347 685.876L445.299 680.475L437.893 691.042L427.348 686.135L432.741 674.087L369.949 641.646L375.373 633.098L385.796 624.504L395.818 626.915L398.796 624.388L404.818 626.834C408.501 629.2 404.817 626.835 409.371 632.794L424.447 641.159L427.406 636.633C436.5 641.159 438.5 641.905 448.999 646.94L452.954 641.905L461.985 645.324L472.828 627.727L475.842 629.2C475.878 633.2 465.363 650.294 460.101 658.342L470.15 663.752L476.07 654.699L480.587 656.659L478.123 660.681L480.65 663.658L496.43 639.016L497.953 641.503C500.824 649.478 490.658 664.569 485.217 671.118L497.779 678.006L499.765 676.488L494.216 671.038L497.694 668.506L504.238 673.448L518.05 652.324C518.855 649.15 520.382 644.703 520.05 652.306C519.718 659.909 510.418 674.893 505.81 681.434L524.389 690.269C529 693 525.5 691 529.416 693.224L538.973 699.639C545 702.5 544 701.6 550.527 705.536C554.884 708.164 564.309 711.295 566.589 712.393C572 715 568 714.5 572.628 716.839L584.182 722.736C588 724 590 722.736 593.699 724.651L639.921 749.239L651.393 746.137L660.938 751.052L659.5 758.065L667.04 762.498L677.491 756.904L685.017 759.837L685.102 769.337L726.364 798.469Z" fill="#DEE8EB"/>
<path d="M667.339 795.996L732.22 838.418L732.466 865.917L691.468 866.284L691.414 860.284L691.24 840.785L691.173 833.285L689.124 827.803L673.625 827.941C673.62 827.441 673.207 825.945 671.589 823.959C669.971 821.974 667.576 822.495 666.58 823.004L617.694 779.939L576.869 743.802L600.953 753.087L667.339 795.996Z" fill="#888787"/>
<path d="M912.891 687.717C907.793 686.506 904.682 678.368 903.764 674.45L906.929 672.851C907.111 673.373 907.742 674.833 908.817 676.499C910.16 678.581 912.821 679.866 919.738 682.945C925.271 685.408 931.399 683.189 933.771 681.772L934.852 684.118C934.24 684.822 932.647 686.494 931.173 687.554C929.33 688.879 919.264 689.23 912.891 687.717Z" fill="#DEE8EB"/>
<path d="M922.792 676.628C917.694 675.417 914.583 667.279 913.664 663.361L916.83 661.762C917.011 662.284 917.642 663.744 918.717 665.41C920.061 667.491 922.722 668.776 929.638 671.855C935.172 674.318 941.299 672.1 943.671 670.683L944.752 673.029C944.14 673.732 942.548 675.404 941.073 676.464C939.23 677.789 929.165 678.141 922.792 676.628Z" fill="#DEE8EB"/>
<path d="M933.679 667.801C929.733 666.894 927.326 660.791 926.616 657.853L929.067 656.653C929.207 657.044 929.696 658.139 930.527 659.388C931.567 660.949 933.627 661.912 938.981 664.22C943.264 666.066 948.009 664.401 949.845 663.338L950.682 665.097C950.208 665.625 948.974 666.879 947.833 667.674C946.406 668.669 938.613 668.934 933.679 667.801Z" fill="#DEE8EB"/>
<rect x="776.291" y="846.025" width="306" height="22" transform="rotate(-0.511789 776.291 846.025)" fill="#A7A6A6"/>
<line x1="539.728" y1="840.138" x2="539.889" y2="858.137" stroke="black"/>
<line x1="560.736" y1="840.95" x2="560.897" y2="858.949" stroke="black"/>
<line x1="576.744" y1="841.807" x2="576.905" y2="859.806" stroke="black"/>
<line x1="596.754" y1="842.628" x2="596.915" y2="860.628" stroke="black"/>
<line x1="612.762" y1="843.485" x2="612.922" y2="861.485" stroke="black"/>
<line x1="631.77" y1="844.316" x2="631.93" y2="862.315" stroke="black"/>
<line x1="539.261" y1="840.643" x2="632.302" y2="844.812" stroke="black"/>
<line x1="539.323" y1="847.642" x2="632.364" y2="851.811" stroke="black"/>
<path d="M664.193 835.526L664.296 847.025L664.47 866.525L693.969 866.261L693.741 840.762L689.741 840.798L683.193 835.356L664.193 835.526Z" fill="#A7A6A6"/>
<path d="M843.713 836.922L911.21 836.32L911.062 819.82L951.547 817.958L951.574 820.958L968.074 820.811L968.19 833.81L1011.19 833.426L1011.34 849.926L819.865 854.136L782.367 854.471L776.215 837.525L805.714 837.262L809.714 837.226L809.692 834.726L836.534 816.986L874.358 797.147C876.027 797.299 880.557 796.992 885.336 794.549C890.114 792.106 893.942 787.805 895.259 785.96L900.259 785.915L927.646 773.17C928.3 771.664 928.904 768.359 926.093 767.184C923.282 766.009 921.243 765.394 920.575 765.233L921.464 752.725L923.963 752.702L924.048 762.202L943.556 763.028C943.882 762.191 944.53 760.019 944.512 758.019L944.476 754.019L947.976 753.988L949.047 761.979L972.439 749.769L1005.81 734.971L1030.69 721.748L1026.66 718.284L1021.16 718.333L1017.59 710.364C1013.56 706.734 1004.68 698.479 1001.45 694.508C998.211 690.537 993.313 679.58 991.269 674.598L991.246 672.098L993.746 672.076L999.831 681.522L1003.92 691.486L1010.47 696.927L1014.47 696.892C1016.35 701.708 1021.79 710.227 1028.55 705.766C1035.31 701.306 1029.9 689.587 1026.36 684.285L1026.33 681.285L1030.33 681.249C1032.87 685.227 1037.55 695.185 1036.03 703.199L1042.5 700.141C1041.49 699.15 1039.46 696.368 1039.44 693.168C1039.41 689.969 1041.4 689.484 1042.4 689.642L1043.92 691.128L1043.95 694.128C1045.29 695.783 1048.89 698.584 1052.47 696.552C1055.96 694.569 1054.66 692.469 1053.51 691.605C1053.48 691.584 1053.45 691.564 1053.42 691.543C1053.45 691.563 1053.48 691.584 1053.51 691.605C1056.04 693.448 1060.35 697.608 1058 700.003C1055.62 702.424 1052.37 704.72 1051.05 705.565L1042.61 713.141L1044.13 714.627L1097.88 686.646L1103.88 686.593L1145.19 665.223L1142.15 660.25L1154.1 654.643L1157.15 660.116L1176.06 650.446L1179.58 652.415L1186.58 652.353L1165.19 665.044L1165.21 667.544L1154.27 673.642L1150.27 673.678L1109.46 696.043L1092.63 714.194L1012.47 753.412C1006.02 758.803 988.626 770.625 970.663 774.786L919.388 800.245L915.424 804.281L843.713 836.922Z" fill="#888787"/>
<path d="M632.073 878.315L631.917 860.815L534.385 857.687L534.474 867.686L632.073 878.315Z" fill="#C4C4C4"/>
<path d="M712.967 866.092L712.739 840.593L736.238 840.383L740.814 848.842L740.912 859.842L749.215 865.768L749.184 834.267L774.683 834.039L785.254 841.945L785.464 865.444L749.215 865.768L712.967 866.092Z" fill="#C4C4C4"/>
<path d="M709.651 886.622L1202.78 899.218L1203.75 1007.21L765.766 1011.13L438.779 1014.05L709.651 886.622Z" fill="#C4C4C4"/>
<path d="M709.969 866.118L1037.39 856.193L1202.53 870.719L1202.78 899.218L710.156 887.118L709.969 866.118Z" fill="white"/>
<path d="M680.764 843.378L635.265 843.785L631.766 843.816L632.226 895.314L642.225 895.225L652.104 881.636L677.612 882.408L679.652 886.89L710.151 886.617L709.968 866.118L680.96 865.377L680.764 843.378Z" fill="#E1E1E1"/>
<line x1="539.376" y1="853.642" x2="632.417" y2="857.811" stroke="black"/>
<path d="M1247.55 976.481C1250.99 969.083 1248.43 961.358 1240.36 954.775C1232.29 948.192 1219.28 943.209 1203.79 940.771C1188.29 938.334 1171.41 938.613 1156.33 941.555C1141.25 944.496 1129.04 949.896 1122.01 956.728C1117.76 951.565 1110.22 947.119 1100.39 943.982C1090.56 940.845 1078.89 939.164 1066.95 939.163C1065.66 939.163 1064.37 939.163 1063.11 939.224C1058.16 931.741 1048.65 925.075 1035.72 920.023C1022.8 914.972 1007 911.748 990.219 910.738C973.438 909.728 956.382 910.973 941.09 914.326C925.799 917.679 912.919 922.998 903.99 929.646C895.791 927.706 886.723 926.684 877.514 926.66C868.304 926.637 859.212 927.613 850.967 929.51C842.722 931.407 835.555 934.173 830.042 937.584C824.53 940.996 820.825 944.958 819.227 949.152C809.26 945.08 796.605 942.69 783.324 942.371C770.043 942.052 756.921 943.824 746.096 947.396C739.333 943.598 730.471 940.718 720.453 939.062C710.434 937.406 699.632 937.035 689.195 937.99C678.757 938.945 669.074 941.19 661.174 944.486C653.274 947.781 647.452 952.005 644.326 956.708C635.846 952.453 625.012 949.351 612.994 947.739C600.977 946.126 588.234 946.065 576.147 947.56C569.618 941.638 559.237 936.812 546.464 933.762C533.69 930.712 519.17 929.592 504.948 930.559C492.453 924.944 475.806 921.738 458.386 921.591C440.965 921.444 424.077 924.368 411.148 929.769C399.009 928.122 386.122 928.058 373.909 929.585C361.697 931.113 350.636 934.171 341.947 938.423C336.104 933.332 327.369 929.073 316.681 926.106C305.994 923.14 293.759 921.577 281.294 921.587H280.827C274.371 912.733 261.499 905.182 244.389 900.212C227.28 895.242 206.983 893.157 186.932 894.31C166.881 895.463 148.307 899.784 134.351 906.54C120.396 913.297 111.915 922.076 110.345 931.391C109.168 931.391 107.97 931.391 106.771 931.391C94.9835 931.383 83.3642 932.683 72.889 935.182C62.4137 937.681 53.3883 941.307 46.5709 945.753C39.7534 950.2 35.3431 955.338 33.7102 960.736C32.0774 966.134 33.2697 971.635 37.1872 976.775C41.1046 981.916 47.6326 986.548 56.223 990.28C64.8134 994.012 75.2152 996.737 86.5548 998.225C97.8943 999.713 109.84 999.92 121.39 998.831C132.939 997.741 143.754 995.386 152.927 991.962H492.648C505.573 994.025 519.536 994.254 532.743 992.619C538.542 997.896 547.416 1002.32 558.364 1005.38C569.311 1008.45 581.895 1010.04 594.693 1009.97C607.491 1009.9 619.992 1008.18 630.784 1005C641.575 1001.81 650.227 997.299 655.76 991.962H746.784C756.642 995.131 768.359 996.829 780.364 996.829C792.368 996.829 804.086 995.131 813.943 991.962H1046.26C1059.6 994.276 1074.3 994.276 1087.64 991.962H1135.13C1145.47 996.737 1158.92 999.807 1173.4 1000.7C1173.29 1001.41 1173.2 1002.12 1173.2 1002.83C1173.23 1007.91 1176.33 1012.88 1182.14 1017.19C1187.95 1021.49 1196.25 1024.96 1206.1 1027.2C1215.96 1029.44 1226.96 1030.37 1237.89 1029.87C1248.81 1029.37 1259.22 1027.47 1267.93 1024.38C1276.64 1021.29 1283.32 1017.14 1287.2 1012.39C1291.08 1007.64 1292.01 1002.49 1289.89 997.506C1287.77 992.525 1282.69 987.917 1275.2 984.202C1267.72 980.487 1258.15 977.813 1247.55 976.481Z" fill="white"/>
</g>
<defs>
<radialGradient id="paint0_radial" cx="0" cy="0" r="1" gradientUnits="userSpaceOnUse" gradientTransform="translate(78632.7 73284.9) scale(7674.56)">
<stop stop-color="white"/>
<stop offset="0.56" stop-color="#4072B6"/>
<stop offset="0.6" stop-color="#31588D"/>
<stop offset="0.63" stop-color="#244167"/>
<stop offset="0.68" stop-color="#192D47"/>
<stop offset="0.72" stop-color="#101C2D"/>
<stop offset="0.77" stop-color="#091019"/>
<stop offset="0.82" stop-color="#04070B"/>
<stop offset="0.89" stop-color="#010202"/>
<stop offset="1"/>
</radialGradient>
<radialGradient id="paint1_radial" cx="0" cy="0" r="1" gradientUnits="userSpaceOnUse" gradientTransform="translate(66498.7 61938.1) scale(5473.35)">
<stop stop-color="white"/>
<stop offset="0.56" stop-color="#4072B6"/>
<stop offset="0.6" stop-color="#31588D"/>
<stop offset="0.63" stop-color="#244167"/>
<stop offset="0.68" stop-color="#192D47"/>
<stop offset="0.72" stop-color="#101C2D"/>
<stop offset="0.77" stop-color="#091019"/>
<stop offset="0.82" stop-color="#04070B"/>
<stop offset="0.89" stop-color="#010202"/>
<stop offset="1"/>
</radialGradient>
<linearGradient id="paint2_linear" x1="534.554" y1="314.692" x2="661.97" y2="314.692" gradientUnits="userSpaceOnUse">
<stop stop-color="#00FFDF"/>
<stop offset="1" stop-color="#379FCD"/>
</linearGradient>
<linearGradient id="paint3_linear" x1="27481.1" y1="34942.1" x2="29120.6" y2="34942.1" gradientUnits="userSpaceOnUse">
<stop stop-color="#41FFE7"/>
<stop offset="1" stop-color="#00C3D4"/>
</linearGradient>
<linearGradient id="paint4_linear" x1="17176.5" y1="17869" x2="17950.4" y2="17869" gradientUnits="userSpaceOnUse">
<stop stop-color="#00FFDF"/>
<stop offset="1" stop-color="#00C3D4"/>
</linearGradient>
<clipPath id="clip0">
<rect width="2158" height="969" fill="white"/>
</clipPath>
<clipPath id="clip1">
<rect width="1185" height="684" fill="white" transform="translate(271 355)"/>
</clipPath>
</defs>
</svg>
