<svg width="1440" height="835" viewBox="0 0 1440 835" fill="none" xmlns="http://www.w3.org/2000/svg">
<g style="mix-blend-mode:screen" opacity="0.03">
<path d="M351.742 791.77L370.059 806.38L351.742 791.77ZM351.742 791.77L333.46 777.15L351.742 791.77ZM351.742 791.77L302.277 797.17L351.742 791.77ZM351.742 791.77L401.241 786.36" stroke="white" stroke-width="2" stroke-miterlimit="10"/>
</g>
<path d="M1454.23 801.295C1458.4 790.416 1455.29 779.057 1445.49 769.375C1435.69 759.694 1419.88 752.366 1401.07 748.782C1382.25 745.197 1361.74 745.607 1343.43 749.933C1325.11 754.259 1310.28 762.2 1301.73 772.247C1296.58 764.654 1287.42 758.117 1275.48 753.503C1263.54 748.89 1249.37 746.418 1234.86 746.416C1233.29 746.416 1231.73 746.416 1230.19 746.506C1224.18 735.501 1212.63 725.698 1196.93 718.269C1181.24 710.841 1162.05 706.1 1141.66 704.615C1121.28 703.129 1100.56 704.961 1081.99 709.892C1063.42 714.823 1047.77 722.644 1036.93 732.42C1026.97 729.568 1015.95 728.064 1004.77 728.03C993.583 727.995 982.538 729.431 972.524 732.221C962.51 735.011 953.805 739.078 947.109 744.095C940.413 749.111 935.913 754.938 933.971 761.105C921.866 755.118 906.494 751.603 890.363 751.134C874.232 750.665 858.293 753.27 845.145 758.524C836.931 752.938 826.167 748.703 813.998 746.267C801.829 743.832 788.709 743.287 776.031 744.692C763.354 746.096 751.592 749.397 741.997 754.243C732.401 759.09 725.329 765.301 721.533 772.217C711.233 765.96 698.073 761.399 683.476 759.028C668.879 756.657 653.402 756.566 638.72 758.765C630.791 750.056 618.181 742.958 602.666 738.473C587.152 733.988 569.515 732.341 552.24 733.764C537.064 725.506 516.844 720.79 495.685 720.575C474.525 720.359 454.012 724.658 438.309 732.601C423.564 730.179 407.911 730.085 393.078 732.332C378.244 734.578 364.809 739.075 354.255 745.328C347.158 737.841 336.548 731.578 323.567 727.215C310.585 722.852 295.725 720.554 280.584 720.569H280.018C272.175 707.548 256.541 696.445 235.759 689.135C214.978 681.826 190.324 678.76 165.97 680.456C141.615 682.152 119.055 688.505 102.104 698.442C85.1531 708.378 74.8528 721.288 72.9454 734.987C71.5162 734.987 70.06 734.987 68.6038 734.987C54.2868 734.975 40.1737 736.887 27.4502 740.562C14.7266 744.237 3.76415 749.568 -4.51648 756.107C-12.7971 762.646 -18.1541 770.203 -20.1373 778.141C-22.1206 786.079 -20.6724 794.169 -15.9142 801.729C-11.156 809.289 -3.22683 816.099 7.20727 821.588C17.6414 827.077 30.2757 831.083 44.049 833.272C57.8224 835.46 72.3325 835.765 86.3605 834.163C100.389 832.56 113.525 829.097 124.666 824.062H537.301C552.999 827.096 569.959 827.433 586.002 825.029C593.044 832.788 603.824 839.289 617.121 843.798C630.418 848.306 645.703 850.642 661.247 850.542C676.792 850.441 691.976 847.908 705.084 843.229C718.191 838.549 728.7 831.91 735.42 824.062H845.981C857.954 828.722 872.186 831.219 886.767 831.219C901.349 831.219 915.581 828.722 927.554 824.062H1209.73C1225.93 827.465 1243.79 827.465 1259.99 824.062H1317.67C1330.23 831.084 1346.57 835.599 1364.16 836.91C1364.03 837.952 1363.92 838.994 1363.92 840.051C1363.95 847.516 1367.71 854.827 1374.78 861.159C1381.84 867.492 1391.92 872.593 1403.88 875.888C1415.85 879.183 1429.22 880.54 1442.49 879.806C1455.76 879.072 1468.4 876.277 1478.98 871.736C1489.56 867.194 1497.67 861.087 1502.38 854.104C1507.09 847.121 1508.23 839.539 1505.65 832.214C1503.08 824.889 1496.9 818.113 1487.81 812.65C1478.73 807.186 1467.09 803.254 1454.23 801.295Z" fill="white"/>
<path d="M2594.23 909.626C2598.4 922.845 2595.29 936.646 2585.49 948.409C2575.69 960.171 2559.88 969.076 2541.07 973.43C2522.25 977.785 2501.74 977.287 2483.43 972.031C2465.11 966.775 2450.28 957.127 2441.73 944.919C2436.58 954.146 2427.42 962.088 2415.48 967.694C2403.54 973.299 2389.37 976.302 2374.86 976.305C2373.29 976.305 2371.73 976.305 2370.19 976.195C2364.18 989.566 2352.63 1001.48 2336.93 1010.5C2321.24 1019.53 2302.05 1025.29 2281.66 1027.09C2261.28 1028.9 2240.56 1026.67 2221.99 1020.68C2203.42 1014.69 2187.77 1005.19 2176.93 993.31C2166.97 996.775 2155.95 998.602 2144.77 998.644C2133.58 998.686 2122.54 996.942 2112.52 993.552C2102.51 990.162 2093.8 985.22 2087.11 979.125C2080.41 973.03 2075.91 965.951 2073.97 958.457C2061.87 965.732 2046.49 970.002 2030.36 970.572C2014.23 971.142 1998.29 967.977 1985.15 961.594C1976.93 968.38 1966.17 973.526 1954 976.485C1941.83 979.444 1928.71 980.106 1916.03 978.399C1903.35 976.693 1891.59 972.683 1882 966.794C1872.4 960.906 1865.33 953.359 1861.53 944.956C1851.23 952.559 1838.07 958.101 1823.48 960.981C1808.88 963.862 1793.4 963.973 1778.72 961.3C1770.79 971.882 1758.18 980.506 1742.67 985.955C1727.15 991.405 1709.51 993.406 1692.24 991.677C1677.06 1001.71 1656.84 1007.44 1635.68 1007.7C1614.53 1007.96 1594.01 1002.74 1578.31 993.09C1563.56 996.033 1547.91 996.146 1533.08 993.417C1518.24 990.688 1504.81 985.223 1494.26 977.626C1487.16 986.724 1476.55 994.333 1463.57 999.633C1450.59 1004.93 1435.72 1007.73 1420.58 1007.71H1420.02C1412.18 1023.53 1396.54 1037.02 1375.76 1045.9C1354.98 1054.78 1330.32 1058.51 1305.97 1056.45C1281.62 1054.39 1259.05 1046.67 1242.1 1034.59C1225.15 1022.52 1214.85 1006.84 1212.95 990.191C1211.52 990.191 1210.06 990.191 1208.6 990.191C1194.29 990.205 1180.17 987.882 1167.45 983.417C1154.73 978.952 1143.76 972.474 1135.48 964.529C1127.2 956.585 1121.85 947.404 1119.86 937.759C1117.88 928.113 1119.33 918.285 1124.09 909.1C1128.84 899.914 1136.77 891.639 1147.21 884.971C1157.64 878.302 1170.28 873.434 1184.05 870.775C1197.82 868.116 1212.33 867.745 1226.36 869.692C1240.39 871.639 1253.53 875.848 1264.67 881.964H1677.3C1693 878.278 1709.96 877.869 1726 880.79C1733.04 871.363 1743.82 863.464 1757.12 857.986C1770.42 852.508 1785.7 849.67 1801.25 849.792C1816.79 849.914 1831.98 852.992 1845.08 858.677C1858.19 864.362 1868.7 872.429 1875.42 881.964H1985.98C1997.95 876.303 2012.19 873.269 2026.77 873.269C2041.35 873.269 2055.58 876.303 2067.55 881.964H2349.73C2365.93 877.83 2383.79 877.83 2399.99 881.964H2457.67C2470.23 873.432 2486.57 867.947 2504.16 866.354C2504.03 865.088 2503.92 863.823 2503.92 862.538C2503.95 853.468 2507.71 844.585 2514.78 836.891C2521.84 829.198 2531.92 822.999 2543.88 818.996C2555.85 814.993 2569.22 813.344 2582.49 814.236C2595.76 815.127 2608.4 818.523 2618.98 824.041C2629.56 829.559 2637.67 836.979 2642.38 845.464C2647.09 853.948 2648.23 863.16 2645.65 872.06C2643.08 880.96 2636.9 889.193 2627.81 895.831C2618.73 902.468 2607.09 907.247 2594.23 909.626Z" fill="white"/>
<rect y="781" width="1442" height="214" fill="white"/>
<g style="mix-blend-mode:overlay" opacity="0.6">
<path d="M1028.22 578.148C1029.28 577.113 1030.62 576.412 1032.07 576.134C1033.52 575.856 1035.03 576.013 1036.39 576.584C1037.76 577.156 1038.92 578.117 1039.74 579.348C1040.56 580.578 1041 582.022 1041 583.5C1041 584.977 1040.56 586.422 1039.74 587.652C1038.92 588.883 1037.76 589.844 1036.39 590.416C1035.03 590.987 1033.52 591.144 1032.07 590.866C1030.62 590.588 1029.28 589.887 1028.22 588.852C1027.52 588.149 1026.96 587.315 1026.58 586.397C1026.2 585.478 1026 584.494 1026 583.5C1026 582.506 1026.2 581.522 1026.58 580.603C1026.96 579.685 1027.52 578.85 1028.22 578.148Z" fill="#CCCFD0"/>
</g>
<g style="mix-blend-mode:overlay" opacity="0.6">
<path d="M1318.66 39.0422C1318.99 38.715 1319.37 38.4545 1319.79 38.2757C1320.22 38.0969 1320.67 38.0033 1321.13 38.0001C1321.59 37.9969 1322.05 38.0842 1322.47 38.2572C1322.9 38.4301 1323.29 38.6853 1323.61 39.0081C1323.94 39.3308 1324.2 39.7149 1324.38 40.1383C1324.56 40.5618 1324.65 41.0163 1324.66 41.4759C1324.66 41.9356 1324.57 42.3912 1324.4 42.8171C1324.23 43.2429 1323.97 43.6305 1323.65 43.9578C1323.33 44.285 1322.94 44.5455 1322.52 44.7243C1322.09 44.9031 1321.64 44.9967 1321.18 44.9999C1320.72 45.0031 1320.27 44.9158 1319.84 44.7428C1319.41 44.5699 1319.03 44.3147 1318.7 43.9919C1318.37 43.6692 1318.11 43.2851 1317.93 42.8617C1317.75 42.4382 1317.66 41.9837 1317.66 41.5241C1317.65 41.0644 1317.74 40.6088 1317.91 40.1829C1318.09 39.7571 1318.34 39.3695 1318.66 39.0422Z" fill="#CCCFD0"/>
</g>
<g style="mix-blend-mode:overlay" opacity="0.6">
<path d="M1023.77 242.228C1024.14 241.85 1024.57 241.546 1025.05 241.336C1025.53 241.125 1026.05 241.011 1026.58 241.001C1027.1 240.99 1027.62 241.084 1028.11 241.275C1028.6 241.466 1029.05 241.752 1029.43 242.116C1029.81 242.48 1030.11 242.915 1030.32 243.396C1030.53 243.877 1030.65 244.395 1030.66 244.921C1030.67 245.446 1030.57 245.968 1030.38 246.457C1030.19 246.946 1029.9 247.393 1029.54 247.772C1028.81 248.537 1027.8 248.978 1026.74 248.999C1025.67 249.02 1024.65 248.619 1023.88 247.884C1023.12 247.149 1022.68 246.14 1022.66 245.079C1022.64 244.019 1023.04 242.993 1023.77 242.228Z" fill="#CCCFD0"/>
</g>
<g style="mix-blend-mode:overlay" opacity="0.6">
<path d="M986.233 211.603C987.27 210.576 988.675 210 990.139 210C991.602 210 993.007 210.576 994.045 211.603C995.077 212.635 995.656 214.032 995.656 215.488C995.656 216.944 995.077 218.341 994.045 219.373C993.542 219.888 992.94 220.297 992.275 220.577C991.61 220.856 990.896 221 990.174 221C989.453 221 988.738 220.856 988.073 220.577C987.408 220.297 986.807 219.888 986.304 219.373C985.262 218.35 984.67 216.958 984.656 215.502C984.643 214.047 985.21 212.644 986.233 211.603Z" fill="#CCCFD0"/>
</g>
<g style="mix-blend-mode:overlay" opacity="0.6">
<path d="M850.646 12.9862C851.13 12.4034 851.729 11.9267 852.406 11.5863C853.083 11.2459 853.823 11.0491 854.579 11.0081C855.336 10.967 856.093 11.0828 856.802 11.348C857.512 11.6132 858.159 12.0221 858.703 12.5492C859.248 13.0763 859.677 13.7102 859.965 14.4111C860.253 15.112 860.392 15.8647 860.376 16.6221C860.359 17.3796 860.186 18.1254 859.867 18.8127C859.548 19.5001 859.091 20.1143 858.524 20.6167C857.487 21.5358 856.141 22.0294 854.755 21.9986C853.369 21.9678 852.046 21.415 851.051 20.4507C850.055 19.4864 849.46 18.1817 849.385 16.7977C849.31 15.4137 849.76 14.0525 850.646 12.9862Z" fill="#CCCFD0"/>
</g>
<g style="mix-blend-mode:overlay" opacity="0.6">
<path d="M575.269 183.986C575.753 183.403 576.352 182.927 577.029 182.586C577.706 182.246 578.446 182.049 579.202 182.008C579.959 181.967 580.716 182.083 581.425 182.348C582.135 182.613 582.782 183.022 583.327 183.549C583.871 184.076 584.3 184.71 584.588 185.411C584.876 186.112 585.015 186.865 584.999 187.622C584.982 188.38 584.809 189.125 584.49 189.813C584.172 190.5 583.714 191.114 583.147 191.617C582.11 192.536 580.764 193.029 579.378 192.999C577.992 192.968 576.669 192.415 575.674 191.451C574.678 190.486 574.083 189.182 574.008 187.798C573.933 186.414 574.383 185.053 575.269 183.986Z" fill="#CCCFD0"/>
</g>
<g style="mix-blend-mode:overlay" opacity="0.6">
<path d="M659.402 496.374C660.104 495.625 660.951 495.028 661.893 494.619C662.835 494.211 663.85 494 664.877 494C665.903 494 666.919 494.211 667.861 494.619C668.803 495.028 669.65 495.625 670.352 496.374C671.351 497.442 672.017 498.778 672.267 500.219C672.517 501.66 672.34 503.142 671.758 504.484C671.176 505.826 670.215 506.968 668.992 507.77C667.77 508.573 666.339 509 664.877 509C663.415 509 661.984 508.573 660.762 507.77C659.539 506.968 658.578 505.826 657.996 504.484C657.414 503.142 657.237 501.66 657.487 500.219C657.737 498.778 658.403 497.442 659.402 496.374Z" fill="#CCCFD0"/>
</g>
<g style="mix-blend-mode:overlay" opacity="0.6">
<path d="M745.664 267.042C746.316 266.381 747.204 266.006 748.132 266C749.06 265.994 749.953 266.356 750.614 267.008C751.275 267.66 751.65 268.548 751.656 269.476C751.663 270.404 751.3 271.297 750.648 271.958C749.996 272.619 749.109 272.994 748.18 273C747.252 273.006 746.359 272.644 745.698 271.992C745.038 271.34 744.663 270.453 744.656 269.524C744.65 268.596 745.012 267.703 745.664 267.042Z" fill="#CCCFD0"/>
</g>
<path opacity="0.6" d="M1028.22 578.148C1029.28 577.113 1030.62 576.412 1032.07 576.134C1033.52 575.856 1035.03 576.013 1036.39 576.584C1037.76 577.156 1038.92 578.117 1039.74 579.348C1040.56 580.578 1041 582.022 1041 583.5C1041 584.977 1040.56 586.422 1039.74 587.652C1038.92 588.883 1037.76 589.844 1036.39 590.416C1035.03 590.987 1033.52 591.144 1032.07 590.866C1030.62 590.588 1029.28 589.887 1028.22 588.852C1027.52 588.149 1026.96 587.315 1026.58 586.397C1026.2 585.478 1026 584.494 1026 583.5C1026 582.506 1026.2 581.522 1026.58 580.603C1026.96 579.685 1027.52 578.85 1028.22 578.148Z" fill="#CCCFD0"/>
<path opacity="0.6" d="M759.517 376.159C760.276 375.416 761.299 375 762.364 375C763.429 375 764.452 375.416 765.211 376.159C765.958 376.913 766.377 377.928 766.377 378.987C766.377 380.045 765.958 381.06 765.211 381.814C764.839 382.19 764.396 382.488 763.907 382.692C763.419 382.895 762.894 383 762.364 383C761.834 383 761.309 382.895 760.821 382.692C760.332 382.488 759.889 382.19 759.517 381.814C758.785 381.053 758.377 380.04 758.377 378.987C758.377 377.933 758.785 376.92 759.517 376.159Z" fill="white"/>
<path opacity="0.6" d="M293.141 406.159C293.9 405.416 294.922 405 295.987 405C297.052 405 298.075 405.416 298.834 406.159C299.581 406.913 300 407.928 300 408.987C300 410.045 299.581 411.06 298.834 411.814C298.462 412.19 298.019 412.488 297.53 412.692C297.042 412.895 296.517 413 295.987 413C295.457 413 294.933 412.895 294.444 412.692C293.955 412.488 293.512 412.19 293.141 411.814C292.408 411.053 292 410.04 292 408.987C292 407.933 292.408 406.92 293.141 406.159Z" fill="white"/>
<path opacity="0.6" d="M1318.66 39.0422C1318.99 38.715 1319.37 38.4545 1319.79 38.2757C1320.22 38.0969 1320.67 38.0033 1321.13 38.0001C1321.59 37.9969 1322.05 38.0842 1322.47 38.2572C1322.9 38.4301 1323.29 38.6853 1323.61 39.0081C1323.94 39.3308 1324.2 39.7149 1324.38 40.1383C1324.56 40.5618 1324.65 41.0163 1324.66 41.4759C1324.66 41.9356 1324.57 42.3912 1324.4 42.8171C1324.23 43.2429 1323.97 43.6305 1323.65 43.9578C1323.33 44.285 1322.94 44.5455 1322.52 44.7243C1322.09 44.9031 1321.64 44.9967 1321.18 44.9999C1320.72 45.0031 1320.27 44.9158 1319.84 44.7428C1319.41 44.5699 1319.03 44.3147 1318.7 43.9919C1318.37 43.6692 1318.11 43.2851 1317.93 42.8617C1317.75 42.4382 1317.66 41.9837 1317.66 41.5241C1317.65 41.0644 1317.74 40.6088 1317.91 40.1829C1318.09 39.7571 1318.34 39.3695 1318.66 39.0422Z" fill="#CCCFD0"/>
<path opacity="0.6" d="M1323.03 170.606C1323.53 170.097 1324.13 169.693 1324.8 169.418C1325.46 169.142 1326.17 169 1326.89 169C1327.61 169 1328.32 169.142 1328.98 169.418C1329.65 169.693 1330.25 170.097 1330.75 170.606C1331.27 171.114 1331.68 171.719 1331.95 172.385C1332.23 173.052 1332.38 173.766 1332.38 174.487C1332.38 175.209 1332.23 175.923 1331.95 176.589C1331.68 177.255 1331.27 177.86 1330.75 178.369C1330.25 178.885 1329.64 179.295 1328.97 179.575C1328.31 179.856 1327.59 180 1326.86 180C1326.14 180 1325.42 179.856 1324.75 179.575C1324.09 179.295 1323.48 178.885 1322.98 178.369C1322.47 177.857 1322.06 177.249 1321.79 176.581C1321.51 175.914 1321.37 175.198 1321.38 174.477C1321.38 173.755 1321.53 173.042 1321.81 172.378C1322.1 171.713 1322.51 171.111 1323.03 170.606Z" fill="white"/>
<path opacity="0.6" d="M477.652 55.6058C478.156 55.0972 478.757 54.6933 479.42 54.4176C480.082 54.1419 480.794 54 481.513 54C482.231 54 482.943 54.1419 483.606 54.4176C484.269 54.6933 484.87 55.0972 485.374 55.6058C485.889 56.1145 486.298 56.7193 486.577 57.3855C486.856 58.0516 487 58.7658 487 59.4872C487 60.2087 486.856 60.923 486.577 61.5892C486.298 62.2553 485.889 62.86 485.374 63.3687C484.869 63.8848 484.265 64.2952 483.597 64.5754C482.93 64.8556 482.212 65 481.488 65C480.763 65 480.045 64.8556 479.378 64.5754C478.71 64.2952 478.106 63.8848 477.601 63.3687C477.089 62.8567 476.684 62.2493 476.409 61.5814C476.134 60.9135 475.995 60.1983 476 59.4769C476.005 58.7555 476.153 58.0421 476.437 57.3777C476.72 56.7134 477.133 56.1112 477.652 55.6058Z" fill="white"/>
<path opacity="0.6" d="M970.222 2.88906C970.926 2.04127 971.798 1.34792 972.783 0.852804C973.767 0.357691 974.844 0.0713952 975.944 0.011733C977.044 -0.0479291 978.145 0.120406 979.177 0.50617C980.21 0.891935 981.151 1.48672 981.943 2.25342C982.734 3.02011 983.359 3.94217 983.778 4.9616C984.196 5.98104 984.399 7.07591 984.375 8.17765C984.35 9.27939 984.099 10.3642 983.635 11.364C983.172 12.3638 982.507 13.2572 981.682 13.9879C980.173 15.3248 978.215 16.0428 976.199 15.998C974.184 15.9532 972.259 15.149 970.811 13.7464C969.363 12.3438 968.498 10.4461 968.389 8.433C968.28 6.41992 968.934 4.44002 970.222 2.88906Z" fill="#CCCFD0"/>
<path opacity="0.6" d="M745.664 267.042C746.316 266.381 747.204 266.006 748.132 266C749.06 265.994 749.953 266.356 750.614 267.008C751.275 267.66 751.65 268.548 751.656 269.476C751.663 270.404 751.3 271.297 750.648 271.958C749.996 272.619 749.109 272.994 748.18 273C747.252 273.006 746.359 272.644 745.698 271.992C745.038 271.34 744.663 270.453 744.656 269.524C744.65 268.596 745.012 267.703 745.664 267.042Z" fill="white"/>
<g style="mix-blend-mode:overlay" opacity="0.6">
<path d="M332.246 537.879C332.666 537.46 333.202 537.174 333.785 537.058C334.368 536.942 334.972 537.001 335.521 537.228C336.071 537.455 336.54 537.84 336.87 538.333C337.201 538.827 337.377 539.407 337.377 540C337.377 540.593 337.201 541.174 336.87 541.667C336.54 542.16 336.071 542.545 335.521 542.772C334.972 542.999 334.368 543.058 333.785 542.942C333.202 542.826 332.666 542.54 332.246 542.121C331.689 541.555 331.377 540.793 331.377 540C331.377 539.207 331.689 538.445 332.246 537.879Z" fill="#CCCFD0"/>
</g>
<g style="mix-blend-mode:overlay" opacity="0.6">
<path d="M597.913 492.046C598.114 491.759 598.374 491.518 598.677 491.34C598.979 491.162 599.317 491.051 599.667 491.014C600.016 490.977 600.37 491.015 600.703 491.126C601.037 491.236 601.343 491.417 601.6 491.656C601.856 491.894 602.059 492.185 602.193 492.508C602.326 492.831 602.389 493.179 602.375 493.528C602.362 493.877 602.273 494.219 602.114 494.531C601.956 494.843 601.731 495.118 601.457 495.336C601.012 495.762 600.419 496 599.801 496C599.183 496 598.59 495.762 598.145 495.336C597.698 494.916 597.426 494.345 597.383 493.736C597.34 493.126 597.529 492.523 597.913 492.046Z" fill="#CCCFD0"/>
</g>
<g style="mix-blend-mode:overlay" opacity="0.6">
<path d="M436.402 508.025C436.892 507.535 437.516 507.202 438.194 507.067C438.873 506.932 439.577 507.002 440.217 507.266C440.856 507.531 441.403 507.98 441.787 508.556C442.172 509.131 442.377 509.808 442.377 510.5C442.377 511.192 442.172 511.869 441.787 512.444C441.403 513.02 440.856 513.469 440.217 513.733C439.577 513.998 438.873 514.068 438.194 513.933C437.516 513.798 436.892 513.465 436.402 512.975C436.077 512.65 435.819 512.264 435.644 511.84C435.468 511.415 435.377 510.96 435.377 510.5C435.377 510.04 435.468 509.585 435.644 509.16C435.819 508.736 436.077 508.35 436.402 508.025Z" fill="#CCCFD0"/>
</g>
<path opacity="0.6" d="M238.536 530.172C239.096 529.613 239.81 529.232 240.587 529.077C241.365 528.922 242.17 529.002 242.903 529.304C243.635 529.607 244.261 530.12 244.701 530.778C245.142 531.435 245.377 532.209 245.377 533C245.377 533.791 245.142 534.565 244.701 535.223C244.261 535.88 243.635 536.393 242.903 536.696C242.17 536.999 241.365 537.077 240.587 536.923C239.81 536.768 239.096 536.387 238.536 535.828C237.793 535.073 237.377 534.058 237.377 533C237.377 531.942 237.793 530.927 238.536 530.172Z" fill="#CCCFD0"/>
<path opacity="0.6" d="M547.913 417.046C548.114 416.759 548.374 416.518 548.677 416.34C548.979 416.162 549.317 416.051 549.667 416.014C550.016 415.977 550.37 416.015 550.703 416.126C551.037 416.236 551.343 416.417 551.6 416.656C551.856 416.894 552.059 417.185 552.193 417.508C552.326 417.831 552.389 418.179 552.375 418.528C552.362 418.877 552.273 419.219 552.114 419.531C551.956 419.843 551.731 420.118 551.457 420.336C551.012 420.762 550.419 421 549.801 421C549.183 421 548.59 420.762 548.145 420.336C547.698 419.916 547.426 419.345 547.383 418.736C547.34 418.126 547.529 417.523 547.913 417.046Z" fill="#CCCFD0"/>
<path opacity="0.6" d="M433.402 418.025C433.892 417.535 434.516 417.202 435.194 417.067C435.873 416.932 436.577 417.002 437.217 417.266C437.856 417.531 438.403 417.98 438.787 418.556C439.172 419.131 439.377 419.808 439.377 420.5C439.377 421.192 439.172 421.869 438.787 422.444C438.403 423.02 437.856 423.469 437.217 423.733C436.577 423.998 435.873 424.068 435.194 423.933C434.516 423.798 433.892 423.465 433.402 422.975C433.077 422.65 432.819 422.264 432.644 421.84C432.468 421.415 432.377 420.96 432.377 420.5C432.377 420.04 432.468 419.585 432.644 419.16C432.819 418.736 433.077 418.35 433.402 418.025Z" fill="#CCCFD0"/>
<g style="mix-blend-mode:overlay" opacity="0.6">
<path d="M290.827 583.581C290.684 583.442 290.571 583.276 290.494 583.093C290.417 582.909 290.377 582.713 290.377 582.514C290.377 582.315 290.417 582.118 290.494 581.935C290.571 581.752 290.684 581.586 290.827 581.447C290.963 581.306 291.126 581.193 291.306 581.116C291.487 581.04 291.681 581 291.877 581C292.073 581 292.267 581.04 292.448 581.116C292.628 581.193 292.791 581.306 292.927 581.447C293.069 581.586 293.183 581.752 293.26 581.935C293.337 582.118 293.377 582.315 293.377 582.514C293.377 582.713 293.337 582.909 293.26 583.093C293.183 583.276 293.069 583.442 292.927 583.581C292.644 583.85 292.268 584 291.877 584C291.486 584 291.11 583.85 290.827 583.581Z" fill="#CCCFD0"/>
</g>
<path opacity="0.6" d="M383.827 616.581C383.684 616.442 383.571 616.276 383.494 616.093C383.417 615.909 383.377 615.713 383.377 615.514C383.377 615.315 383.417 615.118 383.494 614.935C383.571 614.752 383.684 614.586 383.827 614.447C383.963 614.306 384.126 614.193 384.306 614.116C384.487 614.04 384.681 614 384.877 614C385.073 614 385.267 614.04 385.448 614.116C385.628 614.193 385.791 614.306 385.927 614.447C386.069 614.586 386.183 614.752 386.26 614.935C386.337 615.118 386.377 615.315 386.377 615.514C386.377 615.713 386.337 615.909 386.26 616.093C386.183 616.276 386.069 616.442 385.927 616.581C385.644 616.85 385.268 617 384.877 617C384.486 617 384.11 616.85 383.827 616.581Z" fill="#CCCFD0"/>
<g opacity="0.32">
<path style="mix-blend-mode:screen" opacity="0.32" d="M383.25 256.25C425.086 214.414 425.086 146.586 383.25 104.75C341.414 62.9144 273.586 62.9145 231.75 104.75C189.914 146.586 189.914 214.414 231.75 256.25C273.586 298.086 341.414 298.086 383.25 256.25Z" fill="url(#paint0_radial)"/>
<path style="mix-blend-mode:color-dodge" opacity="0.32" d="M398.091 180.497C398.091 198.39 392.786 215.881 382.845 230.758C372.904 245.636 358.775 257.232 342.244 264.079C325.713 270.926 307.523 272.718 289.973 269.227C272.424 265.736 256.304 257.12 243.652 244.468C231 231.816 222.383 215.696 218.893 198.146C215.402 180.597 217.194 162.407 224.041 145.876C230.888 129.345 242.484 115.216 257.361 105.275C272.239 95.3342 289.73 90.0283 307.623 90.0283C331.617 90.0283 354.628 99.5599 371.594 116.526C388.56 133.492 398.091 156.503 398.091 180.497Z" fill="url(#paint1_radial)"/>
</g>
<path opacity="0.06" d="M306.001 270.925C355.901 270.925 396.353 230.473 396.353 180.572C396.353 130.672 355.901 90.2202 306.001 90.2202C256.1 90.2202 215.648 130.672 215.648 180.572C215.648 230.473 256.1 270.925 306.001 270.925Z" fill="white"/>
<path opacity="0.06" d="M305.672 292.035C366.182 292.035 415.235 242.982 415.235 182.472C415.235 121.963 366.182 72.9097 305.672 72.9097C245.162 72.9097 196.109 121.963 196.109 182.472C196.109 242.982 245.162 292.035 305.672 292.035Z" fill="white"/>
<path opacity="0.06" d="M376.93 180.572C376.93 194.601 372.77 208.315 364.976 219.979C357.182 231.644 346.104 240.735 333.143 246.104C320.182 251.472 305.92 252.877 292.161 250.14C278.402 247.403 265.763 240.648 255.843 230.728C245.924 220.808 239.168 208.169 236.431 194.41C233.694 180.651 235.099 166.389 240.468 153.428C245.836 140.467 254.928 129.39 266.592 121.596C278.257 113.802 291.97 109.642 305.999 109.642C324.811 109.642 342.853 117.115 356.155 130.417C369.457 143.719 376.93 161.76 376.93 180.572Z" fill="white"/>
<path d="M356.913 142.008C351.593 135.119 344.919 129.394 337.302 125.185C329.685 120.976 321.287 118.373 312.625 117.536C303.964 116.7 295.223 117.648 286.941 120.322C278.66 122.996 271.015 127.338 264.476 133.082C257.938 138.826 252.646 145.849 248.926 153.719C245.207 161.588 243.139 170.136 242.85 178.835C242.561 187.535 244.057 196.201 247.246 204.3C250.435 212.399 255.25 219.758 261.393 225.923C263.847 228.346 266.491 230.569 269.3 232.57C281.724 241.387 296.895 245.461 312.064 244.053C327.232 242.645 341.394 235.847 351.984 224.893C362.574 213.939 368.89 199.553 369.788 184.341C370.686 169.13 366.106 154.1 356.879 141.975L356.913 142.008Z" fill="url(#paint2_linear)"/>
<path d="M369.899 181.184C369.906 164.804 363.655 149.045 352.433 137.15C341.211 125.256 325.872 118.13 309.572 117.241L299.352 126.729C299.352 126.729 294.457 130.972 296.522 134.246C298.586 137.52 306.776 130.471 302.614 152.219C298.453 173.968 319.893 171.964 319.893 171.964C319.893 171.964 341.534 170.36 336.54 195.349C333.21 212.053 347.16 217.833 356.948 219.837C361.471 213.869 364.919 207.153 367.136 199.993C368.993 193.898 369.924 187.557 369.899 181.184Z" fill="url(#paint3_linear)"/>
<path d="M304.288 221.456C306.009 215.988 306.009 210.129 304.288 204.661C301.291 196.814 290.023 195.446 290.023 195.446C290.023 195.446 281.032 194.971 278.575 187.212C276.118 179.454 264.909 179.721 264.909 179.721L257.447 179.305C258.815 191.521 264.126 202.971 272.589 211.949C281.051 220.926 292.212 226.951 304.408 229.126C303.866 226.601 303.825 223.996 304.288 221.456Z" fill="url(#paint4_linear)"/>
<g style="mix-blend-mode:multiply" opacity="0.15">
<path d="M357.019 142.447L355.355 140.462C360.517 153.175 361.394 167.209 357.853 180.459C354.312 193.709 346.545 205.461 335.716 213.952C324.888 222.442 311.581 227.213 297.793 227.55C284.005 227.887 270.479 223.771 259.244 215.819C256.412 213.838 253.752 211.625 251.291 209.203C249.86 207.78 248.495 206.292 247.197 204.77C250.423 212.733 255.247 219.959 261.374 226.008C263.84 228.412 266.488 230.624 269.295 232.624C281.739 241.4 296.935 245.455 312.129 244.054C327.322 242.652 341.508 235.886 352.115 224.983C362.722 214.079 369.049 199.759 369.948 184.618C370.848 169.477 366.261 154.516 357.019 142.447Z" fill="#230753"/>
</g>
<path opacity="0.6" d="M1220.14 649.159C1220.9 648.416 1221.92 648 1222.99 648C1224.05 648 1225.07 648.416 1225.83 649.159C1226.58 649.913 1227 650.928 1227 651.987C1227 653.045 1226.58 654.06 1225.83 654.814C1225.46 655.19 1225.02 655.488 1224.53 655.692C1224.04 655.895 1223.52 656 1222.99 656C1222.46 656 1221.93 655.895 1221.44 655.692C1220.96 655.488 1220.51 655.19 1220.14 654.814C1219.41 654.053 1219 653.04 1219 651.987C1219 650.933 1219.41 649.92 1220.14 649.159Z" fill="white"/>
<g clip-path="url(#clip0)">
<path d="M501.861 719.868L484.206 702.525L492.924 670.946L651.573 519.023L655.122 524.492L524.182 699.668L501.861 719.868Z" fill="#DEE8EB"/>
<path d="M375.55 509.316L376.992 502.803L389.46 499.192L388.518 505.701L398.116 516.615L396.697 525.628L408.281 535.025L411.437 552.498L389.92 550.69L385.782 535.226L385.657 521.227L375.55 509.316Z" fill="#DEE8EB"/>
<path d="M390.31 538.186L415.738 641.963L398.703 638.115L385.783 535.226L390.31 538.186Z" fill="#888787"/>
<path d="M407.782 535.029L440.016 644.897L455.499 670.61L474.498 670.44L472.588 680.457L447.357 710.684L433.299 704.309L433.219 695.31L429.139 686.346L413.045 675.989L418.768 645.087L401.836 541.083L407.782 535.029Z" fill="#888787"/>
<path d="M399.17 523.524C404.246 522.223 407.211 514.03 408.059 510.097L404.866 508.555C404.694 509.08 404.088 510.551 403.044 512.235C401.738 514.341 399.1 515.673 392.239 518.875C386.751 521.437 380.585 519.328 378.188 517.954L377.149 520.319C377.773 521.011 379.396 522.654 380.889 523.688C382.755 524.98 392.825 525.151 399.17 523.524Z" fill="#DEE8EB"/>
<path d="M388.126 514.893C392.056 513.916 394.353 507.771 395.011 504.82L392.539 503.665C392.405 504.058 391.937 505.162 391.127 506.425C390.116 508.005 388.073 509.005 382.761 511.408C378.512 513.33 373.738 511.75 371.883 510.72L371.078 512.493C371.561 513.013 372.817 514.245 373.973 515.019C375.417 515.988 383.213 516.115 388.126 514.893Z" fill="#DEE8EB"/>
<path d="M482.102 223.074C481.581 222.427 480.921 221.905 480.172 221.546C479.422 221.187 478.602 221.001 477.771 221.001C476.94 221.001 476.119 221.187 475.37 221.546C474.62 221.905 473.96 222.427 473.439 223.074C466.19 231.469 452.391 251.824 452.391 285.284V456.522C452.391 457.674 452.848 458.778 453.662 459.592C454.476 460.407 455.581 460.864 456.732 460.864H498.809C499.961 460.864 501.065 460.407 501.879 459.592C502.693 458.778 503.151 457.674 503.151 456.522V285.284C503.151 251.824 489.351 231.469 482.102 223.074Z" fill="#11E1D9"/>
<g style="mix-blend-mode:multiply" opacity="0.15">
<path d="M503.17 292.709H452.391V294.764H503.17V292.709Z" fill="#230753"/>
</g>
<g style="mix-blend-mode:multiply" opacity="0.15">
<path d="M503.17 335.359H452.391V337.414H503.17V335.359Z" fill="#230753"/>
</g>
<g style="mix-blend-mode:multiply" opacity="0.15">
<path d="M503.17 375.585H452.391V377.64H503.17V375.585Z" fill="#230753"/>
</g>
<g style="mix-blend-mode:multiply" opacity="0.15">
<path d="M482.102 223.074C481.519 222.405 480.788 221.881 479.967 221.545C479.146 221.208 478.258 221.068 477.373 221.136C484.577 235.572 488.207 251.529 487.956 267.662V438.88C487.958 439.452 487.848 440.019 487.631 440.548C487.414 441.077 487.094 441.558 486.691 441.964C486.287 442.369 485.808 442.69 485.28 442.91C484.752 443.129 484.186 443.242 483.614 443.242H452.391V456.716C452.391 457.867 452.848 458.972 453.662 459.786C454.476 460.601 455.581 461.058 456.732 461.058H498.809C499.961 461.058 501.065 460.601 501.879 459.786C502.693 458.972 503.151 457.867 503.151 456.716V285.284C503.151 251.824 489.351 231.468 482.102 223.074Z" fill="#230753"/>
</g>
<path d="M517.125 277.607C516.803 277.217 516.399 276.903 515.942 276.688C515.484 276.472 514.985 276.36 514.479 276.36C513.974 276.36 513.474 276.472 513.017 276.688C512.56 276.903 512.156 277.217 511.834 277.607C505.945 285.407 502.883 294.978 503.151 304.748V498.066H525.788V304.787C526.06 295.007 523.006 285.425 517.125 277.607Z" fill="#E3E9EC"/>
<path d="M522.667 523.831H506.271L500.107 515.281H528.831L522.667 523.831Z" fill="#EEFAF7"/>
<path d="M508.325 506.732H520.613L528.831 515.281H500.107L508.325 506.732Z" fill="#BDC2C4"/>
<path d="M532.437 510.163H496.504L503.152 498.105H525.789L532.437 510.163Z" fill="#EEFAF7"/>
<g style="mix-blend-mode:multiply" opacity="0.15">
<path d="M525.789 498.105V304.787C526.052 295.021 522.998 285.454 517.126 277.647C516.631 277.053 515.952 276.642 515.196 276.48C514.441 276.318 513.653 276.415 512.959 276.755C516.101 283.212 517.687 290.317 517.591 297.498C517.591 315.643 517.804 504.173 517.804 504.173L496.484 510.183H532.418L525.789 498.105Z" fill="#230753"/>
</g>
<path d="M525.188 549.517C522.379 545.914 520.65 541.587 520.204 537.039C519.758 532.492 520.613 527.911 522.669 523.831H506.272C508.328 527.911 509.183 532.492 508.737 537.039C508.291 541.587 506.562 545.914 503.752 549.517C494.062 562.564 478.111 582.241 482.917 603.566H546.043C550.752 582.241 534.957 562.564 525.188 549.517Z" fill="#D9D9D9"/>
<path d="M443.728 278.286C443.406 277.896 443.002 277.582 442.545 277.366C442.087 277.151 441.588 277.039 441.082 277.039C440.577 277.039 440.078 277.151 439.62 277.366C439.163 277.582 438.759 277.896 438.437 278.286C432.565 286.093 429.511 295.66 429.773 305.427V498.725H452.392V305.465C452.672 295.684 449.617 286.099 443.728 278.286Z" fill="#E3E9EC"/>
<path d="M449.29 524.509H432.894L426.711 515.959H455.454L449.29 524.509Z" fill="#EEFAF7"/>
<g style="mix-blend-mode:multiply" opacity="0.15">
<path d="M525.148 515.281L520.322 521.969H504.934L506.271 523.831H522.668L528.831 515.281H525.148Z" fill="#230753"/>
</g>
<g style="mix-blend-mode:multiply" opacity="0.15">
<path d="M451.771 515.959L446.946 522.648H431.557L432.894 524.509H449.291L455.454 515.959H451.771Z" fill="#230753"/>
</g>
<path d="M434.948 507.411H447.217L455.454 515.96H426.711L434.948 507.411Z" fill="#BDC2C4"/>
<path d="M459.039 510.822H423.125L429.773 498.764H452.391L459.039 510.822Z" fill="#EEFAF7"/>
<g style="mix-blend-mode:multiply" opacity="0.15">
<path d="M452.392 498.764V305.465C452.664 295.698 449.609 286.127 443.728 278.325C443.245 277.728 442.573 277.313 441.823 277.147C441.073 276.982 440.29 277.076 439.6 277.414C442.95 284.017 444.646 291.335 444.542 298.738V504.134L423.223 510.822H459.136L452.392 498.764Z" fill="#230753"/>
</g>
<path d="M451.908 550.195C449.094 546.595 447.363 542.267 446.917 537.718C446.471 533.17 447.328 528.588 449.389 524.509H432.992C435.048 528.589 435.903 533.17 435.457 537.718C435.011 542.265 433.282 546.592 430.472 550.195C420.782 563.223 404.831 582.9 409.618 604.224H472.646C477.453 582.9 461.599 563.223 451.908 550.195Z" fill="#D9D9D9"/>
<g style="mix-blend-mode:multiply" opacity="0.15">
<path d="M525.788 340.942H503.189V342.881H525.788V340.942Z" fill="#230753"/>
</g>
<g style="mix-blend-mode:multiply" opacity="0.15">
<path d="M525.788 312.444H503.189V314.383H525.788V312.444Z" fill="#230753"/>
</g>
<g style="mix-blend-mode:multiply" opacity="0.15">
<path d="M452.392 340.942H429.793V342.881H452.392V340.942Z" fill="#230753"/>
</g>
<g style="mix-blend-mode:multiply" opacity="0.15">
<path d="M452.392 312.444H429.793V314.383H452.392V312.444Z" fill="#230753"/>
</g>
<path d="M534.744 454.641L505.381 421.433C502.122 417.727 499.99 413.167 499.237 408.289C496.931 393.188 491.678 358.428 488.577 334.952C484.856 307.326 479.042 303.43 477.976 302.906C477.843 302.867 477.701 302.867 477.569 302.906C476.425 303.43 470.611 307.326 466.967 334.952C463.866 358.428 458.614 393.11 456.307 408.289C455.554 413.167 453.422 417.727 450.163 421.433L420.897 454.641C420.897 454.641 416.478 459.217 416.401 472.923C416.397 473.036 416.431 473.147 416.497 473.239C416.564 473.33 416.66 473.396 416.769 473.427C436.77 478.116 457.259 480.394 477.801 480.212H477.937C498.479 480.394 518.968 478.116 538.969 473.427C539.078 473.396 539.174 473.33 539.24 473.239C539.307 473.147 539.341 473.036 539.337 472.923C539.124 459.217 534.744 454.641 534.744 454.641Z" fill="#EEFAF7"/>
<g style="mix-blend-mode:multiply" opacity="0.15">
<path d="M477.703 480.212H477.839C498.381 480.394 518.87 478.116 538.871 473.426C538.98 473.396 539.076 473.33 539.143 473.238C539.209 473.147 539.243 473.036 539.239 472.922C539.239 459.216 534.743 454.641 534.743 454.641L505.38 421.433C502.121 417.727 499.989 413.167 499.236 408.289C496.93 393.187 491.677 358.428 488.576 334.951C484.855 307.326 479.04 303.43 477.974 302.906L477.703 480.212Z" fill="#230753"/>
</g>
<path d="M509.781 543.391C508.012 543.391 506.26 543.74 504.626 544.419C504.772 543.346 504.85 542.264 504.858 541.181C504.951 537.863 504.377 534.56 503.172 531.467C501.966 528.374 500.153 525.554 497.84 523.174C495.526 520.795 492.759 518.903 489.701 517.611C486.644 516.319 483.359 515.654 480.04 515.654C476.721 515.654 473.436 516.319 470.379 517.611C467.322 518.903 464.555 520.795 462.241 523.174C459.927 525.554 458.114 528.374 456.908 531.467C455.703 534.56 455.13 537.863 455.222 541.181C455.231 542.264 455.309 543.346 455.455 544.419C453.821 543.74 452.069 543.391 450.299 543.391C448.222 543.395 446.174 543.875 444.311 544.795C442.449 545.715 440.823 547.051 439.558 548.699C438.294 550.348 437.424 552.264 437.017 554.302C436.61 556.339 436.676 558.443 437.21 560.451C437.744 562.458 438.732 564.317 440.097 565.882C441.463 567.448 443.17 568.679 445.086 569.481C447.002 570.283 449.077 570.633 451.15 570.506C453.224 570.379 455.24 569.778 457.044 568.748C457.915 570.926 459.336 572.84 461.167 574.305C462.999 575.77 465.178 576.735 467.494 577.106C469.809 577.477 472.181 577.241 474.378 576.422C476.575 575.603 478.523 574.228 480.031 572.432C481.538 574.228 483.486 575.603 485.683 576.422C487.88 577.241 490.252 577.477 492.567 577.106C494.883 576.735 497.062 575.77 498.894 574.305C500.725 572.84 502.146 570.926 503.017 568.748C504.82 569.777 506.836 570.379 508.908 570.506C510.981 570.634 513.055 570.283 514.971 569.483C516.886 568.682 518.593 567.452 519.959 565.888C521.325 564.324 522.313 562.467 522.848 560.46C523.384 558.453 523.451 556.35 523.046 554.314C522.641 552.277 521.774 550.36 520.512 548.711C519.249 547.062 517.625 545.725 515.765 544.803C513.905 543.88 511.857 543.397 509.781 543.391Z" fill="white"/>
<path d="M476.812 511.908C470.28 503.185 477.626 488.839 477.626 488.839H461.597C461.597 488.839 468.962 503.185 462.431 511.908C455.899 520.632 443.301 531.818 446.519 546.067H492.646C495.922 531.818 483.343 520.632 476.812 511.908Z" fill="white"/>
<path d="M477.626 488.838H461.598L465.164 457.51C465.279 456.498 465.764 455.563 466.526 454.887C467.288 454.21 468.273 453.84 469.292 453.846H470.009C471.025 453.845 472.005 454.217 472.763 454.893C473.521 455.569 474.004 456.501 474.118 457.51L477.626 488.838Z" fill="#4D4D5A"/>
<path d="M1141.75 804.231C1135.86 804.227 1130.2 806.563 1126.03 810.726C1125.3 806.572 1123.59 802.654 1121.03 799.3C1118.48 795.946 1115.16 793.254 1111.35 791.45C1107.54 789.646 1103.35 788.783 1099.14 788.932C1094.92 789.081 1090.81 790.24 1087.13 792.309C1085.4 785.531 1082.22 779.209 1077.81 773.781C1073.4 768.353 1067.86 763.948 1061.58 760.869C1055.3 757.791 1048.42 756.113 1041.43 755.952C1034.44 755.79 1027.5 757.149 1021.08 759.934C1021.08 758.597 1021.24 757.24 1021.24 755.863C1021.23 746.175 1018.86 736.634 1014.34 728.07C1009.81 719.505 1003.26 712.176 995.256 706.72C987.253 701.263 978.038 697.844 968.413 696.759C958.789 695.675 949.044 696.958 940.028 700.496C938.942 694.029 936.397 687.895 932.587 682.558C928.777 677.222 923.801 672.824 918.038 669.698C912.275 666.572 905.876 664.8 899.326 664.517C892.776 664.233 886.247 665.446 880.236 668.063C877.772 655.681 871.364 644.431 861.971 635.998C852.578 627.565 840.706 622.402 828.134 621.285C815.561 620.167 802.965 623.153 792.233 629.797C781.5 636.441 773.208 646.384 768.599 658.138C761.62 658.285 754.788 660.164 748.714 663.605C745.133 656.988 739.854 651.445 733.421 647.546C726.987 643.648 719.631 641.535 712.11 641.424C704.589 641.313 697.174 643.21 690.629 646.917C684.083 650.625 678.644 656.01 674.871 662.519C670.254 657.778 664.59 654.186 658.333 652.03C652.077 649.875 645.403 649.217 638.846 650.108C632.29 651 626.034 653.417 620.58 657.165C615.126 660.912 610.627 665.887 607.443 671.689C605.801 669.649 603.761 667.965 601.447 666.74C599.133 665.514 596.594 664.773 593.985 664.56C591.375 664.348 588.75 664.67 586.269 665.505C583.788 666.341 581.503 667.673 579.553 669.42C580.737 667.098 581.305 664.51 581.203 661.905C581.102 659.3 580.333 656.765 578.972 654.542C577.611 652.318 575.702 650.482 573.428 649.207C571.155 647.933 568.592 647.263 565.986 647.262C565.54 647.262 565.094 647.262 564.648 647.262C565.622 645.089 566.072 642.718 565.962 640.34C565.852 637.962 565.187 635.642 564.018 633.568C562.849 631.494 561.21 629.723 559.232 628.398C557.255 627.072 554.994 626.23 552.632 625.937C555.066 623.196 556.43 619.669 556.474 616.003C556.518 612.336 555.239 608.777 552.872 605.978C550.504 603.179 547.207 601.327 543.586 600.763C539.964 600.199 536.26 600.96 533.154 602.907C531.87 599.937 529.74 597.411 527.031 595.644C524.321 593.877 521.152 592.947 517.917 592.97C514.683 592.993 511.526 593.967 508.842 595.772C506.157 597.577 504.064 600.133 502.822 603.12C501.318 601.238 499.389 599.74 497.193 598.748C494.998 597.756 492.599 597.299 490.193 597.415C487.787 597.53 485.443 598.215 483.353 599.412C481.262 600.609 479.486 602.285 478.168 604.303H476.618C475.459 602.525 473.94 601.009 472.16 599.853C470.38 598.697 468.378 597.926 466.283 597.591C464.187 597.255 462.045 597.361 459.993 597.902C457.941 598.444 456.025 599.409 454.368 600.735C452.947 598.21 450.836 596.142 448.282 594.775C445.728 593.407 442.836 592.796 439.947 593.014C437.058 593.232 434.292 594.269 431.971 596.004C429.651 597.739 427.873 600.1 426.846 602.81C424.567 601.326 421.931 600.481 419.214 600.362C416.497 600.243 413.798 600.855 411.398 602.134C408.997 603.412 406.983 605.311 405.566 607.633C404.148 609.954 403.378 612.613 403.337 615.333C402.126 615.031 400.883 614.875 399.635 614.868C397.107 614.873 394.621 615.506 392.398 616.709C390.175 617.912 388.285 619.648 386.898 621.762C385.511 623.875 384.67 626.3 384.451 628.819C384.232 631.337 384.641 633.871 385.642 636.193C385.234 636.193 384.808 636.193 384.382 636.193C381.883 636.193 379.422 636.808 377.217 637.983C375.011 639.158 373.128 640.857 371.732 642.93C370.337 645.003 369.472 647.388 369.214 649.874C368.956 652.36 369.313 654.872 370.253 657.188C369.432 657.057 368.603 656.985 367.772 656.975C363.726 656.975 359.847 658.582 356.986 661.443C354.126 664.304 352.519 668.185 352.519 672.231C352.523 673.26 352.627 674.286 352.829 675.294C349.844 673.77 346.508 673.064 343.162 673.248C339.815 673.432 336.577 674.499 333.777 676.341C328.767 669.064 321.599 663.543 313.285 660.559C304.97 657.574 295.929 657.277 287.436 659.708C287.69 658.033 287.826 656.342 287.843 654.648C287.865 648.52 286.261 642.495 283.194 637.189C280.128 631.884 275.708 627.488 270.386 624.45C265.065 621.412 259.033 619.841 252.906 619.898C246.779 619.955 240.777 621.638 235.513 624.774C231.432 614.551 224.226 605.88 214.925 599.997C205.623 594.115 194.701 591.323 183.718 592.019C172.735 592.716 162.253 596.866 153.769 603.876C145.284 610.886 139.231 620.399 136.474 631.055C130.024 627.804 122.849 626.257 115.632 626.562C108.416 626.868 101.397 629.015 95.2449 632.8C89.0926 636.585 84.0109 641.882 80.4835 648.187C76.9561 654.492 75.1004 661.595 75.0929 668.819C75.0843 674.216 76.1243 679.562 78.1551 684.561C70.9088 686.052 64.3105 689.773 59.2848 695.204C54.2591 700.634 51.0578 707.501 50.1296 714.842C43.8494 711.457 36.6922 710.051 29.5984 710.809C22.5047 711.568 15.8064 714.456 10.384 719.093C4.96152 723.73 1.06864 729.9 -0.783033 736.792C-2.63471 743.683 -2.35854 750.973 0.00919151 757.705C-5.60071 760.186 -10.4686 764.085 -14.116 769.018C-17.7634 773.951 -20.0649 779.748 -20.7942 785.84C-21.5234 791.932 -20.6555 798.109 -18.2756 803.764C-15.8956 809.418 -12.0857 814.356 -7.22008 818.093C-4.92481 822.768 -1.22829 826.611 3.35419 829.085C7.93667 831.559 13.1768 832.542 18.344 831.895V832.089H1000.83C1005.28 838.414 1011.18 843.577 1018.04 847.146C1024.9 850.714 1032.51 852.584 1040.24 852.597C1047.97 852.61 1055.6 850.767 1062.47 847.222C1069.34 843.677 1075.26 838.534 1079.73 832.225C1082.2 835.21 1085.29 837.615 1088.79 839.27C1092.29 840.924 1096.11 841.788 1099.98 841.799C1103.86 841.81 1107.68 840.968 1111.19 839.334C1114.7 837.699 1117.81 835.312 1120.29 832.341C1121.38 836.345 1123.56 839.965 1126.59 842.792C1129.63 845.62 1133.39 847.543 1137.46 848.343C1141.53 849.144 1145.74 848.79 1149.62 847.322C1153.5 845.854 1156.89 843.331 1159.41 840.036C1161.93 836.742 1163.48 832.809 1163.88 828.681C1164.28 824.553 1163.52 820.394 1161.68 816.676C1159.84 812.957 1157.01 809.827 1153.48 807.638C1149.96 805.449 1145.9 804.289 1141.75 804.29V804.231Z" fill="#D9D9D9"/>
<path d="M1066.74 803.96C1069.71 790.002 1067.46 775.441 1060.41 763.033C1053.36 750.626 1042.01 741.234 1028.5 736.636C1015 732.037 1000.28 732.552 987.126 738.081C973.974 743.611 963.306 753.773 957.142 766.642C953.436 756.891 946.855 748.497 938.271 742.573C929.687 736.649 919.505 733.475 909.076 733.472C907.952 733.472 906.828 733.472 905.723 733.608C901.404 719.475 893.107 706.886 881.824 697.345C870.541 687.804 856.751 681.715 842.1 679.805C827.449 677.895 812.559 680.246 799.209 686.576C785.858 692.906 774.613 702.948 766.816 715.501C759.658 711.848 751.742 709.923 743.705 709.883C735.668 709.843 727.734 711.687 720.539 715.269C713.344 718.85 707.088 724.069 702.274 730.506C697.46 736.943 694.221 744.419 692.818 752.335C684.117 744.646 673.069 740.133 661.475 739.531C649.881 738.929 638.425 742.274 628.976 749.02C623.068 741.854 615.331 736.421 606.586 733.297C597.841 730.174 588.414 729.477 579.305 731.28C570.196 733.083 561.745 737.318 554.848 743.537C547.951 749.756 542.865 757.727 540.131 766.603C532.728 758.568 523.27 752.711 512.778 749.667C502.287 746.622 491.163 746.506 480.611 749.33C475.6 739.478 467.962 731.204 458.541 725.425C449.121 719.646 438.285 716.587 427.234 716.587C424.296 716.593 421.362 716.807 418.455 717.226C407.547 706.621 393.012 700.567 377.803 700.293C362.593 700.02 347.85 705.547 336.568 715.753C325.972 712.627 314.717 712.499 304.053 715.384C293.389 718.269 283.732 724.054 276.156 732.096C271.067 722.464 263.446 714.404 254.115 708.785C244.785 703.165 234.098 700.199 223.206 700.205H222.799C217.162 683.487 205.925 669.229 190.989 659.844C176.052 650.458 158.333 646.521 140.829 648.699C123.325 650.876 107.109 659.034 94.9263 671.793C82.7432 684.552 75.34 701.129 73.969 718.719C72.9418 718.719 71.8952 718.719 70.8486 718.719C60.5585 718.704 50.4149 721.159 41.2701 725.878C32.1252 730.598 24.2461 737.443 18.2945 745.839C12.343 754.236 8.49274 763.938 7.06728 774.132C5.64182 784.325 6.68274 794.712 10.1026 804.42C13.5225 814.127 19.2215 822.872 26.7208 829.92C34.2201 836.968 43.3009 842.113 53.2002 844.922C63.0996 847.732 73.5285 848.125 83.611 846.067C93.6934 844.009 103.135 839.561 111.143 833.097H407.717C419.005 836.972 431.19 837.397 442.72 834.319C447.78 844.283 455.526 852.632 465.082 858.423C474.638 864.214 485.623 867.216 496.796 867.088C507.968 866.961 518.882 863.711 528.304 857.704C537.726 851.697 545.28 843.174 550.113 833.097H629.577C638.182 839.08 648.411 842.287 658.891 842.287C669.371 842.287 679.6 839.08 688.205 833.097H891.013C902.664 837.44 915.489 837.44 927.14 833.097H968.596C977.618 842.118 989.363 847.909 1002.01 849.575C1001.91 850.913 1001.84 852.251 1001.84 853.608C1001.83 863.2 1004.51 872.602 1009.57 880.752C1014.63 888.902 1021.86 895.475 1030.46 899.728C1039.05 903.981 1048.67 905.745 1058.21 904.82C1067.76 903.896 1076.85 900.319 1084.47 894.495C1092.09 888.671 1097.93 880.832 1101.33 871.862C1104.73 862.893 1105.56 853.151 1103.71 843.738C1101.87 834.325 1097.43 825.615 1090.9 818.593C1084.36 811.57 1076 806.515 1066.74 803.999V803.96Z" fill="white"/>
<path d="M495.495 511.908C488.963 503.185 496.328 488.839 496.328 488.839H480.339C480.339 488.839 487.703 503.185 481.172 511.908C474.64 520.632 462.062 531.818 465.279 546.067H511.407C514.605 531.818 502.026 520.632 495.495 511.908Z" fill="white"/>
<path d="M496.33 488.839H480.34L483.867 457.511C483.982 456.501 484.464 455.57 485.222 454.894C485.98 454.218 486.961 453.845 487.976 453.847H488.732C489.75 453.844 490.733 454.217 491.494 454.892C492.255 455.568 492.741 456.5 492.86 457.511L496.33 488.839Z" fill="#4D4D5A"/>
<g style="mix-blend-mode:multiply" opacity="0.15">
<path d="M488.343 488.839H496.328L492.82 457.511C492.701 456.5 492.215 455.568 491.454 454.892C490.692 454.217 489.709 453.844 488.692 453.847H487.975L488.343 488.839Z" fill="#230753"/>
</g>
<g style="mix-blend-mode:multiply" opacity="0.15">
<path d="M469.64 488.839H477.625L474.117 457.511C474.003 456.501 473.521 455.57 472.763 454.894C472.005 454.218 471.024 453.845 470.009 453.847H469.35L469.64 488.839Z" fill="#230753"/>
</g>
<path d="M1121.11 446.396L1121.43 447.134L1066.62 465.061C1065.63 465.314 1065.24 464.246 1066.23 463.846L1121.11 446.396Z" fill="white"/>
<path d="M1121.31 445.665L1121.64 446.403L1066.82 464.33C1065.83 464.583 1065.59 463.993 1066.58 463.592L1121.31 445.665Z" fill="#CCCFD0"/>
<circle cx="1125.91" cy="440.433" r="14.5832" transform="rotate(161.816 1125.91 440.433)" fill="white"/>
<g style="mix-blend-mode:multiply" opacity="0.15">
<path d="M1125.38 455.036L1125.96 455.013C1122.98 454.185 1120.34 452.415 1118.45 449.966C1116.55 447.518 1115.5 444.525 1115.46 441.435C1115.41 438.345 1116.36 435.325 1118.18 432.829C1119.99 430.333 1122.57 428.494 1125.53 427.589C1126.27 427.358 1127.02 427.189 1127.79 427.084C1128.24 427.025 1128.7 426.987 1129.15 426.965C1127.28 426.445 1125.33 426.31 1123.41 426.569C1122.64 426.677 1121.89 426.844 1121.14 427.068C1117.88 428.075 1115.08 430.218 1113.27 433.111C1111.45 436.003 1110.73 439.453 1111.25 442.835C1111.76 446.216 1113.47 449.307 1116.06 451.545C1118.65 453.783 1121.96 455.022 1125.38 455.036Z" fill="#230753"/>
</g>
<path d="M1118.92 437.307L1119.51 438.026L1025.67 459.137C1024.13 459.629 1023.67 458.482 1025.36 458.024L1118.92 437.307Z" fill="white"/>
<path d="M1119.42 436.671L1120.01 437.39L1026.16 458.501C1024.46 458.812 1024.02 458.236 1025.71 457.778L1119.42 436.671Z" fill="#CCCFD0"/>
<path d="M1115.31 424.908L1115.32 425.715L1057.51 419.963C1056.49 419.794 1056.3 418.837 1057.38 418.872L1115.31 424.908Z" fill="white"/>
<path d="M1116.08 424.194L1116.08 425.026L1057.41 419.574C1056.37 419.408 1056.39 418.75 1057.49 418.777L1116.08 424.194Z" fill="#CCCFD0"/>
<path d="M1123.41 435.66L1123.72 438.139L1115.83 438.579C1115.41 438.383 1114.82 437.837 1115.82 437.221C1116.82 436.605 1121.3 435.923 1123.41 435.66Z" fill="#9D9D9D"/>
<path d="M1115.11 425.689C1115.11 425.689 1120.32 426.508 1120.95 426.641L1125.07 426.903L1125.41 425.127L1123.03 424.883C1122.06 424.793 1120.05 424.586 1119.67 424.48C1119.29 424.375 1118.83 424.563 1118.65 424.67L1115.32 424.117L1115.11 425.689Z" fill="#9D9D9D"/>
<path d="M1123.8 460.207L1124.25 460.705L1086.11 489.371C1085.4 489.833 1084.72 489.285 1085.39 488.706L1123.8 460.207Z" fill="white"/>
<path d="M1131.27 454.061L1128.74 456.705L1086.1 488.984C1085.39 489.446 1085.04 489.044 1085.71 488.465L1131.27 454.061Z" fill="#CCCFD0"/>
<path d="M1132.99 451.813L1134.43 453.93C1133.35 454.859 1130.37 457.03 1129.28 457.904C1128.19 458.779 1127.45 458.722 1127.21 458.585L1124.09 460.783L1123.39 459.929L1132.99 451.813Z" fill="#9D9D9D"/>
<path d="M1132.48 451.905L1137.21 448.629L1136.05 452.74L1134.23 454.197L1132.48 451.905Z" fill="#C4C4C4"/>
<path d="M1124.96 427.942L1131.53 427.4L1127.86 425.108L1125.22 425.169L1124.96 427.942Z" fill="#C4C4C4"/>
<path d="M1123.53 435.586L1123.92 438.382L1127.27 438.022L1130.58 435.857L1126.24 434.723L1123.53 435.586Z" fill="#C4C4C4"/>
<path opacity="0.6" d="M1138.14 344.159C1138.9 343.416 1139.92 343 1140.99 343C1142.05 343 1143.07 343.416 1143.83 344.159C1144.58 344.913 1145 345.928 1145 346.987C1145 348.045 1144.58 349.06 1143.83 349.814C1143.46 350.19 1143.02 350.488 1142.53 350.692C1142.04 350.895 1141.52 351 1140.99 351C1140.46 351 1139.93 350.895 1139.44 350.692C1138.96 350.488 1138.51 350.19 1138.14 349.814C1137.41 349.053 1137 348.04 1137 346.987C1137 345.933 1137.41 344.92 1138.14 344.159Z" fill="white"/>
</g>
<path d="M255.488 735.07L418.62 749.113L418.817 771.112L255.85 775.568L255.488 735.07Z" fill="#888787"/>
<rect x="-7.17578" y="773.917" width="485" height="65" transform="rotate(-0.511789 -7.17578 773.917)" fill="#A7A6A6"/>
<path d="M434.364 664.469L448 713.999L380.045 684.955L401.387 667.264L201.502 569.045L193.592 579.116L184.543 573.697L187.945 562.666L178.391 556.751L170.477 566.322L159.441 562.421L164.347 551.876L153.299 546.475L145.893 557.042L135.348 552.135L140.741 540.087L77.9487 507.646L83.3726 499.098L93.7962 490.504L103.818 492.915L106.796 490.388L112.818 492.834C116.501 495.2 112.817 492.835 117.371 498.794L132.447 507.159L135.406 502.633C144.5 507.159 146.5 507.905 156.999 512.94L160.954 507.905L169.985 511.324L180.828 493.727L183.842 495.2C183.878 499.2 173.363 516.294 168.101 524.342L178.15 529.752L184.07 520.699L188.587 522.659L186.123 526.681L188.65 529.658L204.43 505.016L205.953 507.503C208.824 515.478 198.658 530.569 193.217 537.118L205.779 544.006L207.765 542.488L202.216 537.038L205.694 534.506L212.238 539.448L226.05 518.324C226.855 515.15 228.382 510.703 228.05 518.306C227.718 525.909 218.418 540.893 213.81 547.434L232.389 556.269C237 559 233.5 557 237.416 559.224L246.973 565.639C253 568.5 252 567.6 258.527 571.536C262.884 574.164 272.309 577.295 274.589 578.393C280 581 276 580.5 280.628 582.839L292.182 588.736C296 590 298 588.736 301.699 590.651L347.921 615.239L359.393 612.137L368.938 617.052L367.5 624.065L375.04 628.498L385.491 622.904L393.017 625.837L393.102 635.337L434.364 664.469Z" fill="#DEE8EB"/>
<path d="M375.339 661.996L440.22 704.418L440.466 731.917L399.468 732.284L399.414 726.284L399.24 706.785L399.173 699.285L397.124 693.803L381.625 693.941C381.62 693.441 381.207 691.945 379.589 689.959C377.971 687.974 375.576 688.495 374.58 689.004L325.694 645.939L284.869 609.802L308.953 619.087L375.339 661.996Z" fill="#888787"/>
<path d="M620.891 553.717C615.793 552.506 612.682 544.368 611.764 540.45L614.929 538.851C615.111 539.373 615.742 540.833 616.817 542.499C618.16 544.581 620.821 545.866 627.738 548.945C633.271 551.408 639.399 549.189 641.771 547.772L642.852 550.118C642.24 550.822 640.647 552.494 639.173 553.554C637.33 554.879 627.264 555.23 620.891 553.717Z" fill="#DEE8EB"/>
<path d="M630.792 542.628C625.694 541.417 622.583 533.279 621.664 529.361L624.83 527.762C625.011 528.284 625.642 529.744 626.717 531.41C628.061 533.491 630.722 534.776 637.638 537.855C643.172 540.318 649.299 538.1 651.671 536.683L652.752 539.029C652.14 539.732 650.548 541.404 649.073 542.464C647.23 543.789 637.165 544.141 630.792 542.628Z" fill="#DEE8EB"/>
<path d="M641.679 533.801C637.733 532.894 635.326 526.791 634.616 523.853L637.067 522.653C637.207 523.044 637.696 524.139 638.527 525.388C639.567 526.949 641.627 527.912 646.981 530.22C651.264 532.066 656.009 530.401 657.845 529.338L658.682 531.097C658.208 531.625 656.974 532.879 655.833 533.674C654.406 534.669 646.613 534.934 641.679 533.801Z" fill="#DEE8EB"/>
<rect x="484.291" y="712.025" width="306" height="22" transform="rotate(-0.511789 484.291 712.025)" fill="#A7A6A6"/>
<line x1="247.728" y1="706.138" x2="247.889" y2="724.137" stroke="black"/>
<line x1="268.736" y1="706.95" x2="268.897" y2="724.949" stroke="black"/>
<line x1="284.744" y1="707.807" x2="284.905" y2="725.806" stroke="black"/>
<line x1="304.754" y1="708.628" x2="304.915" y2="726.628" stroke="black"/>
<line x1="320.762" y1="709.485" x2="320.922" y2="727.485" stroke="black"/>
<line x1="339.77" y1="710.316" x2="339.93" y2="728.315" stroke="black"/>
<line x1="247.261" y1="706.643" x2="340.302" y2="710.812" stroke="black"/>
<line x1="247.323" y1="713.642" x2="340.364" y2="717.811" stroke="black"/>
<path d="M372.193 701.526L372.296 713.025L372.47 732.525L401.969 732.261L401.741 706.762L397.741 706.798L391.193 701.356L372.193 701.526Z" fill="#A7A6A6"/>
<path d="M551.713 702.922L619.21 702.32L619.062 685.82L659.547 683.958L659.574 686.958L676.074 686.811L676.19 699.81L719.188 699.426L719.335 715.926L527.865 720.136L490.367 720.471L484.215 703.525L513.714 703.262L517.714 703.226L517.692 700.726L544.534 682.986L582.358 663.147C584.027 663.299 588.557 662.992 593.336 660.549C598.114 658.106 601.942 653.805 603.259 651.96L608.259 651.915L635.646 639.17C636.3 637.664 636.904 634.359 634.093 633.184C631.282 632.009 629.243 631.394 628.575 631.233L629.464 618.725L631.963 618.702L632.048 628.202L651.556 629.028C651.882 628.191 652.53 626.019 652.512 624.019L652.476 620.019L655.976 619.988L657.047 627.979L680.439 615.769L713.808 600.971L738.691 587.748L734.66 584.284L729.16 584.333L725.589 576.364C721.556 572.734 712.682 564.479 709.447 560.508C706.211 556.537 701.313 545.58 699.269 540.598L699.246 538.098L701.746 538.076L707.831 547.522L711.92 557.486L718.469 562.927L722.469 562.892C724.345 567.708 729.788 576.227 736.548 571.766C743.309 567.306 737.904 555.587 734.356 550.285L734.33 547.285L738.329 547.249C740.865 551.227 745.554 561.185 744.026 569.199L750.499 566.141C749.49 565.15 747.465 562.368 747.436 559.168C747.408 555.969 749.403 555.484 750.405 555.642L751.918 557.128L751.945 560.128C753.293 561.783 756.885 564.584 760.467 562.552C763.963 560.569 762.663 558.469 761.507 557.605C761.479 557.584 761.45 557.564 761.422 557.543C761.45 557.563 761.479 557.584 761.507 557.605C764.036 559.448 768.35 563.608 765.998 566.003C763.62 568.424 760.373 570.72 759.048 571.565L750.615 579.141L752.128 580.627L805.88 552.646L811.88 552.593L853.191 531.223L850.146 526.25L862.097 520.643L865.146 526.116L884.06 516.446L887.578 518.415L894.578 518.353L873.19 531.044L873.212 533.544L862.266 539.642L858.267 539.678L817.465 562.043L800.626 580.194L720.473 619.412C714.021 624.803 696.626 636.625 678.663 640.786L627.388 666.245L623.424 670.281L551.713 702.922Z" fill="#888787"/>
<path d="M340.073 744.315L339.917 726.815L242.385 723.687L242.474 733.686L340.073 744.315Z" fill="#C4C4C4"/>
<path d="M420.967 732.092L420.739 706.593L444.238 706.383L448.814 714.842L448.912 725.842L457.215 731.768L457.184 700.267L482.683 700.039L493.254 707.945L493.464 731.444L457.215 731.768L420.967 732.092Z" fill="#C4C4C4"/>
<path d="M417.651 752.622L910.783 765.218L911.748 873.214L473.766 877.126L146.779 880.047L417.651 752.622Z" fill="#C4C4C4"/>
<path d="M417.969 732.118L745.393 722.193L910.53 736.719L910.784 765.218L418.156 753.118L417.969 732.118Z" fill="white"/>
<path d="M388.764 709.378L343.265 709.785L339.766 709.816L340.226 761.314L350.225 761.225L360.104 747.636L385.612 748.408L387.652 752.89L418.151 752.617L417.968 732.118L388.96 731.377L388.764 709.378Z" fill="#E1E1E1"/>
<line x1="247.376" y1="719.642" x2="340.417" y2="723.811" stroke="black"/>
<path d="M955.553 842.481C958.989 835.083 956.43 827.358 948.362 820.775C940.293 814.192 927.277 809.209 911.786 806.771C896.294 804.334 879.406 804.613 864.33 807.555C849.254 810.496 837.039 815.896 830.005 822.728C825.761 817.565 818.222 813.119 808.389 809.982C798.556 806.845 786.893 805.164 774.947 805.163C773.659 805.163 772.371 805.163 771.106 805.224C766.155 797.741 756.649 791.075 743.724 786.023C730.798 780.972 715.001 777.748 698.219 776.738C681.438 775.728 664.382 776.973 649.09 780.326C633.799 783.679 620.919 788.998 611.99 795.646C603.791 793.706 594.723 792.684 585.514 792.66C576.304 792.637 567.212 793.613 558.967 795.51C550.722 797.407 543.555 800.173 538.042 803.584C532.53 806.996 528.825 810.958 527.227 815.152C517.26 811.08 504.605 808.69 491.324 808.371C478.043 808.052 464.921 809.824 454.096 813.396C447.333 809.598 438.471 806.718 428.453 805.062C418.434 803.406 407.632 803.035 397.195 803.99C386.757 804.945 377.074 807.19 369.174 810.486C361.274 813.781 355.452 818.005 352.326 822.708C343.846 818.453 333.012 815.351 320.994 813.739C308.977 812.126 296.234 812.065 284.147 813.56C277.618 807.638 267.237 802.812 254.464 799.762C241.69 796.712 227.17 795.592 212.948 796.559C200.453 790.944 183.806 787.738 166.386 787.591C148.965 787.444 132.077 790.368 119.148 795.769C107.009 794.122 94.1215 794.058 81.9094 795.585C69.6973 797.113 58.6359 800.171 49.9471 804.423C44.1042 799.332 35.3688 795.073 24.6813 792.106C13.9938 789.14 1.75891 787.577 -10.7064 787.587H-11.1726C-17.6293 778.733 -30.5011 771.182 -47.6106 766.212C-64.72 761.242 -85.0169 759.157 -105.068 760.31C-125.119 761.463 -143.693 765.784 -157.649 772.54C-171.604 779.297 -180.085 788.076 -181.655 797.391C-182.832 797.391 -184.03 797.391 -185.229 797.391C-197.017 797.383 -208.636 798.683 -219.111 801.182C-229.586 803.681 -238.612 807.307 -245.429 811.753C-252.247 816.2 -256.657 821.338 -258.29 826.736C-259.923 832.134 -258.73 837.635 -254.813 842.775C-250.895 847.916 -244.367 852.548 -235.777 856.28C-227.187 860.012 -216.785 862.737 -205.445 864.225C-194.106 865.713 -182.16 865.92 -170.61 864.831C-159.061 863.741 -148.246 861.386 -139.073 857.962H200.648C213.573 860.025 227.536 860.254 240.743 858.619C246.542 863.896 255.416 868.317 266.364 871.382C277.311 874.448 289.895 876.037 302.693 875.968C315.491 875.9 327.992 874.178 338.784 870.996C349.575 867.814 358.227 863.299 363.76 857.962H454.784C464.642 861.131 476.359 862.829 488.364 862.829C500.368 862.829 512.086 861.131 521.943 857.962H754.255C767.596 860.276 782.297 860.276 795.638 857.962H843.126C853.466 862.737 866.916 865.807 881.401 866.699C881.29 867.407 881.201 868.116 881.201 868.834C881.23 873.911 884.326 878.882 890.14 883.188C895.954 887.494 904.254 890.963 914.105 893.204C923.956 895.444 934.964 896.367 945.889 895.868C956.813 895.369 967.219 893.469 975.932 890.38C984.645 887.292 991.317 883.139 995.198 878.391C999.078 873.642 1000.01 868.486 997.892 863.506C995.773 858.525 990.686 853.917 983.204 850.202C975.723 846.487 966.146 843.813 955.553 842.481Z" fill="white"/>
<defs>
<radialGradient id="paint0_radial" cx="0" cy="0" r="1" gradientUnits="userSpaceOnUse" gradientTransform="translate(78340.7 73150.9) scale(7674.56)">
<stop stop-color="white"/>
<stop offset="0.56" stop-color="#4072B6"/>
<stop offset="0.6" stop-color="#31588D"/>
<stop offset="0.63" stop-color="#244167"/>
<stop offset="0.68" stop-color="#192D47"/>
<stop offset="0.72" stop-color="#101C2D"/>
<stop offset="0.77" stop-color="#091019"/>
<stop offset="0.82" stop-color="#04070B"/>
<stop offset="0.89" stop-color="#010202"/>
<stop offset="1"/>
</radialGradient>
<radialGradient id="paint1_radial" cx="0" cy="0" r="1" gradientUnits="userSpaceOnUse" gradientTransform="translate(66206.7 61804.1) scale(5473.35)">
<stop stop-color="white"/>
<stop offset="0.56" stop-color="#4072B6"/>
<stop offset="0.6" stop-color="#31588D"/>
<stop offset="0.63" stop-color="#244167"/>
<stop offset="0.68" stop-color="#192D47"/>
<stop offset="0.72" stop-color="#101C2D"/>
<stop offset="0.77" stop-color="#091019"/>
<stop offset="0.82" stop-color="#04070B"/>
<stop offset="0.89" stop-color="#010202"/>
<stop offset="1"/>
</radialGradient>
<linearGradient id="paint2_linear" x1="242.554" y1="180.692" x2="369.97" y2="180.692" gradientUnits="userSpaceOnUse">
<stop stop-color="#00FFDF"/>
<stop offset="1" stop-color="#379FCD"/>
</linearGradient>
<linearGradient id="paint3_linear" x1="27189.1" y1="34808.1" x2="28828.6" y2="34808.1" gradientUnits="userSpaceOnUse">
<stop stop-color="#41FFE7"/>
<stop offset="1" stop-color="#00C3D4"/>
</linearGradient>
<linearGradient id="paint4_linear" x1="16884.5" y1="17735" x2="17658.4" y2="17735" gradientUnits="userSpaceOnUse">
<stop stop-color="#00FFDF"/>
<stop offset="1" stop-color="#00C3D4"/>
</linearGradient>
<clipPath id="clip0">
<rect width="1185" height="684" fill="white" transform="translate(-21 221)"/>
</clipPath>
</defs>
</svg>
