<svg width="375" height="490" viewBox="0 0 375 490" fill="none" xmlns="http://www.w3.org/2000/svg">
<g style="mix-blend-mode:overlay" opacity="0.6">
<path d="M202.539 376.196C203.203 375.545 204.046 375.105 204.96 374.93C205.875 374.755 206.821 374.853 207.68 375.213C208.539 375.573 209.272 376.177 209.787 376.951C210.303 377.725 210.578 378.634 210.578 379.564C210.578 380.493 210.303 381.402 209.787 382.176C209.272 382.95 208.539 383.555 207.68 383.914C206.821 384.274 205.875 384.373 204.96 384.198C204.046 384.023 203.203 383.582 202.539 382.931C202.096 382.489 201.744 381.964 201.504 381.386C201.265 380.808 201.141 380.189 201.141 379.564C201.141 378.938 201.265 378.319 201.504 377.741C201.744 377.164 202.096 376.638 202.539 376.196Z" fill="#CCCFD0"/>
</g>
<g style="mix-blend-mode:overlay" opacity="0.6">
<path d="M199.741 164.862C199.97 164.623 200.244 164.433 200.547 164.3C200.849 164.168 201.175 164.096 201.505 164.089C201.836 164.083 202.164 164.141 202.472 164.262C202.78 164.382 203.061 164.562 203.299 164.791C203.537 165.02 203.728 165.294 203.861 165.596C203.993 165.899 204.065 166.225 204.072 166.555C204.078 166.886 204.019 167.214 203.899 167.522C203.779 167.83 203.599 168.111 203.37 168.349C202.908 168.83 202.273 169.108 201.605 169.121C200.938 169.135 200.293 168.882 199.812 168.42C199.331 167.957 199.053 167.323 199.04 166.655C199.026 165.988 199.279 165.343 199.741 164.862Z" fill="#CCCFD0"/>
</g>
<g style="mix-blend-mode:overlay" opacity="0.6">
<path d="M176.125 145.594C176.778 144.948 177.661 144.586 178.582 144.586C179.503 144.586 180.386 144.948 181.039 145.594C181.689 146.244 182.053 147.123 182.053 148.039C182.053 148.955 181.689 149.833 181.039 150.483C180.723 150.807 180.344 151.064 179.926 151.24C179.508 151.416 179.058 151.506 178.604 151.506C178.15 151.506 177.701 151.416 177.283 151.24C176.864 151.064 176.486 150.807 176.169 150.483C175.514 149.839 175.141 148.964 175.133 148.048C175.125 147.132 175.481 146.25 176.125 145.594Z" fill="#CCCFD0"/>
</g>
<g style="mix-blend-mode:overlay" opacity="0.6">
<path d="M24.7753 180.473C25.1854 180.057 25.7438 179.821 26.3278 179.817C26.9118 179.813 27.4735 180.041 27.8893 180.451C28.3051 180.861 28.5409 181.42 28.545 182.004C28.549 182.588 28.3209 183.149 27.9108 183.565C27.5007 183.981 26.9422 184.217 26.3582 184.221C25.7742 184.225 25.2126 183.997 24.7968 183.587C24.381 183.176 24.1452 182.618 24.1412 182.034C24.1371 181.45 24.3652 180.888 24.7753 180.473Z" fill="#CCCFD0"/>
</g>
<path opacity="0.6" d="M202.539 376.196C203.203 375.545 204.046 375.105 204.96 374.93C205.875 374.755 206.821 374.853 207.68 375.213C208.539 375.573 209.272 376.177 209.787 376.951C210.303 377.725 210.578 378.634 210.578 379.564C210.578 380.493 210.303 381.402 209.787 382.176C209.272 382.95 208.539 383.555 207.68 383.914C206.821 384.274 205.875 384.373 204.96 384.198C204.046 384.023 203.203 383.582 202.539 382.931C202.096 382.489 201.744 381.964 201.504 381.386C201.265 380.808 201.141 380.189 201.141 379.564C201.141 378.938 201.265 378.319 201.504 377.741C201.744 377.164 202.096 376.638 202.539 376.196Z" fill="#CCCFD0"/>
<path opacity="0.6" d="M33.491 249.12C33.9685 248.653 34.6117 248.391 35.2818 248.391C35.952 248.391 36.5952 248.653 37.0727 249.12C37.5429 249.594 37.8064 250.233 37.8064 250.899C37.8064 251.565 37.5429 252.204 37.0727 252.678C36.839 252.914 36.5602 253.102 36.2528 253.23C35.9453 253.358 35.6152 253.424 35.2818 253.424C34.9484 253.424 34.6184 253.358 34.3109 253.23C34.0034 253.102 33.7247 252.914 33.491 252.678C33.0304 252.199 32.7734 251.562 32.7734 250.899C32.7734 250.236 33.0304 249.599 33.491 249.12Z" fill="white"/>
<path opacity="0.6" d="M24.7753 180.473C25.1854 180.057 25.7438 179.821 26.3278 179.817C26.9118 179.813 27.4735 180.041 27.8893 180.451C28.3051 180.861 28.5409 181.42 28.545 182.004C28.549 182.588 28.3209 183.149 27.9108 183.565C27.5007 183.981 26.9422 184.217 26.3582 184.221C25.7742 184.225 25.2126 183.997 24.7968 183.587C24.381 183.176 24.1452 182.618 24.1412 182.034C24.1371 181.45 24.3652 180.888 24.7753 180.473Z" fill="white"/>
<g opacity="0.32">
<path style="mix-blend-mode:screen" opacity="0.32" d="M292.408 347.137C356.139 283.406 356.132 180.07 292.392 116.33C228.652 52.5898 125.316 52.5828 61.5849 116.314C-2.14627 180.045 -2.13914 283.381 61.6009 347.121C125.341 410.861 228.677 410.868 292.408 347.137Z" fill="url(#paint0_radial)"/>
<path style="mix-blend-mode:color-dodge" opacity="0.32" d="M312 229C312 255.7 304.112 281.801 289.333 304.002C274.554 326.203 253.548 343.506 228.971 353.724C204.394 363.941 177.351 366.615 151.26 361.406C125.17 356.197 101.204 343.339 82.3942 324.459C63.584 305.579 50.7741 281.525 45.5844 255.337C40.3947 229.15 43.0583 202.006 53.2383 177.338C63.4183 152.67 80.6575 131.586 102.776 116.752C124.894 101.918 150.898 94 177.5 94C213.172 94 247.382 108.223 272.606 133.541C297.83 158.858 312 193.196 312 229V229Z" fill="url(#paint1_radial)"/>
</g>
<path opacity="0.06" d="M177.515 363.488C251.871 363.488 312.148 303.211 312.148 228.855C312.148 154.5 251.871 94.2227 177.515 94.2227C103.16 94.2227 42.8828 154.5 42.8828 228.855C42.8828 303.211 103.16 363.488 177.515 363.488Z" fill="white"/>
<path opacity="0.06" d="M177.023 394.944C267.188 394.944 340.281 321.851 340.281 231.686C340.281 141.522 267.188 68.4287 177.023 68.4287C86.8586 68.4287 13.7656 141.522 13.7656 231.686C13.7656 321.851 86.8586 394.944 177.023 394.944Z" fill="white"/>
<path opacity="0.06" d="M283.206 228.855C283.206 249.759 277.008 270.194 265.394 287.575C253.78 304.956 237.273 318.503 217.96 326.503C198.648 334.502 177.396 336.596 156.894 332.517C136.392 328.439 117.559 318.373 102.777 303.591C87.9961 288.81 77.9299 269.977 73.8517 249.475C69.7736 228.973 71.8665 207.721 79.8662 188.409C87.8658 169.096 101.413 152.589 118.794 140.975C136.175 129.361 156.61 123.163 177.514 123.163C205.545 123.163 232.428 134.298 252.25 154.119C272.071 173.941 283.206 200.824 283.206 228.855Z" fill="white"/>
<path d="M253.614 171.391C245.688 161.126 235.743 152.594 224.393 146.323C213.043 140.051 200.529 136.172 187.622 134.926C174.715 133.68 161.69 135.092 149.351 139.076C137.011 143.061 125.618 149.532 115.876 158.091C106.133 166.65 98.2473 177.115 92.7047 188.84C87.1622 200.566 84.0806 213.303 83.65 226.266C83.2194 239.23 85.4491 252.143 90.2013 264.211C94.9535 276.279 102.128 287.245 111.281 296.432C114.937 300.042 118.878 303.354 123.063 306.336C141.576 319.475 164.182 325.545 186.785 323.446C209.387 321.348 230.49 311.22 246.27 294.897C262.049 278.574 271.461 257.137 272.799 234.471C274.137 211.804 267.313 189.408 253.564 171.341L253.614 171.391Z" fill="url(#paint2_linear)"/>
<path opacity="0.67" d="M315.628 262.751C315.628 264.68 315.038 266.565 313.932 268.169C312.826 269.773 311.253 271.023 309.414 271.761C307.575 272.499 305.551 272.692 303.598 272.315C301.646 271.939 299.852 271.011 298.444 269.647C297.037 268.283 296.078 266.545 295.69 264.654C295.301 262.762 295.5 260.802 296.262 259.02C297.024 257.238 298.314 255.715 299.97 254.643C301.625 253.572 303.571 253 305.562 253C308.232 253 310.792 254.027 312.68 255.856C314.568 257.685 315.628 260.165 315.628 262.751Z" fill="#339DCC"/>
<path d="M272.963 229.767C272.974 205.36 263.659 181.878 246.937 164.153C230.215 146.429 207.358 135.812 183.071 134.487L167.841 148.625C167.841 148.625 160.548 154.947 163.624 159.825C166.7 164.704 178.904 154.2 172.702 186.607C166.501 219.015 198.45 216.028 198.45 216.028C198.45 216.028 230.696 213.638 223.254 250.875C218.294 275.765 239.08 284.377 253.665 287.364C260.404 278.471 265.542 268.463 268.845 257.794C271.612 248.712 273.001 239.264 272.963 229.767Z" fill="url(#paint3_linear)"/>
<path d="M174.961 289.777C177.525 281.629 177.525 272.899 174.961 264.751C170.495 253.057 153.705 251.02 153.705 251.02C153.705 251.02 140.308 250.311 136.646 238.75C132.985 227.19 116.283 227.588 116.283 227.588L105.164 226.968C107.203 245.17 115.116 262.232 127.726 275.61C140.336 288.988 156.967 297.965 175.14 301.205C174.332 297.443 174.271 293.562 174.961 289.777Z" fill="url(#paint4_linear)"/>
<g style="mix-blend-mode:multiply" opacity="0.15">
<path d="M253.534 172.046L251.054 169.089C258.747 188.032 260.054 208.944 254.777 228.688C249.501 248.431 237.927 265.942 221.792 278.594C205.656 291.245 185.828 298.355 165.283 298.857C144.738 299.359 124.583 293.225 107.842 281.377C103.622 278.424 99.6575 275.127 95.9901 271.518C93.8578 269.399 91.8246 267.18 89.8906 264.913C94.6977 276.778 101.885 287.545 111.016 296.559C114.689 300.141 118.635 303.437 122.818 306.417C141.361 319.495 164.005 325.537 186.644 323.449C209.284 321.36 230.422 311.278 246.227 295.031C262.033 278.784 271.46 257.446 272.8 234.884C274.141 212.322 267.305 190.03 253.534 172.046Z" fill="#230753"/>
</g>
<g style="mix-blend-mode:multiply" opacity="0.15">
<path d="M311.507 254.887C312.407 256.401 312.872 258.135 312.853 259.899C312.904 261.798 312.416 263.674 311.447 265.306C310.478 266.937 309.067 268.258 307.379 269.115C305.692 269.971 303.797 270.327 301.915 270.142C300.034 269.956 298.244 269.237 296.754 268.067C297.541 269.246 298.568 270.243 299.768 270.993C300.967 271.742 302.311 272.227 303.711 272.415C305.111 272.602 306.534 272.489 307.887 272.082C309.24 271.675 310.492 270.984 311.559 270.054C312.626 269.124 313.484 267.977 314.077 266.688C314.67 265.4 314.984 263.999 314.998 262.579C315.012 261.16 314.726 259.753 314.159 258.453C313.591 257.153 312.755 255.989 311.707 255.038L311.507 254.887Z" fill="#230753"/>
</g>
<path d="M252.473 416.518C333.703 350.926 255.875 281.798 206.807 255.432C342.988 325.845 317.387 408.122 287.564 440.459L234.186 486.462L151.84 457.487C178.895 438.501 171.242 482.111 252.473 416.518Z" fill="#D9D9D9"/>
<path d="M257.355 419.224C338.586 353.632 260.757 284.503 211.689 258.138C347.87 328.55 322.269 410.827 292.446 443.164L239.068 489.167L208.795 485.614C144.103 456.433 176.124 484.816 257.355 419.224Z" fill="white"/>
<path d="M251.677 279.208C269.928 291.013 309.897 326.038 323.765 371.699C323.072 355.174 307.685 313.541 251.677 279.208Z" fill="white"/>
<path d="M208.198 254.823C213.532 257.276 227.848 264.608 242.446 274.309C237.133 269.93 222.844 259.902 208.198 254.823Z" fill="white"/>
<path d="M191.666 259.992C195.02 262.281 196.468 261.329 196.772 260.567C200.066 253.863 201.194 250.799 204.275 244.354C205.487 241.819 202.687 240.361 201.135 239.949L193.371 238.53C189.626 237.699 180.863 235.815 175.775 234.93C169.415 233.823 166.225 234.232 164.871 236.217C163.788 237.805 168.854 242.705 171.522 244.956C176.839 249.015 188.311 257.703 191.666 259.992Z" fill="white"/>
<path d="M197.628 238.068C196.243 237.37 197.403 235.962 198.156 235.345C201.664 235.889 208.968 237.234 210.123 238.269C211.279 239.304 210.157 240.655 209.452 241.202C206.088 240.448 199.014 238.766 197.628 238.068Z" fill="white"/>
<path d="M199.373 266.694C196.066 264.233 189.362 259.248 188.999 259C186.875 257.435 187.475 260.584 188.04 262.354L197.878 269.374C200.678 269.557 200.041 267.664 199.373 266.694Z" fill="white"/>
<path d="M203.336 255.526C201.879 254.738 198.71 253.048 197.688 252.598L198.85 248.458L204.808 251.906C209.067 255.798 205.601 255.941 203.336 255.526Z" fill="white"/>
<path d="M88.8821 302.777L89.2889 302.431L111.136 333.79C111.486 334.371 110.883 334.823 110.439 334.27L88.8821 302.777Z" fill="white"/>
<path d="M88.383 302.788L88.7898 302.442L110.636 333.801C110.986 334.382 110.658 334.648 110.214 334.095L88.383 302.788Z" fill="#CCCFD0"/>
<circle cx="84.186" cy="300.869" r="9.66448" transform="rotate(55.0633 84.186 300.869)" fill="white"/>
<path d="M83.535 305.904L83.8784 305.392L115.201 360.911C115.806 361.79 115.168 362.305 114.553 361.316L83.535 305.904Z" fill="white"/>
<path d="M83.0392 305.71L83.3826 305.197L114.706 360.716C115.228 361.736 114.947 362.128 114.332 361.139L83.0392 305.71Z" fill="#CCCFD0"/>
<path d="M76.3599 310.56L76.8717 310.404L84.2651 348.19C84.352 348.868 83.7811 349.171 83.5974 348.48L76.3599 310.56Z" fill="white"/>
<path d="M75.7598 310.209L76.2884 310.052L84.0365 348.326C84.1283 349.012 83.7069 349.126 83.5151 348.427L75.7598 310.209Z" fill="#CCCFD0"/>
<path d="M81.6292 303.368L83.143 302.697L84.9289 307.619C84.8855 307.925 84.6529 308.407 84.0703 307.888C83.4877 307.37 82.2001 304.659 81.6292 303.368Z" fill="#9D9D9D"/>
<path d="M76.8866 310.538C76.8866 310.538 76.4117 307.077 76.376 306.652L75.7547 303.986L74.5629 304.109L74.8638 305.671C74.9902 306.298 75.2445 307.619 75.2501 307.88C75.2558 308.14 75.4618 308.393 75.564 308.487L75.8505 310.711L76.8866 310.538Z" fill="#9D9D9D"/>
<path d="M97.1368 298.432L97.3666 298.051L122.843 316.778C123.272 317.14 123.054 317.674 122.558 317.359L97.1368 298.432Z" fill="white"/>
<path d="M91.8076 294.863L93.969 295.966L122.598 316.858C123.027 317.22 122.838 317.517 122.342 317.202L91.8076 294.863Z" fill="#CCCFD0"/>
<path d="M90.0523 294.2L91.1214 292.885C91.9176 293.394 93.8635 294.868 94.6266 295.392C95.3897 295.917 95.4963 296.401 95.4542 296.577L97.4458 298.138L97.0379 298.747L90.0523 294.2Z" fill="#9D9D9D"/>
<path d="M90.2087 294.511L87.2253 292.133L90.0556 292.084L91.3275 292.959L90.2087 294.511Z" fill="#C4C4C4"/>
<path d="M76.44 303.856L74.842 299.794L74.0876 302.559L74.6315 304.225L76.44 303.856Z" fill="#C4C4C4"/>
<path d="M81.5622 303.308L83.2613 302.524L82.3936 300.467L80.3881 298.782L80.4958 301.748L81.5622 303.308Z" fill="#C4C4C4"/>
<path d="M120.065 128.742L120.106 129.186L88.0153 128.817C87.4474 128.773 87.2968 128.256 87.8914 128.223L120.065 128.742Z" fill="white"/>
<path d="M120.453 128.311L120.491 128.769L87.9419 128.607C87.3661 128.566 87.3444 128.203 87.9477 128.165L120.453 128.311Z" fill="#CCCFD0"/>
<path d="M120.772 129.756L121.019 130.127L92.6382 145.108C92.1181 145.341 91.739 144.958 92.2459 144.645L120.772 129.756Z" fill="white"/>
<path d="M120.909 129.193L121.161 129.578L92.4755 144.96C91.9497 145.198 91.7574 144.889 92.2695 144.568L120.909 129.193Z" fill="#CCCFD0"/>
<path d="M142.578 119.88L142.304 119.528L169.506 102.499C170.008 102.229 170.414 102.583 169.931 102.932L142.578 119.88Z" fill="white"/>
<path d="M142.483 120.45L142.204 120.086L169.68 102.635C170.187 102.359 170.401 102.653 169.914 103.011L142.483 120.45Z" fill="#CCCFD0"/>
<path d="M145.387 123.259L145.395 122.814L177.262 126.605C177.822 126.709 177.917 127.239 177.322 127.208L145.387 123.259Z" fill="white"/>
<path d="M144.96 123.646L144.971 123.186L177.316 126.821C177.884 126.923 177.867 127.287 177.263 127.26L144.96 123.646Z" fill="#CCCFD0"/>
<path d="M136.603 111.908L136.511 111.712L151.052 107.271C151.315 107.209 151.469 107.423 151.206 107.523L136.603 111.908Z" fill="white"/>
<path d="M140.928 133.783L140.851 133.581L155.675 130.207C155.943 130.164 156.08 130.388 155.811 130.469L140.928 133.783Z" fill="white"/>
<path d="M136.498 112.16L136.405 111.957L151.118 107.356C151.385 107.292 151.455 107.454 151.189 107.558L136.498 112.16Z" fill="#CCCFD0"/>
<path d="M140.81 134.026L140.732 133.818L155.741 130.297C156.011 130.252 156.069 130.419 155.796 130.503L140.81 134.026Z" fill="#CCCFD0"/>
<circle cx="149.588" cy="119.598" r="2.29498" transform="rotate(-50.1077 149.588 119.598)" fill="white"/>
<path d="M149.283 117.44L137.096 109.589L144.613 134.548L150.459 121.707L149.283 117.44Z" fill="#CCCFD0"/>
<path d="M140.825 136.197C138.675 135.714 136.633 135.539 136.633 135.539C138.425 125.802 137.617 119.874 130.145 113.627L132.87 112.549C133.61 110.906 135.62 107.932 137.734 109.174C140.376 110.726 143.661 113.691 145.738 119.585C147.814 125.479 146.528 132.429 144.949 134.319C143.685 135.83 142.974 136.681 140.825 136.197Z" fill="white"/>
<path d="M139.708 136.576C137.558 136.093 135.516 135.918 135.516 135.918C137.308 126.181 136.5 120.252 129.027 114.006L131.752 112.928C132.493 111.285 134.503 108.311 136.617 109.552C139.259 111.105 142.544 114.069 144.621 119.964C146.697 125.858 145.411 132.808 143.831 134.698C142.568 136.209 141.857 137.06 139.708 136.576Z" fill="#DEE4E6"/>
<circle cx="118.622" cy="128.803" r="13.9938" transform="rotate(-50.1077 118.622 128.803)" fill="white"/>
<path d="M132 126.13L131.58 126.279L123.968 95.1024C123.87 94.5414 124.334 94.2671 124.513 94.8348L132 126.13Z" fill="white"/>
<path d="M132.515 126.399L132.081 126.55L124.155 94.9802C124.053 94.4121 124.399 94.301 124.586 94.8759L132.515 126.399Z" fill="#CCCFD0"/>
<path d="M130.529 123.569L130.094 123.663L140.029 154.178C140.241 154.707 140.78 154.697 140.633 154.119L130.529 123.569Z" fill="white"/>
<path d="M130.823 123.07L130.375 123.171L140.25 154.185C140.462 154.723 140.815 154.635 140.671 154.048L130.823 123.07Z" fill="#CCCFD0"/>
<path d="M133.043 126.815L132.681 127.075L116.743 99.2195C116.493 98.7076 116.863 98.3158 117.193 98.8117L133.043 126.815Z" fill="white"/>
<path d="M133.611 126.932L133.235 127.197L116.887 99.051C116.631 98.5335 116.934 98.3309 117.272 98.8318L133.611 126.932Z" fill="#CCCFD0"/>
<path d="M131.054 122.44L130.609 122.41L131.718 154.483C131.775 155.05 132.295 155.189 132.315 154.594L131.054 122.44Z" fill="white"/>
<path d="M131.474 122.043L131.015 122.015L131.928 154.551C131.982 155.126 132.346 155.139 132.37 154.535L131.474 122.043Z" fill="#CCCFD0"/>
<path d="M129.276 113.705L125.602 116.616C131.878 122.811 131.452 125.154 130.783 136.34C132.082 136.357 133.583 136.726 135.527 136.075C137.159 132.989 137.454 127.399 136.208 122.344C135.21 118.301 131.171 114.9 129.276 113.705Z" fill="white"/>
<circle cx="125.729" cy="114.896" r="1.67925" transform="rotate(-50.1077 125.729 114.896)" fill="#C4C4C4"/>
<g style="mix-blend-mode:multiply" opacity="0.15">
<path d="M107.069 98.6925C106.997 98.5242 106.972 98.3391 106.998 98.1577C107.019 97.9612 107.094 97.7745 107.217 97.6195C107.339 97.4645 107.503 97.3475 107.689 97.2822C107.875 97.2169 108.075 97.206 108.267 97.2507C108.459 97.2954 108.634 97.3939 108.772 97.5347C108.707 97.4025 108.614 97.2857 108.501 97.1922C108.387 97.0986 108.255 97.0304 108.112 96.992C107.97 96.9536 107.822 96.9459 107.676 96.9695C107.531 96.993 107.392 97.0473 107.27 97.1286C107.147 97.2099 107.042 97.3165 106.964 97.4412C106.885 97.566 106.833 97.7061 106.813 97.8522C106.792 97.9984 106.803 98.1472 106.844 98.2889C106.885 98.4306 106.955 98.562 107.051 98.6743L107.069 98.6925Z" fill="#230753"/>
</g>
<g style="mix-blend-mode:multiply" opacity="0.15">
<path d="M107.069 98.6925C106.997 98.5242 106.972 98.3391 106.998 98.1577C107.019 97.9612 107.094 97.7745 107.217 97.6195C107.339 97.4645 107.503 97.3475 107.689 97.2822C107.875 97.2169 108.075 97.206 108.267 97.2507C108.459 97.2954 108.634 97.3939 108.772 97.5347C108.707 97.4025 108.614 97.2857 108.501 97.1922C108.387 97.0986 108.255 97.0304 108.112 96.992C107.97 96.9536 107.822 96.9459 107.676 96.9695C107.531 96.993 107.392 97.0473 107.27 97.1286C107.147 97.2099 107.042 97.3165 106.964 97.4412C106.885 97.566 106.833 97.7061 106.813 97.8522C106.792 97.9984 106.803 98.1472 106.844 98.2889C106.885 98.4306 106.955 98.562 107.051 98.6743L107.069 98.6925Z" fill="#230753"/>
</g>
<circle cx="128.092" cy="114.685" r="1.67925" transform="rotate(-50.1077 128.092 114.685)" fill="#C4C4C4"/>
<circle cx="129.639" cy="116.851" r="1.67925" transform="rotate(-50.1077 129.639 116.851)" fill="#C4C4C4"/>
<circle cx="131.139" cy="119.419" r="1.67925" transform="rotate(-50.1077 131.139 119.419)" fill="#C4C4C4"/>
<circle cx="132.236" cy="121.944" r="1.67925" transform="rotate(-50.1077 132.236 121.944)" fill="#C4C4C4"/>
<circle cx="132.791" cy="124.596" r="1.67925" transform="rotate(-50.1077 132.791 124.596)" fill="#C4C4C4"/>
<circle cx="133.147" cy="127.665" r="1.67925" transform="rotate(-50.1077 133.147 127.665)" fill="#C4C4C4"/>
<circle cx="132.858" cy="130.631" r="1.67925" transform="rotate(-50.1077 132.858 130.631)" fill="#C4C4C4"/>
<circle cx="132.807" cy="133.655" r="1.67925" transform="rotate(-50.1077 132.807 133.655)" fill="#C4C4C4"/>
<circle cx="131.729" cy="136.692" r="1.67925" transform="rotate(-50.1077 131.729 136.692)" fill="#C4C4C4"/>
<g style="mix-blend-mode:multiply" opacity="0.15">
<path d="M108.561 98.5592C108.489 98.3909 108.464 98.2058 108.49 98.0244C108.511 97.8279 108.587 97.6412 108.709 97.4862C108.831 97.3312 108.995 97.2142 109.181 97.1489C109.367 97.0836 109.568 97.0727 109.759 97.1174C109.951 97.1621 110.127 97.2606 110.265 97.4014C110.199 97.2692 110.107 97.1524 109.993 97.0589C109.879 96.9653 109.747 96.8971 109.605 96.8587C109.463 96.8203 109.314 96.8126 109.169 96.8362C109.023 96.8597 108.885 96.914 108.762 96.9953C108.639 97.0766 108.535 97.1832 108.456 97.3079C108.377 97.4327 108.326 97.5728 108.305 97.7189C108.284 97.8651 108.295 98.0139 108.336 98.1556C108.377 98.2973 108.447 98.4287 108.543 98.541L108.561 98.5592Z" fill="#230753"/>
</g>
<g style="mix-blend-mode:multiply" opacity="0.15">
<path d="M109.53 99.9225C109.458 99.7542 109.433 99.5691 109.459 99.3877C109.48 99.1912 109.555 99.0045 109.678 98.8495C109.8 98.6945 109.964 98.5775 110.15 98.5122C110.336 98.4469 110.536 98.436 110.728 98.4807C110.92 98.5254 111.095 98.6239 111.233 98.7647C111.168 98.6325 111.075 98.5157 110.962 98.4222C110.848 98.3286 110.716 98.2604 110.573 98.222C110.431 98.1836 110.283 98.1759 110.137 98.1995C109.992 98.223 109.853 98.2773 109.73 98.3586C109.608 98.4399 109.503 98.5465 109.425 98.6712C109.346 98.796 109.294 98.9361 109.274 99.0822C109.253 99.2283 109.263 99.3772 109.304 99.5189C109.345 99.6606 109.416 99.792 109.512 99.9042L109.53 99.9225Z" fill="#230753"/>
</g>
<g style="mix-blend-mode:multiply" opacity="0.15">
<path d="M110.475 101.538C110.403 101.369 110.378 101.184 110.404 101.003C110.425 100.806 110.501 100.62 110.623 100.465C110.745 100.31 110.909 100.193 111.095 100.127C111.281 100.062 111.482 100.051 111.673 100.096C111.865 100.141 112.041 100.239 112.179 100.38C112.113 100.248 112.021 100.131 111.907 100.037C111.793 99.9438 111.661 99.8756 111.519 99.8372C111.377 99.7988 111.228 99.7912 111.083 99.8147C110.937 99.8382 110.799 99.8925 110.676 99.9738C110.553 100.055 110.449 100.162 110.37 100.286C110.291 100.411 110.24 100.551 110.219 100.697C110.198 100.844 110.209 100.992 110.25 101.134C110.291 101.276 110.361 101.407 110.457 101.519L110.475 101.538Z" fill="#230753"/>
</g>
<g style="mix-blend-mode:multiply" opacity="0.15">
<path d="M111.12 103.18C111.048 103.012 111.023 102.827 111.049 102.645C111.069 102.449 111.145 102.262 111.267 102.107C111.39 101.952 111.553 101.835 111.739 101.77C111.925 101.705 112.126 101.694 112.318 101.738C112.51 101.783 112.685 101.882 112.823 102.022C112.758 101.89 112.665 101.774 112.551 101.68C112.438 101.586 112.305 101.518 112.163 101.48C112.021 101.441 111.873 101.434 111.727 101.457C111.582 101.481 111.443 101.535 111.32 101.616C111.197 101.698 111.093 101.804 111.014 101.929C110.936 102.054 110.884 102.194 110.864 102.34C110.843 102.486 110.853 102.635 110.894 102.777C110.935 102.918 111.006 103.05 111.101 103.162L111.12 103.18Z" fill="#230753"/>
</g>
<g style="mix-blend-mode:multiply" opacity="0.15">
<path d="M111.514 104.795C111.442 104.627 111.417 104.442 111.443 104.26C111.464 104.064 111.54 103.877 111.662 103.722C111.784 103.567 111.948 103.45 112.134 103.385C112.32 103.319 112.521 103.309 112.713 103.353C112.904 103.398 113.08 103.496 113.218 103.637C113.152 103.505 113.06 103.388 112.946 103.295C112.832 103.201 112.7 103.133 112.558 103.095C112.416 103.056 112.267 103.048 112.122 103.072C111.976 103.096 111.838 103.15 111.715 103.231C111.592 103.312 111.488 103.419 111.409 103.544C111.33 103.669 111.279 103.809 111.258 103.955C111.237 104.101 111.248 104.25 111.289 104.391C111.33 104.533 111.4 104.665 111.496 104.777L111.514 104.795Z" fill="#230753"/>
</g>
<g style="mix-blend-mode:multiply" opacity="0.15">
<path d="M111.741 106.725C111.669 106.557 111.644 106.372 111.67 106.19C111.69 105.994 111.766 105.807 111.889 105.652C112.011 105.497 112.175 105.38 112.361 105.315C112.547 105.25 112.747 105.239 112.939 105.283C113.131 105.328 113.306 105.427 113.444 105.567C113.379 105.435 113.286 105.318 113.173 105.225C113.059 105.131 112.926 105.063 112.784 105.025C112.642 104.986 112.494 104.979 112.348 105.002C112.203 105.026 112.064 105.08 111.941 105.161C111.818 105.243 111.714 105.349 111.635 105.474C111.557 105.599 111.505 105.739 111.485 105.885C111.464 106.031 111.474 106.18 111.515 106.322C111.556 106.463 111.627 106.595 111.722 106.707L111.741 106.725Z" fill="#230753"/>
</g>
<g style="mix-blend-mode:multiply" opacity="0.15">
<path d="M111.557 108.591C111.485 108.423 111.46 108.238 111.486 108.057C111.507 107.86 111.583 107.673 111.705 107.518C111.827 107.363 111.991 107.246 112.177 107.181C112.363 107.116 112.564 107.105 112.756 107.15C112.947 107.194 113.123 107.293 113.261 107.434C113.195 107.301 113.103 107.185 112.989 107.091C112.875 106.998 112.743 106.929 112.601 106.891C112.459 106.853 112.31 106.845 112.165 106.868C112.019 106.892 111.881 106.946 111.758 107.028C111.635 107.109 111.531 107.215 111.452 107.34C111.373 107.465 111.322 107.605 111.301 107.751C111.28 107.897 111.291 108.046 111.332 108.188C111.373 108.33 111.443 108.461 111.539 108.573L111.557 108.591Z" fill="#230753"/>
</g>
<g style="mix-blend-mode:multiply" opacity="0.15">
<path d="M111.526 110.494C111.454 110.326 111.429 110.141 111.455 109.959C111.476 109.763 111.551 109.576 111.674 109.421C111.796 109.266 111.96 109.149 112.146 109.084C112.332 109.019 112.532 109.008 112.724 109.052C112.916 109.097 113.091 109.196 113.23 109.336C113.164 109.204 113.072 109.087 112.958 108.994C112.844 108.9 112.712 108.832 112.57 108.794C112.427 108.755 112.279 108.748 112.133 108.771C111.988 108.795 111.849 108.849 111.727 108.93C111.604 109.012 111.499 109.118 111.421 109.243C111.342 109.368 111.29 109.508 111.27 109.654C111.249 109.8 111.26 109.949 111.301 110.091C111.342 110.232 111.412 110.364 111.508 110.476L111.526 110.494Z" fill="#230753"/>
</g>
<g style="mix-blend-mode:multiply" opacity="0.15">
<path d="M110.796 112.459C110.723 112.29 110.699 112.105 110.725 111.924C110.745 111.727 110.821 111.541 110.943 111.386C111.066 111.231 111.229 111.114 111.415 111.048C111.601 110.983 111.802 110.972 111.994 111.017C112.186 111.061 112.361 111.16 112.499 111.301C112.434 111.169 112.341 111.052 112.227 110.958C112.113 110.865 111.981 110.797 111.839 110.758C111.697 110.72 111.548 110.712 111.403 110.736C111.258 110.759 111.119 110.813 110.996 110.895C110.873 110.976 110.769 111.083 110.69 111.207C110.611 111.332 110.56 111.472 110.539 111.618C110.519 111.764 110.529 111.913 110.57 112.055C110.611 112.197 110.682 112.328 110.777 112.44L110.796 112.459Z" fill="#230753"/>
</g>
<ellipse cx="120.31" cy="121.546" rx="4.9258" ry="8.00443" transform="rotate(-82.3732 120.31 121.546)" fill="#DEE4E5"/>
<path d="M124.019 138.025C126.111 130.478 124.239 124.712 117.899 118.547L124.3 118.772L126.209 118.853C127.069 119.692 129.109 122.215 130.386 125.592C131.663 128.969 130.726 133.767 130.098 135.745L124.019 138.025Z" fill="#DEE4E5"/>
<ellipse cx="122.914" cy="136.06" rx="4.9258" ry="8.00443" transform="rotate(-111.335 122.914 136.06)" fill="#DEE4E5"/>
<ellipse cx="123.168" cy="136.585" rx="1.80386" ry="2.93127" transform="rotate(-111.335 123.168 136.585)" fill="#C4C4C4"/>
<path d="M328.914 186.081L325.383 185.303L320.706 198.837L323.994 199.424L328.914 186.081Z" fill="#F2F2F2"/>
<path d="M325.082 185.179L321.601 184.373L316.822 198.131L320.109 198.718L325.082 185.179Z" fill="#F2F2F2"/>
<path d="M321.25 184.278L317.709 183.539L312.856 197.573L316.144 198.159L321.25 184.278Z" fill="#F2F2F2"/>
<path d="M288.987 177.667L285.586 176.887L285.109 189.85L288.352 190.594L288.987 177.667Z" fill="#F2F2F2"/>
<path d="M292.679 178.471L289.277 177.691L288.801 190.654L292.044 191.398L292.679 178.471Z" fill="#F2F2F2"/>
<path d="M296.476 179.343L293.074 178.563L292.38 191.375L295.841 192.27L296.476 179.343Z" fill="#F2F2F2"/>
<path d="M339.788 181.765L334.279 180.407L338.516 152.293L343.213 153.104L339.788 181.765Z" fill="white"/>
<path d="M349.283 154.426L345.309 153.446L341.879 181.976L346.561 183.131L349.283 154.426Z" fill="#E0E0E0"/>
<path d="M359.222 156.205L355.051 155.176L352.423 183.556L357.263 184.75L359.222 156.205Z" fill="white"/>
<path d="M365.331 157.973L361.246 156.792L359.351 185.7L363.876 186.816L365.331 157.973Z" fill="#E0E0E0"/>
<path d="M338.571 189.291L334.398 186.79L329.392 226.819L334.296 228.825L338.571 189.291Z" fill="white"/>
<path d="M345.198 192.266L340.75 190.105L336.798 229.126L341.55 231.183L345.198 192.266Z" fill="#E0E0E0"/>
<path d="M356.534 193.505L352.832 191.314L349.743 231.073L354.386 233.193L356.534 193.505Z" fill="white"/>
<path d="M362.589 196.557L358.777 194.429L356.779 233.558L361.383 235.483L362.589 196.557Z" fill="#E0E0E0"/>
<path d="M284.407 141.53L289.958 142.521L277.61 166.897L271.411 165.236L284.407 141.53Z" fill="white"/>
<path d="M292.115 143.28L297.542 144.734L285.968 168.318L279.581 167.169L292.115 143.28Z" fill="#E0E0E0"/>
<path d="M274.595 138.647L280.172 139.579L268.093 164.486L261.793 162.967L274.595 138.647Z" fill="#E0E0E0"/>
<path d="M267.314 137.03L272.865 138.021L259.993 162.637L253.068 161.209L267.314 137.03Z" fill="white"/>
<path d="M258.228 170.667L263.604 173.361L245.976 205.684L239.344 203.376L258.228 170.667Z" fill="#E0E0E0"/>
<path d="M276.619 175.43L282.461 178.286L267.819 211.024L261.369 208.473L276.619 175.43Z" fill="#E0E0E0"/>
<path d="M250.212 167.475L255.553 170.237L237.035 202.404L230.49 200.295L250.212 167.475Z" fill="white"/>
<path d="M268.594 171.926L274.459 174.685L258.949 207.921L252.401 205.406L268.594 171.926Z" fill="white"/>
<path d="M237.185 202.976L257.517 167.632C258.323 167.259 258.954 167.74 259.169 168.027L238.926 203.392C238.853 203.501 238.652 203.751 238.43 203.887C238.154 204.057 237.684 203.851 237.314 203.621C237.019 203.437 237.105 203.115 237.185 202.976Z" fill="white"/>
<path d="M259.149 208.215L276.336 171.239C277.107 170.797 277.777 171.221 278.015 171.489L260.92 208.478C260.856 208.593 260.677 208.86 260.469 209.014C260.208 209.208 259.722 209.043 259.334 208.846C259.023 208.688 259.081 208.36 259.149 208.215Z" fill="white"/>
<path d="M276.394 169.794L290.347 143.152C290.946 142.851 291.448 143.185 291.625 143.389L277.74 170.044C277.689 170.126 277.546 170.317 277.384 170.424C277.18 170.558 276.813 170.421 276.521 170.264C276.287 170.138 276.339 169.898 276.394 169.794Z" fill="white"/>
<path d="M258.972 165.124L272.926 138.482C273.524 138.182 274.026 138.515 274.203 138.72L260.318 165.375C260.267 165.457 260.124 165.648 259.962 165.755C259.758 165.888 259.391 165.751 259.099 165.594C258.865 165.468 258.917 165.229 258.972 165.124Z" fill="white"/>
<path d="M344.725 153.564C344.512 152.781 343.797 153.031 343.466 153.253L339.839 183.342L341.413 183.73C342.472 174.026 344.616 154.406 344.725 153.564Z" fill="white"/>
<path d="M360.876 156.744C360.528 155.963 359.734 156.173 359.381 156.375L357.34 188.42L358.749 188.941C359.443 178.553 360.84 157.57 360.876 156.744Z" fill="white"/>
<path d="M356.506 233.715C355.966 233.94 354.947 233.451 354.569 233.196L357.051 188.478L358.18 184.952L358.729 188.928C357.976 203.1 356.481 233.118 356.506 233.715Z" fill="white"/>
<path d="M336.462 229.682C335.912 229.879 334.918 229.342 334.553 229.069L339.217 184.525L340.517 181.059L340.871 185.056C339.426 199.175 336.467 229.084 336.462 229.682Z" fill="white"/>
<rect x="307.789" y="165.844" width="9.83876" height="33.8423" rx="4.91938" transform="rotate(16.6145 307.789 165.844)" fill="#F4F4F4"/>
<rect x="300.441" y="184.329" width="13.7773" height="18.3422" rx="6.88864" transform="rotate(16.6145 300.441 184.329)" fill="#F4F4F4"/>
<rect x="312.305" y="156.916" width="6.96241" height="15.4989" rx="3.4812" transform="rotate(18.4732 312.305 156.916)" fill="#F4F4F4"/>
<rect x="314.133" y="157.374" width="3.07868" height="1.32927" rx="0.664633" transform="rotate(18.4732 314.133 157.374)" fill="white"/>
<rect x="329.711" y="165.014" width="6.0495" height="29.9159" rx="3.02475" transform="rotate(107.309 329.711 165.014)" fill="#F4F4F4"/>
<ellipse cx="306.519" cy="158.985" rx="0.575203" ry="4.32533" transform="rotate(-71.762 306.519 158.985)" fill="#DEE4E5"/>
<ellipse cx="313.847" cy="172.919" rx="1.51764" ry="2.89025" transform="rotate(-164.535 313.847 172.919)" fill="#DEE4E5"/>
<path d="M257.406 164.441L361.85 189.024C361.85 189.024 362.276 189.517 362.138 190.614C361.982 191.861 361.432 192.596 361.432 192.596L256.146 169.145C256.146 169.145 255.382 168.265 255.756 166.645C256.129 165.024 257.406 164.441 257.406 164.441Z" fill="#C4C4C4"/>
<path d="M257.738 163.371L362.182 187.954C362.182 187.954 362.608 188.446 362.47 189.544C362.314 190.791 361.764 191.525 361.764 191.525L256.478 168.075C256.478 168.075 255.714 167.195 256.088 165.574C256.461 163.954 257.738 163.371 257.738 163.371Z" fill="#DEE4E5"/>
<path d="M257.935 163.449L362.136 187.933C362.136 187.933 362.228 188.132 362.284 188.535C362.347 188.994 362.344 189.251 362.344 189.251L257.387 164.747C257.387 164.747 257.173 164.36 257.255 163.789C257.337 163.219 257.935 163.449 257.935 163.449Z" fill="white"/>
<ellipse cx="315.675" cy="164.42" rx="0.671851" ry="4.00737" transform="rotate(-164.535 315.675 164.42)" fill="#DEE4E5"/>
<path d="M147.693 340.222C147.914 340.833 147.949 341.496 147.794 342.128C147.64 342.759 147.301 343.331 146.823 343.77C146.344 344.21 145.745 344.498 145.103 344.598C144.461 344.698 143.803 344.606 143.213 344.334C142.623 344.061 142.127 343.62 141.787 343.066C141.447 342.512 141.279 341.869 141.303 341.22C141.327 340.57 141.543 339.942 141.924 339.415C142.304 338.888 142.832 338.485 143.441 338.258C143.849 338.105 144.283 338.035 144.718 338.051C145.154 338.068 145.581 338.17 145.977 338.353C146.372 338.535 146.727 338.795 147.022 339.116C147.316 339.436 147.544 339.813 147.693 340.222Z" fill="#05E0E9" stroke="white" stroke-width="2" stroke-miterlimit="10"/>
<path d="M266.145 304.687C252.304 323.247 234.628 335.601 214.272 342.407C193.916 349.212 170.524 349.098 148.004 342.082" stroke="white" stroke-miterlimit="10" stroke-linecap="round"/>
<path d="M81.528 156.539C67.2373 175.409 62.6295 188.096 58.8796 209.071C55.1296 230.045 59.0123 258.111 69.8887 273.242" stroke="white" stroke-miterlimit="10" stroke-linecap="round"/>
<path d="M78.0989 154.688C63.8083 173.558 58.4593 187.677 54.7093 208.652C50.9594 229.627 55.159 259.692 66.0353 274.823" stroke="white" stroke-miterlimit="10" stroke-linecap="round"/>
<path d="M188.794 105.58C213.33 106.838 229.372 113.444 249.819 128.489" stroke="white" stroke-linecap="round" stroke-linejoin="round"/>
<path d="M187.537 109.984C212.072 111.242 227.486 117.275 247.933 132.319" stroke="white" stroke-linecap="round" stroke-linejoin="round"/>
<path d="M189.423 101.491C213.959 102.749 231.26 109.097 251.706 124.141" stroke="white" stroke-linecap="round" stroke-linejoin="round"/>
<path fill-rule="evenodd" clip-rule="evenodd" d="M199.996 90.4159C200.4 90.4672 200.812 90.4937 201.231 90.4937C206.178 90.4937 210.189 86.7938 210.189 82.2296C210.189 77.8001 206.412 74.1845 201.667 73.9751C200.248 72.1793 197.48 70.9602 194.298 70.9602C193.29 70.9602 192.323 71.0826 191.428 71.3068C190.172 70.4654 188.552 69.9585 186.783 69.9585C184.818 69.9585 183.036 70.5841 181.734 71.5992C180.241 70.8831 178.389 70.4592 176.384 70.4592C173.589 70.4592 171.093 71.2822 169.45 72.5719C168.936 72.5001 168.407 72.4627 167.868 72.4627C162.75 72.4627 158.602 75.8263 158.602 79.9755C158.602 80.7993 158.765 81.5921 159.067 82.3337C158.866 82.939 158.758 83.5757 158.758 84.2328C158.758 86.1072 159.634 87.8157 161.072 89.104L150.42 104.951L166.759 91.4543C167.073 91.4813 167.392 91.4952 167.716 91.4952C168.34 91.4952 168.949 91.4435 169.537 91.345C171.084 92.3778 173.066 92.998 175.227 92.998C176.918 92.998 178.5 92.6179 179.85 91.9572C181.2 92.6179 182.782 92.998 184.473 92.998C186.383 92.998 188.153 92.5135 189.607 91.6879C190.838 92.2049 192.237 92.497 193.72 92.497C196.164 92.497 198.38 91.703 199.996 90.4159Z" fill="white"/>
<path d="M163.494 78.7112H164.664V84.0212H167.958V85.0112H163.494V78.7112ZM173.247 82.6352C173.247 82.7132 173.241 82.8242 173.229 82.9682H169.458C169.524 83.3222 169.695 83.6042 169.971 83.8142C170.253 84.0182 170.601 84.1202 171.015 84.1202C171.543 84.1202 171.978 83.9462 172.32 83.5982L172.923 84.2912C172.707 84.5492 172.434 84.7442 172.104 84.8762C171.774 85.0082 171.402 85.0742 170.988 85.0742C170.46 85.0742 169.995 84.9692 169.593 84.7592C169.191 84.5492 168.879 84.2582 168.657 83.8862C168.441 83.5082 168.333 83.0822 168.333 82.6082C168.333 82.1402 168.438 81.7202 168.648 81.3482C168.864 80.9702 169.161 80.6762 169.539 80.4662C169.917 80.2562 170.343 80.1512 170.817 80.1512C171.285 80.1512 171.702 80.2562 172.068 80.4662C172.44 80.6702 172.728 80.9612 172.932 81.3392C173.142 81.7112 173.247 82.1432 173.247 82.6352ZM170.817 81.0512C170.457 81.0512 170.151 81.1592 169.899 81.3752C169.653 81.5852 169.503 81.8672 169.449 82.2212H172.176C172.128 81.8732 171.981 81.5912 171.735 81.3752C171.489 81.1592 171.183 81.0512 170.817 81.0512ZM177.217 84.7502C177.085 84.8582 176.923 84.9392 176.731 84.9932C176.545 85.0472 176.347 85.0742 176.137 85.0742C175.609 85.0742 175.201 84.9362 174.913 84.6602C174.625 84.3842 174.481 83.9822 174.481 83.4542V81.1412H173.689V80.2412H174.481V79.1432H175.606V80.2412H176.893V81.1412H175.606V83.4272C175.606 83.6612 175.663 83.8412 175.777 83.9672C175.891 84.0872 176.056 84.1472 176.272 84.1472C176.524 84.1472 176.734 84.0812 176.902 83.9492L177.217 84.7502ZM178.511 78.2702C178.721 78.2702 178.895 78.3392 179.033 78.4772C179.171 78.6152 179.24 78.7922 179.24 79.0082C179.24 79.1162 179.225 79.2212 179.195 79.3232C179.171 79.4252 179.12 79.5782 179.042 79.7822L178.574 81.0602H177.845L178.205 79.6742C178.073 79.6262 177.968 79.5452 177.89 79.4312C177.818 79.3112 177.782 79.1702 177.782 79.0082C177.782 78.7922 177.851 78.6152 177.989 78.4772C178.127 78.3392 178.301 78.2702 178.511 78.2702ZM181.675 85.0742C181.285 85.0742 180.904 85.0232 180.532 84.9212C180.16 84.8192 179.863 84.6902 179.641 84.5342L180.073 83.6792C180.289 83.8232 180.547 83.9402 180.847 84.0302C181.153 84.1142 181.453 84.1562 181.747 84.1562C182.419 84.1562 182.755 83.9792 182.755 83.6252C182.755 83.4572 182.668 83.3402 182.494 83.2742C182.326 83.2082 182.053 83.1452 181.675 83.0852C181.279 83.0252 180.955 82.9562 180.703 82.8782C180.457 82.8002 180.241 82.6652 180.055 82.4732C179.875 82.2752 179.785 82.0022 179.785 81.6542C179.785 81.1982 179.974 80.8352 180.352 80.5652C180.736 80.2892 181.252 80.1512 181.9 80.1512C182.23 80.1512 182.56 80.1902 182.89 80.2682C183.22 80.3402 183.49 80.4392 183.7 80.5652L183.268 81.4202C182.86 81.1802 182.401 81.0602 181.891 81.0602C181.561 81.0602 181.309 81.1112 181.135 81.2132C180.967 81.3092 180.883 81.4382 180.883 81.6002C180.883 81.7802 180.973 81.9092 181.153 81.9872C181.339 82.0592 181.624 82.1282 182.008 82.1942C182.392 82.2542 182.707 82.3232 182.953 82.4012C183.199 82.4792 183.409 82.6112 183.583 82.7972C183.763 82.9832 183.853 83.2472 183.853 83.5892C183.853 84.0392 183.658 84.3992 183.268 84.6692C182.878 84.9392 182.347 85.0742 181.675 85.0742ZM192.079 80.2052V84.2822C192.079 85.9742 191.215 86.8202 189.487 86.8202C189.025 86.8202 188.587 86.7602 188.173 86.6402C187.759 86.5262 187.417 86.3582 187.147 86.1362L187.651 85.2902C187.861 85.4642 188.125 85.6022 188.443 85.7042C188.767 85.8122 189.094 85.8662 189.424 85.8662C189.952 85.8662 190.339 85.7462 190.585 85.5062C190.831 85.2662 190.954 84.9002 190.954 84.4082V84.1562C190.762 84.3662 190.528 84.5252 190.252 84.6332C189.976 84.7412 189.673 84.7952 189.343 84.7952C188.887 84.7952 188.473 84.6992 188.101 84.5072C187.735 84.3092 187.444 84.0332 187.228 83.6792C187.018 83.3252 186.913 82.9202 186.913 82.4642C186.913 82.0082 187.018 81.6062 187.228 81.2582C187.444 80.9042 187.735 80.6312 188.101 80.4392C188.473 80.2472 188.887 80.1512 189.343 80.1512C189.691 80.1512 190.006 80.2082 190.288 80.3222C190.576 80.4362 190.816 80.6102 191.008 80.8442V80.2052H192.079ZM189.514 83.8412C189.94 83.8412 190.288 83.7152 190.558 83.4632C190.834 83.2052 190.972 82.8722 190.972 82.4642C190.972 82.0622 190.834 81.7352 190.558 81.4832C190.288 81.2312 189.94 81.1052 189.514 81.1052C189.082 81.1052 188.728 81.2312 188.452 81.4832C188.182 81.7352 188.047 82.0622 188.047 82.4642C188.047 82.8722 188.182 83.2052 188.452 83.4632C188.728 83.7152 189.082 83.8412 189.514 83.8412ZM195.718 85.0742C195.232 85.0742 194.794 84.9692 194.404 84.7592C194.014 84.5492 193.708 84.2582 193.486 83.8862C193.27 83.5082 193.162 83.0822 193.162 82.6082C193.162 82.1342 193.27 81.7112 193.486 81.3392C193.708 80.9672 194.014 80.6762 194.404 80.4662C194.794 80.2562 195.232 80.1512 195.718 80.1512C196.21 80.1512 196.651 80.2562 197.041 80.4662C197.431 80.6762 197.734 80.9672 197.95 81.3392C198.172 81.7112 198.283 82.1342 198.283 82.6082C198.283 83.0822 198.172 83.5082 197.95 83.8862C197.734 84.2582 197.431 84.5492 197.041 84.7592C196.651 84.9692 196.21 85.0742 195.718 85.0742ZM195.718 84.1112C196.132 84.1112 196.474 83.9732 196.744 83.6972C197.014 83.4212 197.149 83.0582 197.149 82.6082C197.149 82.1582 197.014 81.7952 196.744 81.5192C196.474 81.2432 196.132 81.1052 195.718 81.1052C195.304 81.1052 194.962 81.2432 194.692 81.5192C194.428 81.7952 194.296 82.1582 194.296 82.6082C194.296 83.0582 194.428 83.4212 194.692 83.6972C194.962 83.9732 195.304 84.1112 195.718 84.1112ZM199.215 78.7112H200.547L200.322 82.9232H199.431L199.215 78.7112ZM199.881 85.0742C199.671 85.0742 199.497 85.0082 199.359 84.8762C199.221 84.7382 199.152 84.5702 199.152 84.3722C199.152 84.1742 199.221 84.0092 199.359 83.8772C199.497 83.7452 199.671 83.6792 199.881 83.6792C200.085 83.6792 200.253 83.7452 200.385 83.8772C200.523 84.0092 200.592 84.1742 200.592 84.3722C200.592 84.5702 200.523 84.7382 200.385 84.8762C200.253 85.0082 200.085 85.0742 199.881 85.0742ZM201.72 78.7112H203.052L202.827 82.9232H201.936L201.72 78.7112ZM202.386 85.0742C202.176 85.0742 202.002 85.0082 201.864 84.8762C201.726 84.7382 201.657 84.5702 201.657 84.3722C201.657 84.1742 201.726 84.0092 201.864 83.8772C202.002 83.7452 202.176 83.6792 202.386 83.6792C202.59 83.6792 202.758 83.7452 202.89 83.8772C203.028 84.0092 203.097 84.1742 203.097 84.3722C203.097 84.5702 203.028 84.7382 202.89 84.8762C202.758 85.0082 202.59 85.0742 202.386 85.0742ZM204.225 78.7112H205.557L205.332 82.9232H204.441L204.225 78.7112ZM204.891 85.0742C204.681 85.0742 204.507 85.0082 204.369 84.8762C204.231 84.7382 204.162 84.5702 204.162 84.3722C204.162 84.1742 204.231 84.0092 204.369 83.8772C204.507 83.7452 204.681 83.6792 204.891 83.6792C205.095 83.6792 205.263 83.7452 205.395 83.8772C205.533 84.0092 205.602 84.1742 205.602 84.3722C205.602 84.5702 205.533 84.7382 205.395 84.8762C205.263 85.0082 205.095 85.0742 204.891 85.0742Z" fill="#272727"/>
<defs>
<radialGradient id="paint0_radial" cx="0" cy="0" r="1" gradientUnits="userSpaceOnUse" gradientTransform="translate(119067 111409) scale(11692)">
<stop stop-color="white"/>
<stop offset="0.56" stop-color="#4072B6"/>
<stop offset="0.6" stop-color="#31588D"/>
<stop offset="0.63" stop-color="#244167"/>
<stop offset="0.68" stop-color="#192D47"/>
<stop offset="0.72" stop-color="#101C2D"/>
<stop offset="0.77" stop-color="#091019"/>
<stop offset="0.82" stop-color="#04070B"/>
<stop offset="0.89" stop-color="#010202"/>
<stop offset="1"/>
</radialGradient>
<radialGradient id="paint1_radial" cx="0" cy="0" r="1" gradientUnits="userSpaceOnUse" gradientTransform="translate(98150 92185.6) scale(8137.25 8167.5)">
<stop stop-color="white"/>
<stop offset="0.56" stop-color="#4072B6"/>
<stop offset="0.6" stop-color="#31588D"/>
<stop offset="0.63" stop-color="#244167"/>
<stop offset="0.68" stop-color="#192D47"/>
<stop offset="0.72" stop-color="#101C2D"/>
<stop offset="0.77" stop-color="#091019"/>
<stop offset="0.82" stop-color="#04070B"/>
<stop offset="0.89" stop-color="#010202"/>
<stop offset="1"/>
</radialGradient>
<linearGradient id="paint2_linear" x1="83.2101" y1="229.033" x2="273.07" y2="229.033" gradientUnits="userSpaceOnUse">
<stop stop-color="#00FFDF"/>
<stop offset="1" stop-color="#379FCD"/>
</linearGradient>
<linearGradient id="paint3_linear" x1="40235.9" y1="51826.8" x2="42678.9" y2="51826.8" gradientUnits="userSpaceOnUse">
<stop stop-color="#41FFE7"/>
<stop offset="1" stop-color="#00C3D4"/>
</linearGradient>
<linearGradient id="paint4_linear" x1="24880.9" y1="26386.5" x2="26034.1" y2="26386.5" gradientUnits="userSpaceOnUse">
<stop stop-color="#00FFDF"/>
<stop offset="1" stop-color="#00C3D4"/>
</linearGradient>
</defs>
</svg>
