<svg width="600" height="442" viewBox="0 0 600 442" fill="none" xmlns="http://www.w3.org/2000/svg">
<path d="M254.901 310.269C253.456 310.923 252.301 312.059 251.688 313.427C251.101 312.606 250.295 311.945 249.338 311.501C248.382 311.056 247.302 310.841 246.191 310.872C245.079 310.904 243.968 311.182 242.95 311.683C241.932 312.183 241.037 312.892 240.341 313.75C239.251 312.467 237.85 311.445 236.234 310.755C234.617 310.064 232.826 309.721 230.982 309.75C229.138 309.779 227.287 310.179 225.557 310.923C223.827 311.666 222.259 312.735 220.962 314.055C220.828 313.76 220.733 313.448 220.599 313.154C219.644 311.05 218.124 309.24 216.17 307.883C214.217 306.526 211.89 305.662 209.391 305.367C206.892 305.071 204.297 305.352 201.831 306.187C199.365 307.021 197.104 308.382 195.242 310.153C194.339 308.869 193.111 307.82 191.652 307.084C190.192 306.348 188.54 305.946 186.819 305.907C185.099 305.869 183.356 306.195 181.723 306.862C180.09 307.528 178.609 308.517 177.394 309.754C175.572 307.335 172.893 305.601 169.759 304.812C166.625 304.023 163.205 304.221 160.012 305.376C156.819 306.532 154.026 308.583 152.051 311.221C150.076 313.86 149.026 316.944 149.058 320.01C147.361 320.816 145.871 321.984 144.723 323.408C143.194 322.369 141.354 321.751 139.394 321.62C137.433 321.488 135.422 321.847 133.568 322.658C131.714 323.47 130.083 324.706 128.844 326.239C127.605 327.772 126.803 329.546 126.519 331.38C124.921 330.863 123.179 330.712 121.433 330.939C119.688 331.167 117.987 331.765 116.468 332.688C114.949 333.61 113.654 334.831 112.686 336.251C111.719 337.671 111.106 339.252 110.897 340.866C110.295 340.604 109.629 340.464 108.941 340.454C108.253 340.444 107.557 340.565 106.896 340.809C106.236 341.052 105.623 341.414 105.097 341.871C104.571 342.329 104.142 342.872 103.837 343.469C103.899 342.833 103.783 342.208 103.502 341.653C103.221 341.099 102.783 340.634 102.23 340.302C101.677 339.971 101.029 339.785 100.346 339.761C99.6632 339.738 98.9694 339.878 98.3311 340.168L98.0033 340.316C98.0289 339.736 97.9063 339.17 97.6455 338.665C97.3847 338.16 96.993 337.73 96.5019 337.409C96.0109 337.089 95.4343 336.886 94.8186 336.819C94.2029 336.751 93.5655 336.82 92.9576 337.02C93.3571 336.134 93.3938 335.171 93.0603 334.323C92.7269 333.474 92.0477 332.802 91.1574 332.439C90.2671 332.076 89.2307 332.049 88.2538 332.363C87.2768 332.678 86.4305 333.311 85.8828 334.136C85.2756 333.634 84.5049 333.322 83.6668 333.239C82.8286 333.157 81.9602 333.307 81.1697 333.671C80.3793 334.036 79.7018 334.598 79.2217 335.289C78.7416 335.979 78.4802 336.767 78.4701 337.554C77.9161 337.312 77.2958 337.201 76.6601 337.23C76.0244 337.258 75.3914 337.426 74.8131 337.718C74.2349 338.011 73.7277 338.42 73.3334 338.912C72.9391 339.405 72.6688 339.966 72.5447 340.551L72.1647 340.723C71.7054 340.466 71.1839 340.305 70.6338 340.252C70.0837 340.199 69.5172 340.254 68.9705 340.414C68.4239 340.574 67.9093 340.835 67.4598 341.181C67.0102 341.527 66.6357 341.949 66.3603 342.421C65.7633 342.031 65.0422 341.816 64.2815 341.803C63.5208 341.79 62.7521 341.979 62.0655 342.347C61.379 342.715 60.803 343.248 60.4052 343.883C60.0075 344.518 59.8044 345.228 59.8198 345.931C59.1149 345.862 58.3858 345.971 57.7082 346.248C57.0306 346.524 56.4294 346.957 55.967 347.501C55.5047 348.046 55.1982 348.682 55.0794 349.344C54.9607 350.006 55.034 350.669 55.2918 351.264C54.9652 351.333 54.6452 351.437 54.3387 351.575C53.7197 351.857 53.1726 352.27 52.7463 352.779C52.32 353.287 52.028 353.874 51.8963 354.488C51.7646 355.101 51.7974 355.721 51.9918 356.293C52.1861 356.864 52.536 357.369 53.0099 357.762L52.7012 357.902C52.0888 358.18 51.5464 358.587 51.1216 359.087C50.6967 359.587 50.4025 360.166 50.2648 360.771C50.1271 361.377 50.1501 361.991 50.3318 362.56C50.5134 363.128 50.8482 363.634 51.3067 364.033C51.092 364.093 50.8816 364.17 50.6777 364.262C49.6863 364.712 48.8938 365.492 48.4746 366.432C48.0554 367.371 48.0438 368.393 48.4425 369.272C48.5448 369.494 48.6713 369.706 48.8202 369.902C47.9381 369.9 47.05 370.116 46.2474 370.529C45.4448 370.941 44.7567 371.534 44.2541 372.247C42.3095 371.223 40.009 370.821 37.6772 371.097C35.3455 371.373 33.1003 372.313 31.2585 373.785C31.1553 373.391 31.0214 373.008 30.8579 372.637C30.259 371.304 29.272 370.174 27.9976 369.363C26.7233 368.552 25.2072 368.089 23.6041 368.021C22.0011 367.953 20.3685 368.283 18.873 368.976C17.3776 369.67 16.0729 370.702 15.092 371.968C13.0848 370.201 10.4646 369.118 7.6055 368.874C4.74638 368.631 1.79457 369.238 -0.828464 370.61C-3.45149 371.982 -5.6116 374.048 -7.00035 376.514C-8.3891 378.98 -8.93548 381.719 -8.56146 384.34C-10.4663 384.345 -12.3825 384.802 -14.1265 385.67C-15.8705 386.537 -17.3839 387.785 -18.522 389.294C-19.66 390.804 -20.3845 392.523 -20.626 394.289C-20.8675 396.054 -20.6181 397.807 -19.9015 399.378C-19.372 400.551 -18.5904 401.597 -17.6003 402.457C-19.2289 403.594 -20.4751 405.145 -21.1633 406.89C-21.5598 407.895 -21.7596 408.936 -21.7599 409.962L51.1216 409.962L223.101 331.967C224.813 332.848 226.769 333.316 228.802 333.329C230.835 333.343 232.887 332.903 234.784 332.047C236.68 331.19 238.367 329.941 239.701 328.406C241.036 326.871 241.979 325.095 242.451 323.227C243.35 323.6 244.344 323.779 245.365 323.749C246.386 323.719 247.407 323.482 248.357 323.055C249.307 322.628 250.162 322.02 250.862 321.276C251.561 320.531 252.089 319.668 252.406 318.747C253.066 319.496 253.958 320.04 254.98 320.317C256.002 320.594 257.113 320.594 258.189 320.315C259.265 320.037 260.263 319.492 261.069 318.742C261.874 317.992 262.457 317.067 262.75 316.072C263.043 315.076 263.035 314.049 262.726 313.108C262.418 312.167 261.822 311.348 261.006 310.744C260.189 310.141 259.185 309.777 258.106 309.693C257.027 309.609 255.917 309.808 254.901 310.269Z" fill="#D9D9D9"/>
<path d="M-58.598 46.2904C-58.7074 49.2021 -57.9043 52.1117 -56.3415 54.4667C-54.7786 56.8217 -52.5646 58.4579 -50.1203 59.0647C-47.6759 59.6714 -45.1713 59.2064 -43.0821 57.7579C-40.993 56.3094 -39.4649 53.9784 -38.788 51.2076C-37.8731 53.099 -36.5058 54.6449 -34.8675 55.6401C-33.2293 56.6354 -31.3974 57.0331 -29.6148 56.7804C-29.4227 56.7531 -29.2305 56.7258 -29.0451 56.6753C-27.8983 59.4419 -26.1164 61.7981 -23.9123 63.4624C-21.7083 65.1268 -19.1754 66.0287 -16.6163 66.0605C-14.0572 66.0923 -11.5802 65.2526 -9.48145 63.6417C-7.38268 62.0309 -5.7509 59.717 -4.78115 56.9768C-3.45203 57.5471 -2.04312 57.7471 -0.667735 57.5609C0.70765 57.3747 2.01113 56.8073 3.13787 55.9044C4.26462 55.0015 5.18319 53.7884 5.81971 52.3625C6.45623 50.9366 6.79294 49.3377 6.80276 47.6945C8.51187 49.0455 10.5305 49.6943 12.5295 49.535C14.5285 49.3758 16.39 48.4178 17.8103 46.8175C19.0265 48.1315 20.5058 49.0487 22.091 49.4718C23.6763 49.8948 25.3082 49.8078 26.8135 49.22C28.3187 48.6323 29.6412 47.5657 30.6402 46.1336C31.6393 44.7014 32.2777 42.9573 32.4876 41.0864C33.9849 42.5394 35.7707 43.4997 37.6517 43.8636C39.5328 44.2274 41.4374 43.9809 43.1595 43.1507C44.4565 45.2849 46.2688 46.9167 48.3409 47.8161C50.4131 48.7156 52.6408 48.8375 54.7101 48.1646C56.8807 50.0543 59.5394 50.9317 62.1467 50.6187C64.754 50.3056 67.1145 48.8256 68.7491 46.4789C70.6502 46.8536 72.5766 46.6046 74.3155 45.7596C76.0543 44.9146 77.538 43.5064 78.6026 41.6906C79.7521 43.5205 81.2877 44.9693 83.0442 45.8811C84.8006 46.7929 86.7114 47.1331 88.5708 46.8651L88.6404 46.8552C90.0866 50.1156 92.419 52.7399 95.2429 54.2843C98.0668 55.8287 101.209 56.1983 104.138 55.3307C107.067 54.463 109.603 52.4114 111.317 49.5227C113.03 46.6341 113.817 43.0858 113.543 39.478C113.719 39.4531 113.898 39.4276 114.077 39.4022C115.836 39.1553 117.499 38.41 118.925 37.229C120.352 36.0479 121.501 34.4655 122.276 32.6147C123.051 30.7639 123.429 28.6988 123.378 26.5928C123.327 24.4868 122.849 22.4014 121.984 20.5118C121.12 18.6222 119.893 16.9836 118.408 15.7336C116.922 14.4836 115.222 13.6587 113.449 13.3282C111.675 12.9977 109.882 13.1712 108.218 13.8343C106.554 14.4973 105.069 15.6304 103.887 17.1385L53.1969 24.3422C51.156 23.8247 49.0601 24.033 47.1785 24.9403C46.0256 23.0387 44.4604 21.5305 42.6597 20.5862C40.859 19.6419 38.8947 19.2992 36.9889 19.5968C35.0831 19.8944 33.3117 20.8205 31.875 22.2703C30.4383 23.7201 29.3937 25.6358 28.8591 27.801L15.2773 29.7311C13.6337 28.7244 11.7928 28.3212 10.0016 28.5758C8.21037 28.8303 6.55463 29.7304 5.25661 31.1552L-29.4067 36.0813C-31.5234 35.4764 -33.717 35.7881 -35.5814 36.9588L-42.6671 37.9658C-44.4704 36.3528 -46.6445 35.46 -48.8545 35.425C-48.8766 35.1508 -48.902 34.8771 -48.9412 34.6014C-49.2223 32.6541 -49.9553 30.812 -51.0576 29.283C-52.16 27.754 -53.5877 26.599 -55.1797 25.9481C-56.7716 25.2973 -58.4646 25.1766 -60.0674 25.5997C-61.6703 26.0228 -63.1192 26.9728 -64.2508 28.3426C-65.3825 29.7123 -66.1517 31.4473 -66.4717 33.3517C-66.7917 35.2562 -66.6498 37.2543 -66.062 39.1206C-65.4742 40.9869 -64.4639 42.6472 -63.145 43.914C-61.8261 45.1809 -60.2512 46.004 -58.598 46.2904Z" fill="white"/>
<path d="M-58.598 46.2904C-58.7074 49.2021 -57.9043 52.1117 -56.3415 54.4667C-54.7786 56.8217 -52.5646 58.4579 -50.1203 59.0647C-47.6759 59.6714 -45.1713 59.2064 -43.0821 57.7579C-40.993 56.3094 -39.4649 53.9784 -38.788 51.2076C-37.8731 53.099 -36.5058 54.6449 -34.8675 55.6401C-33.2293 56.6354 -31.3974 57.0331 -29.6148 56.7804C-29.4227 56.7531 -29.2305 56.7258 -29.0451 56.6753C-27.8983 59.4419 -26.1164 61.7981 -23.9123 63.4624C-21.7083 65.1268 -19.1754 66.0287 -16.6163 66.0605C-14.0572 66.0923 -11.5802 65.2526 -9.48145 63.6417C-7.38268 62.0309 -5.7509 59.717 -4.78115 56.9768C-3.45203 57.5471 -2.04312 57.7471 -0.667735 57.5609C0.70765 57.3747 2.01113 56.8073 3.13787 55.9044C4.26462 55.0015 5.18319 53.7884 5.81971 52.3625C6.45623 50.9366 6.79294 49.3377 6.80276 47.6945C8.51187 49.0455 10.5305 49.6943 12.5295 49.535C14.5285 49.3758 16.39 48.4178 17.8103 46.8175C19.0265 48.1315 20.5058 49.0487 22.091 49.4718C23.6763 49.8948 25.3082 49.8078 26.8135 49.22C28.3187 48.6323 29.6412 47.5657 30.6402 46.1336C31.6393 44.7014 32.2777 42.9573 32.4876 41.0864C33.9849 42.5394 35.7707 43.4997 37.6517 43.8636C39.5328 44.2274 41.4374 43.9809 43.1595 43.1507C44.4565 45.2849 46.2688 46.9167 48.3409 47.8161C50.4131 48.7156 52.6408 48.8375 54.7101 48.1646C56.8807 50.0543 59.5394 50.9317 62.1467 50.6187C64.754 50.3056 67.1145 48.8256 68.7491 46.4789C70.6502 46.8536 72.5766 46.6046 74.3155 45.7596C76.0543 44.9146 77.538 43.5064 78.6026 41.6906C79.7521 43.5205 81.2877 44.9693 83.0442 45.8811C84.8006 46.7929 86.7114 47.1331 88.5708 46.8651L88.6404 46.8552C90.0866 50.1156 92.419 52.7399 95.2429 54.2843C98.0668 55.8287 101.209 56.1983 104.138 55.3307C107.067 54.463 109.603 52.4114 111.317 49.5227C113.03 46.6341 113.817 43.0858 113.543 39.478C113.719 39.4531 113.898 39.4276 114.077 39.4022C115.836 39.1553 117.499 38.41 118.925 37.229C120.352 36.0479 121.501 34.4655 122.276 32.6147C123.051 30.7639 123.429 28.6988 123.378 26.5928C123.327 24.4868 122.849 22.4014 121.984 20.5118C121.12 18.6222 119.893 16.9836 118.408 15.7336C116.922 14.4836 115.222 13.6587 113.449 13.3282C111.675 12.9977 109.882 13.1712 108.218 13.8343C106.554 14.4973 105.069 15.6304 103.887 17.1385L53.1969 24.3422C51.156 23.8247 49.0601 24.033 47.1785 24.9403C46.0256 23.0387 44.4604 21.5305 42.6597 20.5862C40.859 19.6419 38.8947 19.2992 36.9889 19.5968C35.0831 19.8944 33.3117 20.8205 31.875 22.2703C30.4383 23.7201 29.3937 25.6358 28.8591 27.801L15.2773 29.7311C13.6337 28.7244 11.7928 28.3212 10.0016 28.5758C8.21037 28.8303 6.55463 29.7304 5.25661 31.1552L-29.4067 36.0813C-31.5234 35.4764 -33.717 35.7881 -35.5814 36.9588L-42.6671 37.9658C-44.4704 36.3528 -46.6445 35.46 -48.8545 35.425C-48.8766 35.1508 -48.902 34.8771 -48.9412 34.6014C-49.2223 32.6541 -49.9553 30.812 -51.0576 29.283C-52.16 27.754 -53.5877 26.599 -55.1797 25.9481C-56.7716 25.2973 -58.4646 25.1766 -60.0674 25.5997C-61.6703 26.0228 -63.1192 26.9728 -64.2508 28.3426C-65.3825 29.7123 -66.1517 31.4473 -66.4717 33.3517C-66.7917 35.2562 -66.6498 37.2543 -66.062 39.1206C-65.4742 40.9869 -64.4639 42.6472 -63.145 43.914C-61.8261 45.1809 -60.2512 46.004 -58.598 46.2904Z" fill="white"/>
<path d="M327.5 117.5L213 54L179.5 51.5L135.5 40.5L-3.5 35V17H414H610.5V410.5H336.703H109.5H-12.5V383.5L109.5 362.5L244.285 326.768L306.754 262.627L336.703 182.497L327.5 117.5Z" fill="white"/>
<path d="M350.334 297.611C349.254 292.25 346.85 287.101 343.58 283.141C340.31 279.182 336.401 276.687 332.596 276.132C328.791 275.576 325.355 276.999 322.94 280.128C320.525 283.258 319.3 287.878 319.497 293.109C317.365 289.852 314.723 287.33 311.922 285.879C309.122 284.428 306.294 284.116 303.815 284.985C303.548 285.079 303.281 285.173 303.033 285.307C300.192 280.499 296.604 276.587 292.697 274.038C288.791 271.49 284.732 270.414 281.005 270.938C277.278 271.462 274.042 273.565 271.682 276.995C269.322 280.424 267.939 285.036 267.699 290.278C265.527 289.535 263.398 289.49 261.482 290.144C259.565 290.798 257.915 292.135 256.665 294.046C255.414 295.957 254.598 298.389 254.281 301.147C253.964 303.904 254.156 306.911 254.841 309.924C251.786 307.838 248.581 307.108 245.749 307.855C242.916 308.602 240.623 310.781 239.243 314.037C236.919 311.906 234.382 310.562 231.902 310.148C229.422 309.733 227.091 310.264 225.157 311.684C223.223 313.103 221.758 315.359 220.918 318.211C220.078 321.062 219.894 324.404 220.386 327.88C217.595 325.558 214.595 324.205 211.711 323.966C208.826 323.728 206.168 324.613 204.022 326.527C201.232 322.911 197.908 320.333 194.519 319.156C191.129 317.98 187.845 318.264 185.129 319.968C181.175 316.999 176.944 315.996 173.294 317.163C169.644 318.331 166.849 321.58 165.476 326.252C162.558 325.998 159.869 326.893 157.705 328.837C155.542 330.782 153.988 333.7 153.217 337.27C150.77 334.178 147.925 331.873 144.988 330.602C142.052 329.331 139.135 329.142 136.551 330.057L136.454 330.09C132.968 324.445 128.467 320.167 123.712 317.979C118.957 315.792 114.24 315.83 110.36 318.087C106.479 320.343 103.673 324.68 102.416 330.364C101.159 336.047 101.527 342.729 103.46 349.277C103.216 349.363 102.967 349.45 102.718 349.538C100.271 350.391 98.1755 352.135 96.608 354.624C95.0405 357.113 94.0469 360.274 93.7104 363.842C93.374 367.41 93.7047 371.28 94.6747 375.128C95.6446 378.976 97.2256 382.688 99.2847 385.954C101.344 389.22 103.821 391.944 106.508 393.896C109.195 395.849 112.014 396.973 114.728 397.175C117.441 397.377 119.97 396.651 122.102 395.057C124.234 393.463 125.907 391.049 126.98 388.016L197.464 363.278C200.645 363.761 203.598 362.903 205.942 360.812C208.424 364.034 211.337 366.441 214.352 367.762C217.366 369.083 220.362 369.263 223.001 368.284C225.639 367.305 227.816 365.205 229.283 362.221C230.751 359.237 231.451 355.489 231.305 351.4L250.191 344.771C253.004 346.242 255.847 346.562 258.337 345.687C260.828 344.813 262.847 342.787 264.124 339.881L312.323 322.963C315.652 323.59 318.702 322.52 320.909 319.95L330.762 316.492C334.065 319.037 337.6 320.178 340.821 319.739C340.97 320.237 341.123 320.733 341.297 321.229C342.534 324.733 344.382 327.942 346.632 330.493C348.882 333.044 351.445 334.836 354.032 335.666C356.619 336.496 359.127 336.332 361.273 335.192C363.418 334.052 365.116 331.981 366.175 329.213C367.234 326.446 367.612 323.091 367.266 319.529C366.919 315.966 365.863 312.337 364.216 309.051C362.569 305.764 360.396 302.952 357.943 300.931C355.49 298.909 352.855 297.759 350.334 297.611Z" fill="white"/>
<path d="M350.334 297.611C349.254 292.25 346.85 287.101 343.58 283.141C340.31 279.182 336.401 276.687 332.596 276.132C328.791 275.576 325.355 276.999 322.94 280.128C320.525 283.258 319.3 287.878 319.497 293.109C317.365 289.852 314.723 287.33 311.922 285.879C309.122 284.428 306.294 284.116 303.815 284.985C303.548 285.079 303.281 285.173 303.033 285.307C300.192 280.499 296.604 276.587 292.697 274.038C288.791 271.49 284.732 270.414 281.005 270.938C277.278 271.462 274.042 273.565 271.682 276.995C269.322 280.424 267.939 285.036 267.699 290.278C265.527 289.535 263.398 289.49 261.482 290.144C259.565 290.798 257.915 292.135 256.665 294.046C255.414 295.957 254.598 298.389 254.281 301.147C253.964 303.904 254.156 306.911 254.841 309.924C251.786 307.838 248.581 307.108 245.749 307.855C242.916 308.602 240.623 310.781 239.243 314.037C236.919 311.906 234.382 310.562 231.902 310.148C229.422 309.733 227.091 310.264 225.157 311.684C223.223 313.103 221.758 315.359 220.918 318.211C220.078 321.062 219.894 324.404 220.386 327.88C217.595 325.558 214.595 324.205 211.711 323.966C208.826 323.728 206.168 324.613 204.022 326.527C201.232 322.911 197.908 320.333 194.519 319.156C191.129 317.98 187.845 318.264 185.129 319.968C181.175 316.999 176.944 315.996 173.294 317.163C169.644 318.331 166.849 321.58 165.476 326.252C162.558 325.998 159.869 326.893 157.705 328.837C155.542 330.782 153.988 333.7 153.217 337.27C150.77 334.178 147.925 331.873 144.988 330.602C142.052 329.331 139.135 329.142 136.551 330.057L136.454 330.09C132.968 324.445 128.467 320.167 123.712 317.979C118.957 315.792 114.24 315.83 110.36 318.087C106.479 320.343 103.673 324.68 102.416 330.364C101.159 336.047 101.527 342.729 103.46 349.277C103.216 349.363 102.967 349.45 102.718 349.538C100.271 350.391 98.1755 352.135 96.608 354.624C95.0405 357.113 94.0469 360.274 93.7104 363.842C93.374 367.41 93.7047 371.28 94.6747 375.128C95.6446 378.976 97.2256 382.688 99.2847 385.954C101.344 389.22 103.821 391.944 106.508 393.896C109.195 395.849 112.014 396.973 114.728 397.175C117.441 397.377 119.97 396.651 122.102 395.057C124.234 393.463 125.907 391.049 126.98 388.016L197.464 363.278C200.645 363.761 203.598 362.903 205.942 360.812C208.424 364.034 211.337 366.441 214.352 367.762C217.366 369.083 220.362 369.263 223.001 368.284C225.639 367.305 227.816 365.205 229.283 362.221C230.751 359.237 231.451 355.489 231.305 351.4L250.191 344.771C253.004 346.242 255.847 346.562 258.337 345.687C260.828 344.813 262.847 342.787 264.124 339.881L312.323 322.963C315.652 323.59 318.702 322.52 320.909 319.95L330.762 316.492C334.065 319.037 337.6 320.178 340.821 319.739C340.97 320.237 341.123 320.733 341.297 321.229C342.534 324.733 344.382 327.942 346.632 330.493C348.882 333.044 351.445 334.836 354.032 335.666C356.619 336.496 359.127 336.332 361.273 335.192C363.418 334.052 365.116 331.981 366.175 329.213C367.234 326.446 367.612 323.091 367.266 319.529C366.919 315.966 365.863 312.337 364.216 309.051C362.569 305.764 360.396 302.952 357.943 300.931C355.49 298.909 352.855 297.759 350.334 297.611Z" fill="white"/>
<path d="M354.292 107.419C351.67 106.268 348.722 105.952 346.006 106.53C343.29 107.108 340.996 108.541 339.56 110.556C338.123 112.57 337.644 115.027 338.214 117.459C338.784 119.89 340.362 122.128 342.65 123.746C340.591 123.9 338.685 124.591 337.185 125.729C335.684 126.867 334.66 128.397 334.247 130.117C334.203 130.303 334.159 130.488 334.138 130.676C331.196 130.725 328.4 131.503 326.084 132.917C323.768 134.33 322.029 136.319 321.077 138.646C320.124 140.973 319.998 143.54 320.713 146.039C321.427 148.538 322.953 150.864 325.107 152.739C324.106 153.748 323.415 154.963 323.089 156.287C322.762 157.611 322.811 159.007 323.229 160.362C323.647 161.717 324.424 162.995 325.498 164.091C326.571 165.187 327.91 166.072 329.408 166.673C327.557 167.748 326.236 169.358 325.66 171.242C325.084 173.126 325.288 175.173 326.238 177.048C324.598 177.686 323.226 178.706 322.268 180.002C321.309 181.298 320.8 182.821 320.794 184.408C320.787 185.996 321.285 187.589 322.233 189.019C323.181 190.449 324.545 191.661 326.178 192.528C324.31 193.372 322.788 194.657 321.777 196.245C320.766 197.832 320.304 199.662 320.441 201.535C318.023 201.95 315.878 203.017 314.308 204.586C312.738 206.155 311.823 208.147 311.691 210.28C309.181 211.582 307.42 213.695 306.765 216.19C306.111 218.686 306.611 221.377 308.166 223.717C307.137 225.319 306.67 227.169 306.814 229.063C306.959 230.957 307.71 232.821 308.985 234.449C306.899 234.839 305.021 235.719 303.554 236.995C302.087 238.271 301.086 239.895 300.66 241.69L300.644 241.758C297.143 241.903 293.903 243.087 291.473 245.11C289.043 247.133 287.571 249.871 287.307 252.86C287.043 255.85 288.003 258.907 290.024 261.516C292.045 264.124 295.003 266.124 298.399 267.175C298.358 267.345 298.317 267.517 298.276 267.69C297.866 269.387 297.947 271.175 298.512 272.905C299.076 274.635 300.108 276.256 301.519 277.632C302.931 279.007 304.681 280.098 306.624 280.812C308.567 281.525 310.645 281.841 312.684 281.733C314.722 281.624 316.662 281.095 318.341 280.188C320.019 279.282 321.386 278.026 322.328 276.525C323.27 275.024 323.759 273.322 323.753 271.563C323.748 269.803 323.248 268.037 322.297 266.413L334.006 217.494C335.215 215.816 335.781 213.826 335.631 211.779C337.785 211.411 339.728 210.525 341.24 209.221C342.753 207.916 343.775 206.245 344.191 204.396C344.606 202.547 344.399 200.594 343.593 198.758C342.787 196.922 341.413 195.276 339.628 194.007L342.765 180.899C344.278 179.761 345.311 178.224 345.724 176.496C346.138 174.767 345.913 172.929 345.08 171.229L353.087 137.777C354.403 136.061 354.91 133.944 354.513 131.818L356.15 124.98C358.274 123.914 359.875 122.25 360.704 120.243C360.963 120.322 361.222 120.397 361.488 120.461C363.369 120.907 365.317 120.901 367.112 120.446C368.906 119.99 370.477 119.103 371.646 117.883C372.816 116.663 373.537 115.16 373.728 113.542C373.92 111.925 373.575 110.258 372.732 108.73C371.888 107.201 370.581 105.872 368.956 104.893C367.331 103.913 365.454 103.322 363.537 103.185C361.619 103.049 359.737 103.373 358.104 104.121C356.47 104.869 355.15 106.011 354.292 107.419Z" fill="white"/>
<path d="M354.292 107.419C351.67 106.268 348.722 105.952 346.006 106.53C343.29 107.108 340.996 108.541 339.56 110.556C338.123 112.57 337.644 115.027 338.214 117.459C338.784 119.89 340.362 122.128 342.65 123.746C340.591 123.9 338.685 124.591 337.185 125.729C335.684 126.867 334.66 128.397 334.247 130.117C334.203 130.303 334.159 130.488 334.138 130.676C331.196 130.725 328.4 131.503 326.084 132.917C323.768 134.33 322.029 136.319 321.077 138.646C320.124 140.973 319.998 143.54 320.713 146.039C321.427 148.538 322.953 150.864 325.107 152.739C324.106 153.748 323.415 154.963 323.089 156.287C322.762 157.611 322.811 159.007 323.229 160.362C323.647 161.717 324.424 162.995 325.498 164.091C326.571 165.187 327.91 166.072 329.408 166.673C327.557 167.748 326.236 169.358 325.66 171.242C325.084 173.126 325.288 175.173 326.238 177.048C324.598 177.686 323.226 178.706 322.268 180.002C321.309 181.298 320.8 182.821 320.794 184.408C320.787 185.996 321.285 187.589 322.233 189.019C323.181 190.449 324.545 191.661 326.178 192.528C324.31 193.372 322.788 194.657 321.777 196.245C320.766 197.832 320.304 199.662 320.441 201.535C318.023 201.95 315.878 203.017 314.308 204.586C312.738 206.155 311.823 208.147 311.691 210.28C309.181 211.582 307.42 213.695 306.765 216.19C306.111 218.686 306.611 221.377 308.166 223.717C307.137 225.319 306.67 227.169 306.814 229.063C306.959 230.957 307.71 232.821 308.985 234.449C306.899 234.839 305.021 235.719 303.554 236.995C302.087 238.271 301.086 239.895 300.66 241.69L300.644 241.758C297.143 241.903 293.903 243.087 291.473 245.11C289.043 247.133 287.571 249.871 287.307 252.86C287.043 255.85 288.003 258.907 290.024 261.516C292.045 264.124 295.003 266.124 298.399 267.175C298.358 267.345 298.317 267.517 298.276 267.69C297.866 269.387 297.947 271.175 298.512 272.905C299.076 274.635 300.108 276.256 301.519 277.632C302.931 279.007 304.681 280.098 306.624 280.812C308.567 281.525 310.645 281.841 312.684 281.733C314.722 281.624 316.662 281.095 318.341 280.188C320.019 279.282 321.386 278.026 322.328 276.525C323.27 275.024 323.759 273.322 323.753 271.563C323.748 269.803 323.248 268.037 322.297 266.413L334.006 217.494C335.215 215.816 335.781 213.826 335.631 211.779C337.785 211.411 339.728 210.525 341.24 209.221C342.753 207.916 343.775 206.245 344.191 204.396C344.606 202.547 344.399 200.594 343.593 198.758C342.787 196.922 341.413 195.276 339.628 194.007L342.765 180.899C344.278 179.761 345.311 178.224 345.724 176.496C346.138 174.767 345.913 172.929 345.08 171.229L353.087 137.777C354.403 136.061 354.91 133.944 354.513 131.818L356.15 124.98C358.274 123.914 359.875 122.25 360.704 120.243C360.963 120.322 361.222 120.397 361.488 120.461C363.369 120.907 365.317 120.901 367.112 120.446C368.906 119.99 370.477 119.103 371.646 117.883C372.816 116.663 373.537 115.16 373.728 113.542C373.92 111.925 373.575 110.258 372.732 108.73C371.888 107.201 370.581 105.872 368.956 104.893C367.331 103.913 365.454 103.322 363.537 103.185C361.619 103.049 359.737 103.373 358.104 104.121C356.47 104.869 355.15 106.011 354.292 107.419Z" fill="white"/>
<path d="M101.441 32.2338C100.257 34.896 99.9206 37.8956 100.496 40.6629C101.071 43.4302 102.518 45.7723 104.561 47.2445C106.604 48.7167 109.102 49.2164 111.58 48.6486C114.058 48.0809 116.344 46.4853 118.002 44.1649C118.148 46.2609 118.843 48.2043 119.993 49.7374C121.144 51.2705 122.697 52.3208 124.445 52.7491C124.634 52.7952 124.822 52.8413 125.013 52.8634C125.049 55.858 125.827 58.7079 127.254 61.0725C128.681 63.437 130.697 65.2162 133.061 66.1973C135.425 67.1785 138.036 67.32 140.584 66.6051C143.131 65.8902 145.506 64.3491 147.425 62.1659C148.447 63.1896 149.68 63.8992 151.026 64.2378C152.373 64.5763 153.793 64.5343 155.175 64.1152C156.557 63.6961 157.861 62.9115 158.982 61.8245C160.103 60.7376 161.01 59.3786 161.63 57.8569C162.714 59.7465 164.347 61.0994 166.262 61.6949C168.177 62.2904 170.261 62.0934 172.174 61.1359C172.815 62.808 173.847 64.2095 175.161 65.1917C176.475 66.1738 178.023 66.6999 179.639 66.7141C181.255 66.7282 182.879 66.2298 184.339 65.2719C185.799 64.314 187.04 62.9323 187.93 61.2737C188.78 63.1792 190.081 64.7348 191.692 65.772C193.302 66.8092 195.162 67.2886 197.069 67.1583C197.48 69.6217 198.555 71.8104 200.144 73.4159C201.734 75.0215 203.756 75.963 205.927 76.1078C207.239 78.6692 209.381 80.4723 211.918 81.1513C214.455 81.8302 217.196 81.334 219.586 79.7635C221.212 80.8182 223.093 81.3035 225.021 81.1657C226.949 81.0279 228.85 80.2724 230.514 78.9826C230.9 81.1088 231.787 83.0247 233.079 84.5243C234.37 86.0238 236.017 87.0501 237.843 87.4928L237.911 87.5095C238.042 91.0738 239.231 94.3773 241.278 96.861C243.325 99.3448 246.104 100.856 249.146 101.14C252.187 101.424 255.304 100.462 257.97 98.418C260.635 96.3738 262.684 93.3724 263.772 89.9216C263.944 89.9638 264.12 90.0067 264.295 90.0496C266.02 90.4746 267.841 90.4011 269.604 89.8352C271.368 89.2693 273.023 88.2277 274.43 86.7977C275.838 85.3677 276.956 83.5912 277.693 81.6174C278.429 79.6435 278.76 77.53 278.66 75.4543C278.56 73.3786 278.031 71.4014 277.117 69.6887C276.203 67.976 274.931 66.5779 273.408 65.6117C271.885 64.6456 270.155 64.1397 268.364 64.1364C266.573 64.1332 264.773 64.6328 263.115 65.5932L213.381 53.4311C211.679 52.1917 209.656 51.6057 207.572 51.7483C207.209 49.5543 206.317 47.5722 204.996 46.026C203.676 44.4799 201.98 43.4313 200.1 42.9989C198.22 42.5665 196.231 42.7674 194.359 43.579C192.486 44.3906 190.804 45.7805 189.502 47.5916L176.177 44.3329C175.025 42.7872 173.466 41.7284 171.709 41.2986C169.952 40.8688 168.08 41.0887 166.345 41.9286L132.336 33.6118C130.596 32.2631 128.443 31.7368 126.277 32.1302L119.325 30.4301C118.251 28.2623 116.565 26.625 114.526 25.7707C114.608 25.508 114.686 25.2445 114.752 24.9739C115.216 23.0618 115.22 21.0792 114.765 19.2499C114.311 17.4207 113.415 15.8176 112.179 14.6214C110.943 13.4253 109.416 12.6837 107.771 12.4804C106.126 12.2772 104.428 12.6202 102.868 13.471C101.308 14.3217 99.9488 15.6462 98.9436 17.2951C97.9383 18.9439 97.3271 20.8515 97.1787 22.8026C97.0304 24.7537 97.3509 26.6706 98.1041 28.337C98.8573 30.0035 100.013 31.3532 101.441 32.2338Z" fill="white"/>
<path d="M101.441 32.2338C100.257 34.896 99.9206 37.8956 100.496 40.6629C101.071 43.4302 102.518 45.7723 104.561 47.2445C106.604 48.7167 109.102 49.2164 111.58 48.6486C114.058 48.0809 116.344 46.4853 118.002 44.1649C118.148 46.2609 118.843 48.2043 119.993 49.7374C121.144 51.2705 122.697 52.3208 124.445 52.7491C124.634 52.7952 124.822 52.8413 125.013 52.8634C125.049 55.858 125.827 58.7079 127.254 61.0725C128.681 63.437 130.697 65.2162 133.061 66.1973C135.425 67.1785 138.036 67.32 140.584 66.6051C143.131 65.8902 145.506 64.3491 147.425 62.1659C148.447 63.1896 149.68 63.8992 151.026 64.2378C152.373 64.5763 153.793 64.5343 155.175 64.1152C156.557 63.6961 157.861 62.9115 158.982 61.8245C160.103 60.7376 161.01 59.3786 161.63 57.8569C162.714 59.7465 164.347 61.0994 166.262 61.6949C168.177 62.2904 170.261 62.0934 172.174 61.1359C172.815 62.808 173.847 64.2095 175.161 65.1917C176.475 66.1738 178.023 66.6999 179.639 66.7141C181.255 66.7282 182.879 66.2298 184.339 65.2719C185.799 64.314 187.04 62.9323 187.93 61.2737C188.78 63.1792 190.081 64.7348 191.692 65.772C193.302 66.8092 195.162 67.2886 197.069 67.1583C197.48 69.6217 198.555 71.8104 200.144 73.4159C201.734 75.0215 203.756 75.963 205.927 76.1078C207.239 78.6692 209.381 80.4723 211.918 81.1513C214.455 81.8302 217.196 81.334 219.586 79.7635C221.212 80.8182 223.093 81.3035 225.021 81.1657C226.949 81.0279 228.85 80.2724 230.514 78.9826C230.9 81.1088 231.787 83.0247 233.079 84.5243C234.37 86.0238 236.017 87.0501 237.843 87.4928L237.911 87.5095C238.042 91.0738 239.231 94.3773 241.278 96.861C243.325 99.3448 246.104 100.856 249.146 101.14C252.187 101.424 255.304 100.462 257.97 98.418C260.635 96.3738 262.684 93.3724 263.772 89.9216C263.944 89.9638 264.12 90.0067 264.295 90.0496C266.02 90.4746 267.841 90.4011 269.604 89.8352C271.368 89.2693 273.023 88.2277 274.43 86.7977C275.838 85.3677 276.956 83.5912 277.693 81.6174C278.429 79.6435 278.76 77.53 278.66 75.4543C278.56 73.3786 278.031 71.4014 277.117 69.6887C276.203 67.976 274.931 66.5779 273.408 65.6117C271.885 64.6456 270.155 64.1397 268.364 64.1364C266.573 64.1332 264.773 64.6328 263.115 65.5932L213.381 53.4311C211.679 52.1917 209.656 51.6057 207.572 51.7483C207.209 49.5543 206.317 47.5722 204.996 46.026C203.676 44.4799 201.98 43.4313 200.1 42.9989C198.22 42.5665 196.231 42.7674 194.359 43.579C192.486 44.3906 190.804 45.7805 189.502 47.5916L176.177 44.3329C175.025 42.7872 173.466 41.7284 171.709 41.2986C169.952 40.8688 168.08 41.0887 166.345 41.9286L132.336 33.6118C130.596 32.2631 128.443 31.7368 126.277 32.1302L119.325 30.4301C118.251 28.2623 116.565 26.625 114.526 25.7707C114.608 25.508 114.686 25.2445 114.752 24.9739C115.216 23.0618 115.22 21.0792 114.765 19.2499C114.311 17.4207 113.415 15.8176 112.179 14.6214C110.943 13.4253 109.416 12.6837 107.771 12.4804C106.126 12.2772 104.428 12.6202 102.868 13.471C101.308 14.3217 99.9488 15.6462 98.9436 17.2951C97.9383 18.9439 97.3271 20.8515 97.1787 22.8026C97.0304 24.7537 97.3509 26.6706 98.1041 28.337C98.8573 30.0035 100.013 31.3532 101.441 32.2338Z" fill="white"/>
<path d="M234.613 49.0594C232.376 51.221 230.842 54.0557 230.305 57.0252C229.767 59.9946 230.262 62.892 231.696 65.1669C233.13 67.4418 235.403 68.9358 238.083 69.3651C240.763 69.7945 243.663 69.1292 246.234 67.4958C245.54 69.6291 245.45 71.8307 245.975 73.8087C246.501 75.7867 247.618 77.4476 249.178 78.5713C249.346 78.6923 249.514 78.8134 249.694 78.9116C248.531 81.8904 248.161 85.0228 248.628 87.9344C249.095 90.8461 250.379 93.4139 252.326 95.3308C254.273 97.2477 256.802 98.4327 259.61 98.7441C262.417 99.0555 265.385 98.4801 268.158 97.0868C268.76 98.5089 269.697 99.7049 270.894 100.579C272.091 101.452 273.515 101.979 275.05 102.117C276.586 102.255 278.19 102 279.735 101.372C281.28 100.745 282.721 99.7625 283.944 98.5042C284.261 100.809 285.336 102.801 286.993 104.157C288.651 105.512 290.793 106.151 293.07 105.969C293.035 107.88 293.496 109.68 294.404 111.179C295.312 112.677 296.633 113.816 298.227 114.477C299.821 115.137 301.628 115.294 303.457 114.93C305.285 114.565 307.067 113.694 308.612 112.409C308.691 114.635 309.356 116.695 310.536 118.366C311.715 120.038 313.364 121.256 315.305 121.89C314.725 124.493 314.914 127.09 315.845 129.315C316.776 131.54 318.401 133.281 320.493 134.293C320.767 137.354 322.166 139.996 324.405 141.683C326.645 143.37 329.557 143.975 332.552 143.377C333.739 145.071 335.406 146.304 337.371 146.939C339.335 147.574 341.519 147.587 343.681 146.976C343.213 149.235 343.325 151.486 344.003 153.488C344.682 155.489 345.902 157.164 347.532 158.332L347.593 158.376C346.296 161.957 346.151 165.702 347.184 168.98C348.217 172.258 350.364 174.866 353.261 176.364C356.158 177.862 359.629 178.157 363.085 177.199C366.541 176.242 369.771 174.091 372.228 171.11C372.381 171.221 372.538 171.333 372.694 171.446C374.232 172.557 376.064 173.212 378.036 173.358C380.008 173.503 382.063 173.134 384.029 172.282C385.994 171.429 387.812 170.118 389.33 168.459C390.849 166.799 392.023 164.84 392.754 162.745C393.485 160.65 393.752 158.481 393.533 156.42C393.313 154.359 392.613 152.466 391.492 150.9C390.371 149.335 388.861 148.142 387.089 147.422C385.318 146.702 383.336 146.477 381.31 146.764L336.944 114.827C335.755 112.919 333.986 111.53 331.866 110.837C332.385 108.52 332.295 106.201 331.606 104.142C330.917 102.083 329.658 100.367 327.97 99.1868C326.282 98.0066 324.233 97.4099 322.055 97.4641C319.876 97.5183 317.655 98.2212 315.642 99.4934L303.754 90.9363C303.233 88.9455 302.113 87.2737 300.546 86.1451C298.978 85.0166 297.037 84.4854 294.984 84.6228L264.645 62.7835C263.462 60.7523 261.542 59.3702 259.24 58.8932L253.038 54.4289C252.842 51.8531 251.828 49.5577 250.152 47.8965C250.338 47.669 250.521 47.4395 250.694 47.1981C251.918 45.4905 252.715 43.5297 252.997 41.537C253.279 39.5442 253.033 37.5989 252.289 35.9204C251.544 34.2419 250.329 32.897 248.782 32.0376C247.235 31.1781 245.416 30.8383 243.532 31.0564C241.647 31.2745 239.772 32.0419 238.117 33.272C236.462 34.502 235.094 36.1458 234.167 38.0179C233.239 39.8899 232.789 41.9157 232.868 43.8667C232.947 45.8177 233.552 47.6163 234.613 49.0594Z" fill="white"/>
<path d="M234.613 49.0594C232.376 51.221 230.842 54.0557 230.305 57.0252C229.767 59.9946 230.262 62.892 231.696 65.1669C233.13 67.4418 235.403 68.9358 238.083 69.3651C240.763 69.7945 243.663 69.1292 246.234 67.4958C245.54 69.6291 245.45 71.8307 245.975 73.8087C246.501 75.7867 247.618 77.4476 249.178 78.5713C249.346 78.6923 249.514 78.8134 249.694 78.9116C248.531 81.8904 248.161 85.0228 248.628 87.9344C249.095 90.8461 250.379 93.4139 252.326 95.3308C254.273 97.2477 256.802 98.4327 259.61 98.7441C262.417 99.0555 265.385 98.4801 268.158 97.0868C268.76 98.5089 269.697 99.7049 270.894 100.579C272.091 101.452 273.515 101.979 275.05 102.117C276.586 102.255 278.19 102 279.735 101.372C281.28 100.745 282.721 99.7625 283.944 98.5042C284.261 100.809 285.336 102.801 286.993 104.157C288.651 105.512 290.793 106.151 293.07 105.969C293.035 107.88 293.496 109.68 294.404 111.179C295.312 112.677 296.633 113.816 298.227 114.477C299.821 115.137 301.628 115.294 303.457 114.93C305.285 114.565 307.067 113.694 308.612 112.409C308.691 114.635 309.356 116.695 310.536 118.366C311.715 120.038 313.364 121.256 315.305 121.89C314.725 124.493 314.914 127.09 315.845 129.315C316.776 131.54 318.401 133.281 320.493 134.293C320.767 137.354 322.166 139.996 324.405 141.683C326.645 143.37 329.557 143.975 332.552 143.377C333.739 145.071 335.406 146.304 337.371 146.939C339.335 147.574 341.519 147.587 343.681 146.976C343.213 149.235 343.325 151.486 344.003 153.488C344.682 155.489 345.902 157.164 347.532 158.332L347.593 158.376C346.296 161.957 346.151 165.702 347.184 168.98C348.217 172.258 350.364 174.866 353.261 176.364C356.158 177.862 359.629 178.157 363.085 177.199C366.541 176.242 369.771 174.091 372.228 171.11C372.381 171.221 372.538 171.333 372.694 171.446C374.232 172.557 376.064 173.212 378.036 173.358C380.008 173.503 382.063 173.134 384.029 172.282C385.994 171.429 387.812 170.118 389.33 168.459C390.849 166.799 392.023 164.84 392.754 162.745C393.485 160.65 393.752 158.481 393.533 156.42C393.313 154.359 392.613 152.466 391.492 150.9C390.371 149.335 388.861 148.142 387.089 147.422C385.318 146.702 383.336 146.477 381.31 146.764L336.944 114.827C335.755 112.919 333.986 111.53 331.866 110.837C332.385 108.52 332.295 106.201 331.606 104.142C330.917 102.083 329.658 100.367 327.97 99.1868C326.282 98.0066 324.233 97.4099 322.055 97.4641C319.876 97.5183 317.655 98.2212 315.642 99.4934L303.754 90.9363C303.233 88.9455 302.113 87.2737 300.546 86.1451C298.978 85.0166 297.037 84.4854 294.984 84.6228L264.645 62.7835C263.462 60.7523 261.542 59.3702 259.24 58.8932L253.038 54.4289C252.842 51.8531 251.828 49.5577 250.152 47.8965C250.338 47.669 250.521 47.4395 250.694 47.1981C251.918 45.4905 252.715 43.5297 252.997 41.537C253.279 39.5442 253.033 37.5989 252.289 35.9204C251.544 34.2419 250.329 32.897 248.782 32.0376C247.235 31.1781 245.416 30.8383 243.532 31.0564C241.647 31.2745 239.772 32.0419 238.117 33.272C236.462 34.502 235.094 36.1458 234.167 38.0179C233.239 39.8899 232.789 41.9157 232.868 43.8667C232.947 45.8177 233.552 47.6163 234.613 49.0594Z" fill="white"/>
</svg>
