<svg width="2048" height="391" viewBox="0 0 2048 391" fill="none" xmlns="http://www.w3.org/2000/svg">
<g clip-path="url(#clip0)">
<path d="M849.679 -157.147C1017.91 -535.114 430.792 -626.599 96.0001 -591.795C1015.41 -696.486 1139.67 -330.102 1107.07 -167.125L1006.78 89.7506L845.155 148.506C423.471 210.752 681.452 220.819 849.679 -157.147Z" fill="white"/>
<path d="M584.791 160.685C586.652 157.05 589.957 154.124 593.981 152.55C596.812 151.441 599.861 151.055 602.785 151.437C605.708 151.819 608.389 152.953 610.525 154.712C612.66 156.47 614.165 158.783 614.87 161.388C615.574 163.993 615.45 166.787 614.511 169.454C613.572 172.122 611.856 174.556 609.557 176.481C607.258 178.407 604.466 179.748 601.499 180.352C598.532 180.956 595.507 180.8 592.765 179.9C590.024 179.001 587.676 177.395 585.986 175.263C584.991 177.723 583.434 179.997 581.424 181.922C579.414 183.848 577.001 185.379 574.356 186.407C571.71 187.435 568.897 187.934 566.116 187.869C563.335 187.805 560.653 187.178 558.262 186.033C556.711 191.05 553.892 195.749 550.043 199.736C546.194 203.722 541.427 206.879 536.143 208.94C530.86 211.001 525.216 211.906 519.686 211.579C514.156 211.252 508.902 209.702 504.367 207.06L246 308.313L244 300.5C244 300.5 240.145 286.588 238.5 277.5C237.55 272.256 236.923 269.313 236.5 264C236.004 257.771 235.879 254.217 236.5 248C236.953 243.464 236.951 240.787 238.5 236.5C240.377 231.302 242.323 228.625 246 224.5C248.91 221.236 254.5 217.21 254.5 217.21C254.5 217.21 254.682 211.243 254.5 207.427C253.942 195.75 248.718 178.057 248.718 178.057C252.307 174.063 256.919 170.932 262.08 168.987C267.241 167.041 272.763 166.352 278.08 166.99C283.396 167.627 288.314 169.569 292.327 172.614C295.653 168.903 299.873 165.937 304.606 163.987C304.954 155.639 308.25 147.397 313.999 140.499C319.749 133.601 327.641 128.418 336.493 125.728C345.345 123.038 354.679 122.986 363.094 125.58C371.509 128.174 378.551 133.273 383.165 140.114C386.648 136.922 390.817 134.442 395.355 132.861C399.894 131.28 404.682 130.64 409.358 130.989C414.033 131.339 418.473 132.669 422.339 134.879C426.205 137.088 429.397 140.119 431.672 143.741C436.988 139.188 443.336 135.805 450.164 133.886C456.991 131.967 464.092 131.571 470.85 132.731C477.607 133.891 483.817 136.573 488.938 140.544C494.06 144.515 497.939 149.654 500.238 155.515C500.56 156.336 500.776 157.198 501.097 158.019C504.815 154.612 509.233 151.926 514.047 150.15C518.86 148.374 524.11 148.425 529.13 148.608C534.097 149.369 538.104 151.199 542.402 153.308C546.701 155.417 548.658 158.141 551.997 161.32C554.014 159.085 558.421 155.912 561.262 154.694C564.103 153.476 567.166 152.879 570.195 152.951C573.224 153.023 576.13 153.763 578.67 155.109C581.21 156.454 583.309 158.366 584.791 160.685Z" fill="#D9D9D9"/>
<path d="M918.065 71.8529C915.121 57.2474 908.572 43.2179 899.662 32.4291C890.753 21.6403 880.103 14.8437 869.735 13.3303C859.368 11.8169 850.006 15.6921 843.426 24.2198C836.847 32.7475 833.509 45.3337 834.046 59.5878C828.235 50.7116 821.037 43.8413 813.407 39.8881C805.776 35.9349 798.072 35.0856 791.318 37.4526C790.59 37.7081 789.862 37.9636 789.188 38.3306C781.446 25.2287 771.669 14.5694 761.025 7.62656C750.382 0.683765 739.322 -2.24876 729.168 -0.820398C719.014 0.607967 710.195 6.33674 703.766 15.6812C697.337 25.0256 693.569 37.5904 692.913 51.8736C686.997 49.8504 681.195 49.7253 675.974 51.5082C670.752 53.2911 666.257 56.9323 662.85 62.139C659.442 67.3458 657.218 73.9726 656.355 81.4867C655.492 89.0008 656.015 97.1925 657.882 105.403C649.558 99.7174 640.825 97.7301 633.107 99.7651C625.389 101.8 619.141 107.737 615.382 116.609C609.05 110.802 602.138 107.14 595.38 106.011C588.622 104.882 582.272 106.328 577.002 110.197C571.733 114.065 567.742 120.21 565.453 127.98C563.164 135.75 562.663 144.854 564.003 154.326C556.398 148 548.225 144.312 540.366 143.662C532.508 143.012 525.264 145.424 519.419 150.638C511.816 140.786 502.759 133.763 493.524 130.557C484.289 127.351 475.34 128.124 467.94 132.768C457.167 124.678 445.639 121.946 435.694 125.127C425.749 128.307 418.134 137.16 414.393 149.891C406.443 149.199 399.116 151.636 393.221 156.934C387.327 162.231 383.094 170.182 380.991 179.909C374.325 171.485 366.574 165.204 358.572 161.741C350.571 158.278 342.622 157.764 335.582 160.256L335.319 160.348C325.82 144.966 313.556 133.31 300.601 127.35C287.646 121.391 274.795 121.494 264.222 127.642C253.649 133.791 246.003 145.607 242.577 161.093C239.152 176.578 240.157 194.783 245.422 212.626C244.757 212.859 244.079 213.097 243.402 213.335C236.733 215.659 231.024 220.411 226.753 227.193C222.482 233.975 219.775 242.588 218.858 252.309C217.941 262.031 218.842 272.576 221.485 283.06C224.128 293.543 228.436 303.659 234.046 312.557C239.656 321.455 246.406 328.876 253.727 334.196C261.049 339.516 268.729 342.58 276.122 343.13C283.515 343.681 290.405 341.701 296.214 337.359C302.023 333.017 306.581 326.438 309.505 318.175L501.548 250.771C510.217 252.089 518.261 249.75 524.648 244.052C531.411 252.832 539.348 259.391 547.562 262.989C555.775 266.587 563.938 267.08 571.128 264.412C578.317 261.745 584.246 256.022 588.245 247.893C592.243 239.763 594.152 229.55 593.754 218.408L645.21 200.348C652.875 204.355 660.621 205.226 667.407 202.844C674.193 200.463 679.695 194.942 683.174 187.023L814.499 140.93C823.569 142.637 831.88 139.72 837.893 132.719L864.738 123.297C873.737 130.232 883.368 133.341 892.145 132.145C892.551 133.501 892.968 134.851 893.443 136.204C896.813 145.752 901.847 154.495 907.978 161.445C914.109 168.396 921.093 173.277 928.141 175.539C935.19 177.802 942.022 177.354 947.868 174.248C953.714 171.141 958.341 165.499 961.226 157.959C964.112 150.418 965.141 141.278 964.197 131.571C963.254 121.864 960.376 111.976 955.888 103.022C951.4 94.0682 945.48 86.4053 938.797 80.8979C932.114 75.3904 924.933 72.2576 918.065 71.8529Z" fill="white"/>
<path d="M918.065 71.8529C915.121 57.2474 908.572 43.2179 899.662 32.4291C890.753 21.6403 880.103 14.8437 869.735 13.3303C859.368 11.8169 850.006 15.6921 843.426 24.2198C836.847 32.7475 833.509 45.3337 834.046 59.5878C828.235 50.7116 821.037 43.8413 813.407 39.8881C805.776 35.9349 798.072 35.0856 791.318 37.4526C790.59 37.7081 789.862 37.9636 789.188 38.3306C781.446 25.2287 771.669 14.5694 761.025 7.62656C750.382 0.683765 739.322 -2.24876 729.168 -0.820398C719.014 0.607967 710.195 6.33674 703.766 15.6812C697.337 25.0256 693.569 37.5904 692.913 51.8736C686.997 49.8504 681.195 49.7253 675.974 51.5082C670.752 53.2911 666.257 56.9323 662.85 62.139C659.442 67.3458 657.218 73.9726 656.355 81.4867C655.492 89.0008 656.015 97.1925 657.882 105.403C649.558 99.7174 640.825 97.7301 633.107 99.7651C625.389 101.8 619.141 107.737 615.382 116.609C609.05 110.802 602.138 107.14 595.38 106.011C588.622 104.882 582.272 106.328 577.002 110.197C571.733 114.065 567.742 120.21 565.453 127.98C563.164 135.75 562.663 144.854 564.003 154.326C556.398 148 548.225 144.312 540.366 143.662C532.508 143.012 525.264 145.424 519.419 150.638C511.816 140.786 502.759 133.763 493.524 130.557C484.289 127.351 475.34 128.124 467.94 132.768C457.167 124.678 445.639 121.946 435.694 125.127C425.749 128.307 418.134 137.16 414.393 149.891C406.443 149.199 399.116 151.636 393.221 156.934C387.327 162.231 383.094 170.182 380.991 179.909C374.325 171.485 366.574 165.204 358.572 161.741C350.571 158.278 342.622 157.764 335.582 160.256L335.319 160.348C325.82 144.966 313.556 133.31 300.601 127.35C287.646 121.391 274.795 121.494 264.222 127.642C253.649 133.791 246.003 145.607 242.577 161.093C239.152 176.578 240.157 194.783 245.422 212.626C244.757 212.859 244.079 213.097 243.402 213.335C236.733 215.659 231.024 220.411 226.753 227.193C222.482 233.975 219.775 242.588 218.858 252.309C217.941 262.031 218.842 272.576 221.485 283.06C224.128 293.543 228.436 303.659 234.046 312.557C239.656 321.455 246.406 328.876 253.727 334.196C261.049 339.516 268.729 342.58 276.122 343.13C283.515 343.681 290.405 341.701 296.214 337.359C302.023 333.017 306.581 326.438 309.505 318.175L501.548 250.771C510.217 252.089 518.261 249.75 524.648 244.052C531.411 252.832 539.348 259.391 547.562 262.989C555.775 266.587 563.938 267.08 571.128 264.412C578.317 261.745 584.246 256.022 588.245 247.893C592.243 239.763 594.152 229.55 593.754 218.408L645.21 200.348C652.875 204.355 660.621 205.226 667.407 202.844C674.193 200.463 679.695 194.942 683.174 187.023L814.499 140.93C823.569 142.637 831.88 139.72 837.893 132.719L864.738 123.297C873.737 130.232 883.368 133.341 892.145 132.145C892.551 133.501 892.968 134.851 893.443 136.204C896.813 145.752 901.847 154.495 907.978 161.445C914.109 168.396 921.093 173.277 928.141 175.539C935.19 177.802 942.022 177.354 947.868 174.248C953.714 171.141 958.341 165.499 961.226 157.959C964.112 150.418 965.141 141.278 964.197 131.571C963.254 121.864 960.376 111.976 955.888 103.022C951.4 94.0682 945.48 86.4053 938.797 80.8979C932.114 75.3904 924.933 72.2576 918.065 71.8529Z" fill="white"/>
<path d="M837.045 260.819C839.119 269.679 838.448 279.085 835.159 287.25C831.87 295.414 826.192 301.769 819.204 305.107C812.215 308.444 804.404 308.533 797.252 305.355C790.1 302.177 784.106 295.955 780.409 287.869C778.791 294.221 775.606 299.787 771.275 303.828C766.944 307.87 761.672 310.196 756.159 310.499C755.565 310.532 754.971 310.564 754.383 310.522C752.592 319.696 748.645 327.997 743.013 334.432C737.382 340.867 730.304 345.163 722.626 346.808C714.948 348.452 706.995 347.375 699.716 343.705C692.438 340.036 686.143 333.928 681.584 326.113C677.928 328.665 673.81 330.13 669.562 330.391C665.313 330.651 661.053 329.7 657.122 327.613C653.192 325.526 649.702 322.362 646.933 318.375C644.164 314.389 642.192 309.69 641.178 304.659C636.847 309.834 631.164 313.043 625.056 313.763C618.948 314.483 612.775 312.672 607.544 308.624C604.674 313.388 600.774 317.094 596.26 319.349C591.746 321.604 586.785 322.324 581.905 321.432C577.025 320.54 572.408 318.07 568.545 314.283C564.682 310.496 561.716 305.535 559.963 299.926C556.331 305.286 551.535 309.31 546.095 311.562C540.656 313.815 534.779 314.21 529.102 312.706C526.48 320.033 522.008 326.131 516.314 330.142C510.621 334.152 503.994 335.872 497.366 335.06C491.971 342.166 484.5 346.463 476.47 347.079C468.44 347.696 460.453 344.585 454.13 338.379C448.637 340.677 442.693 341.078 436.957 339.539C431.22 337.999 425.913 334.579 421.623 329.655C419.263 335.96 415.512 341.331 410.776 345.188C406.039 349.045 400.496 351.243 394.743 351.545L394.528 351.557C392.132 362.427 386.691 371.882 379.123 378.324C371.555 384.766 362.325 387.799 352.996 386.909C343.666 386.02 334.809 381.263 327.923 373.443C321.036 365.623 316.543 355.22 315.203 343.994C314.66 344.024 314.107 344.054 313.554 344.084C308.115 344.391 302.667 343.111 297.667 340.352C292.668 337.594 288.264 333.437 284.824 328.231C281.384 323.026 279.01 316.923 277.9 310.436C276.79 303.948 276.977 297.266 278.445 290.95C279.914 284.635 282.621 278.869 286.339 274.139C290.057 269.409 294.678 265.852 299.813 263.767C304.948 261.682 310.447 261.13 315.849 262.157C321.251 263.183 326.397 265.76 330.857 269.668L487.637 261.111C493.465 258.291 499.894 257.662 506.097 259.307C508.425 252.78 512.229 247.21 517.079 243.226C521.929 239.243 527.631 237.005 533.542 236.765C539.453 236.525 545.336 238.293 550.526 241.87C555.716 245.446 560.007 250.688 562.913 257.003L604.92 254.71C609.26 250.63 614.555 248.281 620.096 247.978C625.636 247.676 631.155 249.435 635.913 253.018L743.125 247.166C749.129 244.032 755.914 243.662 762.223 246.124L784.139 244.928C788.595 238.892 794.6 234.841 801.226 233.398C801.128 232.544 801.04 231.689 800.993 230.82C800.671 224.68 801.771 218.59 804.17 213.236C806.569 207.882 810.171 203.478 814.569 200.52C818.967 197.562 823.987 196.169 829.061 196.497C834.136 196.825 839.064 198.862 843.288 202.377C847.513 205.893 850.867 210.747 852.971 216.392C855.075 222.037 855.846 228.248 855.197 234.325C854.548 240.403 852.504 246.103 849.297 250.785C846.089 255.466 841.846 258.941 837.045 260.819Z" fill="white"/>
<path d="M837.045 260.819C839.119 269.679 838.448 279.085 835.159 287.25C831.87 295.414 826.192 301.769 819.204 305.107C812.215 308.444 804.404 308.533 797.252 305.355C790.1 302.177 784.106 295.955 780.409 287.869C778.791 294.221 775.606 299.787 771.275 303.828C766.944 307.87 761.672 310.196 756.159 310.499C755.565 310.532 754.971 310.564 754.383 310.522C752.592 319.696 748.645 327.997 743.013 334.432C737.382 340.867 730.304 345.163 722.626 346.808C714.948 348.452 706.995 347.375 699.716 343.705C692.438 340.036 686.143 333.928 681.584 326.113C677.928 328.665 673.81 330.13 669.562 330.391C665.313 330.651 661.053 329.7 657.122 327.613C653.192 325.526 649.702 322.362 646.933 318.375C644.164 314.389 642.192 309.69 641.178 304.659C636.847 309.834 631.164 313.043 625.056 313.763C618.948 314.483 612.775 312.672 607.544 308.624C604.674 313.388 600.774 317.094 596.26 319.349C591.746 321.604 586.785 322.324 581.905 321.432C577.025 320.54 572.408 318.07 568.545 314.283C564.682 310.496 561.716 305.535 559.963 299.926C556.331 305.286 551.535 309.31 546.095 311.562C540.656 313.815 534.779 314.21 529.102 312.706C526.48 320.033 522.008 326.131 516.314 330.142C510.621 334.152 503.994 335.872 497.366 335.06C491.971 342.166 484.5 346.463 476.47 347.079C468.44 347.696 460.453 344.585 454.13 338.379C448.637 340.677 442.693 341.078 436.957 339.539C431.22 337.999 425.913 334.579 421.623 329.655C419.263 335.96 415.512 341.331 410.776 345.188C406.039 349.045 400.496 351.243 394.743 351.545L394.528 351.557C392.132 362.427 386.691 371.882 379.123 378.324C371.555 384.766 362.325 387.799 352.996 386.909C343.666 386.02 334.809 381.263 327.923 373.443C321.036 365.623 316.543 355.22 315.203 343.994C314.66 344.024 314.107 344.054 313.554 344.084C308.115 344.391 302.667 343.111 297.667 340.352C292.668 337.594 288.264 333.437 284.824 328.231C281.384 323.026 279.01 316.923 277.9 310.436C276.79 303.948 276.977 297.266 278.445 290.95C279.914 284.635 282.621 278.869 286.339 274.139C290.057 269.409 294.678 265.852 299.813 263.767C304.948 261.682 310.447 261.13 315.849 262.157C321.251 263.183 326.397 265.76 330.857 269.668L487.637 261.111C493.465 258.291 499.894 257.662 506.097 259.307C508.425 252.78 512.229 247.21 517.079 243.226C521.929 239.243 527.631 237.005 533.542 236.765C539.453 236.525 545.336 238.293 550.526 241.87C555.716 245.446 560.007 250.688 562.913 257.003L604.92 254.71C609.26 250.63 614.555 248.281 620.096 247.978C625.636 247.676 631.155 249.435 635.913 253.018L743.125 247.166C749.129 244.032 755.914 243.662 762.223 246.124L784.139 244.928C788.595 238.892 794.6 234.841 801.226 233.398C801.128 232.544 801.04 231.689 800.993 230.82C800.671 224.68 801.771 218.59 804.17 213.236C806.569 207.882 810.171 203.478 814.569 200.52C818.967 197.562 823.987 196.169 829.061 196.497C834.136 196.825 839.064 198.862 843.288 202.377C847.513 205.893 850.867 210.747 852.971 216.392C855.075 222.037 855.846 228.248 855.197 234.325C854.548 240.403 852.504 246.103 849.297 250.785C846.089 255.466 841.846 258.941 837.045 260.819Z" fill="white"/>
<path d="M1490.02 274.822C1492.31 279.593 1490.71 284.622 1485.52 288.953C1480.33 293.284 1471.92 296.616 1461.87 298.316C1451.83 300.016 1440.87 299.965 1431.05 298.174C1421.24 296.382 1413.27 292.975 1408.65 288.598C1405.93 291.98 1401.07 294.92 1394.71 297.031C1388.35 299.141 1380.79 300.321 1373.03 300.414C1372.19 300.424 1371.36 300.434 1370.53 300.403C1367.38 305.294 1361.26 309.69 1352.9 313.066C1344.55 316.441 1334.31 318.654 1323.42 319.438C1312.53 320.222 1301.45 319.546 1291.49 317.489C1281.54 315.433 1273.13 312.083 1267.28 307.841C1261.98 309.162 1256.09 309.895 1250.11 309.981C1244.13 310.067 1238.22 309.504 1232.85 308.337C1227.49 307.171 1222.81 305.432 1219.2 303.263C1215.6 301.093 1213.16 298.552 1212.09 295.845C1205.65 298.562 1197.45 300.209 1188.83 300.518C1180.21 300.828 1171.67 299.78 1164.62 297.547C1160.25 300.062 1154.52 301.998 1148.03 303.149C1141.54 304.3 1134.52 304.623 1127.74 304.085C1120.95 303.546 1114.65 302.165 1109.49 300.089C1104.34 298.012 1100.53 295.318 1098.46 292.292C1092.99 295.117 1085.97 297.212 1078.18 298.35C1070.39 299.488 1062.12 299.626 1054.26 298.75C1050.06 302.641 1043.36 305.85 1035.09 307.927C1026.82 310.003 1017.4 310.841 1008.15 310.323C1000.08 314.061 989.298 316.269 977.987 316.498C966.676 316.727 955.687 314.962 947.25 311.559C939.38 312.72 931.012 312.861 923.07 311.965C915.128 311.068 907.922 309.17 902.247 306.48C898.492 309.826 892.852 312.655 885.935 314.662C879.018 316.668 871.085 317.775 862.99 317.865L862.687 317.869C858.563 323.66 850.262 328.656 839.19 332.011C828.118 335.366 814.954 336.874 801.925 336.281C788.896 335.688 776.801 333.029 767.687 328.755C758.573 324.481 752.998 318.853 751.907 312.825C751.143 312.834 750.364 312.843 749.586 312.852C741.932 312.948 734.377 312.194 727.555 310.655C720.734 309.115 714.845 306.833 710.384 304.002C705.923 301.171 703.019 297.873 701.917 294.385C700.816 290.897 701.547 287.321 704.052 283.957C706.556 280.593 710.759 277.54 716.309 275.053C721.859 272.566 728.592 270.719 735.944 269.667C743.296 268.615 751.052 268.388 758.56 269.006C766.068 269.623 773.109 271.067 779.092 273.217L999.695 270.599C1008.07 269.162 1017.14 268.906 1025.73 269.864C1029.45 266.398 1035.18 263.463 1042.26 261.39C1049.35 259.317 1057.51 258.19 1065.82 258.136C1074.13 258.082 1082.26 259.103 1089.29 261.083C1096.33 263.063 1101.98 265.924 1105.61 269.342L1164.72 268.641C1171.1 266.51 1178.69 265.319 1186.49 265.226C1194.28 265.134 1201.91 266.145 1208.33 268.123L1359.19 266.333C1367.83 264.73 1377.38 264.617 1386.06 266.014L1416.9 265.649C1423.57 262.472 1432.28 260.378 1441.68 259.688C1441.61 259.229 1441.54 258.771 1441.54 258.305C1441.52 255.013 1443.49 251.765 1447.23 248.928C1450.97 246.09 1456.34 243.777 1462.72 242.248C1469.1 240.719 1476.24 240.036 1483.33 240.275C1490.43 240.515 1497.2 241.667 1502.89 243.603C1508.57 245.538 1512.93 248.18 1515.49 251.229C1518.04 254.279 1518.69 257.615 1517.35 260.861C1516.01 264.108 1512.75 267.135 1507.92 269.602C1503.09 272.069 1496.89 273.877 1490.02 274.822Z" fill="white"/>
<path d="M1490.02 274.822C1492.31 279.593 1490.71 284.622 1485.52 288.953C1480.33 293.284 1471.92 296.616 1461.87 298.316C1451.83 300.016 1440.87 299.965 1431.05 298.174C1421.24 296.382 1413.27 292.975 1408.65 288.598C1405.93 291.98 1401.07 294.92 1394.71 297.031C1388.35 299.141 1380.79 300.321 1373.03 300.414C1372.19 300.424 1371.36 300.434 1370.53 300.403C1367.38 305.294 1361.26 309.69 1352.9 313.066C1344.55 316.441 1334.31 318.654 1323.42 319.438C1312.53 320.222 1301.45 319.546 1291.49 317.489C1281.54 315.433 1273.13 312.083 1267.28 307.841C1261.98 309.162 1256.09 309.895 1250.11 309.981C1244.13 310.067 1238.22 309.504 1232.85 308.337C1227.49 307.171 1222.81 305.432 1219.2 303.263C1215.6 301.093 1213.16 298.552 1212.09 295.845C1205.65 298.562 1197.45 300.209 1188.83 300.518C1180.21 300.828 1171.67 299.78 1164.62 297.547C1160.25 300.062 1154.52 301.998 1148.03 303.149C1141.54 304.3 1134.52 304.623 1127.74 304.085C1120.95 303.546 1114.65 302.165 1109.49 300.089C1104.34 298.012 1100.53 295.318 1098.46 292.292C1092.99 295.117 1085.97 297.212 1078.18 298.35C1070.39 299.488 1062.12 299.626 1054.26 298.75C1050.06 302.641 1043.36 305.85 1035.09 307.927C1026.82 310.003 1017.4 310.841 1008.15 310.323C1000.08 314.061 989.298 316.269 977.987 316.498C966.676 316.727 955.687 314.962 947.25 311.559C939.38 312.72 931.012 312.861 923.07 311.965C915.128 311.068 907.922 309.17 902.247 306.48C898.492 309.826 892.852 312.655 885.935 314.662C879.018 316.668 871.085 317.775 862.99 317.865L862.687 317.869C858.563 323.66 850.262 328.656 839.19 332.011C828.118 335.366 814.954 336.874 801.925 336.281C788.896 335.688 776.801 333.029 767.687 328.755C758.573 324.481 752.998 318.853 751.907 312.825C751.143 312.834 750.364 312.843 749.586 312.852C741.932 312.948 734.377 312.194 727.555 310.655C720.734 309.115 714.845 306.833 710.384 304.002C705.923 301.171 703.019 297.873 701.917 294.385C700.816 290.897 701.547 287.321 704.052 283.957C706.556 280.593 710.759 277.54 716.309 275.053C721.859 272.566 728.592 270.719 735.944 269.667C743.296 268.615 751.052 268.388 758.56 269.006C766.068 269.623 773.109 271.067 779.092 273.217L999.695 270.599C1008.07 269.162 1017.14 268.906 1025.73 269.864C1029.45 266.398 1035.18 263.463 1042.26 261.39C1049.35 259.317 1057.51 258.19 1065.82 258.136C1074.13 258.082 1082.26 259.103 1089.29 261.083C1096.33 263.063 1101.98 265.924 1105.61 269.342L1164.72 268.641C1171.1 266.51 1178.69 265.319 1186.49 265.226C1194.28 265.134 1201.91 266.145 1208.33 268.123L1359.19 266.333C1367.83 264.73 1377.38 264.617 1386.06 266.014L1416.9 265.649C1423.57 262.472 1432.28 260.378 1441.68 259.688C1441.61 259.229 1441.54 258.771 1441.54 258.305C1441.52 255.013 1443.49 251.765 1447.23 248.928C1450.97 246.09 1456.34 243.777 1462.72 242.248C1469.1 240.719 1476.24 240.036 1483.33 240.275C1490.43 240.515 1497.2 241.667 1502.89 243.603C1508.57 245.538 1512.93 248.18 1515.49 251.229C1518.04 254.279 1518.69 257.615 1517.35 260.861C1516.01 264.108 1512.75 267.135 1507.92 269.602C1503.09 272.069 1496.89 273.877 1490.02 274.822Z" fill="white"/>
<path d="M2237.1 246.746C2239.39 251.517 2237.78 256.546 2232.6 260.877C2227.41 265.208 2218.99 268.54 2208.95 270.24C2198.91 271.94 2187.94 271.889 2178.13 270.098C2168.32 268.306 2160.34 264.899 2155.72 260.522C2153.01 263.904 2148.15 266.844 2141.79 268.954C2135.42 271.065 2127.86 272.244 2120.11 272.338C2119.27 272.348 2118.43 272.357 2117.61 272.327C2114.45 277.218 2108.33 281.614 2099.98 284.99C2091.62 288.365 2081.39 290.577 2070.5 291.362C2059.61 292.146 2048.53 291.47 2038.57 289.413C2028.62 287.357 2020.21 284.007 2014.36 279.765C2009.05 281.086 2003.17 281.819 1997.19 281.905C1991.21 281.991 1985.3 281.428 1979.93 280.261C1974.56 279.094 1969.89 277.356 1966.28 275.186C1962.68 273.017 1960.24 270.476 1959.17 267.769C1952.73 270.486 1944.53 272.133 1935.91 272.442C1927.29 272.751 1918.75 271.704 1911.69 269.471C1907.33 271.986 1901.6 273.922 1895.11 275.073C1888.61 276.224 1881.6 276.547 1874.82 276.008C1868.03 275.47 1861.73 274.089 1856.57 272.012C1851.42 269.936 1847.6 267.242 1845.54 264.216C1840.06 267.041 1833.05 269.136 1825.26 270.274C1817.47 271.412 1809.2 271.55 1801.33 270.674C1797.14 274.565 1790.44 277.774 1782.17 279.851C1773.89 281.927 1764.47 282.765 1755.23 282.247C1747.16 285.985 1736.38 288.192 1725.06 288.422C1713.75 288.651 1702.76 286.885 1694.33 283.482C1686.46 284.644 1678.09 284.785 1670.15 283.888C1662.21 282.992 1655 281.094 1649.32 278.403C1645.57 281.75 1639.93 284.579 1633.01 286.585C1626.09 288.592 1618.16 289.699 1610.07 289.789L1609.76 289.793C1605.64 295.584 1597.34 300.58 1586.27 303.935C1575.2 307.29 1562.03 308.798 1549 308.205C1535.97 307.611 1523.88 304.953 1514.76 300.679C1505.65 296.404 1500.08 290.777 1498.98 284.748C1498.22 284.757 1497.44 284.767 1496.66 284.776C1489.01 284.872 1481.45 284.118 1474.63 282.578C1467.81 281.038 1461.92 278.757 1457.46 275.926C1453 273.095 1450.1 269.797 1448.99 266.309C1447.89 262.821 1448.62 259.245 1451.13 255.881C1453.63 252.517 1457.84 249.463 1463.39 246.977C1468.94 244.49 1475.67 242.643 1483.02 241.591C1490.37 240.539 1498.13 240.312 1505.64 240.93C1513.15 241.547 1520.19 242.991 1526.17 245.141L1746.77 242.523C1755.15 241.085 1764.21 240.83 1772.8 241.788C1776.53 238.322 1782.26 235.386 1789.34 233.314C1796.43 231.241 1804.59 230.114 1812.9 230.06C1821.21 230.006 1829.34 231.026 1836.37 233.007C1843.4 234.987 1849.06 237.848 1852.69 241.266L1911.8 240.565C1918.18 238.434 1925.77 237.243 1933.57 237.15C1941.36 237.058 1948.98 238.068 1955.41 240.047L2106.26 238.257C2114.91 236.654 2124.46 236.541 2133.14 237.938L2163.97 237.572C2170.65 234.396 2179.36 232.302 2188.76 231.612C2188.68 231.153 2188.62 230.695 2188.61 230.229C2188.59 226.936 2190.57 223.689 2194.31 220.851C2198.05 218.014 2203.41 215.701 2209.79 214.172C2216.17 212.643 2223.31 211.96 2230.41 212.199C2237.51 212.439 2244.28 213.591 2249.96 215.527C2255.64 217.462 2260.01 220.104 2262.57 223.153C2265.12 226.203 2265.77 229.539 2264.43 232.785C2263.09 236.032 2259.82 239.059 2254.99 241.526C2250.17 243.992 2243.97 245.8 2237.1 246.746Z" fill="white"/>
<path d="M2237.1 246.746C2239.39 251.517 2237.78 256.546 2232.6 260.877C2227.41 265.208 2218.99 268.54 2208.95 270.24C2198.91 271.94 2187.94 271.889 2178.13 270.098C2168.32 268.306 2160.34 264.899 2155.72 260.522C2153.01 263.904 2148.15 266.844 2141.79 268.954C2135.42 271.065 2127.86 272.244 2120.11 272.338C2119.27 272.348 2118.43 272.357 2117.61 272.327C2114.45 277.218 2108.33 281.614 2099.98 284.99C2091.62 288.365 2081.39 290.577 2070.5 291.362C2059.61 292.146 2048.53 291.47 2038.57 289.413C2028.62 287.357 2020.21 284.007 2014.36 279.765C2009.05 281.086 2003.17 281.819 1997.19 281.905C1991.21 281.991 1985.3 281.428 1979.93 280.261C1974.56 279.094 1969.89 277.356 1966.28 275.186C1962.68 273.017 1960.24 270.476 1959.17 267.769C1952.73 270.486 1944.53 272.133 1935.91 272.442C1927.29 272.751 1918.75 271.704 1911.69 269.471C1907.33 271.986 1901.6 273.922 1895.11 275.073C1888.61 276.224 1881.6 276.547 1874.82 276.008C1868.03 275.47 1861.73 274.089 1856.57 272.012C1851.42 269.936 1847.6 267.242 1845.54 264.216C1840.06 267.041 1833.05 269.136 1825.26 270.274C1817.47 271.412 1809.2 271.55 1801.33 270.674C1797.14 274.565 1790.44 277.774 1782.17 279.851C1773.89 281.927 1764.47 282.765 1755.23 282.247C1747.16 285.985 1736.38 288.192 1725.06 288.422C1713.75 288.651 1702.76 286.885 1694.33 283.482C1686.46 284.644 1678.09 284.785 1670.15 283.888C1662.21 282.992 1655 281.094 1649.32 278.403C1645.57 281.75 1639.93 284.579 1633.01 286.585C1626.09 288.592 1618.16 289.699 1610.07 289.789L1609.76 289.793C1605.64 295.584 1597.34 300.58 1586.27 303.935C1575.2 307.29 1562.03 308.798 1549 308.205C1535.97 307.611 1523.88 304.953 1514.76 300.679C1505.65 296.404 1500.08 290.777 1498.98 284.748C1498.22 284.757 1497.44 284.767 1496.66 284.776C1489.01 284.872 1481.45 284.118 1474.63 282.578C1467.81 281.038 1461.92 278.757 1457.46 275.926C1453 273.095 1450.1 269.797 1448.99 266.309C1447.89 262.821 1448.62 259.245 1451.13 255.881C1453.63 252.517 1457.84 249.463 1463.39 246.977C1468.94 244.49 1475.67 242.643 1483.02 241.591C1490.37 240.539 1498.13 240.312 1505.64 240.93C1513.15 241.547 1520.19 242.991 1526.17 245.141L1746.77 242.523C1755.15 241.085 1764.21 240.83 1772.8 241.788C1776.53 238.322 1782.26 235.386 1789.34 233.314C1796.43 231.241 1804.59 230.114 1812.9 230.06C1821.21 230.006 1829.34 231.026 1836.37 233.007C1843.4 234.987 1849.06 237.848 1852.69 241.266L1911.8 240.565C1918.18 238.434 1925.77 237.243 1933.57 237.15C1941.36 237.058 1948.98 238.068 1955.41 240.047L2106.26 238.257C2114.91 236.654 2124.46 236.541 2133.14 237.938L2163.97 237.572C2170.65 234.396 2179.36 232.302 2188.76 231.612C2188.68 231.153 2188.62 230.695 2188.61 230.229C2188.59 226.936 2190.57 223.689 2194.31 220.851C2198.05 218.014 2203.41 215.701 2209.79 214.172C2216.17 212.643 2223.31 211.96 2230.41 212.199C2237.51 212.439 2244.28 213.591 2249.96 215.527C2255.64 217.462 2260.01 220.104 2262.57 223.153C2265.12 226.203 2265.77 229.539 2264.43 232.785C2263.09 236.032 2259.82 239.059 2254.99 241.526C2250.17 243.992 2243.97 245.8 2237.1 246.746Z" fill="white"/>
<path d="M360 208.705L732 126L763.5 -1H2067L2072 177L2067 260.5H1811L1445 283.5H1072L360 297.5V208.705Z" fill="white"/>
</g>
<defs>
<clipPath id="clip0">
<rect width="2111" height="391" fill="white" transform="translate(-42)"/>
</clipPath>
</defs>
</svg>
