<svg width="600" height="436" viewBox="0 0 600 436" fill="none" xmlns="http://www.w3.org/2000/svg">
<path d="M514.655 64.0833C515.902 61.1159 514.974 58.0177 512.046 55.3772C509.119 52.7367 504.397 50.7378 498.776 49.7602C493.156 48.7826 487.028 48.8944 481.559 50.0743C476.089 51.2542 471.657 53.4201 469.105 56.1605C467.565 54.0893 464.83 52.3063 461.262 51.048C457.695 49.7897 453.463 49.1156 449.129 49.1149C448.662 49.1149 448.195 49.1149 447.736 49.1396C445.939 46.1379 442.49 43.4642 437.801 41.438C433.112 39.4118 427.38 38.1188 421.291 37.7136C415.203 37.3084 409.015 37.8081 403.467 39.153C397.919 40.4979 393.246 42.6311 390.006 45.2976C387.032 44.5197 383.741 44.1096 380.4 44.1001C377.059 44.0907 373.76 44.4822 370.769 45.2433C367.777 46.0043 365.177 47.1135 363.177 48.4819C361.177 49.8502 359.833 51.4393 359.253 53.1215C355.637 51.4884 351.045 50.5297 346.227 50.4019C341.409 50.274 336.647 50.9844 332.72 52.4174C330.266 50.8939 327.051 49.7387 323.416 49.0744C319.781 48.4102 315.862 48.2617 312.076 48.6447C308.289 49.0278 304.776 49.9281 301.909 51.2499C299.043 52.5718 296.931 54.2659 295.797 56.1523C292.72 54.4456 288.789 53.2015 284.429 52.5548C280.069 51.9081 275.446 51.8834 271.06 52.4833C268.692 50.1077 264.925 48.1719 260.291 46.9485C255.657 45.7252 250.388 45.2759 245.228 45.6641C240.695 43.4118 234.655 42.1256 228.335 42.0667C222.015 42.0078 215.887 43.1806 211.197 45.347C206.792 44.6863 202.117 44.6608 197.686 45.2734C193.255 45.886 189.242 47.1129 186.09 48.8184C183.97 46.776 180.8 45.068 176.923 43.878C173.045 42.688 168.606 42.0612 164.084 42.0651H163.915C161.572 38.5139 156.902 35.4853 150.694 33.4917C144.487 31.4981 137.123 30.6618 129.848 31.1243C122.573 31.5869 115.834 33.3198 110.771 36.03C105.708 38.7402 102.631 42.2613 102.061 45.9976C101.634 45.9976 101.199 45.9976 100.765 45.9976C96.4879 45.9945 92.2723 46.516 88.4718 47.5184C84.6712 48.5208 81.3967 49.9748 78.9232 51.7583C76.4497 53.5419 74.8496 55.6028 74.2572 57.768C73.6648 59.9332 74.0974 62.1395 75.5187 64.2015C76.94 66.2636 79.3084 68.1211 82.4251 69.6182C85.5418 71.1152 89.3157 72.2081 93.4299 72.8049C97.544 73.4017 101.878 73.4851 106.068 73.048C110.259 72.6109 114.183 71.6662 117.511 70.2931H240.766C245.455 71.1205 250.521 71.2123 255.313 70.5566C257.417 72.6729 260.637 74.4462 264.608 75.6759C268.58 76.9056 273.146 77.5428 277.789 77.5154C282.432 77.4879 286.968 76.797 290.883 75.5207C294.799 74.2444 297.938 72.4337 299.945 70.2931H332.97C336.546 71.5639 340.797 72.2451 345.153 72.2451C349.508 72.2451 353.76 71.5639 357.336 70.2931H441.622C446.462 71.2211 451.796 71.2211 456.636 70.2931H473.866C477.617 72.2084 482.497 73.4397 487.752 73.7974C487.712 74.0815 487.68 74.3656 487.68 74.6539C487.69 76.69 488.813 78.6842 490.923 80.4113C493.032 82.1384 496.044 83.5298 499.618 84.4285C503.192 85.3272 507.186 85.6973 511.149 85.4972C515.113 85.2971 518.888 84.5347 522.049 83.296C525.21 82.0573 527.631 80.3917 529.039 78.4869C530.447 76.5822 530.786 74.5143 530.017 72.5165C529.248 70.5186 527.402 68.6704 524.688 67.1803C521.973 65.6902 518.499 64.6175 514.655 64.0833Z" fill="white"/>
<path d="M292.168 78.4843C292.591 80.9868 291.858 83.487 290.109 85.5101C288.359 87.5332 285.714 88.9383 282.677 89.4584C279.64 89.9785 276.422 89.5775 273.634 88.3314C270.846 87.0854 268.682 85.0811 267.553 82.6994C266.579 84.3245 264.999 85.6523 263.021 86.5068C261.043 87.3612 258.761 87.702 256.478 87.4839C256.232 87.4603 255.986 87.4367 255.746 87.3932C254.564 89.7703 252.537 91.7944 249.908 93.2236C247.278 94.6528 244.158 95.4265 240.919 95.4525C237.68 95.4784 234.461 94.7553 231.644 93.3697C228.828 91.9841 226.535 89.9946 225.038 87.6389C223.41 88.1283 221.645 88.2995 219.885 88.1387C218.124 87.9778 216.417 87.4895 214.902 86.7129C213.386 85.9363 212.104 84.8931 211.158 83.6673C210.212 82.4415 209.63 81.0672 209.456 79.6549C207.423 80.8151 204.93 81.3716 202.382 81.2336C199.834 81.0956 197.382 80.2712 195.427 78.895C194.014 80.0237 192.23 80.8112 190.263 81.1739C188.297 81.5366 186.221 81.4609 184.256 80.9549C182.292 80.4489 180.513 79.5315 179.107 78.3002C177.701 77.0688 176.722 75.5694 176.273 73.9614C174.519 75.2093 172.35 76.0337 170.003 76.3454C167.656 76.657 165.219 76.4441 162.956 75.7296C161.522 77.5631 159.386 78.9646 156.849 79.7365C154.311 80.5084 151.501 80.6119 148.814 80.0324C146.249 81.6554 142.967 82.408 139.634 82.1375C136.3 81.867 133.165 80.5936 130.865 78.5759C128.493 78.8969 126.029 78.6819 123.743 77.9547C121.458 77.2275 119.441 76.0164 117.915 74.4552C116.637 76.0273 114.834 77.2716 112.698 78.0543C110.562 78.8369 108.175 79.1282 105.793 78.8968L105.704 78.8883C104.191 81.6896 101.493 83.9439 98.0665 85.2696C94.6402 86.5954 90.6959 86.9113 86.9007 86.164C83.1056 85.4167 79.6926 83.652 77.239 81.1684C74.7855 78.6848 73.442 75.6348 73.4359 72.5343C73.211 72.5127 72.9819 72.4908 72.7529 72.4688C70.5002 72.2557 68.3209 71.6142 66.398 70.5983C64.4752 69.5825 62.8649 68.2218 61.7025 66.6308C60.5401 65.0397 59.8594 63.2646 59.7178 61.4546C59.5761 59.6447 59.9775 57.8526 60.8883 56.2291C61.7992 54.6056 63.1927 53.1979 64.9521 52.1244C66.7114 51.0509 68.785 50.3429 70.9989 50.0599C73.2127 49.7768 75.502 49.927 77.6746 50.4977C79.8472 51.0685 81.8395 52.0432 83.4843 53.3399L148.402 59.5592C150.936 59.1155 153.612 59.2957 156.084 60.0765C157.359 58.4428 159.194 57.1474 161.383 56.3369C163.571 55.5263 166.026 55.2329 168.47 55.4897C170.913 55.7465 173.247 56.5434 175.209 57.7902C177.171 59.037 178.682 60.6841 179.571 62.5452L196.964 64.2116C198.948 63.3473 201.241 63.0018 203.535 63.2215C205.829 63.4413 208.014 64.2158 209.798 65.4411L254.19 69.694C256.813 69.1752 259.622 69.4444 262.098 70.4515L271.173 71.3209C273.299 69.9356 275.966 69.1695 278.762 69.1406C278.763 68.905 278.769 68.6698 278.791 68.4328C278.957 66.7594 279.706 65.1766 280.952 63.8631C282.199 62.5496 283.895 61.5577 285.848 60.9992C287.801 60.4408 289.934 60.338 292.006 60.7025C294.078 61.067 296.006 61.8843 297.573 63.0621C299.141 64.24 300.285 65.7315 300.877 67.3685C301.468 69.0054 301.484 70.7226 300.922 72.3263C300.36 73.93 299.242 75.3563 297.695 76.4444C296.148 77.5325 294.234 78.239 292.168 78.4843Z" fill="white"/>
<path d="M365.691 75.8827C366.115 78.3852 365.382 80.8854 363.632 82.9086C361.883 84.9317 359.238 86.3367 356.201 86.8568C353.164 87.377 349.946 86.9759 347.158 85.7299C344.37 84.4838 342.206 82.4796 341.077 80.0978C340.103 81.7229 338.522 83.0507 336.544 83.9052C334.566 84.7597 332.285 85.1004 330.002 84.8823C329.756 84.8587 329.51 84.8351 329.27 84.7917C328.088 87.1687 326.061 89.1928 323.432 90.622C320.802 92.0512 317.682 92.825 314.443 92.8509C311.204 92.8768 307.984 92.1538 305.168 90.7681C302.352 89.3825 300.059 87.393 298.562 85.0374C296.934 85.5268 295.169 85.6979 293.409 85.5371C291.648 85.3763 289.941 84.8879 288.426 84.1113C286.91 83.3347 285.628 82.2916 284.682 81.0657C283.736 79.8399 283.153 78.4656 282.98 77.0533C280.947 78.2135 278.454 78.77 275.906 78.632C273.358 78.494 270.906 77.6697 268.95 76.2935C267.538 77.4221 265.754 78.2096 263.787 78.5723C261.82 78.935 259.745 78.8594 257.78 78.3534C255.816 77.8474 254.036 76.93 252.631 75.6986C251.225 74.4672 250.246 72.9679 249.797 71.3598C248.042 72.6077 245.874 73.4321 243.527 73.7438C241.18 74.0555 238.743 73.8425 236.48 73.128C235.046 74.9616 232.909 76.363 230.372 77.1349C227.835 77.9068 225.025 78.0103 222.338 77.4308C219.773 79.0538 216.491 79.8064 213.158 79.5359C209.824 79.2654 206.689 77.9921 204.389 75.9744C202.017 76.2953 199.553 76.0803 197.267 75.3531C194.982 74.6259 192.965 73.4148 191.439 71.8536C190.161 73.4257 188.358 74.67 186.222 75.4527C184.086 76.2353 181.699 76.5266 179.317 76.2953L179.228 76.2867C177.715 79.0881 175.017 81.3423 171.59 82.6681C168.164 83.9938 164.22 84.3098 160.425 83.5625C156.629 82.8151 153.216 81.0504 150.763 78.5668C148.309 76.0832 146.966 73.0332 146.96 69.9327C146.735 69.9112 146.506 69.8892 146.277 69.8673C144.024 69.6541 141.845 69.0127 139.922 67.9968C137.999 66.9809 136.389 65.6203 135.226 64.0292C134.064 62.4381 133.383 60.663 133.242 58.8531C133.1 57.0431 133.501 55.2511 134.412 53.6276C135.323 52.004 136.717 50.5964 138.476 49.5229C140.235 48.4494 142.309 47.7414 144.523 47.4583C146.737 47.1752 149.026 47.3254 151.199 47.8962C153.371 48.4669 155.363 49.4416 157.008 50.7384L221.926 56.9576C224.46 56.5139 227.136 56.6941 229.608 57.475C230.883 55.8413 232.718 54.5459 234.907 53.7353C237.095 52.9247 239.55 52.6313 241.993 52.8881C244.437 53.1449 246.771 53.9418 248.733 55.1886C250.695 56.4355 252.206 58.0825 253.094 59.9437L270.488 61.61C272.472 60.7457 274.765 60.4002 277.059 60.62C279.353 60.8397 281.538 61.6142 283.322 62.8395L327.714 67.0924C330.336 66.5737 333.146 66.8428 335.622 67.85L344.697 68.7193C346.823 67.334 349.49 66.5679 352.286 66.539C352.287 66.3034 352.293 66.0682 352.315 65.8312C352.481 64.1578 353.23 62.575 354.476 61.2616C355.723 59.9481 357.419 58.9561 359.372 58.3977C361.325 57.8392 363.458 57.7364 365.53 58.1009C367.601 58.4654 369.53 59.2827 371.097 60.4606C372.665 61.6384 373.809 63.13 374.401 64.7669C374.992 66.4038 375.008 68.121 374.446 69.7247C373.884 71.3284 372.766 72.7547 371.219 73.8428C369.672 74.9309 367.758 75.6375 365.691 75.8827Z" fill="white"/>
<path d="M398.078 287.358C394.364 289.057 390.316 289.678 386.704 289.1C383.091 288.523 380.166 286.789 378.483 284.227C376.801 281.665 376.478 278.454 377.576 275.203C378.674 271.952 381.117 268.889 384.441 266.594C381.665 266.533 379.168 265.751 377.281 264.351C375.394 262.952 374.207 261.001 373.876 258.757C373.841 258.516 373.805 258.274 373.802 258.027C369.812 258.164 366.117 257.329 363.159 255.621C360.201 253.914 358.105 251.406 357.122 248.399C356.138 245.391 356.309 242.01 357.613 238.661C358.917 235.311 361.3 232.134 364.476 229.51C363.251 228.247 362.474 226.689 362.208 224.963C361.941 223.237 362.193 221.39 362.942 219.571C363.691 217.752 364.917 216.012 366.522 214.491C368.126 212.969 370.064 211.709 372.179 210.811C369.807 209.52 368.227 207.484 367.696 205.035C367.165 202.586 367.715 199.869 369.256 197.327C367.113 196.598 365.386 195.345 364.256 193.699C363.127 192.053 362.638 190.078 362.841 187.981C363.045 185.885 363.933 183.747 365.412 181.793C366.891 179.84 368.905 178.145 371.24 176.887C368.815 175.901 366.919 174.308 365.756 172.281C364.594 170.254 364.211 167.87 364.647 165.387C361.417 165.005 358.646 163.743 356.723 161.779C354.799 159.814 353.822 157.247 353.927 154.438C350.691 152.892 348.58 150.222 348.024 146.972C347.467 143.721 348.506 140.133 350.93 136.935C349.747 134.89 349.358 132.478 349.807 129.967C350.257 127.456 351.526 124.943 353.475 122.705C350.692 122.334 348.258 121.3 346.436 119.715C344.613 118.131 343.471 116.056 343.131 113.714L343.118 113.626C338.381 113.675 334.138 112.334 331.107 109.829C328.075 107.324 326.441 103.809 326.481 99.8795C326.521 95.9495 328.233 91.8455 331.326 88.2616C334.42 84.6778 338.706 81.8341 343.459 80.2117C343.426 79.9907 343.393 79.7655 343.36 79.5404C343.031 77.3278 343.379 74.9604 344.377 72.637C345.374 70.3135 346.992 68.1019 349.093 66.1878C351.194 64.2738 353.718 62.7133 356.452 61.6373C359.187 60.5614 362.052 60.0014 364.807 60.0045C367.562 60.0075 370.127 60.5735 372.286 61.6549C374.445 62.7363 376.135 64.3015 377.214 66.2191C378.293 68.1367 378.73 70.3506 378.488 72.6749C378.246 74.9992 377.332 77.366 375.822 79.5765L385.204 143.377C386.623 145.511 387.126 148.1 386.649 150.814C389.526 151.151 392.047 152.187 393.928 153.807C395.809 155.426 396.974 157.563 397.293 159.976C397.611 162.389 397.069 164.982 395.729 167.462C394.388 169.943 392.303 172.211 389.708 174.01L392.221 191.105C394.125 192.505 395.323 194.463 395.654 196.718C395.986 198.972 395.435 201.415 394.076 203.718L400.491 247.347C402.051 249.523 402.457 252.284 401.634 255.119L402.945 264.037C405.689 265.299 407.641 267.387 408.5 269.98C408.862 269.858 409.224 269.741 409.594 269.638C412.209 268.92 414.854 268.793 417.232 269.272C419.61 269.75 421.625 270.814 423.051 272.345C424.476 273.876 425.255 275.812 425.3 277.934C425.345 280.057 424.654 282.282 423.304 284.359C421.955 286.435 420.001 288.28 417.663 289.686C415.325 291.091 412.696 292.001 410.073 292.313C407.45 292.625 404.937 292.326 402.817 291.45C400.698 290.575 399.057 289.157 398.078 287.358Z" fill="white"/>
<path d="M398.078 287.358C394.364 289.057 390.316 289.678 386.704 289.1C383.091 288.523 380.166 286.789 378.483 284.227C376.801 281.665 376.478 278.454 377.576 275.203C378.674 271.952 381.117 268.889 384.441 266.594C381.665 266.533 379.168 265.751 377.281 264.351C375.394 262.952 374.207 261.001 373.876 258.757C373.841 258.516 373.805 258.274 373.802 258.027C369.812 258.164 366.117 257.329 363.159 255.621C360.201 253.914 358.105 251.406 357.122 248.399C356.138 245.391 356.309 242.01 357.613 238.661C358.917 235.311 361.3 232.134 364.476 229.51C363.251 228.247 362.474 226.689 362.208 224.963C361.941 223.237 362.193 221.39 362.942 219.571C363.691 217.752 364.917 216.012 366.522 214.491C368.126 212.969 370.064 211.709 372.179 210.811C369.807 209.52 368.227 207.484 367.696 205.035C367.165 202.586 367.715 199.869 369.256 197.327C367.113 196.598 365.386 195.345 364.256 193.699C363.127 192.053 362.638 190.078 362.841 187.981C363.045 185.885 363.933 183.747 365.412 181.793C366.891 179.84 368.905 178.145 371.24 176.887C368.815 175.901 366.919 174.308 365.756 172.281C364.594 170.254 364.211 167.87 364.647 165.387C361.417 165.005 358.646 163.743 356.723 161.779C354.799 159.814 353.822 157.247 353.927 154.438C350.691 152.892 348.58 150.222 348.024 146.972C347.467 143.721 348.506 140.133 350.93 136.935C349.747 134.89 349.358 132.478 349.807 129.967C350.257 127.456 351.526 124.943 353.475 122.705C350.692 122.334 348.258 121.3 346.436 119.715C344.613 118.131 343.471 116.056 343.131 113.714L343.118 113.626C338.381 113.675 334.138 112.334 331.107 109.829C328.075 107.324 326.441 103.809 326.481 99.8795C326.521 95.9495 328.233 91.8455 331.326 88.2616C334.42 84.6778 338.706 81.8341 343.459 80.2117C343.426 79.9907 343.393 79.7655 343.36 79.5404C343.031 77.3278 343.379 74.9604 344.377 72.637C345.374 70.3135 346.992 68.1019 349.093 66.1878C351.194 64.2738 353.718 62.7133 356.452 61.6373C359.187 60.5614 362.052 60.0014 364.807 60.0045C367.562 60.0075 370.127 60.5735 372.286 61.6549C374.445 62.7363 376.135 64.3015 377.214 66.2191C378.293 68.1367 378.73 70.3506 378.488 72.6749C378.246 74.9992 377.332 77.366 375.822 79.5765L385.204 143.377C386.623 145.511 387.126 148.1 386.649 150.814C389.526 151.151 392.047 152.187 393.928 153.807C395.809 155.426 396.974 157.563 397.293 159.976C397.611 162.389 397.069 164.982 395.729 167.462C394.388 169.943 392.303 172.211 389.708 174.01L392.221 191.105C394.125 192.505 395.323 194.463 395.654 196.718C395.986 198.972 395.435 201.415 394.076 203.718L400.491 247.347C402.051 249.523 402.457 252.284 401.634 255.119L402.945 264.037C405.689 265.299 407.641 267.387 408.5 269.98C408.862 269.858 409.224 269.741 409.594 269.638C412.209 268.92 414.854 268.793 417.232 269.272C419.61 269.75 421.625 270.814 423.051 272.345C424.476 273.876 425.255 275.812 425.3 277.934C425.345 280.057 424.654 282.282 423.304 284.359C421.955 286.435 420.001 288.28 417.663 289.686C415.325 291.091 412.696 292.001 410.073 292.313C407.45 292.625 404.937 292.326 402.817 291.45C400.698 290.575 399.057 289.157 398.078 287.358Z" fill="white"/>
<path d="M371.239 288.601V68H607.5V383H266L371.239 288.601Z" fill="white"/>
<path d="M62.6794 369.359C61.7134 365.401 61.7924 361.306 62.9015 357.85C64.0106 354.394 66.0725 351.819 68.6955 350.613C71.3186 349.407 74.3201 349.655 77.13 351.309C79.9399 352.963 82.3624 355.909 83.9375 359.586C84.4387 356.863 85.5574 354.542 87.1455 352.93C88.7335 351.318 90.7158 350.493 92.8294 350.562C93.0572 350.57 93.2851 350.577 93.512 350.617C94.0258 346.664 95.3852 343.173 97.4278 340.56C99.4703 337.948 102.109 336.326 105.03 335.887C107.95 335.448 111.028 336.211 113.896 338.086C116.764 339.96 119.3 342.866 121.202 346.457C122.559 345.473 124.114 344.982 125.742 345.024C127.37 345.065 129.026 345.638 130.577 346.696C132.128 347.755 133.529 349.269 134.67 351.116C135.81 352.964 136.658 355.095 137.143 357.336C138.71 355.228 140.833 354.03 143.168 353.939C145.502 353.847 147.91 354.867 149.998 356.832C151.011 354.851 152.439 353.37 154.132 352.548C155.824 351.725 157.718 351.592 159.611 352.162C161.504 352.731 163.325 353.983 164.883 355.783C166.44 357.583 167.674 359.865 168.455 362.386C169.75 360.172 171.517 358.585 173.565 357.798C175.613 357.01 177.865 357.053 180.076 357.92C180.944 354.806 182.548 352.299 184.66 350.751C186.773 349.203 189.288 348.693 191.851 349.291C193.79 346.377 196.58 344.768 199.655 344.793C202.731 344.817 205.86 346.472 208.409 349.423C210.477 348.618 212.754 348.66 214.989 349.544C217.224 350.429 219.329 352.122 221.072 354.436C221.86 351.76 223.199 349.546 224.947 348.03C226.694 346.514 228.783 345.754 230.989 345.833L231.072 345.835C231.786 341.162 233.698 337.219 236.485 334.675C239.271 332.131 242.762 331.141 246.365 331.872C249.969 332.604 253.464 335.012 256.261 338.69C259.057 342.368 260.982 347.09 261.711 352.056C261.919 352.063 262.131 352.07 262.343 352.077C264.428 352.143 266.547 352.903 268.521 354.294C270.496 355.686 272.268 357.668 273.689 360.075C275.111 362.481 276.14 365.241 276.69 368.124C277.24 371.006 277.295 373.926 276.851 376.639C276.406 379.352 275.475 381.778 274.136 383.714C272.797 385.649 271.088 387.038 269.154 387.763C267.219 388.488 265.116 388.528 263.019 387.881C260.923 387.233 258.896 385.916 257.107 384.04L196.998 382.04C194.811 383.062 192.352 383.102 189.936 382.154C189.165 384.928 187.809 387.228 186.02 388.795C184.231 390.363 182.082 391.134 179.814 391.022C177.546 390.91 175.251 389.92 173.188 388.163C171.124 386.406 169.375 383.953 168.138 381.08L152.032 380.545C150.442 382.173 148.451 383.008 146.327 382.937C144.202 382.866 142.047 381.894 140.15 380.149L99.0453 378.782C96.7968 379.935 94.1955 379.848 91.7231 378.539L83.3208 378.259C81.7223 380.739 79.4912 382.294 76.9713 382.683C77.0253 383.061 77.0753 383.438 77.11 383.821C77.3506 386.522 77.0433 389.15 76.223 391.407C75.4026 393.664 74.1018 395.461 72.4673 396.596C70.8327 397.73 68.9296 398.156 66.9725 397.827C65.0154 397.497 63.0823 396.424 61.3913 394.729C59.7003 393.035 58.3187 390.785 57.4023 388.235C56.486 385.685 56.0714 382.936 56.2053 380.298C56.3393 377.66 57.0164 375.238 58.1604 373.305C59.3043 371.372 60.8696 370.005 62.6794 369.359Z" fill="white"/>
<path d="M62.6794 369.359C61.7134 365.401 61.7924 361.306 62.9015 357.85C64.0106 354.394 66.0725 351.819 68.6955 350.613C71.3186 349.407 74.3201 349.655 77.13 351.309C79.9399 352.963 82.3624 355.909 83.9375 359.586C84.4387 356.863 85.5574 354.542 87.1455 352.93C88.7335 351.318 90.7158 350.493 92.8294 350.562C93.0572 350.57 93.2851 350.577 93.512 350.617C94.0258 346.664 95.3852 343.173 97.4278 340.56C99.4703 337.948 102.109 336.326 105.03 335.887C107.95 335.448 111.028 336.211 113.896 338.086C116.764 339.96 119.3 342.866 121.202 346.457C122.559 345.473 124.114 344.982 125.742 345.024C127.37 345.065 129.026 345.638 130.577 346.696C132.128 347.755 133.529 349.269 134.67 351.116C135.81 352.964 136.658 355.095 137.143 357.336C138.71 355.228 140.833 354.03 143.168 353.939C145.502 353.847 147.91 354.867 149.998 356.832C151.011 354.851 152.439 353.37 154.132 352.548C155.824 351.725 157.718 351.592 159.611 352.162C161.504 352.731 163.325 353.983 164.883 355.783C166.44 357.583 167.674 359.865 168.455 362.386C169.75 360.172 171.517 358.585 173.565 357.798C175.613 357.01 177.865 357.053 180.076 357.92C180.944 354.806 182.548 352.299 184.66 350.751C186.773 349.203 189.288 348.693 191.851 349.291C193.79 346.377 196.58 344.768 199.655 344.793C202.731 344.817 205.86 346.472 208.409 349.423C210.477 348.618 212.754 348.66 214.989 349.544C217.224 350.429 219.329 352.122 221.072 354.436C221.86 351.76 223.199 349.546 224.947 348.03C226.694 346.514 228.783 345.754 230.989 345.833L231.072 345.835C231.786 341.162 233.698 337.219 236.485 334.675C239.271 332.131 242.762 331.141 246.365 331.872C249.969 332.604 253.464 335.012 256.261 338.69C259.057 342.368 260.982 347.09 261.711 352.056C261.919 352.063 262.131 352.07 262.343 352.077C264.428 352.143 266.547 352.903 268.521 354.294C270.496 355.686 272.268 357.668 273.689 360.075C275.111 362.481 276.14 365.241 276.69 368.124C277.24 371.006 277.295 373.926 276.851 376.639C276.406 379.352 275.475 381.778 274.136 383.714C272.797 385.649 271.088 387.038 269.154 387.763C267.219 388.488 265.116 388.528 263.019 387.881C260.923 387.233 258.896 385.916 257.107 384.04L196.998 382.04C194.811 383.062 192.352 383.102 189.936 382.154C189.165 384.928 187.809 387.228 186.02 388.795C184.231 390.363 182.082 391.134 179.814 391.022C177.546 390.91 175.251 389.92 173.188 388.163C171.124 386.406 169.375 383.953 168.138 381.08L152.032 380.545C150.442 382.173 148.451 383.008 146.327 382.937C144.202 382.866 142.047 381.894 140.15 380.149L99.0453 378.782C96.7968 379.935 94.1955 379.848 91.7231 378.539L83.3208 378.259C81.7223 380.739 79.4912 382.294 76.9713 382.683C77.0253 383.061 77.0753 383.438 77.11 383.821C77.3506 386.522 77.0433 389.15 76.223 391.407C75.4026 393.664 74.1018 395.461 72.4673 396.596C70.8327 397.73 68.9296 398.156 66.9725 397.827C65.0154 397.497 63.0823 396.424 61.3913 394.729C59.7003 393.035 58.3187 390.785 57.4023 388.235C56.486 385.685 56.0714 382.936 56.2053 380.298C56.3393 377.66 57.0164 375.238 58.1604 373.305C59.3043 371.372 60.8696 370.005 62.6794 369.359Z" fill="white"/>
<path d="M241.147 414.341C238.044 412.595 235.671 409.965 234.481 406.951C233.291 403.937 233.365 400.748 234.69 397.991C236.015 395.234 238.498 393.1 241.668 391.995C244.838 390.89 248.474 390.891 251.885 391.997C250.657 389.906 250.148 387.596 250.427 385.374C250.705 383.152 251.757 381.122 253.443 379.553C253.625 379.384 253.807 379.215 254.007 379.067C252.058 376.195 251.041 372.968 251.079 369.771C251.116 366.574 252.206 363.543 254.218 361.041C256.231 358.538 259.08 356.669 262.426 355.658C265.771 354.647 269.472 354.536 273.086 355.339C273.557 353.687 274.476 352.193 275.768 350.977C277.06 349.761 278.689 348.858 280.525 348.339C282.361 347.821 284.351 347.701 286.337 347.991C288.323 348.281 290.248 348.971 291.958 350.007C291.924 347.489 292.866 345.119 294.628 343.281C296.391 341.443 298.871 340.247 301.663 339.887C301.274 337.871 301.506 335.853 302.335 334.046C303.164 332.239 304.558 330.712 306.37 329.625C308.181 328.539 310.343 327.935 312.625 327.877C314.907 327.819 317.223 328.309 319.329 329.295C319.021 326.919 319.453 324.575 320.579 322.519C321.706 320.463 323.483 318.772 325.719 317.63C324.545 315.014 324.303 312.218 325.028 309.636C325.752 307.054 327.406 304.815 329.757 303.236C329.534 299.928 330.75 296.791 333.158 294.461C335.566 292.131 338.985 290.783 342.722 290.69C343.853 288.607 345.651 286.897 347.916 285.748C350.18 284.599 352.825 284.055 355.557 284.178C354.58 281.899 354.306 279.487 354.765 277.203C355.225 274.919 356.399 272.85 358.163 271.216L358.229 271.155C356.007 267.678 355.153 263.746 355.81 260.024C356.467 256.303 358.595 253.019 361.834 250.73C365.074 248.441 369.226 247.286 373.587 247.461C377.949 247.637 382.253 249.131 385.772 251.691C385.938 251.537 386.107 251.38 386.276 251.222C387.938 249.673 390.039 248.534 392.402 247.901C394.766 247.269 397.323 247.161 399.86 247.587C402.396 248.012 404.837 248.96 406.978 250.348C409.119 251.737 410.897 253.528 412.163 255.569C413.429 257.61 414.147 259.842 414.254 262.078C414.362 264.314 413.858 266.488 412.783 268.419C411.708 270.349 410.095 271.978 408.078 273.171C406.062 274.363 403.701 275.083 401.195 275.27L353.223 319.858C352.129 322.167 350.238 324.068 347.794 325.316C348.843 327.644 349.154 330.122 348.693 332.469C348.232 334.817 347.018 336.94 345.186 338.6C343.355 340.259 340.98 341.388 338.33 341.86C335.68 342.331 332.861 342.126 330.191 341.267L317.338 353.214C317.067 355.448 316.013 357.491 314.318 359.066C312.623 360.642 310.368 361.675 307.854 362.028L275.05 392.519C273.985 394.957 271.909 396.887 269.207 397.951L262.501 404.183C262.731 406.959 261.918 409.636 260.188 411.802C260.455 411.998 260.718 412.196 260.972 412.41C262.765 413.921 264.087 415.804 264.79 417.846C265.493 419.888 265.548 422.008 264.95 423.966C264.352 425.925 263.124 427.643 261.405 428.929C259.686 430.215 257.544 431.016 255.221 431.242C252.897 431.469 250.485 431.111 248.257 430.21C246.029 429.309 244.072 427.9 242.609 426.143C241.145 424.385 240.233 422.349 239.975 420.264C239.716 418.179 240.122 416.127 241.147 414.341Z" fill="white"/>
<path d="M241.147 414.341C238.044 412.595 235.671 409.965 234.481 406.951C233.291 403.937 233.365 400.748 234.69 397.991C236.015 395.234 238.498 393.1 241.668 391.995C244.838 390.89 248.474 390.891 251.885 391.997C250.657 389.906 250.148 387.596 250.427 385.374C250.705 383.152 251.757 381.122 253.443 379.553C253.625 379.384 253.807 379.215 254.007 379.067C252.058 376.195 251.041 372.968 251.079 369.771C251.116 366.574 252.206 363.543 254.218 361.041C256.231 358.538 259.08 356.669 262.426 355.658C265.771 354.647 269.472 354.536 273.086 355.339C273.557 353.687 274.476 352.193 275.768 350.977C277.06 349.761 278.689 348.858 280.525 348.339C282.361 347.821 284.351 347.701 286.337 347.991C288.323 348.281 290.248 348.971 291.958 350.007C291.924 347.489 292.866 345.119 294.628 343.281C296.391 341.443 298.871 340.247 301.663 339.887C301.274 337.871 301.506 335.853 302.335 334.046C303.164 332.239 304.558 330.712 306.37 329.625C308.181 328.539 310.343 327.935 312.625 327.877C314.907 327.819 317.223 328.309 319.329 329.295C319.021 326.919 319.453 324.575 320.579 322.519C321.706 320.463 323.483 318.772 325.719 317.63C324.545 315.014 324.303 312.218 325.028 309.636C325.752 307.054 327.406 304.815 329.757 303.236C329.534 299.928 330.75 296.791 333.158 294.461C335.566 292.131 338.985 290.783 342.722 290.69C343.853 288.607 345.651 286.897 347.916 285.748C350.18 284.599 352.825 284.055 355.557 284.178C354.58 281.899 354.306 279.487 354.765 277.203C355.225 274.919 356.399 272.85 358.163 271.216L358.229 271.155C356.007 267.678 355.153 263.746 355.81 260.024C356.467 256.303 358.595 253.019 361.834 250.73C365.074 248.441 369.226 247.286 373.587 247.461C377.949 247.637 382.253 249.131 385.772 251.691C385.938 251.537 386.107 251.38 386.276 251.222C387.938 249.673 390.039 248.534 392.402 247.901C394.766 247.269 397.323 247.161 399.86 247.587C402.396 248.012 404.837 248.96 406.978 250.348C409.119 251.737 410.897 253.528 412.163 255.569C413.429 257.61 414.147 259.842 414.254 262.078C414.362 264.314 413.858 266.488 412.783 268.419C411.708 270.349 410.095 271.978 408.078 273.171C406.062 274.363 403.701 275.083 401.195 275.27L353.223 319.858C352.129 322.167 350.238 324.068 347.794 325.316C348.843 327.644 349.154 330.122 348.693 332.469C348.232 334.817 347.018 336.94 345.186 338.6C343.355 340.259 340.98 341.388 338.33 341.86C335.68 342.331 332.861 342.126 330.191 341.267L317.338 353.214C317.067 355.448 316.013 357.491 314.318 359.066C312.623 360.642 310.368 361.675 307.854 362.028L275.05 392.519C273.985 394.957 271.909 396.887 269.207 397.951L262.501 404.183C262.731 406.959 261.918 409.636 260.188 411.802C260.455 411.998 260.718 412.196 260.972 412.41C262.765 413.921 264.087 415.804 264.79 417.846C265.493 419.888 265.548 422.008 264.95 423.966C264.352 425.925 263.124 427.643 261.405 428.929C259.686 430.215 257.544 431.016 255.221 431.242C252.897 431.469 250.485 431.111 248.257 430.21C246.029 429.309 244.072 427.9 242.609 426.143C241.145 424.385 240.233 422.349 239.975 420.264C239.716 418.179 240.122 416.127 241.147 414.341Z" fill="white"/>
<path d="M100.471 60.6022C101.457 57.2237 101.312 53.5838 100.063 50.3739C98.8146 47.1639 96.5491 44.6074 93.6974 43.1901C90.8456 41.7727 87.6061 41.5932 84.5942 42.6856C81.5823 43.778 79.0078 46.0662 77.3597 49.1156C76.7784 46.6358 75.5357 44.4301 73.7964 42.7908C72.057 41.1514 69.9032 40.1561 67.6204 39.9366C67.3744 39.913 67.1283 39.8894 66.8838 39.8949C66.2709 36.3232 64.7511 33.0484 62.5061 30.4619C60.2611 27.8755 57.3858 26.0868 54.224 25.3096C51.0621 24.5325 47.7475 24.7997 44.6762 26.0795C41.6049 27.3593 38.907 29.5974 36.9048 32.5264C35.4244 31.4742 33.737 30.8325 31.9783 30.6529C30.2195 30.4734 28.4386 30.761 26.7786 31.4927C25.1186 32.2243 23.626 33.3796 22.4207 34.8655C21.2154 36.3514 20.3311 38.1266 19.839 40.0483C18.1158 37.9718 15.8038 36.6283 13.2802 36.2369C10.7566 35.8455 8.17013 36.4292 5.94264 37.8928C4.81936 36.0022 3.25421 34.5003 1.41343 33.5465C-0.427343 32.5927 -2.47498 32.2227 -4.51196 32.4759C-6.54894 32.7291 -8.49919 33.5959 -10.1555 34.9843C-11.8119 36.3727 -13.1124 38.2308 -13.9191 40.3612C-15.35 38.2267 -17.2824 36.5856 -19.5071 35.6156C-21.7317 34.6455 -24.1638 34.3836 -26.5403 34.858C-27.5241 31.9835 -29.2931 29.5484 -31.5981 27.8958C-33.9032 26.2432 -36.628 25.4564 -39.3889 25.6462C-41.5265 22.8054 -44.5648 21.0091 -47.8871 20.6219C-51.2095 20.2347 -54.5669 21.2856 -57.2778 23.5613C-59.5242 22.5728 -61.984 22.3074 -64.3856 22.7943C-66.7872 23.2812 -69.0371 24.5014 -70.8867 26.3203C-71.7766 23.8448 -73.2562 21.7039 -75.1664 20.1282C-77.0766 18.5526 -79.345 17.6017 -81.7274 17.3779L-81.8165 17.3694C-82.6562 13.1328 -84.7798 9.38481 -87.828 6.75955C-90.8762 4.1343 -94.6619 2.79288 -98.5447 2.96221C-102.428 3.13154 -106.169 4.80122 -109.137 7.68882C-112.104 10.5764 -114.116 14.5047 -114.83 18.8091C-115.055 18.7876 -115.284 18.7656 -115.513 18.7437C-117.766 18.5242 -120.044 18.9163 -122.157 19.887C-124.27 20.8578 -126.156 22.3788 -127.656 24.3224C-129.157 26.266 -130.229 28.5754 -130.781 31.0566C-131.333 33.5378 -131.35 36.1183 -130.83 38.5814C-130.311 41.0445 -129.269 43.3183 -127.794 45.2117C-126.319 47.1051 -124.452 48.563 -122.352 49.4627C-120.251 50.3624 -117.978 50.6778 -115.722 50.3823C-113.467 50.0869 -111.295 49.1892 -109.39 47.7647L-44.4726 53.9839C-42.0947 55.1802 -39.4367 55.5422 -36.84 55.0236C-35.9669 57.5841 -34.4679 59.803 -32.5124 61.4296C-30.5569 63.0562 -28.2229 64.0255 -25.7744 64.2279C-23.3258 64.4304 -20.8603 63.858 -18.6565 62.5754C-16.4527 61.2928 -14.5985 59.3512 -13.3036 56.97L4.09027 58.6364C5.83284 60.2907 7.99631 61.2951 10.2903 61.5149C12.5842 61.7346 14.8989 61.1592 16.9235 59.8658L61.3161 64.1187C63.7623 65.4392 66.5717 65.7084 69.2239 64.8763L78.2985 65.7457C80.0618 68.1562 82.4951 69.8304 85.2234 70.5104C85.1707 70.8379 85.1222 71.1658 85.0902 71.5001C84.8697 73.862 85.24 76.2313 86.1593 78.3407C87.0786 80.4502 88.5104 82.2158 90.293 83.4383C92.0756 84.6608 94.1382 85.2916 96.2479 85.2596C98.3577 85.2275 100.431 84.5338 102.233 83.2568C104.036 81.9798 105.496 80.1702 106.448 78.0323C107.401 75.8944 107.809 73.5132 107.626 71.1575C107.443 68.8017 106.676 66.5651 105.411 64.7001C104.147 62.835 102.436 61.4157 100.471 60.6022Z" fill="white"/>
<path d="M112.691 70.8827C113.114 73.3852 112.382 75.8854 110.632 77.9086C108.882 79.9317 106.238 81.3367 103.201 81.8568C100.164 82.377 96.9453 81.9759 94.1572 80.7299C91.369 79.4838 89.2053 77.4796 88.0769 75.0978C87.1028 76.7229 85.522 78.0507 83.544 78.9052C81.566 79.7597 79.2843 80.1004 77.0014 79.8823C76.7553 79.8587 76.5093 79.8351 76.2694 79.7917C75.0872 82.1687 73.0604 84.1928 70.4311 85.622C67.8018 87.0512 64.6813 87.825 61.4426 87.8509C58.2039 87.8768 54.984 87.1538 52.1678 85.7681C49.3516 84.3825 47.0582 82.393 45.5618 80.0374C43.9339 80.5268 42.1687 80.6979 40.4081 80.5371C38.6476 80.3763 36.9409 79.8879 35.4253 79.1113C33.9096 78.3347 32.6274 77.2916 31.6816 76.0657C30.7359 74.8399 30.153 73.4656 29.9798 72.0533C27.9469 73.2135 25.4531 73.77 22.9053 73.632C20.3574 73.494 17.9057 72.6697 15.95 71.2935C14.5377 72.4221 12.7535 73.2096 10.7867 73.5723C8.81996 73.935 6.74416 73.8594 4.77983 73.3534C2.8155 72.8474 1.03599 71.93 -0.369638 70.6986C-1.77527 69.4672 -2.75453 67.9679 -3.20339 66.3598C-4.95805 67.6077 -7.12638 68.4321 -9.47368 68.7438C-11.821 69.0555 -14.2578 68.8425 -16.5205 68.128C-17.9548 69.9616 -20.091 71.363 -22.6281 72.1349C-25.1651 72.9068 -27.9752 73.0103 -30.6624 72.4308C-33.2272 74.0538 -36.5094 74.8064 -39.8429 74.5359C-43.1764 74.2654 -46.3114 72.9921 -48.6115 70.9744C-50.9831 71.2953 -53.4478 71.0803 -55.7332 70.3531C-58.0186 69.6259 -60.0358 68.4148 -61.562 66.8536C-62.8392 68.4257 -64.6428 69.67 -66.7787 70.4527C-68.9146 71.2353 -71.3019 71.5266 -73.6835 71.2953L-73.7726 71.2867C-75.2858 74.0881 -77.9838 76.3423 -81.4101 77.6681C-84.8364 78.9938 -88.7807 79.3098 -92.5759 78.5625C-96.371 77.8151 -99.784 76.0504 -102.238 73.5668C-104.691 71.0832 -106.035 68.0332 -106.041 64.9327C-106.266 64.9112 -106.495 64.8892 -106.724 64.8673C-108.976 64.6541 -111.156 64.0127 -113.079 62.9968C-115.001 61.9809 -116.612 60.6203 -117.774 59.0292C-118.936 57.4381 -119.617 55.663 -119.759 53.8531C-119.9 52.0431 -119.499 50.2511 -118.588 48.6276C-117.677 47.004 -116.284 45.5964 -114.525 44.5229C-112.765 43.4494 -110.692 42.7414 -108.478 42.4583C-106.264 42.1752 -103.975 42.3254 -101.802 42.8962C-99.6294 43.4669 -97.6371 44.4416 -95.9923 45.7384L-31.075 51.9576C-28.5402 51.5139 -25.8647 51.6941 -23.3925 52.475C-22.118 50.8413 -20.2826 49.5459 -18.0939 48.7353C-15.9052 47.9247 -13.4504 47.6313 -11.007 47.8881C-8.56363 48.1449 -6.22913 48.9418 -4.2674 50.1886C-2.30567 51.4355 -0.794942 53.0825 0.0939947 54.9437L17.4879 56.61C19.4715 55.7457 21.7641 55.4002 24.0581 55.62C26.352 55.8397 28.5375 56.6142 30.3211 57.8395L74.7137 62.0924C77.3359 61.5737 80.1453 61.8428 82.6215 62.85L91.696 63.7193C93.8226 62.334 96.4895 61.5679 99.2857 61.539C99.2868 61.3034 99.2922 61.0682 99.3149 60.8312C99.4805 59.1578 100.229 57.575 101.476 56.2616C102.723 54.9481 104.418 53.9561 106.371 53.3977C108.325 52.8392 110.457 52.7364 112.529 53.1009C114.601 53.4654 116.529 54.2827 118.097 55.4606C119.664 56.6384 120.808 58.13 121.4 59.7669C121.992 61.4038 122.007 63.121 121.445 64.7247C120.883 66.3284 119.766 67.7547 118.219 68.8428C116.672 69.9309 114.757 70.6375 112.691 70.8827Z" fill="white"/>
<path d="M-117.322 369.15C-118.288 365.192 -118.209 361.097 -117.1 357.641C-115.99 354.185 -113.929 351.61 -111.305 350.404C-108.682 349.198 -105.681 349.446 -102.871 351.1C-100.061 352.754 -97.6385 355.7 -96.0635 359.377C-95.5623 356.654 -94.4435 354.333 -92.8555 352.721C-91.2675 351.109 -89.2852 350.284 -87.1716 350.353C-86.9437 350.361 -86.7159 350.368 -86.489 350.408C-85.9752 346.455 -84.6157 342.964 -82.5732 340.351C-80.5307 337.739 -77.8915 336.117 -74.9711 335.678C-72.0507 335.239 -68.9726 336.002 -66.1048 337.877C-63.237 339.751 -60.7008 342.657 -58.7993 346.248C-57.4424 345.264 -55.8873 344.773 -54.259 344.815C-52.6307 344.856 -50.9747 345.429 -49.424 346.488C-47.8734 347.546 -46.4715 349.06 -45.3311 350.908C-44.1906 352.755 -43.3434 354.886 -42.8577 357.127C-41.2913 355.019 -39.1677 353.821 -36.8333 353.73C-34.4989 353.638 -32.0913 354.658 -30.0032 356.623C-28.9903 354.642 -27.5618 353.161 -25.8692 352.339C-24.1766 351.516 -22.2833 351.383 -20.3904 351.953C-18.4974 352.522 -16.6755 353.774 -15.1183 355.574C-13.561 357.374 -12.3265 359.656 -11.5459 362.177C-10.2514 359.963 -8.4844 358.376 -6.4361 357.589C-4.38779 356.801 -2.13622 356.844 0.0749129 357.711C0.943402 354.597 2.54679 352.09 4.65923 350.542C6.77167 348.994 9.28667 348.484 11.8499 349.082C13.789 346.168 16.5793 344.559 19.6545 344.584C22.7297 344.608 25.8593 346.263 28.4082 349.214C30.4763 348.409 32.7535 348.451 34.9882 349.335C37.2228 350.22 39.328 351.913 41.0711 354.227C41.8586 351.551 43.1981 349.337 44.9456 347.821C46.693 346.305 48.7822 345.545 50.9882 345.624L51.0707 345.626C51.7847 340.953 53.6969 337.01 56.4836 334.466C59.2704 331.922 62.7608 330.932 66.3643 331.663C69.9679 332.395 73.4634 334.803 76.2596 338.481C79.0557 342.159 80.9809 346.881 81.7095 351.847C81.9177 351.854 82.1299 351.861 82.342 351.868C84.4272 351.934 86.5459 352.694 88.5203 354.085C90.4947 355.477 92.267 357.459 93.6884 359.866C95.1098 362.272 96.1388 365.032 96.6889 367.915C97.239 370.797 97.2942 373.717 96.8498 376.43C96.4054 379.143 95.4745 381.569 94.1351 383.505C92.7957 385.44 91.0871 386.829 89.1527 387.554C87.2184 388.279 85.1147 388.319 83.0185 387.672C80.9223 387.024 78.8947 385.707 77.1061 383.831L16.9972 381.831C14.8103 382.853 12.3508 382.893 9.93473 381.945C9.16409 384.719 7.80778 387.019 6.01912 388.586C4.23045 390.154 2.08075 390.925 -0.186948 390.813C-2.45464 390.701 -4.74991 389.711 -6.81327 387.954C-8.87664 386.197 -10.6258 383.744 -11.8631 380.871L-27.9686 380.336C-29.5594 381.964 -31.5504 382.799 -33.6745 382.728C-35.7985 382.657 -37.9539 381.685 -39.8513 379.94L-80.9557 378.573C-83.2042 379.726 -85.8054 379.639 -88.2778 378.33L-96.6802 378.05C-98.2787 380.53 -100.51 382.085 -103.03 382.474C-102.976 382.852 -102.926 383.229 -102.891 383.612C-102.65 386.313 -102.958 388.941 -103.778 391.198C-104.598 393.455 -105.899 395.252 -107.534 396.387C-109.168 397.521 -111.071 397.947 -113.028 397.618C-114.986 397.288 -116.919 396.215 -118.61 394.52C-120.301 392.826 -121.682 390.576 -122.599 388.026C-123.515 385.477 -123.93 382.727 -123.796 380.089C-123.662 377.451 -122.985 375.029 -121.841 373.096C-120.697 371.163 -119.131 369.796 -117.322 369.15Z" fill="white"/>
<path d="M-117.322 369.15C-118.288 365.192 -118.209 361.097 -117.1 357.641C-115.99 354.185 -113.929 351.61 -111.305 350.404C-108.682 349.198 -105.681 349.446 -102.871 351.1C-100.061 352.754 -97.6385 355.7 -96.0635 359.377C-95.5623 356.654 -94.4435 354.333 -92.8555 352.721C-91.2675 351.109 -89.2852 350.284 -87.1716 350.353C-86.9437 350.361 -86.7159 350.368 -86.489 350.408C-85.9752 346.455 -84.6157 342.964 -82.5732 340.351C-80.5307 337.739 -77.8915 336.117 -74.9711 335.678C-72.0507 335.239 -68.9726 336.002 -66.1048 337.877C-63.237 339.751 -60.7008 342.657 -58.7993 346.248C-57.4424 345.264 -55.8873 344.773 -54.259 344.815C-52.6307 344.856 -50.9747 345.429 -49.424 346.488C-47.8734 347.546 -46.4715 349.06 -45.3311 350.908C-44.1906 352.755 -43.3434 354.886 -42.8577 357.127C-41.2913 355.019 -39.1677 353.821 -36.8333 353.73C-34.4989 353.638 -32.0913 354.658 -30.0032 356.623C-28.9903 354.642 -27.5618 353.161 -25.8692 352.339C-24.1766 351.516 -22.2833 351.383 -20.3904 351.953C-18.4974 352.522 -16.6755 353.774 -15.1183 355.574C-13.561 357.374 -12.3265 359.656 -11.5459 362.177C-10.2514 359.963 -8.4844 358.376 -6.4361 357.589C-4.38779 356.801 -2.13622 356.844 0.0749129 357.711C0.943402 354.597 2.54679 352.09 4.65923 350.542C6.77167 348.994 9.28667 348.484 11.8499 349.082C13.789 346.168 16.5793 344.559 19.6545 344.584C22.7297 344.608 25.8593 346.263 28.4082 349.214C30.4763 348.409 32.7535 348.451 34.9882 349.335C37.2228 350.22 39.328 351.913 41.0711 354.227C41.8586 351.551 43.1981 349.337 44.9456 347.821C46.693 346.305 48.7822 345.545 50.9882 345.624L51.0707 345.626C51.7847 340.953 53.6969 337.01 56.4836 334.466C59.2704 331.922 62.7608 330.932 66.3643 331.663C69.9679 332.395 73.4634 334.803 76.2596 338.481C79.0557 342.159 80.9809 346.881 81.7095 351.847C81.9177 351.854 82.1299 351.861 82.342 351.868C84.4272 351.934 86.5459 352.694 88.5203 354.085C90.4947 355.477 92.267 357.459 93.6884 359.866C95.1098 362.272 96.1388 365.032 96.6889 367.915C97.239 370.797 97.2942 373.717 96.8498 376.43C96.4054 379.143 95.4745 381.569 94.1351 383.505C92.7957 385.44 91.0871 386.829 89.1527 387.554C87.2184 388.279 85.1147 388.319 83.0185 387.672C80.9223 387.024 78.8947 385.707 77.1061 383.831L16.9972 381.831C14.8103 382.853 12.3508 382.893 9.93473 381.945C9.16409 384.719 7.80778 387.019 6.01912 388.586C4.23045 390.154 2.08075 390.925 -0.186948 390.813C-2.45464 390.701 -4.74991 389.711 -6.81327 387.954C-8.87664 386.197 -10.6258 383.744 -11.8631 380.871L-27.9686 380.336C-29.5594 381.964 -31.5504 382.799 -33.6745 382.728C-35.7985 382.657 -37.9539 381.685 -39.8513 379.94L-80.9557 378.573C-83.2042 379.726 -85.8054 379.639 -88.2778 378.33L-96.6802 378.05C-98.2787 380.53 -100.51 382.085 -103.03 382.474C-102.976 382.852 -102.926 383.229 -102.891 383.612C-102.65 386.313 -102.958 388.941 -103.778 391.198C-104.598 393.455 -105.899 395.252 -107.534 396.387C-109.168 397.521 -111.071 397.947 -113.028 397.618C-114.986 397.288 -116.919 396.215 -118.61 394.52C-120.301 392.826 -121.682 390.576 -122.599 388.026C-123.515 385.477 -123.93 382.727 -123.796 380.089C-123.662 377.451 -122.985 375.029 -121.841 373.096C-120.697 371.163 -119.131 369.796 -117.322 369.15Z" fill="white"/>
</svg>
