<svg width="2048" height="117" viewBox="0 0 2048 117" fill="none" xmlns="http://www.w3.org/2000/svg">
<path d="M1033.53 59.5538C1035.59 63.7798 1033.68 68.2028 1028.15 71.9829C1022.63 75.763 1013.87 78.6368 1003.56 80.0585C993.244 81.4802 982.085 81.3507 972.2 79.6947C962.316 78.0387 954.395 74.9714 949.942 71.0756C946.985 74.037 941.871 76.5932 935.278 78.4051C928.685 80.2171 920.924 81.1993 913.024 81.2214C912.173 81.2237 911.321 81.226 910.486 81.193C906.996 85.4826 900.517 89.3126 891.823 92.2252C883.13 95.1378 872.59 97.0099 861.463 97.6175C850.337 98.2252 839.094 97.5427 829.08 95.6518C819.065 93.7609 810.702 90.7414 804.99 86.9544C799.512 88.0783 793.485 88.6793 787.395 88.7091C781.304 88.7389 775.32 88.1966 769.923 87.1259C764.526 86.0551 759.866 84.4859 756.32 82.5442C752.773 80.6025 750.438 78.3427 749.503 75.9464C742.794 78.2932 734.356 79.6829 725.565 79.8888C716.773 80.0947 708.147 79.1047 701.092 77.0803C696.51 79.265 690.567 80.9283 683.894 81.8934C677.22 82.8585 670.067 83.0894 663.193 82.5616C656.318 82.0338 649.98 80.7671 644.851 78.8958C639.723 77.0246 635.995 74.6189 634.064 71.9341C628.334 74.3832 621.079 76.1767 613.085 77.1203C605.092 78.0639 596.664 78.1218 588.714 77.2876C584.226 80.6871 577.221 83.4664 568.686 85.2337C560.151 87.0011 550.516 87.6675 541.14 87.1391C532.715 90.3735 521.614 92.2372 510.09 92.3521C498.566 92.4669 487.482 90.8243 479.089 87.7576C471.015 88.7214 462.491 88.7806 454.459 87.9285C446.428 87.0765 439.202 85.3465 433.579 82.9296C429.568 85.8526 423.668 88.3041 416.515 90.0202C409.362 91.7362 401.226 92.6518 392.983 92.6684L392.675 92.6692C388.149 97.7453 379.418 102.087 367.96 104.961C356.502 107.834 343.02 109.063 329.794 108.439C316.569 107.815 304.411 105.376 295.378 101.536C286.345 97.6955 280.992 92.6889 280.223 87.363C279.445 87.365 278.652 87.3672 277.859 87.3693C270.065 87.3947 262.419 86.6716 255.564 85.2606C248.709 83.8495 242.846 81.7918 238.467 79.2603C234.087 76.7288 231.32 73.7974 230.396 70.7124C229.473 67.6273 230.42 64.4786 233.16 61.5309C235.899 58.5832 240.35 55.9224 246.139 53.7721C251.927 51.6219 258.885 50.0449 266.426 49.1736C273.968 48.3024 281.874 48.1623 289.479 48.7652C297.085 49.368 304.169 50.6962 310.135 52.6382L534.784 52.036C543.391 50.8329 552.631 50.6773 561.317 51.5891C565.304 48.5606 571.301 46.0159 578.629 44.2427C585.957 42.4695 594.325 41.5385 602.785 41.5549C611.246 41.5713 619.463 42.5345 626.507 44.3356C633.551 46.1367 639.141 48.7038 642.646 51.7468L702.838 51.5854C709.448 49.7555 717.246 48.7633 725.184 48.742C733.122 48.7208 740.822 49.6714 747.248 51.4664L900.87 51.0545C909.759 49.7074 919.481 49.6813 928.236 50.9812L959.638 50.897C966.614 48.1472 975.597 46.3672 985.202 45.8314C985.149 45.4264 985.11 45.0214 985.131 44.6103C985.297 41.7063 987.488 38.8569 991.458 36.3834C995.427 33.9099 1001.02 31.9108 1007.6 30.6117C1014.17 29.3126 1021.48 28.7652 1028.69 29.0313C1035.9 29.2973 1042.73 30.3661 1048.4 32.1172C1054.07 33.8684 1058.36 36.2321 1060.79 38.9416C1063.22 41.6511 1063.69 44.5987 1062.14 47.4517C1060.6 50.3047 1057.1 52.9496 1052.04 55.088C1046.99 57.2264 1040.58 58.7732 1033.53 59.5538Z" fill="white"/>
<path d="M1033.53 59.5538C1035.59 63.7798 1033.68 68.2028 1028.15 71.9829C1022.63 75.763 1013.87 78.6368 1003.56 80.0585C993.244 81.4802 982.085 81.3507 972.2 79.6947C962.316 78.0387 954.395 74.9714 949.942 71.0756C946.985 74.037 941.871 76.5932 935.278 78.4051C928.685 80.2171 920.924 81.1993 913.024 81.2214C912.173 81.2237 911.321 81.226 910.486 81.193C906.996 85.4826 900.517 89.3126 891.823 92.2252C883.13 95.1378 872.59 97.0099 861.463 97.6175C850.337 98.2252 839.094 97.5427 829.08 95.6518C819.065 93.7609 810.702 90.7414 804.99 86.9544C799.512 88.0783 793.485 88.6793 787.395 88.7091C781.304 88.7389 775.32 88.1966 769.923 87.1259C764.526 86.0551 759.866 84.4859 756.32 82.5442C752.773 80.6025 750.438 78.3427 749.503 75.9464C742.794 78.2932 734.356 79.6829 725.565 79.8888C716.773 80.0947 708.147 79.1047 701.092 77.0803C696.51 79.265 690.567 80.9283 683.894 81.8934C677.22 82.8585 670.067 83.0894 663.193 82.5616C656.318 82.0338 649.98 80.7671 644.851 78.8958C639.723 77.0246 635.995 74.6189 634.064 71.9341C628.334 74.3832 621.079 76.1767 613.085 77.1203C605.092 78.0639 596.664 78.1218 588.714 77.2876C584.226 80.6871 577.221 83.4664 568.686 85.2337C560.151 87.0011 550.516 87.6675 541.14 87.1391C532.715 90.3735 521.614 92.2372 510.09 92.3521C498.566 92.4669 487.482 90.8243 479.089 87.7576C471.015 88.7214 462.491 88.7806 454.459 87.9285C446.428 87.0765 439.202 85.3465 433.579 82.9296C429.568 85.8526 423.668 88.3041 416.515 90.0202C409.362 91.7362 401.226 92.6518 392.983 92.6684L392.675 92.6692C388.149 97.7453 379.418 102.087 367.96 104.961C356.502 107.834 343.02 109.063 329.794 108.439C316.569 107.815 304.411 105.376 295.378 101.536C286.345 97.6955 280.992 92.6889 280.223 87.363C279.445 87.365 278.652 87.3672 277.859 87.3693C270.065 87.3947 262.419 86.6716 255.564 85.2606C248.709 83.8495 242.846 81.7918 238.467 79.2603C234.087 76.7288 231.32 73.7974 230.396 70.7124C229.473 67.6273 230.42 64.4786 233.16 61.5309C235.899 58.5832 240.35 55.9224 246.139 53.7721C251.927 51.6219 258.885 50.0449 266.426 49.1736C273.968 48.3024 281.874 48.1623 289.479 48.7652C297.085 49.368 304.169 50.6962 310.135 52.6382L534.784 52.036C543.391 50.8329 552.631 50.6773 561.317 51.5891C565.304 48.5606 571.301 46.0159 578.629 44.2427C585.957 42.4695 594.325 41.5385 602.785 41.5549C611.246 41.5713 619.463 42.5345 626.507 44.3356C633.551 46.1367 639.141 48.7038 642.646 51.7468L702.838 51.5854C709.448 49.7555 717.246 48.7633 725.184 48.742C733.122 48.7208 740.822 49.6714 747.248 51.4664L900.87 51.0545C909.759 49.7074 919.481 49.6813 928.236 50.9812L959.638 50.897C966.614 48.1472 975.597 46.3672 985.202 45.8314C985.149 45.4264 985.11 45.0214 985.131 44.6103C985.297 41.7063 987.488 38.8569 991.458 36.3834C995.427 33.9099 1001.02 31.9108 1007.6 30.6117C1014.17 29.3126 1021.48 28.7652 1028.69 29.0313C1035.9 29.2973 1042.73 30.3661 1048.4 32.1172C1054.07 33.8684 1058.36 36.2321 1060.79 38.9416C1063.22 41.6511 1063.69 44.5987 1062.14 47.4517C1060.6 50.3047 1057.1 52.9496 1052.04 55.088C1046.99 57.2264 1040.58 58.7732 1033.53 59.5538Z" fill="white"/>
<path d="M215.143 69.9741C212.082 73.4334 214.761 76.876 222.672 79.648C230.582 82.4201 243.173 84.3286 258.052 85.0109C272.932 85.6932 289.063 85.1019 303.383 83.3493C317.703 81.5966 329.214 78.8047 335.73 75.5039C339.943 77.7356 347.282 79.55 356.775 80.7062C366.267 81.8625 377.465 82.3061 388.882 81.9783C390.113 81.9428 391.344 81.9074 392.551 81.8446C397.509 85.1119 406.796 87.8821 419.302 89.824C431.808 91.7659 447.003 92.7975 463.073 92.7953C479.142 92.7931 495.405 91.7573 509.918 89.8116C524.431 87.866 536.58 85.0929 544.913 81.8238C552.807 82.4803 561.506 82.6958 570.308 82.4532C579.11 82.2106 587.771 81.5165 595.593 80.4268C603.416 79.337 610.182 77.8821 615.347 76.1789C620.513 74.4758 623.933 72.5719 625.334 70.6205C634.983 72.1981 647.15 72.937 659.853 72.7167C672.555 72.4963 685.043 71.3297 695.281 69.4072C701.859 70.9486 710.416 72.0147 720.041 72.4923C729.667 72.9698 740.001 72.8411 749.948 72.1196C759.894 71.3982 769.081 70.111 776.532 68.3948C783.982 66.6786 789.419 64.5975 792.264 62.3726C800.497 64.0745 810.946 65.1871 822.48 65.5898C834.015 65.9925 846.195 65.67 857.702 64.6572C864.12 67.1713 874.188 69.0807 886.488 70.1165C898.788 71.1522 912.7 71.2622 926.263 70.4308C938.375 72.641 954.382 73.6413 971.035 73.2289C987.689 72.8164 1003.74 71.0221 1015.93 68.2099C1027.59 68.6252 1039.9 68.2995 1051.53 67.2689C1063.16 66.2384 1073.63 64.543 1081.81 62.3701C1087.55 64.5252 1096.03 66.2216 1106.33 67.2769C1116.63 68.3322 1128.37 68.7063 1140.29 68.3591L1140.73 68.3462C1147.17 72.1953 1159.7 75.2753 1176.21 77.0651C1192.71 78.8549 1212.17 79.2448 1231.3 78.1688C1250.43 77.0927 1268.05 74.6168 1281.18 71.1599C1294.31 67.7029 1302.15 63.4771 1303.37 59.1973C1304.5 59.1649 1305.64 59.1319 1306.79 59.099C1318.05 58.7783 1329.12 57.8673 1339.06 56.4426C1348.99 55.0178 1357.51 53.1208 1363.89 50.9109C1370.27 48.7011 1374.33 46.2429 1375.73 43.7428C1377.13 41.2428 1375.82 38.7739 1371.92 36.5436C1368.02 34.3132 1361.64 32.3866 1353.32 30.9254C1345 29.4642 1334.97 28.5112 1324.09 28.1464C1313.21 27.7817 1301.78 28.0158 1290.78 28.8291C1279.77 29.6424 1269.51 31.0112 1260.84 32.8204L936.161 42.1659C923.747 41.5832 910.395 41.8633 897.821 42.9701C892.12 40.73 883.505 38.9635 872.949 37.8702C862.393 36.777 850.318 36.4007 838.089 36.7839C825.86 37.167 813.964 38.2943 803.747 40.0384C793.529 41.7824 785.397 44.0737 780.27 46.6531L693.275 49.1571C683.758 47.9873 672.508 47.5373 661.035 47.8675C649.562 48.1977 638.415 49.2924 629.09 51.0046L407.061 57.3954C394.241 56.7101 380.19 57.1145 367.51 58.5338L322.124 59.8401C312.097 57.9529 299.151 56.9266 285.279 56.9196C285.364 56.5943 285.428 56.2697 285.406 55.9429C285.225 53.6349 282.116 51.459 276.429 49.6605C270.742 47.8621 262.704 46.5128 253.222 45.7648C243.739 45.0168 233.19 44.8999 222.764 45.4273C212.338 45.9548 202.451 47.1055 194.217 48.7497C185.983 50.3939 179.732 52.4662 176.167 54.7326C172.602 56.9991 171.866 59.3696 174.042 61.5766C176.217 63.7836 181.219 65.7394 188.481 67.2232C195.744 68.707 204.978 69.6598 215.143 69.9741Z" fill="white"/>
<path d="M1025.55 55.1012C1024.28 60.5799 1026.03 66.22 1030.45 70.9504C1034.87 75.6808 1041.66 79.172 1049.53 80.7608C1057.4 82.3496 1065.8 81.9253 1073.14 79.5686C1080.48 77.2119 1086.24 73.087 1089.33 67.9772C1091.76 71.7148 1095.79 74.8818 1100.88 77.0582C1105.97 79.2346 1111.89 80.3175 1117.84 80.1634C1118.48 80.1467 1119.12 80.1299 1119.75 80.0682C1122.67 85.5005 1127.82 90.273 1134.57 93.8154C1141.32 97.3577 1149.39 99.5201 1157.81 100.044C1166.24 100.568 1174.67 99.4309 1182.08 96.7693C1189.5 94.1077 1195.6 90.0339 1199.65 85.0349C1203.85 86.3528 1208.44 86.986 1213.03 86.8835C1217.62 86.7811 1222.09 85.9458 1226.09 84.4451C1230.08 82.9443 1233.49 80.8198 1236.03 78.2425C1238.57 75.6651 1240.17 72.7069 1240.72 69.6056C1245.93 72.4666 1252.38 74.0576 1259.02 74.1191C1265.66 74.1806 1272.1 72.709 1277.28 69.9443C1280.88 72.6461 1285.47 74.6463 1290.56 75.7325C1295.66 76.8186 1301.07 76.9501 1306.21 76.113C1311.36 75.2758 1316.05 73.5013 1319.78 70.978C1323.52 68.4546 1326.17 65.2767 1327.44 61.7817C1331.92 64.7968 1337.51 66.934 1343.6 67.9621C1349.69 68.9901 1356.05 68.8697 1361.98 67.614C1365.59 71.8793 1371.06 75.2892 1377.61 77.3634C1384.17 79.4375 1391.47 80.0714 1398.5 79.1756C1405.07 83.1377 1413.57 85.2764 1422.26 85.1578C1430.95 85.0391 1439.19 82.672 1445.31 78.5367C1451.46 79.5888 1457.89 79.4679 1463.88 78.1873C1469.88 76.9067 1475.2 74.5163 1479.28 71.2802C1482.5 74.9442 1487.11 77.9585 1492.62 79.9986C1498.13 82.0388 1504.32 83.0274 1510.53 82.8583L1510.77 82.8523C1514.52 89.2713 1521.4 94.6499 1530.23 98.0782C1539.06 101.506 1549.3 102.774 1559.23 101.666C1569.15 100.559 1578.15 97.1437 1584.69 91.9994C1591.24 86.855 1594.93 80.2969 1595.15 73.4344C1595.74 73.4191 1596.33 73.4035 1596.93 73.3879C1602.81 73.2405 1608.52 72.1345 1613.59 70.1626C1618.66 68.1908 1622.94 65.4108 1626.07 62.0562C1629.2 58.7016 1631.08 54.8702 1631.57 50.884C1632.05 46.8978 1631.13 42.8732 1628.86 39.1481C1626.6 35.423 1623.06 32.1063 1618.55 29.4766C1614.04 26.8468 1608.69 24.9809 1602.95 24.0354C1597.21 23.09 1591.24 23.0926 1585.55 24.0432C1579.86 24.9937 1574.61 26.8644 1570.25 29.498L1400.91 33.9149C1394.34 32.5677 1387.36 32.5812 1380.88 33.9537C1377.67 30.1537 1372.98 27.0218 1367.33 24.9123C1361.69 22.8027 1355.32 21.7996 1348.95 22.0162C1342.57 22.2328 1336.44 23.6605 1331.26 26.138C1326.07 28.6155 1322.03 32.0439 1319.6 36.0356L1274.23 37.2191C1269.12 35.0201 1263.18 33.9251 1257.19 34.0812C1251.21 34.2373 1245.47 35.6369 1240.75 38.0923L1124.95 41.1127C1118.16 39.5867 1110.83 39.7778 1104.32 41.6507L1080.65 42.2682C1075.2 38.8953 1068.31 36.8153 1061.04 36.3487C1061.05 35.8269 1061.05 35.3055 1061.01 34.7776C1060.69 31.0494 1058.84 27.438 1055.68 24.3508C1052.52 21.2637 1048.17 18.8236 1043.13 17.3061C1038.08 15.7885 1032.54 15.2538 1027.12 15.7623C1021.71 16.2708 1016.64 17.8022 1012.48 20.1838C1008.33 22.5653 1005.25 25.7023 1003.61 29.2406C1001.96 32.779 1001.81 36.5779 1003.17 40.2089C1004.52 43.8398 1007.34 47.1582 1011.3 49.7896C1015.25 52.421 1020.19 54.2608 1025.55 55.1012Z" fill="white"/>
<path d="M1124.6 51.4218C1122.52 56.5121 1124.36 61.7618 1129.78 66.1736C1135.19 70.5855 1143.79 73.8523 1153.96 75.3535C1164.13 76.8546 1175.14 76.4857 1184.92 74.3167C1194.69 72.1477 1202.55 68.3297 1206.99 63.5879C1209.87 67.0706 1214.89 70.0276 1221.38 72.0667C1227.87 74.1058 1235.52 75.1307 1243.32 75.0055C1244.16 74.9919 1245 74.9783 1245.82 74.9228C1249.22 79.9827 1255.57 84.4359 1264.12 87.7502C1272.67 91.0645 1283.05 93.0996 1294.03 93.6122C1305 94.1249 1316.11 93.0935 1326.02 90.6412C1335.92 88.1889 1344.21 84.4196 1349.9 79.7837C1355.29 81.0219 1361.23 81.6245 1367.24 81.5432C1373.26 81.4619 1379.17 80.6989 1384.51 79.3156C1389.85 77.9322 1394.47 75.9672 1397.99 73.5785C1401.51 71.1897 1403.84 68.444 1404.79 65.562C1411.39 68.2381 1419.7 69.737 1428.38 69.8144C1437.05 69.8917 1445.58 68.5429 1452.57 65.988C1457.07 68.5111 1462.91 70.3849 1469.49 71.4103C1476.07 72.4358 1483.13 72.5744 1489.92 71.8117C1496.71 71.0489 1502.98 69.4132 1508.07 67.0783C1513.15 64.7434 1516.86 61.7965 1518.79 58.5506C1524.42 61.3678 1531.56 63.372 1539.44 64.3464C1547.32 65.3208 1555.64 65.2281 1563.5 64.0786C1567.89 68.0555 1574.77 71.2427 1583.18 73.1912C1591.58 75.1397 1601.09 75.7513 1610.35 74.9398C1618.63 78.6437 1629.57 80.6582 1640.94 80.5743C1652.31 80.4903 1663.27 78.3144 1671.59 74.4879C1679.55 75.4849 1687.97 75.3919 1695.9 74.2194C1703.84 73.0469 1711 70.8405 1716.57 67.8439C1720.5 71.2605 1726.3 74.0773 1733.34 75.991C1740.38 77.9047 1748.4 78.8428 1756.54 78.7044L1756.84 78.6995C1761.25 84.6795 1769.82 89.7015 1781.1 92.9159C1792.37 96.1304 1805.67 97.3401 1818.73 96.3403C1831.79 95.3405 1843.82 92.1927 1852.78 87.4293C1861.74 82.6658 1867.09 76.5792 1867.91 70.1989C1868.67 70.1865 1869.46 70.1738 1870.24 70.1611C1877.93 70.0419 1885.49 69.0308 1892.27 67.2128C1899.05 65.3948 1904.86 62.8229 1909.22 59.7132C1913.57 56.6035 1916.33 53.0468 1917.28 49.3418C1918.23 45.6368 1917.33 41.8918 1914.66 38.4213C1911.99 34.9507 1907.62 31.8561 1901.93 29.3972C1896.24 26.9383 1889.39 25.1871 1881.96 24.2905C1874.53 23.3939 1866.72 23.3783 1859.21 24.2448C1851.69 25.1114 1844.69 26.8348 1838.77 29.2704L1617.02 32.8628C1608.54 31.5902 1599.42 31.5815 1590.84 32.838C1586.93 29.2949 1581.04 26.3686 1573.83 24.39C1566.62 22.4113 1558.37 21.4592 1550.02 21.6412C1541.66 21.8233 1533.54 23.1322 1526.57 25.42C1519.59 27.7079 1514.05 30.8834 1510.55 34.5876L1451.14 35.5502C1444.63 33.49 1436.95 32.4538 1429.11 32.5807C1421.27 32.7077 1413.66 33.9917 1407.3 36.2604L1255.66 38.717C1246.9 37.2775 1237.3 37.4329 1228.65 39.1546L1197.65 39.6568C1190.79 36.5041 1181.95 34.5491 1172.47 34.0931C1172.53 33.608 1172.57 33.1232 1172.55 32.6323C1172.42 29.1647 1170.29 25.8011 1166.4 22.921C1162.51 20.0409 1157.02 17.7589 1150.54 16.3325C1144.06 14.9062 1136.85 14.3922 1129.73 14.8485C1122.61 15.3048 1115.86 16.7133 1110.24 18.9151C1104.63 21.1169 1100.36 24.0244 1097.93 27.3094C1095.5 30.5945 1095.01 34.1264 1096.5 37.5066C1098 40.8868 1101.42 43.9809 1106.38 46.4396C1111.35 48.8984 1117.66 50.624 1124.6 51.4218Z" fill="white"/>
<path d="M1789.54 49.4047C1787.46 54.495 1789.3 59.7447 1794.71 64.1565C1800.13 68.5684 1808.73 71.8352 1818.9 73.3364C1829.06 74.8376 1840.08 74.4686 1849.86 72.2996C1859.63 70.1306 1867.49 66.3126 1871.93 61.5708C1874.81 65.0535 1879.83 68.0105 1886.32 70.0496C1892.81 72.0887 1900.46 73.1136 1908.25 72.9884C1909.09 72.9748 1909.93 72.9612 1910.76 72.9057C1914.16 77.9656 1920.51 82.4188 1929.06 85.7331C1937.6 89.0474 1947.99 91.0825 1958.96 91.5952C1969.94 92.1078 1981.05 91.0764 1990.95 88.6241C2000.86 86.1719 2009.15 82.4025 2014.83 77.7666C2020.23 79.0048 2026.17 79.6074 2032.18 79.5261C2038.19 79.4448 2044.11 78.6818 2049.45 77.2985C2054.79 75.9152 2059.4 73.9501 2062.93 71.5614C2066.45 69.1726 2068.78 66.4269 2069.73 63.5449C2076.33 66.221 2084.64 67.7199 2093.32 67.7973C2101.99 67.8747 2110.52 66.5259 2117.51 63.9709C2122 66.494 2127.85 68.3679 2134.43 69.3933C2141 70.4187 2148.06 70.5573 2154.86 69.7946C2161.65 69.0318 2167.92 67.3961 2173 65.0612C2178.09 62.7263 2181.79 59.7794 2183.73 56.5336C2189.36 59.3507 2196.5 61.3549 2204.38 62.3293C2212.26 63.3037 2220.58 63.211 2228.44 62.0615C2232.83 66.0384 2239.71 69.2256 2248.12 71.1742C2256.52 73.1227 2266.02 73.7342 2275.29 72.9227C2283.57 76.6266 2294.5 78.6411 2305.88 78.5572C2317.25 78.4733 2328.21 76.2973 2336.53 72.4708C2344.49 73.4678 2352.9 73.3749 2360.84 72.2024C2368.78 71.0299 2375.93 68.8234 2381.51 65.8268C2385.44 69.2434 2391.23 72.0602 2398.27 73.9739C2405.32 75.8876 2413.34 76.8257 2421.47 76.6873L2421.78 76.6824C2426.19 82.6624 2434.76 87.6844 2446.03 90.8989C2457.31 94.1133 2470.61 95.323 2483.67 94.3232C2496.73 93.3234 2508.76 90.1756 2517.72 85.4122C2526.68 80.6487 2532.02 74.5621 2532.84 68.1818C2533.61 68.1694 2534.39 68.1567 2535.18 68.144C2542.87 68.0248 2550.43 67.0138 2557.21 65.1957C2563.99 63.3777 2569.8 60.8058 2574.15 57.6961C2578.51 54.5864 2581.27 51.0297 2582.22 47.3247C2583.17 43.6197 2582.27 39.8747 2579.6 36.4042C2576.92 32.9337 2572.56 29.839 2566.87 27.3801C2561.18 24.9212 2554.33 23.17 2546.9 22.2734C2539.46 21.3769 2531.66 21.3612 2524.15 22.2278C2516.63 23.0943 2509.62 24.8177 2503.71 27.2533L2281.96 30.8457C2273.48 29.5731 2264.36 29.5644 2255.77 30.8209C2251.87 27.2778 2245.98 24.3515 2238.77 22.3729C2231.55 20.3942 2223.31 19.4421 2214.95 19.6241C2206.6 19.8062 2198.48 21.1151 2191.5 23.4029C2184.53 25.6908 2178.98 28.8663 2175.49 32.5705L2116.07 33.5331C2109.57 31.4729 2101.88 30.4367 2094.05 30.5636C2086.21 30.6906 2078.6 31.9746 2072.24 34.2433L1920.6 36.6999C1911.84 35.2604 1902.24 35.4158 1893.58 37.1375L1862.58 37.6397C1855.73 34.487 1846.88 32.532 1837.41 32.076C1837.47 31.5909 1837.51 31.1061 1837.49 30.6152C1837.36 27.1476 1835.23 23.784 1831.34 20.9039C1827.45 18.0238 1821.96 15.7418 1815.48 14.3155C1809 12.8891 1801.79 12.3751 1794.67 12.8314C1787.55 13.2877 1780.8 14.6963 1775.18 16.8981C1769.56 19.0999 1765.3 22.0073 1762.87 25.2924C1760.44 28.5774 1759.95 32.1093 1761.44 35.4895C1762.93 38.8697 1766.36 41.9638 1771.32 44.4225C1776.29 46.8813 1782.6 48.6069 1789.54 49.4047Z" fill="white"/>
<path d="M-144.857 77.7524C-147.918 81.2117 -145.239 84.6543 -137.328 87.4264C-129.418 90.1984 -116.827 92.1069 -101.948 92.7892C-87.0684 93.4715 -70.9368 92.8802 -56.6167 91.1276C-42.2967 89.375 -30.7858 86.5831 -24.2704 83.2822C-20.0574 85.514 -12.718 87.3283 -3.22531 88.4846C6.26737 89.6408 17.4648 90.0844 28.8823 89.7566C30.113 89.7212 31.3436 89.6857 32.5512 89.6229C37.509 92.8902 46.7959 95.6604 59.3018 97.6023C71.8076 99.5443 87.0034 100.576 103.073 100.574C119.142 100.571 135.405 99.5356 149.918 97.59C164.431 95.6444 176.58 92.8712 184.913 89.6021C192.807 90.2586 201.506 90.4742 210.308 90.2315C219.11 89.9889 227.771 89.2948 235.593 88.2051C243.416 87.1153 250.182 85.6604 255.347 83.9572C260.513 82.2541 263.933 80.3502 265.334 78.3988C274.983 79.9764 287.15 80.7153 299.853 80.495C312.555 80.2746 325.043 79.1081 335.281 77.1855C341.859 78.7269 350.416 79.793 360.041 80.2706C369.667 80.7482 380.001 80.6194 389.948 79.8979C399.894 79.1765 409.081 77.8893 416.532 76.1731C423.982 74.4569 429.419 72.3758 432.264 70.1509C440.497 71.8529 450.946 72.9654 462.48 73.3681C474.015 73.7708 486.195 73.4483 497.702 72.4355C504.12 74.9496 514.188 76.859 526.488 77.8948C538.788 78.9306 552.7 79.0405 566.263 78.2091C578.375 80.4193 594.382 81.4197 611.035 81.0072C627.689 80.5947 643.742 78.8004 655.935 75.9883C667.586 76.4035 679.905 76.0778 691.53 75.0473C703.156 74.0167 713.635 72.3213 721.81 70.1485C727.549 72.3035 736.026 74 746.33 75.0552C756.634 76.1105 768.375 76.4847 780.288 76.1374L780.734 76.1246C787.172 79.9736 799.703 83.0536 816.205 84.8434C832.708 86.6333 852.169 87.0231 871.297 85.9471C890.426 84.8711 908.047 82.3952 921.181 78.9382C934.314 75.4813 942.154 71.2554 943.373 66.9756C944.497 66.9432 945.643 66.9103 946.789 66.8773C958.055 66.5566 969.12 65.6457 979.056 64.2209C988.992 62.7961 997.508 60.8991 1003.89 58.6892C1010.27 56.4794 1014.33 54.0212 1015.73 51.5212C1017.13 49.0211 1015.82 46.5522 1011.92 44.3219C1008.02 42.0916 1001.64 40.1649 993.318 38.7037C984.995 37.2425 974.971 36.2895 964.089 35.9248C953.206 35.56 941.783 35.7941 930.778 36.6074C919.773 37.4207 909.507 38.7895 900.844 40.5987L576.161 49.9443C563.747 49.3616 550.395 49.6416 537.821 50.7485C532.12 48.5083 523.505 46.7418 512.949 45.6486C502.393 44.5554 490.318 44.1791 478.089 44.5622C465.86 44.9454 453.964 46.0727 443.747 47.8167C433.529 49.5608 425.397 51.852 420.27 54.4314L333.275 56.9354C323.758 55.7656 312.508 55.3156 301.035 55.6458C289.562 55.9761 278.415 57.0707 269.09 58.7829L47.0611 65.1737C34.2411 64.4884 20.1902 64.8928 7.51013 66.3121L-37.8759 67.6185C-47.9027 65.7312 -60.8494 64.705 -74.7206 64.6979C-74.6359 64.3727 -74.5724 64.0481 -74.5941 63.7212C-74.775 61.4133 -77.8844 59.2373 -83.5712 57.4388C-89.2581 55.6404 -97.2961 54.2911 -106.778 53.5431C-116.261 52.7951 -126.81 52.6782 -137.236 53.2057C-147.662 53.7331 -157.549 54.8838 -165.783 56.528C-174.017 58.1722 -180.268 60.2445 -183.833 62.5109C-187.398 64.7774 -188.134 67.1479 -185.958 69.3549C-183.783 71.562 -178.781 73.5177 -171.519 75.0015C-164.256 76.4853 -155.022 77.4381 -144.857 77.7524Z" fill="white"/>
<path d="M-13 11H2056V58H1021.5H504.25H245.625L114.5 76.5H-13V58V11Z" fill="white"/>
</svg>
