<?xml version="1.0" encoding="utf-8"?>
<!-- Generator: Adobe Illustrator 19.0.0, SVG Export Plug-In . SVG Version: 6.00 Build 0)  -->
<svg version="1.1" id="Layer_1" xmlns="http://www.w3.org/2000/svg" xmlns:xlink="http://www.w3.org/1999/xlink" x="0px" y="0px"
	 viewBox="0 0 800 200" style="enable-background:new 0 0 800 200;" xml:space="preserve">
<style type="text/css">
	.st0{clip-path:url(#SVGID_2_);}
	.st1{fill:#00A6D2;stroke:#FFFFFF;stroke-width:1.000000e-002;}
	.st2{fill:#00BAE1;stroke:#FFFFFF;stroke-width:1.000000e-002;}
	.st3{fill:#5FC7E4;stroke:#FFFFFF;stroke-width:1.000000e-002;}
	.st4{fill:#4FC6DC;}
	.st5{fill:#57C7D9;}
	.st6{fill:#36C1D4;}
	.st7{fill:#6FCCDB;}
	.st8{fill:#48C5DA;}
</style>
<g>
	<defs>
		<path id="SVGID_1_" d="M153,101.9c0,19.1-7.1,37-26.2,37c-18.7,0-25.9-17.4-25.9-37V30.9L60.4,85v16.9c0,39,19.3,72.9,66.4,72.9
			c45.7,0,66.6-31.8,66.6-72.9V26.1H153V101.9z M315.5,101l-59.2-74.9h-31.6v147.4h40.5V101l58.5,72.4H356V26.1h-40.5V101z
			 M608.8,122.6L580,26.1h-42.8L592,173.5h33.6l54.2-147.4h-42.5L608.8,122.6z M457.1,25.3c-41.3,0-71.2,35.3-71.2,74.3
			c0,38,28.2,75.1,70.4,75.1c41.5,0,71-35.7,71-74.3C527.2,62.8,499.4,25.3,457.1,25.3z M456.7,138.8c-20.1,0-29.7-19.1-29.7-38.8
			c0-19.3,9.1-38.8,29.5-38.8c19.9,0,29.7,18.5,29.7,38.4C486.1,118.9,477.2,138.8,456.7,138.8z M699.1,26.1v127.6l40.5-54.3V26.1
			H699.1z"/>
	</defs>
	<clipPath id="SVGID_2_">
		<use xlink:href="#SVGID_1_"  style="overflow:visible;"/>
	</clipPath>
	<g class="st0">
		<path class="st1" d="M42.5-59.2H-4.1"/>
		<path class="st1" d="M42.5-59.2"/>
		<path class="st1" d="M89.1-59.2H42.5"/>
		<path class="st2" d="M42.5-59.2h46.6L65.8-18.9L42.5-59.2z"/>
		<path class="st1" d="M42.5-59.2l23.3,40.3H19.2L42.5-59.2z"/>
		<path class="st2" d="M42.5-59.2L19.2-18.9L-4.1-59.2H42.5z"/>
		<path class="st1" d="M182.2-59.2h-46.6"/>
		<path class="st1" d="M182.2-59.2"/>
		<path class="st1" d="M228.8-59.2h-46.6"/>
		<path class="st2" d="M182.2-59.2h46.6l-23.3,40.3L182.2-59.2z"/>
		<path class="st1" d="M182.2-59.2l23.3,40.3H159L182.2-59.2z"/>
		<path class="st2" d="M182.2-59.2L159-18.9l-23.3-40.3H182.2z"/>
		<path class="st1" d="M322-59.2h-46.6"/>
		<path class="st1" d="M322-59.2"/>
		<path class="st1" d="M368.6-59.2H322"/>
		<path class="st2" d="M322-59.2h46.6l-23.3,40.3L322-59.2z"/>
		<path class="st1" d="M322-59.2l23.3,40.3h-46.6L322-59.2z"/>
		<path class="st2" d="M322-59.2l-23.3,40.3l-23.3-40.3H322z"/>
		<path class="st1" d="M461.7-59.2h-46.6"/>
		<path class="st1" d="M461.7-59.2"/>
		<path class="st1" d="M508.3-59.2h-46.6"/>
		<path class="st2" d="M461.7-59.2h46.6L485-18.9L461.7-59.2z"/>
		<path class="st1" d="M461.7-59.2L485-18.9h-46.6L461.7-59.2z"/>
		<path class="st2" d="M461.7-59.2l-23.3,40.3l-23.3-40.3H461.7z"/>
		<path class="st1" d="M601.5-59.2h-46.6"/>
		<path class="st1" d="M601.5-59.2"/>
		<path class="st1" d="M648.1-59.2h-46.6"/>
		<path class="st2" d="M601.5-59.2h46.6l-23.3,40.3L601.5-59.2z"/>
		<path class="st1" d="M601.5-59.2l23.3,40.3h-46.6L601.5-59.2z"/>
		<path class="st2" d="M601.5-59.2l-23.3,40.3l-23.3-40.3H601.5z"/>
		<path class="st1" d="M741.3-59.2h-46.6"/>
		<path class="st1" d="M741.3-59.2"/>
		<path class="st1" d="M787.8-59.2h-46.6"/>
		<path class="st2" d="M741.3-59.2h46.6l-23.3,40.3L741.3-59.2z"/>
		<path class="st1" d="M741.3-59.2l23.3,40.3H718L741.3-59.2z"/>
		<path class="st2" d="M741.3-59.2L718-18.9l-23.3-40.3H741.3z"/>
		<path class="st1" d="M112.4-18.9H65.8l23.3-40.3L112.4-18.9z"/>
		<path class="st2" d="M112.4-18.9L89.1-59.2h46.6L112.4-18.9z"/>
		<path class="st1" d="M112.4-18.9l23.3-40.3L159-18.9H112.4z"/>
		<path class="st2" d="M112.4-18.9H159l-23.3,40.3L112.4-18.9z"/>
		<path class="st1" d="M112.4-18.9l23.3,40.3H89.1L112.4-18.9z"/>
		<path class="st2" d="M112.4-18.9L89.1,21.5L65.8-18.9H112.4z"/>
		<path class="st1" d="M252.1-18.9h-46.6l23.3-40.3L252.1-18.9z"/>
		<path class="st2" d="M252.1-18.9l-23.3-40.3h46.6L252.1-18.9z"/>
		<path class="st1" d="M252.1-18.9l23.3-40.3l23.3,40.3H252.1z"/>
		<path class="st2" d="M252.1-18.9h46.6l-23.3,40.3L252.1-18.9z"/>
		<path class="st1" d="M252.1-18.9l23.3,40.3h-46.6L252.1-18.9z"/>
		<path class="st2" d="M252.1-18.9l-23.3,40.3l-23.3-40.3H252.1z"/>
		<path class="st1" d="M391.9-18.9h-46.6l23.3-40.3L391.9-18.9z"/>
		<path class="st2" d="M391.9-18.9l-23.3-40.3h46.6L391.9-18.9z"/>
		<path class="st1" d="M391.9-18.9l23.3-40.3l23.3,40.3H391.9z"/>
		<path class="st2" d="M391.9-18.9h46.6l-23.3,40.3L391.9-18.9z"/>
		<path class="st1" d="M391.9-18.9l23.3,40.3h-46.6L391.9-18.9z"/>
		<path class="st2" d="M391.9-18.9l-23.3,40.3l-23.3-40.3H391.9z"/>
		<path class="st1" d="M531.6-18.9H485l23.3-40.3L531.6-18.9z"/>
		<path class="st2" d="M531.6-18.9l-23.3-40.3h46.6L531.6-18.9z"/>
		<path class="st1" d="M531.6-18.9l23.3-40.3l23.3,40.3H531.6z"/>
		<path class="st2" d="M531.6-18.9h46.6l-23.3,40.3L531.6-18.9z"/>
		<path class="st1" d="M531.6-18.9l23.3,40.3h-46.6L531.6-18.9z"/>
		<path class="st2" d="M531.6-18.9l-23.3,40.3L485-18.9H531.6z"/>
		<path class="st1" d="M671.4-18.9h-46.6l23.3-40.3L671.4-18.9z"/>
		<path class="st2" d="M671.4-18.9l-23.3-40.3h46.6L671.4-18.9z"/>
		<path class="st1" d="M671.4-18.9l23.3-40.3L718-18.9H671.4z"/>
		<path class="st2" d="M671.4-18.9H718l-23.3,40.3L671.4-18.9z"/>
		<path class="st1" d="M671.4-18.9l23.3,40.3h-46.6L671.4-18.9z"/>
		<path class="st2" d="M671.4-18.9l-23.3,40.3l-23.3-40.3H671.4z"/>
		<path class="st1" d="M42.5,21.5H-4.1l23.3-40.3L42.5,21.5z"/>
		<path class="st2" d="M42.5,21.5L19.2-18.9h46.6L42.5,21.5z"/>
		<path class="st1" d="M42.5,21.5l23.3-40.3l23.3,40.3H42.5z"/>
		<path class="st3" d="M42.5,21.5h46.6L65.8,61.8L42.5,21.5z"/>
		<path class="st1" d="M42.5,21.5l23.3,40.3H19.2L42.5,21.5z"/>
		<path class="st3" d="M42.5,21.5L19.2,61.8L-4.1,21.5H42.5z"/>
		<path class="st1" d="M182.2,21.5h-46.6L159-18.9L182.2,21.5z"/>
		<path class="st2" d="M182.2,21.5L159-18.9h46.6L182.2,21.5z"/>
		<path class="st1" d="M182.2,21.5l23.3-40.3l23.3,40.3H182.2z"/>
		<path class="st3" d="M182.2,21.5h46.6l-23.3,40.3L182.2,21.5z"/>
		<path class="st1" d="M182.2,21.5l23.3,40.3H159L182.2,21.5z"/>
		<path class="st3" d="M182.2,21.5L159,61.8l-23.3-40.3H182.2z"/>
		<path class="st1" d="M322,21.5h-46.6l23.3-40.3L322,21.5z"/>
		<path class="st2" d="M322,21.5l-23.3-40.3h46.6L322,21.5z"/>
		<path class="st1" d="M322,21.5l23.3-40.3l23.3,40.3H322z"/>
		<path class="st3" d="M322,21.5h46.6l-23.3,40.3L322,21.5z"/>
		<path class="st1" d="M322,21.5l23.3,40.3h-46.6L322,21.5z"/>
		<path class="st3" d="M322,21.5l-23.3,40.3l-23.3-40.3H322z"/>
		<path class="st1" d="M461.7,21.5h-46.6l23.3-40.3L461.7,21.5z"/>
		<path class="st2" d="M461.7,21.5l-23.3-40.3H485L461.7,21.5z"/>
		<path class="st1" d="M461.7,21.5L485-18.9l23.3,40.3H461.7z"/>
		<path class="st3" d="M461.7,21.5h46.6L485,61.8L461.7,21.5z"/>
		<path class="st1" d="M461.7,21.5L485,61.8h-46.6L461.7,21.5z"/>
		<path class="st3" d="M461.7,21.5l-23.3,40.3l-23.3-40.3H461.7z"/>
		<path class="st1" d="M601.5,21.5h-46.6l23.3-40.3L601.5,21.5z"/>
		<path class="st2" d="M601.5,21.5l-23.3-40.3h46.6L601.5,21.5z"/>
		<path class="st1" d="M601.5,21.5l23.3-40.3l23.3,40.3H601.5z"/>
		<path class="st3" d="M601.5,21.5h46.6l-23.3,40.3L601.5,21.5z"/>
		<path class="st1" d="M601.5,21.5l23.3,40.3h-46.6L601.5,21.5z"/>
		<path class="st3" d="M601.5,21.5l-23.3,40.3l-23.3-40.3H601.5z"/>
		<path class="st1" d="M741.3,21.5h-46.6L718-18.9L741.3,21.5z"/>
		<path class="st2" d="M741.3,21.5L718-18.9h46.6L741.3,21.5z"/>
		<path class="st1" d="M741.3,21.5l23.3-40.3l23.3,40.3H741.3z"/>
		<path class="st3" d="M741.3,21.5h46.6l-23.3,40.3L741.3,21.5z"/>
		<path class="st1" d="M741.3,21.5l23.3,40.3H718L741.3,21.5z"/>
		<path class="st3" d="M741.3,21.5L718,61.8l-23.3-40.3H741.3z"/>
		<path class="st1" d="M112.4,61.8H65.8l23.3-40.3L112.4,61.8z"/>
		<path class="st3" d="M112.4,61.8L89.1,21.5h46.6L112.4,61.8z"/>
		<path class="st1" d="M112.4,61.8l23.3-40.3L159,61.8H112.4z"/>
		<path class="st4" d="M112.4,61.8H159l-23.3,40.3L112.4,61.8z"/>
		<path class="st5" d="M112.4,61.8l23.3,40.3H89.1L112.4,61.8z"/>
		<path class="st6" d="M112.4,61.8l-23.3,40.3L65.8,61.8H112.4z"/>
		<path class="st1" d="M252.1,61.8h-46.6l23.3-40.3L252.1,61.8z"/>
		<path class="st3" d="M252.1,61.8l-23.3-40.3h46.6L252.1,61.8z"/>
		<path class="st1" d="M252.1,61.8l23.3-40.3l23.3,40.3H252.1z"/>
		<path class="st7" d="M252.1,61.8h46.6l-23.3,40.3L252.1,61.8z"/>
		<path class="st6" d="M252.1,61.8l23.3,40.3h-46.6L252.1,61.8z"/>
		<path class="st7" d="M252.1,61.8l-23.3,40.3l-23.3-40.3H252.1z"/>
		<path class="st1" d="M391.9,61.8h-46.6l23.3-40.3L391.9,61.8z"/>
		<path class="st3" d="M391.9,61.8l-23.3-40.3h46.6L391.9,61.8z"/>
		<path class="st1" d="M391.9,61.8l23.3-40.3l23.3,40.3H391.9z"/>
		<path class="st7" d="M391.9,61.8h46.6l-23.3,40.3L391.9,61.8z"/>
		<path class="st6" d="M391.9,61.8l23.3,40.3h-46.6L391.9,61.8z"/>
		<path class="st7" d="M391.9,61.8l-23.3,40.3l-23.3-40.3H391.9z"/>
		<path class="st1" d="M531.6,61.8H485l23.3-40.3L531.6,61.8z"/>
		<path class="st3" d="M531.6,61.8l-23.3-40.3h46.6L531.6,61.8z"/>
		<path class="st1" d="M531.6,61.8l23.3-40.3l23.3,40.3H531.6z"/>
		<path class="st7" d="M531.6,61.8h46.6l-23.3,40.3L531.6,61.8z"/>
		<path class="st6" d="M531.6,61.8l23.3,40.3h-46.6L531.6,61.8z"/>
		<path class="st7" d="M531.6,61.8l-23.3,40.3L485,61.8H531.6z"/>
		<path class="st1" d="M671.4,61.8h-46.6l23.3-40.3L671.4,61.8z"/>
		<path class="st3" d="M671.4,61.8l-23.3-40.3h46.6L671.4,61.8z"/>
		<path class="st1" d="M671.4,61.8l23.3-40.3L718,61.8H671.4z"/>
		<path class="st7" d="M671.4,61.8H718l-23.3,40.3L671.4,61.8z"/>
		<path class="st6" d="M671.4,61.8l23.3,40.3h-46.6L671.4,61.8z"/>
		<path class="st7" d="M671.4,61.8l-23.3,40.3l-23.3-40.3H671.4z"/>
		<path class="st6" d="M42.5,102.1H-4.1l23.3-40.3L42.5,102.1z"/>
		<path class="st5" d="M42.5,102.1L19.2,61.8h46.6L42.5,102.1z"/>
		<path class="st4" d="M42.5,102.1l23.3-40.3l23.3,40.3H42.5z"/>
		<path class="st7" d="M42.5,102.1h46.6l-23.3,40.3L42.5,102.1z"/>
		<path class="st4" d="M42.5,102.1l23.3,40.3H19.2L42.5,102.1z"/>
		<path class="st7" d="M42.5,102.1l-23.3,40.3l-23.3-40.3H42.5z"/>
		<path class="st8" d="M182.2,102.1h-46.6L159,61.8L182.2,102.1z"/>
		<path class="st7" d="M182.2,102.1L159,61.8h46.6L182.2,102.1z"/>
		<path class="st6" d="M182.2,102.1l23.3-40.3l23.3,40.3H182.2z"/>
		<path class="st7" d="M182.2,102.1h46.6l-23.3,40.3L182.2,102.1z"/>
		<path class="st6" d="M182.2,102.1l23.3,40.3H159L182.2,102.1z"/>
		<path class="st5" d="M182.2,102.1L159,142.5l-23.3-40.3H182.2z"/>
		<path class="st6" d="M322,102.1h-46.6l23.3-40.3L322,102.1z"/>
		<path class="st7" d="M322,102.1l-23.3-40.3h46.6L322,102.1z"/>
		<path class="st6" d="M322,102.1l23.3-40.3l23.3,40.3H322z"/>
		<path class="st7" d="M322,102.1h46.6l-23.3,40.3L322,102.1z"/>
		<path class="st6" d="M322,102.1l23.3,40.3h-46.6L322,102.1z"/>
		<path class="st7" d="M322,102.1l-23.3,40.3l-23.3-40.3H322z"/>
		<path class="st6" d="M461.7,102.1h-46.6l23.3-40.3L461.7,102.1z"/>
		<path class="st7" d="M461.7,102.1l-23.3-40.3H485L461.7,102.1z"/>
		<path class="st6" d="M461.7,102.1L485,61.8l23.3,40.3H461.7z"/>
		<path class="st7" d="M461.7,102.1h46.6L485,142.5L461.7,102.1z"/>
		<path class="st6" d="M461.7,102.1l23.3,40.3h-46.6L461.7,102.1z"/>
		<path class="st7" d="M461.7,102.1l-23.3,40.3l-23.3-40.3H461.7z"/>
		<path class="st6" d="M601.5,102.1h-46.6l23.3-40.3L601.5,102.1z"/>
		<path class="st7" d="M601.5,102.1l-23.3-40.3h46.6L601.5,102.1z"/>
		<path class="st6" d="M601.5,102.1l23.3-40.3l23.3,40.3H601.5z"/>
		<path class="st7" d="M601.5,102.1h46.6l-23.3,40.3L601.5,102.1z"/>
		<path class="st6" d="M601.5,102.1l23.3,40.3h-46.6L601.5,102.1z"/>
		<path class="st7" d="M601.5,102.1l-23.3,40.3l-23.3-40.3H601.5z"/>
		<path class="st6" d="M741.3,102.1h-46.6L718,61.8L741.3,102.1z"/>
		<path class="st7" d="M741.3,102.1L718,61.8h46.6L741.3,102.1z"/>
		<path class="st6" d="M741.3,102.1l23.3-40.3l23.3,40.3H741.3z"/>
		<path class="st7" d="M741.3,102.1h46.6l-23.3,40.3L741.3,102.1z"/>
		<path class="st6" d="M741.3,102.1l23.3,40.3H718L741.3,102.1z"/>
		<path class="st7" d="M741.3,102.1L718,142.5l-23.3-40.3H741.3z"/>
		<path class="st4" d="M112.4,142.5H65.8l23.3-40.3L112.4,142.5z"/>
		<path class="st6" d="M112.4,142.5l-23.3-40.3h46.6L112.4,142.5z"/>
		<path class="st7" d="M112.4,142.5l23.3-40.3l23.3,40.3H112.4z"/>
		<path class="st6" d="M252.1,142.5h-46.6l23.3-40.3L252.1,142.5z"/>
		<path class="st7" d="M252.1,142.5l-23.3-40.3h46.6L252.1,142.5z"/>
		<path class="st6" d="M252.1,142.5l23.3-40.3l23.3,40.3H252.1z"/>
		<path class="st6" d="M391.9,142.5h-46.6l23.3-40.3L391.9,142.5z"/>
		<path class="st7" d="M391.9,142.5l-23.3-40.3h46.6L391.9,142.5z"/>
		<path class="st6" d="M391.9,142.5l23.3-40.3l23.3,40.3H391.9z"/>
		<path class="st6" d="M531.6,142.5H485l23.3-40.3L531.6,142.5z"/>
		<path class="st7" d="M531.6,142.5l-23.3-40.3h46.6L531.6,142.5z"/>
		<path class="st6" d="M531.6,142.5l23.3-40.3l23.3,40.3H531.6z"/>
		<path class="st6" d="M671.4,142.5h-46.6l23.3-40.3L671.4,142.5z"/>
		<path class="st7" d="M671.4,142.5l-23.3-40.3h46.6L671.4,142.5z"/>
		<path class="st6" d="M671.4,142.5l23.3-40.3l23.3,40.3H671.4z"/>
		<path class="st4" d="M112.4,142.5H159l-23.3,40.3L112.4,142.5z"/>
		<path class="st5" d="M112.4,142.5l23.3,40.3H89.1L112.4,142.5z"/>
		<path class="st6" d="M112.4,142.5l-23.3,40.3l-23.3-40.3H112.4z"/>
		<path class="st7" d="M252.1,142.5h46.6l-23.3,40.3L252.1,142.5z"/>
		<path class="st6" d="M252.1,142.5l23.3,40.3h-46.6L252.1,142.5z"/>
		<path class="st7" d="M252.1,142.5l-23.3,40.3l-23.3-40.3H252.1z"/>
		<path class="st7" d="M391.9,142.5h46.6l-23.3,40.3L391.9,142.5z"/>
		<path class="st6" d="M391.9,142.5l23.3,40.3h-46.6L391.9,142.5z"/>
		<path class="st7" d="M391.9,142.5l-23.3,40.3l-23.3-40.3H391.9z"/>
		<path class="st7" d="M531.6,142.5h46.6l-23.3,40.3L531.6,142.5z"/>
		<path class="st6" d="M531.6,142.5l23.3,40.3h-46.6L531.6,142.5z"/>
		<path class="st7" d="M531.6,142.5l-23.3,40.3L485,142.5H531.6z"/>
		<path class="st7" d="M671.4,142.5H718l-23.3,40.3L671.4,142.5z"/>
		<path class="st6" d="M671.4,142.5l23.3,40.3h-46.6L671.4,142.5z"/>
		<path class="st7" d="M671.4,142.5l-23.3,40.3l-23.3-40.3H671.4z"/>
		<path class="st6" d="M42.5,182.9H-4.1l23.3-40.3L42.5,182.9z"/>
		<path class="st5" d="M42.5,182.9l-23.3-40.3h46.6L42.5,182.9z"/>
		<path class="st4" d="M42.5,182.9l23.3-40.3l23.3,40.3H42.5z"/>
		<path class="st7" d="M42.5,182.9h46.6l-23.3,40.3L42.5,182.9z"/>
		<path class="st4" d="M42.5,182.9l23.3,40.3H19.2L42.5,182.9z"/>
		<path class="st7" d="M42.5,182.9l-23.3,40.3l-23.3-40.3H42.5z"/>
		<path class="st8" d="M182.2,182.9h-46.6l23.3-40.3L182.2,182.9z"/>
		<path class="st7" d="M182.2,182.9L159,142.5h46.6L182.2,182.9z"/>
		<path class="st6" d="M182.2,182.9l23.3-40.3l23.3,40.3H182.2z"/>
		<path class="st7" d="M182.2,182.9h46.6l-23.3,40.3L182.2,182.9z"/>
		<path class="st6" d="M182.2,182.9l23.3,40.3H159L182.2,182.9z"/>
		<path class="st5" d="M182.2,182.9L159,223.2l-23.3-40.3H182.2z"/>
		<path class="st6" d="M322,182.9h-46.6l23.3-40.3L322,182.9z"/>
		<path class="st7" d="M322,182.9l-23.3-40.3h46.6L322,182.9z"/>
		<path class="st6" d="M322,182.9l23.3-40.3l23.3,40.3H322z"/>
		<path class="st7" d="M322,182.9h46.6l-23.3,40.3L322,182.9z"/>
		<path class="st6" d="M322,182.9l23.3,40.3h-46.6L322,182.9z"/>
		<path class="st7" d="M322,182.9l-23.3,40.3l-23.3-40.3H322z"/>
		<path class="st6" d="M461.7,182.9h-46.6l23.3-40.3L461.7,182.9z"/>
		<path class="st7" d="M461.7,182.9l-23.3-40.3H485L461.7,182.9z"/>
		<path class="st6" d="M461.7,182.9l23.3-40.3l23.3,40.3H461.7z"/>
		<path class="st7" d="M461.7,182.9h46.6L485,223.2L461.7,182.9z"/>
		<path class="st6" d="M461.7,182.9l23.3,40.3h-46.6L461.7,182.9z"/>
		<path class="st7" d="M461.7,182.9l-23.3,40.3l-23.3-40.3H461.7z"/>
		<path class="st6" d="M601.5,182.9h-46.6l23.3-40.3L601.5,182.9z"/>
		<path class="st7" d="M601.5,182.9l-23.3-40.3h46.6L601.5,182.9z"/>
		<path class="st6" d="M601.5,182.9l23.3-40.3l23.3,40.3H601.5z"/>
		<path class="st7" d="M601.5,182.9h46.6l-23.3,40.3L601.5,182.9z"/>
		<path class="st6" d="M601.5,182.9l23.3,40.3h-46.6L601.5,182.9z"/>
		<path class="st7" d="M601.5,182.9l-23.3,40.3l-23.3-40.3H601.5z"/>
		<path class="st6" d="M741.3,182.9h-46.6l23.3-40.3L741.3,182.9z"/>
		<path class="st7" d="M741.3,182.9L718,142.5h46.6L741.3,182.9z"/>
		<path class="st6" d="M741.3,182.9l23.3-40.3l23.3,40.3H741.3z"/>
		<path class="st7" d="M741.3,182.9h46.6l-23.3,40.3L741.3,182.9z"/>
		<path class="st6" d="M741.3,182.9l23.3,40.3H718L741.3,182.9z"/>
		<path class="st7" d="M741.3,182.9L718,223.2l-23.3-40.3H741.3z"/>
		<path class="st4" d="M112.4,223.2H65.8l23.3-40.3L112.4,223.2z"/>
		<path class="st6" d="M112.4,223.2l-23.3-40.3h46.6L112.4,223.2z"/>
		<path class="st7" d="M112.4,223.2l23.3-40.3l23.3,40.3H112.4z"/>
		<path class="st6" d="M252.1,223.2h-46.6l23.3-40.3L252.1,223.2z"/>
		<path class="st7" d="M252.1,223.2l-23.3-40.3h46.6L252.1,223.2z"/>
		<path class="st6" d="M252.1,223.2l23.3-40.3l23.3,40.3H252.1z"/>
		<path class="st6" d="M391.9,223.2h-46.6l23.3-40.3L391.9,223.2z"/>
		<path class="st7" d="M391.9,223.2l-23.3-40.3h46.6L391.9,223.2z"/>
		<path class="st6" d="M391.9,223.2l23.3-40.3l23.3,40.3H391.9z"/>
		<path class="st6" d="M531.6,223.2H485l23.3-40.3L531.6,223.2z"/>
		<path class="st7" d="M531.6,223.2l-23.3-40.3h46.6L531.6,223.2z"/>
		<path class="st6" d="M531.6,223.2l23.3-40.3l23.3,40.3H531.6z"/>
		<path class="st6" d="M671.4,223.2h-46.6l23.3-40.3L671.4,223.2z"/>
		<path class="st7" d="M671.4,223.2l-23.3-40.3h46.6L671.4,223.2z"/>
		<path class="st6" d="M671.4,223.2l23.3-40.3l23.3,40.3H671.4z"/>
		<path class="st4" d="M112.4,223.2H159l-23.3,40.3L112.4,223.2z"/>
		<path class="st5" d="M112.4,223.2l23.3,40.3H89.1L112.4,223.2z"/>
		<path class="st6" d="M112.4,223.2l-23.3,40.3l-23.3-40.3H112.4z"/>
		<path class="st7" d="M252.1,223.2h46.6l-23.3,40.3L252.1,223.2z"/>
		<path class="st6" d="M252.1,223.2l23.3,40.3h-46.6L252.1,223.2z"/>
		<path class="st7" d="M252.1,223.2l-23.3,40.3l-23.3-40.3H252.1z"/>
		<path class="st7" d="M391.9,223.2h46.6l-23.3,40.3L391.9,223.2z"/>
		<path class="st6" d="M391.9,223.2l23.3,40.3h-46.6L391.9,223.2z"/>
		<path class="st7" d="M391.9,223.2l-23.3,40.3l-23.3-40.3H391.9z"/>
		<path class="st7" d="M531.6,223.2h46.6l-23.3,40.3L531.6,223.2z"/>
		<path class="st6" d="M531.6,223.2l23.3,40.3h-46.6L531.6,223.2z"/>
		<path class="st7" d="M531.6,223.2l-23.3,40.3L485,223.2H531.6z"/>
		<path class="st7" d="M671.4,223.2H718l-23.3,40.3L671.4,223.2z"/>
		<path class="st6" d="M671.4,223.2l23.3,40.3h-46.6L671.4,223.2z"/>
		<path class="st7" d="M671.4,223.2l-23.3,40.3l-23.3-40.3H671.4z"/>
		<path class="st6" d="M42.5,263.6H-4.1l23.3-40.3L42.5,263.6z"/>
		<path class="st5" d="M42.5,263.6l-23.3-40.3h46.6L42.5,263.6z"/>
		<path class="st4" d="M42.5,263.6l23.3-40.3l23.3,40.3H42.5z"/>
		<path class="st7" d="M42.5,263.6h46.6l-23.3,40.3L42.5,263.6z"/>
		<path class="st4" d="M42.5,263.6l23.3,40.3H19.2L42.5,263.6z"/>
		<path class="st7" d="M42.5,263.6l-23.3,40.3l-23.3-40.3H42.5z"/>
		<path class="st8" d="M182.2,263.6h-46.6l23.3-40.3L182.2,263.6z"/>
		<path class="st7" d="M182.2,263.6L159,223.2h46.6L182.2,263.6z"/>
		<path class="st6" d="M182.2,263.6l23.3-40.3l23.3,40.3H182.2z"/>
		<path class="st7" d="M182.2,263.6h46.6l-23.3,40.3L182.2,263.6z"/>
		<path class="st6" d="M182.2,263.6l23.3,40.3H159L182.2,263.6z"/>
		<path class="st5" d="M182.2,263.6L159,303.9l-23.3-40.3H182.2z"/>
		<path class="st6" d="M322,263.6h-46.6l23.3-40.3L322,263.6z"/>
		<path class="st7" d="M322,263.6l-23.3-40.3h46.6L322,263.6z"/>
		<path class="st6" d="M322,263.6l23.3-40.3l23.3,40.3H322z"/>
		<path class="st7" d="M322,263.6h46.6l-23.3,40.3L322,263.6z"/>
		<path class="st6" d="M322,263.6l23.3,40.3h-46.6L322,263.6z"/>
		<path class="st7" d="M322,263.6l-23.3,40.3l-23.3-40.3H322z"/>
		<path class="st6" d="M461.7,263.6h-46.6l23.3-40.3L461.7,263.6z"/>
		<path class="st7" d="M461.7,263.6l-23.3-40.3H485L461.7,263.6z"/>
		<path class="st6" d="M461.7,263.6l23.3-40.3l23.3,40.3H461.7z"/>
		<path class="st7" d="M461.7,263.6h46.6L485,303.9L461.7,263.6z"/>
		<path class="st6" d="M461.7,263.6l23.3,40.3h-46.6L461.7,263.6z"/>
		<path class="st7" d="M461.7,263.6l-23.3,40.3l-23.3-40.3H461.7z"/>
		<path class="st6" d="M601.5,263.6h-46.6l23.3-40.3L601.5,263.6z"/>
		<path class="st7" d="M601.5,263.6l-23.3-40.3h46.6L601.5,263.6z"/>
		<path class="st6" d="M601.5,263.6l23.3-40.3l23.3,40.3H601.5z"/>
		<path class="st7" d="M601.5,263.6h46.6l-23.3,40.3L601.5,263.6z"/>
		<path class="st6" d="M601.5,263.6l23.3,40.3h-46.6L601.5,263.6z"/>
		<path class="st7" d="M601.5,263.6l-23.3,40.3l-23.3-40.3H601.5z"/>
		<path class="st6" d="M741.3,263.6h-46.6l23.3-40.3L741.3,263.6z"/>
		<path class="st7" d="M741.3,263.6L718,223.2h46.6L741.3,263.6z"/>
		<path class="st6" d="M741.3,263.6l23.3-40.3l23.3,40.3H741.3z"/>
		<path class="st7" d="M741.3,263.6h46.6l-23.3,40.3L741.3,263.6z"/>
		<path class="st6" d="M741.3,263.6l23.3,40.3H718L741.3,263.6z"/>
		<path class="st7" d="M741.3,263.6L718,303.9l-23.3-40.3H741.3z"/>
		<path class="st4" d="M112.4,303.9H65.8l23.3-40.3L112.4,303.9z"/>
		<path class="st6" d="M112.4,303.9l-23.3-40.3h46.6L112.4,303.9z"/>
		<path class="st7" d="M112.4,303.9l23.3-40.3l23.3,40.3H112.4z"/>
		<path class="st6" d="M252.1,303.9h-46.6l23.3-40.3L252.1,303.9z"/>
		<path class="st7" d="M252.1,303.9l-23.3-40.3h46.6L252.1,303.9z"/>
		<path class="st6" d="M252.1,303.9l23.3-40.3l23.3,40.3H252.1z"/>
		<path class="st6" d="M391.9,303.9h-46.6l23.3-40.3L391.9,303.9z"/>
		<path class="st7" d="M391.9,303.9l-23.3-40.3h46.6L391.9,303.9z"/>
		<path class="st6" d="M391.9,303.9l23.3-40.3l23.3,40.3H391.9z"/>
		<path class="st6" d="M531.6,303.9H485l23.3-40.3L531.6,303.9z"/>
		<path class="st7" d="M531.6,303.9l-23.3-40.3h46.6L531.6,303.9z"/>
		<path class="st6" d="M531.6,303.9l23.3-40.3l23.3,40.3H531.6z"/>
		<path class="st6" d="M671.4,303.9h-46.6l23.3-40.3L671.4,303.9z"/>
		<path class="st7" d="M671.4,303.9l-23.3-40.3h46.6L671.4,303.9z"/>
		<path class="st6" d="M671.4,303.9l23.3-40.3l23.3,40.3H671.4z"/>
	</g>
</g>
</svg>
