<svg width="380" height="621" viewBox="0 0 380 621" fill="none" xmlns="http://www.w3.org/2000/svg">
<g clip-path="url(#clip0)">
<path d="M205.314 171.829C211.91 173.074 218.803 172.424 225.167 169.957C231.532 167.489 237.1 163.308 241.206 157.914C245.312 152.52 247.781 146.14 248.32 139.538C252.003 139.397 255.631 138.414 258.913 136.669C262.196 134.925 265.04 132.466 267.219 129.492C269.397 126.518 270.848 123.11 271.455 119.544C272.063 115.978 271.809 112.353 270.715 108.96C275.871 110.05 281.316 109.388 286.162 107.081C291.009 104.774 294.971 100.959 297.402 96.2583C301.311 97.7602 305.602 98.1847 309.819 97.4867C314.036 96.7887 318.022 94.9943 321.353 92.2942C324.684 89.594 327.236 86.0888 328.738 82.1511C330.239 78.2134 330.635 73.9902 329.882 69.9301C334.582 71.4398 339.662 71.6497 344.572 70.5371C349.482 69.4244 354.035 67.0316 357.739 63.6176C361.663 59.9998 363.5 53.9997 364.5 49.9998C365.5 45.9999 364.5 32.9995 364 30.4996C363.5 27.9997 357.466 22.6472 355 20.999C350.848 18.2245 346.248 17.8122 341.142 17.6501L18.4999 17.6501L18.4999 589L124.409 589L160.102 224.5L205.314 171.829Z" fill="white"/>
<path d="M138.544 592.965C145.073 595.248 151.906 595.076 157.744 592.483C163.582 589.89 168.019 585.056 170.211 578.899C172.404 572.742 172.2 565.692 169.638 559.086C167.076 552.48 162.335 546.78 156.314 543.067C160.888 541.9 164.836 539.28 167.633 535.556C170.43 531.831 171.944 527.178 171.976 522.213C171.979 521.678 171.982 521.143 171.931 520.61C178.557 519.417 184.472 516.236 188.968 511.447C193.465 506.659 196.353 500.466 197.288 493.608C198.223 486.75 197.165 479.517 194.24 472.775C191.315 466.032 186.647 460.065 180.794 455.586C182.529 452.402 183.455 448.751 183.499 444.927C183.543 441.102 182.703 437.21 181.047 433.564C179.39 429.919 176.964 426.62 173.963 423.935C170.962 421.25 167.47 419.253 163.768 418.104C167.391 414.432 169.535 409.448 169.85 403.966C170.165 398.483 168.632 392.824 165.502 387.913C168.876 385.541 171.443 382.19 172.932 378.218C174.421 374.245 174.775 369.798 173.957 365.35C173.139 360.902 171.18 356.618 168.287 352.954C165.394 349.29 161.676 346.383 157.528 344.541C161.31 341.508 164.078 337.363 165.533 332.555C166.988 327.746 167.074 322.457 165.783 317.261C171.033 315.232 175.324 311.474 178.052 306.518C180.779 301.562 181.805 295.656 180.985 289.633C185.979 285.089 188.855 278.541 189.028 271.318C189.201 264.094 186.66 256.738 181.919 250.74C183.405 245.886 183.493 240.537 182.174 235.285C180.855 230.033 178.18 225.082 174.444 220.98C178.958 219.14 182.743 216.001 185.392 211.902C188.041 207.803 189.452 202.898 189.475 197.716L189.476 197.523C197.317 195.862 204.022 191.384 208.457 184.847C212.892 178.311 214.786 170.116 213.817 161.649C212.848 153.183 209.076 144.964 203.14 138.383C197.203 131.803 189.467 127.264 181.238 125.536C181.241 125.047 181.244 124.548 181.247 124.05C181.284 119.152 180.164 114.173 177.981 109.531C175.799 104.888 172.618 100.719 168.705 97.3715C164.793 94.0245 160.263 91.5981 155.496 90.2959C150.73 88.9938 145.866 88.854 141.313 89.8884C136.76 90.9227 132.651 93.1009 129.331 96.2401C126.011 99.3793 123.577 103.388 122.234 107.929C120.89 112.47 120.677 117.411 121.611 122.337C122.545 127.262 124.599 132.029 127.602 136.237L126.751 277.429C124.896 282.563 124.659 288.339 126.07 294.018C121.393 295.818 117.464 298.996 114.727 303.191C111.99 307.387 110.555 312.434 110.583 317.761C110.612 323.088 112.103 328.482 114.888 333.335C117.673 338.187 121.641 342.304 126.343 345.22L126.115 383.051C123.291 386.782 121.76 391.456 121.73 396.445C121.7 401.434 123.172 406.5 125.947 410.963L125.366 507.515C123.288 512.792 123.251 518.903 125.262 524.714L125.143 544.451C120.897 548.197 118.151 553.432 117.326 559.349C116.701 559.221 116.075 559.103 115.44 559.02C110.954 558.445 106.552 559.158 102.732 561.077C98.9122 562.996 95.8258 566.045 93.8211 569.88C91.8165 573.715 90.9734 578.184 91.3869 582.782C91.8005 587.38 93.4542 591.924 96.1616 595.902C98.869 599.88 102.522 603.133 106.709 605.294C110.896 607.455 115.45 608.439 119.857 608.133C124.264 607.828 128.349 606.246 131.651 603.566C134.953 600.885 137.34 597.214 138.544 592.965Z" fill="white"/>
<path d="M138.544 592.965C145.073 595.248 151.906 595.076 157.744 592.483C163.582 589.89 168.019 585.056 170.211 578.899C172.404 572.742 172.2 565.692 169.638 559.086C167.076 552.48 162.335 546.78 156.314 543.067C160.888 541.9 164.836 539.28 167.633 535.556C170.43 531.831 171.944 527.178 171.976 522.213C171.979 521.678 171.982 521.143 171.931 520.61C178.557 519.417 184.472 516.236 188.968 511.447C193.465 506.659 196.353 500.466 197.288 493.608C198.223 486.75 197.165 479.517 194.24 472.775C191.315 466.032 186.647 460.065 180.794 455.586C182.529 452.402 183.455 448.751 183.499 444.927C183.543 441.102 182.703 437.21 181.047 433.564C179.39 429.919 176.964 426.62 173.963 423.935C170.962 421.25 167.47 419.253 163.768 418.104C167.391 414.432 169.535 409.448 169.85 403.966C170.165 398.483 168.632 392.824 165.502 387.913C168.876 385.541 171.443 382.19 172.932 378.218C174.421 374.245 174.775 369.798 173.957 365.35C173.139 360.902 171.18 356.618 168.287 352.954C165.394 349.29 161.676 346.383 157.528 344.541C161.31 341.508 164.078 337.363 165.533 332.555C166.988 327.746 167.074 322.457 165.783 317.261C171.033 315.232 175.324 311.474 178.052 306.518C180.779 301.562 181.805 295.656 180.985 289.633C185.979 285.089 188.855 278.541 189.028 271.318C189.201 264.094 186.66 256.738 181.919 250.74C183.405 245.886 183.493 240.537 182.174 235.285C180.855 230.033 178.18 225.082 174.444 220.98C178.958 219.14 182.743 216.001 185.392 211.902C188.041 207.803 189.452 202.898 189.475 197.716L189.476 197.523C197.317 195.862 204.022 191.384 208.457 184.847C212.892 178.311 214.786 170.116 213.817 161.649C212.848 153.183 209.076 144.964 203.14 138.383C197.203 131.803 189.467 127.264 181.238 125.536C181.241 125.047 181.244 124.548 181.247 124.05C181.284 119.152 180.164 114.173 177.981 109.531C175.799 104.888 172.618 100.719 168.705 97.3715C164.793 94.0245 160.263 91.5981 155.496 90.2959C150.73 88.9938 145.866 88.854 141.313 89.8884C136.76 90.9227 132.651 93.1009 129.331 96.2401C126.011 99.3793 123.577 103.388 122.234 107.929C120.89 112.47 120.677 117.411 121.611 122.337C122.545 127.262 124.599 132.029 127.602 136.237L126.751 277.429C124.896 282.563 124.659 288.339 126.07 294.018C121.393 295.818 117.464 298.996 114.727 303.191C111.99 307.387 110.555 312.434 110.583 317.761C110.612 323.088 112.103 328.482 114.888 333.335C117.673 338.187 121.641 342.304 126.343 345.22L126.115 383.051C123.291 386.782 121.76 391.456 121.73 396.445C121.7 401.434 123.172 406.5 125.947 410.963L125.366 507.515C123.288 512.792 123.251 518.903 125.262 524.714L125.143 544.451C120.897 548.197 118.151 553.432 117.326 559.349C116.701 559.221 116.075 559.103 115.44 559.02C110.954 558.445 106.552 559.158 102.732 561.077C98.9122 562.996 95.8258 566.045 93.8211 569.88C91.8165 573.715 90.9734 578.184 91.3869 582.782C91.8005 587.38 93.4542 591.924 96.1616 595.902C98.869 599.88 102.522 603.133 106.709 605.294C110.896 607.455 115.45 608.439 119.857 608.133C124.264 607.828 128.349 606.246 131.651 603.566C134.953 600.885 137.34 597.214 138.544 592.965Z" fill="white"/>
</g>
<defs>
<clipPath id="clip0">
<rect width="380" height="621" fill="white"/>
</clipPath>
</defs>
</svg>
