<svg width="600" height="369" viewBox="0 0 600 369" fill="none" xmlns="http://www.w3.org/2000/svg">
<path d="M565.477 31.0057C563.002 31.0492 560.619 30.5202 558.849 29.5348C558.561 30.5531 557.858 31.5211 556.799 32.3576C555.74 33.194 554.356 33.8745 552.763 34.342C551.17 34.8095 549.416 35.0503 547.646 35.0442C545.876 35.038 544.143 34.7852 542.592 34.3069C541.898 35.9743 540.591 37.5411 538.762 38.8987C536.934 40.2563 534.626 41.3723 532 42.1692C529.375 42.966 526.493 43.4248 523.556 43.5137C520.618 43.6025 517.695 43.3193 514.989 42.6837C514.995 43.0147 515.066 43.3446 515.072 43.6755C515.111 46.0386 514.156 48.3828 512.291 50.5043C510.425 52.6259 507.705 54.4606 504.367 55.8492C501.029 57.2377 497.174 58.138 493.137 58.4718C489.099 58.8057 485.002 58.5629 481.201 57.7647C480.772 59.3499 479.729 60.8645 478.151 62.1935C476.574 63.5226 474.503 64.6312 472.096 65.4352C469.689 66.2391 467.009 66.7174 464.259 66.8336C461.51 66.9498 458.763 66.701 456.228 66.1059C455.249 69.1458 452.607 71.9386 448.697 74.0651C444.787 76.1916 439.821 77.5372 434.543 77.9C429.265 78.2628 423.961 77.6233 419.425 76.0773C414.89 74.5314 411.369 72.1624 409.389 69.3258C406.458 69.3425 403.579 68.9333 401.016 68.1355C399.54 69.7752 397.346 71.1652 394.661 72.1624C391.976 73.1596 388.896 73.728 385.738 73.8091C382.58 73.8902 379.458 73.4811 376.694 72.6239C373.93 71.7667 371.623 70.4923 370.011 68.9319C368.092 70.1215 365.729 71.0385 363.111 71.6092C360.492 72.18 357.692 72.3886 354.935 72.2183C352.178 72.048 349.541 71.5036 347.235 70.6287C344.929 69.7539 343.019 68.573 341.658 67.1807C340.978 67.691 340.129 68.1173 339.163 68.4337C338.197 68.75 337.133 68.9499 336.038 69.0209C334.943 69.0919 333.839 69.0326 332.793 68.8467C331.747 68.6607 330.781 68.3521 329.955 67.9395C330.463 68.4971 330.712 69.124 330.681 69.7599C330.649 70.3959 330.337 71.0197 329.774 71.5715C329.212 72.1233 328.418 72.5847 327.468 72.9113C326.518 73.238 325.445 73.419 324.351 73.4371L323.789 73.4467C324.209 73.9696 324.409 74.5448 324.374 75.126C324.338 75.7073 324.069 76.2783 323.586 76.7929C323.104 77.3075 322.422 77.7514 321.596 78.0886C320.77 78.4259 319.824 78.6472 318.832 78.7346C319.982 79.3716 320.67 80.2413 320.759 81.1712C320.848 82.1011 320.332 83.0233 319.313 83.755C318.293 84.4867 316.846 84.9745 315.257 85.1216C313.668 85.2687 312.053 85.0644 310.733 84.5492C310.207 85.2828 309.323 85.9142 308.192 86.3647C307.062 86.8152 305.735 87.0649 304.377 87.0826C303.018 87.1004 301.689 86.8854 300.554 86.4644C299.419 86.0435 298.529 85.4353 297.995 84.7156C297.371 85.1854 296.568 85.5647 295.65 85.8224C294.732 86.0801 293.727 86.2089 292.716 86.198C291.705 86.1872 290.718 86.0371 289.835 85.7601C288.952 85.4832 288.199 85.0871 287.637 84.6046L286.986 84.6158C286.507 85.0578 285.875 85.4384 285.133 85.7331C284.39 86.0279 283.553 86.2303 282.674 86.3273C281.796 86.4243 280.896 86.4138 280.032 86.2965C279.168 86.1792 278.359 85.9576 277.658 85.646C277.072 86.2722 276.194 86.7917 275.127 87.1437C274.06 87.4957 272.848 87.6655 271.634 87.6332C270.42 87.6008 269.254 87.3678 268.272 86.9613C267.29 86.5548 266.534 85.9917 266.092 85.3382C265.141 85.7164 264.037 85.9415 262.897 85.9901C261.757 86.0386 260.62 85.9089 259.607 85.6143C258.594 85.3197 257.74 84.871 257.135 84.315C256.53 83.759 256.196 83.1159 256.167 82.4528C255.66 82.5353 255.138 82.5823 254.614 82.5929C253.553 82.6099 252.506 82.4735 251.567 82.196C250.629 81.9186 249.828 81.5087 249.237 81.0032C248.646 80.4976 248.282 79.9122 248.18 79.2995C248.077 78.6867 248.238 78.0658 248.649 77.4923C248.478 77.4953 248.299 77.4983 248.12 77.5014C247.07 77.5192 246.035 77.387 245.103 77.1163C244.172 76.8457 243.374 76.4449 242.78 75.9492C242.185 75.4534 241.812 74.878 241.693 74.2735C241.574 73.669 241.714 73.0538 242.099 72.4822C241.755 72.5224 241.407 72.5458 241.058 72.552C239.359 72.5812 237.723 72.217 236.51 71.5397C235.297 70.8624 234.606 69.9275 234.589 68.9405C234.586 68.6896 234.626 68.4387 234.706 68.1912C233.46 68.5873 232.062 68.7851 230.655 68.7644C229.248 68.7436 227.883 68.5049 226.701 68.073C224.628 69.8842 221.641 71.2823 218.162 72.0701C214.683 72.8579 210.887 72.9955 207.311 72.4636C207.425 72.8719 207.489 73.2849 207.503 73.6996C207.536 75.1939 206.887 76.6743 205.621 77.9899C204.354 79.3054 202.516 80.4088 200.295 81.1875C198.073 81.9662 195.547 82.3923 192.975 82.4223C190.402 82.4523 187.875 82.0851 185.652 81.3582C183.982 83.881 180.992 86.048 177.11 87.5497C173.229 89.0515 168.654 89.8112 164.039 89.7203C159.424 89.6295 155.005 88.6928 151.413 87.044C147.82 85.3951 145.239 83.1185 144.036 80.5391C141.34 81.3861 138.328 81.8208 135.29 81.8017C132.251 81.7825 129.286 81.3101 126.681 80.4296C124.075 79.5492 121.915 78.2902 120.407 76.7732C118.899 75.2562 118.094 73.532 118.07 71.7657C118.044 70.4496 118.458 69.1381 119.29 67.9042C116.236 67.5851 113.45 66.7151 111.325 65.4168C109.199 64.1185 107.841 62.4572 107.442 60.6671C104.82 61.5374 101.821 61.9314 98.8407 61.7974C95.8598 61.6634 93.036 61.0077 90.7401 59.9164C88.4442 58.8252 86.7835 57.3493 85.976 55.6827C85.1686 54.0161 85.2523 52.2366 86.216 50.578C83.8551 50.0113 81.7999 49.095 80.2516 47.9189C78.7033 46.7427 77.7151 45.3471 77.3836 43.8685C77.0522 42.39 77.3889 40.8792 78.3607 39.4842C79.3326 38.0891 80.9063 36.8576 82.9278 35.9103C83.8734 34.7542 85.4102 33.7913 87.3241 33.1557C89.238 32.5201 91.4337 32.2435 93.6054 32.3643L93.6046 32.317L506.183 25.2442C508.023 23.6678 510.479 22.3642 513.344 21.443C516.21 20.5219 519.401 20.0104 522.649 19.9514C525.897 19.8925 529.106 20.288 532.007 21.1045C534.907 21.921 537.414 23.1346 539.316 24.6431C540.34 23.8977 541.628 23.2892 543.091 22.8605C544.554 22.4318 546.154 22.1935 547.78 22.1625C549.405 22.1315 551.015 22.3085 552.497 22.681C553.978 23.0535 555.293 23.6124 556.35 24.318C556.789 23.3338 557.69 22.4351 558.952 21.7235C560.214 21.012 561.787 20.5159 563.492 20.2914C565.197 20.0668 566.967 20.1228 568.602 20.4529C570.237 20.7831 571.671 21.3742 572.743 22.1596C573.815 22.9449 574.481 23.8932 574.667 24.8972C574.853 25.9012 574.551 26.9209 573.795 27.8411C573.04 28.7613 571.86 29.5453 570.39 30.1045C568.92 30.6637 567.218 30.9759 565.477 31.0057V31.0057Z" fill="#D9D9D9"/>
<path d="M709.477 32.1619C707.002 32.2055 704.619 31.6764 702.849 30.691C702.561 31.7094 701.858 32.6773 700.799 33.5138C699.74 34.3503 698.356 35.0308 696.763 35.4983C695.17 35.9657 693.416 36.2065 691.646 36.2004C689.876 36.1943 688.143 35.9415 686.592 35.4631C685.898 37.1305 684.591 38.6973 682.762 40.055C680.934 41.4126 678.626 42.5285 676 43.3254C673.375 44.1223 670.493 44.5811 667.556 44.6699C664.618 44.7587 661.695 44.4755 658.989 43.8399C658.995 44.1709 659.066 44.5008 659.072 44.8318C659.111 47.1949 658.156 49.539 656.291 51.6606C654.425 53.7821 651.705 55.6169 648.367 57.0054C645.029 58.394 641.174 59.2943 637.137 59.6281C633.099 59.9619 629.002 59.7192 625.201 58.921C624.772 60.5061 623.729 62.0207 622.151 63.3498C620.574 64.6788 618.503 65.7874 616.096 66.5914C613.689 67.3954 611.009 67.8736 608.259 67.9899C605.51 68.1061 602.763 67.8572 600.228 67.2621C599.249 70.3021 596.607 73.0948 592.697 75.2213C588.787 77.3478 583.821 78.6934 578.543 79.0563C573.265 79.4191 567.961 78.7795 563.425 77.2336C558.89 75.6876 555.369 73.3186 553.389 70.482C550.458 70.4987 547.579 70.0896 545.016 69.2918C543.54 70.9315 541.346 72.3214 538.661 73.3186C535.976 74.3159 532.896 74.8843 529.738 74.9654C526.58 75.0465 523.458 74.6374 520.694 73.7802C517.93 72.9229 515.623 71.6485 514.011 70.0881C512.092 71.2778 509.729 72.1948 507.111 72.7655C504.492 73.3362 501.692 73.5448 498.935 73.3746C496.178 73.2043 493.541 72.6599 491.235 71.785C488.929 70.9101 487.019 69.7292 485.658 68.337C484.978 68.8472 484.129 69.2735 483.163 69.5899C482.197 69.9063 481.133 70.1061 480.038 70.1771C478.943 70.2481 477.839 70.1889 476.793 70.0029C475.747 69.817 474.781 69.5083 473.955 69.0957C474.463 69.6534 474.712 70.2802 474.681 70.9162C474.649 71.5522 474.337 72.176 473.774 72.7278C473.212 73.2796 472.418 73.7409 471.468 74.0676C470.518 74.3942 469.445 74.5753 468.351 74.5933L467.789 74.603C468.209 75.1258 468.409 75.701 468.374 76.2823C468.338 76.8635 468.069 77.4345 467.586 77.9491C467.104 78.4638 466.422 78.9076 465.596 79.2449C464.77 79.5822 463.824 79.8034 462.832 79.8908C463.982 80.5278 464.67 81.3975 464.759 82.3274C464.848 83.2573 464.332 84.1796 463.313 84.9113C462.293 85.643 460.846 86.1307 459.257 86.2778C457.668 86.4249 456.053 86.2207 454.733 85.7055C454.207 86.439 453.323 87.0704 452.192 87.5209C451.062 87.9714 449.735 88.2211 448.377 88.2389C447.018 88.2566 445.689 88.0416 444.554 87.6207C443.419 87.1997 442.529 86.5915 441.995 85.8718C441.371 86.3416 440.568 86.721 439.65 86.9787C438.732 87.2364 437.727 87.3651 436.716 87.3543C435.705 87.3435 434.718 87.1934 433.835 86.9164C432.952 86.6394 432.199 86.2434 431.637 85.7609L430.986 85.772C430.507 86.214 429.875 86.5946 429.133 86.8894C428.39 87.1841 427.553 87.3865 426.674 87.4836C425.796 87.5806 424.896 87.5701 424.032 87.4528C423.168 87.3354 422.359 87.1138 421.658 86.8022C421.072 87.4285 420.194 87.948 419.127 88.3C418.06 88.6519 416.848 88.8217 415.634 88.7894C414.42 88.7571 413.254 88.524 412.272 88.1175C411.29 87.7111 410.534 87.148 410.092 86.4944C409.141 86.8727 408.037 87.0978 406.897 87.1463C405.757 87.1949 404.62 87.0651 403.607 86.7705C402.594 86.4759 401.74 86.0273 401.135 85.4712C400.53 84.9152 400.196 84.2722 400.167 83.609C399.66 83.6915 399.138 83.7386 398.614 83.7492C397.553 83.7661 396.506 83.6298 395.567 83.3523C394.629 83.0748 393.828 82.6649 393.237 82.1594C392.646 81.6539 392.282 81.0685 392.18 80.4557C392.077 79.843 392.238 79.222 392.649 78.6486C392.478 78.6515 392.299 78.6546 392.12 78.6576C391.07 78.6755 390.035 78.5432 389.103 78.2726C388.172 78.0019 387.374 77.6011 386.78 77.1054C386.185 76.6097 385.812 76.0343 385.693 75.4297C385.574 74.8252 385.714 74.2101 386.099 73.6384C385.755 73.6787 385.407 73.702 385.058 73.7083C383.359 73.7374 381.723 73.3733 380.51 72.696C379.297 72.0187 378.606 71.0837 378.589 70.0968C378.586 69.8459 378.626 69.5949 378.706 69.3474C377.46 69.7435 376.062 69.9414 374.655 69.9206C373.248 69.8998 371.883 69.6612 370.701 69.2293C368.628 71.0404 365.641 72.4386 362.162 73.2263C358.683 74.0141 354.887 74.1518 351.311 73.6199C351.425 74.0282 351.489 74.4412 351.503 74.8558C351.536 76.3501 350.887 77.8306 349.621 79.1461C348.354 80.4616 346.516 81.565 344.295 82.3438C342.073 83.1225 339.547 83.5486 336.975 83.5786C334.402 83.6085 331.875 83.2413 329.652 82.5144C327.982 85.0372 324.992 87.2043 321.11 88.706C317.229 90.2077 312.654 90.9674 308.039 90.8766C303.424 90.7858 299.005 89.849 295.413 88.2002C291.82 86.5514 289.239 84.2747 288.036 81.6954C285.34 82.5424 282.328 82.9771 279.29 82.9579C276.251 82.9387 273.286 82.4663 270.681 81.5859C268.075 80.7054 265.915 79.4465 264.407 77.9295C262.899 76.4125 262.094 74.6883 262.07 72.922C262.044 71.6059 262.458 70.2944 263.29 69.0604C260.236 68.7414 257.45 67.8714 255.325 66.573C253.199 65.2747 251.841 63.6135 251.442 61.8234C248.82 62.6936 245.821 63.0876 242.841 62.9536C239.86 62.8197 237.036 62.164 234.74 61.0727C232.444 59.9814 230.783 58.5055 229.976 56.8389C229.169 55.1723 229.252 53.3929 230.216 51.7343C227.855 51.1675 225.8 50.2513 224.252 49.0751C222.703 47.899 221.715 46.5033 221.384 45.0248C221.052 43.5462 221.389 42.0354 222.361 40.6404C223.333 39.2454 224.906 38.0139 226.928 37.0665C227.873 35.9105 229.41 34.9476 231.324 34.312C233.238 33.6764 235.434 33.3997 237.605 33.5206L237.605 33.4732L650.183 26.4005C652.023 24.8241 654.479 23.5204 657.344 22.5993C660.21 21.6782 663.401 21.1666 666.649 21.1077C669.897 21.0488 673.106 21.4442 676.007 22.2607C678.907 23.0772 681.414 24.2909 683.316 25.7994C684.34 25.054 685.628 24.4454 687.091 24.0167C688.554 23.588 690.154 23.3498 691.78 23.3187C693.405 23.2877 695.015 23.4647 696.497 23.8372C697.978 24.2097 699.293 24.7686 700.35 25.4743C700.789 24.49 701.69 23.5914 702.952 22.8798C704.214 22.1682 705.787 21.6721 707.492 21.4476C709.197 21.2231 710.967 21.2791 712.602 21.6092C714.237 21.9393 715.671 22.5305 716.743 23.3158C717.815 24.1012 718.481 25.0494 718.667 26.0534C718.853 27.0574 718.551 28.0771 717.795 28.9973C717.04 29.9175 715.86 30.7015 714.39 31.2608C712.92 31.82 711.218 32.1321 709.477 32.1619V32.1619Z" fill="#D9D9D9"/>
<path d="M629.118 69.5005C625.369 69.4992 621.773 70.1311 619.119 71.2574C618.655 70.1338 617.565 69.0738 615.94 68.1665C614.314 67.2591 612.201 66.5309 609.777 66.0428C607.353 65.5548 604.689 65.3211 602.009 65.3616C599.329 65.402 596.711 65.7153 594.374 66.2751C593.28 64.4395 591.261 62.7271 588.456 61.2565C585.651 59.786 582.128 58.5925 578.131 57.7588C574.134 56.9251 569.758 56.4712 565.307 56.4285C560.857 56.3858 556.437 56.7554 552.356 57.5116C552.356 57.1445 552.454 56.7774 552.454 56.4103C552.453 53.7894 550.946 51.2083 548.066 48.8914C545.186 46.5745 541.019 44.5918 535.928 43.1157C530.836 41.6395 524.975 40.7146 518.852 40.4211C512.729 40.1277 506.531 40.4748 500.795 41.4321C500.104 39.6826 498.485 38.023 496.061 36.5794C493.638 35.1357 490.473 33.9459 486.806 33.1002C483.14 32.2545 479.069 31.7751 474.903 31.6985C470.736 31.6219 466.583 31.9501 462.759 32.6581C461.198 29.306 457.124 26.2597 451.148 23.9761C445.171 21.6926 437.615 20.295 429.613 19.993C421.611 19.691 413.594 20.501 406.766 22.3014C399.938 24.1017 394.667 26.7954 391.743 29.9782C387.303 30.0154 382.954 30.5238 379.093 31.4571C376.815 29.6671 373.457 28.1676 369.365 27.1129C365.272 26.0583 360.593 25.4866 355.808 25.4566C351.024 25.4267 346.307 25.9397 342.143 26.9427C337.979 27.9458 334.519 29.4027 332.119 31.1634C329.182 29.8809 325.579 28.909 321.599 28.326C317.619 27.7429 313.373 27.5648 309.202 27.806C305.031 28.0472 301.052 28.701 297.582 29.7149C294.113 30.7288 291.251 32.0745 289.225 33.6441C288.183 33.0912 286.886 32.6347 285.415 32.3022C283.943 31.9698 282.328 31.7685 280.667 31.7105C279.007 31.6526 277.336 31.7393 275.757 31.9654C274.178 32.1914 272.724 32.552 271.483 33.0252C272.237 32.3972 272.599 31.6974 272.535 30.9929C272.47 30.2883 271.982 29.6026 271.115 29.0014C270.249 28.4003 269.034 27.9039 267.588 27.5597C266.141 27.2156 264.511 27.0352 262.853 27.036H262.002C262.624 26.4483 262.912 25.8067 262.844 25.1629C262.776 24.519 262.352 23.8911 261.608 23.3296C260.864 22.7682 259.821 22.289 258.561 21.9307C257.302 21.5725 255.862 21.3451 254.358 21.2671C256.083 20.5389 257.102 19.5615 257.213 18.5288C257.324 17.496 256.518 16.4832 254.956 15.6913C253.393 14.8993 251.188 14.386 248.778 14.2531C246.368 14.1202 243.928 14.3774 241.943 14.9737C241.126 14.1704 239.771 13.4871 238.048 13.0091C236.324 12.531 234.308 12.2794 232.25 12.2856C230.192 12.2917 228.185 12.5554 226.477 13.0437C224.769 13.532 223.437 14.2233 222.647 15.0314C221.69 14.5223 220.463 14.117 219.067 13.8487C217.671 13.5804 216.144 13.4568 214.614 13.488C213.083 13.5192 211.592 13.7044 210.262 14.0283C208.933 14.3522 207.802 14.8056 206.965 15.3513H205.978C205.241 14.8704 204.275 14.4604 203.142 14.1477C202.01 13.8349 200.737 13.6264 199.404 13.5356C198.071 13.4447 196.708 13.4734 195.402 13.6199C194.097 13.7665 192.878 14.0275 191.824 14.3863C190.92 13.7032 189.577 13.1438 187.952 12.7738C186.328 12.4038 184.488 12.2386 182.651 12.2975C180.813 12.3564 179.053 12.637 177.577 13.1063C176.1 13.5757 174.97 14.2144 174.317 14.9475C172.867 14.5462 171.19 14.3176 169.462 14.2854C167.733 14.2532 166.016 14.4187 164.489 14.7646C162.962 15.1106 161.681 15.6243 160.779 16.2523C159.877 16.8803 159.388 17.5996 159.361 18.3354C158.591 18.2536 157.8 18.2114 157.006 18.2096C155.399 18.211 153.817 18.3821 152.403 18.7076C150.988 19.0331 149.786 19.5028 148.904 20.0745C148.022 20.6463 147.487 21.3023 147.347 21.9837C147.208 22.665 147.468 23.3505 148.105 23.9785C147.846 23.9785 147.575 23.9785 147.303 23.9785C145.714 23.9787 144.148 24.145 142.745 24.4628C141.342 24.7806 140.144 25.2402 139.257 25.8011C138.369 26.3621 137.819 27.0072 137.655 27.6797C137.491 28.3523 137.717 29.0317 138.315 29.6582C137.794 29.6201 137.266 29.6009 136.737 29.6006C134.164 29.6006 131.696 30.0354 129.876 30.8095C128.056 31.5835 127.034 32.6333 127.034 33.728C127.037 34.0062 127.103 34.2837 127.231 34.5566C125.334 34.1411 123.211 33.9483 121.081 33.9981C118.951 34.0479 116.89 34.3384 115.112 34.8398C111.925 32.871 107.365 31.3775 102.076 30.5702C96.7867 29.7628 91.035 29.6823 85.6324 30.34C85.7946 29.8852 85.8811 29.426 85.8914 28.966C85.9036 27.3085 84.8816 25.6793 82.9297 24.2447C80.9778 22.8102 78.1659 21.6216 74.7812 20.8004C71.3964 19.9792 67.56 19.5548 63.6635 19.5704C59.767 19.5861 55.9501 20.0413 52.6024 20.8895C50.0064 18.124 45.4226 15.778 39.5054 14.1867C33.5883 12.5953 26.6403 11.84 19.6537 12.0284C12.6671 12.2168 5.99913 13.3394 0.601852 15.2359C-4.79542 17.1325 -8.64598 19.7058 -10.4 22.5887C-14.5051 21.7008 -19.0773 21.276 -23.6788 21.3551C-28.2804 21.4341 -32.7572 22.0142 -36.6807 23.04C-40.6041 24.0658 -43.8428 25.5028 -46.0867 27.2135C-48.3306 28.9242 -49.5045 30.8512 -49.496 32.8102C-49.5015 34.27 -48.8399 35.7163 -47.548 37.0687C-52.1646 37.4805 -56.3611 38.4981 -59.5462 39.9781C-62.7314 41.458 -64.7445 43.3258 -65.3021 45.3182C-69.2961 44.4032 -73.8472 44.0233 -78.3579 44.2285C-82.8686 44.4338 -87.128 45.2144 -90.5766 46.4681C-94.0252 47.7217 -96.5019 49.3897 -97.6814 51.253C-98.8609 53.1163 -98.688 55.0878 -97.1855 56.9085C-100.746 57.5818 -103.835 58.6368 -106.149 59.9703C-108.463 61.3039 -109.923 62.8702 -110.387 64.5159C-110.851 66.1616 -110.302 67.8303 -108.794 69.3586C-107.286 70.887 -104.87 72.2225 -101.784 73.2345C-100.322 74.4984 -97.9701 75.5369 -95.0551 76.2052C-92.1402 76.8736 -88.8078 77.1386 -85.5221 76.9634V77.0158H539.472C542.299 78.7287 546.052 80.1276 550.416 81.0944C554.779 82.0613 559.625 82.5678 564.546 82.5714C569.466 82.575 574.316 82.0756 578.687 81.1151C583.059 80.1546 586.823 78.7613 589.664 77.0525C591.234 77.8595 593.201 78.5098 595.428 78.9574C597.654 79.4049 600.084 79.6387 602.546 79.6422C605.009 79.6457 607.443 79.4188 609.676 78.9776C611.909 78.5364 613.887 77.8917 615.469 77.0892C616.159 78.1722 617.547 79.1515 619.477 79.9165C621.407 80.6815 623.801 81.2017 626.389 81.4182C628.978 81.6347 631.657 81.539 634.124 81.1419C636.591 80.7448 638.748 80.0621 640.35 79.1709C641.953 78.2798 642.938 77.2157 643.194 76.0989C643.449 74.9821 642.966 73.8572 641.797 72.8513C640.629 71.8453 638.822 70.9984 636.581 70.4063C634.341 69.8142 631.755 69.5004 629.118 69.5005V69.5005Z" fill="#D9D9D9"/>
<path d="M649.65 63.4073C651.832 57.7199 650.207 51.782 645.084 46.7212C639.961 41.6604 631.696 37.8294 621.86 35.9557C612.024 34.082 601.301 34.2963 591.728 36.5577C582.155 38.8191 574.399 42.9702 569.934 48.2225C567.239 44.2529 562.452 40.8356 556.208 38.424C549.965 36.0123 542.56 34.7202 534.974 34.7189C534.157 34.7189 533.339 34.7189 532.536 34.7662C529.392 29.0133 523.356 23.8889 515.149 20.0055C506.943 16.1221 496.912 13.6439 486.256 12.8673C475.601 12.0907 464.771 13.0484 455.062 15.626C445.353 18.2037 437.175 22.2921 431.506 27.4027C426.3 25.9118 420.542 25.1258 414.694 25.1077C408.847 25.0896 403.074 25.84 397.839 27.2986C392.603 28.7571 388.053 30.8831 384.553 33.5056C381.052 36.1281 378.7 39.1739 377.685 42.398C371.357 39.268 363.321 37.4306 354.889 37.1855C346.456 36.9404 338.124 38.3021 331.251 41.0484C326.957 38.1286 321.33 35.9145 314.969 34.6414C308.607 33.3682 301.749 33.0836 295.122 33.8178C288.494 34.5519 282.346 36.2774 277.33 38.8109C272.314 41.3444 268.617 44.5913 266.633 48.2067C261.248 44.9356 254.369 42.5513 246.738 41.3118C239.108 40.0724 231.017 40.0249 223.342 41.1747C219.197 36.6217 212.605 32.9115 204.495 30.5668C196.385 28.2222 187.165 27.3612 178.135 28.1051C170.201 23.7883 159.631 21.3233 148.57 21.2105C137.509 21.0976 126.786 23.3453 118.577 27.4974C110.869 26.2311 102.686 26.1823 94.9322 27.3564C87.1781 28.5305 80.1547 30.8818 74.6378 34.1506C70.9278 30.2363 65.3813 26.9626 58.5953 24.6819C51.8093 22.4012 44.0408 21.1999 36.126 21.2073H35.83C31.7303 14.4011 23.5574 8.59654 12.6938 4.77562C1.8302 0.954696 -11.0573 -0.648087 -23.7886 0.238379C-36.5199 1.12484 -48.3136 4.44614 -57.1746 9.64047C-66.0357 14.8348 -71.4202 21.5833 -72.4173 28.7444C-73.1644 28.7444 -73.9256 28.7444 -74.6868 28.7444C-82.1711 28.7383 -89.5487 29.7378 -96.1999 31.659C-102.851 33.5802 -108.582 36.367 -112.911 39.7853C-117.239 43.2036 -120.04 47.1535 -121.076 51.3034C-122.113 55.4532 -121.356 59.6818 -118.869 63.6339C-116.381 67.5859 -112.236 71.1461 -106.782 74.0153C-101.328 76.8846 -94.7229 78.9791 -87.5229 80.1229C-80.3229 81.2668 -72.7377 81.4265 -65.4045 80.5889C-58.0713 79.7512 -51.2042 77.9405 -45.3801 75.3088H170.325C178.531 76.8947 187.397 77.0706 195.783 75.8139C199.465 79.87 205.1 83.2686 212.051 85.6255C219.002 87.9824 226.992 89.2035 235.118 89.151C243.244 89.0984 251.182 87.7743 258.034 85.3281C264.886 82.882 270.379 79.4114 273.892 75.3088H331.688C337.947 77.7445 345.387 79.05 353.009 79.05C360.631 79.05 368.071 77.7445 374.33 75.3088H521.836C530.307 77.0875 539.642 77.0875 548.112 75.3088H578.265C584.83 78.9796 593.37 81.3397 602.567 82.0252C602.497 82.5697 602.44 83.1143 602.44 83.6667C602.458 87.5692 604.424 91.3911 608.116 94.7013C611.807 98.0116 617.078 100.678 623.333 102.401C629.587 104.123 636.577 104.832 643.514 104.449C650.45 104.065 657.057 102.604 662.589 100.23C668.121 97.8561 672.358 94.6637 674.822 91.0131C677.286 87.3626 677.879 83.3992 676.533 79.5701C675.187 75.7411 671.957 72.1988 667.207 69.3428C662.457 66.4869 656.376 64.4311 649.65 63.4073Z" fill="white"/>
<path d="M114.978 60.2914C113.931 64.5632 114.76 69.0108 117.307 72.7897C119.854 76.5685 123.942 79.4152 128.795 80.7892C133.647 82.1631 138.926 81.9686 143.629 80.2425C148.332 78.5164 152.131 75.379 154.305 71.4262C155.651 74.3945 158.025 76.9419 161.111 78.7307C164.197 80.5194 167.849 81.4649 171.585 81.4419C171.987 81.4394 172.39 81.4368 172.785 81.3987C174.361 85.7028 177.358 89.5265 181.417 92.4127C185.477 95.2989 190.428 97.1255 195.679 97.6742C200.93 98.2228 206.258 97.4704 211.026 95.5068C215.795 93.5431 219.802 90.4514 222.569 86.6011C225.14 87.7026 227.979 88.2739 230.859 88.269C233.738 88.264 236.577 87.6831 239.148 86.5727C241.719 85.4624 243.949 83.8538 245.66 81.8761C247.371 79.8985 248.515 77.607 248.999 75.1861C252.13 77.5133 256.096 78.8657 260.25 79.0228C264.403 79.18 268.499 78.1325 271.871 76.0513C273.999 78.2273 276.78 79.8698 279.919 80.8044C283.058 81.739 286.436 81.9307 289.696 81.3593C292.956 80.7878 295.975 79.4744 298.433 77.5587C300.891 75.643 302.695 73.1965 303.655 70.479C306.322 72.915 309.721 74.6812 313.485 75.5866C317.248 76.4919 321.232 76.5019 325.006 75.6154C327.069 79.0165 330.333 81.7779 334.338 83.5105C338.343 85.2432 342.887 85.8597 347.33 85.2732C351.257 88.4853 356.474 90.3003 361.921 90.35C367.368 90.3996 372.638 88.6802 376.66 85.5406C380.461 86.4659 384.491 86.4766 388.304 85.5716C392.116 84.6666 395.563 82.8812 398.264 80.4125C400.11 83.3361 402.857 85.7735 406.209 87.4623C409.562 89.1511 413.393 90.0274 417.29 89.9968L417.436 89.9959C419.488 95.0868 423.54 99.4138 428.908 102.245C434.276 105.076 440.629 106.237 446.894 105.532C453.159 104.827 458.95 102.299 463.289 98.3757C467.627 94.4525 470.246 89.3748 470.702 84.0016C471.07 83.9992 471.445 83.9968 471.82 83.9944C475.505 83.9753 479.133 83.2025 482.399 81.7408C485.665 80.279 488.474 78.1711 490.589 75.5941C492.704 73.0171 494.064 70.0462 494.554 66.931C495.045 63.8158 494.652 60.6472 493.408 57.6915C492.164 54.7357 490.106 52.0791 487.406 49.9447C484.707 47.8103 481.444 46.2606 477.893 45.4256C474.342 44.5906 470.607 44.4948 467 45.1461C463.393 45.7975 460.02 47.177 457.165 49.1689L350.948 49.8509C346.9 48.6876 342.533 48.5838 338.41 49.5527C336.577 46.5227 333.786 43.9919 330.352 42.2465C326.918 40.5011 322.977 39.6106 318.976 39.6757C314.975 39.7408 311.073 40.7589 307.711 42.6149C304.348 44.4709 301.66 47.0908 299.95 50.1784L271.49 50.3611C268.397 48.5544 264.727 47.599 260.974 47.6231C257.22 47.6472 253.563 48.6497 250.493 50.496L177.858 50.9624C173.679 49.6553 169.082 49.6849 164.92 51.0455L150.072 51.1408C146.822 48.4089 142.605 46.6661 138.073 46.1811C138.105 45.7725 138.13 45.364 138.127 44.9497C138.1 42.0234 137.113 39.1635 135.28 36.6929C133.446 34.2223 130.838 32.2392 127.75 30.9674C124.661 29.6956 121.216 29.1857 117.802 29.4952C114.388 29.8048 111.142 30.9214 108.429 32.7192C105.717 34.5169 103.646 36.9243 102.45 39.6696C101.255 42.4149 100.982 45.3889 101.663 48.256C102.344 51.1231 103.951 53.7693 106.304 55.8959C108.657 58.0225 111.661 59.5449 114.978 60.2914Z" fill="white"/>
<path d="M487 40.0001H384.08V225.624L350.232 262.966L306.031 291.011L224 322L108 337.5H-24V355.5H224H405.5H487H615.5V57L487 40.0001Z" fill="white"/>
<path d="M381.849 289.945C377.61 290.354 373.256 289.596 369.613 287.815C365.971 286.035 363.294 283.355 362.091 280.285C360.888 277.216 361.243 273.97 363.087 271.164C364.932 268.359 368.139 266.189 372.098 265.068C369.217 264.072 366.782 262.467 365.116 260.464C363.45 258.461 362.631 256.156 362.769 253.853C362.784 253.605 362.799 253.356 362.849 253.115C358.66 251.904 354.987 249.843 352.27 247.179C349.554 244.514 347.908 241.359 347.53 238.089C347.152 234.82 348.057 231.575 350.138 228.742C352.218 225.909 355.387 223.609 359.263 222.115C358.258 220.468 357.783 218.685 357.877 216.909C357.971 215.133 358.63 213.414 359.803 211.889C360.976 210.365 362.629 209.078 364.629 208.132C366.629 207.187 368.921 206.608 371.32 206.444C369.125 204.383 367.915 201.862 367.889 199.291C367.862 196.72 369.02 194.251 371.174 192.287C369.097 190.853 367.565 189.046 366.742 187.058C365.919 185.07 365.834 182.975 366.497 180.996C367.161 179.017 368.547 177.227 370.509 175.817C372.472 174.407 374.937 173.43 377.642 172.988C375.326 171.208 373.691 169.013 372.916 166.641C372.141 164.27 372.254 161.811 373.243 159.532C369.958 158.071 367.34 155.905 365.757 153.338C364.175 150.772 363.708 147.934 364.423 145.226C361.381 142.625 359.755 139.306 359.874 135.943C359.993 132.58 361.849 129.425 365.065 127.118C364.271 124.721 364.385 122.235 365.394 119.933C366.403 117.631 368.267 115.604 370.782 114.075C367.96 112.774 365.644 110.944 364.085 108.783C362.526 106.621 361.781 104.209 361.931 101.806L361.937 101.717C356.987 100.169 352.852 97.429 350.23 93.9608C347.608 90.4925 346.661 86.5086 347.548 82.683C348.436 78.8574 351.104 75.4249 355.101 72.9662C359.098 70.5074 364.179 69.1734 369.484 69.1896C369.498 68.9628 369.511 68.7317 369.525 68.5006C369.658 66.2282 370.531 64.033 372.071 62.0993C373.611 60.1656 375.774 58.55 378.377 57.3881C380.979 56.2262 383.947 55.552 387.029 55.4221C390.112 55.2921 393.22 55.7103 396.092 56.6415C398.964 57.5727 401.517 58.9896 403.535 60.7733C405.553 62.557 406.979 64.6554 407.691 66.8922C408.404 69.129 408.383 71.4388 407.63 73.6278C406.877 75.8168 405.415 77.8209 403.365 79.4718L399.414 144.957C400.435 147.519 400.402 150.219 399.321 152.709C402.248 154.007 404.654 155.869 406.266 158.084C407.879 160.3 408.634 162.78 408.447 165.244C408.259 167.709 407.136 170.06 405.205 172.031C403.273 174.002 400.611 175.515 397.517 176.399L396.459 193.945C398.142 195.954 398.97 198.271 398.83 200.585C398.691 202.899 397.591 205.099 395.678 206.891L392.976 251.672C394.134 254.323 393.963 257.157 392.495 259.649L391.942 268.803C394.532 270.96 396.118 273.657 396.456 276.48C396.859 276.483 397.262 276.49 397.67 276.515C400.551 276.694 403.336 277.461 405.712 278.729C408.089 279.998 409.961 281.716 411.118 283.692C412.275 285.667 412.67 287.821 412.26 289.91C411.85 291.999 410.65 293.939 408.796 295.513C406.942 297.087 404.508 298.231 401.768 298.816C399.028 299.402 401.632 308.795 398.83 308.216C396.028 307.637 387.93 297.109 385.909 295.539C383.888 293.97 382.481 292.032 381.849 289.945Z" fill="white"/>
<path d="M153.732 348.794C154.383 345.882 156.195 343.171 158.825 341.178C161.454 339.184 164.717 338.047 167.994 337.981C171.271 337.915 174.334 338.926 176.601 340.821C176.714 338.689 177.553 336.57 179.007 334.744C180.461 332.917 182.461 331.471 184.743 330.596C184.989 330.502 185.235 330.408 185.485 330.337C185.419 327.335 186.334 324.288 188.12 321.56C189.905 318.833 192.487 316.539 195.556 314.955C198.624 313.371 202.05 312.562 205.424 312.625C208.798 312.689 211.977 313.622 214.58 315.314C215.884 314.03 217.478 313.005 219.234 312.323C220.99 311.641 222.858 311.32 224.689 311.386C226.52 311.452 228.263 311.903 229.777 312.702C231.291 313.502 232.534 314.629 233.406 315.991C234.759 313.825 236.853 312.056 239.347 310.972C241.84 309.888 244.586 309.552 247.136 310.02C247.915 308.185 249.218 306.521 250.908 305.204C252.597 303.886 254.61 302.965 256.733 302.538C258.856 302.111 261.008 302.194 262.963 302.778C264.917 303.363 266.6 304.426 267.832 305.857C268.877 303.735 270.527 301.848 272.604 300.4C274.682 298.952 277.107 297.998 279.618 297.641C280.064 295.074 281.395 292.612 283.422 290.601C285.45 288.591 288.072 287.133 290.919 286.433C292.546 283.538 295.292 281.189 298.6 279.863C301.907 278.536 305.528 278.331 308.727 279.29C310.823 277.821 313.276 276.855 315.815 276.5C318.354 276.145 320.88 276.415 323.114 277.279C323.542 275.055 324.635 272.914 326.275 271.085C327.915 269.257 330.041 267.81 332.423 266.901L332.512 266.867C332.548 263.272 333.986 259.666 336.583 256.661C339.179 253.656 342.773 251.435 346.759 250.374C350.744 249.314 354.876 249.478 358.454 250.84C362.033 252.202 364.839 254.678 366.398 257.849L367.081 257.587C369.331 256.722 371.726 256.33 374.064 256.445C376.403 256.56 378.617 257.178 380.52 258.248C382.423 259.317 383.96 260.807 385.001 262.591C386.042 264.376 386.558 266.403 386.505 268.503C386.451 270.603 385.83 272.715 384.694 274.66C383.558 276.605 381.939 278.327 379.975 279.682C378.01 281.037 375.756 281.984 373.403 282.445C371.05 282.906 368.666 282.866 366.452 282.33L301.567 307.192C299.377 308.865 296.741 309.968 293.997 310.358C293.603 312.643 292.506 314.852 290.829 316.734C289.152 318.617 286.964 320.098 284.51 321.011C282.057 321.923 279.436 322.23 276.945 321.898C274.454 321.565 272.191 320.606 270.413 319.129L253.028 325.79C251.574 327.629 249.565 329.085 247.272 329.964C244.979 330.842 242.512 331.101 240.201 330.705L195.831 347.706C193.595 349.498 190.788 350.574 187.927 350.734L178.857 354.209L153.847 353.942C153.385 352.307 153.339 350.551 153.732 348.794Z" fill="white"/>
<path d="M75.4439 339.321C74.5416 336.584 74.8536 333.636 76.3205 331.037C77.7875 328.438 80.3073 326.369 83.4014 325.223C86.4954 324.076 89.9481 323.933 93.1038 324.819C96.2594 325.705 98.8982 327.56 100.519 330.03C101.244 328.022 102.661 326.236 104.582 324.91C106.503 323.583 108.836 322.778 111.273 322.601C111.536 322.582 111.799 322.563 112.059 322.568C112.865 319.676 114.623 317.024 117.122 314.931C119.622 312.837 122.757 311.39 126.153 310.762C129.549 310.135 133.062 310.353 136.273 311.391C139.484 312.429 142.256 314.243 144.258 316.616C145.878 315.765 147.7 315.246 149.578 315.101C151.456 314.957 153.338 315.191 155.071 315.784C156.805 316.378 158.342 317.314 159.56 318.518C160.777 319.722 161.641 321.16 162.081 322.717C164.003 321.036 166.52 319.949 169.221 319.633C171.921 319.318 174.647 319.792 176.952 320.978C178.228 319.448 179.958 318.232 181.957 317.461C183.956 316.689 186.149 316.391 188.304 316.597C190.46 316.803 192.496 317.506 194.197 318.631C195.899 319.756 197.201 321.262 197.967 322.988C199.581 321.26 201.707 319.932 204.115 319.147C206.522 318.363 209.12 318.152 211.627 318.537C212.797 316.21 214.784 314.239 217.307 312.901C219.83 311.564 222.762 310.928 225.689 311.084C228.085 308.784 231.394 307.331 234.944 307.019C238.494 306.707 242.019 307.56 244.803 309.404C247.235 308.605 249.862 308.391 252.395 308.787C254.928 309.182 257.268 310.172 259.156 311.646C260.209 309.641 261.876 307.908 263.975 306.633C266.075 305.358 268.528 304.589 271.072 304.409L271.167 304.402C272.243 300.972 274.664 297.938 278.019 295.813C281.374 293.689 285.458 292.604 289.58 292.743C293.702 292.882 297.608 294.237 300.639 296.577C303.67 298.917 305.639 302.099 306.212 305.586L306.942 305.533C309.346 305.356 311.752 305.675 313.957 306.462C316.162 307.25 318.101 308.482 319.613 310.057C321.125 311.632 322.164 313.503 322.644 315.513C323.124 317.522 323.031 319.612 322.371 321.607C321.712 323.601 320.506 325.442 318.855 326.975C317.204 328.508 315.156 329.687 312.883 330.415C310.611 331.142 308.179 331.397 305.793 331.156C303.408 330.916 301.137 330.188 299.173 329.033L229.868 334.036C227.288 335.004 224.446 335.295 221.707 334.874C220.667 336.947 218.977 338.744 216.827 340.06C214.677 341.376 212.153 342.16 209.541 342.323C206.928 342.485 204.331 342.021 202.043 340.981C199.755 339.941 197.867 338.367 196.593 336.438L178.024 337.779C176.099 339.118 173.755 339.93 171.306 340.107C168.857 340.284 166.42 339.816 164.323 338.768L116.93 342.189C114.272 343.257 111.273 343.474 108.488 342.798L98.8004 343.498C96.8208 345.449 94.1607 346.804 91.2298 347.353C91.2717 347.618 91.3091 347.884 91.3287 348.155C91.4609 350.068 90.9645 351.986 89.8955 353.694L58.1207 352.595C58.4176 350.687 68.5876 344.147 70.0128 342.637C71.438 341.127 73.3191 339.979 75.4439 339.321Z" fill="white"/>
<path d="M500.647 83.9109C501.278 89.0014 499.8 94.0729 496.492 98.1622C493.185 102.252 488.278 105.074 482.706 106.093C477.133 107.112 471.281 106.257 466.263 103.69C461.244 101.124 457.408 97.0239 455.483 92.17C453.613 95.4602 450.653 98.1387 446.994 99.8505C443.335 101.562 439.152 102.226 434.997 101.755C434.549 101.704 434.102 101.653 433.666 101.561C431.374 106.377 427.56 110.465 422.681 113.336C417.801 116.208 412.062 117.741 406.149 117.754C400.236 117.766 394.4 116.257 389.338 113.406C384.276 110.555 380.202 106.484 377.604 101.679C374.605 102.653 371.373 102.979 368.169 102.63C364.965 102.281 361.877 101.268 359.155 99.6707C356.432 98.0737 354.15 95.938 352.493 93.4353C350.836 90.9325 349.85 88.1326 349.614 85.2607C345.838 87.593 341.255 88.6927 336.612 88.3806C331.969 88.0685 327.541 86.3629 324.049 83.542C321.408 85.818 318.106 87.396 314.496 88.1086C310.886 88.8211 307.101 88.6415 303.545 87.5889C299.988 86.5363 296.792 84.6499 294.295 82.1302C291.799 79.6105 290.097 76.5515 289.368 73.2783C286.095 75.7923 282.091 77.4405 277.789 78.0447C273.487 78.6488 269.051 78.1858 264.962 76.7057C262.24 80.4137 258.262 83.2349 253.588 84.7719C248.913 86.309 243.778 86.4843 238.906 85.2733C234.133 88.5394 228.1 90.0279 222.031 89.4368C215.962 88.8456 210.312 86.2191 206.227 82.0904C201.88 82.7131 197.394 82.2455 193.264 80.7394C189.133 79.2332 185.52 76.7471 182.822 73.5557C180.402 76.7343 177.04 79.2405 173.097 80.8043C169.155 82.3681 164.781 82.9304 160.447 82.4306L160.285 82.4121C157.364 88.0858 152.313 92.6329 145.984 95.2843C139.656 97.9358 132.438 98.5287 125.554 96.9629C118.669 95.3971 112.539 91.7686 108.201 86.6913C103.863 81.6139 101.583 75.3994 101.747 69.0989C101.337 69.0523 100.921 69.0049 100.504 68.9574C96.404 68.4962 92.4625 67.1657 89.0102 65.0774C85.5579 62.9892 82.6957 60.2043 80.6638 56.9566C78.632 53.709 77.4899 50.0935 77.3335 46.4138C77.1771 42.734 78.011 39.0975 79.7651 35.8098C81.5192 32.522 84.1423 29.6789 87.4141 27.5194C90.6859 25.3599 94.5108 23.9469 98.5675 23.3993C102.624 22.8516 106.794 23.1852 110.728 24.3721C114.661 25.5589 118.242 27.5643 121.171 30.2199L239.309 43.6654C243.961 42.7953 248.834 43.1948 253.302 44.8123C255.721 41.5083 259.144 38.8989 263.185 37.279C267.225 35.6591 271.723 35.0933 276.168 35.6456C280.613 36.1979 284.829 37.8462 288.339 40.4042C291.849 42.9623 294.514 46.328 296.031 50.121L327.685 53.7235C331.354 51.9918 335.559 51.3183 339.733 51.7934C343.908 52.2686 347.853 53.8696 351.039 56.3815L431.826 65.576C436.642 64.5545 441.754 65.1363 446.217 67.2138L462.731 69.0933C466.691 66.3047 471.602 64.7811 476.707 64.7572C476.722 64.2785 476.745 63.8006 476.8 63.3193C477.197 59.9208 478.653 56.7139 481.003 54.0603C483.353 51.4068 486.504 49.4122 490.1 48.3016C493.696 47.1911 497.595 47.0088 501.356 47.7752C505.117 48.5417 508.59 50.2265 511.385 52.6394C514.179 55.0524 516.183 58.0976 517.171 61.4313C518.158 64.765 518.09 68.2546 516.973 71.5064C515.857 74.7582 513.736 77.6427 510.852 79.8345C507.967 82.0263 504.432 83.4382 500.647 83.9109Z" fill="white"/>
<path d="M-197.218 55.2911C-198.265 59.5629 -197.436 64.0106 -194.889 67.7894C-192.342 71.5682 -188.254 74.415 -183.402 75.7889C-178.549 77.1629 -173.27 76.9683 -168.567 75.2422C-163.864 73.5162 -160.065 70.3788 -157.891 66.426C-156.545 69.3943 -154.172 71.9417 -151.086 73.7304C-148 75.5192 -144.347 76.4647 -140.612 76.4417C-140.209 76.4391 -139.807 76.4365 -139.411 76.3985C-137.836 80.7026 -134.839 84.5262 -130.779 87.4124C-126.719 90.2986 -121.768 92.1252 -116.517 92.6739C-111.266 93.2226 -105.938 92.4702 -101.17 90.5065C-96.4013 88.5429 -92.3941 85.4512 -89.627 81.6008C-87.0563 82.7024 -84.2171 83.2736 -81.3377 83.2687C-78.4583 83.2638 -75.619 82.6828 -73.0482 81.5725C-70.4775 80.4622 -68.2469 78.8535 -66.5359 76.8759C-64.825 74.8982 -63.6814 72.6068 -63.1971 70.1858C-60.0659 72.513 -56.1003 73.8655 -51.9468 74.0226C-47.7932 74.1797 -43.6969 73.1323 -40.3258 71.0511C-38.1972 73.2271 -35.4158 74.8696 -32.2772 75.8042C-29.1386 76.7388 -25.76 76.9305 -22.5002 76.359C-19.2404 75.7875 -16.2212 74.4742 -13.7634 72.5585C-11.3056 70.6427 -9.50089 68.1962 -8.54105 65.4788C-5.87406 67.9148 -2.47493 69.681 1.2884 70.5863C5.05173 71.4917 9.0359 71.5016 12.8097 70.6151C14.8727 74.0163 18.1365 76.7777 22.1414 78.5103C26.1463 80.2429 30.6904 80.8594 35.1336 80.273C39.0609 83.485 44.2776 85.3001 49.7247 85.3497C55.1719 85.3994 60.4414 83.6799 64.4637 80.5404C68.2652 81.4656 72.2948 81.4763 76.1073 80.5713C79.9199 79.6664 83.367 77.8809 86.0679 75.4123C87.9136 78.3359 90.6605 80.7732 94.0131 82.4621C97.3656 84.1509 101.197 85.0271 105.094 84.9966L105.24 84.9956C107.291 90.0866 111.344 94.4135 116.712 97.2444C122.079 100.075 128.433 101.237 134.698 100.532C140.963 99.8265 146.754 97.2986 151.092 93.3754C155.431 89.4522 158.05 84.3746 158.506 79.0014C158.874 78.999 159.249 78.9966 159.624 78.9942C163.309 78.9751 166.937 78.2023 170.203 76.7405C173.469 75.2788 176.277 73.1709 178.393 70.5939C180.508 68.0168 181.868 65.046 182.358 61.9307C182.849 58.8155 182.455 55.647 181.212 52.6912C179.968 49.7355 177.91 47.0788 175.21 44.9445C172.51 42.8101 169.248 41.2603 165.697 40.4253C162.146 39.5903 158.41 39.4945 154.803 40.1459C151.196 40.7972 147.824 42.1768 144.968 44.1686L38.7518 44.8507C34.7032 43.6874 30.3367 43.5835 26.2133 44.5524C24.3808 41.5225 21.5898 38.9917 18.1556 37.2463C14.7214 35.5008 10.781 34.6103 6.77995 34.6754C2.77887 34.7405 -1.12336 35.7586 -4.48563 37.6146C-7.8479 39.4706 -10.5361 42.0905 -12.2464 45.1782L-40.7059 45.3609C-43.7996 43.5542 -47.4694 42.5987 -51.2227 42.6228C-54.9761 42.6469 -58.6333 43.6494 -61.7035 45.4957L-134.338 45.9621C-138.517 44.6551 -143.114 44.6846 -147.277 46.0452L-162.124 46.1406C-165.375 43.4086 -169.591 41.6659 -174.123 41.1809C-174.091 40.7723 -174.066 40.3638 -174.069 39.9495C-174.097 37.0231 -175.083 34.1633 -176.917 31.6927C-178.75 29.2221 -181.359 27.239 -184.447 25.9672C-187.535 24.6953 -190.98 24.1855 -194.394 24.495C-197.808 24.8045 -201.054 25.9212 -203.767 27.7189C-206.48 29.5167 -208.551 31.9241 -209.746 34.6694C-210.942 37.4147 -211.214 40.3886 -210.533 43.2557C-209.852 46.1229 -208.245 48.769 -205.892 50.8956C-203.539 53.0222 -200.535 54.5447 -197.218 55.2911Z" fill="white"/>
</svg>
