<svg width="2048" height="868" viewBox="0 0 2048 868" fill="none" xmlns="http://www.w3.org/2000/svg">
<g clip-path="url(#clip0)">
<path d="M1406.77 342.575C1408.57 347.675 1406.94 352.887 1402.2 357.223C1397.46 361.559 1389.94 364.715 1381.06 366.094C1372.18 367.472 1362.56 366.975 1354.03 364.699C1345.51 362.422 1338.66 358.524 1334.8 353.744C1332.27 357.183 1327.88 360.073 1322.21 362.03C1316.54 363.987 1309.86 364.92 1303.05 364.704C1302.31 364.681 1301.58 364.657 1300.86 364.592C1297.88 369.598 1292.32 373.963 1284.84 377.168C1277.37 380.373 1268.29 382.281 1258.71 382.664C1249.13 383.047 1239.43 381.889 1230.79 379.328C1222.15 376.768 1214.93 372.913 1209.99 368.225C1205.27 369.396 1200.08 369.928 1194.83 369.776C1189.58 369.625 1184.42 368.795 1179.77 367.354C1175.11 365.912 1171.09 363.899 1168.02 361.477C1164.95 359.054 1162.93 356.289 1162.11 353.405C1156.34 355.996 1149.08 357.393 1141.5 357.369C1133.93 357.345 1126.49 355.901 1120.4 353.272C1116.46 355.735 1111.35 357.535 1105.6 358.481C1099.86 359.426 1093.7 359.482 1087.77 358.643C1081.84 357.803 1076.37 356.099 1071.94 353.711C1067.51 351.324 1064.29 348.343 1062.61 345.084C1057.68 347.827 1051.44 349.742 1044.56 350.622C1037.68 351.501 1030.41 351.312 1023.56 350.074C1019.71 353.988 1013.69 357.085 1006.35 358.93C999.001 360.775 990.702 361.273 982.619 360.356C975.378 363.953 965.822 365.833 955.892 365.617C945.962 365.401 936.402 363.103 929.152 359.191C922.199 360.092 914.854 359.901 907.929 358.64C901.003 357.378 894.766 355.095 889.908 352.042C886.468 355.403 881.397 358.143 875.243 359.969C869.089 361.795 862.083 362.637 854.98 362.404L854.715 362.396C850.843 368.306 843.345 373.213 833.487 376.287C823.63 379.36 812.019 380.411 800.618 379.262C789.218 378.113 778.728 374.834 770.922 369.98C763.116 365.126 758.474 358.995 757.782 352.624C757.111 352.603 756.428 352.581 755.745 352.56C749.028 352.351 742.435 351.255 736.52 349.363C730.605 347.471 725.541 344.839 721.753 341.688C717.965 338.537 715.563 334.958 714.75 331.253C713.936 327.548 714.735 323.825 717.079 320.396C719.423 316.967 723.243 313.932 728.219 311.547C733.195 309.162 739.181 307.496 745.675 306.688C752.169 305.881 758.981 305.957 765.538 306.908C772.096 307.86 778.208 309.66 783.36 312.157L976.943 318.326C984.352 317.156 992.314 317.254 999.804 318.607C1003.22 315.12 1008.38 312.271 1014.68 310.383C1020.99 308.494 1028.19 307.641 1035.48 307.92C1042.77 308.199 1049.86 309.599 1055.94 311.961C1062.02 314.323 1066.85 317.554 1069.89 321.288L1121.76 322.941C1127.44 320.963 1134.16 320.02 1141 320.238C1147.84 320.456 1154.48 321.825 1160.03 324.161L1292.4 328.379C1300.06 327.046 1308.43 327.313 1315.98 329.131L1343.04 329.993C1349.04 326.93 1356.77 325.084 1365.04 324.74C1365 324.255 1364.96 323.772 1364.98 323.282C1365.1 319.827 1366.98 316.498 1370.38 313.672C1373.79 310.845 1378.59 308.634 1384.26 307.288C1389.92 305.941 1396.21 305.513 1402.42 306.051C1408.64 306.589 1414.53 308.072 1419.42 310.333C1424.32 312.594 1428.03 315.542 1430.14 318.846C1432.25 322.15 1432.67 325.677 1431.35 329.029C1430.04 332.382 1427.04 335.427 1422.7 337.821C1418.35 340.214 1412.84 341.861 1406.77 342.575Z" fill="#D9D9D9"/>
<path d="M980.29 336.188C982.061 341.287 980.455 346.5 975.779 350.837C971.102 355.175 963.679 358.335 954.921 359.717C946.163 361.099 936.679 360.607 928.271 358.334C919.863 356.061 913.116 352.166 909.312 347.388C906.815 350.828 902.482 353.72 896.888 355.679C891.295 357.639 884.705 358.575 877.992 358.362C877.268 358.339 876.544 358.316 875.835 358.251C872.89 363.258 867.404 367.626 860.031 370.834C852.658 374.042 843.711 375.954 834.259 376.341C824.807 376.728 815.249 375.575 806.73 373.018C798.21 370.461 791.087 366.61 786.214 361.923C781.565 363.097 776.447 363.631 771.271 363.482C766.096 363.333 761.007 362.506 756.415 361.066C751.823 359.627 747.856 357.615 744.832 355.194C741.809 352.773 739.813 350.009 739.005 347.125C733.317 349.718 726.153 351.119 718.683 351.098C711.214 351.078 703.878 349.637 697.873 347.01C693.99 349.475 688.948 351.278 683.282 352.226C677.616 353.174 671.538 353.233 665.694 352.395C659.849 351.558 654.457 349.857 650.089 347.471C645.721 345.086 642.541 342.106 640.887 338.848C636.029 341.593 629.873 343.511 623.085 344.394C616.297 345.276 609.136 345.09 602.376 343.855C598.579 347.771 592.64 350.871 585.396 352.719C578.152 354.567 569.969 355.069 561.998 354.156C554.855 357.755 545.43 359.64 535.638 359.428C525.846 359.216 516.419 356.923 509.271 353.014C502.414 353.918 495.171 353.731 488.341 352.472C481.512 351.214 475.363 348.933 470.572 345.882C467.178 349.244 462.177 351.987 456.107 353.816C450.037 355.645 443.128 356.489 436.124 356.26L435.862 356.251C432.041 362.164 424.644 367.074 414.922 370.152C405.2 373.229 393.749 374.285 382.507 373.141C371.264 371.997 360.921 368.723 353.225 363.873C345.529 359.022 340.955 352.893 340.274 346.523C339.613 346.502 338.939 346.48 338.266 346.459C331.642 346.253 325.141 345.16 319.309 343.271C313.476 341.382 308.483 338.752 304.749 335.602C301.014 332.453 298.648 328.876 297.847 325.171C297.047 321.466 297.836 317.743 300.149 314.313C302.462 310.883 306.231 307.846 311.139 305.459C316.047 303.072 321.951 301.403 328.356 300.593C334.76 299.783 341.478 299.855 347.944 300.804C354.41 301.753 360.437 303.55 365.517 306.045L556.418 312.129C563.726 310.956 571.577 311.05 578.964 312.399C582.336 308.911 587.419 306.06 593.637 304.168C599.856 302.277 606.962 301.421 614.152 301.697C621.342 301.972 628.329 303.369 634.324 305.729C640.319 308.088 645.083 311.317 648.077 315.05L699.227 316.68C704.834 314.699 711.456 313.753 718.201 313.968C724.947 314.183 731.495 315.549 736.965 317.882L867.51 322.042C875.057 320.706 883.318 320.969 890.764 322.784L917.45 323.634C923.364 320.568 930.988 318.719 939.147 318.371C939.1 317.887 939.066 317.403 939.081 316.913C939.207 313.458 941.055 310.128 944.416 307.301C947.776 304.473 952.516 302.26 958.1 300.911C963.684 299.562 969.89 299.131 976.018 299.666C982.146 300.201 987.952 301.682 992.781 303.94C997.61 306.199 1001.27 309.146 1003.35 312.448C1005.42 315.751 1005.84 319.278 1004.54 322.631C1003.24 325.985 1000.28 329.031 995.996 331.426C991.712 333.822 986.272 335.471 980.29 336.188Z" fill="#D9D9D9"/>
<path d="M1287.14 310.291C1284.39 319.114 1285.57 328.547 1290.46 336.8C1295.36 345.052 1303.63 351.548 1313.7 355.054C1323.77 358.56 1334.94 358.832 1345.1 355.818C1355.25 352.804 1363.68 346.714 1368.77 338.705C1371.24 345.103 1375.92 350.751 1382.21 354.899C1388.5 359.048 1396.09 361.501 1403.98 361.934C1404.83 361.98 1405.68 362.026 1406.52 361.998C1409.3 371.226 1415.14 379.63 1423.34 386.206C1431.55 392.781 1441.77 397.249 1452.79 399.076C1463.81 400.903 1475.16 400.011 1485.48 396.507C1495.8 393.004 1504.66 387.036 1511 379.318C1516.29 381.959 1522.21 383.523 1528.29 383.883C1534.37 384.244 1540.44 383.391 1546.01 381.394C1551.59 379.397 1556.5 376.31 1560.37 372.384C1564.24 368.457 1566.94 363.799 1568.28 358.784C1574.59 364.068 1582.79 367.415 1591.55 368.279C1600.3 369.143 1609.08 367.474 1616.47 363.544C1620.68 368.382 1626.35 372.184 1632.86 374.548C1639.37 376.912 1646.48 377.749 1653.43 376.971C1660.39 376.192 1666.94 373.827 1672.37 370.126C1677.81 366.425 1681.93 361.527 1684.31 355.952C1689.63 361.404 1696.58 365.546 1704.41 367.929C1712.25 370.312 1720.66 370.846 1728.74 369.473C1732.66 376.871 1739.2 383.082 1747.44 387.231C1755.67 391.38 1765.19 393.258 1774.65 392.601C1782.53 399.842 1793.32 404.32 1804.82 405.126C1816.31 405.931 1827.66 403.004 1836.56 396.939C1844.47 399.368 1852.98 399.91 1861.15 398.503C1869.31 397.096 1876.82 393.796 1882.84 388.967C1886.37 395.336 1891.85 400.801 1898.72 404.774C1905.58 408.747 1913.56 411.078 1921.8 411.516L1922.1 411.533C1925.78 422.473 1933.79 432.068 1944.76 438.696C1955.74 445.324 1969.01 448.577 1982.33 447.905C1995.65 447.234 2008.2 442.678 2017.87 435.01C2027.53 427.342 2033.71 417.031 2035.37 405.822C2036.14 405.865 2036.93 405.908 2037.73 405.951C2045.51 406.386 2053.27 405.232 2060.36 402.587C2067.44 399.943 2073.64 395.884 2078.44 390.752C2083.24 385.621 2086.49 379.566 2087.92 373.096C2089.36 366.627 2088.94 359.932 2086.69 353.573C2084.44 347.215 2080.43 341.379 2075 336.555C2069.58 331.732 2062.88 328.062 2055.49 325.854C2048.1 323.645 2040.22 322.963 2032.52 323.865C2024.82 324.766 2017.52 327.225 2011.24 331.034L1786.83 318.785C1778.43 315.825 1769.22 315.044 1760.39 316.545C1756.9 309.955 1751.33 304.289 1744.3 300.186C1737.28 296.084 1729.07 293.709 1720.61 293.33C1712.15 292.952 1703.78 294.584 1696.44 298.043C1689.1 301.502 1683.09 306.65 1679.08 312.904L1618.96 309.623C1612.65 305.435 1605.03 302.959 1597.1 302.526C1589.17 302.094 1581.31 303.725 1574.59 307.201L1421.14 298.825C1412.48 295.546 1402.76 295.016 1393.8 297.333L1362.43 295.621C1355.92 289.474 1347.23 285.276 1337.72 283.675C1337.84 282.823 1337.95 281.969 1338 281.1C1338.31 274.96 1336.6 268.836 1333.04 263.419C1329.48 258.002 1324.23 253.507 1317.87 250.442C1311.51 247.378 1304.3 245.865 1297.05 246.074C1289.8 246.284 1282.8 248.207 1276.84 251.628C1270.89 255.048 1266.2 259.83 1263.33 265.433C1260.45 271.036 1259.49 277.237 1260.56 283.337C1261.64 289.438 1264.69 295.194 1269.39 299.956C1274.08 304.719 1280.23 308.298 1287.14 310.291Z" fill="white"/>
<path d="M1287.14 310.291C1284.39 319.114 1285.57 328.547 1290.46 336.8C1295.36 345.052 1303.63 351.548 1313.7 355.054C1323.77 358.56 1334.94 358.832 1345.1 355.818C1355.25 352.804 1363.68 346.714 1368.77 338.705C1371.24 345.103 1375.92 350.751 1382.21 354.899C1388.5 359.048 1396.09 361.501 1403.98 361.934C1404.83 361.98 1405.68 362.026 1406.52 361.998C1409.3 371.226 1415.14 379.63 1423.34 386.206C1431.55 392.781 1441.77 397.249 1452.79 399.076C1463.81 400.903 1475.16 400.011 1485.48 396.507C1495.8 393.004 1504.66 387.036 1511 379.318C1516.29 381.959 1522.21 383.523 1528.29 383.883C1534.37 384.244 1540.44 383.391 1546.01 381.394C1551.59 379.397 1556.5 376.31 1560.37 372.384C1564.24 368.457 1566.94 363.799 1568.28 358.784C1574.59 364.068 1582.79 367.415 1591.55 368.279C1600.3 369.143 1609.08 367.474 1616.47 363.544C1620.68 368.382 1626.35 372.184 1632.86 374.548C1639.37 376.912 1646.48 377.749 1653.43 376.971C1660.39 376.192 1666.94 373.827 1672.37 370.126C1677.81 366.425 1681.93 361.527 1684.31 355.952C1689.63 361.404 1696.58 365.546 1704.41 367.929C1712.25 370.312 1720.66 370.846 1728.74 369.473C1732.66 376.871 1739.2 383.082 1747.44 387.231C1755.67 391.38 1765.19 393.258 1774.65 392.601C1782.53 399.842 1793.32 404.32 1804.82 405.126C1816.31 405.931 1827.66 403.004 1836.56 396.939C1844.47 399.368 1852.98 399.91 1861.15 398.503C1869.31 397.096 1876.82 393.796 1882.84 388.967C1886.37 395.336 1891.85 400.801 1898.72 404.774C1905.58 408.747 1913.56 411.078 1921.8 411.516L1922.1 411.533C1925.78 422.473 1933.79 432.068 1944.76 438.696C1955.74 445.324 1969.01 448.577 1982.33 447.905C1995.65 447.234 2008.2 442.678 2017.87 435.01C2027.53 427.342 2033.71 417.031 2035.37 405.822C2036.14 405.865 2036.93 405.908 2037.73 405.951C2045.51 406.386 2053.27 405.232 2060.36 402.587C2067.44 399.943 2073.64 395.884 2078.44 390.752C2083.24 385.621 2086.49 379.566 2087.92 373.096C2089.36 366.627 2088.94 359.932 2086.69 353.573C2084.44 347.215 2080.43 341.379 2075 336.555C2069.58 331.732 2062.88 328.062 2055.49 325.854C2048.1 323.645 2040.22 322.963 2032.52 323.865C2024.82 324.766 2017.52 327.225 2011.24 331.034L1786.83 318.785C1778.43 315.825 1769.22 315.044 1760.39 316.545C1756.9 309.955 1751.33 304.289 1744.3 300.186C1737.28 296.084 1729.07 293.709 1720.61 293.33C1712.15 292.952 1703.78 294.584 1696.44 298.043C1689.1 301.502 1683.09 306.65 1679.08 312.904L1618.96 309.623C1612.65 305.435 1605.03 302.959 1597.1 302.526C1589.17 302.094 1581.31 303.725 1574.59 307.201L1421.14 298.825C1412.48 295.546 1402.76 295.016 1393.8 297.333L1362.43 295.621C1355.92 289.474 1347.23 285.276 1337.72 283.675C1337.84 282.823 1337.95 281.969 1338 281.1C1338.31 274.96 1336.6 268.836 1333.04 263.419C1329.48 258.002 1324.23 253.507 1317.87 250.442C1311.51 247.378 1304.3 245.865 1297.05 246.074C1289.8 246.284 1282.8 248.207 1276.84 251.628C1270.89 255.048 1266.2 259.83 1263.33 265.433C1260.45 271.036 1259.49 277.237 1260.56 283.337C1261.64 289.438 1264.69 295.194 1269.39 299.956C1274.08 304.719 1280.23 308.298 1287.14 310.291Z" fill="white"/>
<path d="M1382.26 323.608C1379.41 334.272 1380.48 345.627 1385.29 355.517C1390.09 365.408 1398.29 373.144 1408.33 377.256C1418.37 381.369 1429.55 381.571 1439.74 377.825C1449.94 374.08 1458.43 366.646 1463.62 356.937C1466.02 364.62 1470.64 371.373 1476.89 376.302C1483.13 381.231 1490.7 384.103 1498.6 384.536C1499.45 384.582 1500.3 384.629 1501.14 384.585C1503.81 395.675 1509.56 405.738 1517.7 413.57C1525.83 421.403 1536.01 426.673 1547.02 428.751C1558.02 430.829 1569.39 429.627 1579.76 425.289C1590.12 420.951 1599.05 413.661 1605.48 404.289C1610.74 407.412 1616.65 409.23 1622.73 409.597C1628.81 409.963 1634.9 408.867 1640.5 406.398C1646.09 403.929 1651.05 400.154 1654.96 395.379C1658.87 390.603 1661.64 384.959 1663.03 378.901C1669.29 385.198 1677.45 389.139 1686.2 390.083C1694.95 391.027 1703.76 388.917 1711.19 384.098C1715.36 389.88 1720.98 394.4 1727.47 397.176C1733.96 399.952 1741.06 400.881 1748.03 399.865C1755 398.849 1761.58 395.925 1767.06 391.404C1772.54 386.883 1776.72 380.934 1779.16 374.189C1784.42 380.7 1791.33 385.613 1799.14 388.397C1806.95 391.182 1815.37 391.731 1823.47 389.986C1827.31 398.858 1833.78 406.27 1841.98 411.177C1850.17 416.085 1859.68 418.242 1869.15 417.344C1876.95 425.982 1887.69 431.258 1899.19 432.1C1910.69 432.943 1922.07 429.288 1931.04 421.878C1938.93 424.718 1947.44 425.275 1955.63 423.488C1963.82 421.702 1971.37 417.641 1977.45 411.754C1980.9 419.389 1986.33 425.914 1993.15 430.625C1999.98 435.336 2007.94 438.056 2016.17 438.491L2016.48 438.508C2020.04 451.651 2027.94 463.126 2038.85 470.99C2049.75 478.854 2062.99 482.626 2076.33 481.668C2089.67 480.709 2102.28 475.079 2112.04 465.73C2121.79 456.38 2128.09 443.885 2129.87 430.358C2130.65 430.401 2131.44 430.444 2132.23 430.487C2140.02 430.924 2147.8 429.447 2154.92 426.18C2162.04 422.914 2168.29 417.953 2173.14 411.715C2178 405.477 2181.32 398.144 2182.83 390.331C2184.34 382.518 2183.99 374.455 2181.81 366.817C2179.63 359.179 2175.69 352.191 2170.31 346.439C2164.93 340.687 2158.28 336.339 2150.91 333.76C2143.54 331.182 2135.66 330.448 2127.95 331.621C2120.23 332.793 2112.9 335.838 2106.57 340.499L1882.16 328.25C1873.79 324.776 1864.58 323.939 1855.73 325.847C1852.32 317.944 1846.81 311.177 1839.82 306.312C1832.83 301.447 1824.64 298.677 1816.18 298.315C1807.73 297.953 1799.33 300.014 1791.95 304.265C1784.57 308.516 1778.49 314.787 1774.41 322.369L1714.29 319.087C1708.03 314.112 1700.42 311.213 1692.49 310.78C1684.56 310.348 1676.69 312.401 1669.92 316.666L1516.47 308.29C1507.84 304.435 1498.13 303.905 1489.13 306.798L1457.76 305.086C1451.31 297.75 1442.67 292.789 1433.17 290.966C1433.3 289.937 1433.42 288.908 1433.48 287.86C1433.86 280.456 1432.21 273.095 1428.71 266.607C1425.22 260.118 1420.01 254.761 1413.68 251.139C1407.35 247.516 1400.15 245.774 1392.9 246.107C1385.64 246.441 1378.62 248.837 1372.62 253.026C1366.61 257.215 1361.88 263.03 1358.93 269.815C1355.99 276.599 1354.97 284.084 1355.97 291.423C1356.97 298.762 1359.97 305.665 1364.61 311.352C1369.26 317.039 1375.37 321.284 1382.26 323.608Z" fill="white"/>
<path d="M1382.26 323.608C1379.41 334.272 1380.48 345.627 1385.29 355.517C1390.09 365.408 1398.29 373.144 1408.33 377.256C1418.37 381.369 1429.55 381.571 1439.74 377.825C1449.94 374.08 1458.43 366.646 1463.62 356.937C1466.02 364.62 1470.64 371.373 1476.89 376.302C1483.13 381.231 1490.7 384.103 1498.6 384.536C1499.45 384.582 1500.3 384.629 1501.14 384.585C1503.81 395.675 1509.56 405.738 1517.7 413.57C1525.83 421.403 1536.01 426.673 1547.02 428.751C1558.02 430.829 1569.39 429.627 1579.76 425.289C1590.12 420.951 1599.05 413.661 1605.48 404.289C1610.74 407.412 1616.65 409.23 1622.73 409.597C1628.81 409.963 1634.9 408.867 1640.5 406.398C1646.09 403.929 1651.05 400.154 1654.96 395.379C1658.87 390.603 1661.64 384.959 1663.03 378.901C1669.29 385.198 1677.45 389.139 1686.2 390.083C1694.95 391.027 1703.76 388.917 1711.19 384.098C1715.36 389.88 1720.98 394.4 1727.47 397.176C1733.96 399.952 1741.06 400.881 1748.03 399.865C1755 398.849 1761.58 395.925 1767.06 391.404C1772.54 386.883 1776.72 380.934 1779.16 374.189C1784.42 380.7 1791.33 385.613 1799.14 388.397C1806.95 391.182 1815.37 391.731 1823.47 389.986C1827.31 398.858 1833.78 406.27 1841.98 411.177C1850.17 416.085 1859.68 418.242 1869.15 417.344C1876.95 425.982 1887.69 431.258 1899.19 432.1C1910.69 432.943 1922.07 429.288 1931.04 421.878C1938.93 424.718 1947.44 425.275 1955.63 423.488C1963.82 421.702 1971.37 417.641 1977.45 411.754C1980.9 419.389 1986.33 425.914 1993.15 430.625C1999.98 435.336 2007.94 438.056 2016.17 438.491L2016.48 438.508C2020.04 451.651 2027.94 463.126 2038.85 470.99C2049.75 478.854 2062.99 482.626 2076.33 481.668C2089.67 480.709 2102.28 475.079 2112.04 465.73C2121.79 456.38 2128.09 443.885 2129.87 430.358C2130.65 430.401 2131.44 430.444 2132.23 430.487C2140.02 430.924 2147.8 429.447 2154.92 426.18C2162.04 422.914 2168.29 417.953 2173.14 411.715C2178 405.477 2181.32 398.144 2182.83 390.331C2184.34 382.518 2183.99 374.455 2181.81 366.817C2179.63 359.179 2175.69 352.191 2170.31 346.439C2164.93 340.687 2158.28 336.339 2150.91 333.76C2143.54 331.182 2135.66 330.448 2127.95 331.621C2120.23 332.793 2112.9 335.838 2106.57 340.499L1882.16 328.25C1873.79 324.776 1864.58 323.939 1855.73 325.847C1852.32 317.944 1846.81 311.177 1839.82 306.312C1832.83 301.447 1824.64 298.677 1816.18 298.315C1807.73 297.953 1799.33 300.014 1791.95 304.265C1784.57 308.516 1778.49 314.787 1774.41 322.369L1714.29 319.087C1708.03 314.112 1700.42 311.213 1692.49 310.78C1684.56 310.348 1676.69 312.401 1669.92 316.666L1516.47 308.29C1507.84 304.435 1498.13 303.905 1489.13 306.798L1457.76 305.086C1451.31 297.75 1442.67 292.789 1433.17 290.966C1433.3 289.937 1433.42 288.908 1433.48 287.86C1433.86 280.456 1432.21 273.095 1428.71 266.607C1425.22 260.118 1420.01 254.761 1413.68 251.139C1407.35 247.516 1400.15 245.774 1392.9 246.107C1385.64 246.441 1378.62 248.837 1372.62 253.026C1366.61 257.215 1361.88 263.03 1358.93 269.815C1355.99 276.599 1354.97 284.084 1355.97 291.423C1356.97 298.762 1359.97 305.665 1364.61 311.352C1369.26 317.039 1375.37 321.284 1382.26 323.608Z" fill="white"/>
<path d="M1699 274.471C1686.8 278.024 1675.29 284.503 1666.65 292.676C1658.01 300.849 1652.85 310.148 1652.15 318.806C1651.44 327.464 1655.25 334.878 1662.83 339.641C1670.42 344.403 1681.26 346.181 1693.3 344.638C1686.11 350.111 1680.69 356.571 1677.77 363.163C1674.85 369.755 1674.56 376.167 1676.94 381.549C1677.2 382.129 1677.46 382.709 1677.8 383.237C1667.14 390.626 1658.66 399.504 1653.38 408.809C1648.09 418.114 1646.23 427.452 1648 435.707C1649.78 443.962 1655.12 450.785 1663.39 455.361C1671.66 459.936 1682.51 462.07 1694.64 461.508C1693.26 466.538 1693.47 471.328 1695.27 475.492C1697.08 479.656 1700.41 483.079 1705.01 485.484C1709.61 487.889 1715.34 489.211 1721.75 489.341C1728.16 489.472 1735.07 488.409 1741.91 486.237C1737.56 493.534 1736.37 500.882 1738.52 507.083C1740.68 513.285 1746.05 517.974 1753.77 520.386C1749.21 526.051 1746.49 532.029 1745.91 537.683C1745.33 543.338 1746.91 548.458 1750.48 552.501C1754.05 556.543 1759.48 559.357 1766.18 560.643C1772.89 561.929 1780.63 561.639 1788.57 559.804C1783.64 566.557 1780.97 573.576 1780.86 580.101C1780.75 586.625 1783.19 592.407 1787.93 596.82C1780.02 603.844 1774.58 611.848 1772.38 619.704C1770.18 627.56 1771.33 634.873 1775.67 640.611C1769.43 650.111 1767.76 659.82 1771 667.767C1774.25 675.715 1782.17 681.305 1793.16 683.405C1793.02 690.008 1795.49 695.856 1800.3 700.304C1805.12 704.751 1812.08 707.624 1820.44 708.606C1813.68 714.749 1808.79 721.619 1806.3 728.479C1803.82 735.338 1803.83 741.926 1806.33 747.534L1806.42 747.744C1793.93 756.757 1784.74 767.761 1780.42 778.894C1776.1 790.027 1776.9 800.607 1782.69 808.843C1788.49 817.079 1798.92 822.466 1812.22 824.093C1825.53 825.72 1840.88 823.486 1855.7 817.771L1856.41 819.381C1858.75 824.695 1863.09 829.032 1869.07 832.027C1875.05 835.022 1882.49 836.588 1890.78 836.593C1899.06 836.597 1907.94 835.041 1916.66 832.054C1925.39 829.068 1933.72 824.738 1940.94 819.429L2080.5 819.429L2080.5 335.824L1786.23 258.166C1787.75 252.184 1786.99 246.589 1784.03 242.013C1781.08 237.436 1776.04 234.06 1769.5 232.265C1762.95 230.47 1755.15 230.328 1746.99 231.854C1738.82 233.381 1730.61 236.515 1723.28 240.904C1715.95 245.293 1709.79 250.762 1705.5 256.693C1701.21 262.624 1698.96 268.782 1699 274.471Z" fill="white"/>
<path d="M590.925 301.119C588.637 305.89 590.239 310.919 595.427 315.25C600.616 319.581 609.03 322.913 619.071 324.613C629.112 326.313 640.08 326.262 649.893 324.471C659.706 322.679 667.679 319.272 672.299 314.895C675.015 318.277 679.877 321.217 686.238 323.328C692.599 325.438 700.159 326.617 707.917 326.711C708.753 326.721 709.589 326.73 710.411 326.7C713.568 331.591 719.69 335.987 728.044 339.363C736.399 342.738 746.632 344.95 757.522 345.735C768.412 346.519 779.497 345.843 789.452 343.786C799.407 341.73 807.812 338.38 813.661 334.138C818.97 335.459 824.851 336.192 830.831 336.278C836.811 336.364 842.723 335.801 848.092 334.634C853.46 333.467 858.135 331.729 861.741 329.56C865.347 327.39 867.784 324.849 868.854 322.142C875.294 324.859 883.494 326.506 892.115 326.815C900.737 327.124 909.272 326.077 916.329 323.844C920.691 326.359 926.423 328.295 932.916 329.446C939.41 330.597 946.421 330.92 953.206 330.381C959.991 329.843 966.296 328.462 971.451 326.385C976.607 324.309 980.42 321.615 982.486 318.589C987.96 321.414 994.971 323.509 1002.76 324.647C1010.55 325.785 1018.83 325.923 1026.69 325.047C1030.88 328.938 1037.59 332.147 1045.86 334.224C1054.13 336.3 1063.55 337.138 1072.79 336.62C1080.86 340.358 1091.65 342.565 1102.96 342.795C1114.27 343.024 1125.26 341.258 1133.7 337.856C1141.57 339.017 1149.93 339.158 1157.88 338.261C1165.82 337.365 1173.02 335.467 1178.7 332.776C1182.45 336.123 1188.09 338.952 1195.01 340.958C1201.93 342.965 1209.86 344.072 1217.96 344.162L1218.26 344.166C1222.38 349.957 1230.68 354.953 1241.76 358.308C1252.83 361.663 1265.99 363.171 1279.02 362.578C1292.05 361.984 1304.14 359.326 1313.26 355.052C1322.37 350.778 1327.95 345.15 1329.04 339.121C1329.8 339.13 1330.58 339.14 1331.36 339.149C1339.01 339.245 1346.57 338.491 1353.39 336.951C1360.21 335.411 1366.1 333.13 1370.56 330.299C1375.02 327.468 1377.93 324.17 1379.03 320.682C1380.13 317.194 1379.4 313.618 1376.89 310.254C1374.39 306.89 1370.19 303.836 1364.64 301.35C1359.09 298.863 1352.35 297.016 1345 295.964C1337.65 294.912 1329.89 294.685 1322.39 295.303C1314.88 295.92 1307.84 297.364 1301.85 299.514L1081.25 296.896C1072.87 295.459 1063.81 295.203 1055.22 296.161C1051.5 292.695 1045.77 289.759 1038.68 287.687C1031.6 285.614 1023.44 284.487 1015.13 284.433C1006.81 284.379 998.684 285.399 991.651 287.38C984.619 289.36 978.967 292.221 975.333 295.639L916.225 294.938C909.848 292.807 902.252 291.616 894.457 291.523C886.662 291.431 879.04 292.442 872.614 294.42L721.759 292.63C713.114 291.027 703.567 290.914 694.887 292.311L664.05 291.945C657.372 288.769 648.662 286.675 639.263 285.985C639.34 285.526 639.403 285.068 639.409 284.602C639.429 281.31 637.457 278.062 633.715 275.224C629.973 272.387 624.609 270.074 618.23 268.545C611.85 267.016 604.709 266.333 597.611 266.572C590.513 266.812 583.742 267.964 578.06 269.9C572.379 271.835 568.014 274.477 565.457 277.526C562.901 280.576 562.255 283.912 563.593 287.158C564.931 290.405 568.199 293.432 573.028 295.899C577.858 298.365 584.057 300.173 590.925 301.119Z" fill="white"/>
<path d="M590.925 301.119C588.637 305.89 590.239 310.919 595.427 315.25C600.616 319.581 609.03 322.913 619.071 324.613C629.112 326.313 640.08 326.262 649.893 324.471C659.706 322.679 667.679 319.272 672.299 314.895C675.015 318.277 679.877 321.217 686.238 323.328C692.599 325.438 700.159 326.617 707.917 326.711C708.753 326.721 709.589 326.73 710.411 326.7C713.568 331.591 719.69 335.987 728.044 339.363C736.399 342.738 746.632 344.95 757.522 345.735C768.412 346.519 779.497 345.843 789.452 343.786C799.407 341.73 807.812 338.38 813.661 334.138C818.97 335.459 824.851 336.192 830.831 336.278C836.811 336.364 842.723 335.801 848.092 334.634C853.46 333.467 858.135 331.729 861.741 329.56C865.347 327.39 867.784 324.849 868.854 322.142C875.294 324.859 883.494 326.506 892.115 326.815C900.737 327.124 909.272 326.077 916.329 323.844C920.691 326.359 926.423 328.295 932.916 329.446C939.41 330.597 946.421 330.92 953.206 330.381C959.991 329.843 966.296 328.462 971.451 326.385C976.607 324.309 980.42 321.615 982.486 318.589C987.96 321.414 994.971 323.509 1002.76 324.647C1010.55 325.785 1018.83 325.923 1026.69 325.047C1030.88 328.938 1037.59 332.147 1045.86 334.224C1054.13 336.3 1063.55 337.138 1072.79 336.62C1080.86 340.358 1091.65 342.565 1102.96 342.795C1114.27 343.024 1125.26 341.258 1133.7 337.856C1141.57 339.017 1149.93 339.158 1157.88 338.261C1165.82 337.365 1173.02 335.467 1178.7 332.776C1182.45 336.123 1188.09 338.952 1195.01 340.958C1201.93 342.965 1209.86 344.072 1217.96 344.162L1218.26 344.166C1222.38 349.957 1230.68 354.953 1241.76 358.308C1252.83 361.663 1265.99 363.171 1279.02 362.578C1292.05 361.984 1304.14 359.326 1313.26 355.052C1322.37 350.778 1327.95 345.15 1329.04 339.121C1329.8 339.13 1330.58 339.14 1331.36 339.149C1339.01 339.245 1346.57 338.491 1353.39 336.951C1360.21 335.411 1366.1 333.13 1370.56 330.299C1375.02 327.468 1377.93 324.17 1379.03 320.682C1380.13 317.194 1379.4 313.618 1376.89 310.254C1374.39 306.89 1370.19 303.836 1364.64 301.35C1359.09 298.863 1352.35 297.016 1345 295.964C1337.65 294.912 1329.89 294.685 1322.39 295.303C1314.88 295.92 1307.84 297.364 1301.85 299.514L1081.25 296.896C1072.87 295.459 1063.81 295.203 1055.22 296.161C1051.5 292.695 1045.77 289.759 1038.68 287.687C1031.6 285.614 1023.44 284.487 1015.13 284.433C1006.81 284.379 998.684 285.399 991.651 287.38C984.619 289.36 978.967 292.221 975.333 295.639L916.225 294.938C909.848 292.807 902.252 291.616 894.457 291.523C886.662 291.431 879.04 292.442 872.614 294.42L721.759 292.63C713.114 291.027 703.567 290.914 694.887 292.311L664.05 291.945C657.372 288.769 648.662 286.675 639.263 285.985C639.34 285.526 639.403 285.068 639.409 284.602C639.429 281.31 637.457 278.062 633.715 275.224C629.973 272.387 624.609 270.074 618.23 268.545C611.85 267.016 604.709 266.333 597.611 266.572C590.513 266.812 583.742 267.964 578.06 269.9C572.379 271.835 568.014 274.477 565.457 277.526C562.901 280.576 562.255 283.912 563.593 287.158C564.931 290.405 568.199 293.432 573.028 295.899C577.858 298.365 584.057 300.173 590.925 301.119Z" fill="white"/>
<path d="M-156.152 285.041C-158.441 289.812 -156.838 294.84 -151.65 299.172C-146.461 303.503 -138.047 306.835 -128.006 308.535C-117.965 310.235 -106.997 310.184 -97.1842 308.393C-87.3715 306.601 -79.3981 303.194 -74.7783 298.817C-72.0617 302.199 -67.2005 305.139 -60.8394 307.249C-54.4783 309.36 -46.9178 310.539 -39.1603 310.633C-38.3242 310.642 -37.488 310.652 -36.6658 310.622C-33.5086 315.513 -27.387 319.909 -19.0326 323.285C-10.6783 326.66 -0.444779 328.872 10.4449 329.657C21.3345 330.441 32.4196 329.765 42.3749 327.708C52.3303 325.652 60.735 322.302 66.5842 318.06C71.8934 319.381 77.7744 320.114 83.7543 320.2C89.7342 320.286 95.6462 319.723 101.015 318.556C106.383 317.389 111.058 315.651 114.664 313.481C118.27 311.312 120.706 308.771 121.777 306.063C128.217 308.781 136.417 310.428 145.038 310.737C153.66 311.046 162.195 309.999 169.252 307.765C173.614 310.281 179.346 312.217 185.839 313.368C192.332 314.519 199.344 314.842 206.129 314.303C212.914 313.764 219.219 312.384 224.374 310.307C229.53 308.231 233.343 305.537 235.409 302.511C240.882 305.336 247.894 307.431 255.686 308.569C263.477 309.707 271.751 309.845 279.612 308.968C283.805 312.859 290.51 316.069 298.781 318.146C307.051 320.222 316.472 321.06 325.715 320.542C333.785 324.28 344.57 326.487 355.881 326.717C367.193 326.946 378.182 325.18 386.619 321.777C394.489 322.939 402.857 323.08 410.799 322.183C418.741 321.287 425.947 319.389 431.622 316.698C435.377 320.045 441.017 322.874 447.934 324.88C454.851 326.887 462.784 327.994 470.878 328.084L471.181 328.088C475.306 333.879 483.606 338.874 494.678 342.229C505.75 345.584 518.914 347.093 531.944 346.5C544.973 345.906 557.067 343.248 566.182 338.974C575.296 334.699 580.87 329.072 581.962 323.043C582.726 323.052 583.504 323.062 584.283 323.071C591.937 323.167 599.492 322.413 606.313 320.873C613.135 319.333 619.024 317.052 623.485 314.221C627.946 311.39 630.849 308.092 631.951 304.604C633.053 301.116 632.321 297.54 629.817 294.176C627.313 290.812 623.109 287.758 617.56 285.272C612.01 282.785 605.276 280.938 597.924 279.886C590.572 278.834 582.817 278.607 575.309 279.224C567.8 279.842 560.759 281.286 554.777 283.435L334.174 280.818C325.797 279.38 316.732 279.124 308.143 280.083C304.418 276.617 298.689 273.681 291.604 271.609C284.519 269.536 276.359 268.409 268.048 268.355C259.738 268.301 251.606 269.321 244.574 271.302C237.542 273.282 231.89 276.143 228.255 279.561L169.147 278.86C162.771 276.729 155.175 275.537 147.38 275.445C139.585 275.352 131.963 276.363 125.537 278.342L-25.3178 276.552C-33.9629 274.949 -43.5096 274.836 -52.1903 276.233L-83.0274 275.867C-89.7051 272.691 -98.4149 270.597 -107.814 269.907C-107.737 269.448 -107.674 268.99 -107.668 268.524C-107.648 265.231 -109.62 261.983 -113.362 259.146C-117.104 256.309 -122.468 253.996 -128.847 252.467C-135.227 250.938 -142.368 250.255 -149.466 250.494C-156.564 250.734 -163.336 251.886 -169.017 253.821C-174.698 255.757 -179.064 258.399 -181.62 261.448C-184.176 264.498 -184.822 267.834 -183.484 271.08C-182.146 274.326 -178.878 277.354 -174.049 279.821C-169.219 282.287 -163.021 284.095 -156.152 285.041Z" fill="white"/>
<path d="M-156.152 285.041C-158.441 289.812 -156.838 294.84 -151.65 299.172C-146.461 303.503 -138.047 306.835 -128.006 308.535C-117.965 310.235 -106.997 310.184 -97.1842 308.393C-87.3715 306.601 -79.3981 303.194 -74.7783 298.817C-72.0617 302.199 -67.2005 305.139 -60.8394 307.249C-54.4783 309.36 -46.9178 310.539 -39.1603 310.633C-38.3242 310.642 -37.488 310.652 -36.6658 310.622C-33.5086 315.513 -27.387 319.909 -19.0326 323.285C-10.6783 326.66 -0.444779 328.872 10.4449 329.657C21.3345 330.441 32.4196 329.765 42.3749 327.708C52.3303 325.652 60.735 322.302 66.5842 318.06C71.8934 319.381 77.7744 320.114 83.7543 320.2C89.7342 320.286 95.6462 319.723 101.015 318.556C106.383 317.389 111.058 315.651 114.664 313.481C118.27 311.312 120.706 308.771 121.777 306.063C128.217 308.781 136.417 310.428 145.038 310.737C153.66 311.046 162.195 309.999 169.252 307.765C173.614 310.281 179.346 312.217 185.839 313.368C192.332 314.519 199.344 314.842 206.129 314.303C212.914 313.764 219.219 312.384 224.374 310.307C229.53 308.231 233.343 305.537 235.409 302.511C240.882 305.336 247.894 307.431 255.686 308.569C263.477 309.707 271.751 309.845 279.612 308.968C283.805 312.859 290.51 316.069 298.781 318.146C307.051 320.222 316.472 321.06 325.715 320.542C333.785 324.28 344.57 326.487 355.881 326.717C367.193 326.946 378.182 325.18 386.619 321.777C394.489 322.939 402.857 323.08 410.799 322.183C418.741 321.287 425.947 319.389 431.622 316.698C435.377 320.045 441.017 322.874 447.934 324.88C454.851 326.887 462.784 327.994 470.878 328.084L471.181 328.088C475.306 333.879 483.606 338.874 494.678 342.229C505.75 345.584 518.914 347.093 531.944 346.5C544.973 345.906 557.067 343.248 566.182 338.974C575.296 334.699 580.87 329.072 581.962 323.043C582.726 323.052 583.504 323.062 584.283 323.071C591.937 323.167 599.492 322.413 606.313 320.873C613.135 319.333 619.024 317.052 623.485 314.221C627.946 311.39 630.849 308.092 631.951 304.604C633.053 301.116 632.321 297.54 629.817 294.176C627.313 290.812 623.109 287.758 617.56 285.272C612.01 282.785 605.276 280.938 597.924 279.886C590.572 278.834 582.817 278.607 575.309 279.224C567.8 279.842 560.759 281.286 554.777 283.435L334.174 280.818C325.797 279.38 316.732 279.124 308.143 280.083C304.418 276.617 298.689 273.681 291.604 271.609C284.519 269.536 276.359 268.409 268.048 268.355C259.738 268.301 251.606 269.321 244.574 271.302C237.542 273.282 231.89 276.143 228.255 279.561L169.147 278.86C162.771 276.729 155.175 275.537 147.38 275.445C139.585 275.352 131.963 276.363 125.537 278.342L-25.3178 276.552C-33.9629 274.949 -43.5096 274.836 -52.1903 276.233L-83.0274 275.867C-89.7051 272.691 -98.4149 270.597 -107.814 269.907C-107.737 269.448 -107.674 268.99 -107.668 268.524C-107.648 265.231 -109.62 261.983 -113.362 259.146C-117.104 256.309 -122.468 253.996 -128.847 252.467C-135.227 250.938 -142.368 250.255 -149.466 250.494C-156.564 250.734 -163.336 251.886 -169.017 253.821C-174.698 255.757 -179.064 258.399 -181.62 261.448C-184.176 264.498 -184.822 267.834 -183.484 271.08C-182.146 274.326 -178.878 277.354 -174.049 279.821C-169.219 282.287 -163.021 284.095 -156.152 285.041Z" fill="white"/>
<path d="M1854.09 322.174C1859.1 313.764 1860.56 304.24 1858.18 295.412C1855.81 286.583 1849.76 279.065 1841.18 274.286C1832.61 269.506 1822.12 267.797 1811.69 269.485C1801.26 271.172 1791.62 276.138 1784.62 283.438C1784.03 276.765 1781.14 270.551 1776.32 265.62C1771.51 260.69 1764.99 257.275 1757.65 255.829C1756.85 255.674 1756.06 255.518 1755.26 255.439C1755.15 245.913 1751.92 236.812 1745.95 229.224C1739.99 221.635 1731.54 215.881 1721.61 212.647C1711.68 209.414 1700.7 208.839 1689.98 210.991C1679.26 213.143 1669.25 217.931 1661.15 224.783C1656.87 221.478 1651.69 219.163 1646.03 218.022C1640.38 216.881 1634.4 216.946 1628.59 218.213C1622.77 219.48 1617.28 221.913 1612.55 225.317C1607.82 228.72 1603.98 232.999 1601.35 237.809C1596.82 231.747 1589.97 227.367 1581.93 225.381C1573.89 223.396 1565.12 223.923 1557.06 226.877C1554.39 221.529 1550.07 217.022 1544.56 213.835C1539.04 210.649 1532.54 208.902 1525.75 208.78C1518.95 208.658 1512.12 210.165 1505.96 213.142C1499.81 216.119 1494.57 220.454 1490.8 225.687C1487.26 219.586 1481.81 214.576 1475.05 211.2C1468.29 207.825 1460.48 206.211 1452.46 206.535C1450.77 198.68 1446.28 191.668 1439.62 186.486C1432.96 181.304 1424.46 178.213 1415.34 177.649C1409.86 169.44 1400.88 163.603 1390.22 161.323C1379.56 159.042 1368.02 160.489 1357.95 165.37C1351.13 161.938 1343.23 160.305 1335.12 160.651C1327.01 160.997 1319 163.309 1311.99 167.332C1310.39 160.551 1306.69 154.416 1301.28 149.585C1295.87 144.754 1288.96 141.411 1281.29 139.916L1281 139.86C1280.51 128.518 1275.55 117.955 1266.98 109.958C1258.41 101.961 1246.74 97.0204 1233.96 95.9729C1221.17 94.9254 1208.05 97.8348 1196.81 104.209L-19 60.9998L-19 289.989L466.5 289.989L832 305.501L1266.98 316.317L1797.87 362.832C1799.75 368.671 1803.5 373.813 1808.68 377.676C1813.86 381.539 1820.27 383.97 1827.18 384.695C1834.1 385.421 1841.24 384.411 1847.82 381.779C1854.39 379.148 1860.12 375.001 1864.37 369.805C1868.62 364.609 1871.22 358.571 1871.87 352.373C1872.53 346.175 1871.21 340.063 1868.06 334.727C1864.92 329.391 1860.08 325.043 1854.09 322.174Z" fill="white"/>
</g>
<defs>
<clipPath id="clip0">
<rect width="2152" height="868" fill="white" transform="translate(-71)"/>
</clipPath>
</defs>
</svg>
