<svg width="1920" height="1210" viewBox="0 0 1920 1210" fill="none" xmlns="http://www.w3.org/2000/svg">
<path d="M-26 913.839L370.796 913.839L1185.5 913.839L1407.5 804.5L1571 804.5L1571 762L613.5 765.6C276.853 687.437 232.335 483 221 253.5C220.852 250.5 218.804 246.108 217.5 243.5C216.5 241.5 212.051 231.064 204.5 220.5C186.049 194.687 164.038 171.754 138.5 149.5C103.5 119 71.4998 104 45.4999 104L-26 104L-26 913.839Z" fill="white"/>
<path d="M1045.51 975.803C1047.23 981.906 1051.2 987.103 1056.67 990.405C1062.15 993.707 1068.75 994.885 1075.22 993.715C1081.69 992.545 1087.59 989.108 1091.78 984.058C1095.97 979.007 1098.17 972.695 1097.96 966.32C1101.52 969.309 1105.96 971.139 1110.7 971.566C1115.44 971.994 1120.25 971 1124.49 968.715C1124.95 968.469 1125.41 968.222 1125.83 967.935C1130.56 972.496 1136.58 975.584 1143.18 976.83C1149.77 978.075 1156.66 977.425 1163.03 974.958C1169.39 972.49 1174.96 968.309 1179.07 962.915C1183.17 957.521 1185.64 951.141 1186.18 944.539C1189.86 944.398 1193.49 943.415 1196.78 941.67C1200.06 939.926 1202.9 937.467 1205.08 934.493C1207.26 931.518 1208.71 928.111 1209.32 924.545C1209.92 920.979 1209.67 917.354 1208.58 913.96C1213.73 915.051 1219.18 914.389 1224.02 912.082C1228.87 909.775 1232.83 905.96 1235.26 901.259C1239.17 902.761 1243.46 903.186 1247.68 902.488C1251.9 901.79 1255.88 899.995 1259.22 897.295C1262.55 894.595 1265.1 891.09 1266.6 887.152C1268.1 883.214 1268.5 878.991 1267.74 874.931C1272.44 876.441 1277.52 876.651 1282.43 875.538C1287.34 874.425 1291.9 872.033 1295.6 868.619C1300.27 871.729 1305.87 873.295 1311.62 873.097C1317.37 872.898 1322.97 870.944 1327.64 867.51C1334.31 869.253 1341.5 868.428 1347.75 865.202C1354 861.977 1358.84 856.593 1361.29 850.143C1366.26 849.033 1370.87 846.614 1374.6 843.153C1378.34 839.692 1381.06 835.323 1382.46 830.531C1386.55 833.161 1391.35 834.624 1396.32 834.763C1401.29 834.902 1406.26 833.711 1410.69 831.319L1410.85 831.23C1416.66 836.512 1424.22 839.607 1432.28 839.992C1440.33 840.377 1448.37 838.028 1455.04 833.342C1461.7 828.656 1466.59 821.922 1468.88 814.278C1471.16 806.633 1470.69 798.548 1467.56 791.391C1467.98 791.165 1468.4 790.936 1468.83 790.707C1473.02 788.457 1476.64 785.277 1479.37 781.432C1482.1 777.588 1483.87 773.193 1484.53 768.615C1485.19 764.037 1484.72 759.411 1483.17 755.125C1481.61 750.838 1479 747.017 1475.57 743.983C1472.14 740.948 1467.99 738.788 1463.45 737.684C1458.92 736.58 1454.15 736.565 1449.53 737.64C1444.91 738.714 1440.58 740.847 1436.91 743.859C1433.23 746.871 1430.32 750.675 1428.42 754.95L1307.68 819.955C1302.27 820.91 1297.21 823.413 1293.17 827.144C1289.02 824.369 1284.11 822.813 1279 822.651C1273.9 822.489 1268.8 823.728 1264.27 826.227C1259.75 828.726 1255.99 832.386 1253.42 836.793C1250.84 841.201 1249.56 846.179 1249.71 851.167L1217.36 868.584C1212.6 868.138 1207.76 869.13 1203.49 871.427C1199.23 873.724 1195.74 877.216 1193.49 881.435L1110.92 925.888C1105.26 926.737 1100.04 929.551 1096.21 933.806L1079.34 942.893C1073.77 941.357 1067.77 941.67 1062.27 943.786C1062.03 943.243 1061.78 942.705 1061.5 942.176C1059.47 938.444 1056.4 935.377 1052.63 933.32C1048.86 931.262 1044.53 930.297 1040.14 930.533C1035.75 930.768 1031.48 932.196 1027.79 934.653C1024.11 937.111 1021.16 940.501 1019.29 944.442C1017.42 948.382 1016.69 952.716 1017.19 956.954C1017.7 961.192 1019.41 965.166 1022.13 968.427C1024.86 971.688 1028.5 974.107 1032.63 975.41C1036.76 976.713 1041.22 976.849 1045.51 975.803Z" fill="white"/>
<path d="M1454.5 768.106C1456.99 762.176 1455.14 755.986 1449.29 750.71C1443.44 745.433 1434 741.439 1422.77 739.486C1411.54 737.533 1399.3 737.756 1388.37 740.114C1377.44 742.471 1368.58 746.799 1363.49 752.275C1360.41 748.136 1354.94 744.574 1347.81 742.059C1340.69 739.545 1332.23 738.198 1323.57 738.196C1322.64 738.196 1321.7 738.196 1320.79 738.246C1317.2 732.248 1310.31 726.906 1300.93 722.857C1291.56 718.808 1280.11 716.225 1267.95 715.415C1255.78 714.605 1243.41 715.604 1232.33 718.291C1221.24 720.978 1211.91 725.241 1205.43 730.569C1199.49 729.015 1192.92 728.195 1186.24 728.176C1179.56 728.157 1172.97 728.94 1166.99 730.46C1161.02 731.981 1155.82 734.198 1151.82 736.932C1147.83 739.666 1145.14 742.841 1143.98 746.202C1136.76 742.939 1127.58 741.024 1117.96 740.768C1108.33 740.513 1098.81 741.932 1090.97 744.795C1086.06 741.751 1079.64 739.443 1072.38 738.116C1065.11 736.788 1057.28 736.492 1049.71 737.257C1042.15 738.022 1035.13 739.821 1029.4 742.463C1023.67 745.104 1019.45 748.489 1017.19 752.258C1011.04 748.848 1003.18 746.362 994.473 745.07C985.76 743.778 976.523 743.728 967.76 744.927C963.027 740.18 955.501 736.312 946.241 733.868C936.981 731.423 926.454 730.526 916.143 731.301C907.085 726.801 895.017 724.231 882.388 724.113C869.759 723.995 857.515 726.339 848.142 730.668C839.342 729.347 829.999 729.297 821.146 730.521C812.292 731.745 804.273 734.196 797.974 737.604C793.738 733.523 787.406 730.11 779.658 727.732C771.91 725.355 763.04 724.102 754.003 724.11H753.665C748.984 717.014 739.653 710.962 727.249 706.979C714.845 702.995 700.131 701.324 685.595 702.248C671.058 703.173 657.593 706.635 647.476 712.051C637.358 717.466 631.211 724.502 630.072 731.968C629.219 731.968 628.35 731.968 627.481 731.968C618.936 731.961 610.512 733.003 602.918 735.006C595.324 737.009 588.781 739.915 583.838 743.479C578.896 747.042 575.699 751.16 574.515 755.487C573.331 759.813 574.196 764.222 577.036 768.342C579.875 772.462 584.608 776.174 590.836 779.165C597.063 782.157 604.604 784.34 612.825 785.533C621.046 786.726 629.706 786.892 638.079 786.019C646.452 785.145 654.292 783.258 660.942 780.514H907.227C916.596 782.167 926.719 782.351 936.294 781.041C940.498 785.269 946.931 788.813 954.868 791.27C962.804 793.727 971.927 795 981.205 794.945C990.483 794.891 999.546 793.51 1007.37 790.96C1015.19 788.409 1021.46 784.791 1025.48 780.514H1091.47C1098.61 783.053 1107.11 784.414 1115.81 784.414C1124.51 784.414 1133.01 783.053 1140.15 780.514H1308.57C1318.24 782.368 1328.9 782.368 1338.57 780.514H1373C1380.49 784.341 1390.24 786.802 1400.75 787.516C1400.66 788.084 1400.6 788.652 1400.6 789.228C1400.62 793.296 1402.87 797.281 1407.08 800.732C1411.3 804.183 1417.31 806.963 1424.45 808.759C1431.6 810.555 1439.58 811.294 1447.5 810.894C1455.42 810.494 1462.96 808.971 1469.28 806.496C1475.59 804.021 1480.43 800.693 1483.24 796.887C1486.06 793.081 1486.73 788.949 1485.2 784.957C1483.66 780.965 1479.97 777.272 1474.55 774.294C1469.13 771.317 1462.18 769.173 1454.5 768.106Z" fill="white"/>
<path d="M639.135 798.779C643.348 791.185 644.835 782.328 643.312 773.891C641.789 765.454 637.363 758.024 630.875 753.013C624.387 748.002 616.288 745.759 608.118 746.709C599.947 747.659 592.273 751.737 586.554 758.168C586.347 751.864 584.328 745.852 580.765 740.927C577.203 736.003 572.264 732.399 566.605 730.594C565.995 730.4 565.385 730.205 564.764 730.082C565.033 721.128 562.858 712.383 558.499 704.892C554.14 697.402 547.781 691.482 540.183 687.841C532.585 684.2 524.069 682.992 515.653 684.361C507.237 685.73 499.276 689.618 492.724 695.56C489.517 692.196 485.577 689.706 481.222 688.29C476.867 686.874 472.218 686.572 467.649 687.408C463.08 688.244 458.718 690.195 454.914 693.104C451.111 696.013 447.971 699.798 445.749 704.156C442.449 698.187 437.288 693.656 431.108 691.301C424.927 688.947 418.091 688.909 411.714 691.193C409.837 686.007 406.644 681.511 402.476 678.182C398.308 674.854 393.32 672.817 388.041 672.289C382.762 671.761 377.39 672.761 372.496 675.182C367.602 677.604 363.368 681.357 360.244 686.042C357.713 680.096 353.663 675.059 348.532 671.477C343.402 667.895 337.387 665.904 331.137 665.72C330.113 658.24 326.881 651.38 321.895 646.107C316.908 640.835 310.42 637.415 303.344 636.329C299.386 628.285 292.619 622.256 284.417 619.466C276.214 616.675 267.191 617.332 259.179 621.304C254.003 617.665 247.919 615.65 241.6 615.482C235.28 615.313 228.971 616.998 223.369 620.349C222.38 613.883 219.729 607.895 215.702 603.028C211.675 598.162 206.424 594.601 200.515 592.73L200.294 592.66C200.328 581.976 196.867 571.753 190.498 563.72C184.128 555.687 175.24 550.337 165.337 548.575C155.434 546.813 145.125 548.747 136.152 554.05C127.18 559.353 120.095 567.7 116.096 577.678C115.539 577.501 114.971 577.32 114.403 577.139C108.821 575.351 102.862 575.023 97.0255 576.182C91.1893 577.342 85.6467 579.955 80.8632 583.802C76.0797 587.649 72.195 592.618 69.5354 598.291C66.8759 603.964 65.519 610.176 65.579 616.405C65.6389 622.634 67.1138 628.698 69.8798 634.088C72.6458 639.477 76.6222 644.035 81.4749 647.378C86.3275 650.722 91.9148 652.753 97.7674 653.301C103.62 653.849 109.567 652.899 115.109 650.53L276.064 701.808C281.466 706.022 288.002 708.38 294.831 708.581C295.735 715.242 298.395 721.43 302.51 726.444C306.626 731.459 312.033 735.1 318.12 736.957C324.208 738.814 330.732 738.812 336.957 736.952C343.182 735.091 348.858 731.446 353.344 726.429L396.47 740.169C400.033 745.131 404.991 748.762 410.679 750.574C416.367 752.386 422.511 752.292 428.288 750.306L538.355 785.372C543.867 789.923 550.832 792.142 557.961 791.618L580.46 798.786C583.691 805.584 588.991 810.98 595.542 814.145C595.242 814.905 594.952 815.668 594.701 816.456C592.941 822.027 592.671 827.947 593.922 833.546C595.172 839.146 597.893 844.203 601.777 848.147C605.661 852.09 610.554 854.764 615.905 855.866C621.255 856.968 626.849 856.454 632.056 854.383C637.263 852.311 641.875 848.764 645.373 844.143C648.87 839.521 651.114 834.008 651.85 828.226C652.586 822.444 651.785 816.623 649.539 811.42C647.292 806.217 643.689 801.838 639.135 798.779Z" fill="white"/>
<path d="M377.407 706.793C387.669 701.767 395.937 693.328 400.643 683.076C405.348 672.825 406.162 661.476 402.931 651.186C399.7 640.896 392.648 632.381 383.115 627.258C373.582 622.135 362.232 620.761 351.221 623.397C355.741 616.439 358.086 608.431 357.947 600.436C357.808 592.44 355.19 584.835 350.44 578.628C349.928 577.959 349.416 577.29 348.839 576.69C355.867 567.229 360.1 556.155 361.032 544.791C361.965 533.427 359.557 522.254 354.097 512.607C348.637 502.96 340.356 495.248 330.243 490.392C320.13 485.536 308.613 483.742 297.069 485.224C296.14 479.18 293.762 473.529 290.128 468.723C286.494 463.918 281.704 460.094 276.143 457.558C270.583 455.022 264.408 453.846 258.114 454.123C251.82 454.4 245.583 456.123 239.905 459.153C240.836 450.228 238.676 441.455 233.778 434.263C228.879 427.071 221.53 421.885 212.93 419.552C214.806 412.542 214.744 405.288 212.75 398.559C210.757 391.831 206.906 385.879 201.606 381.337C196.307 376.795 189.757 373.832 182.653 372.762C175.549 371.693 168.155 372.557 161.258 375.263C163.001 366.941 162.42 358.458 159.579 350.731C156.738 343.005 151.744 336.33 145.138 331.428C149.662 322.585 151.335 312.749 149.922 303.307C148.508 293.865 144.08 285.291 137.26 278.795C139.041 267.136 136.275 255.537 129.523 246.353C122.771 237.17 112.539 231.089 100.903 229.346C98.0553 221.524 93.0059 214.772 86.3126 209.834C79.6193 204.897 71.5426 201.967 62.9748 201.369C66.7725 193.646 68.4179 185.189 67.7339 176.906C67.0499 168.624 64.0624 160.83 59.093 154.364L58.9076 154.122C66.9837 142.618 70.9419 128.981 70.1124 115.519C69.283 102.056 63.7169 89.5941 54.3556 80.2407C44.9944 70.8874 32.4127 65.2168 18.7388 64.1883C5.06492 63.1597 -8.86183 66.8362 -20.6856 74.596C-21.1536 73.9848 -21.6304 73.3621 -22.1073 72.7394C-26.7858 66.6096 -32.9703 61.7712 -40.1412 58.6308C-47.3121 55.4904 -55.26 54.1396 -63.3173 54.6919C-71.3746 55.2442 -79.3061 57.6834 -86.4454 61.8048C-93.5847 65.9261 -99.7235 71.6091 -104.346 78.3765C-108.969 85.1439 -111.94 92.798 -113.01 100.696C-114.081 108.594 -113.219 116.505 -110.498 123.765C-107.777 131.025 -103.275 137.421 -97.3718 142.417C-91.4683 147.412 -84.335 150.862 -76.5712 152.475L58.5463 328.933C61.2065 337.545 66.485 345.008 73.7035 350.364C69.6664 358.233 67.881 366.912 68.5493 375.421C69.2176 383.93 72.3128 391.929 77.4851 398.513C82.6573 405.098 89.7003 410.005 97.8179 412.681C105.936 415.357 114.804 415.695 123.421 413.656L159.624 460.936C159.735 468.973 162.354 476.622 167.129 482.858C171.903 489.093 178.605 493.616 186.335 495.82L278.733 616.487C281.257 625.547 287.104 633.183 295.192 637.982L314.079 662.649C312.451 672.415 314.109 682.227 318.799 690.572C317.903 691.167 317.016 691.772 316.152 692.434C310.06 697.122 305.315 703.307 302.45 710.291C299.586 717.275 298.717 724.78 299.941 731.959C301.165 739.138 304.434 745.706 309.379 750.921C314.324 756.136 320.748 759.791 327.926 761.474C335.104 763.156 342.751 762.799 350.003 760.443C357.255 758.087 363.825 753.826 368.97 748.14C374.116 742.454 377.632 735.57 379.123 728.264C380.614 720.958 380.019 713.521 377.407 706.793Z" fill="white"/>
<path d="M271.408 547.793C281.669 542.767 289.937 534.328 294.643 524.076C299.348 513.825 300.163 502.476 296.931 492.186C293.7 481.896 286.648 473.381 277.115 468.258C267.583 463.135 256.232 461.761 245.221 464.397C249.741 457.439 252.087 449.431 251.947 441.436C251.808 433.44 249.19 425.835 244.441 419.628C243.929 418.959 243.416 418.29 242.839 417.69C249.867 408.229 254.1 397.155 255.033 385.791C255.965 374.427 253.557 363.254 248.097 353.607C242.637 343.96 234.356 336.248 224.243 331.392C214.13 326.536 202.613 324.742 191.07 326.224L189.192 478.982L208.08 503.649C206.451 513.415 208.11 523.227 212.799 531.572C211.903 532.167 211.016 532.772 210.152 533.434C204.061 538.122 199.315 544.307 196.451 551.291C193.586 558.275 192.717 565.78 193.941 572.959C195.166 580.138 198.435 586.706 203.379 591.921C208.324 597.136 214.748 600.791 221.926 602.474C229.104 604.156 236.751 603.799 244.003 601.443C251.256 599.087 257.825 594.826 262.97 589.14C268.116 583.454 271.632 576.57 273.123 569.264C274.614 561.958 274.02 554.521 271.408 547.793Z" fill="white"/>
<path d="M1235.16 860.517C1235.39 867.218 1237.93 873.67 1242.28 878.65C1246.64 883.63 1252.51 886.79 1258.79 887.53C1265.06 888.269 1271.3 886.537 1276.32 882.662C1281.34 878.788 1284.78 873.04 1286.01 866.511C1288.65 870.601 1292.37 873.779 1296.67 875.624C1300.98 877.468 1305.67 877.892 1310.13 876.838C1310.61 876.725 1311.09 876.611 1311.55 876.446C1314.93 882.48 1319.83 887.404 1325.69 890.631C1331.54 893.858 1338.09 895.25 1344.55 894.642C1351.02 894.034 1357.12 891.45 1362.13 887.201C1367.15 882.952 1370.86 877.216 1372.82 870.679C1376.28 871.632 1379.87 871.716 1383.31 870.923C1386.74 870.13 1389.93 868.483 1392.62 866.115C1395.3 863.746 1397.41 860.722 1398.77 857.285C1400.12 853.849 1400.69 850.096 1400.43 846.328C1404.98 848.969 1410.19 849.918 1415.2 849.021C1420.22 848.124 1424.75 845.434 1428.05 841.389C1431.35 844.076 1435.24 845.784 1439.32 846.332C1443.39 846.879 1447.49 846.245 1451.19 844.498C1454.88 842.751 1458.03 839.955 1460.3 836.408C1462.57 832.861 1463.88 828.695 1464.08 824.352C1468.11 827.283 1472.79 829.008 1477.6 829.341C1482.41 829.674 1487.17 828.602 1491.37 826.242C1495.02 830.786 1499.88 834.043 1505.26 835.552C1510.65 837.062 1516.29 836.748 1521.4 834.655C1527.2 838.408 1534.07 839.71 1540.59 838.299C1547.11 836.888 1552.81 832.868 1556.52 827.057C1561.39 827.409 1566.2 826.326 1570.44 823.927C1574.68 821.528 1578.18 817.907 1580.55 813.463C1583.77 817.35 1587.9 820.261 1592.49 821.883C1597.08 823.504 1601.96 823.775 1606.61 822.666L1606.78 822.625C1611 829.71 1617.35 835.103 1624.74 837.89C1632.14 840.677 1640.13 840.687 1647.37 837.92C1654.61 835.152 1660.65 829.777 1664.47 822.702C1668.29 815.627 1669.65 807.288 1668.33 799.095C1668.77 798.991 1669.21 798.885 1669.66 798.779C1674.06 797.745 1678.12 795.595 1681.51 792.509C1684.91 789.423 1687.53 785.492 1689.16 781.045C1690.79 776.598 1691.38 771.766 1690.89 766.954C1690.39 762.142 1688.82 757.492 1686.3 753.392C1683.79 749.293 1680.41 745.865 1676.44 743.396C1672.48 740.927 1668.04 739.49 1663.51 739.205C1658.98 738.919 1654.48 739.794 1650.4 741.756C1646.32 743.718 1642.77 746.71 1640.05 750.48L1513.41 780.476C1508.16 779.833 1502.91 780.868 1498.32 783.448C1495.08 779.398 1490.87 776.359 1486.16 774.674C1481.45 772.99 1476.43 772.727 1471.68 773.917C1466.92 775.106 1462.61 777.699 1459.24 781.403C1455.87 785.107 1453.57 789.775 1452.6 794.878L1418.67 802.915C1414.34 801.046 1409.63 800.612 1405.15 801.672C1400.68 802.732 1396.66 805.235 1393.63 808.845L1307.03 829.357C1301.58 828.534 1296.1 829.832 1291.6 833.011L1273.9 837.204C1269.07 833.988 1263.42 832.521 1257.84 833.029C1257.74 832.407 1257.62 831.786 1257.48 831.165C1256.43 826.778 1254.26 822.753 1251.21 819.543C1248.16 816.333 1244.35 814.066 1240.22 812.999C1236.09 811.931 1231.8 812.105 1227.83 813.501C1223.86 814.897 1220.37 817.459 1217.75 820.899C1215.14 824.339 1213.5 828.519 1213.02 832.967C1212.55 837.416 1213.26 841.956 1215.07 846.076C1216.88 850.196 1219.72 853.731 1223.27 856.282C1226.82 858.834 1230.94 860.301 1235.16 860.517Z" fill="white"/>
<path d="M1908.65 785.761C1910.69 779.336 1909.85 772.456 1906.3 766.427C1902.75 760.397 1896.73 755.64 1889.38 753.057C1882.03 750.474 1873.88 750.246 1866.46 752.416C1859.04 754.587 1852.87 759.004 1849.13 764.829C1847.34 760.159 1843.94 756.029 1839.36 752.988C1834.78 749.947 1829.24 748.138 1823.48 747.802C1822.86 747.766 1822.24 747.729 1821.62 747.748C1819.62 741.013 1815.38 734.871 1809.4 730.055C1803.43 725.24 1795.98 721.955 1787.94 720.594C1779.89 719.233 1771.61 719.853 1764.06 722.38C1756.52 724.907 1750.03 729.234 1745.39 734.843C1741.53 732.904 1737.21 731.748 1732.77 731.469C1728.33 731.19 1723.9 731.796 1719.82 733.237C1715.75 734.678 1712.15 736.915 1709.32 739.768C1706.49 742.62 1704.5 746.009 1703.51 749.661C1698.91 745.792 1692.93 743.331 1686.55 742.677C1680.16 742.024 1673.74 743.217 1668.34 746.063C1665.27 742.525 1661.14 739.738 1656.4 737.997C1651.65 736.256 1646.46 735.627 1641.38 736.176C1636.3 736.725 1631.51 738.432 1627.54 741.116C1623.56 743.799 1620.53 747.359 1618.78 751.417C1614.91 747.429 1609.85 744.391 1604.14 742.633C1598.42 740.874 1592.28 740.463 1586.38 741.442C1583.53 736.039 1578.77 731.493 1572.77 728.447C1566.77 725.4 1559.82 724.005 1552.92 724.46C1547.18 719.16 1539.31 715.866 1530.92 715.248C1522.53 714.631 1514.24 716.734 1507.72 721.133C1501.96 719.34 1495.74 718.923 1489.78 719.927C1483.81 720.931 1478.32 723.317 1473.91 726.821C1471.35 722.169 1467.36 718.17 1462.36 715.256C1457.36 712.341 1451.54 710.62 1445.53 710.279L1445.3 710.266C1442.64 702.281 1436.82 695.264 1428.83 690.403C1420.83 685.542 1411.15 683.135 1401.42 683.59C1391.69 684.044 1382.52 687.331 1375.44 692.896C1368.36 698.461 1363.82 705.961 1362.59 714.128C1362.02 714.095 1361.44 714.062 1360.87 714.028C1355.18 713.69 1349.51 714.511 1344.33 716.42C1339.15 718.329 1334.62 721.271 1331.1 725C1327.59 728.728 1325.2 733.134 1324.13 737.846C1323.07 742.559 1323.36 747.441 1324.99 752.082C1326.61 756.724 1329.52 760.989 1333.47 764.52C1337.42 768.051 1342.3 770.744 1347.69 772.374C1353.08 774.003 1358.83 774.521 1364.46 773.885C1370.08 773.248 1375.42 771.475 1380.02 768.715L1543.84 778.24C1549.96 780.421 1556.68 781.014 1563.14 779.944C1565.66 784.757 1569.72 788.903 1574.84 791.913C1579.96 794.922 1585.95 796.675 1592.12 796.974C1598.3 797.272 1604.41 796.104 1609.78 793.602C1615.15 791.1 1619.55 787.363 1622.49 782.814L1666.38 785.366C1670.98 788.436 1676.54 790.261 1682.33 790.598C1688.12 790.934 1693.85 789.766 1698.77 787.249L1810.79 793.763C1817.11 796.177 1824.2 796.589 1830.75 794.924L1853.65 796.255C1858.39 800.754 1864.72 803.838 1871.66 805.03C1871.57 805.651 1871.49 806.273 1871.45 806.906C1871.2 811.382 1872.44 815.851 1875.03 819.81C1877.61 823.769 1881.43 827.059 1886.07 829.31C1890.7 831.561 1895.96 832.683 1901.26 832.55C1906.55 832.417 1911.67 831.033 1916.03 828.555C1920.39 826.077 1923.82 822.604 1925.93 818.527C1928.05 814.45 1928.76 809.931 1927.99 805.481C1927.23 801.031 1925.01 796.827 1921.59 793.342C1918.18 789.858 1913.69 787.232 1908.65 785.761Z" fill="white"/>
</svg>
