<svg width="1254" height="1320" viewBox="0 0 1254 1320" fill="none" xmlns="http://www.w3.org/2000/svg">
<path opacity="0.6" d="M1024.56 81.8454C1025.92 80.6253 1027.7 79.9663 1029.53 80.0013C1031.37 80.0364 1033.12 80.7627 1034.44 82.0341C1035.76 83.3056 1036.54 85.0278 1036.64 86.8541C1036.73 88.6805 1036.13 90.4754 1034.96 91.8778C1034.28 92.5506 1033.48 93.0844 1032.6 93.4485C1031.72 93.8126 1030.78 94 1029.83 94C1028.87 94 1027.93 93.8126 1027.05 93.4485C1026.17 93.0844 1025.37 92.5506 1024.69 91.8778C1023.4 90.5317 1022.67 88.7494 1022.65 86.8885C1022.62 85.0276 1023.31 83.226 1024.56 81.8454Z" fill="white"/>
<path opacity="0.9" d="M1080.45 374.759C1084.95 370.256 1084.95 362.954 1080.45 358.451C1075.95 353.947 1068.65 353.947 1064.15 358.451C1059.65 362.954 1059.65 370.256 1064.15 374.759C1068.65 379.263 1075.95 379.263 1080.45 374.759Z" fill="#608CAD"/>
<path opacity="0.4" d="M1048 265C1056.28 265 1063 258.06 1063 249.5C1063 240.94 1056.28 234 1048 234C1039.72 234 1033 240.94 1033 249.5C1033 258.06 1039.72 265 1048 265Z" fill="#E5E5FF"/>
<path opacity="0.4" d="M219.133 964.651C232.159 964.651 242.719 954.085 242.719 941.052C242.719 928.018 232.159 917.452 219.133 917.452C206.107 917.452 195.547 928.018 195.547 941.052C195.547 954.085 206.107 964.651 219.133 964.651Z" fill="#E5E5FF"/>
<path opacity="0.4" d="M615.5 953C621.299 953 626 948.299 626 942.5C626 936.701 621.299 932 615.5 932C609.701 932 605 936.701 605 942.5C605 948.299 609.701 953 615.5 953Z" fill="#E5E5FF"/>
<path opacity="0.4" d="M657.5 19C662.747 19 667 14.7467 667 9.5C667 4.25329 662.747 0 657.5 0C652.253 0 648 4.25329 648 9.5C648 14.7467 652.253 19 657.5 19Z" fill="#E5E5FF"/>
<path d="M1022.37 252.716C1020.9 252.712 1019.44 252.591 1017.99 252.357L1018.13 251.468C1019.53 251.69 1020.95 251.8 1022.37 251.799H1022.54V252.698L1022.37 252.716ZM1027.08 252.321L1026.94 251.432C1028.39 251.189 1029.82 250.828 1031.21 250.353L1031.51 251.206C1030.06 251.693 1028.58 252.065 1027.08 252.321ZM1013.56 251.31C1012.11 250.835 1010.7 250.246 1009.35 249.548L1009.76 248.749C1011.07 249.426 1012.44 249.996 1013.84 250.454L1013.56 251.31ZM1035.69 249.389L1035.27 248.594C1036.58 247.903 1037.82 247.108 1039 246.217L1039.55 246.936C1038.33 247.854 1037.04 248.675 1035.69 249.389ZM1005.49 247.141C1004.27 246.234 1003.12 245.231 1002.06 244.141L1002.7 243.512C1003.73 244.568 1004.84 245.539 1006.03 246.415L1005.49 247.141ZM1042.95 243.886L1042.29 243.267C1043.31 242.198 1044.23 241.048 1045.06 239.829L1045.81 240.336C1044.95 241.595 1043.99 242.782 1042.93 243.886H1042.95ZM999.148 240.627C998.274 239.38 997.502 238.064 996.84 236.692L997.649 236.3C998.29 237.628 999.037 238.903 999.881 240.113L999.148 240.627ZM1048.07 236.372L1047.25 235.991C1047.88 234.653 1048.4 233.269 1048.8 231.851L1049.67 232.099C1049.24 233.564 1048.7 234.993 1048.05 236.372H1048.07ZM995.176 232.437C994.74 230.977 994.422 229.484 994.223 227.973L995.114 227.858C995.306 229.319 995.615 230.763 996.038 232.174L995.176 232.437ZM1050.54 227.624L1049.64 227.52C1049.77 226.457 1049.83 225.389 1049.83 224.319C1049.83 223.916 1049.83 223.506 1049.81 223.103L1050.71 223.063C1050.71 223.481 1050.73 223.901 1050.73 224.319C1050.73 225.423 1050.67 226.527 1050.55 227.624H1050.54ZM994.899 223.445L994 223.416C994.05 221.892 994.223 220.376 994.518 218.88L995.398 219.053C995.116 220.501 994.948 221.97 994.899 223.445ZM1049.26 218.718C1048.96 217.275 1048.54 215.858 1048.02 214.481L1048.85 214.157C1049.4 215.58 1049.83 217.043 1050.15 218.535L1049.26 218.718ZM996.585 214.801L995.74 214.488C996.271 213.059 996.914 211.675 997.663 210.348L998.447 210.791C997.719 212.075 997.096 213.416 996.585 214.801ZM1047.93 214.272C1047.39 212.904 1046.75 211.581 1046 210.316L1046.77 209.859C1047.55 211.17 1048.21 212.541 1048.77 213.959L1047.93 214.272ZM1000.92 207.129L1000.22 206.568C1001.17 205.378 1002.22 204.268 1003.35 203.248L1003.95 203.913C1002.86 204.903 1001.85 205.978 1000.92 207.129ZM1043.45 206.69C1042.5 205.563 1041.47 204.515 1040.36 203.554L1040.94 202.874C1042.09 203.865 1043.16 204.947 1044.14 206.111L1043.45 206.69ZM1007.46 201.23L1006.97 200.471C1008.25 199.646 1009.59 198.925 1010.99 198.313L1011.35 199.14C1010 199.731 1008.7 200.43 1007.46 201.23ZM1036.79 200.931C1035.54 200.156 1034.22 199.484 1032.86 198.921L1033.22 198.09C1034.63 198.672 1035.99 199.366 1037.28 200.165L1036.79 200.931ZM1015.53 197.694L1015.3 196.824C1016.77 196.443 1018.28 196.184 1019.79 196.047L1019.88 196.942C1018.41 197.077 1016.95 197.33 1015.53 197.698V197.694ZM1028.66 197.561C1027.22 197.222 1025.76 196.998 1024.29 196.892L1024.35 196C1025.87 196.108 1027.38 196.339 1028.86 196.691L1028.66 197.561Z" fill="#9192FF"/>
<path d="M185.371 952.716C183.904 952.712 182.44 952.591 180.992 952.357L181.132 951.468C182.534 951.69 183.951 951.8 185.371 951.799H185.536V952.698L185.371 952.716ZM190.083 952.321L189.936 951.432C191.389 951.189 192.819 950.828 194.214 950.353L194.505 951.206C193.063 951.693 191.584 952.065 190.083 952.321ZM176.56 951.31C175.112 950.835 173.704 950.246 172.35 949.548L172.763 948.749C174.074 949.426 175.438 949.996 176.84 950.454L176.56 951.31ZM198.69 949.389L198.269 948.594C199.575 947.903 200.824 947.108 202.004 946.217L202.55 946.936C201.33 947.854 200.039 948.675 198.69 949.389ZM168.493 947.141C167.27 946.234 166.12 945.231 165.056 944.141L165.7 943.512C166.729 944.568 167.842 945.539 169.028 946.415L168.493 947.141ZM205.948 943.886L205.293 943.267C206.308 942.198 207.235 941.048 208.065 939.829L208.809 940.336C207.947 941.595 206.986 942.782 205.933 943.886H205.948ZM162.148 940.627C161.274 939.38 160.502 938.064 159.84 936.692L160.649 936.3C161.29 937.628 162.037 938.903 162.881 940.113L162.148 940.627ZM211.067 936.372L210.254 935.991C210.878 934.653 211.396 933.269 211.804 931.851L212.666 932.099C212.242 933.564 211.702 934.993 211.052 936.372H211.067ZM158.176 932.437C157.74 930.977 157.422 929.484 157.223 927.973L158.114 927.858C158.306 929.319 158.615 930.763 159.038 932.174L158.176 932.437ZM213.536 927.624L212.645 927.52C212.77 926.457 212.832 925.389 212.832 924.319C212.832 923.916 212.832 923.506 212.807 923.103L213.705 923.063C213.705 923.481 213.73 923.901 213.73 924.319C213.734 925.423 213.673 926.527 213.547 927.624H213.536ZM157.899 923.445L157 923.416C157.05 921.892 157.223 920.376 157.518 918.88L158.398 919.053C158.116 920.501 157.948 921.97 157.899 923.445ZM212.264 918.718C211.962 917.275 211.545 915.858 211.016 914.481L211.854 914.157C212.401 915.58 212.834 917.043 213.148 918.535L212.264 918.718ZM159.585 914.801L158.74 914.488C159.271 913.059 159.914 911.675 160.663 910.348L161.447 910.791C160.719 912.075 160.096 913.416 159.585 914.801ZM210.934 914.272C210.394 912.904 209.746 911.581 208.996 910.316L209.769 909.859C210.545 911.17 211.215 912.541 211.771 913.959L210.934 914.272ZM163.924 907.129L163.223 906.568C164.174 905.378 165.22 904.268 166.35 903.248L166.951 903.913C165.858 904.903 164.846 905.978 163.924 907.129ZM206.451 906.69C205.505 905.563 204.47 904.515 203.356 903.554L203.942 902.874C205.094 903.865 206.164 904.947 207.141 906.111L206.451 906.69ZM170.456 901.23L169.97 900.471C171.251 899.646 172.595 898.925 173.989 898.313L174.349 899.14C172.997 899.731 171.695 900.43 170.456 901.23ZM199.793 900.931C198.539 900.156 197.223 899.484 195.86 898.921L196.22 898.09C197.627 898.672 198.986 899.366 200.282 900.165L199.793 900.931ZM178.526 897.694L178.3 896.824C179.774 896.443 181.277 896.184 182.793 896.047L182.876 896.942C181.408 897.077 179.953 897.33 178.526 897.698V897.694ZM191.658 897.561C190.222 897.222 188.762 896.998 187.29 896.892L187.355 896C188.874 896.108 190.381 896.339 191.863 896.691L191.658 897.561Z" fill="#9192FF"/>
<path d="M1238.17 211.351C1235.17 211.352 1232.24 210.462 1229.74 208.795C1227.25 207.128 1225.3 204.758 1224.16 201.985C1223.01 199.211 1222.71 196.16 1223.29 193.216C1223.88 190.272 1225.32 187.567 1227.44 185.445C1229.56 183.322 1232.27 181.877 1235.21 181.291C1238.15 180.706 1241.2 181.007 1243.97 182.156C1246.74 183.305 1249.11 185.251 1250.78 187.747C1252.45 190.243 1253.33 193.177 1253.33 196.179C1253.33 200.201 1251.73 204.058 1248.89 206.902C1246.04 209.746 1242.19 211.346 1238.17 211.351ZM1238.17 181.68C1235.3 181.683 1232.5 182.535 1230.12 184.13C1227.74 185.725 1225.89 187.991 1224.79 190.64C1223.7 193.29 1223.41 196.205 1223.97 199.017C1224.53 201.828 1225.92 204.41 1227.94 206.437C1229.97 208.463 1232.55 209.842 1235.36 210.401C1238.17 210.959 1241.09 210.671 1243.73 209.573C1246.38 208.475 1248.64 206.617 1250.23 204.233C1251.83 201.849 1252.68 199.046 1252.68 196.179C1252.67 192.333 1251.14 188.645 1248.42 185.927C1245.7 183.208 1242.01 181.681 1238.17 181.68Z" fill="#9192FF"/>
<path d="M819.17 976.351C816.17 976.352 813.237 975.462 810.743 973.795C808.248 972.128 806.304 969.758 805.155 966.985C804.007 964.211 803.706 961.16 804.291 958.216C804.876 955.272 806.321 952.567 808.442 950.445C810.564 948.322 813.266 946.877 816.209 946.291C819.151 945.706 822.201 946.007 824.972 947.156C827.744 948.305 830.113 950.251 831.779 952.747C833.445 955.243 834.334 958.177 834.333 961.179C834.329 965.201 832.73 969.058 829.887 971.902C827.044 974.746 823.19 976.346 819.17 976.351ZM819.17 946.68C816.305 946.683 813.505 947.535 811.124 949.13C808.742 950.725 806.887 952.991 805.793 955.64C804.698 958.29 804.413 961.205 804.974 964.017C805.535 966.828 806.916 969.41 808.943 971.437C810.97 973.463 813.552 974.842 816.363 975.401C819.173 975.959 822.086 975.671 824.733 974.573C827.38 973.475 829.643 971.617 831.234 969.233C832.826 966.849 833.675 964.046 833.675 961.179C833.671 957.333 832.141 953.645 829.421 950.927C826.701 948.208 823.015 946.681 819.17 946.68Z" fill="#9192FF"/>
<path opacity="0.6" d="M1159.2 235.165C1160.06 234.395 1161.18 233.979 1162.34 234.001C1163.49 234.023 1164.6 234.481 1165.43 235.284C1166.26 236.086 1166.75 237.173 1166.82 238.325C1166.88 239.478 1166.5 240.61 1165.76 241.496C1165.33 241.92 1164.83 242.257 1164.27 242.487C1163.72 242.716 1163.12 242.835 1162.52 242.835C1161.92 242.835 1161.33 242.716 1160.77 242.487C1160.22 242.257 1159.71 241.92 1159.29 241.496C1158.48 240.646 1158.02 239.521 1158 238.347C1157.98 237.173 1158.41 236.036 1159.2 235.165Z" fill="white"/>
<path opacity="0.6" d="M867.556 436.845C868.922 435.625 870.701 434.966 872.534 435.001C874.367 435.036 876.119 435.763 877.437 437.034C878.756 438.306 879.542 440.028 879.638 441.854C879.735 443.681 879.134 445.475 877.957 446.878C877.283 447.551 876.484 448.084 875.603 448.448C874.722 448.813 873.778 449 872.825 449C871.872 449 870.928 448.813 870.047 448.448C869.167 448.084 868.367 447.551 867.693 446.878C866.405 445.532 865.675 443.749 865.649 441.889C865.624 440.028 866.305 438.226 867.556 436.845Z" fill="white"/>
<path opacity="0.9" d="M923.449 729.759C927.95 725.256 927.95 717.954 923.449 713.451C918.948 708.947 911.65 708.947 907.15 713.451C902.649 717.954 902.649 725.256 907.15 729.759C911.65 734.263 918.948 734.263 923.449 729.759Z" fill="#608CAD"/>
<path opacity="0.4" d="M891 620C899.284 620 906 613.06 906 604.5C906 595.94 899.284 589 891 589C882.716 589 876 595.94 876 604.5C876 613.06 882.716 620 891 620Z" fill="#E5E5FF"/>
<path opacity="0.4" d="M62.1328 1319.65C75.1589 1319.65 85.7186 1309.09 85.7186 1296.05C85.7186 1283.02 75.1589 1272.45 62.1328 1272.45C49.1066 1272.45 38.5469 1283.02 38.5469 1296.05C38.5469 1309.09 49.1066 1319.65 62.1328 1319.65Z" fill="#E5E5FF"/>
<path opacity="0.4" d="M357.5 1283C363.299 1283 368 1278.3 368 1272.5C368 1266.7 363.299 1262 357.5 1262C351.701 1262 347 1266.7 347 1272.5C347 1278.3 351.701 1283 357.5 1283Z" fill="#E5E5FF"/>
<path opacity="0.4" d="M500.5 374C505.747 374 510 369.747 510 364.5C510 359.253 505.747 355 500.5 355C495.253 355 491 359.253 491 364.5C491 369.747 495.253 374 500.5 374Z" fill="#E5E5FF"/>
<path d="M865.371 607.716C863.904 607.712 862.44 607.591 860.992 607.357L861.132 606.468C862.534 606.69 863.951 606.8 865.371 606.799H865.536V607.698L865.371 607.716ZM870.083 607.321L869.936 606.432C871.389 606.189 872.819 605.828 874.214 605.353L874.505 606.206C873.063 606.693 871.584 607.065 870.083 607.321ZM856.56 606.31C855.112 605.835 853.704 605.246 852.35 604.548L852.763 603.749C854.074 604.426 855.438 604.996 856.84 605.454L856.56 606.31ZM878.69 604.389L878.269 603.594C879.575 602.903 880.824 602.108 882.004 601.217L882.55 601.936C881.33 602.854 880.039 603.675 878.69 604.389ZM848.493 602.141C847.27 601.234 846.12 600.231 845.056 599.141L845.7 598.512C846.729 599.568 847.842 600.539 849.028 601.415L848.493 602.141ZM885.948 598.886L885.293 598.267C886.308 597.198 887.235 596.048 888.065 594.829L888.809 595.336C887.947 596.595 886.986 597.782 885.933 598.886H885.948ZM842.148 595.627C841.274 594.38 840.502 593.064 839.84 591.692L840.649 591.3C841.29 592.628 842.037 593.903 842.881 595.113L842.148 595.627ZM891.067 591.372L890.254 590.991C890.878 589.653 891.396 588.269 891.804 586.851L892.666 587.099C892.242 588.564 891.702 589.993 891.052 591.372H891.067ZM838.176 587.437C837.74 585.977 837.422 584.484 837.223 582.973L838.114 582.858C838.306 584.319 838.615 585.763 839.038 587.174L838.176 587.437ZM893.536 582.624L892.645 582.52C892.77 581.457 892.832 580.389 892.832 579.319C892.832 578.916 892.832 578.506 892.807 578.103L893.705 578.063C893.705 578.481 893.73 578.901 893.73 579.319C893.734 580.423 893.673 581.527 893.547 582.624H893.536ZM837.899 578.445L837 578.416C837.05 576.892 837.223 575.376 837.518 573.88L838.398 574.053C838.116 575.501 837.948 576.97 837.899 578.445ZM892.264 573.718C891.962 572.275 891.545 570.858 891.016 569.481L891.854 569.157C892.401 570.58 892.834 572.043 893.148 573.535L892.264 573.718ZM839.585 569.801L838.74 569.488C839.271 568.059 839.914 566.675 840.663 565.348L841.447 565.791C840.719 567.075 840.096 568.416 839.585 569.801ZM890.934 569.272C890.394 567.904 889.746 566.581 888.996 565.316L889.769 564.859C890.545 566.17 891.215 567.541 891.771 568.959L890.934 569.272ZM843.924 562.129L843.223 561.568C844.174 560.378 845.22 559.268 846.35 558.248L846.951 558.913C845.858 559.903 844.846 560.978 843.924 562.129ZM886.451 561.69C885.505 560.563 884.47 559.515 883.356 558.554L883.942 557.874C885.094 558.865 886.164 559.947 887.141 561.111L886.451 561.69ZM850.456 556.23L849.97 555.471C851.251 554.646 852.595 553.925 853.989 553.313L854.349 554.14C852.997 554.731 851.695 555.43 850.456 556.23ZM879.793 555.931C878.539 555.156 877.223 554.484 875.86 553.921L876.22 553.09C877.627 553.672 878.986 554.366 880.282 555.165L879.793 555.931ZM858.526 552.694L858.3 551.824C859.774 551.443 861.277 551.184 862.793 551.047L862.876 551.942C861.408 552.077 859.953 552.33 858.526 552.698V552.694ZM871.658 552.561C870.222 552.222 868.762 551.998 867.29 551.892L867.355 551C868.874 551.108 870.381 551.339 871.863 551.691L871.658 552.561Z" fill="#9192FF"/>
<path d="M28.3706 1307.72C26.9039 1307.71 25.4399 1307.59 23.9921 1307.36L24.1323 1306.47C25.5342 1306.69 26.9513 1306.8 28.3706 1306.8H28.536V1307.7L28.3706 1307.72ZM33.0835 1307.32L32.9361 1306.43C34.3888 1306.19 35.8194 1305.83 37.214 1305.35L37.5051 1306.21C36.0627 1306.69 34.5843 1307.07 33.0835 1307.32ZM19.5596 1306.31C18.112 1305.84 16.7044 1305.25 15.35 1304.55L15.7634 1303.75C17.0743 1304.43 18.4376 1305 19.84 1305.45L19.5596 1306.31ZM41.6896 1304.39L41.2689 1303.59C42.5754 1302.9 43.8244 1302.11 45.004 1301.22L45.5504 1301.94C44.3301 1302.85 43.0392 1303.67 41.6896 1304.39ZM11.4928 1302.14C10.2695 1301.23 9.12035 1300.23 8.05607 1299.14L8.69956 1298.51C9.72868 1299.57 10.842 1300.54 12.0284 1301.41L11.4928 1302.14ZM48.9475 1298.89L48.2933 1298.27C49.3081 1297.2 50.235 1296.05 51.0649 1294.83L51.8091 1295.34C50.9475 1296.59 49.9857 1297.78 48.9332 1298.89H48.9475ZM5.14784 1295.63C4.274 1294.38 3.50219 1293.06 2.83993 1291.69L3.64878 1291.3C4.29013 1292.63 5.03665 1293.9 5.88119 1295.11L5.14784 1295.63ZM54.0666 1291.37L53.2542 1290.99C53.878 1289.65 54.3961 1288.27 54.8036 1286.85L55.6663 1287.1C55.2422 1288.56 54.7024 1289.99 54.0522 1291.37H54.0666ZM1.17551 1287.44C0.740239 1285.98 0.421692 1284.48 0.222879 1282.97L1.11441 1282.86C1.30558 1284.32 1.61455 1285.76 2.03829 1287.17L1.17551 1287.44ZM56.5363 1282.62L55.6448 1282.52C55.7698 1281.46 55.8323 1280.39 55.8317 1279.32C55.8317 1278.92 55.8317 1278.51 55.8065 1278.1L56.7053 1278.06C56.7053 1278.48 56.7304 1278.9 56.7304 1279.32C56.734 1280.42 56.6728 1281.53 56.5471 1282.62H56.5363ZM0.898714 1278.44L0 1278.42C0.0501991 1276.89 0.223316 1275.38 0.51766 1273.88L1.3984 1274.05C1.11556 1275.5 0.948467 1276.97 0.898714 1278.44ZM55.2637 1273.72C54.9617 1272.27 54.5446 1270.86 54.0163 1269.48L54.8539 1269.16C55.4011 1270.58 55.8338 1272.04 56.1481 1273.53L55.2637 1273.72ZM2.5847 1269.8L1.73991 1269.49C2.27051 1268.06 2.91361 1266.68 3.66316 1265.35L4.44684 1265.79C3.71913 1267.08 3.0964 1268.42 2.5847 1269.8ZM53.9336 1269.27C53.3941 1267.9 52.7461 1266.58 51.996 1265.32L52.7689 1264.86C53.545 1266.17 54.2146 1267.54 54.7712 1268.96L53.9336 1269.27ZM6.9237 1262.13L6.22269 1261.57C7.17379 1260.38 8.21973 1259.27 9.35022 1258.25L9.95056 1258.91C8.85806 1259.9 7.84593 1260.98 6.9237 1262.13ZM49.4508 1261.69C48.5046 1260.56 47.4696 1259.51 46.3557 1258.55L46.9416 1257.87C48.0936 1258.86 49.1636 1259.95 50.141 1261.11L49.4508 1261.69ZM13.4555 1256.23L12.9702 1255.47C14.2507 1254.65 15.5946 1253.92 16.9893 1253.31L17.3488 1254.14C15.9972 1254.73 14.6952 1255.43 13.4555 1256.23ZM42.7932 1255.93C41.5385 1255.16 40.2233 1254.48 38.8604 1253.92L39.2199 1253.09C40.6273 1253.67 41.9858 1254.37 43.2821 1255.17L42.7932 1255.93ZM21.526 1252.69L21.2995 1251.82C22.7739 1251.44 24.2767 1251.18 25.7931 1251.05L25.8758 1251.94C24.408 1252.08 22.9534 1252.33 21.526 1252.7V1252.69ZM34.658 1252.56C33.2223 1252.22 31.7617 1252 30.2903 1251.89L30.355 1251C31.8738 1251.11 33.3814 1251.34 34.8629 1251.69L34.658 1252.56Z" fill="#9192FF"/>
<path d="M1081.17 566.351C1078.17 566.352 1075.24 565.462 1072.74 563.795C1070.25 562.128 1068.3 559.758 1067.16 556.985C1066.01 554.211 1065.71 551.16 1066.29 548.216C1066.88 545.272 1068.32 542.567 1070.44 540.445C1072.56 538.322 1075.27 536.877 1078.21 536.291C1081.15 535.706 1084.2 536.007 1086.97 537.156C1089.74 538.305 1092.11 540.251 1093.78 542.747C1095.45 545.243 1096.33 548.177 1096.33 551.179C1096.33 555.201 1094.73 559.058 1091.89 561.902C1089.04 564.746 1085.19 566.346 1081.17 566.351ZM1081.17 536.68C1078.3 536.683 1075.5 537.535 1073.12 539.13C1070.74 540.725 1068.89 542.991 1067.79 545.64C1066.7 548.29 1066.41 551.205 1066.97 554.017C1067.53 556.828 1068.92 559.41 1070.94 561.437C1072.97 563.463 1075.55 564.842 1078.36 565.401C1081.17 565.959 1084.09 565.671 1086.73 564.573C1089.38 563.475 1091.64 561.617 1093.23 559.233C1094.83 556.849 1095.68 554.046 1095.68 551.179C1095.67 547.333 1094.14 543.645 1091.42 540.927C1088.7 538.208 1085.01 536.681 1081.17 536.68Z" fill="#9192FF"/>
<path opacity="0.6" d="M1002.2 590.165C1003.06 589.395 1004.18 588.979 1005.34 589.001C1006.49 589.023 1007.6 589.481 1008.43 590.284C1009.26 591.086 1009.75 592.173 1009.82 593.325C1009.88 594.478 1009.5 595.61 1008.76 596.496C1008.33 596.92 1007.83 597.257 1007.27 597.487C1006.72 597.716 1006.12 597.835 1005.52 597.835C1004.92 597.835 1004.33 597.716 1003.77 597.487C1003.22 597.257 1002.71 596.92 1002.29 596.496C1001.48 595.646 1001.02 594.521 1001 593.347C1000.98 592.173 1001.41 591.036 1002.2 590.165Z" fill="white"/>
<path d="M737.17 1298.35C734.17 1298.35 731.237 1297.46 728.743 1295.79C726.248 1294.13 724.304 1291.76 723.155 1288.98C722.007 1286.21 721.706 1283.16 722.291 1280.22C722.876 1277.27 724.321 1274.57 726.442 1272.44C728.564 1270.32 731.266 1268.88 734.209 1268.29C737.151 1267.71 740.201 1268.01 742.972 1269.16C745.744 1270.3 748.113 1272.25 749.779 1274.75C751.445 1277.24 752.334 1280.18 752.333 1283.18C752.329 1287.2 750.73 1291.06 747.887 1293.9C745.044 1296.75 741.19 1298.35 737.17 1298.35ZM737.17 1268.68C734.305 1268.68 731.505 1269.54 729.124 1271.13C726.742 1272.73 724.887 1274.99 723.793 1277.64C722.698 1280.29 722.413 1283.2 722.974 1286.02C723.535 1288.83 724.916 1291.41 726.943 1293.44C728.97 1295.46 731.552 1296.84 734.363 1297.4C737.173 1297.96 740.086 1297.67 742.733 1296.57C745.38 1295.48 747.643 1293.62 749.234 1291.23C750.826 1288.85 751.675 1286.05 751.675 1283.18C751.671 1279.33 750.141 1275.65 747.421 1272.93C744.701 1270.21 741.015 1268.68 737.17 1268.68Z" fill="#9192FF"/>
</svg>
