<svg width="2048" height="934" viewBox="0 0 2048 934" fill="none" xmlns="http://www.w3.org/2000/svg">
<g clip-path="url(#clip0)">
<path d="M1032.13 456.119C1034.07 461.223 1032.34 466.432 1027.26 470.757C1022.18 475.082 1014.11 478.221 1004.58 479.578C995.045 480.936 984.719 480.417 975.558 478.12C966.398 475.823 959.042 471.908 954.887 467.12C952.178 470.553 947.469 473.432 941.385 475.376C935.301 477.321 928.129 478.238 920.82 478.006C920.032 477.981 919.244 477.956 918.471 477.889C915.28 482.888 909.319 487.241 901.301 490.428C893.284 493.615 883.549 495.502 873.259 495.863C862.97 496.223 852.562 495.043 843.279 492.462C833.996 489.881 826.231 486.009 820.913 481.308C815.854 482.469 810.284 482.988 804.649 482.825C799.014 482.661 793.472 481.819 788.469 480.367C783.466 478.914 779.141 476.891 775.842 474.461C772.543 472.031 770.362 469.261 769.475 466.375C763.289 468.953 755.495 470.333 747.362 470.291C739.23 470.249 731.24 468.788 724.694 466.144C720.474 468.598 714.99 470.386 708.824 471.319C702.659 472.251 696.042 472.292 689.677 471.439C683.312 470.585 677.436 468.868 672.674 466.47C667.912 464.072 664.442 461.083 662.631 457.82C657.351 460.552 650.654 462.452 643.267 463.316C635.879 464.179 628.082 463.973 620.719 462.719C616.596 466.624 610.14 469.707 602.259 471.535C594.378 473.363 585.469 473.842 576.789 472.906C569.023 476.485 558.768 478.344 548.107 478.104C537.445 477.865 527.176 475.545 519.383 471.615C511.92 472.5 504.034 472.292 496.595 471.014C489.157 469.736 482.456 467.438 477.232 464.374C473.547 467.726 468.11 470.455 461.506 472.267C454.903 474.079 447.384 474.904 439.757 474.654L439.472 474.645C435.33 480.547 427.291 485.437 416.715 488.488C406.139 491.538 393.676 492.562 381.433 491.386C369.19 490.21 357.92 486.906 349.528 482.034C341.136 477.161 336.139 471.019 335.38 464.646C334.66 464.623 333.926 464.6 333.193 464.576C325.981 464.352 318.9 463.24 312.546 461.334C306.191 459.429 300.747 456.784 296.673 453.624C292.598 450.464 290.011 446.879 289.13 443.172C288.248 439.465 289.097 435.743 291.605 432.319C294.113 428.895 298.208 425.87 303.544 423.496C308.881 421.122 315.304 419.47 322.274 418.678C329.245 417.886 336.558 417.978 343.6 418.945C350.643 419.912 357.209 421.726 362.747 424.236L570.596 430.859C578.548 429.707 587.096 429.823 595.142 431.194C598.804 427.715 604.329 424.878 611.094 423.004C617.858 421.13 625.592 420.294 633.42 420.59C641.249 420.886 648.86 422.302 655.393 424.679C661.927 427.056 667.122 430.298 670.392 434.04L726.083 435.814C732.182 433.849 739.388 432.922 746.733 433.156C754.077 433.39 761.209 434.774 767.172 437.124L909.306 441.653C917.518 440.338 926.513 440.625 934.625 442.46L963.679 443.386C970.109 440.337 978.404 438.509 987.286 438.184C987.234 437.699 987.195 437.215 987.21 436.726C987.338 433.27 989.34 429.946 992.99 427.127C996.641 424.309 1001.79 422.109 1007.87 420.776C1013.95 419.442 1020.7 419.029 1027.37 419.581C1034.05 420.134 1040.37 421.631 1045.64 423.904C1050.9 426.176 1054.89 429.134 1057.16 432.442C1059.43 435.751 1059.89 439.28 1058.49 442.63C1057.08 445.979 1053.87 449.018 1049.21 451.401C1044.56 453.785 1038.64 455.419 1032.13 456.119Z" fill="#D9D9D9"/>
<path d="M1547.98 469.377C1549.48 475.285 1548.03 481.356 1543.89 486.439C1539.75 491.521 1533.22 495.26 1525.54 496.946C1517.85 498.632 1509.55 498.146 1502.21 495.582C1494.86 493.018 1488.99 488.554 1485.7 483.038C1483.48 487.057 1479.66 490.456 1474.74 492.784C1469.82 495.112 1464.04 496.259 1458.16 496.073C1457.53 496.053 1456.9 496.033 1456.27 495.964C1453.65 501.808 1448.8 506.934 1442.32 510.728C1435.83 514.523 1427.97 516.826 1419.69 517.362C1411.41 517.898 1403.05 516.645 1395.61 513.752C1388.17 510.859 1381.96 506.449 1377.74 501.049C1373.65 502.454 1369.17 503.121 1364.63 502.996C1360.1 502.87 1355.65 501.955 1351.64 500.324C1347.63 498.694 1344.18 496.393 1341.55 493.607C1338.92 490.821 1337.2 487.628 1336.52 484.285C1331.51 487.35 1325.22 489.043 1318.68 489.087C1312.14 489.131 1305.73 487.524 1300.49 484.527C1297.07 487.426 1292.63 489.566 1287.66 490.72C1282.69 491.873 1277.36 491.997 1272.25 491.077C1267.14 490.158 1262.43 488.23 1258.63 485.498C1254.82 482.767 1252.06 479.334 1250.65 475.563C1246.37 478.797 1240.96 481.081 1235 482.169C1229.05 483.256 1222.78 483.105 1216.87 481.732C1213.5 486.316 1208.27 489.972 1201.91 492.185C1195.55 494.398 1188.38 495.057 1181.4 494.068C1175.11 498.315 1166.84 500.592 1158.26 500.435C1149.69 500.278 1141.45 497.699 1135.23 493.223C1129.21 494.336 1122.87 494.184 1116.9 492.784C1110.93 491.384 1105.56 488.79 1101.39 485.289C1098.39 489.227 1093.98 492.459 1088.65 494.639C1083.32 496.819 1077.26 497.864 1071.12 497.661L1070.89 497.653C1067.49 504.558 1060.97 510.331 1052.42 513.995C1043.88 517.66 1033.84 518.991 1024 517.764C1014.16 516.537 1005.13 512.828 998.436 507.262C991.739 501.697 987.788 494.618 987.25 487.222C986.671 487.204 986.081 487.185 985.491 487.166C979.691 486.988 974.006 485.777 968.914 483.635C963.823 481.493 959.473 478.483 956.23 474.858C952.988 471.233 950.947 467.098 950.28 462.801C949.612 458.504 950.338 454.17 952.395 450.164C954.452 446.157 957.781 442.595 962.103 439.777C966.424 436.958 971.611 434.965 977.228 433.966C982.846 432.966 988.729 432.989 994.385 434.032C1000.04 435.076 1005.3 437.109 1009.73 439.962L1176.9 445.289C1183.31 443.859 1190.19 443.897 1196.64 445.398C1199.63 441.314 1204.11 437.955 1209.57 435.7C1215.04 433.446 1221.27 432.387 1227.57 432.641C1233.86 432.896 1239.97 434.455 1245.2 437.142C1250.43 439.829 1254.57 443.537 1257.16 447.847L1301.95 449.274C1306.88 446.921 1312.69 445.761 1318.6 445.95C1324.5 446.138 1330.23 447.665 1335 450.327L1449.31 453.97C1455.94 452.348 1463.17 452.579 1469.68 454.619L1493.04 455.364C1498.25 451.747 1504.95 449.529 1512.1 449.051C1512.06 448.488 1512.04 447.927 1512.05 447.358C1512.2 443.342 1513.84 439.456 1516.81 436.14C1519.78 432.824 1523.96 430.21 1528.86 428.591C1533.76 426.973 1539.2 426.415 1544.57 426.981C1549.93 427.547 1555 429.215 1559.21 431.795C1563.42 434.375 1566.6 437.766 1568.39 441.584C1570.18 445.402 1570.51 449.496 1569.34 453.404C1568.17 457.312 1565.55 460.879 1561.78 463.701C1558 466.523 1553.22 468.489 1547.98 469.377Z" fill="#D9D9D9"/>
<path d="M1270.22 429.471C1267.45 438.547 1268.62 448.245 1273.5 456.722C1278.38 465.199 1286.64 471.866 1296.71 475.455C1306.78 479.045 1317.95 479.307 1328.11 476.193C1338.27 473.078 1346.7 466.804 1351.81 458.561C1354.27 465.135 1358.94 470.935 1365.23 475.191C1371.51 479.446 1379.1 481.957 1386.99 482.39C1387.84 482.436 1388.69 482.483 1389.53 482.452C1392.29 491.936 1398.12 500.568 1406.32 507.316C1414.51 514.064 1424.73 518.642 1435.74 520.504C1446.76 522.365 1458.11 521.431 1468.44 517.812C1478.77 514.194 1487.64 508.045 1493.99 500.1C1499.27 502.807 1505.19 504.406 1511.27 504.767C1517.36 505.128 1523.43 504.242 1529 502.18C1534.58 500.118 1539.5 496.937 1543.37 492.894C1547.25 488.85 1549.96 484.057 1551.3 478.899C1557.61 484.322 1565.81 487.75 1574.56 488.626C1583.31 489.501 1592.1 487.771 1599.49 483.719C1603.7 488.686 1609.36 492.587 1615.87 495.008C1622.37 497.429 1629.48 498.278 1636.44 497.467C1643.4 496.656 1649.95 494.214 1655.39 490.4C1660.83 486.587 1664.97 481.545 1667.35 475.809C1672.66 481.406 1679.61 485.654 1687.44 488.092C1695.27 490.53 1703.68 491.066 1711.77 489.642C1715.68 497.243 1722.21 503.619 1730.44 507.872C1738.67 512.125 1748.18 514.042 1757.64 513.351C1765.52 520.784 1776.29 525.372 1787.79 526.183C1799.29 526.993 1810.64 523.966 1819.55 517.716C1827.46 520.202 1835.97 520.746 1844.14 519.287C1852.31 517.828 1859.82 514.423 1865.85 509.449C1869.36 515.991 1874.84 521.602 1881.7 525.676C1888.56 529.751 1896.54 532.135 1904.77 532.573L1905.08 532.59C1908.74 543.832 1916.73 553.686 1927.7 560.483C1938.66 567.281 1951.93 570.606 1965.25 569.895C1978.58 569.184 1991.14 564.481 2000.82 556.581C2010.49 548.682 2016.69 538.071 2018.36 526.544C2019.14 526.586 2019.93 526.63 2020.72 526.673C2028.51 527.108 2036.27 525.91 2043.36 523.18C2050.45 520.45 2056.66 516.267 2061.46 510.983C2066.27 505.7 2069.53 499.469 2070.97 492.815C2072.42 486.161 2072 479.278 2069.77 472.744C2067.53 466.21 2063.53 460.215 2058.11 455.264C2052.69 450.313 2046 446.55 2038.61 444.291C2031.22 442.032 2023.34 441.343 2015.64 442.281C2007.94 443.22 2000.63 445.759 1994.34 449.685L1769.94 437.437C1761.54 434.405 1752.33 433.617 1743.49 435.174C1740.02 428.404 1734.46 422.586 1727.44 418.379C1720.41 414.172 1712.21 411.743 1703.75 411.366C1695.29 410.99 1686.92 412.681 1679.57 416.249C1672.23 419.817 1666.21 425.119 1662.19 431.556L1602.06 428.274C1595.77 423.979 1588.14 421.444 1580.21 421.012C1572.28 420.579 1564.43 422.268 1557.7 425.853L1404.24 417.477C1395.59 414.119 1385.88 413.588 1376.91 415.985L1345.54 414.273C1339.03 407.962 1330.36 403.659 1320.85 402.028C1320.97 401.151 1321.08 400.274 1321.12 399.38C1321.45 393.066 1319.74 386.772 1316.19 381.208C1312.65 375.643 1307.4 371.03 1301.04 367.889C1294.69 364.748 1287.48 363.203 1280.23 363.43C1272.98 363.656 1265.98 365.645 1260.01 369.171C1254.05 372.697 1249.36 377.621 1246.47 383.386C1243.59 389.151 1242.62 395.529 1243.68 401.799C1244.74 408.07 1247.79 413.983 1252.48 418.873C1257.17 423.762 1263.32 427.433 1270.22 429.471Z" fill="white"/>
<path d="M1270.22 429.471C1267.45 438.547 1268.62 448.245 1273.5 456.722C1278.38 465.199 1286.64 471.866 1296.71 475.455C1306.78 479.045 1317.95 479.307 1328.11 476.193C1338.27 473.078 1346.7 466.804 1351.81 458.561C1354.27 465.135 1358.94 470.935 1365.23 475.191C1371.51 479.446 1379.1 481.957 1386.99 482.39C1387.84 482.436 1388.69 482.483 1389.53 482.452C1392.29 491.936 1398.12 500.568 1406.32 507.316C1414.51 514.064 1424.73 518.642 1435.74 520.504C1446.76 522.365 1458.11 521.431 1468.44 517.812C1478.77 514.194 1487.64 508.045 1493.99 500.1C1499.27 502.807 1505.19 504.406 1511.27 504.767C1517.36 505.128 1523.43 504.242 1529 502.18C1534.58 500.118 1539.5 496.937 1543.37 492.894C1547.25 488.85 1549.96 484.057 1551.3 478.899C1557.61 484.322 1565.81 487.75 1574.56 488.626C1583.31 489.501 1592.1 487.771 1599.49 483.719C1603.7 488.686 1609.36 492.587 1615.87 495.008C1622.37 497.429 1629.48 498.278 1636.44 497.467C1643.4 496.656 1649.95 494.214 1655.39 490.4C1660.83 486.587 1664.97 481.545 1667.35 475.809C1672.66 481.406 1679.61 485.654 1687.44 488.092C1695.27 490.53 1703.68 491.066 1711.77 489.642C1715.68 497.243 1722.21 503.619 1730.44 507.872C1738.67 512.125 1748.18 514.042 1757.64 513.351C1765.52 520.784 1776.29 525.372 1787.79 526.183C1799.29 526.993 1810.64 523.966 1819.55 517.716C1827.46 520.202 1835.97 520.746 1844.14 519.287C1852.31 517.828 1859.82 514.423 1865.85 509.449C1869.36 515.991 1874.84 521.602 1881.7 525.676C1888.56 529.751 1896.54 532.135 1904.77 532.573L1905.08 532.59C1908.74 543.832 1916.73 553.686 1927.7 560.483C1938.66 567.281 1951.93 570.606 1965.25 569.895C1978.58 569.184 1991.14 564.481 2000.82 556.581C2010.49 548.682 2016.69 538.071 2018.36 526.544C2019.14 526.586 2019.93 526.63 2020.72 526.673C2028.51 527.108 2036.27 525.91 2043.36 523.18C2050.45 520.45 2056.66 516.267 2061.46 510.983C2066.27 505.7 2069.53 499.469 2070.97 492.815C2072.42 486.161 2072 479.278 2069.77 472.744C2067.53 466.21 2063.53 460.215 2058.11 455.264C2052.69 450.313 2046 446.55 2038.61 444.291C2031.22 442.032 2023.34 441.343 2015.64 442.281C2007.94 443.22 2000.63 445.759 1994.34 449.685L1769.94 437.437C1761.54 434.405 1752.33 433.617 1743.49 435.174C1740.02 428.404 1734.46 422.586 1727.44 418.379C1720.41 414.172 1712.21 411.743 1703.75 411.366C1695.29 410.99 1686.92 412.681 1679.57 416.249C1672.23 419.817 1666.21 425.119 1662.19 431.556L1602.06 428.274C1595.77 423.979 1588.14 421.444 1580.21 421.012C1572.28 420.579 1564.43 422.268 1557.7 425.853L1404.24 417.477C1395.59 414.119 1385.88 413.588 1376.91 415.985L1345.54 414.273C1339.03 407.962 1330.36 403.659 1320.85 402.028C1320.97 401.151 1321.08 400.274 1321.12 399.38C1321.45 393.066 1319.74 386.772 1316.19 381.208C1312.65 375.643 1307.4 371.03 1301.04 367.889C1294.69 364.748 1287.48 363.203 1280.23 363.43C1272.98 363.656 1265.98 365.645 1260.01 369.171C1254.05 372.697 1249.36 377.621 1246.47 383.386C1243.59 389.151 1242.62 395.529 1243.68 401.799C1244.74 408.07 1247.79 413.983 1252.48 418.873C1257.17 423.762 1263.32 427.433 1270.22 429.471Z" fill="white"/>
<path d="M905.016 398.029C906.815 406.349 905.879 415.111 902.385 422.652C898.891 430.192 893.082 435.986 886.063 438.932C879.044 441.878 871.302 441.771 864.309 438.632C857.316 435.493 851.559 429.54 848.13 421.904C846.344 427.793 843.027 432.911 838.62 436.578C834.213 440.245 828.924 442.289 823.454 442.438C822.864 442.454 822.275 442.47 821.693 442.416C819.654 450.936 815.504 458.588 809.74 464.457C803.975 470.326 796.84 474.165 789.186 475.514C781.533 476.862 773.685 475.665 766.581 472.063C759.477 468.462 753.417 462.61 749.126 455.206C745.431 457.499 741.31 458.766 737.094 458.907C732.878 459.047 728.684 458.056 724.851 456.013C721.018 453.97 717.652 450.932 715.024 447.144C712.396 443.357 710.579 438.924 709.719 434.203C705.28 438.928 699.558 441.786 693.486 442.31C687.415 442.834 681.352 440.994 676.287 437.09C673.305 441.466 669.335 444.831 664.798 446.826C660.261 448.822 655.326 449.374 650.518 448.423C645.71 447.472 641.208 445.055 637.49 441.427C633.772 437.799 630.977 433.097 629.403 427.82C625.65 432.734 620.783 436.374 615.329 438.344C609.876 440.315 604.043 440.542 598.462 439C595.653 445.775 591.047 451.359 585.291 454.963C579.535 458.568 572.92 460.014 566.378 459.095C560.828 465.596 553.303 469.426 545.331 469.807C537.358 470.188 529.536 467.091 523.452 461.146C517.943 463.157 512.044 463.388 506.406 461.812C500.767 460.237 495.609 456.916 491.501 452.217C488.981 458.044 485.111 462.966 480.307 466.451C475.504 469.936 469.949 471.853 464.241 471.996L464.028 472.002C461.341 482.089 455.677 490.782 447.994 496.611C440.31 502.44 431.08 505.047 421.864 503.991C412.647 502.935 404.011 498.281 397.415 490.816C390.819 483.35 386.668 473.533 385.666 463.023C385.127 463.037 384.578 463.052 384.029 463.067C378.632 463.221 373.272 461.895 368.399 459.199C363.526 456.504 359.283 452.518 356.026 447.576C352.769 442.634 350.593 436.881 349.681 430.799C348.769 424.718 349.148 418.486 350.785 412.627C352.422 406.767 355.27 401.452 359.09 397.128C362.91 392.803 367.59 389.595 372.737 387.773C377.884 385.952 383.348 385.569 388.669 386.659C393.991 387.748 399.015 390.277 403.319 394.033L558.877 389.842C564.732 387.351 571.119 386.92 577.216 388.605C579.71 382.57 583.639 377.463 588.559 373.863C593.478 370.262 599.192 368.312 605.054 368.231C610.917 368.151 616.693 369.943 621.732 373.407C626.77 376.87 630.869 381.866 633.565 387.83L675.245 386.707C679.662 383.005 684.976 380.941 690.472 380.792C695.969 380.644 701.386 382.419 705.996 385.879L812.371 383.013C818.41 380.234 825.142 380.052 831.321 382.503L853.065 381.917C857.655 376.392 863.719 372.756 870.325 371.57C870.253 370.77 870.19 369.971 870.169 369.159C870.027 363.42 871.293 357.763 873.825 352.824C876.356 347.885 880.051 343.862 884.493 341.208C888.936 338.554 893.948 337.375 898.966 337.804C903.983 338.233 908.806 340.253 912.889 343.637C916.973 347.02 920.155 351.631 922.076 356.951C923.998 362.27 924.582 368.086 923.763 373.742C922.945 379.399 920.755 384.67 917.443 388.961C914.13 393.252 909.826 396.393 905.016 398.029Z" fill="white"/>
<path d="M905.016 398.029C906.815 406.349 905.879 415.111 902.385 422.652C898.891 430.192 893.082 435.986 886.063 438.932C879.044 441.878 871.302 441.771 864.309 438.632C857.316 435.493 851.559 429.54 848.13 421.904C846.344 427.793 843.027 432.911 838.62 436.578C834.213 440.245 828.924 442.289 823.454 442.438C822.864 442.454 822.275 442.47 821.693 442.416C819.654 450.936 815.504 458.588 809.74 464.457C803.975 470.326 796.84 474.165 789.186 475.514C781.533 476.862 773.685 475.665 766.581 472.063C759.477 468.462 753.417 462.61 749.126 455.206C745.431 457.499 741.31 458.766 737.094 458.907C732.878 459.047 728.684 458.056 724.851 456.013C721.018 453.97 717.652 450.932 715.024 447.144C712.396 443.357 710.579 438.924 709.719 434.203C705.28 438.928 699.558 441.786 693.486 442.31C687.415 442.834 681.352 440.994 676.287 437.09C673.305 441.466 669.335 444.831 664.798 446.826C660.261 448.822 655.326 449.374 650.518 448.423C645.71 447.472 641.208 445.055 637.49 441.427C633.772 437.799 630.977 433.097 629.403 427.82C625.65 432.734 620.783 436.374 615.329 438.344C609.876 440.315 604.043 440.542 598.462 439C595.653 445.775 591.047 451.359 585.291 454.963C579.535 458.568 572.92 460.014 566.378 459.095C560.828 465.596 553.303 469.426 545.331 469.807C537.358 470.188 529.536 467.091 523.452 461.146C517.943 463.157 512.044 463.388 506.406 461.812C500.767 460.237 495.609 456.916 491.501 452.217C488.981 458.044 485.111 462.966 480.307 466.451C475.504 469.936 469.949 471.853 464.241 471.996L464.028 472.002C461.341 482.089 455.677 490.782 447.994 496.611C440.31 502.44 431.08 505.047 421.864 503.991C412.647 502.935 404.011 498.281 397.415 490.816C390.819 483.35 386.668 473.533 385.666 463.023C385.127 463.037 384.578 463.052 384.029 463.067C378.632 463.221 373.272 461.895 368.399 459.199C363.526 456.504 359.283 452.518 356.026 447.576C352.769 442.634 350.593 436.881 349.681 430.799C348.769 424.718 349.148 418.486 350.785 412.627C352.422 406.767 355.27 401.452 359.09 397.128C362.91 392.803 367.59 389.595 372.737 387.773C377.884 385.952 383.348 385.569 388.669 386.659C393.991 387.748 399.015 390.277 403.319 394.033L558.877 389.842C564.732 387.351 571.119 386.92 577.216 388.605C579.71 382.57 583.639 377.463 588.559 373.863C593.478 370.262 599.192 368.312 605.054 368.231C610.917 368.151 616.693 369.943 621.732 373.407C626.77 376.87 630.869 381.866 633.565 387.83L675.245 386.707C679.662 383.005 684.976 380.941 690.472 380.792C695.969 380.644 701.386 382.419 705.996 385.879L812.371 383.013C818.41 380.234 825.142 380.052 831.321 382.503L853.065 381.917C857.655 376.392 863.719 372.756 870.325 371.57C870.253 370.77 870.19 369.971 870.169 369.159C870.027 363.42 871.293 357.763 873.825 352.824C876.356 347.885 880.051 343.862 884.493 341.208C888.936 338.554 893.948 337.375 898.966 337.804C903.983 338.233 908.806 340.253 912.889 343.637C916.973 347.02 920.155 351.631 922.076 356.951C923.998 362.27 924.582 368.086 923.763 373.742C922.945 379.399 920.755 384.67 917.443 388.961C914.13 393.252 909.826 396.393 905.016 398.029Z" fill="white"/>
<path d="M1377.36 451.488C1378.54 456.763 1376.96 462.057 1372.92 466.364C1368.89 470.672 1362.68 473.692 1355.48 474.853C1348.27 476.013 1340.57 475.232 1333.84 472.659C1327.11 470.085 1321.82 465.897 1318.97 460.892C1316.76 464.343 1313.08 467.179 1308.42 469.023C1303.76 470.868 1298.35 471.634 1292.89 471.22C1292.3 471.176 1291.71 471.131 1291.14 471.044C1288.48 476.087 1283.79 480.402 1277.61 483.473C1271.44 486.545 1264.06 488.242 1256.34 488.364C1248.62 488.485 1240.9 487.024 1234.09 484.156C1227.28 481.288 1221.68 477.135 1217.96 472.192C1214.11 473.258 1209.91 473.656 1205.7 473.352C1201.5 473.049 1197.4 472.053 1193.73 470.444C1190.07 468.836 1186.94 466.659 1184.6 464.09C1182.26 461.522 1180.78 458.632 1180.27 455.654C1175.51 458.145 1169.6 459.371 1163.52 459.132C1157.43 458.893 1151.53 457.202 1146.78 454.337C1143.49 456.749 1139.29 458.448 1134.63 459.254C1129.96 460.06 1125.01 459.943 1120.29 458.915C1115.58 457.887 1111.27 455.986 1107.84 453.415C1104.4 450.844 1101.97 447.698 1100.79 444.312C1096.69 446.983 1091.58 448.768 1086 449.474C1080.43 450.18 1074.61 449.781 1069.16 448.318C1065.87 452.219 1060.87 455.222 1054.88 456.903C1048.88 458.585 1042.19 458.861 1035.74 457.693C1029.74 461.172 1021.97 462.828 1014 462.325C1006.04 461.822 998.479 459.198 992.86 454.985C987.228 455.711 981.338 455.308 975.842 453.819C970.345 452.331 965.455 449.815 961.711 446.55C958.773 449.896 954.557 452.56 949.519 454.256C944.48 455.952 938.809 456.616 933.116 456.176L932.903 456.16C929.485 462.106 923.205 466.92 915.127 469.79C907.049 472.659 897.668 473.407 888.571 471.907C879.474 470.407 871.219 466.751 865.203 461.557C859.187 456.364 855.779 449.952 855.556 443.405C855.019 443.364 854.471 443.323 853.923 443.281C848.539 442.877 843.301 441.568 838.649 439.462C833.997 437.357 830.067 434.517 827.189 431.181C824.311 427.846 822.568 424.112 822.109 420.293C821.649 416.475 822.485 412.683 824.547 409.237C826.609 405.79 829.836 402.79 833.957 400.487C838.079 398.184 842.974 396.647 848.232 396.004C853.49 395.361 858.958 395.631 864.175 396.792C869.392 397.952 874.207 399.97 878.215 402.674L1033.38 414.475C1039.39 413.486 1045.78 413.812 1051.73 415.41C1054.66 411.935 1058.94 409.162 1064.11 407.406C1069.27 405.65 1075.1 404.98 1080.94 405.472C1086.79 405.964 1092.4 407.599 1097.16 410.191C1101.92 412.784 1105.64 416.23 1107.88 420.141L1149.46 423.303C1154.13 421.438 1159.57 420.662 1165.05 421.079C1170.53 421.496 1175.8 423.086 1180.13 425.636L1286.24 433.707C1292.45 432.558 1299.17 433.068 1305.14 435.144L1326.83 436.794C1331.8 433.825 1338.11 432.153 1344.77 432.035C1344.76 431.538 1344.76 431.041 1344.8 430.54C1345.08 427.003 1346.76 423.646 1349.64 420.848C1352.52 418.049 1356.5 415.92 1361.12 414.701C1365.73 413.482 1370.81 413.221 1375.77 413.948C1380.74 414.675 1385.39 416.361 1389.21 418.816C1393.02 421.271 1395.85 424.397 1397.37 427.841C1398.89 431.285 1399.04 434.91 1397.81 438.307C1396.58 441.705 1394.01 444.739 1390.4 447.068C1386.78 449.397 1382.27 450.928 1377.36 451.488Z" fill="white"/>
<path d="M1377.36 451.488C1378.54 456.763 1376.96 462.057 1372.92 466.364C1368.89 470.672 1362.68 473.692 1355.48 474.853C1348.27 476.013 1340.57 475.232 1333.84 472.659C1327.11 470.085 1321.82 465.897 1318.97 460.892C1316.76 464.343 1313.08 467.179 1308.42 469.023C1303.76 470.868 1298.35 471.634 1292.89 471.22C1292.3 471.176 1291.71 471.131 1291.14 471.044C1288.48 476.087 1283.79 480.402 1277.61 483.473C1271.44 486.545 1264.06 488.242 1256.34 488.364C1248.62 488.485 1240.9 487.024 1234.09 484.156C1227.28 481.288 1221.68 477.135 1217.96 472.192C1214.11 473.258 1209.91 473.656 1205.7 473.352C1201.5 473.049 1197.4 472.053 1193.73 470.444C1190.07 468.836 1186.94 466.659 1184.6 464.09C1182.26 461.522 1180.78 458.632 1180.27 455.654C1175.51 458.145 1169.6 459.371 1163.52 459.132C1157.43 458.893 1151.53 457.202 1146.78 454.337C1143.49 456.749 1139.29 458.448 1134.63 459.254C1129.96 460.06 1125.01 459.943 1120.29 458.915C1115.58 457.887 1111.27 455.986 1107.84 453.415C1104.4 450.844 1101.97 447.698 1100.79 444.312C1096.69 446.983 1091.58 448.768 1086 449.474C1080.43 450.18 1074.61 449.781 1069.16 448.318C1065.87 452.219 1060.87 455.222 1054.88 456.903C1048.88 458.585 1042.19 458.861 1035.74 457.693C1029.74 461.172 1021.97 462.828 1014 462.325C1006.04 461.822 998.479 459.198 992.86 454.985C987.228 455.711 981.338 455.308 975.842 453.819C970.345 452.331 965.455 449.815 961.711 446.55C958.773 449.896 954.557 452.56 949.519 454.256C944.48 455.952 938.809 456.616 933.116 456.176L932.903 456.16C929.485 462.106 923.205 466.92 915.127 469.79C907.049 472.659 897.668 473.407 888.571 471.907C879.474 470.407 871.219 466.751 865.203 461.557C859.187 456.364 855.779 449.952 855.556 443.405C855.019 443.364 854.471 443.323 853.923 443.281C848.539 442.877 843.301 441.568 838.649 439.462C833.997 437.357 830.067 434.517 827.189 431.181C824.311 427.846 822.568 424.112 822.109 420.293C821.649 416.475 822.485 412.683 824.547 409.237C826.609 405.79 829.836 402.79 833.957 400.487C838.079 398.184 842.974 396.647 848.232 396.004C853.49 395.361 858.958 395.631 864.175 396.792C869.392 397.952 874.207 399.97 878.215 402.674L1033.38 414.475C1039.39 413.486 1045.78 413.812 1051.73 415.41C1054.66 411.935 1058.94 409.162 1064.11 407.406C1069.27 405.65 1075.1 404.98 1080.94 405.472C1086.79 405.964 1092.4 407.599 1097.16 410.191C1101.92 412.784 1105.64 416.23 1107.88 420.141L1149.46 423.303C1154.13 421.438 1159.57 420.662 1165.05 421.079C1170.53 421.496 1175.8 423.086 1180.13 425.636L1286.24 433.707C1292.45 432.558 1299.17 433.068 1305.14 435.144L1326.83 436.794C1331.8 433.825 1338.11 432.153 1344.77 432.035C1344.76 431.538 1344.76 431.041 1344.8 430.54C1345.08 427.003 1346.76 423.646 1349.64 420.848C1352.52 418.049 1356.5 415.92 1361.12 414.701C1365.73 413.482 1370.81 413.221 1375.77 413.948C1380.74 414.675 1385.39 416.361 1389.21 418.816C1393.02 421.271 1395.85 424.397 1397.37 427.841C1398.89 431.285 1399.04 434.91 1397.81 438.307C1396.58 441.705 1394.01 444.739 1390.4 447.068C1386.78 449.397 1382.27 450.928 1377.36 451.488Z" fill="white"/>
<path d="M1625.63 470.809C1620.34 480.114 1618.47 489.452 1620.25 497.707C1622.03 505.963 1627.37 512.786 1635.64 517.361C1643.91 521.937 1654.76 524.071 1666.89 523.509C1665.5 528.539 1665.72 533.328 1667.52 537.493C1669.32 541.657 1672.66 545.079 1677.25 547.484C1681.85 549.89 1687.59 551.211 1694 551.342C1700.41 551.473 1707.31 550.409 1714.16 548.238C1709.81 555.534 1708.62 562.882 1710.77 569.084C1712.92 575.285 1718.3 579.975 1726.02 582.387C1721.46 588.052 1718.74 594.029 1718.16 599.684C1717.58 605.338 1719.16 610.459 1722.73 614.501C1726.3 618.544 1731.72 621.357 1738.43 622.643C1745.14 623.929 1752.87 623.639 1760.82 621.805C1755.88 628.558 1753.22 635.577 1753.11 642.101C1752.99 648.626 1755.44 654.407 1760.18 658.82C1752.26 665.844 1746.82 673.848 1744.62 681.704C1742.42 689.561 1743.58 696.873 1747.92 702.612C1741.67 712.111 1740 721.82 1743.25 729.767C1746.5 737.715 1754.42 743.306 1765.4 745.405C1765.26 752.008 1767.73 757.857 1772.55 762.304C1777.36 766.751 1784.33 769.625 1792.68 770.606C1785.92 776.749 1781.04 783.62 1778.55 790.479C1776.06 797.338 1776.07 803.927 1778.57 809.534L1778.67 809.744C1766.17 818.757 1756.99 829.761 1752.67 840.894C1748.34 852.028 1749.15 862.607 1754.94 870.843C1760.74 879.079 1771.17 884.466 1784.47 886.093C1797.77 887.72 1813.13 885.487 1827.94 879.771L1828.66 881.381C1830.99 886.696 1835.34 891.033 1841.32 894.028C1847.3 897.023 1854.74 898.588 1863.02 898.593C1871.3 898.598 1880.18 897.041 1888.91 894.055C1897.64 891.068 1905.96 886.738 1913.18 881.429C1920.41 876.12 1926.31 869.987 1930.41 863.544L2089.5 863.544L2089.5 59.501L1005.5 59.501L975 129.5L961 424L1625.63 470.809Z" fill="white"/>
<path d="M304.158 353.372C302.18 345.271 302.342 336.888 304.613 329.814C306.883 322.74 311.105 317.468 316.476 315C321.846 312.531 327.992 313.038 333.745 316.424C339.498 319.811 344.458 325.84 347.683 333.367C348.709 327.793 350.999 323.042 354.251 319.743C357.502 316.444 361.561 314.754 365.888 314.896C366.355 314.911 366.821 314.927 367.286 315.009C368.338 306.917 371.121 299.77 375.303 294.423C379.485 289.076 384.888 285.755 390.868 284.856C396.847 283.958 403.149 285.521 409.021 289.357C414.893 293.194 420.085 299.143 423.979 306.492C426.757 304.478 429.941 303.473 433.274 303.559C436.608 303.644 439.999 304.817 443.174 306.983C446.349 309.149 449.219 312.248 451.554 316.031C453.889 319.813 455.623 324.174 456.618 328.762C459.825 324.446 464.173 321.995 468.952 321.808C473.732 321.621 478.661 323.708 482.937 327.73C485.01 323.674 487.935 320.644 491.401 318.96C494.866 317.277 498.743 317.004 502.618 318.17C506.494 319.336 510.224 321.898 513.413 325.583C516.601 329.268 519.129 333.939 520.727 339.1C523.377 334.567 526.995 331.319 531.189 329.707C535.383 328.095 539.992 328.182 544.52 329.957C546.298 323.584 549.581 318.451 553.906 315.283C558.231 312.114 563.38 311.069 568.628 312.295C572.598 306.328 578.311 303.036 584.607 303.086C590.904 303.136 597.312 306.524 602.53 312.564C606.765 310.915 611.427 311.002 616.002 312.812C620.578 314.623 624.888 318.088 628.457 322.825C630.069 317.349 632.812 312.815 636.389 309.712C639.967 306.609 644.245 305.054 648.761 305.215L648.93 305.22C650.392 295.654 654.307 287.584 660.013 282.376C665.719 277.167 672.865 275.141 680.243 276.638C687.621 278.136 694.778 283.066 700.503 290.595C706.228 298.123 710.169 307.788 711.661 317.954L712.956 317.998C717.225 318.131 721.563 319.687 725.606 322.536C729.648 325.384 733.277 329.442 736.187 334.368C739.097 339.294 741.204 344.944 742.33 350.844C743.457 356.744 743.57 362.722 742.66 368.274C741.75 373.827 739.844 378.794 737.102 382.756C734.359 386.718 730.861 389.561 726.901 391.045C722.94 392.529 718.633 392.612 714.341 391.285L712.956 419.999L317.515 411.74L312.948 411.644C308.941 410.969 304.983 408.773 301.521 405.304C298.058 401.835 295.23 397.231 293.354 392.012C291.477 386.792 290.629 381.165 290.903 375.764C291.177 370.364 292.563 365.406 294.906 361.449C297.248 357.492 300.452 354.695 304.158 353.372Z" fill="white"/>
<path d="M379.624 296.471C391.826 300.025 403.339 306.503 411.976 314.676C420.614 322.849 425.775 332.148 426.478 340.806C427.181 349.464 423.378 356.879 415.791 361.641C408.204 366.403 397.362 368.182 385.323 366.639C392.514 372.111 397.93 378.571 400.851 385.163C403.773 391.755 404.062 398.167 401.682 403.549C401.425 404.129 401.168 404.709 400.82 405.237C411.481 412.626 419.961 421.504 425.245 430.809C430.53 440.114 432.396 449.452 430.621 457.707C428.845 465.962 423.503 472.786 415.233 477.361C406.963 481.936 396.114 484.071 383.985 483.508C385.368 488.539 385.15 493.328 383.35 497.492C381.549 501.657 378.215 505.079 373.617 507.484C369.019 509.89 363.284 511.211 356.874 511.342C350.464 511.472 343.557 510.409 336.71 508.237C341.06 515.534 342.255 522.882 340.102 529.083C337.948 535.285 332.573 539.974 324.853 542.387C329.416 548.052 332.131 554.029 332.71 559.683C333.289 565.338 331.71 570.458 328.141 574.501C324.572 578.544 319.147 581.357 312.44 582.643C305.734 583.929 297.998 583.639 290.054 581.804C294.986 588.558 297.652 595.576 297.764 602.101C297.876 608.625 295.43 614.407 290.69 618.82C298.607 625.844 304.049 633.848 306.248 641.704C308.447 649.56 307.294 656.873 302.95 662.611C309.198 672.111 310.868 681.82 307.621 689.767C304.374 697.715 296.453 703.306 285.466 705.405C285.609 712.008 283.136 717.856 278.322 722.304C273.509 726.751 266.541 729.624 258.188 730.606C264.949 736.749 269.835 743.619 272.321 750.479C274.806 757.338 274.798 763.926 272.296 769.534L272.203 769.744C284.697 778.757 293.882 789.761 298.205 800.894C302.529 812.027 301.725 822.607 295.929 830.843C290.134 839.079 279.703 844.466 266.401 846.093C253.099 847.72 237.742 845.487 222.928 839.771L222.215 841.381C219.876 846.696 215.534 851.032 209.554 854.027C203.574 857.022 196.13 858.588 187.848 858.593C179.567 858.598 170.689 857.041 161.96 854.055C153.231 851.068 144.907 846.738 137.686 841.429C130.465 836.12 124.559 829.986 120.463 823.544C116.367 817.101 114.201 810.537 114.147 804.404L-23 804.404L-23 262.904L294.592 264.013C297.548 259.436 302.583 256.06 309.128 254.265C315.673 252.47 323.469 252.328 331.635 253.855C339.801 255.381 348.013 258.516 355.343 262.904C362.674 267.293 368.832 272.762 373.122 278.693C377.412 284.624 379.664 290.782 379.624 296.471Z" fill="white"/>
<path d="M669.572 445.45C663.218 441.876 658.361 436.493 655.924 430.323C653.487 424.153 653.639 417.626 656.352 411.982C659.064 406.338 664.149 401.971 670.639 399.709C677.129 397.447 684.573 397.448 691.557 399.712C689.043 395.432 688.001 390.704 688.571 386.155C689.141 381.606 691.295 377.451 694.748 374.24C695.12 373.894 695.492 373.549 695.903 373.246C691.912 367.366 689.83 360.76 689.907 354.216C689.983 347.673 692.215 341.469 696.335 336.346C700.455 331.223 706.288 327.398 713.139 325.328C719.989 323.259 727.566 323.031 734.965 324.674C735.93 321.292 737.811 318.234 740.456 315.746C743.102 313.257 746.438 311.408 750.196 310.346C753.955 309.285 758.03 309.041 762.096 309.633C766.162 310.226 770.103 311.64 773.604 313.76C773.536 308.607 775.463 303.754 779.071 299.992C782.68 296.23 787.757 293.781 793.475 293.045C792.678 288.919 793.154 284.787 794.85 281.089C796.547 277.39 799.402 274.263 803.111 272.04C806.821 269.816 811.246 268.579 815.918 268.46C820.59 268.341 825.334 269.345 829.645 271.364C829.013 266.499 829.899 261.703 832.205 257.494C834.511 253.285 838.15 249.824 842.729 247.486C840.325 242.131 839.829 236.408 841.312 231.122C842.795 225.836 846.182 221.254 850.995 218.021C850.538 211.251 853.028 204.829 857.958 200.059C862.888 195.29 869.889 192.53 877.541 192.34C879.857 188.078 883.536 184.577 888.174 182.224C892.811 179.872 898.225 178.759 903.818 179.01C901.818 174.345 901.258 169.409 902.198 164.734C903.139 160.059 905.544 155.822 909.154 152.479L909.289 152.354C904.741 145.236 902.991 137.188 904.336 129.569C905.682 121.951 910.039 115.23 916.672 110.544C923.304 105.858 931.805 103.495 940.735 103.853C949.666 104.212 958.478 107.27 965.682 112.512L966.715 111.551C970.117 108.38 974.418 106.049 979.258 104.754C984.097 103.459 989.333 103.238 994.526 104.109C999.719 104.981 1004.72 106.92 1009.1 109.763C1013.48 112.606 1017.12 116.271 1019.72 120.448C1022.31 124.626 1023.78 129.196 1024 133.773C1024.22 138.35 1023.19 142.801 1020.99 146.752C1018.79 150.703 1015.48 154.039 1011.35 156.479L1009.1 424.658L713.293 424.658C713.764 430.339 712.1 435.818 708.558 440.252C709.103 440.653 709.642 441.06 710.163 441.497C713.833 444.59 716.54 448.445 717.979 452.625C719.418 456.804 719.532 461.143 718.307 465.152C717.083 469.161 714.569 472.679 711.049 475.311C707.529 477.943 703.143 479.583 698.387 480.046C693.63 480.509 688.692 479.778 684.129 477.933C679.567 476.089 675.561 473.205 672.565 469.608C669.569 466.01 667.701 461.842 667.172 457.573C666.643 453.305 667.474 449.106 669.572 445.45Z" fill="white"/>
</g>
<defs>
<clipPath id="clip0">
<rect width="2148" height="934" fill="white" transform="translate(-38)"/>
</clipPath>
</defs>
</svg>
