<svg width="1097" height="977" viewBox="0 0 1097 977" fill="none" xmlns="http://www.w3.org/2000/svg">
<path opacity="0.6" d="M867.556 81.8454C868.922 80.6253 870.7 79.9663 872.534 80.0013C874.367 80.0364 876.119 80.7627 877.437 82.0341C878.755 83.3056 879.542 85.0278 879.638 86.8541C879.734 88.6805 879.133 90.4754 877.956 91.8778C877.283 92.5506 876.483 93.0844 875.602 93.4485C874.722 93.8126 873.778 94 872.825 94C871.871 94 870.927 93.8126 870.047 93.4485C869.166 93.0844 868.366 92.5506 867.693 91.8778C866.404 90.5317 865.674 88.7494 865.649 86.8885C865.623 85.0276 866.305 83.226 867.556 81.8454Z" fill="white"/>
<path opacity="0.9" d="M923.449 374.76C927.95 370.256 927.95 362.955 923.449 358.451C918.948 353.948 911.65 353.948 907.15 358.451C902.649 362.955 902.649 370.256 907.15 374.76C911.65 379.263 918.948 379.263 923.449 374.76Z" fill="#608CAD"/>
<path opacity="0.4" d="M891 265C899.284 265 906 258.06 906 249.5C906 240.94 899.284 234 891 234C882.716 234 876 240.94 876 249.5C876 258.06 882.716 265 891 265Z" fill="#E5E5FF"/>
<path opacity="0.4" d="M62.1332 964.651C75.1594 964.651 85.7191 954.085 85.7191 941.052C85.7191 928.018 75.1594 917.452 62.1332 917.452C49.1071 917.452 38.5474 928.018 38.5474 941.052C38.5474 954.085 49.1071 964.651 62.1332 964.651Z" fill="#E5E5FF"/>
<path opacity="0.4" d="M458.5 953C464.299 953 469 948.299 469 942.5C469 936.701 464.299 932 458.5 932C452.701 932 448 936.701 448 942.5C448 948.299 452.701 953 458.5 953Z" fill="#E5E5FF"/>
<path opacity="0.4" d="M500.5 19C505.747 19 510 14.7467 510 9.5C510 4.25329 505.747 0 500.5 0C495.253 0 491 4.25329 491 9.5C491 14.7467 495.253 19 500.5 19Z" fill="#E5E5FF"/>
<path d="M865.371 252.716C863.904 252.712 862.44 252.591 860.992 252.357L861.132 251.468C862.534 251.69 863.951 251.8 865.371 251.799H865.536V252.698L865.371 252.716ZM870.083 252.321L869.936 251.432C871.389 251.189 872.819 250.828 874.214 250.353L874.505 251.206C873.063 251.693 871.584 252.065 870.083 252.321ZM856.56 251.31C855.112 250.835 853.704 250.246 852.35 249.548L852.763 248.749C854.074 249.426 855.438 249.996 856.84 250.454L856.56 251.31ZM878.69 249.389L878.269 248.594C879.575 247.903 880.824 247.108 882.004 246.217L882.55 246.936C881.33 247.854 880.039 248.675 878.69 249.389ZM848.493 247.141C847.27 246.234 846.12 245.231 845.056 244.141L845.7 243.512C846.729 244.568 847.842 245.539 849.028 246.415L848.493 247.141ZM885.948 243.886L885.293 243.267C886.308 242.198 887.235 241.048 888.065 239.829L888.809 240.336C887.947 241.595 886.986 242.782 885.933 243.886H885.948ZM842.148 240.627C841.274 239.38 840.502 238.064 839.84 236.692L840.649 236.3C841.29 237.628 842.037 238.903 842.881 240.113L842.148 240.627ZM891.067 236.372L890.254 235.991C890.878 234.653 891.396 233.269 891.804 231.851L892.666 232.099C892.242 233.564 891.702 234.993 891.052 236.372H891.067ZM838.176 232.437C837.74 230.977 837.422 229.484 837.223 227.973L838.114 227.858C838.306 229.319 838.615 230.763 839.038 232.174L838.176 232.437ZM893.536 227.624L892.645 227.52C892.77 226.457 892.832 225.389 892.832 224.319C892.832 223.916 892.832 223.506 892.807 223.103L893.705 223.063C893.705 223.481 893.73 223.901 893.73 224.319C893.734 225.423 893.673 226.527 893.547 227.624H893.536ZM837.899 223.445L837 223.416C837.05 221.892 837.223 220.376 837.518 218.88L838.398 219.053C838.116 220.501 837.948 221.97 837.899 223.445ZM892.264 218.718C891.962 217.275 891.545 215.858 891.016 214.481L891.854 214.157C892.401 215.58 892.834 217.043 893.148 218.535L892.264 218.718ZM839.585 214.801L838.74 214.488C839.271 213.059 839.914 211.675 840.663 210.348L841.447 210.791C840.719 212.075 840.096 213.416 839.585 214.801ZM890.934 214.272C890.394 212.904 889.746 211.581 888.996 210.316L889.769 209.859C890.545 211.17 891.215 212.541 891.771 213.959L890.934 214.272ZM843.924 207.129L843.223 206.568C844.174 205.378 845.22 204.268 846.35 203.248L846.951 203.913C845.858 204.903 844.846 205.978 843.924 207.129ZM886.451 206.69C885.505 205.563 884.47 204.515 883.356 203.554L883.942 202.874C885.094 203.865 886.164 204.947 887.141 206.111L886.451 206.69ZM850.456 201.23L849.97 200.471C851.251 199.646 852.595 198.925 853.989 198.313L854.349 199.14C852.997 199.731 851.695 200.43 850.456 201.23ZM879.793 200.931C878.539 200.156 877.223 199.484 875.86 198.921L876.22 198.09C877.627 198.672 878.986 199.366 880.282 200.165L879.793 200.931ZM858.526 197.694L858.3 196.824C859.774 196.443 861.277 196.184 862.793 196.047L862.876 196.942C861.408 197.077 859.953 197.33 858.526 197.698V197.694ZM871.658 197.561C870.222 197.222 868.762 196.998 867.29 196.892L867.355 196C868.874 196.108 870.381 196.339 871.863 196.691L871.658 197.561Z" fill="#9192FF"/>
<path d="M28.3706 952.716C26.9039 952.712 25.4399 952.591 23.9921 952.357L24.1323 951.468C25.5342 951.69 26.9513 951.8 28.3706 951.799H28.536V952.698L28.3706 952.716ZM33.0835 952.321L32.9361 951.432C34.3888 951.189 35.8194 950.828 37.214 950.353L37.5051 951.206C36.0627 951.693 34.5843 952.065 33.0835 952.321ZM19.5596 951.31C18.112 950.835 16.7044 950.246 15.35 949.548L15.7634 948.749C17.0743 949.426 18.4376 949.996 19.84 950.454L19.5596 951.31ZM41.6896 949.389L41.2689 948.594C42.5754 947.903 43.8244 947.108 45.004 946.217L45.5504 946.936C44.3301 947.854 43.0392 948.675 41.6896 949.389ZM11.4928 947.141C10.2695 946.234 9.12035 945.231 8.05607 944.141L8.69956 943.512C9.72868 944.568 10.842 945.539 12.0284 946.415L11.4928 947.141ZM48.9475 943.886L48.2933 943.267C49.3081 942.198 50.235 941.048 51.0649 939.829L51.8091 940.336C50.9475 941.595 49.9857 942.782 48.9332 943.886H48.9475ZM5.14784 940.627C4.274 939.38 3.50219 938.064 2.83993 936.692L3.64878 936.3C4.29013 937.628 5.03665 938.903 5.88119 940.113L5.14784 940.627ZM54.0666 936.372L53.2542 935.991C53.878 934.653 54.3961 933.269 54.8036 931.851L55.6663 932.099C55.2422 933.564 54.7024 934.993 54.0522 936.372H54.0666ZM1.17551 932.437C0.740239 930.977 0.421692 929.484 0.222879 927.973L1.11441 927.858C1.30558 929.319 1.61455 930.763 2.03829 932.174L1.17551 932.437ZM56.5363 927.624L55.6448 927.52C55.7698 926.457 55.8323 925.389 55.8317 924.319C55.8317 923.916 55.8317 923.506 55.8065 923.103L56.7053 923.063C56.7053 923.481 56.7304 923.901 56.7304 924.319C56.734 925.423 56.6728 926.527 56.5471 927.624H56.5363ZM0.898714 923.445L0 923.416C0.0501991 921.892 0.223316 920.376 0.51766 918.88L1.3984 919.053C1.11556 920.501 0.948467 921.97 0.898714 923.445ZM55.2637 918.718C54.9617 917.275 54.5446 915.858 54.0163 914.481L54.8539 914.157C55.4011 915.58 55.8338 917.043 56.1481 918.535L55.2637 918.718ZM2.5847 914.801L1.73991 914.488C2.27051 913.059 2.91361 911.675 3.66316 910.348L4.44684 910.791C3.71913 912.075 3.0964 913.416 2.5847 914.801ZM53.9336 914.272C53.3941 912.904 52.7461 911.581 51.996 910.316L52.7689 909.859C53.545 911.17 54.2146 912.541 54.7712 913.959L53.9336 914.272ZM6.9237 907.129L6.22269 906.568C7.17379 905.378 8.21973 904.268 9.35022 903.248L9.95056 903.913C8.85806 904.903 7.84593 905.978 6.9237 907.129ZM49.4508 906.69C48.5046 905.563 47.4696 904.515 46.3557 903.554L46.9416 902.874C48.0936 903.865 49.1636 904.947 50.141 906.111L49.4508 906.69ZM13.4555 901.23L12.9702 900.471C14.2507 899.646 15.5946 898.925 16.9893 898.313L17.3488 899.14C15.9972 899.731 14.6952 900.43 13.4555 901.23ZM42.7932 900.931C41.5385 900.156 40.2233 899.484 38.8604 898.921L39.2199 898.09C40.6273 898.672 41.9858 899.366 43.2821 900.165L42.7932 900.931ZM21.526 897.694L21.2995 896.824C22.7739 896.443 24.2767 896.184 25.7931 896.047L25.8758 896.942C24.408 897.077 22.9534 897.33 21.526 897.698V897.694ZM34.658 897.561C33.2223 897.222 31.7617 896.998 30.2903 896.892L30.355 896C31.8738 896.108 33.3814 896.339 34.8629 896.691L34.658 897.561Z" fill="#9192FF"/>
<path d="M1081.17 211.351C1078.17 211.352 1075.24 210.462 1072.74 208.795C1070.25 207.128 1068.3 204.758 1067.16 201.985C1066.01 199.211 1065.71 196.16 1066.29 193.216C1066.88 190.272 1068.32 187.567 1070.44 185.445C1072.56 183.322 1075.27 181.877 1078.21 181.291C1081.15 180.706 1084.2 181.007 1086.97 182.156C1089.74 183.305 1092.11 185.251 1093.78 187.747C1095.45 190.243 1096.33 193.177 1096.33 196.179C1096.33 200.201 1094.73 204.058 1091.89 206.902C1089.04 209.746 1085.19 211.346 1081.17 211.351ZM1081.17 181.68C1078.3 181.683 1075.5 182.535 1073.12 184.13C1070.74 185.725 1068.89 187.991 1067.79 190.64C1066.7 193.29 1066.41 196.205 1066.97 199.017C1067.53 201.828 1068.92 204.41 1070.94 206.437C1072.97 208.463 1075.55 209.842 1078.36 210.401C1081.17 210.959 1084.09 210.671 1086.73 209.573C1089.38 208.475 1091.64 206.617 1093.23 204.233C1094.83 201.849 1095.68 199.046 1095.68 196.179C1095.67 192.333 1094.14 188.645 1091.42 185.927C1088.7 183.208 1085.01 181.681 1081.17 181.68Z" fill="#9192FF"/>
<path d="M662.17 976.351C659.17 976.352 656.237 975.462 653.743 973.795C651.248 972.128 649.304 969.758 648.155 966.985C647.007 964.211 646.706 961.16 647.291 958.216C647.876 955.272 649.321 952.567 651.442 950.445C653.564 948.322 656.266 946.877 659.209 946.291C662.151 945.706 665.201 946.007 667.972 947.156C670.744 948.305 673.113 950.251 674.779 952.747C676.445 955.243 677.334 958.177 677.333 961.179C677.329 965.201 675.73 969.058 672.887 971.902C670.044 974.746 666.19 976.346 662.17 976.351ZM662.17 946.68C659.305 946.683 656.505 947.535 654.124 949.13C651.742 950.725 649.887 952.991 648.793 955.64C647.698 958.29 647.413 961.205 647.974 964.017C648.535 966.828 649.916 969.41 651.943 971.437C653.97 973.463 656.552 974.842 659.363 975.401C662.173 975.959 665.086 975.671 667.733 974.573C670.38 973.475 672.643 971.617 674.234 969.233C675.826 966.849 676.675 964.046 676.675 961.179C676.671 957.333 675.141 953.645 672.421 950.927C669.701 948.208 666.015 946.681 662.17 946.68Z" fill="#9192FF"/>
<path opacity="0.6" d="M1002.2 235.165C1003.06 234.395 1004.18 233.979 1005.34 234.001C1006.49 234.023 1007.6 234.481 1008.43 235.284C1009.26 236.086 1009.75 237.173 1009.82 238.325C1009.88 239.478 1009.5 240.61 1008.76 241.496C1008.33 241.92 1007.83 242.257 1007.27 242.487C1006.72 242.716 1006.12 242.835 1005.52 242.835C1004.92 242.835 1004.33 242.716 1003.77 242.487C1003.22 242.257 1002.71 241.92 1002.29 241.496C1001.48 240.646 1001.02 239.521 1001 238.347C1000.98 237.173 1001.41 236.036 1002.2 235.165Z" fill="white"/>
</svg>
