<svg width="1920" height="1462" viewBox="0 0 1920 1462" fill="none" xmlns="http://www.w3.org/2000/svg">
<path d="M147.488 658.247C153.995 657.081 160.047 654.144 164.313 650.08C165.456 653.164 167.669 655.87 170.764 657.971C173.859 660.071 177.747 661.505 182.102 662.151C186.457 662.798 191.151 662.638 195.79 661.686C200.43 660.734 204.88 659.017 208.767 656.68C211.219 661.613 215.241 665.905 220.554 669.256C225.866 672.607 232.341 674.938 239.531 676.087C246.721 677.236 254.452 677.175 262.19 675.91C269.928 674.645 277.487 672.204 284.343 668.758C284.454 669.813 284.393 670.899 284.504 671.954C285.299 679.485 288.693 686.432 294.392 692.192C300.09 697.951 307.921 702.349 317.204 705.004C326.486 707.658 336.939 708.487 347.655 707.421C358.371 706.355 369.025 703.424 378.691 698.884C380.419 703.696 383.73 707.96 388.372 711.353C393.015 714.746 398.868 717.178 405.487 718.465C412.105 719.751 419.316 719.859 426.571 718.78C433.826 717.7 440.935 715.462 447.359 712.235C451.08 721.381 459.072 728.864 470.134 733.562C481.197 738.261 494.734 739.92 508.714 738.292C522.694 736.664 536.364 731.837 547.672 724.534C558.98 717.23 567.316 707.846 571.43 697.788C579.126 696.296 586.52 693.479 592.94 689.593C597.434 694.026 603.715 697.288 611.137 699.042C618.559 700.796 626.853 700.98 635.167 699.574C643.48 698.167 651.513 695.222 658.437 691.041C665.361 686.86 670.927 681.595 674.561 675.786C680.046 678.556 686.594 680.225 693.677 680.659C700.761 681.093 708.184 680.281 715.351 678.287C722.517 676.293 729.227 673.173 734.943 669.178C740.659 665.182 745.22 660.422 748.262 655.28C750.238 656.544 752.627 657.451 755.281 657.948C757.935 658.444 760.8 658.519 763.7 658.167C766.599 657.816 769.473 657.046 772.146 655.904C774.818 654.762 777.233 653.272 779.243 651.525C778.124 653.565 777.707 655.689 778.032 657.693C778.356 659.698 779.412 661.516 781.097 662.973C782.782 664.431 785.04 665.478 787.655 666.016C790.27 666.554 793.154 666.564 796.031 666.044L797.508 665.779C796.606 667.662 796.299 669.596 796.612 671.424C796.926 673.253 797.85 674.926 799.31 676.307C800.771 677.688 802.728 678.74 805.022 679.377C807.316 680.013 809.884 680.218 812.517 679.973C809.743 682.603 808.269 685.73 808.389 688.732C808.509 691.734 810.213 694.393 813.164 696.182C816.115 697.97 820.097 698.758 824.321 698.388C828.544 698.018 832.701 696.518 835.967 694.185C837.627 696.239 840.185 697.78 843.321 698.616C846.457 699.453 850.033 699.547 853.602 698.887C857.171 698.228 860.577 696.844 863.393 694.908C866.21 692.973 868.313 690.571 869.44 688.002C871.255 689.166 873.507 689.948 876.012 690.284C878.516 690.619 881.203 690.499 883.85 689.932C886.497 689.365 889.029 688.367 891.24 687.022C893.45 685.676 895.275 684.021 896.564 682.191L898.276 681.884C899.701 683.036 901.502 683.913 903.562 684.458C905.621 685.004 907.895 685.206 910.236 685.051C912.577 684.897 914.934 684.389 917.155 683.561C919.377 682.733 921.413 681.602 923.134 680.243C924.909 681.924 927.41 683.112 930.341 683.669C933.273 684.225 936.515 684.127 939.687 683.384C942.859 682.642 945.83 681.286 948.25 679.477C950.671 677.668 952.441 675.48 953.353 673.17C955.991 673.871 958.97 674.005 961.979 673.558C964.989 673.112 967.919 672.1 970.465 670.63C973.011 669.16 975.08 667.284 976.455 665.198C977.831 663.112 978.464 660.892 978.287 658.77C979.649 658.765 981.034 658.639 982.413 658.397C985.203 657.891 987.897 656.906 990.253 655.53C992.61 654.154 994.554 652.429 995.913 650.511C997.272 648.593 998.002 646.541 998.038 644.539C998.075 642.538 997.416 640.649 996.122 639.043L997.513 638.793C1000.27 638.297 1002.94 637.331 1005.28 635.98C1007.62 634.629 1009.56 632.935 1010.93 631.046C1012.3 629.157 1013.06 627.132 1013.14 625.148C1013.22 623.164 1012.62 621.282 1011.4 619.668C1012.31 619.615 1013.24 619.506 1014.15 619.342C1018.62 618.539 1022.77 616.52 1025.7 613.728C1028.62 610.936 1030.08 607.601 1029.75 604.455C1029.66 603.656 1029.46 602.879 1029.16 602.135C1032.58 602.738 1036.32 602.63 1040 601.822C1043.68 601.015 1047.17 599.537 1050.11 597.542C1056.23 602.205 1064.6 605.075 1074.02 605.745C1083.45 606.416 1093.45 604.853 1102.63 601.278C1102.49 602.636 1102.48 603.982 1102.6 605.308C1103.08 610.074 1105.34 614.437 1109.16 617.951C1112.99 621.465 1118.23 624.003 1124.35 625.307C1130.47 626.612 1137.26 626.635 1144.02 625.375C1150.77 624.115 1157.26 621.616 1162.82 618.134C1168.16 625.272 1176.82 630.584 1187.57 633.311C1198.32 636.039 1210.61 636.043 1222.68 633.322C1234.75 630.602 1245.98 625.296 1254.78 618.163C1263.58 611.03 1269.48 602.434 1271.66 593.602C1279.05 594.874 1287.11 594.668 1295.08 593.006C1303.04 591.344 1310.63 588.28 1317.13 584.109C1323.63 579.938 1328.82 574.798 1332.2 569.183C1335.58 563.567 1337.03 557.663 1336.43 552.036C1336 547.84 1334.41 543.89 1331.76 540.406C1339.65 537.783 1346.63 533.55 1351.71 528.304C1356.79 523.058 1359.72 517.062 1360.09 511.163C1367.29 512.547 1375.31 512.219 1383.08 510.223C1390.84 508.226 1398 504.654 1403.61 499.976L883.85 503.929L300.817 608.692C295.393 604.651 288.456 601.802 280.59 600.385C272.724 598.967 264.16 599.023 255.619 600.547C247.078 602.071 238.811 605.019 231.513 609.143C224.216 613.266 218.102 618.444 213.687 624.24C210.719 622.411 207.108 621.156 203.109 620.564C199.109 619.972 194.821 620.059 190.546 620.816C186.271 621.574 182.115 622.985 178.372 624.95C174.629 626.914 171.391 629.383 168.887 632.183C167.362 629.286 164.657 626.905 161.076 625.308C157.496 623.712 153.183 622.964 148.626 623.149C144.068 623.334 139.447 624.444 135.284 626.355C131.122 628.266 127.585 630.9 125.072 633.961C122.559 637.022 121.171 640.387 121.065 643.676C120.958 646.964 122.137 650.046 124.469 652.573C126.801 655.099 130.192 656.969 134.26 657.972C138.328 658.975 142.91 659.07 147.488 658.247Z" fill="#D9D9D9"/>
<path d="M-46.9606 643.406C-49.8913 652.94 -47.0798 662.515 -39.0597 670.313C-31.0398 678.11 -18.3701 683.587 -3.45737 685.703C11.4554 687.819 27.5725 686.426 41.833 681.79C56.0934 677.153 67.5037 669.596 73.8966 660.553C78.1966 666.798 85.6087 671.934 95.1502 675.28C104.692 678.627 115.912 680.026 127.322 679.291C128.552 679.212 129.782 679.132 130.988 678.977C136.072 688.101 145.469 695.914 158.055 701.482C170.641 707.051 185.884 710.138 201.961 710.376C218.039 710.614 234.27 707.993 248.717 702.825C263.163 697.657 275.212 690.161 283.424 681.233C291.348 683.171 300.058 683.901 308.856 683.362C317.653 682.824 326.292 681.033 334.076 678.134C341.861 675.235 348.575 671.308 353.679 666.669C358.782 662.031 362.132 656.81 363.459 651.427C373.172 655.943 385.374 658.174 398.074 657.756C410.775 657.339 423.225 654.298 433.394 649.129C440.034 653.498 448.636 656.58 458.284 658.049C467.932 659.518 478.268 659.318 488.191 657.471C498.115 655.624 507.257 652.199 514.647 647.559C522.036 642.919 527.396 637.238 530.157 631.119C538.459 635.958 548.956 639.198 560.511 640.488C572.067 641.779 584.24 641.071 595.715 638.441C602.232 645.501 612.378 650.942 624.723 653.998C637.069 657.053 650.992 657.569 664.53 655.472C676.732 661.777 692.785 664.791 709.431 663.902C726.077 663.012 742.069 658.287 754.161 650.683C765.834 652.01 778.147 651.296 789.739 648.618C801.331 645.94 811.751 641.404 819.848 635.51C825.671 641.566 834.217 646.393 844.566 649.472C854.916 652.552 866.676 653.766 878.582 652.985L879.028 652.957C885.616 663.715 898.27 672.435 914.849 677.643C931.427 682.85 950.913 684.226 970.01 681.536C989.107 678.847 1006.64 672.257 1019.65 662.882C1032.66 653.508 1040.34 641.923 1041.4 630.088C1042.52 630.016 1043.67 629.942 1044.81 629.868C1056.07 629.151 1067.11 626.796 1077 623.001C1086.88 619.206 1095.33 614.081 1101.63 608.058C1107.93 602.035 1111.9 595.288 1113.2 588.385C1114.5 581.483 1113.1 574.625 1109.12 568.389C1105.13 562.153 1098.68 556.72 1090.29 552.546C1081.91 548.373 1071.84 545.582 1060.94 544.406C1050.04 543.23 1038.62 543.705 1027.64 545.791C1016.66 547.876 1006.44 551.511 997.845 556.39L673.357 577.341C660.914 575.539 647.566 576.112 635.028 578.986C629.239 572.696 620.552 567.672 609.95 564.484C599.347 561.296 587.252 560.071 575.031 560.946C562.81 561.821 550.952 564.763 540.795 569.438C530.639 574.113 522.59 580.335 517.559 587.401L430.616 593.015C421.05 589.63 409.778 588.213 398.311 588.953C386.845 589.694 375.734 592.556 366.469 597.156L144.574 611.483C131.721 609.391 117.679 610.297 105.047 614.036L59.6879 616.964C49.5842 611.585 36.592 608.546 22.7137 608.316C22.786 607.417 22.8372 606.519 22.803 605.613C22.5342 599.218 19.3405 593.144 13.5823 588.077C7.82417 583.01 -0.269294 579.151 -9.78476 576.935C-19.3003 574.72 -29.8592 574.236 -40.2702 575.538C-50.6811 576.84 -60.5298 579.877 -68.7048 584.306C-76.8799 588.735 -83.0561 594.379 -86.5366 600.602C-90.0169 606.825 -90.6631 613.379 -88.402 619.524C-86.141 625.67 -81.0626 631.162 -73.7401 635.382C-66.4176 639.602 -57.1422 642.381 -46.9606 643.406Z" fill="white"/>
<path d="M795.082 545.662C792.945 556.571 795.262 567.668 801.594 576.843C807.926 586.019 817.833 592.635 829.431 595.435C841.029 598.235 853.512 597.023 864.509 592.03C875.505 587.037 884.249 578.611 889.079 568.351C892.504 575.648 898.327 581.744 905.776 585.831C913.225 589.917 921.949 591.801 930.79 591.233C931.743 591.171 932.696 591.11 933.629 590.96C937.703 601.592 945.104 610.82 954.946 617.539C964.789 624.258 976.657 628.185 989.132 628.851C1001.61 629.516 1014.16 626.892 1025.29 621.291C1036.43 615.69 1045.67 607.351 1051.91 597.269C1058.08 599.694 1064.85 600.745 1071.67 600.339C1078.49 599.934 1085.16 598.081 1091.16 594.932C1097.16 591.782 1102.31 587.423 1106.2 582.205C1110.09 576.987 1112.62 571.055 1113.57 564.887C1121.17 570.325 1130.67 573.192 1140.51 573.02C1150.36 572.848 1159.98 569.649 1167.79 563.943C1173 569.136 1179.72 572.896 1187.23 574.822C1194.73 576.749 1202.75 576.77 1210.42 574.885C1218.09 572.999 1225.13 569.276 1230.8 564.112C1236.46 558.948 1240.54 552.536 1242.6 545.556C1249.11 551.33 1257.29 555.317 1266.28 557.085C1275.26 558.852 1284.69 558.333 1293.56 555.583C1298.71 563.873 1306.66 570.387 1316.28 574.206C1325.9 578.026 1336.71 578.959 1347.18 576.874C1356.74 584.432 1369.23 588.294 1382.13 587.675C1395.03 587.056 1407.37 582.002 1416.64 573.54C1425.72 575.352 1435.26 574.828 1444.21 572.026C1453.17 569.225 1461.18 564.254 1467.38 557.663C1471.98 564.779 1478.68 570.547 1486.76 574.345C1494.83 578.143 1503.97 579.828 1513.19 579.218L1513.54 579.196C1518.8 591.747 1528.74 602.098 1541.68 608.5C1554.61 614.901 1569.75 616.959 1584.52 614.326C1599.3 611.693 1612.81 604.531 1622.77 594.05C1632.72 583.57 1638.52 570.414 1639.17 556.81C1640.04 556.754 1640.93 556.696 1641.81 556.639C1650.54 556.087 1659.07 553.644 1666.68 549.514C1674.3 545.383 1680.78 539.687 1685.58 532.903C1690.38 526.119 1693.36 518.446 1694.27 510.527C1695.19 502.609 1694 494.677 1690.82 487.397C1687.64 480.118 1682.56 473.703 1675.99 468.693C1669.43 463.683 1661.58 460.223 1653.11 458.603C1644.64 456.984 1635.78 457.253 1627.3 459.388C1618.81 461.522 1610.93 465.46 1604.33 470.87L1352.92 487.104C1343.24 484.725 1332.89 485.06 1323.21 488.065C1318.63 480.679 1311.82 474.682 1303.55 470.752C1295.28 466.823 1285.88 465.117 1276.41 465.828C1266.94 466.538 1257.78 469.638 1249.97 474.775C1242.16 479.912 1236 486.882 1232.2 494.898L1164.84 499.247C1157.37 495.116 1148.6 493.21 1139.72 493.784C1130.84 494.357 1122.26 497.384 1115.14 502.456L943.208 513.557C933.208 510.834 922.327 511.537 912.581 515.535L877.437 517.804C869.522 511.363 859.401 507.547 848.632 506.944C848.675 505.909 848.702 504.876 848.662 503.833C848.363 496.461 845.799 489.388 841.26 483.412C836.721 477.436 830.388 472.794 822.975 470.011C815.562 467.227 807.364 466.413 799.307 467.66C791.249 468.906 783.652 472.164 777.374 477.066C771.095 481.968 766.384 488.318 763.773 495.4C761.162 502.483 760.754 510.015 762.595 517.148C764.436 524.281 768.454 530.731 774.194 535.769C779.935 540.807 787.17 544.234 795.082 545.662Z" fill="white"/>
<path d="M1604.59 531.652C1610.19 537.999 1618.78 542.222 1628.73 543.518C1622.25 547.131 1617.09 552.108 1613.95 557.788C1610.8 563.468 1609.81 569.583 1611.11 575.323C1611.25 575.942 1611.39 576.56 1611.61 577.15C1602.09 581.809 1594.17 588.407 1588.78 596.156C1583.4 603.905 1580.79 612.477 1581.26 620.847C1581.73 629.218 1585.26 637.032 1591.43 643.357C1597.61 649.681 1606.16 654.248 1616.07 656.512C1614.35 661.042 1613.97 665.711 1614.94 670.142C1615.91 674.574 1618.21 678.644 1621.66 682.027C1625.11 685.41 1629.61 688.01 1634.79 689.619C1639.98 691.228 1645.71 691.801 1651.52 691.291C1647.13 697.319 1645.3 704.128 1646.31 710.605C1647.33 717.083 1651.14 722.848 1657.12 726.959C1652.76 731.366 1649.85 736.501 1648.71 741.819C1647.58 747.137 1648.26 752.439 1650.68 757.163C1653.1 761.886 1657.17 765.854 1662.46 768.645C1667.75 771.436 1674.06 772.946 1680.73 773.015C1675.93 778.385 1672.94 784.536 1672.08 790.801C1671.22 797.066 1672.53 803.206 1675.86 808.558C1668.61 813.499 1663.25 819.957 1660.54 827.023C1657.83 834.089 1657.91 841.407 1660.76 847.945C1654.57 855.659 1652.07 864.633 1653.77 873.047C1655.47 881.461 1661.24 888.684 1669.91 893.249C1669.02 899.583 1670.34 905.794 1673.72 911.196C1677.1 916.597 1682.42 920.979 1689.08 923.858C1682.87 928.217 1678.1 933.711 1675.28 939.75C1672.45 945.789 1671.69 952.143 1673.06 958.128L1673.11 958.352C1661.91 964.152 1653.16 972.637 1648.34 982.372C1643.53 992.106 1642.93 1002.49 1646.67 1011.77C1650.4 1021.06 1658.23 1028.66 1668.84 1033.31C1679.44 1037.95 1692.16 1039.35 1704.85 1037.27L1705.24 1038.99C1706.52 1044.65 1709.53 1049.84 1714.03 1054.11C1718.53 1058.38 1724.39 1061.61 1731.11 1063.53C1737.83 1065.45 1745.21 1066 1752.65 1065.14C1760.08 1064.28 1767.34 1062.03 1773.83 1058.59L1930.5 1058.59L1930.5 425.5L-39.0001 425.5L-39.0001 620.847L936.5 620.847L1134.5 526.478L1604.59 531.652Z" fill="white"/>
</svg>
