<svg width="1920" height="1119" viewBox="0 0 1920 1119" fill="none" xmlns="http://www.w3.org/2000/svg">
<path d="M1250.77 547.687C1254.17 542.828 1252.13 537.446 1245.03 532.563C1237.93 527.681 1226.27 523.638 1212.26 521.203C1198.25 518.767 1182.86 518.109 1169.03 519.354C1155.19 520.598 1143.87 523.657 1137.21 527.952C1133.54 524.226 1126.84 520.825 1118.01 518.197C1109.18 515.57 1098.62 513.841 1087.74 513.241C1086.57 513.176 1085.4 513.112 1084.25 513.09C1080.02 507.751 1071.62 502.74 1060.04 498.656C1048.46 494.571 1034.2 491.586 1018.96 490.057C1003.72 488.527 988.145 488.519 974.099 490.032C960.052 491.545 948.127 494.516 939.749 498.589C932.358 496.859 924.14 495.708 915.757 495.23C907.374 494.752 899.06 494.96 891.483 495.836C883.905 496.713 877.277 498.234 872.131 500.278C866.984 502.322 863.463 504.83 861.85 507.603C852.93 504.333 841.498 502.073 829.42 501.189C817.341 500.306 805.328 500.852 795.339 502.739C789.325 499.816 781.365 497.412 772.306 495.783C763.248 494.154 753.428 493.36 743.89 493.485C734.352 493.611 725.453 494.652 718.137 496.497C710.821 498.342 705.363 500.923 702.341 503.965C694.781 500.645 685.033 497.992 674.153 496.292C663.273 494.592 651.675 493.911 640.614 494.321C634.893 489.965 625.623 486.162 614.109 483.446C602.595 480.73 589.417 479.24 576.433 479.184C565.269 474.738 550.234 471.722 534.381 470.747C518.527 469.773 503.042 470.914 491.069 473.939C480.08 472.21 468.35 471.52 457.175 471.946C446 472.372 435.815 473.897 427.746 476.353C422.617 472.596 414.824 469.261 405.206 466.707C395.588 464.153 384.508 462.476 373.159 461.857L372.735 461.834C367.189 455.488 355.753 449.706 340.364 445.467C324.974 441.227 306.574 438.791 288.277 438.569C269.979 438.347 252.908 440.353 239.95 444.249C226.991 448.144 218.942 453.689 217.163 459.946C216.092 459.887 215 459.827 213.909 459.767C203.178 459.17 192.552 459.471 182.921 460.645C173.291 461.819 164.939 463.832 158.566 466.514C152.192 469.197 147.985 472.47 146.296 476.06C144.607 479.649 145.486 483.451 148.86 487.144C152.233 490.837 158.003 494.315 165.683 497.284C173.364 500.254 182.731 502.629 192.999 504.21C203.266 505.792 214.134 506.533 224.689 506.371C235.244 506.209 245.179 505.15 253.657 503.282L562.934 520.331C574.623 522.383 587.326 523.24 599.411 522.791C604.492 526.67 612.406 530.123 622.257 532.757C632.109 535.392 643.505 537.104 655.159 537.7C666.812 538.296 678.258 537.751 688.201 536.129C698.145 534.506 706.19 531.87 711.428 528.517L794.295 533.086C803.15 535.735 813.754 537.479 824.682 538.081C835.611 538.683 846.342 538.116 855.435 536.456L1066.93 548.115C1078.99 550.358 1092.37 551.096 1104.6 550.192L1147.83 552.575C1157.07 556.342 1169.2 559.105 1182.35 560.438C1182.22 560.915 1182.12 561.392 1182.09 561.881C1181.93 565.335 1184.56 568.872 1189.69 572.093C1194.82 575.313 1202.25 578.089 1211.13 580.107C1220.01 582.126 1230 583.306 1239.97 583.515C1249.93 583.724 1259.48 582.953 1267.52 581.29C1275.57 579.627 1281.8 577.137 1285.51 574.102C1289.22 571.067 1290.27 567.607 1288.52 564.113C1286.78 560.618 1282.32 557.229 1275.65 554.327C1268.98 551.424 1260.36 549.125 1250.77 547.687Z" fill="#D9D9D9"/>
<path d="M1236.26 547.04C1237.9 541.887 1236.78 536.476 1233.14 531.835C1229.49 527.193 1223.57 523.645 1216.49 521.863C1209.42 520.082 1201.68 520.191 1194.75 522.171C1187.82 524.151 1182.19 527.863 1178.91 532.602C1177.01 528.972 1173.59 525.827 1169.11 523.585C1164.63 521.343 1159.3 520.11 1153.83 520.048C1153.24 520.042 1152.65 520.036 1152.07 520.072C1149.86 514.817 1145.56 510.111 1139.67 506.515C1133.79 502.92 1126.58 500.587 1118.9 499.797C1111.22 499.006 1103.4 499.791 1096.37 502.057C1089.34 504.323 1083.4 507.974 1079.26 512.575C1075.52 511.179 1071.38 510.418 1067.16 510.355C1062.94 510.292 1058.77 510.929 1054.98 512.213C1051.18 513.497 1047.88 515.394 1045.33 517.75C1042.78 520.106 1041.05 522.856 1040.29 525.779C1035.75 522.884 1029.97 521.149 1023.89 520.86C1017.81 520.57 1011.79 521.741 1006.8 524.183C1003.74 521.495 999.698 519.437 995.122 518.229C990.546 517.022 985.601 516.708 980.813 517.323C976.025 517.938 971.573 519.457 967.929 521.721C964.285 523.984 961.586 526.906 960.118 530.177C956.267 527.161 951.328 524.939 945.836 523.751C940.344 522.564 934.508 522.456 928.96 523.441C926.015 519.269 921.297 515.843 915.47 513.647C909.643 511.452 903.001 510.596 896.479 511.2C890.799 507.213 883.199 504.888 875.221 504.697C867.243 504.507 859.485 506.465 853.521 510.174C847.974 508.962 842.072 508.852 836.466 509.858C830.861 510.864 825.771 512.946 821.758 515.873C819.121 512.285 815.153 509.265 810.281 507.138C805.408 505.011 799.816 503.857 794.107 503.801L793.893 503.798C791.004 497.579 785.166 492.237 777.368 488.677C769.569 485.117 760.289 483.558 751.096 484.262C741.903 484.967 733.362 487.893 726.918 492.544C720.474 497.196 716.522 503.288 715.731 509.79C715.192 509.784 714.643 509.778 714.093 509.772C708.695 509.707 703.363 510.557 698.545 512.25C693.728 513.944 689.566 516.432 686.409 519.505C683.252 522.578 681.193 526.147 680.403 529.911C679.614 533.675 680.118 537.525 681.872 541.138C683.627 544.75 686.581 548.019 690.487 550.671C694.393 553.323 699.137 555.279 704.319 556.376C709.502 557.473 714.972 557.679 720.27 556.976C725.569 556.272 730.54 554.681 734.768 552.335L890.373 554.049C896.276 555.556 902.67 555.787 908.733 554.711C911.348 558.427 915.379 561.562 920.369 563.76C925.36 565.957 931.112 567.131 936.974 567.148C942.836 567.165 948.576 566.024 953.543 563.855C958.51 561.685 962.508 558.574 965.083 554.872L1006.78 555.332C1011.27 557.596 1016.62 558.842 1022.12 558.902C1027.62 558.963 1033 557.835 1037.54 555.671L1143.94 556.843C1150.04 558.527 1156.77 558.602 1162.9 557.052L1184.65 557.292C1189.35 560.681 1195.49 562.894 1202.11 563.59C1202.06 564.085 1202.01 564.579 1202.01 565.082C1201.98 568.629 1203.36 572.119 1205.99 575.158C1208.62 578.196 1212.39 580.663 1216.89 582.278C1221.38 583.894 1226.42 584.594 1231.43 584.3C1236.43 584.007 1241.22 582.731 1245.23 580.617C1249.24 578.503 1252.33 575.634 1254.15 572.335C1255.96 569.036 1256.43 565.438 1255.5 561.946C1254.56 558.455 1252.27 555.209 1248.87 552.575C1245.47 549.941 1241.11 548.024 1236.26 547.04Z" fill="white"/>
<path d="M1236.26 547.04C1237.9 541.887 1236.78 536.476 1233.14 531.835C1229.49 527.193 1223.57 523.645 1216.49 521.863C1209.42 520.082 1201.68 520.191 1194.75 522.171C1187.82 524.151 1182.19 527.863 1178.91 532.602C1177.01 528.972 1173.59 525.827 1169.11 523.585C1164.63 521.343 1159.3 520.11 1153.83 520.048C1153.24 520.042 1152.65 520.036 1152.07 520.072C1149.86 514.817 1145.56 510.111 1139.67 506.515C1133.79 502.92 1126.58 500.587 1118.9 499.797C1111.22 499.006 1103.4 499.791 1096.37 502.057C1089.34 504.323 1083.4 507.974 1079.26 512.575C1075.52 511.179 1071.38 510.418 1067.16 510.355C1062.94 510.292 1058.77 510.929 1054.98 512.213C1051.18 513.497 1047.88 515.394 1045.33 517.75C1042.78 520.106 1041.05 522.856 1040.29 525.779C1035.75 522.884 1029.97 521.149 1023.89 520.86C1017.81 520.57 1011.79 521.741 1006.8 524.183C1003.74 521.495 999.698 519.437 995.122 518.229C990.546 517.022 985.601 516.708 980.813 517.323C976.025 517.938 971.573 519.457 967.929 521.721C964.285 523.984 961.586 526.906 960.118 530.177C956.267 527.161 951.328 524.939 945.836 523.751C940.344 522.564 934.508 522.456 928.96 523.441C926.015 519.269 921.297 515.843 915.47 513.647C909.643 511.452 903.001 510.596 896.479 511.2C890.799 507.213 883.199 504.888 875.221 504.697C867.243 504.507 859.485 506.465 853.521 510.174C847.974 508.962 842.072 508.852 836.466 509.858C830.861 510.864 825.771 512.946 821.758 515.873C819.121 512.285 815.153 509.265 810.281 507.138C805.408 505.011 799.816 503.857 794.107 503.801L793.893 503.798C791.004 497.579 785.166 492.237 777.368 488.677C769.569 485.117 760.289 483.558 751.096 484.262C741.903 484.967 733.362 487.893 726.918 492.544C720.474 497.196 716.522 503.288 715.731 509.79C715.192 509.784 714.643 509.778 714.093 509.772C708.695 509.707 703.363 510.557 698.545 512.25C693.728 513.944 689.566 516.432 686.409 519.505C683.252 522.578 681.193 526.147 680.403 529.911C679.614 533.675 680.118 537.525 681.872 541.138C683.627 544.75 686.581 548.019 690.487 550.671C694.393 553.323 699.137 555.279 704.319 556.376C709.502 557.473 714.972 557.679 720.27 556.976C725.569 556.272 730.54 554.681 734.768 552.335L890.373 554.049C896.276 555.556 902.67 555.787 908.733 554.711C911.348 558.427 915.379 561.562 920.369 563.76C925.36 565.957 931.112 567.131 936.974 567.148C942.836 567.165 948.576 566.024 953.543 563.855C958.51 561.685 962.508 558.574 965.083 554.872L1006.78 555.332C1011.27 557.596 1016.62 558.842 1022.12 558.902C1027.62 558.963 1033 557.835 1037.54 555.671L1143.94 556.843C1150.04 558.527 1156.77 558.602 1162.9 557.052L1184.65 557.292C1189.35 560.681 1195.49 562.894 1202.11 563.59C1202.06 564.085 1202.01 564.579 1202.01 565.082C1201.98 568.629 1203.36 572.119 1205.99 575.158C1208.62 578.196 1212.39 580.663 1216.89 582.278C1221.38 583.894 1226.42 584.594 1231.43 584.3C1236.43 584.007 1241.22 582.731 1245.23 580.617C1249.24 578.503 1252.33 575.634 1254.15 572.335C1255.96 569.036 1256.43 565.438 1255.5 561.946C1254.56 558.455 1252.27 555.209 1248.87 552.575C1245.47 549.941 1241.11 548.024 1236.26 547.04Z" fill="white"/>
<path d="M1143.61 570.281C1141.62 561.252 1143.62 551.957 1149.21 544.16C1154.81 536.364 1163.61 530.611 1173.95 527.992C1184.29 525.374 1195.44 526.073 1205.29 529.957C1215.15 533.841 1223.01 540.64 1227.39 549.061C1230.4 542.901 1235.56 537.682 1242.19 534.095C1248.81 530.508 1256.59 528.723 1264.49 528.977C1265.34 529.005 1266.19 529.032 1267.02 529.134C1270.59 520.181 1277.14 512.316 1285.88 506.478C1294.63 500.639 1305.2 497.076 1316.33 496.212C1327.47 495.349 1338.7 497.223 1348.68 501.609C1358.66 505.996 1366.96 512.71 1372.61 520.949C1378.1 518.777 1384.14 517.733 1390.23 517.902C1396.32 518.071 1402.29 519.448 1407.67 521.921C1413.05 524.395 1417.68 527.896 1421.19 532.144C1424.7 536.391 1427 541.267 1427.89 546.378C1434.64 541.663 1443.1 539.041 1451.89 538.939C1460.69 538.838 1469.29 541.264 1476.31 545.82C1480.93 541.367 1486.9 538.071 1493.59 536.281C1500.28 534.491 1507.44 534.274 1514.3 535.654C1521.17 537.033 1527.48 539.958 1532.58 544.117C1537.67 548.275 1541.35 553.513 1543.24 559.273C1549.01 554.304 1556.29 550.782 1564.3 549.087C1572.31 547.393 1580.74 547.592 1588.67 549.661C1593.22 542.632 1600.28 537.012 1608.84 533.593C1617.41 530.175 1627.05 529.13 1636.42 530.607C1644.9 524.077 1656.03 520.552 1667.56 520.748C1679.08 520.943 1690.13 524.845 1698.47 531.66C1706.56 529.926 1715.08 530.125 1723.1 532.236C1731.11 534.346 1738.31 538.286 1743.89 543.619C1747.95 537.581 1753.89 532.613 1761.07 529.251C1768.26 525.889 1776.41 524.259 1784.65 524.538L1784.96 524.548C1789.58 513.969 1798.38 505.104 1809.89 499.454C1821.4 493.804 1834.9 491.715 1848.11 493.541C1861.32 495.367 1873.44 500.995 1882.4 509.473C1891.36 517.951 1896.62 528.76 1897.3 540.07C1898.07 540.095 1898.87 540.121 1899.66 540.146C1907.45 540.389 1915.09 542.212 1921.91 545.462C1928.74 548.712 1934.57 553.294 1938.9 558.822C1943.23 564.351 1945.95 570.665 1946.82 577.235C1947.68 583.805 1946.68 590.438 1943.89 596.577C1941.1 602.716 1936.6 608.182 1930.77 612.516C1924.95 616.85 1917.96 619.926 1910.4 621.484C1902.85 623.042 1894.94 623.038 1887.35 621.471C1879.75 619.904 1872.7 616.821 1866.77 612.481L1642.14 605.2C1633.52 607.421 1624.27 607.398 1615.6 605.136C1611.56 611.399 1605.52 616.561 1598.16 620.037C1590.81 623.514 1582.42 625.167 1573.96 624.81C1565.5 624.453 1557.31 622.1 1550.3 618.017C1543.28 613.934 1537.74 608.284 1534.29 601.705L1474.11 599.754C1467.46 603.378 1459.65 605.183 1451.71 604.926C1443.78 604.668 1436.1 602.362 1429.7 598.315L1276.1 593.336C1267.19 595.851 1257.46 595.536 1248.73 592.449L1217.34 591.432C1210.31 596.99 1201.3 600.418 1191.69 601.187C1191.73 602.047 1191.76 602.907 1191.73 603.777C1191.52 609.921 1189.27 615.873 1185.26 620.961C1181.25 626.049 1175.62 630.07 1169.02 632.571C1162.42 635.072 1155.11 635.953 1147.9 635.115C1140.7 634.277 1133.89 631.753 1128.25 627.828C1122.61 623.903 1118.36 618.733 1115.98 612.902C1113.61 607.07 1113.19 600.809 1114.79 594.825C1116.38 588.841 1119.93 583.372 1125.02 579.035C1130.11 574.699 1136.55 571.666 1143.61 570.281Z" fill="white"/>
<path d="M1143.61 570.281C1141.62 561.252 1143.62 551.957 1149.21 544.16C1154.81 536.364 1163.61 530.611 1173.95 527.992C1184.29 525.374 1195.44 526.073 1205.29 529.957C1215.15 533.841 1223.01 540.64 1227.39 549.061C1230.4 542.901 1235.56 537.682 1242.19 534.095C1248.81 530.508 1256.59 528.723 1264.49 528.977C1265.34 529.005 1266.19 529.032 1267.02 529.134C1270.59 520.181 1277.14 512.316 1285.88 506.478C1294.63 500.639 1305.2 497.076 1316.33 496.212C1327.47 495.349 1338.7 497.223 1348.68 501.609C1358.66 505.996 1366.96 512.71 1372.61 520.949C1378.1 518.777 1384.14 517.733 1390.23 517.902C1396.32 518.071 1402.29 519.448 1407.67 521.921C1413.05 524.395 1417.68 527.896 1421.19 532.144C1424.7 536.391 1427 541.267 1427.89 546.378C1434.64 541.663 1443.1 539.041 1451.89 538.939C1460.69 538.838 1469.29 541.264 1476.31 545.82C1480.93 541.367 1486.9 538.071 1493.59 536.281C1500.28 534.491 1507.44 534.274 1514.3 535.654C1521.17 537.033 1527.48 539.958 1532.58 544.117C1537.67 548.275 1541.35 553.513 1543.24 559.273C1549.01 554.304 1556.29 550.782 1564.3 549.087C1572.31 547.393 1580.74 547.592 1588.67 549.661C1593.22 542.632 1600.28 537.012 1608.84 533.593C1617.41 530.175 1627.05 529.13 1636.42 530.607C1644.9 524.077 1656.03 520.552 1667.56 520.748C1679.08 520.943 1690.13 524.845 1698.47 531.66C1706.56 529.926 1715.08 530.125 1723.1 532.236C1731.11 534.346 1738.31 538.286 1743.89 543.619C1747.95 537.581 1753.89 532.613 1761.07 529.251C1768.26 525.889 1776.41 524.259 1784.65 524.538L1784.96 524.548C1789.58 513.969 1798.38 505.104 1809.89 499.454C1821.4 493.804 1834.9 491.715 1848.11 493.541C1861.32 495.367 1873.44 500.995 1882.4 509.473C1891.36 517.951 1896.62 528.76 1897.3 540.07C1898.07 540.095 1898.87 540.121 1899.66 540.146C1907.45 540.389 1915.09 542.212 1921.91 545.462C1928.74 548.712 1934.57 553.294 1938.9 558.822C1943.23 564.351 1945.95 570.665 1946.82 577.235C1947.68 583.805 1946.68 590.438 1943.89 596.577C1941.1 602.716 1936.6 608.182 1930.77 612.516C1924.95 616.85 1917.96 619.926 1910.4 621.484C1902.85 623.042 1894.94 623.038 1887.35 621.471C1879.75 619.904 1872.7 616.821 1866.77 612.481L1642.14 605.2C1633.52 607.421 1624.27 607.398 1615.6 605.136C1611.56 611.399 1605.52 616.561 1598.16 620.037C1590.81 623.514 1582.42 625.167 1573.96 624.81C1565.5 624.453 1557.31 622.1 1550.3 618.017C1543.28 613.934 1537.74 608.284 1534.29 601.705L1474.11 599.754C1467.46 603.378 1459.65 605.183 1451.71 604.926C1443.78 604.668 1436.1 602.362 1429.7 598.315L1276.1 593.336C1267.19 595.851 1257.46 595.536 1248.73 592.449L1217.34 591.432C1210.31 596.99 1201.3 600.418 1191.69 601.187C1191.73 602.047 1191.76 602.907 1191.73 603.777C1191.52 609.921 1189.27 615.873 1185.26 620.961C1181.25 626.049 1175.62 630.07 1169.02 632.571C1162.42 635.072 1155.11 635.953 1147.9 635.115C1140.7 634.277 1133.89 631.753 1128.25 627.828C1122.61 623.903 1118.36 618.733 1115.98 612.902C1113.61 607.07 1113.19 600.809 1114.79 594.825C1116.38 588.841 1119.93 583.372 1125.02 579.035C1130.11 574.699 1136.55 571.666 1143.61 570.281Z" fill="white"/>
<path d="M776.959 572.719C779.474 564.586 779.302 555.776 776.475 547.961C773.649 540.145 768.366 533.869 761.629 530.325C754.892 526.781 747.17 526.215 739.931 528.735C732.692 531.255 726.439 536.686 722.361 543.995C721.093 537.973 718.233 532.587 714.161 528.551C710.089 524.515 704.997 522.02 699.56 521.396C698.974 521.329 698.388 521.262 697.805 521.266C696.513 512.601 693.043 504.618 687.81 498.27C682.576 491.923 675.801 487.479 668.294 485.471C660.786 483.463 652.864 483.975 645.474 486.946C638.085 489.916 631.54 495.221 626.622 502.224C623.14 499.619 619.144 497.998 614.956 497.493C610.768 496.987 606.505 497.61 602.509 499.313C598.513 501.015 594.896 503.749 591.949 507.294C589.002 510.84 586.807 515.098 585.541 519.726C581.528 514.633 576.076 511.29 570.072 510.24C564.069 509.191 557.87 510.498 552.485 513.948C549.895 509.329 546.232 505.632 541.885 503.251C537.538 500.869 532.67 499.891 527.797 500.42C522.925 500.95 518.229 502.967 514.211 506.259C510.192 509.55 506.027 510.38 504 515.5C500.688 510.279 497.128 509.843 491.866 507.406C486.604 504.969 480.813 504.237 475.12 505.288C472.91 498.295 468.805 492.333 463.384 488.241C457.963 484.15 451.499 482.137 444.902 482.484C439.937 475.525 432.773 471.056 424.864 469.985C416.955 468.913 408.893 471.319 402.315 476.714C397.002 474.232 391.146 473.49 385.392 474.57C379.638 475.65 374.211 478.51 369.71 482.835C367.705 476.811 364.277 471.572 359.794 467.683C355.312 463.794 349.944 461.402 344.27 460.764L344.058 460.74C342.257 450.458 337.369 441.305 330.221 434.831C323.073 428.357 314.104 424.959 304.831 425.211C295.557 425.463 286.549 429.349 279.33 436.214C272.111 443.078 267.124 452.498 265.212 462.882C264.677 462.82 264.131 462.758 263.586 462.695C258.222 462.073 252.768 462.929 247.679 465.191C242.591 467.454 238.018 471.056 234.344 475.697C230.67 480.337 228.003 485.88 226.566 491.859C225.13 497.839 224.966 504.08 226.088 510.059C227.21 516.038 229.586 521.581 233.016 526.221C236.446 530.861 240.83 534.463 245.8 536.724C250.769 538.986 256.179 539.841 261.575 539.218C266.971 538.595 272.196 536.512 276.81 533.144L431.416 550.824C437.033 553.814 443.358 554.797 449.579 553.648C451.54 559.877 455.011 565.306 459.599 569.32C464.187 573.334 469.71 575.773 475.543 576.362C481.376 576.951 487.287 575.667 492.607 572.654C497.927 569.641 502.444 565.02 505.648 559.312L547.073 564.049C551.152 568.122 556.266 570.639 561.729 571.264C567.192 571.889 572.743 570.591 577.636 567.545L683.361 579.635C689.135 582.928 695.826 583.693 702.194 581.788L723.806 584.26C727.898 590.162 733.624 594.311 740.102 596.067C739.961 596.857 739.829 597.648 739.737 598.455C739.098 604.159 739.868 609.906 741.961 615.045C744.054 620.185 747.386 624.514 751.581 627.544C755.776 630.573 760.667 632.183 765.703 632.191C770.739 632.199 775.719 630.605 780.081 627.59C784.442 624.574 788.013 620.256 790.389 615.123C792.765 609.99 793.852 604.247 793.527 598.541C793.203 592.836 791.479 587.394 788.552 582.832C785.625 578.269 781.609 574.766 776.959 572.719Z" fill="white"/>
<path d="M776.959 572.719C779.474 564.586 779.302 555.776 776.475 547.961C773.649 540.145 768.366 533.869 761.629 530.325C754.892 526.781 747.17 526.215 739.931 528.735C732.692 531.255 726.439 536.686 722.361 543.995C721.093 537.973 718.233 532.587 714.161 528.551C710.089 524.515 704.997 522.02 699.56 521.396C698.974 521.329 698.388 521.262 697.805 521.266C696.513 512.601 693.043 504.618 687.81 498.27C682.576 491.923 675.801 487.479 668.294 485.471C660.786 483.463 652.864 483.975 645.474 486.946C638.085 489.916 631.54 495.221 626.622 502.224C623.14 499.619 619.144 497.998 614.956 497.493C610.768 496.987 606.505 497.61 602.509 499.313C598.513 501.015 594.896 503.749 591.949 507.294C589.002 510.84 586.807 515.098 585.541 519.726C581.528 514.633 576.076 511.29 570.072 510.24C564.069 509.191 557.87 510.498 552.485 513.948C549.895 509.329 546.232 505.632 541.885 503.251C537.538 500.869 532.67 499.891 527.797 500.42C522.925 500.95 518.229 502.967 514.211 506.259C510.192 509.55 506.027 510.38 504 515.5C500.688 510.279 497.128 509.843 491.866 507.406C486.604 504.969 480.813 504.237 475.12 505.288C472.91 498.295 468.805 492.333 463.384 488.241C457.963 484.15 451.499 482.137 444.902 482.484C439.937 475.525 432.773 471.056 424.864 469.985C416.955 468.913 408.893 471.319 402.315 476.714C397.002 474.232 391.146 473.49 385.392 474.57C379.638 475.65 374.211 478.51 369.71 482.835C367.705 476.811 364.277 471.572 359.794 467.683C355.312 463.794 349.944 461.402 344.27 460.764L344.058 460.74C342.257 450.458 337.369 441.305 330.221 434.831C323.073 428.357 314.104 424.959 304.831 425.211C295.557 425.463 286.549 429.349 279.33 436.214C272.111 443.078 267.124 452.498 265.212 462.882C264.677 462.82 264.131 462.758 263.586 462.695C258.222 462.073 252.768 462.929 247.679 465.191C242.591 467.454 238.018 471.056 234.344 475.697C230.67 480.337 228.003 485.88 226.566 491.859C225.13 497.839 224.966 504.08 226.088 510.059C227.21 516.038 229.586 521.581 233.016 526.221C236.446 530.861 240.83 534.463 245.8 536.724C250.769 538.986 256.179 539.841 261.575 539.218C266.971 538.595 272.196 536.512 276.81 533.144L431.416 550.824C437.033 553.814 443.358 554.797 449.579 553.648C451.54 559.877 455.011 565.306 459.599 569.32C464.187 573.334 469.71 575.773 475.543 576.362C481.376 576.951 487.287 575.667 492.607 572.654C497.927 569.641 502.444 565.02 505.648 559.312L547.073 564.049C551.152 568.122 556.266 570.639 561.729 571.264C567.192 571.889 572.743 570.591 577.636 567.545L683.361 579.635C689.135 582.928 695.826 583.693 702.194 581.788L723.806 584.26C727.898 590.162 733.624 594.311 740.102 596.067C739.961 596.857 739.829 597.648 739.737 598.455C739.098 604.159 739.868 609.906 741.961 615.045C744.054 620.185 747.386 624.514 751.581 627.544C755.776 630.573 760.667 632.183 765.703 632.191C770.739 632.199 775.719 630.605 780.081 627.59C784.442 624.574 788.013 620.256 790.389 615.123C792.765 609.99 793.852 604.247 793.527 598.541C793.203 592.836 791.479 587.394 788.552 582.832C785.625 578.269 781.609 574.766 776.959 572.719Z" fill="white"/>
<path d="M825.138 695.377C831.222 693.433 835.931 690.553 838.64 687.12C840 691.5 847.576 701.494 852.667 703.636C857.759 705.777 863.444 706.988 869.244 707.167L871.003 707.223C871.541 714.618 875.492 721.698 882.189 727.263C888.886 732.828 897.917 736.538 907.754 737.765C917.592 738.992 927.632 737.66 936.176 733.996C944.721 730.331 951.245 724.558 954.645 717.654L954.875 717.661C961.008 717.865 967.068 716.82 972.402 714.64C977.736 712.46 982.142 709.227 985.145 705.29C989.313 708.791 994.679 711.385 1000.65 712.785C1006.62 714.185 1012.96 714.336 1018.98 713.223C1025.2 717.7 1033.44 720.278 1042.02 720.435C1050.59 720.592 1058.87 718.316 1065.15 714.069C1072.13 715.057 1079.3 714.399 1085.66 712.186C1092.03 709.973 1097.26 706.317 1100.62 701.733C1106.53 703.106 1112.8 703.257 1118.75 702.169C1124.71 701.082 1130.12 698.798 1134.4 695.564C1135.82 699.334 1138.58 702.768 1142.38 705.499C1146.19 708.231 1150.89 710.159 1156.01 711.078C1161.12 711.997 1166.44 711.874 1171.41 710.72C1176.39 709.567 1180.82 707.427 1184.24 704.528C1189.48 707.524 1195.89 709.132 1202.43 709.088C1208.98 709.044 1215.26 707.351 1220.27 704.285C1220.95 707.629 1222.68 710.822 1225.3 713.608C1227.93 716.394 1231.39 718.694 1235.4 720.325C1239.4 721.955 1243.85 722.87 1248.39 722.996C1252.92 723.122 1257.41 722.455 1261.49 721.049C1265.72 726.449 1271.92 730.86 1279.36 733.753C1286.8 736.645 1295.16 737.899 1303.44 737.362C1311.73 736.826 1319.58 734.523 1326.07 730.729C1332.56 726.934 1337.4 721.809 1340.03 715.965C1340.65 716.034 1341.28 716.054 1341.92 716.074C1347.79 716.26 1353.58 715.113 1358.49 712.785C1363.41 710.457 1367.23 707.058 1369.45 703.038C1372.74 708.555 1378.61 713.019 1385.96 715.583C1393.3 718.147 1401.61 718.632 1409.29 716.947C1416.98 715.261 1423.51 711.522 1427.64 706.439C1431.78 701.357 1433.23 695.285 1431.73 689.377C1436.97 688.49 1441.75 686.524 1445.53 683.702C1449.3 680.879 1451.92 677.313 1453.09 673.405C1454.26 669.497 1453.93 665.403 1452.14 661.585C1450.35 657.766 1447.17 654.376 1442.96 651.795C1438.75 649.215 1433.68 647.548 1428.32 646.982C1422.96 646.416 1417.52 646.974 1412.61 648.592C1407.71 650.21 1403.54 652.825 1400.57 656.141C1397.6 659.457 1395.95 663.342 1395.81 667.359C1395.79 667.927 1395.81 668.489 1395.85 669.051C1388.7 669.53 1382.01 671.748 1376.8 675.364L1353.43 674.62C1346.92 672.58 1339.69 672.349 1333.07 673.971L1218.75 670.328C1213.98 667.666 1208.26 666.139 1202.35 665.95C1196.44 665.762 1190.63 666.922 1185.7 669.275L1140.91 667.847C1138.33 663.538 1134.18 659.83 1128.95 657.143C1123.72 654.456 1117.61 652.897 1111.32 652.642C1105.02 652.387 1098.79 653.447 1093.33 655.701C1087.86 657.955 1083.38 661.314 1080.4 665.398C1073.94 663.898 1067.06 663.86 1060.65 665.289L942.242 662.63C943.646 659.28 943.187 655.752 940.916 652.443C938.645 649.134 934.653 646.177 929.389 643.904C924.125 641.632 917.8 640.135 911.127 639.582C904.454 639.029 897.699 639.443 891.623 640.776C885.548 642.11 880.394 644.31 876.744 647.128C873.093 649.947 871.091 653.271 870.963 656.727C870.948 657.216 870.987 657.7 871.039 658.185C862.157 658.509 853.862 660.337 847.432 663.387L818.378 662.461C810.266 660.625 801.271 660.339 793.059 661.654L650.925 657.125C644.962 654.775 637.83 653.39 630.486 653.156C623.141 652.922 615.935 653.85 609.836 655.815L554.145 654.04C550.875 650.299 545.68 647.057 539.146 644.68C532.613 642.303 525.002 640.886 517.173 640.59C509.345 640.294 501.611 641.13 494.847 643.004C488.082 644.878 482.557 647.715 478.895 651.195C470.849 649.824 462.301 649.708 454.349 650.86L246.5 644.236C240.962 641.727 234.396 639.912 227.354 638.945C220.311 637.978 212.998 637.887 206.028 638.679C199.057 639.471 192.634 641.123 187.298 643.497C181.961 645.87 177.866 648.896 175.358 652.32C172.85 655.744 172.001 659.466 172.883 663.173C173.765 666.88 176.351 670.464 180.426 673.625C184.501 676.785 189.944 679.429 196.299 681.335C202.653 683.241 209.734 684.352 216.946 684.577L219.133 684.647C219.892 691.02 224.89 697.162 233.281 702.034C241.673 706.907 252.943 710.21 265.186 711.387C277.429 712.563 289.892 711.539 300.468 708.488C311.044 705.438 319.083 700.548 323.225 694.646L323.511 694.655C331.137 694.905 338.656 694.079 345.26 692.268C351.863 690.456 357.3 687.727 360.985 684.374C366.209 687.439 372.91 689.737 380.349 691.015C387.787 692.293 395.673 692.501 403.136 691.616C410.929 695.545 421.198 697.865 431.86 698.105C442.521 698.345 452.776 696.486 460.542 692.906C469.223 693.843 478.131 693.363 486.012 691.536C493.893 689.708 500.349 686.625 504.472 682.719C511.835 683.973 519.632 684.18 527.02 683.316C534.408 682.453 541.104 680.553 546.384 677.821C548.195 681.084 551.665 684.073 556.427 686.471C561.189 688.869 567.065 690.586 573.43 691.439C579.795 692.293 586.412 692.252 592.577 691.319C598.743 690.387 604.227 688.599 608.448 686.145C614.993 688.788 622.983 690.25 631.115 690.292C639.248 690.334 647.043 688.953 653.229 686.375C654.116 689.262 656.296 692.032 659.595 694.462C662.894 696.892 667.219 698.915 672.222 700.367C677.225 701.82 682.767 702.662 688.402 702.825C694.037 702.989 699.607 702.469 704.666 701.309C709.984 706.009 717.749 709.881 727.032 712.462C736.315 715.043 746.723 716.224 757.012 715.864C767.302 715.503 777.037 713.616 785.055 710.429C793.072 707.241 799.033 702.888 802.224 697.89C802.997 697.956 803.785 697.981 804.573 698.006C811.882 698.238 819.054 697.321 825.138 695.377Z" fill="#D3D3D3"/>
<path d="M1153.98 649.472C1151.2 658.548 1152.37 668.245 1157.25 676.722C1162.14 685.2 1170.4 691.866 1180.46 695.456C1190.53 699.045 1201.7 699.307 1211.86 696.193C1222.02 693.078 1230.46 686.804 1235.57 678.561C1238.02 685.136 1242.7 690.935 1248.98 695.191C1255.26 699.447 1262.85 701.957 1270.74 702.39C1271.6 702.437 1272.45 702.483 1273.29 702.452C1276.05 711.936 1281.88 720.569 1290.07 727.316C1298.27 734.064 1308.48 738.643 1319.5 740.504C1330.52 742.365 1341.87 741.431 1352.19 737.813C1362.52 734.194 1371.39 728.045 1377.74 720.1C1383.03 722.807 1388.95 724.406 1395.03 724.767C1401.11 725.129 1407.18 724.243 1412.76 722.18C1418.33 720.118 1423.25 716.938 1427.13 712.894C1431 708.851 1433.72 704.057 1435.06 698.9C1441.36 704.322 1449.56 707.751 1458.31 708.626C1467.06 709.501 1475.85 707.772 1483.25 703.719C1487.46 708.686 1493.11 712.588 1499.62 715.008C1506.12 717.429 1513.23 718.279 1520.19 717.467L1520.19 650.151L1485.82 648.274C1479.52 643.979 1471.89 641.445 1463.96 641.012C1456.04 640.579 1448.18 642.268 1441.45 645.853L1288 637.477C1279.34 634.119 1269.63 633.589 1260.66 635.985L1229.29 634.273C1222.79 627.962 1214.11 623.66 1204.6 622.028C1204.72 621.151 1204.83 620.274 1204.88 619.38C1205.2 613.066 1203.5 606.772 1199.95 601.208C1196.4 595.644 1191.15 591.031 1184.8 587.889C1178.44 584.748 1171.23 583.204 1163.98 583.43C1156.73 583.657 1149.73 585.645 1143.77 589.171C1137.8 592.698 1133.11 597.621 1130.23 603.386C1127.34 609.152 1126.37 615.529 1127.43 621.8C1128.5 628.07 1131.54 633.984 1136.23 638.873C1140.92 643.763 1147.07 647.433 1153.98 649.472Z" fill="white"/>
<path d="M788.769 618.03C790.568 626.349 789.632 635.112 786.138 642.652C782.644 650.193 776.835 655.986 769.816 658.932C762.797 661.878 755.055 661.771 748.062 658.632C741.069 655.493 735.312 649.541 731.883 641.905C730.097 647.794 726.78 652.911 722.373 656.578C717.966 660.246 712.677 662.289 707.207 662.439C706.617 662.454 706.028 662.47 705.446 662.416C703.407 670.936 699.257 678.588 693.493 684.457C687.728 690.326 680.593 694.165 672.939 695.514C665.286 696.863 657.438 695.665 650.334 692.064C643.23 688.462 637.17 682.61 632.879 675.206C629.184 677.499 625.063 678.767 620.847 678.907C616.631 679.047 612.437 678.056 608.604 676.013C604.771 673.97 601.405 670.933 598.777 667.145C596.149 663.357 594.332 658.924 593.472 654.203C589.033 658.929 583.311 661.786 577.239 662.31C571.168 662.835 565.105 660.994 560.04 657.09C557.058 661.466 553.088 664.831 548.551 666.827C544.014 668.822 539.079 669.374 534.271 668.423C529.463 667.472 524.961 665.055 521.243 661.427C517.525 657.8 514.73 653.098 513.156 647.82C509.403 652.734 504.536 656.374 499.082 658.344C493.629 660.315 487.796 660.542 482.215 659.001C479.406 665.775 474.8 671.359 469.044 674.964C463.288 678.569 456.673 680.014 450.131 679.095C444.581 685.597 437.056 689.426 429.084 689.807C421.111 690.188 413.289 687.091 407.205 681.146C401.696 683.158 395.797 683.388 390.159 681.813C384.52 680.237 379.362 676.916 375.254 672.217C372.734 678.045 368.864 682.966 364.06 686.451C359.257 689.936 353.702 691.853 347.994 691.996L347.78 692.002C345.094 702.089 339.43 710.782 331.747 716.611C324.063 722.44 314.833 725.047 305.617 723.991C296.4 722.935 287.764 718.281 281.168 710.816C274.572 703.351 270.421 693.533 269.419 683.023C268.88 683.038 268.331 683.052 267.782 683.067C262.385 683.221 257.025 681.895 252.152 679.2C247.279 676.504 243.036 672.518 239.779 667.576C236.522 662.634 234.346 656.881 233.434 650.799C232.522 644.718 232.901 638.486 234.538 632.627C236.175 626.768 239.023 621.453 242.843 617.128C246.663 612.803 251.343 609.595 256.49 607.774C261.637 605.952 267.101 605.57 272.422 606.659C277.744 607.748 282.768 610.277 287.072 614.033L442.63 609.843C448.485 607.351 454.872 606.921 460.969 608.605C463.463 602.57 467.392 597.464 472.312 593.863C477.231 590.263 482.945 588.312 488.807 588.231C494.67 588.151 500.446 589.944 505.485 593.407C510.523 596.871 514.622 601.867 517.318 607.831L558.998 606.708C563.415 603.005 568.729 600.941 574.225 600.793C579.722 600.645 585.139 602.42 589.749 605.879L696.124 603.014C702.163 600.234 708.894 600.052 715.074 602.503L736.818 601.917C741.408 596.393 747.472 592.757 754.078 591.57C754.006 590.771 753.943 589.971 753.922 589.159C753.78 583.421 755.046 577.763 757.578 572.824C760.109 567.885 763.804 563.862 768.246 561.208C772.689 558.554 777.701 557.375 782.719 557.804C787.736 558.234 792.559 560.254 796.642 563.637C800.726 567.02 803.908 571.632 805.829 576.951C807.751 582.271 808.335 588.087 807.516 593.743C806.698 599.399 804.508 604.67 801.196 608.961C797.883 613.253 793.579 616.394 788.769 618.03Z" fill="white"/>
<path d="M788.769 618.03C790.568 626.349 789.632 635.112 786.138 642.652C782.644 650.193 776.835 655.986 769.816 658.932C762.797 661.878 755.055 661.771 748.062 658.632C741.069 655.493 735.312 649.541 731.883 641.905C730.097 647.794 726.78 652.911 722.373 656.578C717.966 660.246 712.677 662.289 707.207 662.439C706.617 662.454 706.028 662.47 705.446 662.416C703.407 670.936 699.257 678.588 693.493 684.457C687.728 690.326 680.593 694.165 672.939 695.514C665.286 696.863 657.438 695.665 650.334 692.064C643.23 688.462 637.17 682.61 632.879 675.206C629.184 677.499 625.063 678.767 620.847 678.907C616.631 679.047 612.437 678.056 608.604 676.013C604.771 673.97 601.405 670.933 598.777 667.145C596.149 663.357 594.332 658.924 593.472 654.203C589.033 658.929 583.311 661.786 577.239 662.31C571.168 662.835 565.105 660.994 560.04 657.09C557.058 661.466 553.088 664.831 548.551 666.827C544.014 668.822 539.079 669.374 534.271 668.423C529.463 667.472 524.961 665.055 521.243 661.427C517.525 657.8 514.73 653.098 513.156 647.82C509.403 652.734 504.536 656.374 499.082 658.344C493.629 660.315 487.796 660.542 482.215 659.001C479.406 665.775 474.8 671.359 469.044 674.964C463.288 678.569 456.673 680.014 450.131 679.095C444.581 685.597 437.056 689.426 429.084 689.807C421.111 690.188 413.289 687.091 407.205 681.146C401.696 683.158 395.797 683.388 390.159 681.813C384.52 680.237 379.362 676.916 375.254 672.217C372.734 678.045 368.864 682.966 364.06 686.451C359.257 689.936 353.702 691.853 347.994 691.996L347.78 692.002C345.094 702.089 339.43 710.782 331.747 716.611C324.063 722.44 314.833 725.047 305.617 723.991C296.4 722.935 287.764 718.281 281.168 710.816C274.572 703.351 270.421 693.533 269.419 683.023C268.88 683.038 268.331 683.052 267.782 683.067C262.385 683.221 257.025 681.895 252.152 679.2C247.279 676.504 243.036 672.518 239.779 667.576C236.522 662.634 234.346 656.881 233.434 650.799C232.522 644.718 232.901 638.486 234.538 632.627C236.175 626.768 239.023 621.453 242.843 617.128C246.663 612.803 251.343 609.595 256.49 607.774C261.637 605.952 267.101 605.57 272.422 606.659C277.744 607.748 282.768 610.277 287.072 614.033L442.63 609.843C448.485 607.351 454.872 606.921 460.969 608.605C463.463 602.57 467.392 597.464 472.312 593.863C477.231 590.263 482.945 588.312 488.807 588.231C494.67 588.151 500.446 589.944 505.485 593.407C510.523 596.871 514.622 601.867 517.318 607.831L558.998 606.708C563.415 603.005 568.729 600.941 574.225 600.793C579.722 600.645 585.139 602.42 589.749 605.879L696.124 603.014C702.163 600.234 708.894 600.052 715.074 602.503L736.818 601.917C741.408 596.393 747.472 592.757 754.078 591.57C754.006 590.771 753.943 589.971 753.922 589.159C753.78 583.421 755.046 577.763 757.578 572.824C760.109 567.885 763.804 563.862 768.246 561.208C772.689 558.554 777.701 557.375 782.719 557.804C787.736 558.234 792.559 560.254 796.642 563.637C800.726 567.02 803.908 571.632 805.829 576.951C807.751 582.271 808.335 588.087 807.516 593.743C806.698 599.399 804.508 604.67 801.196 608.961C797.883 613.253 793.579 616.394 788.769 618.03Z" fill="white"/>
<path d="M1261.11 671.488C1262.29 676.763 1260.71 682.057 1256.68 686.365C1252.64 690.672 1246.43 693.693 1239.23 694.853C1232.02 696.013 1224.32 695.233 1217.59 692.659C1210.86 690.085 1205.57 685.898 1202.72 680.892C1200.51 684.343 1196.83 687.179 1192.17 689.024C1187.51 690.868 1182.1 691.634 1176.64 691.221C1176.05 691.176 1175.47 691.131 1174.89 691.044C1172.23 696.087 1167.54 700.402 1161.37 703.474C1155.2 706.545 1147.81 708.243 1140.09 708.364C1132.37 708.485 1124.65 707.024 1117.84 704.156C1111.04 701.288 1105.43 697.135 1101.71 692.192C1097.86 693.259 1093.66 693.656 1089.46 693.353C1085.25 693.049 1081.15 692.053 1077.48 690.444C1073.82 688.836 1070.69 686.66 1068.35 684.091C1066.02 681.522 1064.54 678.632 1064.03 675.654C1059.26 678.145 1053.35 679.371 1047.27 679.132C1041.19 678.893 1035.29 677.203 1030.53 674.337C1027.24 676.749 1023.04 678.448 1018.38 679.254C1013.71 680.06 1008.76 679.943 1004.04 678.915C999.328 677.887 995.024 675.986 991.59 673.415C988.157 670.844 985.721 667.699 984.543 664.313C980.445 666.983 975.331 668.768 969.757 669.474C964.183 670.181 958.359 669.781 952.918 668.319C949.622 672.219 944.624 675.222 938.629 676.904C932.633 678.585 925.942 678.861 919.497 677.693C913.492 681.172 905.719 682.828 897.755 682.326C889.79 681.823 882.231 679.198 876.613 674.985C870.981 675.712 865.091 675.308 859.594 673.82C854.098 672.331 849.207 669.815 845.464 666.55C842.526 669.896 838.31 672.56 833.271 674.256C828.233 675.952 822.562 676.616 816.869 676.177L816.656 676.16C813.237 682.106 806.958 686.921 798.88 689.79C790.802 692.659 781.421 693.407 772.324 691.907C763.227 690.407 754.972 686.751 748.956 681.557C742.94 676.364 739.532 669.952 739.309 663.406C738.771 663.365 738.224 663.323 737.676 663.281C732.292 662.878 727.054 661.568 722.402 659.462C717.75 657.357 713.82 654.517 710.941 651.182C708.063 647.846 706.321 644.112 705.862 640.294C705.402 636.475 706.238 632.683 708.3 629.237C710.361 625.79 713.589 622.79 717.71 620.487C721.831 618.185 726.727 616.647 731.985 616.004C737.243 615.361 742.71 615.631 747.928 616.792C753.145 617.953 757.96 619.97 761.968 622.674L917.134 634.475C923.146 633.487 929.536 633.812 935.482 635.41C938.41 631.935 942.697 629.162 947.86 627.406C953.023 625.65 958.855 624.98 964.696 625.472C970.538 625.965 976.157 627.599 980.917 630.191C985.677 632.784 989.389 636.23 991.634 640.142L1033.21 643.304C1037.88 641.438 1043.32 640.662 1048.8 641.079C1054.29 641.496 1059.55 643.086 1063.88 645.637L1169.99 653.707C1176.21 652.558 1182.92 653.069 1188.89 655.144L1210.58 656.794C1215.56 653.826 1221.86 652.154 1228.53 652.035C1228.51 651.538 1228.51 651.041 1228.55 650.54C1228.83 647.004 1230.51 643.647 1233.39 640.848C1236.28 638.049 1240.25 635.92 1244.87 634.701C1249.49 633.482 1254.56 633.221 1259.53 633.948C1264.49 634.675 1269.14 636.362 1272.96 638.816C1276.77 641.271 1279.6 644.397 1281.12 647.841C1282.64 651.285 1282.8 654.91 1281.56 658.308C1280.33 661.705 1277.76 664.739 1274.15 667.068C1270.54 669.397 1266.02 670.928 1261.11 671.488Z" fill="white"/>
<path d="M1261.11 671.488C1262.29 676.763 1260.71 682.057 1256.68 686.365C1252.64 690.672 1246.43 693.693 1239.23 694.853C1232.02 696.013 1224.32 695.233 1217.59 692.659C1210.86 690.085 1205.57 685.898 1202.72 680.892C1200.51 684.343 1196.83 687.179 1192.17 689.024C1187.51 690.868 1182.1 691.634 1176.64 691.221C1176.05 691.176 1175.47 691.131 1174.89 691.044C1172.23 696.087 1167.54 700.402 1161.37 703.474C1155.2 706.545 1147.81 708.243 1140.09 708.364C1132.37 708.485 1124.65 707.024 1117.84 704.156C1111.04 701.288 1105.43 697.135 1101.71 692.192C1097.86 693.259 1093.66 693.656 1089.46 693.353C1085.25 693.049 1081.15 692.053 1077.48 690.444C1073.82 688.836 1070.69 686.66 1068.35 684.091C1066.02 681.522 1064.54 678.632 1064.03 675.654C1059.26 678.145 1053.35 679.371 1047.27 679.132C1041.19 678.893 1035.29 677.203 1030.53 674.337C1027.24 676.749 1023.04 678.448 1018.38 679.254C1013.71 680.06 1008.76 679.943 1004.04 678.915C999.328 677.887 995.024 675.986 991.59 673.415C988.157 670.844 985.721 667.699 984.543 664.313C980.445 666.983 975.331 668.768 969.757 669.474C964.183 670.181 958.359 669.781 952.918 668.319C949.622 672.219 944.624 675.222 938.629 676.904C932.633 678.585 925.942 678.861 919.497 677.693C913.492 681.172 905.719 682.828 897.755 682.326C889.79 681.823 882.231 679.198 876.613 674.985C870.981 675.712 865.091 675.308 859.594 673.82C854.098 672.331 849.207 669.815 845.464 666.55C842.526 669.896 838.31 672.56 833.271 674.256C828.233 675.952 822.562 676.616 816.869 676.177L816.656 676.16C813.237 682.106 806.958 686.921 798.88 689.79C790.802 692.659 781.421 693.407 772.324 691.907C763.227 690.407 754.972 686.751 748.956 681.557C742.94 676.364 739.532 669.952 739.309 663.406C738.771 663.365 738.224 663.323 737.676 663.281C732.292 662.878 727.054 661.568 722.402 659.462C717.75 657.357 713.82 654.517 710.941 651.182C708.063 647.846 706.321 644.112 705.862 640.294C705.402 636.475 706.238 632.683 708.3 629.237C710.361 625.79 713.589 622.79 717.71 620.487C721.831 618.185 726.727 616.647 731.985 616.004C737.243 615.361 742.71 615.631 747.928 616.792C753.145 617.953 757.96 619.97 761.968 622.674L917.134 634.475C923.146 633.487 929.536 633.812 935.482 635.41C938.41 631.935 942.697 629.162 947.86 627.406C953.023 625.65 958.855 624.98 964.696 625.472C970.538 625.965 976.157 627.599 980.917 630.191C985.677 632.784 989.389 636.23 991.634 640.142L1033.21 643.304C1037.88 641.438 1043.32 640.662 1048.8 641.079C1054.29 641.496 1059.55 643.086 1063.88 645.637L1169.99 653.707C1176.21 652.558 1182.92 653.069 1188.89 655.144L1210.58 656.794C1215.56 653.826 1221.86 652.154 1228.53 652.035C1228.51 651.538 1228.51 651.041 1228.55 650.54C1228.83 647.004 1230.51 643.647 1233.39 640.848C1236.28 638.049 1240.25 635.92 1244.87 634.701C1249.49 633.482 1254.56 633.221 1259.53 633.948C1264.49 634.675 1269.14 636.362 1272.96 638.816C1276.77 641.271 1279.6 644.397 1281.12 647.841C1282.64 651.285 1282.8 654.91 1281.56 658.308C1280.33 661.705 1277.76 664.739 1274.15 667.068C1270.54 669.397 1266.02 670.928 1261.11 671.488Z" fill="white"/>
<path d="M1509.38 690.809C1501.48 681.917 1492.07 661.018 1492.12 652.331C1492.17 643.645 1496.61 636.589 1504.58 632.503C1512.55 628.418 1523.51 627.587 1535.37 630.17C1528.68 624.094 1523.84 617.187 1521.5 610.367C1519.17 603.546 1519.43 597.133 1522.27 591.978C1522.58 591.423 1522.89 590.867 1523.28 590.372C1513.3 582.084 1505.62 572.504 1501.17 562.775C1496.71 553.047 1495.66 543.582 1498.15 535.512C1500.63 527.442 1506.55 521.109 1515.18 517.269C1523.82 513.428 1534.81 512.244 1546.85 513.857C1545.9 508.726 1546.54 503.973 1548.69 499.981C1550.85 495.989 1554.47 492.869 1559.26 490.872C1564.05 488.875 1569.87 488.057 1576.27 488.483C1582.67 488.909 1589.46 490.568 1596.09 493.326C1592.39 485.68 1591.84 478.255 1594.52 472.264C1597.2 466.273 1602.96 462.068 1610.87 460.335C1606.81 454.295 1604.63 448.105 1604.54 442.422C1604.45 436.738 1606.47 431.774 1610.38 428.057C1614.28 424.339 1619.93 422.007 1626.73 421.308C1633.52 420.609 1641.2 421.57 1648.96 424.087C1644.63 416.931 1642.58 409.708 1643.04 403.198C1643.49 396.689 1646.43 391.141 1651.53 387.156C1644.26 379.471 1639.53 371.025 1638.02 363.008C1636.51 354.99 1638.3 347.806 1643.12 342.466C1637.72 332.46 1636.9 322.643 1640.83 315.007C1644.75 307.371 1653.13 302.489 1664.26 301.352C1664.69 294.761 1667.66 289.15 1672.84 285.137C1678.02 281.124 1685.21 278.867 1693.62 278.614C1687.42 271.908 1683.15 264.639 1681.27 257.589C1679.38 250.54 1679.97 243.978 1682.94 238.608L1683.06 238.407C1671.39 228.343 1663.2 216.584 1659.86 205.117C1656.52 193.651 1658.23 183.181 1664.72 175.479C1671.21 167.777 1682.07 163.316 1695.46 162.85C1708.86 162.384 1723.96 165.942 1738.22 172.922L1739.07 171.381C1741.87 166.289 1746.57 162.346 1752.79 159.881C1759 157.417 1766.55 156.503 1774.81 157.217C1783.06 157.932 1791.77 160.253 1800.2 163.986C1808.64 167.719 1816.56 172.755 1823.29 178.671H1932.5V1114.03L1772.66 1114.05C1763.94 1117.04 1755.06 1118.6 1746.78 1118.59C1738.49 1118.59 1731.05 1117.02 1725.07 1114.03C1719.09 1111.03 1714.75 1106.7 1712.41 1101.38L1711.7 1099.77C1696.88 1105.49 1681.52 1107.72 1668.22 1106.09C1654.92 1104.47 1644.49 1099.08 1638.69 1090.84C1632.9 1082.61 1632.1 1072.03 1636.42 1060.89C1640.74 1049.76 1649.93 1038.76 1662.42 1029.74L1662.33 1029.53C1659.83 1023.93 1659.82 1017.34 1662.3 1010.48C1664.79 1003.62 1669.68 996.749 1676.44 990.606C1668.08 989.625 1661.12 986.751 1656.3 982.304C1651.49 977.857 1649.02 972.008 1649.16 965.405C1638.17 963.306 1630.25 957.715 1627 949.767C1623.76 941.82 1625.43 932.111 1631.67 922.611C1627.33 916.873 1626.18 909.56 1628.38 901.704C1630.58 893.848 1636.02 885.844 1643.93 878.82C1639.19 874.407 1636.75 868.625 1636.86 862.101C1636.97 855.576 1639.64 848.558 1644.57 841.804C1636.63 843.639 1628.89 843.929 1622.18 842.643C1615.48 841.357 1610.05 838.544 1606.48 834.501C1602.91 830.458 1601.33 825.338 1601.91 819.683C1602.49 814.029 1605.21 808.052 1609.77 802.387C1602.05 799.974 1596.68 795.285 1594.52 789.084C1592.37 782.882 1593.56 775.534 1597.91 768.237C1591.07 770.409 1584.16 771.472 1577.75 771.342C1571.34 771.211 1565.61 769.89 1561.01 767.484C1556.41 765.079 1553.07 761.657 1551.27 757.492C1549.47 753.328 1549.26 748.539 1550.64 743.509C1538.51 744.071 1527.66 741.937 1519.39 737.361C1511.12 732.786 1505.78 725.962 1504 717.707C1502.23 709.452 1504.09 700.114 1509.38 690.809Z" fill="white"/>
<path d="M263.377 516.471C275.579 520.025 287.092 526.503 295.729 534.676C304.367 542.849 309.528 552.148 310.231 560.806C310.934 569.464 307.131 576.879 299.544 581.641C291.957 586.403 281.115 588.182 269.076 586.639C276.267 592.111 281.683 598.571 284.604 605.163C287.526 611.755 287.815 618.167 285.435 623.549C285.178 624.129 284.921 624.709 284.573 625.237C295.234 632.626 303.714 641.504 308.998 650.809C314.283 660.114 316.149 669.452 314.374 677.707C312.598 685.962 307.256 692.785 298.986 697.361C290.716 701.936 279.867 704.071 267.738 703.508C269.121 708.539 268.903 713.328 267.103 717.492C265.302 721.657 261.968 725.079 257.37 727.484C252.772 729.89 247.037 731.211 240.627 731.341C234.217 731.472 227.31 730.409 220.463 728.237C224.813 735.534 226.008 742.882 223.855 749.083C221.701 755.285 216.326 759.974 208.606 762.387C213.169 768.052 215.884 774.029 216.463 779.683C217.042 785.338 215.463 790.458 211.894 794.501C208.325 798.544 202.9 801.357 196.193 802.643C189.487 803.929 181.751 803.639 173.807 801.804C178.739 808.558 181.405 815.576 181.517 822.101C181.629 828.625 179.183 834.407 174.443 838.82C182.36 845.844 187.802 853.848 190.001 861.704C192.2 869.56 191.047 876.873 186.703 882.611C192.951 892.111 194.621 901.82 191.374 909.767C188.127 917.715 180.206 923.306 169.219 925.405C169.362 932.008 166.889 937.856 162.075 942.304C157.262 946.751 150.294 949.624 141.941 950.606C148.702 956.749 153.588 963.619 156.074 970.479C158.559 977.338 158.551 983.926 156.049 989.534L155.956 989.744C168.45 998.757 177.635 1009.76 181.958 1020.89C186.282 1032.03 185.478 1042.61 179.682 1050.84C173.887 1059.08 163.456 1064.47 150.154 1066.09C136.852 1067.72 121.495 1065.49 106.681 1059.77L105.968 1061.38C103.629 1066.7 99.287 1071.03 93.3069 1074.03C87.3268 1077.02 79.8832 1078.59 71.6015 1078.59C63.3197 1078.6 54.4417 1077.04 45.713 1074.05C36.9843 1071.07 28.6599 1066.74 21.439 1061.43C14.2181 1056.12 8.3116 1049.99 4.21561 1043.54C0.119624 1037.1 -2.04624 1030.54 -2.10005 1024.4H-6V13.6237H34.3924C42.047 8.96157 50.7159 5.37091 59.6709 3.15337C68.6259 0.935831 77.6056 0.156181 85.8556 0.879886C94.1057 1.60359 101.385 3.80953 107.083 7.31241C112.78 10.8153 116.729 15.5128 118.598 21.0104L119.169 22.6762C134.423 18.2683 149.916 17.3767 163.026 20.1522C176.137 22.9278 186.061 29.2001 191.119 37.9083C196.178 46.6164 196.06 57.2258 190.786 67.9417C185.513 78.6577 175.407 88.8224 162.178 96.7165L162.252 96.9338C164.258 102.738 163.694 109.302 160.622 115.919C157.55 122.537 152.086 128.958 144.818 134.49C153.054 136.193 159.746 139.661 164.156 144.509C168.565 149.358 170.52 155.399 169.805 161.965C180.569 165.01 187.974 171.267 190.519 179.466C193.064 187.666 190.557 197.193 183.508 206.114C187.337 212.208 187.851 219.593 184.978 227.229C182.105 234.864 175.989 242.365 167.492 248.676C171.831 253.484 173.766 259.456 173.088 265.946C172.41 272.436 169.144 279.197 163.645 285.497C171.718 284.358 179.45 284.741 186.02 286.604C192.589 288.468 197.75 291.742 200.954 296.079C204.159 300.416 205.287 305.655 204.219 311.237C203.151 316.82 199.927 322.539 194.89 327.787C202.372 330.86 207.32 335.998 208.927 342.363C210.533 348.729 208.704 355.945 203.738 362.836C210.748 361.267 217.72 360.808 224.095 361.494C230.469 362.181 236.068 363.995 240.44 366.791C244.812 369.586 247.836 373.285 249.268 377.59C250.701 381.895 250.502 386.685 248.687 391.576C260.82 392.069 271.442 395.137 279.283 400.413C287.125 405.69 291.855 412.951 292.907 421.329C293.959 429.707 291.289 438.848 285.217 447.659C279.144 456.47 269.925 464.578 258.663 471.014C258.964 471.57 259.17 472.17 259.375 472.77C261.28 478.338 260.435 484.701 256.952 491.014L256.875 498.693C261.165 504.624 263.417 510.782 263.377 516.471Z" fill="white"/>
<path d="M-33 573.237L-33 662.744L255 658.945L621 660.56L802 664L1187.5 662.744H1952V511.244L1676.5 509L1431.5 513.074L1094 511.244H509L-33 509.325V573.237Z" fill="white"/>
</svg>
