<svg width="1920" height="2673" viewBox="0 0 1920 2673" fill="none" xmlns="http://www.w3.org/2000/svg">
<path opacity="0.6" d="M1323.56 153.845C1324.92 152.625 1326.7 151.966 1328.53 152.001C1330.37 152.036 1332.12 152.763 1333.44 154.034C1334.76 155.306 1335.54 157.028 1335.64 158.854C1335.73 160.681 1335.13 162.475 1333.96 163.878C1333.28 164.551 1332.48 165.084 1331.6 165.448C1330.72 165.813 1329.78 166 1328.83 166C1327.87 166 1326.93 165.813 1326.05 165.448C1325.17 165.084 1324.37 164.551 1323.69 163.878C1322.4 162.532 1321.67 160.749 1321.65 158.889C1321.62 157.028 1322.31 155.226 1323.56 153.845Z" fill="white"/>
<path opacity="0.9" d="M1379.45 446.759C1383.95 442.256 1383.95 434.954 1379.45 430.451C1374.95 425.947 1367.65 425.947 1363.15 430.451C1358.65 434.954 1358.65 442.256 1363.15 446.759C1367.65 451.263 1374.95 451.263 1379.45 446.759Z" fill="#608CAD"/>
<path opacity="0.4" d="M1347 337C1355.28 337 1362 330.06 1362 321.5C1362 312.94 1355.28 306 1347 306C1338.72 306 1332 312.94 1332 321.5C1332 330.06 1338.72 337 1347 337Z" fill="#E5E5FF"/>
<path opacity="0.4" d="M518.133 1036.65C531.159 1036.65 541.719 1026.09 541.719 1013.05C541.719 1000.02 531.159 989.452 518.133 989.452C505.107 989.452 494.547 1000.02 494.547 1013.05C494.547 1026.09 505.107 1036.65 518.133 1036.65Z" fill="#E5E5FF"/>
<path opacity="0.4" d="M914.5 1025C920.299 1025 925 1020.3 925 1014.5C925 1008.7 920.299 1004 914.5 1004C908.701 1004 904 1008.7 904 1014.5C904 1020.3 908.701 1025 914.5 1025Z" fill="#E5E5FF"/>
<path opacity="0.4" d="M956.5 91C961.747 91 966 86.7467 966 81.5C966 76.2533 961.747 72 956.5 72C951.253 72 947 76.2533 947 81.5C947 86.7467 951.253 91 956.5 91Z" fill="#E5E5FF"/>
<path d="M1321.37 324.716C1319.9 324.712 1318.44 324.591 1316.99 324.357L1317.13 323.468C1318.53 323.69 1319.95 323.8 1321.37 323.799H1321.54V324.698L1321.37 324.716ZM1326.08 324.321L1325.94 323.432C1327.39 323.189 1328.82 322.828 1330.21 322.353L1330.51 323.206C1329.06 323.693 1327.58 324.065 1326.08 324.321ZM1312.56 323.31C1311.11 322.835 1309.7 322.246 1308.35 321.548L1308.76 320.749C1310.07 321.426 1311.44 321.996 1312.84 322.454L1312.56 323.31ZM1334.69 321.389L1334.27 320.594C1335.58 319.903 1336.82 319.108 1338 318.217L1338.55 318.936C1337.33 319.854 1336.04 320.675 1334.69 321.389ZM1304.49 319.141C1303.27 318.234 1302.12 317.231 1301.06 316.141L1301.7 315.512C1302.73 316.568 1303.84 317.539 1305.03 318.415L1304.49 319.141ZM1341.95 315.886L1341.29 315.267C1342.31 314.198 1343.23 313.048 1344.06 311.829L1344.81 312.336C1343.95 313.595 1342.99 314.782 1341.93 315.886H1341.95ZM1298.15 312.627C1297.27 311.38 1296.5 310.064 1295.84 308.692L1296.65 308.3C1297.29 309.628 1298.04 310.903 1298.88 312.113L1298.15 312.627ZM1347.07 308.372L1346.25 307.991C1346.88 306.653 1347.4 305.269 1347.8 303.851L1348.67 304.099C1348.24 305.564 1347.7 306.993 1347.05 308.372H1347.07ZM1294.18 304.437C1293.74 302.977 1293.42 301.484 1293.22 299.973L1294.11 299.858C1294.31 301.319 1294.61 302.763 1295.04 304.174L1294.18 304.437ZM1349.54 299.624L1348.64 299.52C1348.77 298.457 1348.83 297.389 1348.83 296.319C1348.83 295.916 1348.83 295.506 1348.81 295.103L1349.71 295.063C1349.71 295.481 1349.73 295.901 1349.73 296.319C1349.73 297.423 1349.67 298.527 1349.55 299.624H1349.54ZM1293.9 295.445L1293 295.416C1293.05 293.892 1293.22 292.376 1293.52 290.88L1294.4 291.053C1294.12 292.501 1293.95 293.97 1293.9 295.445ZM1348.26 290.718C1347.96 289.275 1347.54 287.858 1347.02 286.481L1347.85 286.157C1348.4 287.58 1348.83 289.043 1349.15 290.535L1348.26 290.718ZM1295.58 286.801L1294.74 286.488C1295.27 285.059 1295.91 283.675 1296.66 282.348L1297.45 282.791C1296.72 284.075 1296.1 285.416 1295.58 286.801ZM1346.93 286.272C1346.39 284.904 1345.75 283.581 1345 282.316L1345.77 281.859C1346.55 283.17 1347.21 284.541 1347.77 285.959L1346.93 286.272ZM1299.92 279.129L1299.22 278.568C1300.17 277.378 1301.22 276.268 1302.35 275.248L1302.95 275.913C1301.86 276.903 1300.85 277.978 1299.92 279.129ZM1342.45 278.69C1341.5 277.563 1340.47 276.515 1339.36 275.554L1339.94 274.874C1341.09 275.865 1342.16 276.947 1343.14 278.111L1342.45 278.69ZM1306.46 273.23L1305.97 272.471C1307.25 271.646 1308.59 270.925 1309.99 270.313L1310.35 271.14C1309 271.731 1307.7 272.43 1306.46 273.23ZM1335.79 272.931C1334.54 272.156 1333.22 271.484 1331.86 270.921L1332.22 270.09C1333.63 270.672 1334.99 271.366 1336.28 272.165L1335.79 272.931ZM1314.53 269.694L1314.3 268.824C1315.77 268.443 1317.28 268.184 1318.79 268.047L1318.88 268.942C1317.41 269.077 1315.95 269.33 1314.53 269.698V269.694ZM1327.66 269.561C1326.22 269.222 1324.76 268.998 1323.29 268.892L1323.35 268C1324.87 268.108 1326.38 268.339 1327.86 268.691L1327.66 269.561Z" fill="#9192FF"/>
<path d="M484.371 1024.72C482.904 1024.71 481.44 1024.59 479.992 1024.36L480.132 1023.47C481.534 1023.69 482.951 1023.8 484.371 1023.8H484.536V1024.7L484.371 1024.72ZM489.083 1024.32L488.936 1023.43C490.389 1023.19 491.819 1022.83 493.214 1022.35L493.505 1023.21C492.063 1023.69 490.584 1024.07 489.083 1024.32ZM475.56 1023.31C474.112 1022.84 472.704 1022.25 471.35 1021.55L471.763 1020.75C473.074 1021.43 474.438 1022 475.84 1022.45L475.56 1023.31ZM497.69 1021.39L497.269 1020.59C498.575 1019.9 499.824 1019.11 501.004 1018.22L501.55 1018.94C500.33 1019.85 499.039 1020.67 497.69 1021.39ZM467.493 1019.14C466.27 1018.23 465.12 1017.23 464.056 1016.14L464.7 1015.51C465.729 1016.57 466.842 1017.54 468.028 1018.41L467.493 1019.14ZM504.948 1015.89L504.293 1015.27C505.308 1014.2 506.235 1013.05 507.065 1011.83L507.809 1012.34C506.947 1013.59 505.986 1014.78 504.933 1015.89H504.948ZM461.148 1012.63C460.274 1011.38 459.502 1010.06 458.84 1008.69L459.649 1008.3C460.29 1009.63 461.037 1010.9 461.881 1012.11L461.148 1012.63ZM510.067 1008.37L509.254 1007.99C509.878 1006.65 510.396 1005.27 510.804 1003.85L511.666 1004.1C511.242 1005.56 510.702 1006.99 510.052 1008.37H510.067ZM457.176 1004.44C456.74 1002.98 456.422 1001.48 456.223 999.973L457.114 999.858C457.306 1001.32 457.615 1002.76 458.038 1004.17L457.176 1004.44ZM512.536 999.624L511.645 999.52C511.77 998.457 511.832 997.389 511.832 996.319C511.832 995.916 511.832 995.506 511.807 995.103L512.705 995.063C512.705 995.481 512.73 995.901 512.73 996.319C512.734 997.423 512.673 998.527 512.547 999.624H512.536ZM456.899 995.445L456 995.416C456.05 993.892 456.223 992.376 456.518 990.88L457.398 991.053C457.116 992.501 456.948 993.97 456.899 995.445ZM511.264 990.718C510.962 989.275 510.545 987.858 510.016 986.481L510.854 986.157C511.401 987.58 511.834 989.043 512.148 990.535L511.264 990.718ZM458.585 986.801L457.74 986.488C458.271 985.059 458.914 983.675 459.663 982.348L460.447 982.791C459.719 984.075 459.096 985.416 458.585 986.801ZM509.934 986.272C509.394 984.904 508.746 983.581 507.996 982.316L508.769 981.859C509.545 983.17 510.215 984.541 510.771 985.959L509.934 986.272ZM462.924 979.129L462.223 978.568C463.174 977.378 464.22 976.268 465.35 975.248L465.951 975.913C464.858 976.903 463.846 977.978 462.924 979.129ZM505.451 978.69C504.505 977.563 503.47 976.515 502.356 975.554L502.942 974.874C504.094 975.865 505.164 976.947 506.141 978.111L505.451 978.69ZM469.456 973.23L468.97 972.471C470.251 971.646 471.595 970.925 472.989 970.313L473.349 971.14C471.997 971.731 470.695 972.43 469.456 973.23ZM498.793 972.931C497.539 972.156 496.223 971.484 494.86 970.921L495.22 970.09C496.627 970.672 497.986 971.366 499.282 972.165L498.793 972.931ZM477.526 969.694L477.3 968.824C478.774 968.443 480.277 968.184 481.793 968.047L481.876 968.942C480.408 969.077 478.953 969.33 477.526 969.698V969.694ZM490.658 969.561C489.222 969.222 487.762 968.998 486.29 968.892L486.355 968C487.874 968.108 489.381 968.339 490.863 968.691L490.658 969.561Z" fill="#9192FF"/>
<path d="M1537.17 283.351C1534.17 283.352 1531.24 282.462 1528.74 280.795C1526.25 279.128 1524.3 276.758 1523.16 273.985C1522.01 271.211 1521.71 268.16 1522.29 265.216C1522.88 262.272 1524.32 259.567 1526.44 257.445C1528.56 255.322 1531.27 253.877 1534.21 253.291C1537.15 252.706 1540.2 253.007 1542.97 254.156C1545.74 255.305 1548.11 257.251 1549.78 259.747C1551.45 262.243 1552.33 265.177 1552.33 268.179C1552.33 272.201 1550.73 276.058 1547.89 278.902C1545.04 281.746 1541.19 283.346 1537.17 283.351ZM1537.17 253.68C1534.3 253.683 1531.5 254.535 1529.12 256.13C1526.74 257.725 1524.89 259.991 1523.79 262.64C1522.7 265.29 1522.41 268.205 1522.97 271.017C1523.53 273.828 1524.92 276.41 1526.94 278.437C1528.97 280.463 1531.55 281.842 1534.36 282.401C1537.17 282.959 1540.09 282.671 1542.73 281.573C1545.38 280.475 1547.64 278.617 1549.23 276.233C1550.83 273.849 1551.68 271.046 1551.68 268.179C1551.67 264.333 1550.14 260.645 1547.42 257.927C1544.7 255.208 1541.01 253.681 1537.17 253.68Z" fill="#9192FF"/>
<path d="M1118.17 1048.35C1115.17 1048.35 1112.24 1047.46 1109.74 1045.79C1107.25 1044.13 1105.3 1041.76 1104.16 1038.98C1103.01 1036.21 1102.71 1033.16 1103.29 1030.22C1103.88 1027.27 1105.32 1024.57 1107.44 1022.44C1109.56 1020.32 1112.27 1018.88 1115.21 1018.29C1118.15 1017.71 1121.2 1018.01 1123.97 1019.16C1126.74 1020.3 1129.11 1022.25 1130.78 1024.75C1132.45 1027.24 1133.33 1030.18 1133.33 1033.18C1133.33 1037.2 1131.73 1041.06 1128.89 1043.9C1126.04 1046.75 1122.19 1048.35 1118.17 1048.35ZM1118.17 1018.68C1115.3 1018.68 1112.5 1019.54 1110.12 1021.13C1107.74 1022.73 1105.89 1024.99 1104.79 1027.64C1103.7 1030.29 1103.41 1033.2 1103.97 1036.02C1104.53 1038.83 1105.92 1041.41 1107.94 1043.44C1109.97 1045.46 1112.55 1046.84 1115.36 1047.4C1118.17 1047.96 1121.09 1047.67 1123.73 1046.57C1126.38 1045.48 1128.64 1043.62 1130.23 1041.23C1131.83 1038.85 1132.68 1036.05 1132.68 1033.18C1132.67 1029.33 1131.14 1025.65 1128.42 1022.93C1125.7 1020.21 1122.01 1018.68 1118.17 1018.68Z" fill="#9192FF"/>
<path opacity="0.6" d="M1458.2 307.165C1459.06 306.395 1460.18 305.979 1461.34 306.001C1462.49 306.023 1463.6 306.481 1464.43 307.284C1465.26 308.086 1465.75 309.173 1465.82 310.325C1465.88 311.478 1465.5 312.61 1464.76 313.496C1464.33 313.92 1463.83 314.257 1463.27 314.487C1462.72 314.716 1462.12 314.835 1461.52 314.835C1460.92 314.835 1460.33 314.716 1459.77 314.487C1459.22 314.257 1458.71 313.92 1458.29 313.496C1457.48 312.646 1457.02 311.521 1457 310.347C1456.98 309.173 1457.41 308.036 1458.2 307.165Z" fill="white"/>
<path opacity="0.6" d="M286.556 81.8454C287.922 80.6253 289.7 79.9663 291.534 80.0013C293.367 80.0364 295.119 80.7627 296.437 82.0341C297.755 83.3056 298.542 85.0278 298.638 86.8541C298.734 88.6805 298.133 90.4754 296.956 91.8778C296.283 92.5506 295.483 93.0844 294.602 93.4485C293.722 93.8126 292.778 94 291.825 94C290.871 94 289.927 93.8126 289.047 93.4485C288.166 93.0844 287.366 92.5506 286.693 91.8778C285.404 90.5317 284.674 88.7494 284.649 86.8885C284.623 85.0276 285.305 83.226 286.556 81.8454Z" fill="white"/>
<path opacity="0.9" d="M342.449 374.759C346.95 370.256 346.95 362.954 342.449 358.451C337.948 353.947 330.65 353.947 326.15 358.451C321.649 362.954 321.649 370.256 326.15 374.759C330.65 379.263 337.948 379.263 342.449 374.759Z" fill="#608CAD"/>
<path opacity="0.4" d="M310 265C318.284 265 325 258.06 325 249.5C325 240.94 318.284 234 310 234C301.716 234 295 240.94 295 249.5C295 258.06 301.716 265 310 265Z" fill="#E5E5FF"/>
<path d="M284.371 252.716C282.904 252.712 281.44 252.591 279.992 252.357L280.132 251.468C281.534 251.69 282.951 251.8 284.371 251.799H284.536V252.698L284.371 252.716ZM289.083 252.321L288.936 251.432C290.389 251.189 291.819 250.828 293.214 250.353L293.505 251.206C292.063 251.693 290.584 252.065 289.083 252.321ZM275.56 251.31C274.112 250.835 272.704 250.246 271.35 249.548L271.763 248.749C273.074 249.426 274.438 249.996 275.84 250.454L275.56 251.31ZM297.69 249.389L297.269 248.594C298.575 247.903 299.824 247.108 301.004 246.217L301.55 246.936C300.33 247.854 299.039 248.675 297.69 249.389ZM267.493 247.141C266.27 246.234 265.12 245.231 264.056 244.141L264.7 243.512C265.729 244.568 266.842 245.539 268.028 246.415L267.493 247.141ZM304.948 243.886L304.293 243.267C305.308 242.198 306.235 241.048 307.065 239.829L307.809 240.336C306.947 241.595 305.986 242.782 304.933 243.886H304.948ZM261.148 240.627C260.274 239.38 259.502 238.064 258.84 236.692L259.649 236.3C260.29 237.628 261.037 238.903 261.881 240.113L261.148 240.627ZM310.067 236.372L309.254 235.991C309.878 234.653 310.396 233.269 310.804 231.851L311.666 232.099C311.242 233.564 310.702 234.993 310.052 236.372H310.067ZM257.176 232.437C256.74 230.977 256.422 229.484 256.223 227.973L257.114 227.858C257.306 229.319 257.615 230.763 258.038 232.174L257.176 232.437ZM312.536 227.624L311.645 227.52C311.77 226.457 311.832 225.389 311.832 224.319C311.832 223.916 311.832 223.506 311.807 223.103L312.705 223.063C312.705 223.481 312.73 223.901 312.73 224.319C312.734 225.423 312.673 226.527 312.547 227.624H312.536ZM256.899 223.445L256 223.416C256.05 221.892 256.223 220.376 256.518 218.88L257.398 219.053C257.116 220.501 256.948 221.97 256.899 223.445ZM311.264 218.718C310.962 217.275 310.545 215.858 310.016 214.481L310.854 214.157C311.401 215.58 311.834 217.043 312.148 218.535L311.264 218.718ZM258.585 214.801L257.74 214.488C258.271 213.059 258.914 211.675 259.663 210.348L260.447 210.791C259.719 212.075 259.096 213.416 258.585 214.801ZM309.934 214.272C309.394 212.904 308.746 211.581 307.996 210.316L308.769 209.859C309.545 211.17 310.215 212.541 310.771 213.959L309.934 214.272ZM262.924 207.129L262.223 206.568C263.174 205.378 264.22 204.268 265.35 203.248L265.951 203.913C264.858 204.903 263.846 205.978 262.924 207.129ZM305.451 206.69C304.505 205.563 303.47 204.515 302.356 203.554L302.942 202.874C304.094 203.865 305.164 204.947 306.141 206.111L305.451 206.69ZM269.456 201.23L268.97 200.471C270.251 199.646 271.595 198.925 272.989 198.313L273.349 199.14C271.997 199.731 270.695 200.43 269.456 201.23ZM298.793 200.931C297.539 200.156 296.223 199.484 294.86 198.921L295.22 198.09C296.627 198.672 297.986 199.366 299.282 200.165L298.793 200.931ZM277.526 197.694L277.3 196.824C278.774 196.443 280.277 196.184 281.793 196.047L281.876 196.942C280.408 197.077 278.953 197.33 277.526 197.698V197.694ZM290.658 197.561C289.222 197.222 287.762 196.998 286.29 196.892L286.355 196C287.874 196.108 289.381 196.339 290.863 196.691L290.658 197.561Z" fill="#9192FF"/>
<path d="M500.17 211.351C497.17 211.352 494.237 210.462 491.743 208.795C489.248 207.128 487.304 204.758 486.155 201.985C485.007 199.211 484.706 196.16 485.291 193.216C485.876 190.272 487.321 187.567 489.442 185.445C491.564 183.322 494.266 181.877 497.209 181.291C500.151 180.706 503.201 181.007 505.972 182.156C508.744 183.305 511.113 185.251 512.779 187.747C514.445 190.243 515.334 193.177 515.333 196.179C515.329 200.201 513.73 204.058 510.887 206.902C508.044 209.746 504.19 211.346 500.17 211.351ZM500.17 181.68C497.305 181.683 494.505 182.535 492.124 184.13C489.742 185.725 487.887 187.991 486.793 190.64C485.698 193.29 485.413 196.205 485.974 199.017C486.535 201.828 487.916 204.41 489.943 206.437C491.97 208.463 494.552 209.842 497.363 210.401C500.173 210.959 503.086 210.671 505.733 209.573C508.38 208.475 510.643 206.617 512.234 204.233C513.826 201.849 514.675 199.046 514.675 196.179C514.671 192.333 513.141 188.645 510.421 185.927C507.701 183.208 504.015 181.681 500.17 181.68Z" fill="#9192FF"/>
<path d="M81.1703 976.351C78.1703 976.352 75.2375 975.462 72.7428 973.795C70.2481 972.128 68.3036 969.758 67.1552 966.985C66.0068 964.211 65.7062 961.16 66.2913 958.216C66.8763 955.272 68.3209 952.567 70.4422 950.445C72.5635 948.322 75.2663 946.877 78.2087 946.291C81.1511 945.706 84.2009 946.007 86.9724 947.156C89.7439 948.305 92.1125 950.251 93.7788 952.747C95.4451 955.243 96.3341 958.177 96.3333 961.179C96.3286 965.201 94.7295 969.058 91.8869 971.902C89.0443 974.746 85.1903 976.346 81.1703 976.351ZM81.1703 946.68C78.3049 946.683 75.5046 947.535 73.1235 949.13C70.7424 950.725 68.8873 952.991 67.7927 955.64C66.6982 958.29 66.4132 961.205 66.974 964.017C67.5348 966.828 68.916 969.41 70.9432 971.437C72.9703 973.463 75.5524 974.842 78.3629 975.401C81.1735 975.959 84.0863 975.671 86.7334 974.573C89.3804 973.475 91.6427 971.617 93.2343 969.233C94.826 966.849 95.6755 964.046 95.6755 961.179C95.6707 957.333 94.1405 953.645 91.4209 950.927C88.7012 948.208 85.0145 946.681 81.1703 946.68Z" fill="#9192FF"/>
<path opacity="0.6" d="M421.202 235.165C422.063 234.395 423.184 233.979 424.339 234.001C425.494 234.023 426.598 234.481 427.429 235.284C428.259 236.086 428.755 237.173 428.815 238.325C428.876 239.478 428.498 240.61 427.756 241.496C427.331 241.92 426.827 242.257 426.273 242.487C425.718 242.716 425.123 242.835 424.522 242.835C423.921 242.835 423.327 242.716 422.772 242.487C422.217 242.257 421.713 241.92 421.288 241.496C420.476 240.646 420.016 239.521 420 238.347C419.984 237.173 420.414 236.036 421.202 235.165Z" fill="white"/>
<path opacity="0.6" d="M1537.56 826.845C1538.92 825.625 1540.7 824.966 1542.53 825.001C1544.37 825.036 1546.12 825.763 1547.44 827.034C1548.76 828.306 1549.54 830.028 1549.64 831.854C1549.73 833.681 1549.13 835.475 1547.96 836.878C1547.28 837.551 1546.48 838.084 1545.6 838.448C1544.72 838.813 1543.78 839 1542.83 839C1541.87 839 1540.93 838.813 1540.05 838.448C1539.17 838.084 1538.37 837.551 1537.69 836.878C1536.4 835.532 1535.67 833.749 1535.65 831.889C1535.62 830.028 1536.31 828.226 1537.56 826.845Z" fill="white"/>
<path opacity="0.9" d="M1632.45 1256.46C1636.95 1251.96 1636.95 1244.66 1632.45 1240.15C1627.95 1235.65 1620.65 1235.65 1616.15 1240.15C1611.65 1244.66 1611.65 1251.96 1616.15 1256.46C1620.65 1260.97 1627.95 1260.97 1632.45 1256.46Z" fill="#608CAD"/>
<path opacity="0.4" d="M1593 1033C1601.28 1033 1608 1026.06 1608 1017.5C1608 1008.94 1601.28 1002 1593 1002C1584.72 1002 1578 1008.94 1578 1017.5C1578 1026.06 1584.72 1033 1593 1033Z" fill="#E5E5FF"/>
<path opacity="0.4" d="M732.133 1709.65C745.159 1709.65 755.719 1699.09 755.719 1686.05C755.719 1673.02 745.159 1662.45 732.133 1662.45C719.107 1662.45 708.547 1673.02 708.547 1686.05C708.547 1699.09 719.107 1709.65 732.133 1709.65Z" fill="#E5E5FF"/>
<path opacity="0.4" d="M1128.5 1698C1134.3 1698 1139 1693.3 1139 1687.5C1139 1681.7 1134.3 1677 1128.5 1677C1122.7 1677 1118 1681.7 1118 1687.5C1118 1693.3 1122.7 1698 1128.5 1698Z" fill="#E5E5FF"/>
<path opacity="0.4" d="M1170.5 764C1175.75 764 1180 759.747 1180 754.5C1180 749.253 1175.75 745 1170.5 745C1165.25 745 1161 749.253 1161 754.5C1161 759.747 1165.25 764 1170.5 764Z" fill="#E5E5FF"/>
<path d="M1567.37 1020.72C1565.9 1020.71 1564.44 1020.59 1562.99 1020.36L1563.13 1019.47C1564.53 1019.69 1565.95 1019.8 1567.37 1019.8H1567.54V1020.7L1567.37 1020.72ZM1572.08 1020.32L1571.94 1019.43C1573.39 1019.19 1574.82 1018.83 1576.21 1018.35L1576.51 1019.21C1575.06 1019.69 1573.58 1020.07 1572.08 1020.32ZM1558.56 1019.31C1557.11 1018.84 1555.7 1018.25 1554.35 1017.55L1554.76 1016.75C1556.07 1017.43 1557.44 1018 1558.84 1018.45L1558.56 1019.31ZM1580.69 1017.39L1580.27 1016.59C1581.58 1015.9 1582.82 1015.11 1584 1014.22L1584.55 1014.94C1583.33 1015.85 1582.04 1016.67 1580.69 1017.39ZM1550.49 1015.14C1549.27 1014.23 1548.12 1013.23 1547.06 1012.14L1547.7 1011.51C1548.73 1012.57 1549.84 1013.54 1551.03 1014.41L1550.49 1015.14ZM1587.95 1011.89L1587.29 1011.27C1588.31 1010.2 1589.23 1009.05 1590.06 1007.83L1590.81 1008.34C1589.95 1009.59 1588.99 1010.78 1587.93 1011.89H1587.95ZM1544.15 1008.63C1543.27 1007.38 1542.5 1006.06 1541.84 1004.69L1542.65 1004.3C1543.29 1005.63 1544.04 1006.9 1544.88 1008.11L1544.15 1008.63ZM1593.07 1004.37L1592.25 1003.99C1592.88 1002.65 1593.4 1001.27 1593.8 999.851L1594.67 1000.1C1594.24 1001.56 1593.7 1002.99 1593.05 1004.37H1593.07ZM1540.18 1000.44C1539.74 998.977 1539.42 997.484 1539.22 995.973L1540.11 995.858C1540.31 997.319 1540.61 998.763 1541.04 1000.17L1540.18 1000.44ZM1595.54 995.624L1594.64 995.52C1594.77 994.457 1594.83 993.389 1594.83 992.319C1594.83 991.916 1594.83 991.506 1594.81 991.103L1595.71 991.063C1595.71 991.481 1595.73 991.901 1595.73 992.319C1595.73 993.423 1595.67 994.527 1595.55 995.624H1595.54ZM1539.9 991.445L1539 991.416C1539.05 989.892 1539.22 988.376 1539.52 986.88L1540.4 987.053C1540.12 988.501 1539.95 989.97 1539.9 991.445ZM1594.26 986.718C1593.96 985.275 1593.54 983.858 1593.02 982.481L1593.85 982.157C1594.4 983.58 1594.83 985.043 1595.15 986.535L1594.26 986.718ZM1541.58 982.801L1540.74 982.488C1541.27 981.059 1541.91 979.675 1542.66 978.348L1543.45 978.791C1542.72 980.075 1542.1 981.416 1541.58 982.801ZM1592.93 982.272C1592.39 980.904 1591.75 979.581 1591 978.316L1591.77 977.859C1592.55 979.17 1593.21 980.541 1593.77 981.959L1592.93 982.272ZM1545.92 975.129L1545.22 974.568C1546.17 973.378 1547.22 972.268 1548.35 971.248L1548.95 971.913C1547.86 972.903 1546.85 973.978 1545.92 975.129ZM1588.45 974.69C1587.5 973.563 1586.47 972.515 1585.36 971.554L1585.94 970.874C1587.09 971.865 1588.16 972.947 1589.14 974.111L1588.45 974.69ZM1552.46 969.23L1551.97 968.471C1553.25 967.646 1554.59 966.925 1555.99 966.313L1556.35 967.14C1555 967.731 1553.7 968.43 1552.46 969.23ZM1581.79 968.931C1580.54 968.156 1579.22 967.484 1577.86 966.921L1578.22 966.09C1579.63 966.672 1580.99 967.366 1582.28 968.165L1581.79 968.931ZM1560.53 965.694L1560.3 964.824C1561.77 964.443 1563.28 964.184 1564.79 964.047L1564.88 964.942C1563.41 965.077 1561.95 965.33 1560.53 965.698V965.694ZM1573.66 965.561C1572.22 965.222 1570.76 964.998 1569.29 964.892L1569.35 964C1570.87 964.108 1572.38 964.339 1573.86 964.691L1573.66 965.561Z" fill="#9192FF"/>
<path d="M698.371 1697.72C696.904 1697.71 695.44 1697.59 693.992 1697.36L694.132 1696.47C695.534 1696.69 696.951 1696.8 698.371 1696.8H698.536V1697.7L698.371 1697.72ZM703.083 1697.32L702.936 1696.43C704.389 1696.19 705.819 1695.83 707.214 1695.35L707.505 1696.21C706.063 1696.69 704.584 1697.07 703.083 1697.32ZM689.56 1696.31C688.112 1695.84 686.704 1695.25 685.35 1694.55L685.763 1693.75C687.074 1694.43 688.438 1695 689.84 1695.45L689.56 1696.31ZM711.69 1694.39L711.269 1693.59C712.575 1692.9 713.824 1692.11 715.004 1691.22L715.55 1691.94C714.33 1692.85 713.039 1693.67 711.69 1694.39ZM681.493 1692.14C680.27 1691.23 679.12 1690.23 678.056 1689.14L678.7 1688.51C679.729 1689.57 680.842 1690.54 682.028 1691.41L681.493 1692.14ZM718.948 1688.89L718.293 1688.27C719.308 1687.2 720.235 1686.05 721.065 1684.83L721.809 1685.34C720.947 1686.59 719.986 1687.78 718.933 1688.89H718.948ZM675.148 1685.63C674.274 1684.38 673.502 1683.06 672.84 1681.69L673.649 1681.3C674.29 1682.63 675.037 1683.9 675.881 1685.11L675.148 1685.63ZM724.067 1681.37L723.254 1680.99C723.878 1679.65 724.396 1678.27 724.804 1676.85L725.666 1677.1C725.242 1678.56 724.702 1679.99 724.052 1681.37H724.067ZM671.176 1677.44C670.74 1675.98 670.422 1674.48 670.223 1672.97L671.114 1672.86C671.306 1674.32 671.615 1675.76 672.038 1677.17L671.176 1677.44ZM726.536 1672.62L725.645 1672.52C725.77 1671.46 725.832 1670.39 725.832 1669.32C725.832 1668.92 725.832 1668.51 725.807 1668.1L726.705 1668.06C726.705 1668.48 726.73 1668.9 726.73 1669.32C726.734 1670.42 726.673 1671.53 726.547 1672.62H726.536ZM670.899 1668.44L670 1668.42C670.05 1666.89 670.223 1665.38 670.518 1663.88L671.398 1664.05C671.116 1665.5 670.948 1666.97 670.899 1668.44ZM725.264 1663.72C724.962 1662.27 724.545 1660.86 724.016 1659.48L724.854 1659.16C725.401 1660.58 725.834 1662.04 726.148 1663.53L725.264 1663.72ZM672.585 1659.8L671.74 1659.49C672.271 1658.06 672.914 1656.68 673.663 1655.35L674.447 1655.79C673.719 1657.08 673.096 1658.42 672.585 1659.8ZM723.934 1659.27C723.394 1657.9 722.746 1656.58 721.996 1655.32L722.769 1654.86C723.545 1656.17 724.215 1657.54 724.771 1658.96L723.934 1659.27ZM676.924 1652.13L676.223 1651.57C677.174 1650.38 678.22 1649.27 679.35 1648.25L679.951 1648.91C678.858 1649.9 677.846 1650.98 676.924 1652.13ZM719.451 1651.69C718.505 1650.56 717.47 1649.51 716.356 1648.55L716.942 1647.87C718.094 1648.86 719.164 1649.95 720.141 1651.11L719.451 1651.69ZM683.456 1646.23L682.97 1645.47C684.251 1644.65 685.595 1643.92 686.989 1643.31L687.349 1644.14C685.997 1644.73 684.695 1645.43 683.456 1646.23ZM712.793 1645.93C711.539 1645.16 710.223 1644.48 708.86 1643.92L709.22 1643.09C710.627 1643.67 711.986 1644.37 713.282 1645.17L712.793 1645.93ZM691.526 1642.69L691.3 1641.82C692.774 1641.44 694.277 1641.18 695.793 1641.05L695.876 1641.94C694.408 1642.08 692.953 1642.33 691.526 1642.7V1642.69ZM704.658 1642.56C703.222 1642.22 701.762 1642 700.29 1641.89L700.355 1641C701.874 1641.11 703.381 1641.34 704.863 1641.69L704.658 1642.56Z" fill="#9192FF"/>
<path d="M1751.17 956.351C1748.17 956.352 1745.24 955.462 1742.74 953.795C1740.25 952.128 1738.3 949.758 1737.16 946.985C1736.01 944.211 1735.71 941.16 1736.29 938.216C1736.88 935.272 1738.32 932.567 1740.44 930.445C1742.56 928.322 1745.27 926.877 1748.21 926.291C1751.15 925.706 1754.2 926.007 1756.97 927.156C1759.74 928.305 1762.11 930.251 1763.78 932.747C1765.45 935.243 1766.33 938.177 1766.33 941.179C1766.33 945.201 1764.73 949.058 1761.89 951.902C1759.04 954.746 1755.19 956.346 1751.17 956.351ZM1751.17 926.68C1748.3 926.683 1745.5 927.535 1743.12 929.13C1740.74 930.725 1738.89 932.991 1737.79 935.64C1736.7 938.29 1736.41 941.205 1736.97 944.017C1737.53 946.828 1738.92 949.41 1740.94 951.437C1742.97 953.463 1745.55 954.842 1748.36 955.401C1751.17 955.959 1754.09 955.671 1756.73 954.573C1759.38 953.475 1761.64 951.617 1763.23 949.233C1764.83 946.849 1765.68 944.046 1765.68 941.179C1765.67 937.333 1764.14 933.645 1761.42 930.927C1758.7 928.208 1755.01 926.681 1751.17 926.68Z" fill="#9192FF"/>
<path d="M1332.17 1721.35C1329.17 1721.35 1326.24 1720.46 1323.74 1718.79C1321.25 1717.13 1319.3 1714.76 1318.16 1711.98C1317.01 1709.21 1316.71 1706.16 1317.29 1703.22C1317.88 1700.27 1319.32 1697.57 1321.44 1695.44C1323.56 1693.32 1326.27 1691.88 1329.21 1691.29C1332.15 1690.71 1335.2 1691.01 1337.97 1692.16C1340.74 1693.3 1343.11 1695.25 1344.78 1697.75C1346.45 1700.24 1347.33 1703.18 1347.33 1706.18C1347.33 1710.2 1345.73 1714.06 1342.89 1716.9C1340.04 1719.75 1336.19 1721.35 1332.17 1721.35ZM1332.17 1691.68C1329.3 1691.68 1326.5 1692.54 1324.12 1694.13C1321.74 1695.73 1319.89 1697.99 1318.79 1700.64C1317.7 1703.29 1317.41 1706.2 1317.97 1709.02C1318.53 1711.83 1319.92 1714.41 1321.94 1716.44C1323.97 1718.46 1326.55 1719.84 1329.36 1720.4C1332.17 1720.96 1335.09 1720.67 1337.73 1719.57C1340.38 1718.48 1342.64 1716.62 1344.23 1714.23C1345.83 1711.85 1346.68 1709.05 1346.68 1706.18C1346.67 1702.33 1345.14 1698.65 1342.42 1695.93C1339.7 1693.21 1336.01 1691.68 1332.17 1691.68Z" fill="#9192FF"/>
<path opacity="0.6" d="M1621.2 883.165C1622.06 882.395 1623.18 881.979 1624.34 882.001C1625.49 882.023 1626.6 882.481 1627.43 883.284C1628.26 884.086 1628.75 885.173 1628.82 886.325C1628.88 887.478 1628.5 888.61 1627.76 889.496C1627.33 889.92 1626.83 890.257 1626.27 890.487C1625.72 890.716 1625.12 890.835 1624.52 890.835C1623.92 890.835 1623.33 890.716 1622.77 890.487C1622.22 890.257 1621.71 889.92 1621.29 889.496C1620.48 888.646 1620.02 887.521 1620 886.347C1619.98 885.173 1620.41 884.036 1621.2 883.165Z" fill="white"/>
<path opacity="0.6" d="M345.908 1704.85C347.274 1703.63 349.052 1702.97 350.886 1703C352.719 1703.04 354.471 1703.76 355.789 1705.03C357.107 1706.31 357.894 1708.03 357.99 1709.85C358.086 1711.68 357.485 1713.48 356.309 1714.88C355.635 1715.55 354.835 1716.08 353.955 1716.45C353.074 1716.81 352.13 1717 351.177 1717C350.223 1717 349.279 1716.81 348.399 1716.45C347.518 1716.08 346.718 1715.55 346.045 1714.88C344.756 1713.53 344.026 1711.75 344.001 1709.89C343.975 1708.03 344.657 1706.23 345.908 1704.85Z" fill="white"/>
<path opacity="0.9" d="M352.449 2180.46C356.95 2175.96 356.95 2168.66 352.449 2164.15C347.948 2159.65 340.65 2159.65 336.15 2164.15C331.649 2168.66 331.649 2175.96 336.15 2180.46C340.65 2184.97 347.948 2184.97 352.449 2180.46Z" fill="#608CAD"/>
<path opacity="0.4" d="M313 1961C321.284 1961 328 1954.06 328 1945.5C328 1936.94 321.284 1930 313 1930C304.716 1930 298 1936.94 298 1945.5C298 1954.06 304.716 1961 313 1961Z" fill="#E5E5FF"/>
<path d="M287.371 1948.72C285.904 1948.71 284.44 1948.59 282.992 1948.36L283.132 1947.47C284.534 1947.69 285.951 1947.8 287.371 1947.8H287.536V1948.7L287.371 1948.72ZM292.083 1948.32L291.936 1947.43C293.389 1947.19 294.819 1946.83 296.214 1946.35L296.505 1947.21C295.063 1947.69 293.584 1948.07 292.083 1948.32ZM278.56 1947.31C277.112 1946.84 275.704 1946.25 274.35 1945.55L274.763 1944.75C276.074 1945.43 277.438 1946 278.84 1946.45L278.56 1947.31ZM300.69 1945.39L300.269 1944.59C301.575 1943.9 302.824 1943.11 304.004 1942.22L304.55 1942.94C303.33 1943.85 302.039 1944.67 300.69 1945.39ZM270.493 1943.14C269.27 1942.23 268.12 1941.23 267.056 1940.14L267.7 1939.51C268.729 1940.57 269.842 1941.54 271.028 1942.41L270.493 1943.14ZM307.948 1939.89L307.293 1939.27C308.308 1938.2 309.235 1937.05 310.065 1935.83L310.809 1936.34C309.947 1937.59 308.986 1938.78 307.933 1939.89H307.948ZM264.148 1936.63C263.274 1935.38 262.502 1934.06 261.84 1932.69L262.649 1932.3C263.29 1933.63 264.037 1934.9 264.881 1936.11L264.148 1936.63ZM313.067 1932.37L312.254 1931.99C312.878 1930.65 313.396 1929.27 313.804 1927.85L314.666 1928.1C314.242 1929.56 313.702 1930.99 313.052 1932.37H313.067ZM260.176 1928.44C259.74 1926.98 259.422 1925.48 259.223 1923.97L260.114 1923.86C260.306 1925.32 260.615 1926.76 261.038 1928.17L260.176 1928.44ZM315.536 1923.62L314.645 1923.52C314.77 1922.46 314.832 1921.39 314.832 1920.32C314.832 1919.92 314.832 1919.51 314.807 1919.1L315.705 1919.06C315.705 1919.48 315.73 1919.9 315.73 1920.32C315.734 1921.42 315.673 1922.53 315.547 1923.62H315.536ZM259.899 1919.44L259 1919.42C259.05 1917.89 259.223 1916.38 259.518 1914.88L260.398 1915.05C260.116 1916.5 259.948 1917.97 259.899 1919.44ZM314.264 1914.72C313.962 1913.27 313.545 1911.86 313.016 1910.48L313.854 1910.16C314.401 1911.58 314.834 1913.04 315.148 1914.53L314.264 1914.72ZM261.585 1910.8L260.74 1910.49C261.271 1909.06 261.914 1907.68 262.663 1906.35L263.447 1906.79C262.719 1908.08 262.096 1909.42 261.585 1910.8ZM312.934 1910.27C312.394 1908.9 311.746 1907.58 310.996 1906.32L311.769 1905.86C312.545 1907.17 313.215 1908.54 313.771 1909.96L312.934 1910.27ZM265.924 1903.13L265.223 1902.57C266.174 1901.38 267.22 1900.27 268.35 1899.25L268.951 1899.91C267.858 1900.9 266.846 1901.98 265.924 1903.13ZM308.451 1902.69C307.505 1901.56 306.47 1900.51 305.356 1899.55L305.942 1898.87C307.094 1899.86 308.164 1900.95 309.141 1902.11L308.451 1902.69ZM272.456 1897.23L271.97 1896.47C273.251 1895.65 274.595 1894.92 275.989 1894.31L276.349 1895.14C274.997 1895.73 273.695 1896.43 272.456 1897.23ZM301.793 1896.93C300.539 1896.16 299.223 1895.48 297.86 1894.92L298.22 1894.09C299.627 1894.67 300.986 1895.37 302.282 1896.17L301.793 1896.93ZM280.526 1893.69L280.3 1892.82C281.774 1892.44 283.277 1892.18 284.793 1892.05L284.876 1892.94C283.408 1893.08 281.953 1893.33 280.526 1893.7V1893.69ZM293.658 1893.56C292.222 1893.22 290.762 1893 289.29 1892.89L289.355 1892C290.874 1892.11 292.381 1892.34 293.863 1892.69L293.658 1893.56Z" fill="#9192FF"/>
<path d="M503.17 1907.35C500.17 1907.35 497.237 1906.46 494.743 1904.79C492.248 1903.13 490.304 1900.76 489.155 1897.98C488.007 1895.21 487.706 1892.16 488.291 1889.22C488.876 1886.27 490.321 1883.57 492.442 1881.44C494.564 1879.32 497.266 1877.88 500.209 1877.29C503.151 1876.71 506.201 1877.01 508.972 1878.16C511.744 1879.3 514.113 1881.25 515.779 1883.75C517.445 1886.24 518.334 1889.18 518.333 1892.18C518.329 1896.2 516.73 1900.06 513.887 1902.9C511.044 1905.75 507.19 1907.35 503.17 1907.35ZM503.17 1877.68C500.305 1877.68 497.505 1878.54 495.124 1880.13C492.742 1881.73 490.887 1883.99 489.793 1886.64C488.698 1889.29 488.413 1892.2 488.974 1895.02C489.535 1897.83 490.916 1900.41 492.943 1902.44C494.97 1904.46 497.552 1905.84 500.363 1906.4C503.173 1906.96 506.086 1906.67 508.733 1905.57C511.38 1904.48 513.643 1902.62 515.234 1900.23C516.826 1897.85 517.675 1895.05 517.675 1892.18C517.671 1888.33 516.141 1884.65 513.421 1881.93C510.701 1879.21 507.015 1877.68 503.17 1877.68Z" fill="#9192FF"/>
<path d="M84.1703 2672.35C81.1703 2672.35 78.2375 2671.46 75.7428 2669.79C73.2481 2668.13 71.3036 2665.76 70.1552 2662.98C69.0068 2660.21 68.7062 2657.16 69.2913 2654.22C69.8763 2651.27 71.3209 2648.57 73.4422 2646.44C75.5635 2644.32 78.2663 2642.88 81.2087 2642.29C84.1511 2641.71 87.2009 2642.01 89.9724 2643.16C92.7439 2644.3 95.1125 2646.25 96.7788 2648.75C98.4451 2651.24 99.3341 2654.18 99.3333 2657.18C99.3286 2661.2 97.7295 2665.06 94.8869 2667.9C92.0443 2670.75 88.1903 2672.35 84.1703 2672.35ZM84.1703 2642.68C81.3049 2642.68 78.5046 2643.54 76.1235 2645.13C73.7424 2646.73 71.8873 2648.99 70.7927 2651.64C69.6982 2654.29 69.4132 2657.2 69.974 2660.02C70.5348 2662.83 71.916 2665.41 73.9432 2667.44C75.9703 2669.46 78.5524 2670.84 81.3629 2671.4C84.1735 2671.96 87.0863 2671.67 89.7334 2670.57C92.3804 2669.48 94.6427 2667.62 96.2343 2665.23C97.826 2662.85 98.6755 2660.05 98.6755 2657.18C98.6707 2653.33 97.1405 2649.65 94.4209 2646.93C91.7012 2644.21 88.0145 2642.68 84.1703 2642.68Z" fill="#9192FF"/>
<path opacity="0.6" d="M424.202 1931.16C425.063 1930.39 426.184 1929.98 427.339 1930C428.494 1930.02 429.598 1930.48 430.429 1931.28C431.259 1932.09 431.755 1933.17 431.815 1934.33C431.876 1935.48 431.498 1936.61 430.756 1937.5C430.331 1937.92 429.827 1938.26 429.273 1938.49C428.718 1938.72 428.123 1938.83 427.522 1938.83C426.921 1938.83 426.327 1938.72 425.772 1938.49C425.217 1938.26 424.713 1937.92 424.288 1937.5C423.476 1936.65 423.016 1935.52 423 1934.35C422.984 1933.17 423.414 1932.04 424.202 1931.16Z" fill="white"/>
<path d="M1899 2308C1898.07 2308 1897.14 2307.92 1896.22 2307.77L1896.31 2307.21C1897.2 2307.35 1898.1 2307.42 1899 2307.42H1899.11V2307.99L1899 2308ZM1901.99 2307.75L1901.9 2307.18C1902.82 2307.03 1903.73 2306.8 1904.62 2306.5L1904.8 2307.04C1903.88 2307.35 1902.95 2307.59 1901.99 2307.75ZM1893.41 2307.11C1892.49 2306.81 1891.6 2306.43 1890.74 2305.99L1891 2305.48C1891.83 2305.91 1892.7 2306.27 1893.59 2306.56L1893.41 2307.11ZM1907.46 2305.89L1907.19 2305.38C1908.02 2304.94 1908.81 2304.44 1909.56 2303.87L1909.91 2304.33C1909.13 2304.91 1908.31 2305.43 1907.46 2305.89ZM1888.29 2304.46C1887.52 2303.89 1886.79 2303.25 1886.11 2302.56L1886.52 2302.16C1887.17 2302.83 1887.88 2303.44 1888.63 2304L1888.29 2304.46ZM1912.06 2302.39L1911.65 2302C1912.29 2301.32 1912.88 2300.59 1913.4 2299.82L1913.88 2300.14C1913.33 2300.94 1912.72 2301.69 1912.05 2302.39H1912.06ZM1884.27 2300.33C1883.71 2299.53 1883.22 2298.7 1882.8 2297.83L1883.32 2297.58C1883.72 2298.42 1884.2 2299.23 1884.73 2300L1884.27 2300.33ZM1915.31 2297.63L1914.79 2297.38C1915.19 2296.53 1915.52 2295.66 1915.78 2294.76L1916.32 2294.91C1916.06 2295.84 1915.71 2296.75 1915.3 2297.63H1915.31ZM1881.75 2295.13C1881.47 2294.2 1881.27 2293.25 1881.14 2292.29L1881.71 2292.22C1881.83 2293.15 1882.02 2294.07 1882.29 2294.96L1881.75 2295.13ZM1916.88 2292.07L1916.31 2292.01C1916.39 2291.33 1916.43 2290.65 1916.43 2289.97C1916.43 2289.72 1916.43 2289.46 1916.41 2289.2L1916.98 2289.18C1916.98 2289.44 1917 2289.71 1917 2289.97C1917 2290.68 1916.96 2291.38 1916.88 2292.07H1916.88ZM1881.57 2289.42L1881 2289.4C1881.03 2288.43 1881.14 2287.47 1881.33 2286.52L1881.89 2286.63C1881.71 2287.55 1881.6 2288.48 1881.57 2289.42ZM1916.07 2286.42C1915.88 2285.5 1915.61 2284.6 1915.28 2283.73L1915.81 2283.53C1916.16 2284.43 1916.43 2285.36 1916.63 2286.3L1916.07 2286.42ZM1882.64 2283.93L1882.1 2283.74C1882.44 2282.83 1882.85 2281.95 1883.32 2281.11L1883.82 2281.39C1883.36 2282.2 1882.96 2283.05 1882.64 2283.93ZM1915.23 2283.6C1914.88 2282.73 1914.47 2281.89 1914 2281.09L1914.49 2280.8C1914.98 2281.63 1915.4 2282.5 1915.76 2283.4L1915.23 2283.6ZM1885.39 2279.06L1884.95 2278.71C1885.55 2277.95 1886.22 2277.25 1886.93 2276.6L1887.31 2277.02C1886.62 2277.65 1885.98 2278.33 1885.39 2279.06ZM1912.38 2278.79C1911.78 2278.07 1911.12 2277.4 1910.42 2276.79L1910.79 2276.36C1911.52 2276.99 1912.2 2277.68 1912.82 2278.42L1912.38 2278.79ZM1889.54 2275.32L1889.23 2274.84C1890.04 2274.31 1890.9 2273.86 1891.78 2273.47L1892.01 2273.99C1891.15 2274.37 1890.33 2274.81 1889.54 2275.32ZM1908.16 2275.13C1907.36 2274.64 1906.52 2274.21 1905.66 2273.85L1905.89 2273.33C1906.78 2273.7 1907.64 2274.14 1908.47 2274.64L1908.16 2275.13ZM1894.66 2273.08L1894.52 2272.52C1895.45 2272.28 1896.41 2272.12 1897.37 2272.03L1897.42 2272.6C1896.49 2272.68 1895.57 2272.84 1894.66 2273.08V2273.08ZM1902.99 2272.99C1902.08 2272.78 1901.16 2272.63 1900.22 2272.57L1900.26 2272C1901.23 2272.07 1902.18 2272.21 1903.12 2272.44L1902.99 2272.99Z" fill="#9192FF"/>
<path d="M957.759 2209C956.779 2209 955.791 2208.96 954.824 2208.88L954.869 2208.3C955.824 2208.37 956.797 2208.41 957.762 2208.42L957.759 2209ZM960.697 2208.91L960.657 2208.33C961.617 2208.27 962.586 2208.17 963.539 2208.04L963.618 2208.62C962.651 2208.75 961.668 2208.85 960.697 2208.91ZM951.906 2208.55C950.939 2208.4 949.965 2208.22 949.017 2208.01L949.143 2207.44C950.077 2207.65 951.037 2207.83 951.99 2207.97L951.906 2208.55ZM966.513 2208.11L966.392 2207.55C967.326 2207.35 968.279 2207.11 969.194 2206.84L969.355 2207.41C968.426 2207.68 967.466 2207.91 966.513 2208.11ZM946.173 2207.27C945.239 2206.99 944.305 2206.67 943.388 2206.32L943.598 2205.78C944.497 2206.12 945.419 2206.43 946.341 2206.71L946.173 2207.27ZM972.157 2206.49L971.954 2205.94C972.855 2205.61 973.756 2205.24 974.632 2204.85L974.866 2205.38C973.985 2205.78 973.07 2206.16 972.157 2206.49ZM940.679 2205.18C939.796 2204.76 938.916 2204.31 938.062 2203.84L938.346 2203.33C939.187 2203.79 940.056 2204.24 940.915 2204.65L940.679 2205.18ZM977.502 2204.08L977.224 2203.56C978.067 2203.09 978.907 2202.61 979.718 2202.09L980.033 2202.58C979.209 2203.11 978.359 2203.61 977.502 2204.08ZM935.547 2202.31C934.732 2201.78 933.924 2201.21 933.149 2200.61L933.501 2200.15C934.267 2200.73 935.063 2201.3 935.867 2201.82L935.547 2202.31ZM982.45 2200.91L982.102 2200.44C982.872 2199.87 983.633 2199.26 984.362 2198.63L984.743 2199.08C984.005 2199.72 983.232 2200.33 982.45 2200.92V2200.91ZM930.877 2198.74C930.146 2198.1 929.429 2197.42 928.745 2196.72L929.161 2196.31C929.835 2197 930.543 2197.67 931.262 2198.31L930.877 2198.74ZM986.898 2197.08L986.487 2196.67C987.169 2195.99 987.836 2195.27 988.469 2194.57L988.908 2194.95C988.266 2195.67 987.591 2196.41 986.898 2197.08ZM926.76 2194.56C926.13 2193.81 925.516 2193.04 924.939 2192.25L925.406 2191.91C925.976 2192.68 926.573 2193.45 927.204 2194.18L926.76 2194.56ZM990.76 2192.66L990.293 2192.3C990.874 2191.54 991.432 2190.74 991.955 2189.93L992.443 2190.25C991.913 2191.07 991.348 2191.88 990.76 2192.66ZM923.279 2189.83C922.758 2189 922.261 2188.15 921.803 2187.29L922.317 2187.01C922.77 2187.86 923.251 2188.7 923.771 2189.52L923.279 2189.83ZM993.945 2187.73L993.433 2187.45C993.9 2186.6 994.337 2185.73 994.739 2184.86L995.269 2185.1C994.867 2185.98 994.423 2186.87 993.952 2187.72L993.945 2187.73ZM920.514 2184.65C920.117 2183.76 919.748 2182.84 919.417 2181.93L919.968 2181.73C920.292 2182.63 920.668 2183.54 921.047 2184.41L920.514 2184.65ZM996.401 2182.38L995.855 2182.18C996.193 2181.28 996.502 2180.35 996.772 2179.43L997.333 2179.59C997.062 2180.53 996.749 2181.46 996.401 2182.38ZM918.527 2179.13C918.263 2178.19 918.03 2177.23 917.827 2176.27L918.399 2176.15C918.59 2177.09 918.821 2178.04 919.083 2178.97L918.527 2179.13ZM998.064 2176.74L997.494 2176.62C997.697 2175.68 997.87 2174.72 998.008 2173.77L998.584 2173.85C998.447 2174.82 998.269 2175.79 998.064 2176.75V2176.74ZM917.348 2173.38C917.222 2172.41 917.128 2171.43 917.07 2170.45L917.654 2170.42C917.71 2171.38 917.801 2172.35 917.927 2173.3L917.348 2173.38ZM998.897 2170.93L998.314 2170.89C998.381 2169.94 998.416 2168.96 998.416 2168H999C999 2168.98 998.97 2169.96 998.897 2170.93ZM917.584 2167.52H917C917 2166.55 917.058 2165.56 917.138 2164.59L917.719 2164.64C917.64 2165.58 917.595 2166.56 917.584 2167.52ZM998.374 2166.05C998.33 2165.09 998.248 2164.12 998.141 2163.17L998.722 2163.1C998.837 2164.07 998.918 2165.05 998.956 2166.03L998.374 2166.05ZM918.06 2161.75L917.479 2161.66C917.628 2160.7 917.815 2159.73 918.034 2158.78L918.602 2158.91C918.392 2159.85 918.207 2160.8 918.06 2161.75ZM997.683 2160.31C997.501 2159.37 997.281 2158.41 997.032 2157.48L997.597 2157.33C997.849 2158.27 998.064 2159.24 998.255 2160.2L997.683 2160.31ZM919.347 2156.11L918.789 2155.94C919.076 2155.01 919.4 2154.07 919.755 2153.16L920.299 2153.37C919.961 2154.27 919.641 2155.19 919.347 2156.11ZM996.168 2154.71C995.85 2153.8 995.498 2152.9 995.119 2152.01L995.654 2151.78C996.039 2152.67 996.399 2153.59 996.719 2154.51L996.168 2154.71ZM921.448 2150.71L920.92 2150.46C921.338 2149.58 921.794 2148.7 922.275 2147.85L922.784 2148.14C922.317 2148.97 921.866 2149.84 921.448 2150.71ZM993.889 2149.41C993.445 2148.55 992.966 2147.7 992.464 2146.89L992.962 2146.58C993.471 2147.41 993.956 2148.27 994.407 2149.14L993.889 2149.41ZM924.306 2145.67L923.818 2145.35C924.36 2144.53 924.934 2143.73 925.532 2142.96L925.999 2143.32C925.418 2144.07 924.839 2144.86 924.306 2145.66V2145.67ZM990.87 2144.48C990.309 2143.7 989.714 2142.93 989.1 2142.19L989.548 2141.81C990.171 2142.56 990.776 2143.35 991.344 2144.14L990.87 2144.48ZM927.846 2141.08L927.409 2140.69C928.061 2139.96 928.745 2139.25 929.445 2138.57L929.852 2138.99C929.154 2139.66 928.486 2140.36 927.846 2141.08ZM987.169 2140.02C986.503 2139.32 985.805 2138.65 985.09 2138L985.483 2137.57C986.207 2138.22 986.914 2138.91 987.584 2139.62L987.169 2140.02ZM932 2137.05L931.624 2136.6C932.371 2135.97 933.149 2135.37 933.938 2134.79L934.281 2135.26C933.504 2135.83 932.735 2136.43 932 2137.05ZM982.875 2136.14C982.116 2135.55 981.326 2134.97 980.528 2134.44L980.855 2133.95C981.663 2134.5 982.464 2135.08 983.234 2135.68L982.875 2136.14ZM936.684 2133.65L936.376 2133.15C937.205 2132.64 938.062 2132.15 938.923 2131.69L939.194 2132.21C938.344 2132.66 937.501 2133.14 936.684 2133.65ZM978.067 2132.91C977.233 2132.43 976.369 2131.97 975.498 2131.56L975.751 2131.03C976.631 2131.45 977.506 2131.91 978.354 2132.4L978.067 2132.91ZM941.802 2130.96L941.569 2130.42C942.461 2130.03 943.378 2129.67 944.296 2129.34L944.492 2129.89C943.586 2130.21 942.683 2130.57 941.802 2130.96ZM972.858 2130.39C971.963 2130.04 971.043 2129.71 970.123 2129.43L970.298 2128.87C971.232 2129.16 972.166 2129.49 973.072 2129.85L972.858 2130.39ZM947.266 2129.02L947.112 2128.46C948.046 2128.2 949.013 2127.97 949.97 2127.78L950.084 2128.35C949.129 2128.54 948.181 2128.77 947.254 2129.02H947.266ZM967.331 2128.66C966.397 2128.44 965.439 2128.25 964.491 2128.1L964.585 2127.52C965.547 2127.67 966.516 2127.87 967.466 2128.09L967.331 2128.66ZM952.945 2127.89L952.87 2127.31C953.837 2127.19 954.822 2127.11 955.798 2127.05L955.828 2127.64C954.855 2127.69 953.883 2127.78 952.933 2127.89H952.945ZM961.617 2127.74C960.66 2127.65 959.688 2127.6 958.724 2127.58L958.736 2127C959.712 2127.02 960.699 2127.07 961.668 2127.16L961.617 2127.74Z" fill="#9192FF"/>
<path d="M1540.17 2304.35C1537.17 2304.35 1534.24 2303.46 1531.74 2301.79C1529.25 2300.13 1527.3 2297.76 1526.16 2294.98C1525.01 2292.21 1524.71 2289.16 1525.29 2286.22C1525.88 2283.27 1527.32 2280.57 1529.44 2278.44C1531.56 2276.32 1534.27 2274.88 1537.21 2274.29C1540.15 2273.71 1543.2 2274.01 1545.97 2275.16C1548.74 2276.3 1551.11 2278.25 1552.78 2280.75C1554.45 2283.24 1555.33 2286.18 1555.33 2289.18C1555.33 2293.2 1553.73 2297.06 1550.89 2299.9C1548.04 2302.75 1544.19 2304.35 1540.17 2304.35ZM1540.17 2274.68C1537.3 2274.68 1534.5 2275.54 1532.12 2277.13C1529.74 2278.73 1527.89 2280.99 1526.79 2283.64C1525.7 2286.29 1525.41 2289.2 1525.97 2292.02C1526.53 2294.83 1527.92 2297.41 1529.94 2299.44C1531.97 2301.46 1534.55 2302.84 1537.36 2303.4C1540.17 2303.96 1543.09 2303.67 1545.73 2302.57C1548.38 2301.48 1550.64 2299.62 1552.23 2297.23C1553.83 2294.85 1554.68 2292.05 1554.68 2289.18C1554.67 2285.33 1553.14 2281.65 1550.42 2278.93C1547.7 2276.21 1544.01 2274.68 1540.17 2274.68Z" fill="#9192FF"/>
<path opacity="0.4" d="M1632 1922C1636.97 1922 1641 1917.97 1641 1913C1641 1908.03 1636.97 1904 1632 1904C1627.03 1904 1623 1908.03 1623 1913C1623 1917.97 1627.03 1922 1632 1922Z" fill="#E5E5FF"/>
<path d="M1603.37 1950.72C1601.9 1950.71 1600.44 1950.59 1598.99 1950.36L1599.13 1949.47C1600.53 1949.69 1601.95 1949.8 1603.37 1949.8H1603.54V1950.7L1603.37 1950.72ZM1608.08 1950.32L1607.94 1949.43C1609.39 1949.19 1610.82 1948.83 1612.21 1948.35L1612.51 1949.21C1611.06 1949.69 1609.58 1950.07 1608.08 1950.32ZM1594.56 1949.31C1593.11 1948.84 1591.7 1948.25 1590.35 1947.55L1590.76 1946.75C1592.07 1947.43 1593.44 1948 1594.84 1948.45L1594.56 1949.31ZM1616.69 1947.39L1616.27 1946.59C1617.58 1945.9 1618.82 1945.11 1620 1944.22L1620.55 1944.94C1619.33 1945.85 1618.04 1946.67 1616.69 1947.39ZM1586.49 1945.14C1585.27 1944.23 1584.12 1943.23 1583.06 1942.14L1583.7 1941.51C1584.73 1942.57 1585.84 1943.54 1587.03 1944.41L1586.49 1945.14ZM1623.95 1941.89L1623.29 1941.27C1624.31 1940.2 1625.23 1939.05 1626.06 1937.83L1626.81 1938.34C1625.95 1939.59 1624.99 1940.78 1623.93 1941.89H1623.95ZM1580.15 1938.63C1579.27 1937.38 1578.5 1936.06 1577.84 1934.69L1578.65 1934.3C1579.29 1935.63 1580.04 1936.9 1580.88 1938.11L1580.15 1938.63ZM1629.07 1934.37L1628.25 1933.99C1628.88 1932.65 1629.4 1931.27 1629.8 1929.85L1630.67 1930.1C1630.24 1931.56 1629.7 1932.99 1629.05 1934.37H1629.07ZM1576.18 1930.44C1575.74 1928.98 1575.42 1927.48 1575.22 1925.97L1576.11 1925.86C1576.31 1927.32 1576.61 1928.76 1577.04 1930.17L1576.18 1930.44ZM1631.54 1925.62L1630.64 1925.52C1630.77 1924.46 1630.83 1923.39 1630.83 1922.32C1630.83 1921.92 1630.83 1921.51 1630.81 1921.1L1631.71 1921.06C1631.71 1921.48 1631.73 1921.9 1631.73 1922.32C1631.73 1923.42 1631.67 1924.53 1631.55 1925.62H1631.54ZM1575.9 1921.44L1575 1921.42C1575.05 1919.89 1575.22 1918.38 1575.52 1916.88L1576.4 1917.05C1576.12 1918.5 1575.95 1919.97 1575.9 1921.44ZM1630.26 1916.72C1629.96 1915.27 1629.54 1913.86 1629.02 1912.48L1629.85 1912.16C1630.4 1913.58 1630.83 1915.04 1631.15 1916.53L1630.26 1916.72ZM1577.58 1912.8L1576.74 1912.49C1577.27 1911.06 1577.91 1909.68 1578.66 1908.35L1579.45 1908.79C1578.72 1910.08 1578.1 1911.42 1577.58 1912.8ZM1628.93 1912.27C1628.39 1910.9 1627.75 1909.58 1627 1908.32L1627.77 1907.86C1628.55 1909.17 1629.21 1910.54 1629.77 1911.96L1628.93 1912.27ZM1581.92 1905.13L1581.22 1904.57C1582.17 1903.38 1583.22 1902.27 1584.35 1901.25L1584.95 1901.91C1583.86 1902.9 1582.85 1903.98 1581.92 1905.13ZM1624.45 1904.69C1623.5 1903.56 1622.47 1902.51 1621.36 1901.55L1621.94 1900.87C1623.09 1901.86 1624.16 1902.95 1625.14 1904.11L1624.45 1904.69ZM1588.46 1899.23L1587.97 1898.47C1589.25 1897.65 1590.59 1896.92 1591.99 1896.31L1592.35 1897.14C1591 1897.73 1589.7 1898.43 1588.46 1899.23ZM1617.79 1898.93C1616.54 1898.16 1615.22 1897.48 1613.86 1896.92L1614.22 1896.09C1615.63 1896.67 1616.99 1897.37 1618.28 1898.17L1617.79 1898.93ZM1596.53 1895.69L1596.3 1894.82C1597.77 1894.44 1599.28 1894.18 1600.79 1894.05L1600.88 1894.94C1599.41 1895.08 1597.95 1895.33 1596.53 1895.7V1895.69ZM1609.66 1895.56C1608.22 1895.22 1606.76 1895 1605.29 1894.89L1605.35 1894C1606.87 1894.11 1608.38 1894.34 1609.86 1894.69L1609.66 1895.56Z" fill="#9192FF"/>
</svg>
