<svg width="1088" height="1064" viewBox="0 0 1088 1064" fill="none" xmlns="http://www.w3.org/2000/svg">
<path opacity="0.6" d="M331.908 406.464C333.274 405.244 335.052 404.585 336.886 404.62C338.719 404.655 340.471 405.381 341.789 406.653C343.107 407.924 343.894 409.646 343.99 411.473C344.086 413.299 343.485 415.094 342.309 416.496C341.635 417.169 340.835 417.703 339.955 418.067C339.074 418.431 338.13 418.619 337.177 418.619C336.223 418.619 335.279 418.431 334.399 418.067C333.518 417.703 332.718 417.169 332.045 416.496C330.756 415.15 330.026 413.368 330.001 411.507C329.975 409.646 330.657 407.845 331.908 406.464Z" fill="white"/>
<path opacity="0.6" d="M671.908 24.4587C673.274 23.2386 675.052 22.5796 676.886 22.6146C678.719 22.6496 680.471 23.376 681.789 24.6474C683.107 25.9188 683.894 27.6411 683.99 29.4674C684.086 31.2938 683.485 33.0887 682.309 34.4911C681.635 35.1639 680.835 35.6976 679.955 36.0618C679.074 36.4259 678.13 36.6133 677.177 36.6133C676.223 36.6133 675.279 36.4259 674.399 36.0618C673.518 35.6976 672.718 35.1639 672.045 34.4911C670.756 33.145 670.026 31.3627 670.001 29.5018C669.975 27.6409 670.657 25.8393 671.908 24.4587Z" fill="white"/>
<path opacity="0.6" d="M334.908 1035.85C336.274 1034.63 338.052 1033.97 339.886 1034C341.719 1034.04 343.471 1034.76 344.789 1036.03C346.107 1037.31 346.894 1039.03 346.99 1040.85C347.086 1042.68 346.485 1044.48 345.309 1045.88C344.635 1046.55 343.835 1047.08 342.955 1047.45C342.074 1047.81 341.13 1048 340.177 1048C339.223 1048 338.279 1047.81 337.399 1047.45C336.518 1047.08 335.718 1046.55 335.045 1045.88C333.756 1044.53 333.026 1042.75 333.001 1040.89C332.975 1039.03 333.657 1037.23 334.908 1035.85Z" fill="white"/>
<path opacity="0.5" d="M114.029 161.061C124.527 150.557 124.527 133.525 114.029 123.021C103.53 112.516 86.5082 112.516 76.0095 123.021C65.5109 133.525 65.5109 150.557 76.0095 161.061C86.5082 171.566 103.53 171.566 114.029 161.061Z" fill="#41FFE7"/>
<path opacity="0.5" d="M766.757 1016.76C772.146 1011.37 780.883 1011.37 786.272 1016.76C791.661 1022.15 791.661 1030.9 786.272 1036.29C780.883 1041.68 772.146 1041.68 766.757 1036.29C761.368 1030.9 761.368 1022.15 766.757 1016.76Z" fill="#41FFE7"/>
<path opacity="0.4" d="M64.5 984C69.7467 984 74 979.747 74 974.5C74 969.253 69.7467 965 64.5 965C59.2533 965 55 969.253 55 974.5C55 979.747 59.2533 984 64.5 984Z" fill="#E5E5FF"/>
<path d="M1059.37 576.716C1057.9 576.712 1056.44 576.591 1054.99 576.357L1055.13 575.468C1056.53 575.69 1057.95 575.8 1059.37 575.799H1059.54V576.698L1059.37 576.716ZM1064.08 576.321L1063.94 575.432C1065.39 575.189 1066.82 574.828 1068.21 574.353L1068.51 575.206C1067.06 575.693 1065.58 576.065 1064.08 576.321ZM1050.56 575.31C1049.11 574.835 1047.7 574.246 1046.35 573.548L1046.76 572.749C1048.07 573.426 1049.44 573.996 1050.84 574.454L1050.56 575.31ZM1072.69 573.389L1072.27 572.594C1073.58 571.903 1074.82 571.108 1076 570.217L1076.55 570.936C1075.33 571.854 1074.04 572.675 1072.69 573.389ZM1042.49 571.141C1041.27 570.234 1040.12 569.231 1039.06 568.141L1039.7 567.512C1040.73 568.568 1041.84 569.539 1043.03 570.415L1042.49 571.141ZM1079.95 567.886L1079.29 567.267C1080.31 566.198 1081.23 565.048 1082.06 563.829L1082.81 564.336C1081.95 565.595 1080.99 566.782 1079.93 567.886H1079.95ZM1036.15 564.627C1035.27 563.38 1034.5 562.064 1033.84 560.692L1034.65 560.3C1035.29 561.628 1036.04 562.903 1036.88 564.113L1036.15 564.627ZM1085.07 560.372L1084.25 559.991C1084.88 558.653 1085.4 557.269 1085.8 555.851L1086.67 556.099C1086.24 557.564 1085.7 558.993 1085.05 560.372H1085.07ZM1032.18 556.437C1031.74 554.977 1031.42 553.484 1031.22 551.973L1032.11 551.858C1032.31 553.319 1032.61 554.763 1033.04 556.174L1032.18 556.437ZM1087.54 551.624L1086.64 551.52C1086.77 550.457 1086.83 549.389 1086.83 548.319C1086.83 547.916 1086.83 547.506 1086.81 547.103L1087.71 547.063C1087.71 547.481 1087.73 547.901 1087.73 548.319C1087.73 549.423 1087.67 550.527 1087.55 551.624H1087.54ZM1031.9 547.445L1031 547.416C1031.05 545.892 1031.22 544.376 1031.52 542.88L1032.4 543.053C1032.12 544.501 1031.95 545.97 1031.9 547.445ZM1086.26 542.718C1085.96 541.275 1085.54 539.858 1085.02 538.481L1085.85 538.157C1086.4 539.58 1086.83 541.043 1087.15 542.535L1086.26 542.718ZM1033.58 538.801L1032.74 538.488C1033.27 537.059 1033.91 535.675 1034.66 534.348L1035.45 534.791C1034.72 536.075 1034.1 537.416 1033.58 538.801ZM1084.93 538.272C1084.39 536.904 1083.75 535.581 1083 534.316L1083.77 533.859C1084.55 535.17 1085.21 536.541 1085.77 537.959L1084.93 538.272ZM1037.92 531.129L1037.22 530.568C1038.17 529.378 1039.22 528.268 1040.35 527.248L1040.95 527.913C1039.86 528.903 1038.85 529.978 1037.92 531.129ZM1080.45 530.69C1079.5 529.563 1078.47 528.515 1077.36 527.554L1077.94 526.874C1079.09 527.865 1080.16 528.947 1081.14 530.111L1080.45 530.69ZM1044.46 525.23L1043.97 524.471C1045.25 523.646 1046.59 522.925 1047.99 522.313L1048.35 523.14C1047 523.731 1045.7 524.43 1044.46 525.23ZM1073.79 524.931C1072.54 524.156 1071.22 523.484 1069.86 522.921L1070.22 522.09C1071.63 522.672 1072.99 523.366 1074.28 524.165L1073.79 524.931ZM1052.53 521.694L1052.3 520.824C1053.77 520.443 1055.28 520.184 1056.79 520.047L1056.88 520.942C1055.41 521.077 1053.95 521.33 1052.53 521.698V521.694ZM1065.66 521.561C1064.22 521.222 1062.76 520.998 1061.29 520.892L1061.35 520C1062.87 520.108 1064.38 520.339 1065.86 520.691L1065.66 521.561Z" fill="#9192FF"/>
<path d="M203.752 175.312C202.242 175.312 200.721 175.244 199.233 175.128L199.301 174.229C200.772 174.344 202.271 174.405 203.755 174.413L203.752 175.312ZM208.274 175.179L208.213 174.283C209.691 174.186 211.182 174.035 212.649 173.834L212.771 174.726C211.283 174.931 209.77 175.082 208.274 175.179ZM194.74 174.618C193.251 174.395 191.752 174.118 190.293 173.79L190.487 172.913C191.925 173.236 193.402 173.51 194.869 173.729L194.74 174.618ZM217.229 173.949L217.042 173.071C218.48 172.765 219.947 172.402 221.356 171.992L221.604 172.855C220.173 173.272 218.696 173.639 217.229 173.949ZM185.914 172.647C184.476 172.215 183.038 171.722 181.625 171.186L181.949 170.348C183.333 170.873 184.753 171.359 186.173 171.787L185.914 172.647ZM225.918 171.449L225.605 170.603C226.993 170.093 228.38 169.524 229.728 168.917L230.088 169.733C228.733 170.352 227.323 170.931 225.918 171.449ZM177.455 169.42C176.097 168.783 174.741 168.089 173.426 167.359L173.864 166.571C175.158 167.291 176.496 167.978 177.819 168.604L177.455 169.42ZM234.146 167.726L233.719 166.935C235.016 166.215 236.31 165.467 237.558 164.672L238.043 165.427C236.774 166.237 235.466 167.01 234.146 167.726ZM169.554 165.01C168.299 164.187 167.056 163.309 165.862 162.395L166.405 161.676C167.584 162.575 168.81 163.446 170.046 164.255L169.554 165.01ZM241.764 162.852L241.228 162.133C242.415 161.248 243.586 160.313 244.708 159.345L245.294 160.025C244.158 161.01 242.968 161.96 241.764 162.859V162.852ZM162.364 159.511C161.239 158.518 160.135 157.471 159.082 156.396L159.722 155.766C160.761 156.824 161.85 157.856 162.957 158.838L162.364 159.511ZM248.612 156.957L247.979 156.316C249.029 155.273 250.057 154.158 251.031 153.079L251.707 153.669C250.719 154.784 249.68 155.914 248.612 156.957ZM156.027 153.068C155.056 151.921 154.11 150.727 153.223 149.518L153.941 148.986C154.819 150.18 155.739 151.356 156.71 152.486L156.027 153.068ZM254.558 150.137L253.839 149.594C254.734 148.41 255.593 147.18 256.399 145.936L257.15 146.425C256.334 147.687 255.464 148.936 254.558 150.137ZM150.667 145.781C149.865 144.508 149.099 143.195 148.395 141.868L149.185 141.447C149.883 142.749 150.623 144.047 151.425 145.299L150.667 145.781ZM259.461 142.544L258.674 142.112C259.393 140.81 260.065 139.468 260.684 138.123L261.5 138.501C260.881 139.857 260.198 141.22 259.472 142.537L259.461 142.544ZM146.41 137.807C145.799 136.433 145.231 135.023 144.721 133.613L145.569 133.307C146.069 134.695 146.648 136.087 147.23 137.44L146.41 137.807ZM263.243 134.31L262.402 133.994C262.923 132.605 263.398 131.181 263.815 129.76L264.678 130.016C264.261 131.454 263.779 132.893 263.243 134.31ZM143.351 129.296C142.945 127.858 142.585 126.368 142.273 124.897L143.153 124.717C143.448 126.156 143.804 127.624 144.207 129.052L143.351 129.296ZM265.803 125.624L264.926 125.433C265.238 123.994 265.504 122.509 265.716 121.041L266.604 121.167C266.392 122.664 266.119 124.163 265.803 125.631V125.624ZM141.536 120.441C141.342 118.952 141.198 117.437 141.108 115.937L142.007 115.883C142.093 117.362 142.233 118.858 142.427 120.326L141.536 120.441ZM267.086 116.675L266.187 116.614C266.292 115.139 266.346 113.639 266.346 112.153H267.244C267.244 113.66 267.198 115.182 267.086 116.675ZM141.899 111.423H141C141 109.916 141.09 108.395 141.212 106.902L142.107 106.974C141.985 108.434 141.917 109.938 141.899 111.423ZM266.281 109.161C266.213 107.675 266.087 106.179 265.921 104.715L266.816 104.607C266.993 106.096 267.118 107.614 267.176 109.118L266.281 109.161ZM142.632 102.535L141.737 102.398C141.967 100.909 142.255 99.4166 142.593 97.9526L143.466 98.154C143.143 99.5964 142.859 101.071 142.632 102.535ZM265.217 100.305C264.936 98.8662 264.598 97.3879 264.214 95.9563L265.084 95.7261C265.472 97.1649 265.803 98.6612 266.097 100.136L265.217 100.305ZM144.613 93.8449L143.754 93.5823C144.196 92.1436 144.696 90.7048 145.242 89.2984L146.08 89.6257C145.558 91.0069 145.066 92.4277 144.613 93.8449ZM262.884 91.6868C262.395 90.2912 261.852 88.892 261.27 87.5323L262.093 87.1726C262.686 88.5502 263.24 89.9674 263.732 91.3846L262.884 91.6868ZM147.848 85.5216L147.036 85.1368C147.679 83.7807 148.38 82.4247 149.121 81.1154L149.904 81.5578C149.185 82.8491 148.492 84.1836 147.848 85.5216ZM259.375 83.5145C258.692 82.1981 257.955 80.8924 257.182 79.6334L257.948 79.1622C258.732 80.4427 259.479 81.7664 260.173 83.1009L259.375 83.5145ZM152.248 77.7594L151.497 77.2631C152.331 76.0113 153.215 74.774 154.136 73.5834L154.855 74.1337C153.959 75.2991 153.068 76.5185 152.248 77.7522V77.7594ZM254.727 75.925C253.864 74.72 252.948 73.533 252.002 72.3928L252.692 71.8209C253.652 72.9755 254.583 74.1805 255.457 75.3999L254.727 75.925ZM157.698 70.6915L157.026 70.0944C158.029 68.9721 159.082 67.8751 160.161 66.8284L160.786 67.4722C159.711 68.5081 158.683 69.5872 157.698 70.6915ZM249.029 69.0585C248.005 67.9794 246.93 66.9435 245.83 65.9507L246.434 65.2853C247.548 66.2924 248.637 67.3535 249.669 68.4362L249.029 69.0585ZM164.093 64.4832L163.515 63.7926C164.665 62.825 165.862 61.8898 167.077 61.0049L167.606 61.7243C166.408 62.6056 165.226 63.53 164.093 64.4832ZM242.418 63.0768C241.25 62.1667 240.035 61.2783 238.805 60.4546L239.309 59.71C240.552 60.5481 241.785 61.4437 242.972 62.3682L242.418 63.0768ZM171.305 59.246L170.83 58.4799C172.106 57.6885 173.426 56.9296 174.752 56.2318L175.169 57.0267C173.861 57.7173 172.563 58.4619 171.305 59.246ZM235.016 58.0986C233.733 57.3612 232.403 56.6598 231.062 56.0196L231.45 55.2067C232.806 55.8613 234.154 56.5699 235.459 57.3181L235.016 58.0986ZM179.185 55.0952L178.825 54.2715C180.198 53.6672 181.611 53.1097 183.024 52.6061L183.326 53.455C181.931 53.9477 180.54 54.5017 179.185 55.0952ZM226.996 54.2283C225.619 53.6852 224.203 53.1816 222.787 52.7392L223.056 51.8795C224.494 52.3291 225.932 52.8399 227.327 53.3938L226.996 54.2283ZM187.597 52.1169L187.359 51.25C188.797 50.8508 190.286 50.5019 191.759 50.2069L191.936 51.0882C190.465 51.3795 189.006 51.7248 187.579 52.1169H187.597ZM218.487 51.5558C217.049 51.2177 215.575 50.9263 214.116 50.6889L214.26 49.8005C215.741 50.0415 217.233 50.3364 218.696 50.6817L218.487 51.5558ZM196.339 50.3796L196.224 49.4839C197.712 49.3005 199.23 49.1638 200.732 49.0847L200.779 49.9839C199.28 50.0631 197.784 50.1961 196.321 50.3796H196.339ZM209.691 50.1386C208.217 50.0091 206.721 49.93 205.237 49.9012L205.255 49.002C206.757 49.0307 208.278 49.1099 209.77 49.243L209.691 50.1386Z" fill="#9192FF"/>
<path d="M386.827 103.356C383.827 103.357 380.894 102.467 378.4 100.8C375.905 99.1326 373.96 96.7625 372.812 93.9894C371.664 91.2163 371.363 88.1647 371.948 85.2207C372.533 82.2766 373.978 79.5722 376.099 77.4497C378.22 75.3271 380.923 73.8817 383.865 73.2963C386.808 72.7109 389.858 73.0117 392.629 74.1607C395.401 75.3098 397.769 77.2554 399.436 79.7516C401.102 82.2477 401.991 85.1822 401.99 88.184C401.985 92.2063 400.386 96.0626 397.544 98.9068C394.701 101.751 390.847 103.351 386.827 103.356ZM386.827 73.6847C383.962 73.6876 381.161 74.5403 378.78 76.1353C376.399 77.7302 374.544 79.9957 373.449 82.6453C372.355 85.2949 372.07 88.2098 372.631 91.0214C373.191 93.8331 374.573 96.4152 376.6 98.4415C378.627 100.468 381.209 101.847 384.02 102.406C386.83 102.964 389.743 102.676 392.39 101.578C395.037 100.48 397.299 98.6219 398.891 96.2378C400.483 93.8537 401.332 91.051 401.332 88.184C401.327 84.3375 399.797 80.6501 397.078 77.9316C394.358 75.2131 390.671 73.6857 386.827 73.6847Z" fill="#9192FF"/>
<path d="M15.1703 1063.36C12.1703 1063.36 9.23746 1062.47 6.74276 1060.8C4.24807 1059.13 2.30356 1056.76 1.15519 1053.99C0.00681506 1051.22 -0.29384 1048.16 0.291254 1045.22C0.876349 1042.28 2.32091 1039.57 4.44222 1037.45C6.56354 1035.33 9.26631 1033.88 12.2087 1033.3C15.1511 1032.71 18.2009 1033.01 20.9724 1034.16C23.7439 1035.31 26.1125 1037.26 27.7788 1039.75C29.4451 1042.25 30.3341 1045.18 30.3333 1048.18C30.3286 1052.21 28.7295 1056.06 25.8869 1058.91C23.0443 1061.75 19.1903 1063.35 15.1703 1063.36ZM15.1703 1033.68C12.3049 1033.69 9.50462 1034.54 7.12351 1036.14C4.74239 1037.73 2.88731 1040 1.79274 1042.65C0.698163 1045.29 0.413244 1048.21 0.973999 1051.02C1.53475 1053.83 2.91601 1056.42 4.94316 1058.44C6.97032 1060.47 9.55236 1061.85 12.3629 1062.41C15.1735 1062.96 18.0863 1062.68 20.7334 1061.58C23.3804 1060.48 25.6427 1058.62 27.2343 1056.24C28.826 1053.85 29.6755 1051.05 29.6755 1048.18C29.6707 1044.34 28.1405 1040.65 25.4209 1037.93C22.7012 1035.21 19.0145 1033.69 15.1703 1033.68Z" fill="#9192FF"/>
<path d="M814.17 30.3509C811.17 30.3517 808.237 29.4621 805.743 27.7949C803.248 26.1277 801.304 23.7576 800.155 20.9845C799.007 18.2114 798.706 15.1599 799.291 12.2158C799.876 9.27168 801.321 6.56734 803.442 4.4448C805.564 2.32226 808.266 0.876858 811.209 0.291424C814.151 -0.29401 817.201 0.00681799 819.972 1.15586C822.744 2.3049 825.113 4.25054 826.779 6.74668C828.445 9.24282 829.334 12.1773 829.333 15.1791C829.329 19.2014 827.73 23.0577 824.887 25.9019C822.044 28.7462 818.19 30.3462 814.17 30.3509ZM814.17 0.679828C811.305 0.682673 808.505 1.53545 806.124 3.13038C803.742 4.72531 801.887 6.99077 800.793 9.64041C799.698 12.2901 799.413 15.2049 799.974 18.0165C800.535 20.8282 801.916 23.4103 803.943 25.4367C805.97 27.463 808.552 28.8425 811.363 29.4008C814.173 29.9591 817.086 29.6711 819.733 28.5732C822.38 27.4754 824.643 25.617 826.234 23.2329C827.826 20.8488 828.675 18.0461 828.675 15.1791C828.671 11.3326 827.141 7.64525 824.421 4.92673C821.701 2.20822 818.015 0.680778 814.17 0.679828Z" fill="#9192FF"/>
<path d="M442.514 990.351C439.514 990.352 436.581 989.462 434.086 987.795C431.591 986.128 429.647 983.758 428.498 980.985C427.35 978.211 427.049 975.16 427.635 972.216C428.22 969.272 429.664 966.567 431.785 964.445C433.907 962.322 436.61 960.877 439.552 960.291C442.494 959.706 445.544 960.007 448.316 961.156C451.087 962.305 453.456 964.251 455.122 966.747C456.788 969.243 457.677 972.177 457.677 975.179C457.672 979.201 456.073 983.058 453.23 985.902C450.388 988.746 446.534 990.346 442.514 990.351ZM442.514 960.68C439.648 960.683 436.848 961.535 434.467 963.13C432.086 964.725 430.231 966.991 429.136 969.64C428.041 972.29 427.757 975.205 428.317 978.017C428.878 980.828 430.259 983.41 432.286 985.437C434.314 987.463 436.896 988.842 439.706 989.401C442.517 989.959 445.43 989.671 448.077 988.573C450.724 987.475 452.986 985.617 454.578 983.233C456.169 980.849 457.019 978.046 457.019 975.179C457.014 971.333 455.484 967.645 452.764 964.927C450.045 962.208 446.358 960.681 442.514 960.68Z" fill="#9192FF"/>
<path opacity="0.6" d="M376.438 406.18C377.299 405.41 378.419 404.994 379.575 405.016C380.73 405.039 381.834 405.497 382.664 406.299C383.495 407.102 383.991 408.188 384.051 409.341C384.112 410.493 383.733 411.626 382.992 412.511C382.567 412.936 382.063 413.272 381.508 413.502C380.954 413.732 380.359 413.85 379.758 413.85C379.157 413.85 378.563 413.732 378.008 413.502C377.453 413.272 376.949 412.936 376.524 412.511C375.712 411.662 375.252 410.537 375.236 409.363C375.22 408.188 375.65 407.051 376.438 406.18Z" fill="white"/>
<path opacity="0.6" d="M957.202 38.1646C958.063 37.3946 959.184 36.9787 960.339 37.0008C961.494 37.0229 962.598 37.4813 963.429 38.2836C964.259 39.086 964.755 40.1728 964.815 41.3253C964.876 42.4778 964.498 43.6105 963.756 44.4955C963.331 44.92 962.827 45.2569 962.273 45.4867C961.718 45.7164 961.123 45.8347 960.522 45.8347C959.921 45.8347 959.327 45.7164 958.772 45.4867C958.217 45.2569 957.713 44.92 957.288 44.4955C956.476 43.646 956.016 42.5213 956 41.347C955.984 40.1727 956.414 39.0358 957.202 38.1646Z" fill="white"/>
</svg>
