<svg width="196" height="147" viewBox="0 0 196 147" fill="none" xmlns="http://www.w3.org/2000/svg">
<path d="M128.697 76.499L124.149 75.499L118.126 92.897L122.36 93.6513L128.697 76.499Z" fill="#F2F2F2"/>
<path d="M123.759 75.3403L119.276 74.3034L113.12 91.9902L117.355 92.7445L123.759 75.3403Z" fill="#F2F2F2"/>
<path d="M118.822 74.182L114.261 73.2323L108.01 91.2718L112.245 92.0261L118.822 74.182Z" fill="#F2F2F2"/>
<path d="M77.2698 65.684L72.8887 64.6807L72.2746 81.3447L76.4519 82.3013L77.2698 65.684Z" fill="#F2F2F2"/>
<path d="M82.0188 66.7177L77.6377 65.7144L77.0236 82.3784L81.201 83.335L82.0188 66.7177Z" fill="#F2F2F2"/>
<path d="M86.9114 67.8393L82.5303 66.8359L81.6355 83.3058L86.0935 84.4566L86.9114 67.8393Z" fill="#F2F2F2"/>
<path d="M142.703 70.9525L135.608 69.206L141.065 33.0666L147.115 34.109L142.703 70.9525Z" fill="white"/>
<path d="M154.929 35.8083L149.811 34.5483L145.393 71.2229L151.424 72.7075L154.929 35.8083Z" fill="#E0E0E0"/>
<path d="M167.735 38.0943L162.362 36.772L158.978 73.2539L165.212 74.7883L167.735 38.0943Z" fill="white"/>
<path d="M175.602 40.3671L170.341 38.8486L167.9 76.0098L173.728 77.4444L175.602 40.3671Z" fill="#E0E0E0"/>
<path d="M141.134 80.6265L135.76 77.4106L129.311 128.868L135.628 131.446L141.134 80.6265Z" fill="white"/>
<path d="M149.671 84.4506L143.941 81.6733L138.85 131.834L144.972 134.478L149.671 84.4506Z" fill="#E0E0E0"/>
<path d="M164.273 86.0437L159.504 83.2271L155.524 134.337L161.506 137.063L164.273 86.0437Z" fill="white"/>
<path d="M172.071 89.9671L167.162 87.2314L164.588 137.531L170.518 140.006L172.071 89.9671Z" fill="#E0E0E0"/>
<path d="M71.3646 19.23L78.515 20.5038L62.6095 51.8389L54.6251 49.7038L71.3646 19.23Z" fill="white"/>
<path d="M81.2918 21.4799L88.2822 23.3492L73.3743 53.6661L65.1474 52.1888L81.2918 21.4799Z" fill="#E0E0E0"/>
<path d="M58.7333 15.5242L65.9161 16.7221L50.3582 48.7389L42.2427 46.7872L58.7333 15.5242Z" fill="#E0E0E0"/>
<path d="M49.3501 13.4454L56.5004 14.7192L39.9197 46.3627L31.0002 44.5274L49.3501 13.4454Z" fill="white"/>
<path d="M37.647 56.6859L44.5721 60.1481L21.8662 101.699L13.3235 98.7328L37.647 56.6859Z" fill="#E0E0E0"/>
<path d="M61.336 62.8088L68.8612 66.4801L50.0015 108.564L41.6933 105.285L61.336 62.8088Z" fill="#E0E0E0"/>
<path d="M27.3182 52.5824L34.1985 56.1324L10.3455 97.4828L1.91509 94.7717L27.3182 52.5824Z" fill="white"/>
<path d="M50.9957 58.3033L58.5504 61.8505L38.5725 104.574L30.1383 101.342L50.9957 58.3033Z" fill="white"/>
<path d="M10.5401 98.2184L36.7288 52.7841C37.7675 52.3038 38.5799 52.922 38.8562 53.2911L12.7825 98.7529C12.6883 98.8922 12.4289 99.2145 12.144 99.3892C11.7878 99.6076 11.1828 99.342 10.7066 99.0466C10.3255 98.8102 10.4368 98.396 10.5401 98.2184Z" fill="white"/>
<path d="M38.8323 104.953L60.9694 57.4213C61.9624 56.8529 62.8255 57.3983 63.1329 57.7421L41.1127 105.291C41.0311 105.438 40.8006 105.782 40.532 105.981C40.1962 106.229 39.5704 106.017 39.0702 105.764C38.6701 105.561 38.7449 105.139 38.8323 104.953Z" fill="white"/>
<path d="M61.0489 55.5634L79.0224 21.3153C79.7935 20.929 80.4404 21.3579 80.6675 21.6206L62.783 55.8852C62.7173 55.9907 62.5336 56.236 62.324 56.3735C62.0619 56.5454 61.5887 56.3694 61.2124 56.1672C60.9113 56.0055 60.9779 55.6973 61.0489 55.5634Z" fill="white"/>
<path d="M38.6026 49.5605L56.5761 15.3123C57.3472 14.9261 57.9942 15.3549 58.2212 15.6176L40.3367 49.8823C40.271 49.9877 40.0873 50.233 39.8777 50.3706C39.6156 50.5425 39.1424 50.3665 38.7661 50.1643C38.465 50.0025 38.5316 49.6944 38.6026 49.5605Z" fill="white"/>
<path d="M149.061 34.6998C148.787 33.694 147.866 34.0146 147.439 34.3006L142.768 72.9796L144.795 73.4786C146.159 61.0035 148.922 35.7827 149.061 34.6998Z" fill="white"/>
<path d="M169.869 38.7878C169.421 37.7837 168.398 38.0534 167.943 38.3137L165.313 79.5062L167.128 80.1764C168.023 66.8223 169.823 39.8489 169.869 38.7878Z" fill="white"/>
<path d="M164.236 137.734C163.541 138.022 162.228 137.394 161.742 137.067L164.938 79.5815L166.393 75.0495L167.1 80.1596C166.129 98.3782 164.205 136.966 164.236 137.734Z" fill="white"/>
<path d="M138.416 132.548C137.707 132.802 136.427 132.111 135.957 131.76L141.965 74.4993L143.639 70.0437L144.096 75.1821C142.234 93.3317 138.422 131.78 138.416 132.548Z" fill="white"/>
<rect width="12.6709" height="43.511" rx="6.33547" transform="matrix(0.958408 0.285404 -0.286459 0.958093 101.483 50.4858)" fill="#F4F4F4"/>
<rect width="17.7432" height="23.5825" rx="7" transform="matrix(0.958408 0.285403 -0.286459 0.958093 92.0215 74.2476)" fill="#F4F4F4"/>
<rect width="8.96627" height="19.9276" rx="4.48314" transform="matrix(0.948663 0.316289 -0.317435 0.94828 107.301 39.0078)" fill="#F4F4F4"/>
<rect width="3.96477" height="1.7091" rx="0.854549" transform="matrix(0.948663 0.316289 -0.317436 0.94828 109.655 39.5977)" fill="white"/>
<rect width="7.77793" height="38.527" rx="3.88897" transform="matrix(-0.298067 0.954545 -0.954885 -0.296977 129.719 49.4189)" fill="#F4F4F4"/>
<ellipse rx="0.73956" ry="5.57024" transform="matrix(0.313533 -0.949577 0.949951 0.312398 99.8475 41.6687)" fill="#DEE4E5"/>
<ellipse rx="1.95455" ry="3.71591" transform="matrix(-0.963932 -0.266148 0.267143 -0.963657 109.286 59.5796)" fill="#DEE4E5"/>
<path d="M36.5913 48.6824L171.122 80.2833C171.122 80.2833 171.671 80.9161 171.493 82.3266C171.292 83.93 170.583 84.8743 170.583 84.8743L34.968 54.7286C34.968 54.7286 33.9841 53.5978 34.4653 51.5148C34.9465 49.4318 36.5913 48.6824 36.5913 48.6824Z" fill="#C4C4C4"/>
<path d="M37.0161 47.3064L171.547 78.9073C171.547 78.9073 172.095 79.5401 171.918 80.9506C171.717 82.554 171.008 83.4983 171.008 83.4983L35.3928 53.3526C35.3928 53.3526 34.409 52.2219 34.8901 50.1388C35.3713 48.0558 37.0161 47.3064 37.0161 47.3064Z" fill="#DEE4E5"/>
<path d="M37.2678 47.4076L171.486 78.8813C171.486 78.8813 171.605 79.1364 171.677 79.655C171.758 80.2445 171.754 80.5748 171.754 80.5748L36.5621 49.0761C36.5621 49.0761 36.2869 48.5785 36.3922 47.8447C36.4976 47.111 37.2678 47.4076 37.2678 47.4076Z" fill="white"/>
<ellipse rx="0.86527" ry="5.15215" transform="matrix(-0.963933 -0.266147 0.267144 -0.963657 111.641 48.6539)" fill="#DEE4E5"/>
</svg>
