<svg width="2048" height="819" viewBox="0 0 2048 819" fill="none" xmlns="http://www.w3.org/2000/svg">
<g clip-path="url(#clip0)">
<path d="M1745.95 590.054C1750.8 585.195 1747.9 579.813 1737.79 574.93C1727.69 570.048 1711.08 566.005 1691.14 563.57C1671.19 561.134 1649.29 560.476 1629.59 561.721C1609.89 562.965 1593.78 566.025 1584.3 570.319C1579.07 566.593 1569.54 563.192 1556.96 560.564C1544.38 557.937 1529.36 556.209 1513.88 555.608C1512.21 555.543 1510.54 555.479 1508.89 555.457C1502.88 550.119 1490.91 545.108 1474.43 541.023C1457.95 536.938 1437.65 533.953 1415.95 532.424C1394.26 530.894 1372.08 530.886 1352.09 532.399C1332.09 533.912 1315.11 536.883 1303.19 540.957C1292.66 539.226 1280.97 538.075 1269.03 537.597C1257.1 537.119 1245.26 537.327 1234.47 538.203C1223.69 539.08 1214.25 540.602 1206.92 542.645C1199.6 544.689 1194.58 547.198 1192.29 549.97C1179.59 546.7 1163.32 544.44 1146.12 543.556C1128.93 542.673 1111.82 543.219 1097.6 545.106C1089.04 542.183 1077.71 539.779 1064.81 538.15C1051.92 536.521 1037.94 535.727 1024.36 535.853C1010.78 535.978 998.112 537.019 987.697 538.864C977.283 540.709 969.512 543.29 965.21 546.332C954.447 543.012 940.57 540.359 925.081 538.659C909.592 536.959 893.081 536.278 877.335 536.688C869.191 532.332 855.993 528.529 839.602 525.813C823.21 523.098 804.451 521.607 785.967 521.552C770.073 517.105 748.669 514.089 726.1 513.115C703.53 512.141 681.486 513.282 664.442 516.307C648.797 514.577 632.098 513.887 616.189 514.313C600.28 514.739 585.781 516.264 574.293 518.72C566.992 514.964 555.898 511.629 542.205 509.075C528.512 506.52 512.739 504.843 496.583 504.224L495.979 504.201C488.083 497.855 471.804 492.073 449.895 487.834C427.986 483.595 401.792 481.158 375.744 480.936C349.695 480.714 325.392 482.721 306.944 486.616C288.497 490.511 277.038 496.057 274.505 502.314C272.98 502.255 271.426 502.194 269.873 502.134C254.597 501.537 239.468 501.839 225.759 503.013C212.049 504.187 200.158 506.199 191.085 508.882C182.012 511.564 176.022 514.837 173.618 518.427C171.213 522.017 172.465 525.818 177.268 529.511C182.07 533.204 190.284 536.682 201.218 539.652C212.152 542.621 225.488 544.997 240.105 546.578C254.722 548.159 270.193 548.9 285.22 548.738C300.246 548.577 314.389 547.517 326.459 545.649L766.749 562.699C783.389 564.75 801.473 565.607 818.678 565.158C825.911 569.037 837.177 572.49 851.202 575.124C865.226 577.759 881.451 579.471 898.041 580.067C914.631 580.663 930.925 580.119 945.081 578.496C959.237 576.873 970.69 574.237 978.146 570.885L1096.12 575.453C1108.72 578.102 1123.82 579.846 1139.38 580.448C1154.94 581.05 1170.21 580.484 1183.16 578.823L1484.24 590.482C1501.41 592.725 1520.46 593.463 1537.87 592.559L1599.42 594.942C1612.57 598.709 1629.83 601.472 1648.56 602.805C1648.38 603.282 1648.22 603.759 1648.19 604.248C1647.95 607.702 1651.7 611.239 1659 614.459C1666.31 617.68 1676.88 620.456 1689.53 622.474C1702.18 624.492 1716.39 625.673 1730.58 625.882C1744.77 626.091 1758.35 625.32 1769.81 623.657C1781.27 621.993 1790.14 619.504 1795.42 616.469C1800.7 613.434 1802.19 609.974 1799.71 606.48C1797.22 602.985 1790.88 599.596 1781.38 596.694C1771.88 593.791 1759.61 591.492 1745.95 590.054Z" fill="#D9D9D9"/>
<path d="M1330.77 591.666C1334.17 586.807 1332.13 581.424 1325.03 576.542C1317.93 571.659 1306.27 567.617 1292.26 565.181C1278.25 562.746 1262.86 562.088 1249.03 563.332C1235.19 564.576 1223.87 567.636 1217.21 571.93C1213.54 568.205 1206.84 564.803 1198.01 562.176C1189.17 559.549 1178.62 557.82 1167.74 557.22C1166.57 557.155 1165.4 557.09 1164.25 557.069C1160.02 551.73 1151.62 546.719 1140.04 542.635C1128.46 538.55 1114.2 535.565 1098.96 534.035C1083.72 532.506 1068.15 532.497 1054.1 534.011C1040.05 535.524 1028.13 538.495 1019.75 542.568C1012.36 540.838 1004.14 539.687 995.757 539.209C987.374 538.731 979.06 538.938 971.482 539.815C963.905 540.692 957.277 542.213 952.13 544.257C946.984 546.3 943.463 548.809 941.85 551.582C932.93 548.312 921.498 546.051 909.419 545.168C897.341 544.285 885.328 544.831 875.339 546.717C869.325 543.795 861.365 541.391 852.306 539.762C843.247 538.132 833.428 537.339 823.89 537.464C814.352 537.59 805.453 538.631 798.137 540.476C790.821 542.321 785.362 544.901 782.341 547.943C774.78 544.624 765.033 541.97 754.153 540.271C743.273 538.571 731.675 537.889 720.614 538.3C714.893 533.944 705.623 530.14 694.109 527.425C682.595 524.709 669.417 523.219 656.433 523.163C645.269 518.717 630.234 515.7 614.38 514.726C598.527 513.752 583.042 514.893 571.069 517.918C560.08 516.188 548.35 515.498 537.175 515.924C526 516.35 515.815 517.876 507.746 520.332C502.617 516.575 494.824 513.24 485.206 510.686C475.587 508.132 464.508 506.455 453.159 505.836L452.735 505.812C447.188 499.466 435.753 493.685 420.364 489.445C404.974 485.206 386.574 482.769 368.277 482.547C349.979 482.326 332.908 484.332 319.949 488.227C306.991 492.123 298.942 497.668 297.163 503.925C296.092 503.866 295 503.806 293.909 503.746C283.178 503.149 272.551 503.45 262.921 504.624C253.291 505.798 244.939 507.811 238.565 510.493C232.192 513.175 227.984 516.449 226.295 520.039C224.607 523.628 225.486 527.429 228.859 531.123C232.233 534.816 238.002 538.293 245.683 541.263C253.364 544.233 262.731 546.608 272.999 548.189C283.266 549.77 294.134 550.511 304.689 550.35C315.244 550.188 325.178 549.129 333.657 547.261L642.934 564.31C654.623 566.362 667.326 567.218 679.411 566.769C684.492 570.649 692.405 574.101 702.257 576.736C712.108 579.371 723.505 581.083 735.159 581.679C746.812 582.274 758.258 581.73 768.201 580.108C778.145 578.485 786.19 575.848 791.428 572.496L874.295 577.064C883.15 579.714 893.753 581.457 904.682 582.06C915.611 582.662 926.342 582.095 935.435 580.435L1146.93 592.094C1158.99 594.337 1172.37 595.075 1184.6 594.171L1227.83 596.554C1237.07 600.321 1249.2 603.084 1262.35 604.417C1262.22 604.893 1262.12 605.371 1262.09 605.86C1261.93 609.314 1264.56 612.851 1269.69 616.071C1274.82 619.292 1282.25 622.068 1291.13 624.086C1300.01 626.104 1310 627.285 1319.97 627.493C1329.93 627.702 1339.48 626.932 1347.52 625.269C1355.57 623.605 1361.8 621.116 1365.51 618.081C1369.22 615.045 1370.27 611.586 1368.52 608.091C1366.78 604.597 1362.32 601.208 1355.65 598.305C1348.98 595.403 1340.36 593.104 1330.77 591.666Z" fill="#D9D9D9"/>
<path d="M1223.61 614.26C1221.63 605.231 1223.62 595.935 1229.21 588.139C1234.81 580.343 1243.61 574.589 1253.95 571.971C1264.29 569.353 1275.44 570.052 1285.29 573.936C1295.15 577.82 1303.01 584.618 1307.39 593.04C1310.4 586.88 1315.56 581.66 1322.19 578.073C1328.81 574.487 1336.59 572.702 1344.49 572.956C1345.34 572.983 1346.19 573.011 1347.02 573.113C1350.59 564.16 1357.14 556.294 1365.88 550.456C1374.63 544.618 1385.2 541.055 1396.34 540.191C1407.47 539.328 1418.7 541.202 1428.68 545.588C1438.66 549.975 1446.96 556.689 1452.61 564.928C1458.11 562.756 1464.14 561.712 1470.23 561.881C1476.32 562.05 1482.3 563.426 1487.67 565.9C1493.05 568.373 1497.68 571.875 1501.19 576.122C1504.7 580.37 1507 585.246 1507.89 590.357C1514.64 585.642 1523.1 583.02 1531.89 582.918C1540.69 582.817 1549.29 585.242 1556.31 589.799C1560.93 585.346 1566.9 582.049 1573.59 580.259C1580.28 578.469 1587.44 578.253 1594.3 579.632C1601.17 581.012 1607.48 583.937 1612.58 588.095C1617.67 592.254 1621.35 597.492 1623.24 603.252C1629.01 598.283 1636.3 594.76 1644.3 593.066C1652.31 591.372 1660.74 591.57 1668.68 593.64C1673.22 586.61 1680.28 580.99 1688.84 577.572C1697.41 574.154 1707.05 573.109 1716.42 574.585C1724.9 568.056 1736.03 564.531 1747.56 564.726C1759.08 564.922 1770.13 568.823 1778.47 575.639C1786.56 573.905 1795.08 574.104 1803.1 576.215C1811.11 578.325 1818.31 582.265 1823.89 587.598C1827.95 581.56 1833.89 576.592 1841.08 573.23C1848.26 569.867 1856.41 568.238 1864.65 568.517L1864.96 568.527C1869.58 557.947 1878.38 549.083 1889.89 543.433C1901.4 537.783 1914.9 535.694 1928.11 537.52C1941.33 539.345 1953.44 544.973 1962.4 553.452C1971.36 561.93 1976.62 572.739 1977.3 584.049C1978.08 584.074 1978.87 584.1 1979.66 584.125C1987.45 584.368 1995.09 586.191 2001.91 589.441C2008.74 592.691 2014.57 597.272 2018.9 602.801C2023.23 608.33 2025.95 614.644 2026.82 621.214C2027.68 627.784 2026.68 634.417 2023.89 640.556C2021.1 646.695 2016.6 652.161 2010.77 656.495C2004.95 660.829 1997.96 663.904 1990.4 665.463C1982.85 667.021 1974.94 667.016 1967.35 665.45C1959.75 663.883 1952.7 660.8 1946.77 656.46L1722.14 649.179C1713.52 651.399 1704.27 651.377 1695.61 649.115C1691.56 655.378 1685.52 660.539 1678.16 664.016C1670.81 667.493 1662.42 669.146 1653.96 668.789C1645.5 668.432 1637.31 666.079 1630.3 661.996C1623.29 657.913 1617.74 652.262 1614.29 645.684L1554.11 643.733C1547.47 647.357 1539.65 649.162 1531.71 648.904C1523.78 648.647 1516.1 646.34 1509.7 642.294L1356.1 637.315C1347.19 639.83 1337.47 639.515 1328.74 636.428L1297.34 635.41C1290.31 640.969 1281.3 644.397 1271.69 645.166C1271.73 646.026 1271.76 646.885 1271.73 647.755C1271.52 653.9 1269.27 659.852 1265.26 664.94C1261.25 670.028 1255.62 674.049 1249.02 676.55C1242.42 679.051 1235.11 679.932 1227.9 679.094C1220.7 678.256 1213.89 675.732 1208.25 671.807C1202.61 667.882 1198.36 662.712 1195.98 656.881C1193.61 651.049 1193.19 644.788 1194.79 638.804C1196.38 632.82 1199.93 627.351 1205.02 623.014C1210.11 618.677 1216.55 615.645 1223.61 614.26Z" fill="white"/>
<path d="M1223.61 614.26C1221.63 605.231 1223.62 595.935 1229.21 588.139C1234.81 580.343 1243.61 574.589 1253.95 571.971C1264.29 569.353 1275.44 570.052 1285.29 573.936C1295.15 577.82 1303.01 584.618 1307.39 593.04C1310.4 586.88 1315.56 581.66 1322.19 578.073C1328.81 574.487 1336.59 572.702 1344.49 572.956C1345.34 572.983 1346.19 573.011 1347.02 573.113C1350.59 564.16 1357.14 556.294 1365.88 550.456C1374.63 544.618 1385.2 541.055 1396.34 540.191C1407.47 539.328 1418.7 541.202 1428.68 545.588C1438.66 549.975 1446.96 556.689 1452.61 564.928C1458.11 562.756 1464.14 561.712 1470.23 561.881C1476.32 562.05 1482.3 563.426 1487.67 565.9C1493.05 568.373 1497.68 571.875 1501.19 576.122C1504.7 580.37 1507 585.246 1507.89 590.357C1514.64 585.642 1523.1 583.02 1531.89 582.918C1540.69 582.817 1549.29 585.242 1556.31 589.799C1560.93 585.346 1566.9 582.049 1573.59 580.259C1580.28 578.469 1587.44 578.253 1594.3 579.632C1601.17 581.012 1607.48 583.937 1612.58 588.095C1617.67 592.254 1621.35 597.492 1623.24 603.252C1629.01 598.283 1636.3 594.76 1644.3 593.066C1652.31 591.372 1660.74 591.57 1668.68 593.64C1673.22 586.61 1680.28 580.99 1688.84 577.572C1697.41 574.154 1707.05 573.109 1716.42 574.585C1724.9 568.056 1736.03 564.531 1747.56 564.726C1759.08 564.922 1770.13 568.823 1778.47 575.639C1786.56 573.905 1795.08 574.104 1803.1 576.215C1811.11 578.325 1818.31 582.265 1823.89 587.598C1827.95 581.56 1833.89 576.592 1841.08 573.23C1848.26 569.867 1856.41 568.238 1864.65 568.517L1864.96 568.527C1869.58 557.947 1878.38 549.083 1889.89 543.433C1901.4 537.783 1914.9 535.694 1928.11 537.52C1941.33 539.345 1953.44 544.973 1962.4 553.452C1971.36 561.93 1976.62 572.739 1977.3 584.049C1978.08 584.074 1978.87 584.1 1979.66 584.125C1987.45 584.368 1995.09 586.191 2001.91 589.441C2008.74 592.691 2014.57 597.272 2018.9 602.801C2023.23 608.33 2025.95 614.644 2026.82 621.214C2027.68 627.784 2026.68 634.417 2023.89 640.556C2021.1 646.695 2016.6 652.161 2010.77 656.495C2004.95 660.829 1997.96 663.904 1990.4 665.463C1982.85 667.021 1974.94 667.016 1967.35 665.45C1959.75 663.883 1952.7 660.8 1946.77 656.46L1722.14 649.179C1713.52 651.399 1704.27 651.377 1695.61 649.115C1691.56 655.378 1685.52 660.539 1678.16 664.016C1670.81 667.493 1662.42 669.146 1653.96 668.789C1645.5 668.432 1637.31 666.079 1630.3 661.996C1623.29 657.913 1617.74 652.262 1614.29 645.684L1554.11 643.733C1547.47 647.357 1539.65 649.162 1531.71 648.904C1523.78 648.647 1516.1 646.34 1509.7 642.294L1356.1 637.315C1347.19 639.83 1337.47 639.515 1328.74 636.428L1297.34 635.41C1290.31 640.969 1281.3 644.397 1271.69 645.166C1271.73 646.026 1271.76 646.885 1271.73 647.755C1271.52 653.9 1269.27 659.852 1265.26 664.94C1261.25 670.028 1255.62 674.049 1249.02 676.55C1242.42 679.051 1235.11 679.932 1227.9 679.094C1220.7 678.256 1213.89 675.732 1208.25 671.807C1202.61 667.882 1198.36 662.712 1195.98 656.881C1193.61 651.049 1193.19 644.788 1194.79 638.804C1196.38 632.82 1199.93 627.351 1205.02 623.014C1210.11 618.677 1216.55 615.645 1223.61 614.26Z" fill="white"/>
<path d="M856.959 616.697C859.474 608.565 859.302 599.755 856.475 591.939C853.649 584.124 848.366 577.848 841.629 574.304C834.892 570.76 827.17 570.194 819.931 572.714C812.692 575.234 806.439 580.664 802.361 587.974C801.092 581.952 798.233 576.566 794.161 572.53C790.089 568.494 784.997 565.999 779.56 565.375C778.974 565.308 778.388 565.241 777.804 565.244C776.513 556.58 773.043 548.597 767.81 542.249C762.576 535.901 755.801 531.458 748.293 529.45C740.786 527.441 732.864 527.953 725.474 530.924C718.084 533.895 711.54 539.199 706.622 546.203C703.14 543.598 699.144 541.977 694.956 541.471C690.768 540.966 686.504 541.589 682.509 543.291C678.513 544.994 674.896 547.728 671.949 551.273C669.002 554.818 666.807 559.077 665.54 563.705C661.528 558.612 656.075 555.268 650.072 554.219C644.069 553.17 637.87 554.477 632.484 557.927C629.895 553.308 626.232 549.611 621.885 547.229C617.538 544.847 612.67 543.869 607.797 544.399C602.924 544.929 598.229 546.946 594.211 550.237C590.192 553.529 587 557.97 584.973 563.091C581.661 557.869 577.128 553.821 571.866 551.385C566.604 548.948 560.813 548.216 555.12 549.267C552.91 542.273 548.805 536.311 543.384 532.22C537.963 528.129 531.498 526.115 524.902 526.462C519.937 519.504 512.773 515.035 504.863 513.964C496.954 512.892 488.893 515.298 482.315 520.693C477.002 518.21 471.145 517.468 465.392 518.549C459.638 519.629 454.211 522.489 449.71 526.814C447.705 520.79 444.277 515.551 439.794 511.662C435.311 507.773 429.944 505.381 424.27 504.743L424.058 504.718C422.257 494.436 417.369 485.284 410.221 478.81C403.073 472.336 394.104 468.937 384.83 469.189C375.557 469.441 366.549 473.328 359.33 480.192C352.111 487.057 347.124 496.477 345.212 506.86C344.677 506.799 344.131 506.737 343.586 506.674C338.222 506.052 332.767 506.908 327.679 509.17C322.591 511.433 318.018 515.035 314.344 519.676C310.67 524.316 308.003 529.859 306.566 535.838C305.13 541.817 304.966 548.059 306.088 554.038C307.21 560.017 309.586 565.559 313.016 570.199C316.446 574.839 320.83 578.441 325.799 580.703C330.769 582.965 336.179 583.82 341.575 583.197C346.971 582.574 352.195 580.491 356.81 577.122L511.416 594.802C517.033 597.792 523.358 598.776 529.579 597.627C531.54 603.856 535.01 609.284 539.599 613.298C544.187 617.312 549.71 619.752 555.543 620.341C561.376 620.93 567.287 619.646 572.607 616.633C577.926 613.62 582.444 608.998 585.647 603.291L627.072 608.028C631.151 612.101 636.266 614.618 641.729 615.243C647.192 615.868 652.743 614.57 657.636 611.523L763.361 623.614C769.135 626.907 775.825 627.672 782.194 625.767L803.806 628.239C807.898 634.141 813.624 638.29 820.102 640.045C819.96 640.835 819.829 641.626 819.737 642.434C819.098 648.138 819.868 653.884 821.961 659.024C824.053 664.164 827.385 668.493 831.581 671.523C835.776 674.552 840.667 676.162 845.703 676.17C850.739 676.178 855.719 674.584 860.08 671.568C864.442 668.553 868.013 664.235 870.388 659.102C872.764 653.969 873.852 648.226 873.527 642.52C873.202 636.814 871.479 631.373 868.552 626.81C865.624 622.248 861.609 618.745 856.959 616.697Z" fill="white"/>
<path d="M856.959 616.697C859.474 608.565 859.302 599.755 856.475 591.939C853.649 584.124 848.366 577.848 841.629 574.304C834.892 570.76 827.17 570.194 819.931 572.714C812.692 575.234 806.439 580.664 802.361 587.974C801.092 581.952 798.233 576.566 794.161 572.53C790.089 568.494 784.997 565.999 779.56 565.375C778.974 565.308 778.388 565.241 777.804 565.244C776.513 556.58 773.043 548.597 767.81 542.249C762.576 535.901 755.801 531.458 748.293 529.45C740.786 527.441 732.864 527.953 725.474 530.924C718.084 533.895 711.54 539.199 706.622 546.203C703.14 543.598 699.144 541.977 694.956 541.471C690.768 540.966 686.504 541.589 682.509 543.291C678.513 544.994 674.896 547.728 671.949 551.273C669.002 554.818 666.807 559.077 665.54 563.705C661.528 558.612 656.075 555.268 650.072 554.219C644.069 553.17 637.87 554.477 632.484 557.927C629.895 553.308 626.232 549.611 621.885 547.229C617.538 544.847 612.67 543.869 607.797 544.399C602.924 544.929 598.229 546.946 594.211 550.237C590.192 553.529 587 557.97 584.973 563.091C581.661 557.869 577.128 553.821 571.866 551.385C566.604 548.948 560.813 548.216 555.12 549.267C552.91 542.273 548.805 536.311 543.384 532.22C537.963 528.129 531.498 526.115 524.902 526.462C519.937 519.504 512.773 515.035 504.863 513.964C496.954 512.892 488.893 515.298 482.315 520.693C477.002 518.21 471.145 517.468 465.392 518.549C459.638 519.629 454.211 522.489 449.71 526.814C447.705 520.79 444.277 515.551 439.794 511.662C435.311 507.773 429.944 505.381 424.27 504.743L424.058 504.718C422.257 494.436 417.369 485.284 410.221 478.81C403.073 472.336 394.104 468.937 384.83 469.189C375.557 469.441 366.549 473.328 359.33 480.192C352.111 487.057 347.124 496.477 345.212 506.86C344.677 506.799 344.131 506.737 343.586 506.674C338.222 506.052 332.767 506.908 327.679 509.17C322.591 511.433 318.018 515.035 314.344 519.676C310.67 524.316 308.003 529.859 306.566 535.838C305.13 541.817 304.966 548.059 306.088 554.038C307.21 560.017 309.586 565.559 313.016 570.199C316.446 574.839 320.83 578.441 325.799 580.703C330.769 582.965 336.179 583.82 341.575 583.197C346.971 582.574 352.195 580.491 356.81 577.122L511.416 594.802C517.033 597.792 523.358 598.776 529.579 597.627C531.54 603.856 535.01 609.284 539.599 613.298C544.187 617.312 549.71 619.752 555.543 620.341C561.376 620.93 567.287 619.646 572.607 616.633C577.926 613.62 582.444 608.998 585.647 603.291L627.072 608.028C631.151 612.101 636.266 614.618 641.729 615.243C647.192 615.868 652.743 614.57 657.636 611.523L763.361 623.614C769.135 626.907 775.825 627.672 782.194 625.767L803.806 628.239C807.898 634.141 813.624 638.29 820.102 640.045C819.96 640.835 819.829 641.626 819.737 642.434C819.098 648.138 819.868 653.884 821.961 659.024C824.053 664.164 827.385 668.493 831.581 671.523C835.776 674.552 840.667 676.162 845.703 676.17C850.739 676.178 855.719 674.584 860.08 671.568C864.442 668.553 868.013 664.235 870.388 659.102C872.764 653.969 873.852 648.226 873.527 642.52C873.202 636.814 871.479 631.373 868.552 626.81C865.624 622.248 861.609 618.745 856.959 616.697Z" fill="white"/>
<path d="M1316.26 591.019C1317.9 585.866 1316.78 580.455 1313.14 575.814C1309.49 571.172 1303.57 567.624 1296.49 565.842C1289.42 564.061 1281.68 564.17 1274.75 566.15C1267.82 568.13 1262.19 571.842 1258.91 576.581C1257.01 572.951 1253.59 569.806 1249.11 567.564C1244.63 565.322 1239.3 564.089 1233.83 564.028C1233.24 564.021 1232.65 564.015 1232.07 564.051C1229.86 558.796 1225.56 554.09 1219.67 550.494C1213.79 546.899 1206.58 544.566 1198.9 543.776C1191.22 542.985 1183.4 543.77 1176.37 546.036C1169.34 548.302 1163.4 551.953 1159.26 556.554C1155.52 555.158 1151.37 554.397 1147.16 554.334C1142.94 554.271 1138.77 554.908 1134.98 556.192C1131.18 557.476 1127.88 559.373 1125.33 561.729C1122.78 564.085 1121.05 566.835 1120.29 569.758C1115.75 566.863 1109.97 565.128 1103.89 564.839C1097.81 564.549 1091.79 565.72 1086.8 568.162C1083.73 565.474 1079.7 563.416 1075.12 562.208C1070.55 561.001 1065.6 560.687 1060.81 561.302C1056.02 561.917 1051.57 563.436 1047.93 565.7C1044.28 567.963 1041.59 570.885 1040.12 574.156C1036.27 571.14 1031.33 568.918 1025.84 567.73C1020.34 566.543 1014.51 566.435 1008.96 567.42C1006.01 563.248 1001.3 559.822 995.47 557.626C989.643 555.431 983 554.575 976.479 555.179C970.799 551.192 963.199 548.867 955.221 548.676C947.243 548.486 939.484 550.444 933.521 554.153C927.974 552.941 922.071 552.831 916.466 553.837C910.861 554.843 905.771 556.925 901.758 559.852C899.121 556.264 895.153 553.244 890.28 551.117C885.408 548.99 879.816 547.836 874.106 547.78L873.893 547.777C871.003 541.558 865.166 536.216 857.367 532.656C849.569 529.096 840.288 527.537 831.095 528.242C821.902 528.946 813.361 531.872 806.917 536.523C800.473 541.175 796.521 547.267 795.73 553.769C795.191 553.763 794.642 553.757 794.093 553.751C788.694 553.686 783.362 554.536 778.545 556.229C773.728 557.923 769.566 560.411 766.409 563.484C763.252 566.557 761.192 570.126 760.403 573.89C759.613 577.654 760.117 581.504 761.872 585.117C763.627 588.729 766.581 591.998 770.487 594.65C774.393 597.302 779.136 599.258 784.319 600.355C789.501 601.452 794.972 601.658 800.27 600.955C805.568 600.251 810.54 598.66 814.768 596.314L970.372 598.028C976.276 599.535 982.67 599.766 988.732 598.69C991.347 602.406 995.378 605.541 1000.37 607.739C1005.36 609.936 1011.11 611.11 1016.97 611.127C1022.84 611.144 1028.58 610.003 1033.54 607.834C1038.51 605.664 1042.51 602.553 1045.08 598.851L1086.78 599.311C1091.27 601.575 1096.62 602.821 1102.12 602.881C1107.62 602.942 1113 601.814 1117.54 599.65L1223.94 600.822C1230.04 602.506 1236.77 602.581 1242.9 601.031L1264.65 601.271C1269.35 604.66 1275.49 606.873 1282.11 607.569C1282.06 608.064 1282.01 608.558 1282.01 609.061C1281.98 612.608 1283.36 616.098 1285.99 619.137C1288.62 622.175 1292.39 624.642 1296.89 626.257C1301.38 627.873 1306.42 628.573 1311.43 628.279C1316.43 627.986 1321.22 626.71 1325.23 624.596C1329.24 622.482 1332.33 619.613 1334.15 616.314C1335.96 613.015 1336.43 609.417 1335.5 605.925C1334.56 602.434 1332.27 599.188 1328.87 596.554C1325.47 593.92 1321.11 592.003 1316.26 591.019Z" fill="white"/>
<path d="M1316.26 591.019C1317.9 585.866 1316.78 580.455 1313.14 575.814C1309.49 571.172 1303.57 567.624 1296.49 565.842C1289.42 564.061 1281.68 564.17 1274.75 566.15C1267.82 568.13 1262.19 571.842 1258.91 576.581C1257.01 572.951 1253.59 569.806 1249.11 567.564C1244.63 565.322 1239.3 564.089 1233.83 564.028C1233.24 564.021 1232.65 564.015 1232.07 564.051C1229.86 558.796 1225.56 554.09 1219.67 550.494C1213.79 546.899 1206.58 544.566 1198.9 543.776C1191.22 542.985 1183.4 543.77 1176.37 546.036C1169.34 548.302 1163.4 551.953 1159.26 556.554C1155.52 555.158 1151.37 554.397 1147.16 554.334C1142.94 554.271 1138.77 554.908 1134.98 556.192C1131.18 557.476 1127.88 559.373 1125.33 561.729C1122.78 564.085 1121.05 566.835 1120.29 569.758C1115.75 566.863 1109.97 565.128 1103.89 564.839C1097.81 564.549 1091.79 565.72 1086.8 568.162C1083.73 565.474 1079.7 563.416 1075.12 562.208C1070.55 561.001 1065.6 560.687 1060.81 561.302C1056.02 561.917 1051.57 563.436 1047.93 565.7C1044.28 567.963 1041.59 570.885 1040.12 574.156C1036.27 571.14 1031.33 568.918 1025.84 567.73C1020.34 566.543 1014.51 566.435 1008.96 567.42C1006.01 563.248 1001.3 559.822 995.47 557.626C989.643 555.431 983 554.575 976.479 555.179C970.799 551.192 963.199 548.867 955.221 548.676C947.243 548.486 939.484 550.444 933.521 554.153C927.974 552.941 922.071 552.831 916.466 553.837C910.861 554.843 905.771 556.925 901.758 559.852C899.121 556.264 895.153 553.244 890.28 551.117C885.408 548.99 879.816 547.836 874.106 547.78L873.893 547.777C871.003 541.558 865.166 536.216 857.367 532.656C849.569 529.096 840.288 527.537 831.095 528.242C821.902 528.946 813.361 531.872 806.917 536.523C800.473 541.175 796.521 547.267 795.73 553.769C795.191 553.763 794.642 553.757 794.093 553.751C788.694 553.686 783.362 554.536 778.545 556.229C773.728 557.923 769.566 560.411 766.409 563.484C763.252 566.557 761.192 570.126 760.403 573.89C759.613 577.654 760.117 581.504 761.872 585.117C763.627 588.729 766.581 591.998 770.487 594.65C774.393 597.302 779.136 599.258 784.319 600.355C789.501 601.452 794.972 601.658 800.27 600.955C805.568 600.251 810.54 598.66 814.768 596.314L970.372 598.028C976.276 599.535 982.67 599.766 988.732 598.69C991.347 602.406 995.378 605.541 1000.37 607.739C1005.36 609.936 1011.11 611.11 1016.97 611.127C1022.84 611.144 1028.58 610.003 1033.54 607.834C1038.51 605.664 1042.51 602.553 1045.08 598.851L1086.78 599.311C1091.27 601.575 1096.62 602.821 1102.12 602.881C1107.62 602.942 1113 601.814 1117.54 599.65L1223.94 600.822C1230.04 602.506 1236.77 602.581 1242.9 601.031L1264.65 601.271C1269.35 604.66 1275.49 606.873 1282.11 607.569C1282.06 608.064 1282.01 608.558 1282.01 609.061C1281.98 612.608 1283.36 616.098 1285.99 619.137C1288.62 622.175 1292.39 624.642 1296.89 626.257C1301.38 627.873 1306.42 628.573 1311.43 628.279C1316.43 627.986 1321.22 626.71 1325.23 624.596C1329.24 622.482 1332.33 619.613 1334.15 616.314C1335.96 613.015 1336.43 609.417 1335.5 605.925C1334.56 602.434 1332.27 599.188 1328.87 596.554C1325.47 593.92 1321.11 592.003 1316.26 591.019Z" fill="white"/>
<path d="M1615.36 674.15C1608.68 668.074 1603.84 661.167 1601.5 654.346C1599.17 647.526 1599.43 641.113 1602.27 635.958C1602.58 635.402 1602.89 634.847 1603.28 634.352C1593.3 626.064 1585.62 616.484 1581.16 606.755C1576.71 597.027 1575.66 587.562 1578.15 579.492C1580.63 571.422 1586.54 565.089 1595.18 561.248C1603.82 557.408 1614.81 556.224 1626.84 557.837C1625.9 552.706 1626.54 547.953 1628.69 543.961C1630.85 539.969 1634.47 536.849 1639.25 534.852C1644.04 532.855 1649.87 532.037 1656.27 532.463C1662.67 532.889 1669.46 534.548 1676.09 537.306C1672.39 529.659 1671.84 522.235 1674.52 516.244C1677.2 510.253 1682.96 506.048 1690.87 504.315C1686.81 498.275 1684.63 492.085 1684.54 486.401C1684.45 480.718 1686.47 475.754 1690.38 472.036C1694.28 468.319 1699.93 465.987 1706.73 465.288C1713.52 464.589 1721.2 465.55 1728.95 468.067C1724.63 460.911 1722.58 453.688 1723.04 447.178C1723.49 440.668 1726.43 435.121 1731.53 431.136C1724.26 423.451 1719.53 415.005 1718.02 406.988C1716.51 398.97 1718.3 391.786 1723.12 386.446C1717.72 376.44 1716.9 366.623 1720.83 358.987C1724.75 351.351 1733.13 346.469 1744.26 345.332C1744.69 338.741 1747.66 333.129 1752.84 329.117C1758.02 325.104 1765.21 322.847 1773.62 322.594C1767.42 315.888 1763.15 308.619 1761.27 301.569C1759.38 294.52 1759.96 287.957 1762.94 282.588L1763.05 282.387C1751.39 272.323 1743.2 260.564 1739.86 249.097C1736.51 237.63 1738.23 227.161 1744.72 219.459C1751.21 211.757 1762.07 207.296 1775.46 206.83C1788.86 206.364 1803.96 209.922 1818.22 216.902L1819.07 215.36C1821.87 210.269 1826.57 206.325 1832.78 203.861C1839 201.396 1846.55 200.483 1854.8 201.197C1863.06 201.912 1871.76 204.233 1880.2 207.966C1880.2 207.966 1877.31 165.005 1895 125.5C1908.31 95.7814 1934 68.9997 1966 68.9997C2034.34 68.9997 2138 95.0002 2138 95.0002L2138 708.774L1664.77 708.774L1619.88 676.483L1615.36 674.15Z" fill="white"/>
<path d="M349.793 559.725C342.649 554.322 332.001 551.609 319.874 552.101C327.514 547.273 333.469 541.307 336.952 534.994C340.435 528.68 341.28 522.318 339.376 516.75C339.17 516.149 338.965 515.549 338.663 514.994C349.926 508.557 359.144 500.449 365.217 491.638C371.289 482.828 373.959 473.687 372.907 465.309C371.855 456.93 367.126 449.669 359.284 444.393C351.442 439.117 340.82 436.049 328.688 435.556C330.502 430.665 330.701 425.874 329.269 421.57C327.836 417.265 324.813 413.566 320.44 410.771C316.068 407.975 310.47 406.161 304.095 405.474C297.721 404.787 290.748 405.247 283.738 406.816C288.705 399.925 290.534 392.708 288.927 386.343C287.32 379.978 282.372 374.84 274.89 371.766C279.928 366.519 283.152 360.8 284.22 355.217C285.287 349.634 284.159 344.396 280.955 340.059C277.75 335.722 272.589 332.447 266.02 330.584C259.451 328.721 251.719 328.338 243.645 329.476C249.145 323.177 252.41 316.416 253.088 309.926C253.767 303.436 251.832 297.463 247.493 292.655C255.99 286.345 262.105 278.844 264.978 271.208C267.852 263.573 267.337 256.188 263.508 250.094C270.557 241.173 273.064 231.646 270.519 223.446C267.974 215.247 260.569 208.989 249.806 205.944C250.521 199.378 248.566 193.337 244.156 188.489C239.746 183.64 233.054 180.173 224.819 178.47C232.087 172.937 237.551 166.517 240.623 159.899C243.695 153.281 244.258 146.717 242.253 140.913L242.178 140.696C255.407 132.802 265.513 122.637 270.787 111.921C276.061 101.205 276.178 90.5961 271.12 81.888C266.061 73.1799 256.137 66.9075 243.027 64.1319C229.916 61.3564 214.423 62.248 199.169 66.6559L198.599 64.9901C196.73 59.4925 192.781 54.795 187.083 51.2921C181.386 47.7892 174.106 45.5833 165.856 44.8596C157.606 44.1359 148.626 44.9155 139.671 47.133C130.716 49.3506 122.047 52.9413 114.393 57.6034C106.738 62.2656 100.322 67.8631 95.6817 73.9259C95.6817 73.9259 73.998 68.7668 60.5 71.5C42.9725 75.0491 34.9251 83.6856 21.4999 95.4999C3.64145 111.215 -13.9997 145.001 -13.9997 145.001L-13.9997 749.501L2113 749.501L2113 159.899L1990 159.899L1809.5 604.001L349.793 559.725Z" fill="white"/>
</g>
<defs>
<clipPath id="clip0">
<rect width="2048" height="819" fill="white"/>
</clipPath>
</defs>
</svg>
