<svg width="600" height="403" viewBox="0 0 600 403" fill="none" xmlns="http://www.w3.org/2000/svg">
<g clip-path="url(#clip0)">
<path d="M277.432 36.0066C280.442 36.3509 283.18 37.8543 285.127 40.2313C287.073 42.6083 288.092 45.6934 287.99 48.9005C287.888 52.1076 286.673 55.2133 284.574 57.6278C282.476 60.0423 279.641 61.5974 276.607 61.9977C278.271 63.4744 279.448 65.4685 279.981 67.7156C280.515 69.9628 280.381 72.3568 279.595 74.5802C279.511 74.8198 279.426 75.0594 279.32 75.2868C281.81 77.2033 283.693 79.8588 284.744 82.936C285.794 86.0132 285.968 89.3818 285.244 92.6393C284.521 95.8967 282.93 98.9052 280.663 101.305C278.395 103.705 275.547 105.394 272.458 106.172C272.649 107.956 272.437 109.779 271.84 111.496C271.243 113.213 270.278 114.776 269.022 116.058C267.766 117.34 266.254 118.306 264.607 118.878C262.961 119.45 261.227 119.613 259.543 119.353C260.42 121.749 260.487 124.422 259.733 126.936C258.98 129.45 257.45 131.656 255.394 133.196C256.378 134.959 256.879 136.991 256.843 139.076C256.808 141.161 256.237 143.22 255.191 145.036C254.145 146.851 252.663 148.355 250.904 149.387C249.144 150.419 247.172 150.94 245.197 150.897C246.24 153.041 246.694 155.469 246.511 157.92C246.327 160.371 245.512 162.751 244.154 164.801C245.953 166.804 247.087 169.378 247.394 172.16C247.702 174.943 247.168 177.794 245.868 180.312C247.16 183.384 247.271 186.909 246.181 190.17C245.09 193.432 242.879 196.186 239.996 197.874C239.818 200.352 238.994 202.759 237.616 204.828C236.238 206.898 234.36 208.55 232.188 209.601C233.72 211.366 234.748 213.558 235.161 215.941C235.575 218.324 235.358 220.809 234.534 223.128L234.504 223.214C237.41 225.594 239.405 228.993 240.15 232.838C240.895 236.683 240.344 240.738 238.592 244.316C236.839 247.894 233.992 250.776 230.531 252.475C227.071 254.173 223.21 254.584 219.601 253.637C219.524 253.856 219.445 254.079 219.366 254.303C218.594 256.497 217.341 258.487 215.711 260.104C214.082 261.721 212.124 262.918 210.003 263.596C207.881 264.273 205.658 264.411 203.519 263.997C201.38 263.583 199.389 262.629 197.712 261.217C196.036 259.804 194.722 257.973 193.883 255.878C193.044 253.783 170.067 281.943 170.253 279.635C170.439 277.327 154.114 267.284 155.284 265.28C156.453 263.275 180.64 215.846 182.532 214.595L206.108 181.152C206.182 178.472 208.558 165.363 210.042 163.123C208.438 161.342 214.067 159.571 213.634 157.126C213.2 154.681 216.537 152.174 217.405 149.802C218.272 147.429 218.934 143.592 220.841 142.007C222.748 140.422 223.961 138.303 226.334 137.983L234.111 124.999C233.567 122.743 238.258 122.479 239.047 120.244C239.837 118.01 241.247 116.056 243.087 114.643L258.367 71.4092C258.374 68.6188 259.341 65.8828 261.089 63.7078L264.212 54.8703C263.096 52.3109 262.825 49.3998 263.442 46.5854C263.168 46.5119 262.896 46.4342 262.626 46.3386C260.717 45.6582 259.05 44.4209 257.812 42.7663C256.575 41.1116 255.815 39.1056 255.62 36.9744C255.425 34.8433 255.802 32.6718 256.708 30.7051C257.614 28.7384 259.014 27.0547 260.749 25.8439C262.484 24.6332 264.486 23.9436 266.528 23.853C268.57 23.7624 270.571 24.2744 272.306 25.3311C274.041 26.3879 275.44 27.9474 276.346 29.8337C277.252 31.72 277.628 33.8581 277.432 36.0066Z" fill="white"/>
<path d="M277.432 36.0066C280.442 36.3509 283.18 37.8543 285.127 40.2313C287.073 42.6083 288.092 45.6934 287.99 48.9005C287.888 52.1076 286.673 55.2133 284.574 57.6278C282.476 60.0423 279.641 61.5974 276.607 61.9977C278.271 63.4744 279.448 65.4685 279.981 67.7156C280.515 69.9628 280.381 72.3568 279.595 74.5802C279.511 74.8198 279.426 75.0594 279.32 75.2868C281.81 77.2033 283.693 79.8588 284.744 82.936C285.794 86.0132 285.968 89.3818 285.244 92.6393C284.521 95.8967 282.93 98.9052 280.663 101.305C278.395 103.705 275.547 105.394 272.458 106.172C272.649 107.956 272.437 109.779 271.84 111.496C271.243 113.213 270.278 114.776 269.022 116.058C267.766 117.34 266.254 118.306 264.607 118.878C262.961 119.45 261.227 119.613 259.543 119.353C260.42 121.749 260.487 124.422 259.733 126.936C258.98 129.45 257.45 131.656 255.394 133.196C256.378 134.959 256.879 136.991 256.843 139.076C256.808 141.161 256.237 143.22 255.191 145.036C254.145 146.851 252.663 148.355 250.904 149.387C249.144 150.419 247.172 150.94 245.197 150.897C246.24 153.041 246.694 155.469 246.511 157.92C246.327 160.371 245.512 162.751 244.154 164.801C245.953 166.804 247.087 169.378 247.394 172.16C247.702 174.943 247.168 177.794 245.868 180.312C247.16 183.384 247.271 186.909 246.181 190.17C245.09 193.432 242.879 196.186 239.996 197.874C239.818 200.352 238.994 202.759 237.616 204.828C236.238 206.898 234.36 208.55 232.188 209.601C233.72 211.366 234.748 213.558 235.161 215.941C235.575 218.324 235.358 220.809 234.534 223.128L234.504 223.214C237.41 225.594 239.405 228.993 240.15 232.838C240.895 236.683 240.344 240.738 238.592 244.316C236.839 247.894 233.992 250.776 230.531 252.475C227.071 254.173 223.21 254.584 219.601 253.637C219.524 253.856 219.445 254.079 219.366 254.303C218.594 256.497 217.341 258.487 215.711 260.104C214.082 261.721 212.124 262.918 210.003 263.596C207.881 264.273 205.658 264.411 203.519 263.997C201.38 263.583 199.389 262.629 197.712 261.217C196.036 259.804 194.722 257.973 193.883 255.878C193.044 253.783 170.067 281.943 170.253 279.635C170.439 277.327 154.114 267.284 155.284 265.28C156.453 263.275 180.64 215.846 182.532 214.595L206.108 181.152C206.182 178.472 208.558 165.363 210.042 163.123C208.438 161.342 214.067 159.571 213.634 157.126C213.2 154.681 216.537 152.174 217.405 149.802C218.272 147.429 218.934 143.592 220.841 142.007C222.748 140.422 223.961 138.303 226.334 137.983L234.111 124.999C233.567 122.743 238.258 122.479 239.047 120.244C239.837 118.01 241.247 116.056 243.087 114.643L258.367 71.4092C258.374 68.6188 259.341 65.8828 261.089 63.7078L264.212 54.8703C263.096 52.3109 262.825 49.3998 263.442 46.5854C263.168 46.5119 262.896 46.4342 262.626 46.3386C260.717 45.6582 259.05 44.4209 257.812 42.7663C256.575 41.1116 255.815 39.1056 255.62 36.9744C255.425 34.8433 255.802 32.6718 256.708 30.7051C257.614 28.7384 259.014 27.0547 260.749 25.8439C262.484 24.6332 264.486 23.9436 266.528 23.853C268.57 23.7624 270.571 24.2744 272.306 25.3311C274.041 26.3879 275.44 27.9474 276.346 29.8337C277.252 31.72 277.628 33.8581 277.432 36.0066Z" fill="white"/>
<path d="M676.556 34.4039C678.167 30.3981 676.622 26.3752 672.215 23.0991C667.809 19.8229 660.848 17.5219 652.654 16.6329C644.46 15.744 635.605 16.3291 627.77 18.2771C619.934 20.2252 613.665 23.4004 610.153 27.1997C607.79 24.5759 603.718 22.4179 598.475 21.0119C593.233 19.6058 587.068 19.0182 580.799 19.3268C580.123 19.3602 579.447 19.3936 578.784 19.459C575.991 15.6254 570.828 12.3427 563.912 10.0033C556.997 7.66379 548.622 6.36652 539.789 6.26652C530.955 6.16652 522.037 7.26802 514.1 9.43936C506.162 11.6107 499.542 14.76 495.03 18.5109C490.676 17.6966 485.89 17.3902 481.057 17.6164C476.223 17.8425 471.477 18.5949 467.199 19.813C462.922 21.0311 459.233 22.681 456.429 24.6298C453.625 26.5787 451.785 28.7722 451.055 31.034C445.719 29.1366 439.015 28.1992 432.036 28.3745C425.058 28.5499 418.218 29.8276 412.63 31.9994C408.982 30.1639 404.256 28.8687 398.955 28.2516C393.654 27.6344 387.975 27.7183 382.523 28.4943C377.07 29.2704 372.047 30.7095 367.987 32.659C363.927 34.6084 360.982 36.9953 359.465 39.5661C354.903 37.5331 349.136 36.1719 342.787 35.6297C336.438 35.0875 329.749 35.385 323.445 36.49C319.864 33.5237 314.289 31.2376 307.506 29.9539C300.723 28.6701 293.074 28.4534 285.635 29.3343C278.931 26.6852 270.111 25.419 260.965 25.7926C251.819 26.1663 243.032 28.1518 236.388 31.3462C229.974 30.7887 223.209 31.089 216.84 32.214C210.471 33.339 204.746 35.2449 200.297 37.7211C197.098 35.1769 192.402 33.1487 186.716 31.855C181.03 30.5613 174.568 30.0511 168.026 30.3791L167.782 30.3912C164.162 25.8713 157.209 22.2074 148.1 20.0194C138.991 17.8314 128.285 17.2535 117.792 18.3836C107.299 19.5136 97.6645 22.2821 90.5172 26.2209C83.3699 30.1597 79.1489 35.0269 78.5683 39.9992C77.9508 40.0297 77.3216 40.0607 76.6924 40.0918C70.5063 40.393 64.4424 41.3824 59.0103 42.9769C53.5782 44.5714 48.9364 46.7244 45.4748 49.2551C42.0132 51.7859 39.8329 54.6203 39.1171 57.5205C38.4013 60.4207 39.1708 63.3018 41.3611 65.922C43.5513 68.5421 47.0983 70.8248 51.7041 72.5781C56.31 74.3315 61.8401 75.5044 67.83 75.9983C73.8199 76.4922 80.0947 76.2927 86.1274 75.4165C92.16 74.5404 97.7742 73.0132 102.499 70.9632L280.785 62.1606C287.622 62.9179 294.956 62.6772 301.845 61.4695C305.025 64.1125 309.798 66.2231 315.624 67.5626C321.449 68.902 328.095 69.4169 334.809 69.0491C341.524 68.6813 348.04 67.4455 353.62 65.4813C359.2 63.5171 363.622 60.9029 366.387 57.9342L414.157 55.5756C419.413 56.9976 425.606 57.593 431.906 57.282C438.206 56.9709 444.311 55.7683 449.402 53.8355L571.32 47.8159C578.381 48.6952 586.097 48.3143 593.038 46.7437L617.96 45.5132C623.511 47.7732 630.649 49.05 638.275 49.1468C638.235 49.5247 638.207 49.902 638.225 50.2824C638.373 52.9692 640.128 55.521 643.292 57.65C646.455 59.779 650.902 61.4004 656.131 62.3313C661.359 63.2622 667.16 63.4655 672.88 62.9183C678.601 62.3711 684.012 61.0952 688.504 59.2345C692.995 57.3738 696.389 55.0024 698.301 52.3879C700.213 49.7733 700.568 47.0197 699.326 44.4376C698.084 41.8556 695.293 39.5479 691.27 37.775C687.247 36.0021 682.151 34.8344 676.556 34.4039Z" fill="white"/>
<path d="M592.897 381.102C587.6 377.142 581.057 375.649 574.511 376.905C567.965 378.161 561.872 382.08 557.388 387.916C557.114 382.508 555.39 377.447 552.444 373.404C549.499 369.362 545.471 366.529 540.894 365.281C540.401 365.147 539.908 365.012 539.407 364.94C539.47 357.227 537.573 349.825 533.944 343.619C530.315 337.413 525.107 332.665 518.942 329.943C512.778 327.221 505.917 326.64 499.181 328.27C492.445 329.899 486.118 333.67 480.957 339.131C478.324 336.411 475.117 334.482 471.595 333.499C468.073 332.515 464.334 332.506 460.679 333.47C457.023 334.435 453.554 336.346 450.548 339.052C447.543 341.757 445.087 345.181 443.376 349.047C440.624 344.092 436.402 340.474 431.397 338.782C426.393 337.09 420.901 337.424 415.819 339.731C414.223 335.373 411.582 331.679 408.177 329.041C404.773 326.404 400.731 324.921 396.483 324.751C392.234 324.58 387.937 325.729 384.047 328.074C380.158 330.419 376.821 333.873 374.393 338.07C372.258 333.093 368.919 328.98 364.737 326.176C360.556 323.372 355.69 321.984 350.668 322.161C349.717 315.785 347.004 310.061 342.909 305.796C338.814 301.53 333.544 298.939 327.842 298.386C324.526 291.683 318.988 286.863 312.353 284.904C305.717 282.946 298.482 283.996 292.114 287.841C287.895 284.991 282.974 283.586 277.896 283.781C272.818 283.975 267.779 285.763 263.337 288.945C262.432 283.44 260.2 278.433 256.883 274.466C253.565 270.498 249.287 267.719 244.509 266.428L244.33 266.379C244.175 257.192 241.221 248.588 235.967 242.024C230.714 235.459 223.484 231.337 215.5 230.355C207.517 229.372 199.27 231.589 192.154 236.631C185.039 241.673 179.491 249.23 176.451 258.024L175.081 257.652C170.568 256.414 165.776 256.453 161.108 257.763C156.441 259.074 152.034 261.618 148.258 265.183C144.482 268.748 141.447 273.229 139.408 278.25C137.369 283.271 136.386 288.685 136.54 294.037C136.695 299.389 137.983 304.524 140.297 309.009C142.611 313.494 145.883 317.199 149.837 319.813C153.792 322.426 158.314 323.872 163.024 324.029C167.734 324.186 172.494 323.049 176.904 320.714L307.053 356.15C311.465 359.482 316.754 361.159 322.242 360.964C323.082 366.643 325.324 371.82 328.716 375.91C332.107 380.001 336.512 382.841 341.433 384.11C346.353 385.379 351.594 385.027 356.561 383.093C361.529 381.158 366.025 377.719 369.542 373.165L404.414 382.659C407.361 386.734 411.405 389.59 416.004 390.842C420.603 392.094 425.537 391.683 430.143 389.665L453.411 396L602.693 396C601.025 389.853 597.597 384.615 592.897 381.102Z" fill="white"/>
<path d="M592.897 381.102C587.6 377.142 581.057 375.649 574.511 376.905C567.965 378.161 561.872 382.08 557.388 387.916C557.114 382.508 555.39 377.447 552.444 373.404C549.499 369.362 545.471 366.529 540.894 365.281C540.401 365.147 539.908 365.012 539.407 364.94C539.47 357.227 537.573 349.825 533.944 343.619C530.315 337.413 525.107 332.665 518.942 329.943C512.778 327.221 505.917 326.64 499.181 328.27C492.445 329.899 486.118 333.67 480.957 339.131C478.324 336.411 475.117 334.482 471.595 333.499C468.073 332.515 464.334 332.506 460.679 333.47C457.023 334.435 453.554 336.346 450.548 339.052C447.543 341.757 445.087 345.181 443.376 349.047C440.624 344.092 436.402 340.474 431.397 338.782C426.393 337.09 420.901 337.424 415.819 339.731C414.223 335.373 411.582 331.679 408.177 329.041C404.773 326.404 400.731 324.921 396.483 324.751C392.234 324.58 387.937 325.729 384.047 328.074C380.158 330.419 376.821 333.873 374.393 338.07C372.258 333.093 368.919 328.98 364.737 326.176C360.556 323.372 355.69 321.984 350.668 322.161C349.717 315.785 347.004 310.061 342.909 305.796C338.814 301.53 333.544 298.939 327.842 298.386C324.526 291.683 318.988 286.863 312.353 284.904C305.717 282.946 298.482 283.996 292.114 287.841C287.895 284.991 282.974 283.586 277.896 283.781C272.818 283.975 267.779 285.763 263.337 288.945C262.432 283.44 260.2 278.433 256.883 274.466C253.565 270.498 249.287 267.719 244.509 266.428L244.33 266.379C244.175 257.192 241.221 248.588 235.967 242.024C230.714 235.459 223.484 231.337 215.5 230.355C207.517 229.372 199.27 231.589 192.154 236.631C185.039 241.673 179.491 249.23 176.451 258.024L175.081 257.652C170.568 256.414 165.776 256.453 161.108 257.763C156.441 259.074 152.034 261.618 148.258 265.183C144.482 268.748 141.447 273.229 139.408 278.25C137.369 283.271 136.386 288.685 136.54 294.037C136.695 299.389 137.983 304.524 140.297 309.009C142.611 313.494 145.883 317.199 149.837 319.813C153.792 322.426 158.314 323.872 163.024 324.029C167.734 324.186 172.494 323.049 176.904 320.714L307.053 356.15C311.465 359.482 316.754 361.159 322.242 360.964C323.082 366.643 325.324 371.82 328.716 375.91C332.107 380.001 336.512 382.841 341.433 384.11C346.353 385.379 351.594 385.027 356.561 383.093C361.529 381.158 366.025 377.719 369.542 373.165L404.414 382.659C407.361 386.734 411.405 389.59 416.004 390.842C420.603 392.094 425.537 391.683 430.143 389.665L453.411 396L602.693 396C601.025 389.853 597.597 384.615 592.897 381.102Z" fill="white"/>
<path d="M572.284 36.4174C573.985 38.9494 573.28 41.882 570.301 44.6582C567.322 47.4344 562.278 49.8609 556.126 51.4767C549.975 53.0925 543.144 53.7851 536.932 53.4229C530.72 53.0608 525.559 51.6691 522.43 49.5123C520.935 51.5919 518.079 53.5649 514.242 55.1694C510.405 56.7739 505.767 57.9343 500.943 58.4966C500.424 58.5572 499.904 58.6177 499.39 58.6548C497.708 61.6122 494.153 64.4862 489.148 66.9331C484.144 69.3801 477.902 71.2966 471.169 72.4535C464.436 73.6104 457.496 73.9588 451.18 73.457C444.863 72.9552 439.437 71.6244 435.55 69.6238C432.322 70.7154 428.704 71.5141 424.986 71.9557C421.269 72.3973 417.556 72.4694 414.147 72.1663C410.737 71.8632 407.726 71.1933 405.356 70.2104C402.985 69.2276 401.322 67.9593 400.498 66.5074C396.647 68.4585 391.638 69.9238 386.289 70.6643C380.941 71.4048 375.567 71.377 371.045 70.5852C368.475 72.2861 365.019 73.7514 361.044 74.8254C357.069 75.8995 352.724 76.5422 348.469 76.6852C344.214 76.8283 340.209 76.4664 336.88 75.6379C333.55 74.8095 331.02 73.5455 329.559 71.9801C326.315 73.9281 322.072 75.5668 317.288 76.7189C312.504 77.871 307.362 78.4926 302.418 78.5164C300.033 80.9797 296.046 83.225 291.018 84.9361C285.99 86.6472 280.174 87.7377 274.391 88.0541C269.584 90.686 262.998 92.6362 255.971 93.5088C248.943 94.3813 242 94.1109 236.551 92.7523C231.719 93.9228 226.519 94.5519 221.523 94.5701C216.527 94.5882 211.931 93.9947 208.243 92.8551C206.1 94.9837 202.753 96.9449 198.564 98.5276C194.374 100.11 189.5 101.255 184.467 101.837L184.279 101.859C182.047 105.386 177.17 108.74 170.472 111.355C163.775 113.969 155.668 115.682 147.523 116.205C139.378 116.728 131.695 116.028 125.774 114.225C119.853 112.421 116.057 109.623 115.028 106.305C114.552 106.361 114.068 106.417 113.584 106.473C108.825 107.031 104.079 107.104 99.7432 106.686C95.4077 106.269 91.6098 105.373 88.6686 104.075C85.7274 102.777 83.7288 101.113 82.8406 99.2246C81.9525 97.3359 82.2007 95.2772 83.5644 93.2212C84.9282 91.1653 87.3677 89.1722 90.6779 87.4094C93.9882 85.6465 -8.01499 87.0748 -3.49952 85.9998C-1.23666 85.4612 -7.72227 69.6762 -5.00017 64.9999C-2.2904 60.3448 40.3508 62.3146 42.7002 62.2416C47.4097 62.0953 156.117 55.9086 159.966 56.7237L241.716 57.4538C246.847 56.095 273.524 51.0204 278.926 50.9946C281.044 48.801 288.798 52.2603 293.088 50.6293C297.379 48.9983 304.733 50.2786 309.903 49.7018C315.074 49.1249 322.855 47.6132 327.348 48.2643C331.84 48.9154 336.801 48.7429 339.261 50.4258L369.924 49.6348C373.77 48.0178 377.938 51.5404 382.785 50.976C387.632 50.4115 392.435 50.4788 396.55 51.1689L490.35 40.2456C495.639 38.776 501.575 38.0847 507.059 38.2998L526.234 36.0669C530.206 33.8422 535.506 32.0921 541.317 31.0863C541.242 30.8336 541.177 30.5799 541.146 30.3183C540.942 28.4687 541.982 26.513 544.147 24.6718C546.312 22.8307 549.516 21.1774 553.398 19.8985C557.281 18.6196 561.686 17.766 566.119 17.434C570.551 17.1019 574.833 17.3047 578.482 18.0194C582.131 18.7341 585.001 19.9323 586.769 21.4788C588.537 23.0253 589.133 24.8585 588.488 26.7717C587.844 28.6848 585.985 30.6017 583.122 32.306C580.259 34.0104 576.505 35.4344 572.284 36.4174Z" fill="white"/>
<path d="M572.284 36.4174C573.985 38.9494 573.28 41.882 570.301 44.6582C567.322 47.4344 562.278 49.8609 556.126 51.4767C549.975 53.0925 543.144 53.7851 536.932 53.4229C530.72 53.0608 525.559 51.6691 522.43 49.5123C520.935 51.5919 518.079 53.5649 514.242 55.1694C510.405 56.7739 505.767 57.9343 500.943 58.4966C500.424 58.5572 499.904 58.6177 499.39 58.6548C497.708 61.6122 494.153 64.4862 489.148 66.9331C484.144 69.3801 477.902 71.2966 471.169 72.4535C464.436 73.6104 457.496 73.9588 451.18 73.457C444.863 72.9552 439.437 71.6244 435.55 69.6238C432.322 70.7154 428.704 71.5141 424.986 71.9557C421.269 72.3973 417.556 72.4694 414.147 72.1663C410.737 71.8632 407.726 71.1933 405.356 70.2104C402.985 69.2276 401.322 67.9593 400.498 66.5074C396.647 68.4585 391.638 69.9238 386.289 70.6643C380.941 71.4048 375.567 71.377 371.045 70.5852C368.475 72.2861 365.019 73.7514 361.044 74.8254C357.069 75.8995 352.724 76.5422 348.469 76.6852C344.214 76.8283 340.209 76.4664 336.88 75.6379C333.55 74.8095 331.02 73.5455 329.559 71.9801C326.315 73.9281 322.072 75.5668 317.288 76.7189C312.504 77.871 307.362 78.4926 302.418 78.5164C300.033 80.9797 296.046 83.225 291.018 84.9361C285.99 86.6472 280.174 87.7377 274.391 88.0541C269.584 90.686 262.998 92.6362 255.971 93.5088C248.943 94.3813 242 94.1109 236.551 92.7523C231.719 93.9228 226.519 94.5519 221.523 94.5701C216.527 94.5882 211.931 93.9947 208.243 92.8551C206.1 94.9837 202.753 96.9449 198.564 98.5276C194.374 100.11 189.5 101.255 184.467 101.837L184.279 101.859C182.047 105.386 177.17 108.74 170.472 111.355C163.775 113.969 155.668 115.682 147.523 116.205C139.378 116.728 131.695 116.028 125.774 114.225C119.853 112.421 116.057 109.623 115.028 106.305C114.552 106.361 114.068 106.417 113.584 106.473C108.825 107.031 104.079 107.104 99.7432 106.686C95.4077 106.269 91.6098 105.373 88.6686 104.075C85.7274 102.777 83.7288 101.113 82.8406 99.2246C81.9525 97.3359 82.2007 95.2772 83.5644 93.2212C84.9282 91.1653 87.3677 89.1722 90.6779 87.4094C93.9882 85.6465 -8.01499 87.0748 -3.49952 85.9998C-1.23666 85.4612 -7.72227 69.6762 -5.00017 64.9999C-2.2904 60.3448 40.3508 62.3146 42.7002 62.2416C47.4097 62.0953 156.117 55.9086 159.966 56.7237L241.716 57.4538C246.847 56.095 273.524 51.0204 278.926 50.9946C281.044 48.801 288.798 52.2603 293.088 50.6293C297.379 48.9983 304.733 50.2786 309.903 49.7018C315.074 49.1249 322.855 47.6132 327.348 48.2643C331.84 48.9154 336.801 48.7429 339.261 50.4258L369.924 49.6348C373.77 48.0178 377.938 51.5404 382.785 50.976C387.632 50.4115 392.435 50.4788 396.55 51.1689L490.35 40.2456C495.639 38.776 501.575 38.0847 507.059 38.2998L526.234 36.0669C530.206 33.8422 535.506 32.0921 541.317 31.0863C541.242 30.8336 541.177 30.5799 541.146 30.3183C540.942 28.4687 541.982 26.513 544.147 24.6718C546.312 22.8307 549.516 21.1774 553.398 19.8985C557.281 18.6196 561.686 17.766 566.119 17.434C570.551 17.1019 574.833 17.3047 578.482 18.0194C582.131 18.7341 585.001 19.9323 586.769 21.4788C588.537 23.0253 589.133 24.8585 588.488 26.7717C587.844 28.6848 585.985 30.6017 583.122 32.306C580.259 34.0104 576.505 35.4344 572.284 36.4174Z" fill="white"/>
<path d="M-6.5 85H263L197.5 310L486.5 388.5H-6.5V85Z" fill="white"/>
</g>
<defs>
<clipPath id="clip0">
<rect width="697" height="403" fill="white" transform="translate(-45)"/>
</clipPath>
</defs>
</svg>
