<svg width="2048" height="892" viewBox="0 0 2048 892" fill="none" xmlns="http://www.w3.org/2000/svg">
<g clip-path="url(#clip0)">
<path d="M97.9099 449.315C92.8999 438.43 91.4399 426.104 93.8099 414.678C96.1899 403.252 102.24 393.522 110.82 387.335C119.39 381.149 129.88 378.938 140.31 381.122C150.74 383.306 160.37 389.732 167.38 399.181C167.97 390.545 170.86 382.502 175.68 376.121C180.49 369.739 187.01 365.32 194.35 363.448C195.15 363.247 195.94 363.046 196.74 362.943C196.85 350.614 200.08 338.835 206.04 329.014C212.01 319.193 220.46 311.745 230.39 307.56C240.31 303.376 251.3 302.632 262.02 305.417C272.74 308.202 282.75 314.399 290.85 323.267C295.13 318.99 300.31 315.993 305.97 314.516C311.62 313.039 317.6 313.124 323.41 314.764C329.23 316.404 334.72 319.553 339.45 323.958C344.18 328.363 348.02 333.901 350.65 340.126C355.18 332.281 362.03 326.611 370.07 324.041C378.11 321.472 386.88 322.154 394.94 325.977C397.61 319.055 401.93 313.222 407.44 309.098C412.96 304.974 419.45 302.713 426.25 302.555C433.04 302.397 439.88 304.348 446.03 308.201C452.19 312.053 457.43 317.664 461.2 324.436C464.74 316.54 470.19 310.057 476.95 305.688C483.71 301.319 491.52 299.231 499.54 299.649C501.23 289.484 505.72 280.408 512.38 273.701C519.04 266.994 527.53 262.994 536.66 262.264C542.14 251.639 551.12 244.085 561.78 241.134C572.44 238.182 583.98 240.055 594.05 246.372C600.87 241.93 608.77 239.816 616.88 240.264C624.99 240.712 633 243.705 640.01 248.911C641.61 240.135 645.31 232.194 650.72 225.942C656.13 219.69 663.04 215.363 670.71 213.428L671 213.356C671.49 198.676 676.45 185.005 685.02 174.655C693.59 164.304 705.26 157.911 718.04 156.555C730.83 155.199 743.95 158.965 755.19 167.214C766.42 175.464 775.09 187.691 779.71 201.828C780.43 201.644 781.17 201.457 781.91 201.269C789.16 199.413 796.81 199.603 804.24 201.824C811.66 204.044 818.64 208.229 824.58 214.028C830.52 219.827 835.25 227.071 838.37 235.15C841.49 243.229 842.92 251.909 842.53 260.459C842.14 269.009 839.94 277.18 836.12 284.287C832.3 291.393 826.97 297.226 820.58 301.297C814.19 305.368 806.93 307.558 799.39 307.682C791.86 307.806 784.28 305.86 777.3 302.01L568.34 355.145C561.2 360.352 552.7 362.889 543.93 362.431C542.44 371.484 538.71 379.698 533.18 386.144C527.65 392.59 520.54 397.011 512.64 398.907C504.74 400.803 496.37 400.099 488.48 396.874C480.6 393.649 473.5 388.032 468 380.657L412.02 394.894C407.2 401.328 400.66 405.783 393.27 407.66C385.89 409.538 378.01 408.749 370.71 405.398L227.81 441.734C220.51 447.393 211.47 449.693 202.36 448.207L173.15 455.634C168.66 464.624 161.59 471.468 153.03 475.11C153.38 476.186 153.71 477.266 153.99 478.376C155.97 486.218 156.02 494.378 154.13 501.936C152.25 509.494 148.5 516.148 143.32 521.148C138.14 526.148 131.73 529.295 124.82 530.233C117.9 531.171 110.76 529.864 104.18 526.459C97.6099 523.054 91.8799 517.686 87.6299 510.961C83.3699 504.236 80.7799 496.421 80.1199 488.4C79.4699 480.378 80.7898 472.468 83.9398 465.562C87.0798 458.656 91.9199 453.028 97.9099 449.315Z" fill="white"/>
<path d="M97.9099 449.315C92.8999 438.43 91.4399 426.104 93.8099 414.678C96.1899 403.252 102.24 393.522 110.82 387.335C119.39 381.149 129.88 378.938 140.31 381.122C150.74 383.306 160.37 389.732 167.38 399.181C167.97 390.545 170.86 382.502 175.68 376.121C180.49 369.739 187.01 365.32 194.35 363.448C195.15 363.247 195.94 363.046 196.74 362.943C196.85 350.614 200.08 338.835 206.04 329.014C212.01 319.193 220.46 311.745 230.39 307.56C240.31 303.376 251.3 302.632 262.02 305.417C272.74 308.202 282.75 314.399 290.85 323.267C295.13 318.99 300.31 315.993 305.97 314.516C311.62 313.039 317.6 313.124 323.41 314.764C329.23 316.404 334.72 319.553 339.45 323.958C344.18 328.363 348.02 333.901 350.65 340.126C355.18 332.281 362.03 326.611 370.07 324.041C378.11 321.472 386.88 322.154 394.94 325.977C397.61 319.055 401.93 313.222 407.44 309.098C412.96 304.974 419.45 302.713 426.25 302.555C433.04 302.397 439.88 304.348 446.03 308.201C452.19 312.053 457.43 317.664 461.2 324.436C464.74 316.54 470.19 310.057 476.95 305.688C483.71 301.319 491.52 299.231 499.54 299.649C501.23 289.484 505.72 280.408 512.38 273.701C519.04 266.994 527.53 262.994 536.66 262.264C542.14 251.639 551.12 244.085 561.78 241.134C572.44 238.182 583.98 240.055 594.05 246.372C600.87 241.93 608.77 239.816 616.88 240.264C624.99 240.712 633 243.705 640.01 248.911C641.61 240.135 645.31 232.194 650.72 225.942C656.13 219.69 663.04 215.363 670.71 213.428L671 213.356C671.49 198.676 676.45 185.005 685.02 174.655C693.59 164.304 705.26 157.911 718.04 156.555C730.83 155.199 743.95 158.965 755.19 167.214C766.42 175.464 775.09 187.691 779.71 201.828C780.43 201.644 781.17 201.457 781.91 201.269C789.16 199.413 796.81 199.603 804.24 201.824C811.66 204.044 818.64 208.229 824.58 214.028C830.52 219.827 835.25 227.071 838.37 235.15C841.49 243.229 842.92 251.909 842.53 260.459C842.14 269.009 839.94 277.18 836.12 284.287C832.3 291.393 826.97 297.226 820.58 301.297C814.19 305.368 806.93 307.558 799.39 307.682C791.86 307.806 784.28 305.86 777.3 302.01L568.34 355.145C561.2 360.352 552.7 362.889 543.93 362.431C542.44 371.484 538.71 379.698 533.18 386.144C527.65 392.59 520.54 397.011 512.64 398.907C504.74 400.803 496.37 400.099 488.48 396.874C480.6 393.649 473.5 388.032 468 380.657L412.02 394.894C407.2 401.328 400.66 405.783 393.27 407.66C385.89 409.538 378.01 408.749 370.71 405.398L227.81 441.734C220.51 447.393 211.47 449.693 202.36 448.207L173.15 455.634C168.66 464.624 161.59 471.468 153.03 475.11C153.38 476.186 153.71 477.266 153.99 478.376C155.97 486.218 156.02 494.378 154.13 501.936C152.25 509.494 148.5 516.148 143.32 521.148C138.14 526.148 131.73 529.295 124.82 530.233C117.9 531.171 110.76 529.864 104.18 526.459C97.6099 523.054 91.8799 517.686 87.6299 510.961C83.3699 504.236 80.7799 496.421 80.1199 488.4C79.4699 480.378 80.7898 472.468 83.9398 465.562C87.0798 458.656 91.9199 453.028 97.9099 449.315Z" fill="white"/>
<path d="M1263.86 337.619C1267.27 342.479 1265.23 347.861 1258.13 352.743C1251.03 357.626 1239.37 361.669 1225.35 364.104C1211.34 366.539 1195.96 367.197 1182.12 365.953C1168.29 364.709 1156.96 361.649 1150.3 357.355C1146.63 361.08 1139.94 364.482 1131.1 367.109C1122.27 369.736 1111.71 371.465 1100.84 372.066C1099.67 372.13 1098.49 372.195 1097.34 372.216C1093.11 377.555 1084.71 382.566 1073.13 386.651C1061.55 390.735 1047.29 393.721 1032.05 395.25C1016.81 396.779 1001.24 396.788 987.19 395.275C973.15 393.761 961.22 390.791 952.84 386.717C945.45 388.447 937.23 389.598 928.85 390.076C920.47 390.554 912.15 390.347 904.58 389.47C897 388.593 890.37 387.072 885.22 385.028C880.08 382.985 876.56 380.476 874.94 377.704C866.02 380.973 854.59 383.234 842.51 384.117C830.43 385.001 818.42 384.454 808.43 382.568C802.42 385.491 794.46 387.894 785.4 389.524C776.34 391.153 766.52 391.947 756.98 391.821C747.45 391.695 738.55 390.654 731.23 388.809C723.92 386.964 718.46 384.384 715.43 381.342C707.87 384.662 698.13 387.315 687.25 389.015C676.37 390.714 664.77 391.396 653.71 390.985C647.99 395.341 638.72 399.145 627.2 401.86C615.69 404.576 602.51 406.066 589.53 406.122C578.36 410.568 563.33 413.585 547.47 414.559C531.62 415.533 516.14 414.392 504.16 411.367C493.17 413.097 481.44 413.787 470.27 413.361C459.09 412.935 448.91 411.41 440.84 408.954C435.71 412.71 427.92 416.045 418.3 418.599C408.68 421.153 397.6 422.83 386.25 423.449L385.83 423.473C380.28 429.819 368.85 435.6 353.46 439.84C338.07 444.079 319.67 446.516 301.37 446.738C283.07 446.96 266 444.953 253.04 441.058C240.09 437.162 232.04 431.617 230.26 425.36C229.19 425.419 228.09 425.479 227 425.539C216.27 426.136 205.65 425.835 196.02 424.661C186.38 423.487 178.03 421.474 171.66 418.792C165.29 416.11 161.08 412.836 159.39 409.247C157.7 405.657 158.58 401.856 161.95 398.163C165.33 394.469 171.1 390.992 178.78 388.022C186.46 385.052 195.82 382.677 206.09 381.096C216.36 379.515 227.23 378.774 237.78 378.935C248.34 379.097 258.27 380.156 266.75 382.024L576.03 364.975C587.72 362.923 600.42 362.067 612.5 362.516C617.59 358.636 625.5 355.184 635.35 352.549C645.2 349.914 656.6 348.202 668.25 347.607C679.91 347.011 691.35 347.555 701.3 349.178C711.24 350.8 719.28 353.437 724.52 356.789L807.39 352.221C816.24 349.571 826.85 347.828 837.78 347.225C848.7 346.623 859.44 347.19 868.53 348.85L1080.02 337.191C1092.08 334.948 1105.46 334.21 1117.7 335.114L1160.93 332.731C1170.16 328.964 1182.29 326.201 1195.44 324.868C1195.32 324.392 1195.21 323.914 1195.18 323.426C1195.02 319.971 1197.65 316.434 1202.78 313.214C1207.91 309.993 1215.34 307.217 1224.22 305.199C1233.11 303.181 1243.1 302.001 1253.06 301.792C1263.02 301.583 1272.57 302.353 1280.62 304.017C1288.66 305.68 1294.89 308.169 1298.61 311.205C1302.32 314.24 1303.36 317.7 1301.62 321.194C1299.87 324.688 1295.42 328.077 1288.74 330.98C1282.07 333.882 1273.45 336.182 1263.86 337.619Z" fill="#D9D9D9"/>
<path d="M1156.7 315.025C1154.72 324.054 1156.72 333.35 1162.31 341.146C1167.9 348.942 1176.7 354.696 1187.04 357.314C1197.38 359.933 1208.54 359.233 1218.39 355.349C1228.24 351.465 1236.11 344.667 1240.49 336.245C1243.5 342.405 1248.66 347.625 1255.28 351.212C1261.91 354.799 1269.68 356.583 1277.58 356.329C1278.44 356.302 1279.29 356.274 1280.12 356.172C1283.69 365.125 1290.23 372.991 1298.98 378.829C1307.72 384.667 1318.3 388.231 1329.43 389.094C1340.57 389.957 1351.8 388.084 1361.77 383.697C1371.75 379.31 1380.06 372.596 1385.7 364.358C1391.2 366.529 1397.24 367.573 1403.33 367.404C1409.42 367.235 1415.39 365.859 1420.77 363.385C1426.15 360.912 1430.78 357.41 1434.29 353.163C1437.8 348.915 1440.09 344.04 1440.98 338.928C1447.73 343.644 1456.2 346.266 1464.99 346.367C1473.78 346.468 1482.39 344.043 1489.41 339.486C1494.03 343.939 1500 347.236 1506.69 349.026C1513.38 350.816 1520.54 351.032 1527.4 349.653C1534.26 348.273 1540.58 345.348 1545.67 341.19C1550.77 337.031 1554.45 331.793 1556.33 326.033C1562.11 331.003 1569.39 334.525 1577.4 336.219C1585.41 337.913 1593.84 337.715 1601.77 335.645C1606.32 342.675 1613.37 348.295 1621.94 351.713C1630.5 355.131 1640.15 356.176 1649.51 354.7C1658 361.23 1669.13 364.754 1680.65 364.559C1692.18 364.363 1703.23 360.462 1711.57 353.647C1719.66 355.38 1728.18 355.181 1736.2 353.07C1744.21 350.96 1751.4 347.02 1756.98 341.687C1761.05 347.725 1766.99 352.693 1774.17 356.056C1781.35 359.418 1789.5 361.047 1797.75 360.769L1798.05 360.759C1802.67 371.338 1811.48 380.202 1822.99 385.852C1834.49 391.502 1848 393.591 1861.21 391.765C1874.42 389.94 1886.53 384.312 1895.5 375.833C1904.46 367.355 1909.72 356.547 1910.39 345.237C1911.17 345.211 1911.96 345.186 1912.76 345.16C1920.55 344.917 1928.18 343.094 1935.01 339.844C1941.84 336.595 1947.66 332.013 1952 326.484C1956.33 320.955 1959.04 314.641 1959.91 308.071C1960.78 301.502 1959.78 294.869 1956.98 288.729C1954.19 282.59 1949.69 277.124 1943.87 272.79C1938.04 268.456 1931.06 265.381 1923.5 263.823C1915.94 262.264 1908.04 262.269 1900.44 263.835C1892.85 265.402 1885.79 268.485 1879.86 272.826L1655.24 280.106C1646.61 277.886 1637.37 277.908 1628.7 280.17C1624.66 273.907 1618.62 268.746 1611.26 265.269C1603.9 261.792 1595.52 260.139 1587.06 260.496C1578.6 260.853 1570.4 263.206 1563.39 267.289C1556.38 271.372 1550.84 277.023 1547.39 283.602L1487.2 285.552C1480.56 281.928 1472.75 280.124 1464.81 280.381C1456.87 280.638 1449.19 282.945 1442.8 286.992L1289.19 291.97C1280.28 289.455 1270.56 289.77 1261.83 292.857L1230.43 293.875C1223.41 288.316 1214.39 284.888 1204.78 284.119C1204.83 283.259 1204.86 282.4 1204.83 281.53C1204.61 275.385 1202.37 269.433 1198.36 264.345C1194.34 259.258 1188.72 255.236 1182.12 252.735C1175.52 250.234 1168.2 249.353 1161 250.191C1153.79 251.029 1146.99 253.553 1141.35 257.478C1135.71 261.403 1131.46 266.573 1129.08 272.405C1126.7 278.236 1126.29 284.497 1127.88 290.481C1129.48 296.465 1133.02 301.934 1138.12 306.271C1143.21 310.608 1149.65 313.64 1156.7 315.025Z" fill="white"/>
<path d="M1156.7 315.025C1154.72 324.054 1156.72 333.35 1162.31 341.146C1167.9 348.942 1176.7 354.696 1187.04 357.314C1197.38 359.933 1208.54 359.233 1218.39 355.349C1228.24 351.465 1236.11 344.667 1240.49 336.245C1243.5 342.405 1248.66 347.625 1255.28 351.212C1261.91 354.799 1269.68 356.583 1277.58 356.329C1278.44 356.302 1279.29 356.274 1280.12 356.172C1283.69 365.125 1290.23 372.991 1298.98 378.829C1307.72 384.667 1318.3 388.231 1329.43 389.094C1340.57 389.957 1351.8 388.084 1361.77 383.697C1371.75 379.31 1380.06 372.596 1385.7 364.358C1391.2 366.529 1397.24 367.573 1403.33 367.404C1409.42 367.235 1415.39 365.859 1420.77 363.385C1426.15 360.912 1430.78 357.41 1434.29 353.163C1437.8 348.915 1440.09 344.04 1440.98 338.928C1447.73 343.644 1456.2 346.266 1464.99 346.367C1473.78 346.468 1482.39 344.043 1489.41 339.486C1494.03 343.939 1500 347.236 1506.69 349.026C1513.38 350.816 1520.54 351.032 1527.4 349.653C1534.26 348.273 1540.58 345.348 1545.67 341.19C1550.77 337.031 1554.45 331.793 1556.33 326.033C1562.11 331.003 1569.39 334.525 1577.4 336.219C1585.41 337.913 1593.84 337.715 1601.77 335.645C1606.32 342.675 1613.37 348.295 1621.94 351.713C1630.5 355.131 1640.15 356.176 1649.51 354.7C1658 361.23 1669.13 364.754 1680.65 364.559C1692.18 364.363 1703.23 360.462 1711.57 353.647C1719.66 355.38 1728.18 355.181 1736.2 353.07C1744.21 350.96 1751.4 347.02 1756.98 341.687C1761.05 347.725 1766.99 352.693 1774.17 356.056C1781.35 359.418 1789.5 361.047 1797.75 360.769L1798.05 360.759C1802.67 371.338 1811.48 380.202 1822.99 385.852C1834.49 391.502 1848 393.591 1861.21 391.765C1874.42 389.94 1886.53 384.312 1895.5 375.833C1904.46 367.355 1909.72 356.547 1910.39 345.237C1911.17 345.211 1911.96 345.186 1912.76 345.16C1920.55 344.917 1928.18 343.094 1935.01 339.844C1941.84 336.595 1947.66 332.013 1952 326.484C1956.33 320.955 1959.04 314.641 1959.91 308.071C1960.78 301.502 1959.78 294.869 1956.98 288.729C1954.19 282.59 1949.69 277.124 1943.87 272.79C1938.04 268.456 1931.06 265.381 1923.5 263.823C1915.94 262.264 1908.04 262.269 1900.44 263.835C1892.85 265.402 1885.79 268.485 1879.86 272.826L1655.24 280.106C1646.61 277.886 1637.37 277.908 1628.7 280.17C1624.66 273.907 1618.62 268.746 1611.26 265.269C1603.9 261.792 1595.52 260.139 1587.06 260.496C1578.6 260.853 1570.4 263.206 1563.39 267.289C1556.38 271.372 1550.84 277.023 1547.39 283.602L1487.2 285.552C1480.56 281.928 1472.75 280.124 1464.81 280.381C1456.87 280.638 1449.19 282.945 1442.8 286.992L1289.19 291.97C1280.28 289.455 1270.56 289.77 1261.83 292.857L1230.43 293.875C1223.41 288.316 1214.39 284.888 1204.78 284.119C1204.83 283.259 1204.86 282.4 1204.83 281.53C1204.61 275.385 1202.37 269.433 1198.36 264.345C1194.34 259.258 1188.72 255.236 1182.12 252.735C1175.52 250.234 1168.2 249.353 1161 250.191C1153.79 251.029 1146.99 253.553 1141.35 257.478C1135.71 261.403 1131.46 266.573 1129.08 272.405C1126.7 278.236 1126.29 284.497 1127.88 290.481C1129.48 296.465 1133.02 301.934 1138.12 306.271C1143.21 310.608 1149.65 313.64 1156.7 315.025Z" fill="white"/>
<path d="M790.05 312.587C792.57 320.719 792.4 329.529 789.57 337.345C786.74 345.16 781.46 351.436 774.72 354.98C767.99 358.525 760.26 359.09 753.03 356.57C745.79 354.05 739.53 348.62 735.45 341.31C734.19 347.332 731.33 352.718 727.25 356.754C723.18 360.79 718.09 363.286 712.65 363.909C712.07 363.976 711.48 364.043 710.9 364.04C709.61 372.704 706.14 380.688 700.9 387.035C695.67 393.383 688.89 397.826 681.39 399.835C673.88 401.843 665.96 401.331 658.57 398.36C651.18 395.389 644.63 390.085 639.72 383.081C636.23 385.686 632.24 387.307 628.05 387.813C623.86 388.319 619.6 387.695 615.6 385.993C611.61 384.29 607.99 381.557 605.04 378.011C602.1 374.466 599.9 370.208 598.63 365.579C594.62 370.672 589.17 374.016 583.17 375.065C577.16 376.114 570.96 374.807 565.58 371.357C562.99 375.976 559.33 379.673 554.98 382.055C550.63 384.437 545.76 385.415 540.89 384.885C536.02 384.356 531.32 382.338 527.3 379.047C523.29 375.756 520.09 371.314 518.07 366.193C514.75 371.415 510.22 375.463 504.96 377.9C499.7 380.336 493.91 381.069 488.21 380.018C486 387.011 481.9 392.973 476.48 397.064C471.06 401.155 464.59 403.169 458 402.822C453.03 409.78 445.87 414.249 437.96 415.32C430.05 416.392 421.99 413.986 415.41 408.592C410.1 411.074 404.24 411.816 398.49 410.736C392.73 409.655 387.3 406.795 382.8 402.47C380.8 408.495 377.37 413.733 372.89 417.622C368.41 421.511 363.04 423.904 357.36 424.541L357.15 424.566C355.35 434.848 350.46 444 343.31 450.474C336.17 456.948 327.2 460.347 317.92 460.095C308.65 459.843 299.64 455.956 292.42 449.092C285.2 442.227 280.22 432.807 278.31 422.424C277.77 422.485 277.23 422.548 276.68 422.61C271.32 423.232 265.86 422.376 260.77 420.114C255.68 417.852 251.11 414.249 247.44 409.609C243.76 404.968 241.1 399.425 239.66 393.446C238.22 387.467 238.06 381.225 239.18 375.246C240.3 369.267 242.68 363.725 246.11 359.085C249.54 354.445 253.92 350.843 258.89 348.581C263.86 346.319 269.27 345.464 274.67 346.087C280.06 346.71 285.29 348.794 289.9 352.162L444.51 334.482C450.13 331.492 456.45 330.508 462.67 331.657C464.63 325.428 468.1 320 472.69 315.986C477.28 311.972 482.8 309.532 488.64 308.943C494.47 308.354 500.38 309.638 505.7 312.651C511.02 315.664 515.54 320.286 518.74 325.993L560.17 321.256C564.25 317.184 569.36 314.666 574.82 314.041C580.29 313.417 585.84 314.714 590.73 317.761L696.45 305.671C702.23 302.377 708.92 301.612 715.29 303.517L736.9 301.046C740.99 295.143 746.72 290.994 753.2 289.239C753.05 288.449 752.92 287.658 752.83 286.85C752.19 281.146 752.96 275.4 755.05 270.26C757.15 265.12 760.48 260.791 764.67 257.762C768.87 254.732 773.76 253.122 778.8 253.114C783.83 253.106 788.81 254.7 793.17 257.716C797.54 260.732 801.11 265.05 803.48 270.182C805.86 275.315 806.95 281.058 806.62 286.764C806.3 292.47 804.57 297.911 801.65 302.474C798.72 307.037 794.7 310.539 790.05 312.587Z" fill="white"/>
<path d="M790.05 312.587C792.57 320.719 792.4 329.529 789.57 337.345C786.74 345.16 781.46 351.436 774.72 354.98C767.99 358.525 760.26 359.09 753.03 356.57C745.79 354.05 739.53 348.62 735.45 341.31C734.19 347.332 731.33 352.718 727.25 356.754C723.18 360.79 718.09 363.286 712.65 363.909C712.07 363.976 711.48 364.043 710.9 364.04C709.61 372.704 706.14 380.688 700.9 387.035C695.67 393.383 688.89 397.826 681.39 399.835C673.88 401.843 665.96 401.331 658.57 398.36C651.18 395.389 644.63 390.085 639.72 383.081C636.23 385.686 632.24 387.307 628.05 387.813C623.86 388.319 619.6 387.695 615.6 385.993C611.61 384.29 607.99 381.557 605.04 378.011C602.1 374.466 599.9 370.208 598.63 365.579C594.62 370.672 589.17 374.016 583.17 375.065C577.16 376.114 570.96 374.807 565.58 371.357C562.99 375.976 559.33 379.673 554.98 382.055C550.63 384.437 545.76 385.415 540.89 384.885C536.02 384.356 531.32 382.338 527.3 379.047C523.29 375.756 520.09 371.314 518.07 366.193C514.75 371.415 510.22 375.463 504.96 377.9C499.7 380.336 493.91 381.069 488.21 380.018C486 387.011 481.9 392.973 476.48 397.064C471.06 401.155 464.59 403.169 458 402.822C453.03 409.78 445.87 414.249 437.96 415.32C430.05 416.392 421.99 413.986 415.41 408.592C410.1 411.074 404.24 411.816 398.49 410.736C392.73 409.655 387.3 406.795 382.8 402.47C380.8 408.495 377.37 413.733 372.89 417.622C368.41 421.511 363.04 423.904 357.36 424.541L357.15 424.566C355.35 434.848 350.46 444 343.31 450.474C336.17 456.948 327.2 460.347 317.92 460.095C308.65 459.843 299.64 455.956 292.42 449.092C285.2 442.227 280.22 432.807 278.31 422.424C277.77 422.485 277.23 422.548 276.68 422.61C271.32 423.232 265.86 422.376 260.77 420.114C255.68 417.852 251.11 414.249 247.44 409.609C243.76 404.968 241.1 399.425 239.66 393.446C238.22 387.467 238.06 381.225 239.18 375.246C240.3 369.267 242.68 363.725 246.11 359.085C249.54 354.445 253.92 350.843 258.89 348.581C263.86 346.319 269.27 345.464 274.67 346.087C280.06 346.71 285.29 348.794 289.9 352.162L444.51 334.482C450.13 331.492 456.45 330.508 462.67 331.657C464.63 325.428 468.1 320 472.69 315.986C477.28 311.972 482.8 309.532 488.64 308.943C494.47 308.354 500.38 309.638 505.7 312.651C511.02 315.664 515.54 320.286 518.74 325.993L560.17 321.256C564.25 317.184 569.36 314.666 574.82 314.041C580.29 313.417 585.84 314.714 590.73 317.761L696.45 305.671C702.23 302.377 708.92 301.612 715.29 303.517L736.9 301.046C740.99 295.143 746.72 290.994 753.2 289.239C753.05 288.449 752.92 287.658 752.83 286.85C752.19 281.146 752.96 275.4 755.05 270.26C757.15 265.12 760.48 260.791 764.67 257.762C768.87 254.732 773.76 253.122 778.8 253.114C783.83 253.106 788.81 254.7 793.17 257.716C797.54 260.732 801.11 265.05 803.48 270.182C805.86 275.315 806.95 281.058 806.62 286.764C806.3 292.47 804.57 297.911 801.65 302.474C798.72 307.037 794.7 310.539 790.05 312.587Z" fill="white"/>
<path d="M1249.36 338.266C1250.99 343.419 1249.88 348.83 1246.23 353.471C1242.59 358.112 1236.66 361.661 1229.59 363.442C1222.51 365.223 1214.77 365.114 1207.84 363.134C1200.92 361.155 1195.28 357.443 1192.01 352.703C1190.1 356.333 1186.68 359.478 1182.2 361.72C1177.72 363.962 1172.39 365.195 1166.92 365.257C1166.33 365.263 1165.74 365.27 1165.16 365.233C1162.95 370.488 1158.65 375.194 1152.77 378.79C1146.89 382.385 1139.68 384.718 1132 385.509C1124.32 386.299 1116.5 385.515 1109.47 383.249C1102.44 380.983 1096.5 377.331 1092.35 372.73C1088.61 374.127 1084.47 374.887 1080.25 374.95C1076.03 375.013 1071.86 374.377 1068.07 373.092C1064.28 371.808 1060.97 369.912 1058.42 367.555C1055.87 365.199 1054.15 362.449 1053.38 359.526C1048.85 362.422 1043.07 364.156 1036.99 364.446C1030.91 364.736 1024.88 363.564 1019.9 361.122C1016.83 363.811 1012.79 365.868 1008.22 367.076C1003.64 368.284 998.7 368.597 993.91 367.982C989.12 367.368 984.67 365.848 981.02 363.585C977.38 361.321 974.68 358.399 973.21 355.128C969.36 358.145 964.42 360.367 958.93 361.554C953.44 362.742 947.6 362.849 942.05 361.865C939.11 366.037 934.39 369.462 928.56 371.658C922.74 373.854 916.09 374.71 909.57 374.105C903.89 378.093 896.29 380.418 888.31 380.608C880.34 380.799 872.58 378.84 866.62 375.131C861.07 376.344 855.17 376.453 849.56 375.447C843.95 374.442 838.86 372.36 834.85 369.432C832.22 373.02 828.25 376.04 823.37 378.167C818.5 380.295 812.91 381.448 807.2 381.505L806.99 381.507C804.1 387.727 798.26 393.068 790.46 396.628C782.66 400.188 773.38 401.748 764.19 401.043C755 400.338 746.46 397.413 740.01 392.761C733.57 388.11 729.62 382.018 728.82 375.516L727.19 375.534C721.79 375.599 716.46 374.749 711.64 373.055C706.82 371.361 702.66 368.874 699.5 365.8C696.35 362.727 694.29 359.159 693.5 355.395C692.71 351.63 693.21 347.78 694.97 344.168C696.72 340.555 699.68 337.286 703.58 334.634C707.49 331.983 712.23 330.026 717.41 328.929C722.6 327.832 728.07 327.626 733.36 328.33L858.5 220.5H2086V563L1796.5 654L1610.5 323.359H1268.59C1267.66 326.851 1265.36 330.096 1261.96 332.73C1258.57 335.364 1254.2 337.282 1249.36 338.266Z" fill="white"/>
<path d="M1548.05 184.738C1536.2 189.337 1525.29 196.791 1517.4 205.683C1509.5 214.575 1505.17 224.287 1505.22 232.974C1505.27 241.66 1509.7 248.716 1517.67 252.802C1525.64 256.887 1536.6 257.718 1548.46 255.135C1541.77 261.211 1536.94 268.118 1534.6 274.938C1532.26 281.759 1532.53 288.172 1535.37 293.327C1535.67 293.882 1535.98 294.438 1536.37 294.933C1526.39 303.221 1518.72 312.801 1514.26 322.53C1509.8 332.258 1508.75 341.723 1511.24 349.793C1513.73 357.863 1519.64 364.196 1528.28 368.036C1536.91 371.876 1547.9 373.061 1559.94 371.448C1559 376.579 1559.63 381.332 1561.79 385.324C1563.94 389.316 1567.56 392.436 1572.35 394.433C1577.14 396.43 1582.97 397.248 1589.36 396.822C1595.76 396.396 1602.55 394.737 1609.18 391.979C1605.48 399.625 1604.93 407.05 1607.61 413.041C1610.3 419.032 1616.06 423.237 1623.96 424.97C1619.91 431.01 1617.72 437.2 1617.63 442.883C1617.55 448.567 1619.57 453.531 1623.47 457.248C1627.38 460.966 1633.03 463.298 1639.82 463.997C1646.61 464.696 1654.29 463.735 1662.05 461.218C1657.72 468.373 1655.68 475.597 1656.13 482.107C1656.59 488.616 1659.52 494.164 1664.63 498.149C1657.35 505.834 1652.63 514.28 1651.12 522.297C1649.61 530.315 1651.39 537.499 1656.22 542.839C1650.82 552.845 1650 562.662 1653.92 570.298C1657.85 577.934 1666.22 582.816 1677.35 583.953C1677.78 590.544 1680.75 596.155 1685.93 600.168C1691.12 604.181 1698.31 606.438 1706.71 606.691C1700.51 613.397 1696.24 620.666 1694.36 627.716C1692.48 634.765 1693.06 641.327 1696.04 646.697L1696.15 646.898C1684.49 656.961 1676.29 668.721 1672.95 680.188C1669.61 691.654 1671.33 702.124 1677.82 709.826C1684.31 717.528 1695.16 721.989 1708.56 722.455C1721.95 722.921 1737.06 719.363 1751.32 712.382C1751.6 712.89 1751.88 713.407 1752.17 713.924C1754.96 719.016 1759.66 722.959 1765.88 725.424C1772.1 727.888 1779.65 728.802 1787.9 728.088C1796.15 727.373 1804.86 725.052 1813.3 721.319C1821.73 717.586 1829.65 712.55 1836.38 706.634C1843.11 700.718 1848.47 694.095 1851.99 687.321C1855.51 680.547 1857.1 673.82 1856.62 667.705C1856.14 661.59 1853.61 656.266 1849.24 652.179C1844.86 648.093 1838.78 645.363 1831.49 644.221L1750.69 497.669C1750.69 490.397 1747.71 484.186 1742.13 479.832C1748.62 472.993 1753.1 465.531 1755.06 458.288C1757.03 451.045 1756.41 444.31 1753.26 438.846C1750.11 433.381 1744.57 429.404 1737.26 427.365C1729.95 425.325 1721.16 425.304 1711.89 427.304L1690.24 388.037C1692.62 381.18 1692.36 374.73 1689.51 369.551C1686.65 364.372 1681.33 360.714 1674.27 359.066L1619.01 258.849C1619.28 251.192 1615.79 244.85 1609.16 240.997L1597.87 220.511C1602.53 212.125 1603.91 203.8 1601.79 196.818C1602.87 196.283 1603.95 195.739 1605.02 195.149C1612.58 190.963 1619.26 185.541 1624.3 179.493C1629.33 173.445 1632.53 167.013 1633.53 160.922C1634.52 154.83 1633.28 149.323 1629.94 145.02C1626.6 140.717 1621.29 137.791 1614.61 136.571C1607.93 135.351 1600.16 135.886 1592.15 138.116C1584.15 140.346 1576.24 144.181 1569.32 149.19C1562.4 154.199 1556.74 160.181 1552.98 166.462C1549.22 172.744 1547.51 179.074 1548.05 184.738Z" fill="white"/>
<path d="M1548.05 184.738C1536.2 189.337 1525.29 196.791 1517.4 205.683C1509.5 214.575 1505.17 224.287 1505.22 232.974C1505.27 241.66 1509.7 248.716 1517.67 252.802C1525.64 256.887 1536.6 257.718 1548.46 255.135C1541.77 261.211 1536.94 268.118 1534.6 274.938C1532.26 281.759 1532.53 288.172 1535.37 293.327C1535.67 293.882 1535.98 294.438 1536.37 294.933C1526.39 303.221 1518.72 312.801 1514.26 322.53C1509.8 332.258 1508.75 341.723 1511.24 349.793C1513.73 357.863 1519.64 364.196 1528.28 368.036C1536.91 371.876 1547.9 373.061 1559.94 371.448C1559 376.579 1559.63 381.332 1561.79 385.324C1563.94 389.316 1567.56 392.436 1572.35 394.433C1577.14 396.43 1582.97 397.248 1589.36 396.822C1595.76 396.396 1602.55 394.737 1609.18 391.979C1605.48 399.625 1604.93 407.05 1607.61 413.041C1610.3 419.032 1616.06 423.237 1623.96 424.97C1619.91 431.01 1617.72 437.2 1617.63 442.883C1617.55 448.567 1619.57 453.531 1623.47 457.248C1627.38 460.966 1633.03 463.298 1639.82 463.997C1646.61 464.696 1654.29 463.735 1662.05 461.218C1657.72 468.373 1655.68 475.597 1656.13 482.107C1656.59 488.616 1659.52 494.164 1664.63 498.149C1657.35 505.834 1652.63 514.28 1651.12 522.297C1649.61 530.315 1651.39 537.499 1656.22 542.839C1650.82 552.845 1650 562.662 1653.92 570.298C1657.85 577.934 1666.22 582.816 1677.35 583.953C1677.78 590.544 1680.75 596.155 1685.93 600.168C1691.12 604.181 1698.31 606.438 1706.71 606.691C1700.51 613.397 1696.24 620.666 1694.36 627.716C1692.48 634.765 1693.06 641.327 1696.04 646.697L1696.15 646.898C1684.49 656.961 1676.29 668.721 1672.95 680.188C1669.61 691.654 1671.33 702.124 1677.82 709.826C1684.31 717.528 1695.16 721.989 1708.56 722.455C1721.95 722.921 1737.06 719.363 1751.32 712.382C1751.6 712.89 1751.88 713.407 1752.17 713.924C1754.96 719.016 1759.66 722.959 1765.88 725.424C1772.1 727.888 1779.65 728.802 1787.9 728.088C1796.15 727.373 1804.86 725.052 1813.3 721.319C1821.73 717.586 1829.65 712.55 1836.38 706.634C1843.11 700.718 1848.47 694.095 1851.99 687.321C1855.51 680.547 1857.1 673.82 1856.62 667.705C1856.14 661.59 1853.61 656.266 1849.24 652.179C1844.86 648.093 1838.78 645.363 1831.49 644.221L1750.69 497.669C1750.69 490.397 1747.71 484.186 1742.13 479.832C1748.62 472.993 1753.1 465.531 1755.06 458.288C1757.03 451.045 1756.41 444.31 1753.26 438.846C1750.11 433.381 1744.57 429.404 1737.26 427.365C1729.95 425.325 1721.16 425.304 1711.89 427.304L1690.24 388.037C1692.62 381.18 1692.36 374.73 1689.51 369.551C1686.65 364.372 1681.33 360.714 1674.27 359.066L1619.01 258.849C1619.28 251.192 1615.79 244.85 1609.16 240.997L1597.87 220.511C1602.53 212.125 1603.91 203.8 1601.79 196.818C1602.87 196.283 1603.95 195.739 1605.02 195.149C1612.58 190.963 1619.26 185.541 1624.3 179.493C1629.33 173.445 1632.53 167.013 1633.53 160.922C1634.52 154.83 1633.28 149.323 1629.94 145.02C1626.6 140.717 1621.29 137.791 1614.61 136.571C1607.93 135.351 1600.16 135.886 1592.15 138.116C1584.15 140.346 1576.24 144.181 1569.32 149.19C1562.4 154.199 1556.74 160.181 1552.98 166.462C1549.22 172.744 1547.51 179.074 1548.05 184.738Z" fill="white"/>
<path d="M240.22 279.776C252.68 282.256 264.72 287.71 274.03 295.103C283.34 302.495 289.29 311.311 290.75 319.875C292.2 328.44 289.05 336.156 281.91 341.559C274.76 346.962 264.12 349.675 251.99 349.183C259.63 354.01 265.58 359.976 269.07 366.29C272.55 372.603 273.39 378.966 271.49 384.534C271.28 385.134 271.08 385.734 270.78 386.29C282.04 392.726 291.26 400.834 297.33 409.645C303.4 418.456 306.07 427.597 305.02 435.975C303.97 444.353 299.24 451.614 291.4 456.89C283.56 462.167 272.93 465.235 260.8 465.728C262.62 470.619 262.82 475.409 261.38 479.714C259.95 484.019 256.93 487.718 252.55 490.513C248.18 493.308 242.58 495.123 236.21 495.809C229.84 496.496 222.86 496.037 215.85 494.468C220.82 501.359 222.65 508.575 221.04 514.94C219.43 521.306 214.49 526.444 207 529.517C212.04 534.765 215.27 540.484 216.33 546.067C217.4 551.649 216.27 556.888 213.07 561.225C209.86 565.562 204.7 568.836 198.13 570.699C191.57 572.563 183.83 572.946 175.76 571.807C181.26 578.107 184.52 584.868 185.2 591.358C185.88 597.848 183.95 603.82 179.61 608.628C188.1 614.938 194.22 622.44 197.09 630.075C199.97 637.711 199.45 645.096 195.62 651.19C202.67 660.111 205.18 669.638 202.63 677.837C200.09 686.037 192.68 692.294 181.92 695.339C182.64 701.905 180.68 707.946 176.27 712.795C171.86 717.643 165.17 721.111 156.93 722.814C164.2 728.346 169.67 734.767 172.74 741.385C175.81 748.002 176.37 754.566 174.37 760.37L174.29 760.587C187.52 768.481 197.63 778.646 202.9 789.362C208.17 800.078 208.29 810.687 203.23 819.396C198.18 828.104 188.25 834.376 175.14 837.152C162.03 839.927 146.54 839.036 131.28 834.628C131.1 835.176 130.9 835.735 130.71 836.293C128.84 841.791 124.89 846.489 119.2 849.991C113.5 853.494 106.22 855.7 97.9699 856.424C89.7199 857.148 80.74 856.368 71.79 854.151C62.83 851.933 54.16 848.342 46.51 843.68C38.85 839.018 32.44 833.42 27.8 827.358C23.16 821.295 20.4299 814.944 19.8399 808.839C19.2599 802.733 20.83 797.051 24.43 792.27C28.03 787.489 33.55 783.748 40.52 781.362L94.76 623.042C93.5 615.88 95.36 609.247 100.11 603.994C92.53 598.38 86.83 591.805 83.64 585.012C80.45 578.218 79.9 571.477 82.05 565.551C84.21 559.624 88.9799 554.749 95.8199 551.475C102.67 548.202 111.32 546.661 120.8 547.027L135.34 504.607C131.81 498.265 130.94 491.867 132.86 486.272C134.77 480.678 139.38 476.154 146.06 473.309L183.15 365.044C181.55 357.55 183.9 350.699 189.75 345.758L197.34 323.627C191.3 316.174 188.5 308.212 189.37 300.97C188.22 300.631 187.06 300.281 185.9 299.885C177.73 297.07 170.22 292.884 164.21 287.799C158.2 282.714 153.94 276.931 151.91 271.104C149.87 265.277 150.14 259.638 152.69 254.822C155.24 250.006 159.96 246.205 166.33 243.849C172.69 241.493 180.44 240.674 188.71 241.486C196.98 242.298 205.43 244.707 213.12 248.443C220.8 252.179 227.41 257.092 232.2 262.629C236.99 268.165 239.77 274.104 240.22 279.776Z" fill="white"/>
<path d="M240.22 279.776C252.68 282.256 264.72 287.71 274.03 295.103C283.34 302.495 289.29 311.311 290.75 319.875C292.2 328.44 289.05 336.156 281.91 341.559C274.76 346.962 264.12 349.675 251.99 349.183C259.63 354.01 265.58 359.976 269.07 366.29C272.55 372.603 273.39 378.966 271.49 384.534C271.28 385.134 271.08 385.734 270.78 386.29C282.04 392.726 291.26 400.834 297.33 409.645C303.4 418.456 306.07 427.597 305.02 435.975C303.97 444.353 299.24 451.614 291.4 456.89C283.56 462.167 272.93 465.235 260.8 465.728C262.62 470.619 262.82 475.409 261.38 479.714C259.95 484.019 256.93 487.718 252.55 490.513C248.18 493.308 242.58 495.123 236.21 495.809C229.84 496.496 222.86 496.037 215.85 494.468C220.82 501.359 222.65 508.575 221.04 514.94C219.43 521.306 214.49 526.444 207 529.517C212.04 534.765 215.27 540.484 216.33 546.067C217.4 551.649 216.27 556.888 213.07 561.225C209.86 565.562 204.7 568.836 198.13 570.699C191.57 572.563 183.83 572.946 175.76 571.807C181.26 578.107 184.52 584.868 185.2 591.358C185.88 597.848 183.95 603.82 179.61 608.628C188.1 614.938 194.22 622.44 197.09 630.075C199.97 637.711 199.45 645.096 195.62 651.19C202.67 660.111 205.18 669.638 202.63 677.837C200.09 686.037 192.68 692.294 181.92 695.339C182.64 701.905 180.68 707.946 176.27 712.795C171.86 717.643 165.17 721.111 156.93 722.814C164.2 728.346 169.67 734.767 172.74 741.385C175.81 748.002 176.37 754.566 174.37 760.37L174.29 760.587C187.52 768.481 197.63 778.646 202.9 789.362C208.17 800.078 208.29 810.687 203.23 819.396C198.18 828.104 188.25 834.376 175.14 837.152C162.03 839.927 146.54 839.036 131.28 834.628C131.1 835.176 130.9 835.735 130.71 836.293C128.84 841.791 124.89 846.489 119.2 849.991C113.5 853.494 106.22 855.7 97.9699 856.424C89.7199 857.148 80.74 856.368 71.79 854.151C62.83 851.933 54.16 848.342 46.51 843.68C38.85 839.018 32.44 833.42 27.8 827.358C23.16 821.295 20.4299 814.944 19.8399 808.839C19.2599 802.733 20.83 797.051 24.43 792.27C28.03 787.489 33.55 783.748 40.52 781.362L94.76 623.042C93.5 615.88 95.36 609.247 100.11 603.994C92.53 598.38 86.83 591.805 83.64 585.012C80.45 578.218 79.9 571.477 82.05 565.551C84.21 559.624 88.9799 554.749 95.8199 551.475C102.67 548.202 111.32 546.661 120.8 547.027L135.34 504.607C131.81 498.265 130.94 491.867 132.86 486.272C134.77 480.678 139.38 476.154 146.06 473.309L183.15 365.044C181.55 357.55 183.9 350.699 189.75 345.758L197.34 323.627C191.3 316.174 188.5 308.212 189.37 300.97C188.22 300.631 187.06 300.281 185.9 299.885C177.73 297.07 170.22 292.884 164.21 287.799C158.2 282.714 153.94 276.931 151.91 271.104C149.87 265.277 150.14 259.638 152.69 254.822C155.24 250.006 159.96 246.205 166.33 243.849C172.69 241.493 180.44 240.674 188.71 241.486C196.98 242.298 205.43 244.707 213.12 248.443C220.8 252.179 227.41 257.092 232.2 262.629C236.99 268.165 239.77 274.104 240.22 279.776Z" fill="white"/>
<path d="M251.88 432.237C260.95 423.336 268.03 412.183 271.77 400.897C275.52 389.61 275.67 378.976 272.19 371.015C268.72 363.054 261.86 358.32 252.92 357.712C243.99 357.104 233.59 360.664 223.71 367.717C227.46 359.495 229.18 351.241 228.64 344.051C228.09 336.861 225.32 331.075 220.67 327.459C220.17 327.069 219.67 326.68 219.11 326.38C225.01 314.827 228.29 302.994 228.54 292.296C228.8 281.599 226.03 272.488 220.56 266.054C215.09 259.62 207.16 256.135 197.71 256.014C188.25 255.894 177.69 259.144 167.27 265.376C166.1 260.29 163.65 256.172 160.09 253.355C156.54 250.537 151.98 249.099 146.79 249.154C141.6 249.209 135.92 250.757 130.21 253.673C124.5 256.59 118.92 260.793 113.92 265.944C114.3 257.459 111.88 250.419 107.05 245.973C102.22 241.527 95.2598 239.937 87.3198 241.463C88.6598 234.314 88.2299 227.763 86.0599 222.507C83.8999 217.251 80.0899 213.486 75.0299 211.612C69.9699 209.738 63.8598 209.824 57.3398 211.863C50.8298 213.901 44.1499 217.815 38.0199 223.189C39.1699 214.906 38.1998 207.461 35.2098 201.659C32.2198 195.858 27.3298 191.92 21.0698 190.273C24.7198 180.34 25.7298 170.715 23.9598 162.753C22.1798 154.79 17.6999 148.893 11.1599 145.891C12.1799 134.566 9.05982 125.222 2.43982 119.755C-4.18018 114.288 -13.8101 113.107 -24.4801 116.454C-27.4801 110.568 -32.4201 106.585 -38.7701 104.942C-45.1101 103.3 -52.6101 104.064 -60.4301 107.149L-66.4301 116.454L-66.5902 541L2.43982 784L86.0599 774.5L192.31 501.05C197.07 503.684 203.11 504.278 209.72 502.764C216.34 501.25 223.28 497.689 229.75 492.482C236.22 487.275 241.97 480.63 246.36 473.296C250.74 465.962 253.58 458.232 254.56 450.977C255.53 443.722 254.6 437.231 251.88 432.237Z" fill="white"/>
<path d="M2085 0H777.91C777.91 0 788.69 26.3479 785.84 78.9999C781.71 155.457 752 275 752 275H2085V0Z" fill="white"/>
<path d="M-13.5999 807.543C-25.4899 812.008 -38.5897 813.717 -50.4097 812.347C-62.2197 810.977 -71.9197 806.623 -77.6697 800.112C-83.4197 793.6 -84.8199 785.385 -81.5899 777.027C-78.3699 768.669 -70.7597 760.75 -60.1897 754.774V458.825C-52.9697 460.004 -46.5698 462.322 -41.4898 465.625C-35.1998 469.715 -31.1797 475.154 -29.8797 481.325C-28.5897 487.496 -30.0697 494.154 -34.1597 500.546C-38.2497 506.938 -44.7898 512.809 -53.0398 517.496L-43.0198 561.203C-36.6798 564.731 -32.5698 569.711 -31.2498 575.475C-29.9298 581.239 -31.4597 587.512 -35.6297 593.45L-10.0599 704.998C-4.74985 710.524 -3.1298 717.583 -5.5098 724.869L-0.279823 747.671C8.78018 750.82 15.3603 756.11 18.4303 762.726C19.6003 762.403 20.7602 762.091 21.9502 761.818C30.3802 759.9 38.9702 759.496 46.7602 760.65C54.5402 761.803 61.2102 764.469 66.0202 768.347C70.8202 772.225 73.5601 777.16 73.9401 782.595C74.3101 788.03 72.3002 793.75 68.1402 799.108C63.9702 804.466 57.8102 809.25 50.3602 812.92C42.9102 816.589 34.4502 818.999 25.9502 819.876C17.4602 820.753 9.25022 820.063 2.26022 817.884C-4.72978 815.705 -10.2199 812.123 -13.5999 807.543Z" fill="white"/>
<path d="M1770.34 648.252C1772.86 660.709 1778.35 672.724 1785.77 682.016C1793.19 691.309 1802.03 697.23 1810.6 698.657C1819.16 700.083 1826.87 696.915 1832.25 689.754C1837.63 682.593 1840.32 671.937 1839.79 659.812C1844.64 667.437 1850.62 673.374 1856.95 676.838C1863.27 680.302 1869.63 681.128 1875.2 679.206C1875.8 678.999 1876.4 678.792 1876.95 678.489C1883.42 689.732 1891.56 698.926 1900.39 704.972C1909.21 711.018 1918.36 713.66 1926.74 712.582C1935.11 711.505 1942.36 706.754 1947.61 698.896C1952.87 691.039 1955.9 680.407 1956.36 668.273C1961.25 670.073 1966.05 670.258 1970.35 668.812C1974.65 667.367 1978.34 664.332 1981.12 659.951C1983.9 655.571 1985.7 649.967 1986.36 643.59C1987.03 637.214 1986.55 630.243 1984.96 623.237C1991.87 628.183 1999.09 629.99 2005.45 628.364C2011.81 626.738 2016.93 621.775 2019.98 614.284L2016.05 535.36L1994.86 542.69C1988.5 539.18 1982.1 538.335 1976.52 540.268C1970.93 542.202 1966.42 546.821 1963.59 553.506L1855.44 590.922C1847.94 589.348 1841.1 591.716 1836.17 597.587L1814.07 605.236C1806.59 599.218 1798.62 596.445 1791.38 597.343C1791.04 596.186 1790.69 595.032 1790.29 593.876C1787.45 585.713 1783.24 578.212 1778.14 572.221C1773.03 566.229 1767.24 561.985 1761.41 559.966C1755.57 557.948 1749.93 558.236 1745.13 560.799C1740.32 563.361 1736.53 568.095 1734.19 574.467C1731.86 580.839 1731.06 588.595 1731.9 596.86C1732.74 605.125 1735.17 613.571 1738.93 621.243C1742.69 628.916 1747.62 635.51 1753.17 640.283C1758.72 645.055 1764.67 647.815 1770.34 648.252Z" fill="white"/>
</g>
<defs>
<clipPath id="clip0">
<rect width="2048" height="892" fill="white" transform="matrix(-1 0 0 1 2048 0)"/>
</clipPath>
</defs>
</svg>
