<svg width="2048" height="1328" viewBox="0 0 2048 1328" fill="none" xmlns="http://www.w3.org/2000/svg">
<g clip-path="url(#clip0)">
<path d="M661.13 939.579C656.32 940.129 651.94 942.533 648.83 946.332C645.72 950.132 644.09 955.063 644.25 960.19C644.41 965.316 646.36 970.281 649.71 974.14C653.07 978 657.6 980.485 662.45 981.125C659.79 983.486 657.91 986.673 657.05 990.265C656.2 993.857 656.42 997.684 657.67 1001.24C657.81 1001.62 657.94 1002 658.11 1002.37C654.13 1005.43 651.12 1009.68 649.44 1014.59C647.76 1019.51 647.48 1024.9 648.64 1030.11C649.8 1035.31 652.34 1040.12 655.96 1043.96C659.59 1047.79 664.14 1050.49 669.08 1051.74C668.77 1054.59 669.11 1057.5 670.07 1060.25C671.02 1062.99 672.56 1065.49 674.57 1067.54C676.58 1069.59 679 1071.13 681.63 1072.05C684.26 1072.96 687.03 1073.22 689.72 1072.81C688.32 1076.64 688.22 1080.91 689.42 1084.93C690.62 1088.95 693.07 1092.47 696.36 1094.93C694.78 1097.75 693.98 1101 694.04 1104.33C694.1 1107.67 695.01 1110.96 696.68 1113.86C698.35 1116.76 700.72 1119.16 703.53 1120.81C706.35 1122.46 709.5 1123.3 712.66 1123.23C710.99 1126.66 710.26 1130.54 710.56 1134.46C710.85 1138.37 712.15 1142.18 714.32 1145.45C711.45 1148.66 709.64 1152.77 709.14 1157.22C708.65 1161.67 709.51 1166.22 711.58 1170.25C709.52 1175.16 709.34 1180.79 711.08 1186.01C712.83 1191.22 716.36 1195.62 720.97 1198.32C721.25 1202.28 722.57 1206.13 724.77 1209.44C726.98 1212.74 729.98 1215.38 733.45 1217.07C731 1219.89 729.36 1223.39 728.7 1227.2C728.04 1231.01 728.38 1234.98 729.7 1238.69L729.75 1238.83C725.1 1242.63 721.91 1248.06 720.72 1254.21C719.53 1260.36 720.41 1266.84 723.21 1272.56C726.02 1278.28 730.57 1282.88 736.1 1285.6C741.63 1288.31 747.8 1288.97 753.57 1287.46L753.95 1288.52C755.18 1292.03 757.18 1295.21 759.79 1297.79C762.39 1300.38 765.52 1302.29 768.91 1303.37C772.3 1304.46 775.86 1304.68 779.28 1304.02C782.7 1303.35 785.88 1301.83 788.56 1299.57C791.24 1297.31 793.34 1294.39 794.68 1291.04H2066.5V834.5L2033 797L681.63 819L678.56 920.152C675.3 920.007 672.1 920.825 669.32 922.515C666.55 924.204 664.31 926.697 662.87 929.712C661.42 932.727 660.82 936.145 661.13 939.579Z" fill="white"/>
<path d="M-12.8602 774.523C-15.7902 767.233 -12.9801 759.911 -4.96008 753.948C3.05992 747.985 15.7299 743.797 30.6399 742.179C45.5499 740.561 61.6699 741.626 75.9299 745.172C90.1899 748.717 101.6 754.496 108 761.411C112.3 756.636 119.71 752.708 129.25 750.149C138.79 747.59 150.01 746.521 161.42 747.082C162.65 747.143 163.88 747.204 165.09 747.323C170.17 740.346 179.57 734.371 192.15 730.113C204.74 725.855 219.98 723.494 236.06 723.312C252.14 723.13 268.37 725.135 282.82 729.087C297.26 733.039 309.31 738.771 317.52 745.597C325.45 744.115 334.16 743.558 342.96 743.969C351.75 744.381 360.39 745.75 368.18 747.967C375.96 750.184 382.67 753.187 387.78 756.734C392.88 760.281 396.23 764.273 397.56 768.39C407.27 764.937 419.47 763.23 432.17 763.549C444.87 763.869 457.32 766.194 467.49 770.147C474.13 766.806 482.74 764.449 492.38 763.326C502.03 762.202 512.37 762.355 522.29 763.768C532.21 765.18 541.36 767.799 548.75 771.347C556.14 774.895 561.5 779.24 564.26 783.919C572.56 780.218 583.06 777.741 594.61 776.754C606.17 775.767 618.34 776.309 629.81 778.32C636.33 772.921 646.48 768.76 658.82 766.424C671.17 764.087 685.09 763.693 698.63 765.296C710.83 760.475 726.88 758.17 743.53 758.85C760.18 759.53 776.17 763.144 788.26 768.958C799.93 767.943 812.25 768.49 823.84 770.537C835.43 772.585 845.85 776.054 853.95 780.561C859.77 775.93 868.32 772.239 878.67 769.884C889.02 767.529 900.78 766.601 912.68 767.198L913.13 767.22C919.72 758.993 932.37 752.325 948.95 748.343C965.53 744.361 985.01 743.309 1004.11 745.366C1023.21 747.422 1040.74 752.461 1053.75 759.63C1066.76 766.798 1074.44 775.657 1075.5 784.707C1076.62 784.762 1077.77 784.819 1078.91 784.875C1090.17 785.424 1101.21 787.224 1111.09 790.126C1120.98 793.028 1129.43 796.947 1135.73 801.553C1142.03 806.159 1146 811.318 1147.3 816.596C1148.6 821.875 1147.2 827.118 1143.22 831.887C1139.23 836.656 1132.77 840.81 1124.39 844.002C1116.01 847.193 1105.94 849.327 1095.04 850.226C1084.14 851.125 1072.72 850.762 1061.74 849.168C1050.76 847.573 1040.54 844.793 1031.94 841.062L707.46 825.041C695.01 826.42 681.67 825.982 669.13 823.783C663.34 828.594 654.65 832.435 644.05 834.873C633.45 837.311 621.35 838.248 609.13 837.579C596.91 836.909 585.05 834.66 574.89 831.085C564.74 827.51 556.69 822.752 551.66 817.349L464.72 813.056C455.15 815.644 443.88 816.728 432.41 816.162C420.94 815.596 409.83 813.407 400.57 809.889L178.67 798.934C165.82 800.534 151.78 799.84 139.15 796.982L93.7899 794.742C83.6799 798.856 70.6899 801.18 56.8099 801.356C56.8899 802.043 56.9399 802.73 56.8999 803.423C56.6299 808.313 53.4399 812.957 47.6799 816.832C41.9199 820.707 33.8299 823.658 24.3099 825.352C14.7999 827.046 4.23996 827.416 -6.17004 826.42C-16.58 825.424 -26.4302 823.102 -34.6102 819.716C-42.7802 816.329 -48.9601 812.013 -52.4401 807.255C-55.9201 802.496 -56.5602 797.484 -54.3002 792.785C-52.0402 788.085 -46.96 783.885 -39.64 780.659C-32.32 777.432 -23.0402 775.307 -12.8602 774.523Z" fill="white"/>
<path d="M974.25 796.874C972.4 789.637 974.41 782.275 979.9 776.188C985.4 770.101 993.99 765.711 1004.05 763.854C1014.12 761.997 1024.95 762.801 1034.49 766.113C1044.03 769.425 1051.61 775.016 1055.8 781.822C1058.77 776.981 1063.82 772.937 1070.29 770.226C1076.75 767.515 1084.32 766.265 1091.99 766.642C1092.82 766.683 1093.64 766.723 1094.45 766.823C1097.99 759.769 1104.41 753.648 1112.95 749.19C1121.49 744.732 1131.78 742.127 1142.61 741.685C1153.43 741.244 1164.32 742.985 1173.98 746.701C1183.64 750.416 1191.65 755.949 1197.07 762.638C1202.43 761.029 1208.3 760.331 1214.21 760.6C1220.13 760.87 1225.92 762.098 1231.12 764.188C1236.32 766.277 1240.79 769.169 1244.17 772.631C1247.55 776.093 1249.74 780.028 1250.57 784.12C1257.16 780.513 1265.4 778.611 1273.94 778.725C1282.48 778.838 1290.82 780.961 1297.6 784.746C1302.13 781.301 1307.95 778.807 1314.47 777.529C1320.98 776.251 1327.93 776.236 1334.59 777.487C1341.24 778.738 1347.35 781.208 1352.27 784.634C1357.18 788.06 1360.72 792.314 1362.5 796.945C1368.15 793.114 1375.26 790.469 1383.05 789.296C1390.84 788.123 1399.03 788.468 1406.72 790.292C1411.19 784.793 1418.08 780.471 1426.43 777.937C1434.78 775.404 1444.15 774.785 1453.24 776.168C1461.53 771.153 1472.37 768.592 1483.56 769.002C1494.75 769.413 1505.46 772.766 1513.5 778.38C1521.37 777.177 1529.65 777.525 1537.42 779.384C1545.19 781.242 1552.15 784.54 1557.52 788.913C1561.52 784.192 1567.33 780.365 1574.33 777.846C1581.33 775.326 1589.26 774.208 1597.27 774.612L1597.57 774.627C1602.13 766.301 1610.76 759.434 1621.98 755.187C1633.2 750.94 1646.33 749.575 1659.15 751.321C1671.97 753.068 1683.69 757.82 1692.33 764.773C1700.97 771.726 1705.99 780.453 1706.56 789.479C1707.32 789.516 1708.09 789.554 1708.86 789.592C1716.42 789.958 1723.82 791.579 1730.43 794.319C1737.04 797.059 1742.66 800.838 1746.82 805.339C1750.99 809.839 1753.58 814.93 1754.37 820.183C1755.16 825.436 1754.13 830.699 1751.37 835.528C1748.61 840.357 1744.2 844.613 1738.51 847.937C1732.82 851.261 1726.01 853.556 1718.66 854.63C1711.3 855.705 1703.62 855.526 1696.26 854.11C1688.9 852.694 1682.06 850.082 1676.34 846.492L1458.21 835.723C1449.82 837.301 1440.84 837.079 1432.44 835.085C1428.47 839.985 1422.56 843.963 1415.38 846.571C1408.21 849.178 1400.05 850.309 1391.84 849.838C1383.62 849.366 1375.68 847.31 1368.9 843.902C1362.12 840.494 1356.78 835.87 1353.49 830.552L1295.04 827.667C1288.56 830.407 1280.96 831.672 1273.25 831.291C1265.54 830.911 1258.1 828.903 1251.92 825.538L1102.76 818.173C1094.09 819.98 1084.65 819.514 1076.19 816.861L1045.7 815.356C1038.84 819.629 1030.05 822.161 1020.71 822.561C1020.75 823.247 1020.77 823.932 1020.74 824.625C1020.48 829.515 1018.25 834.207 1014.32 838.172C1010.38 842.137 1004.88 845.216 998.449 847.063C992.019 848.909 984.91 849.449 977.92 848.622C970.93 847.795 964.34 845.634 958.89 842.382C953.44 839.13 949.359 834.917 947.089 830.219C944.819 825.52 944.469 820.523 946.069 815.791C947.669 811.059 951.15 806.78 956.13 803.437C961.11 800.095 967.39 797.822 974.25 796.874Z" fill="white"/>
<path d="M1329.25 783.852C1327.4 776.614 1329.41 769.253 1334.9 763.166C1340.4 757.078 1348.99 752.689 1359.05 750.832C1369.12 748.974 1379.94 749.778 1389.48 753.091C1399.03 756.403 1406.61 761.993 1410.8 768.799C1413.77 763.958 1418.82 759.914 1425.29 757.203C1431.75 754.492 1439.32 753.242 1446.99 753.619C1447.82 753.66 1448.64 753.701 1449.45 753.8C1452.99 746.747 1459.41 740.625 1467.95 736.167C1476.49 731.71 1486.78 729.104 1497.61 728.663C1508.43 728.222 1519.32 729.963 1528.98 733.678C1538.64 737.394 1546.65 742.926 1552.07 749.615C1557.43 748.006 1563.3 747.309 1569.21 747.578C1575.13 747.847 1580.92 749.076 1586.12 751.165C1591.32 753.255 1595.79 756.147 1599.17 759.609C1602.55 763.071 1604.74 767.006 1605.57 771.097C1612.16 767.49 1620.4 765.588 1628.94 765.702C1637.48 765.816 1645.82 767.939 1652.6 771.724C1657.13 768.279 1662.95 765.784 1669.47 764.506C1675.98 763.228 1682.93 763.214 1689.59 764.465C1696.24 765.716 1702.35 768.186 1707.27 771.612C1712.18 775.038 1715.72 779.292 1717.5 783.922C1723.15 780.091 1730.26 777.446 1738.05 776.274C1745.84 775.101 1754.03 775.446 1761.72 777.27C1766.19 771.77 1773.08 767.449 1781.43 764.915C1789.78 762.381 1799.15 761.762 1808.24 763.146C1816.53 758.131 1827.37 755.569 1838.56 755.98C1849.75 756.391 1860.46 759.743 1868.5 765.357C1876.37 764.155 1884.65 764.502 1892.42 766.361C1900.19 768.22 1907.15 771.518 1912.52 775.89C1916.52 771.169 1922.33 767.343 1929.33 764.823C1936.33 762.303 1944.26 761.185 1952.27 761.59L1952.57 761.605C1957.13 753.278 1965.76 746.411 1976.98 742.164C1988.2 737.918 2001.33 736.552 2014.15 738.299C2026.97 740.046 2038.69 744.797 2047.33 751.75C2055.97 758.703 2060.99 767.431 2061.56 776.456C2062.32 776.493 2063.09 776.531 2063.86 776.569C2071.42 776.935 2078.82 778.557 2085.43 781.297C2092.04 784.037 2097.66 787.816 2101.82 792.316C2105.99 796.817 2108.58 801.908 2109.37 807.161C2110.16 812.414 2109.13 817.676 2106.37 822.506C2103.61 827.335 2099.2 831.59 2093.51 834.914C2087.82 838.238 2081.01 840.534 2073.66 841.608C2066.3 842.682 2058.62 842.504 2051.26 841.088C2043.9 839.672 2037.06 837.059 2031.34 833.47L1813.21 822.7C1804.82 824.279 1795.84 824.056 1787.44 822.062C1783.47 826.963 1777.56 830.941 1770.38 833.548C1763.21 836.155 1755.05 837.287 1746.84 836.815C1738.62 836.344 1730.68 834.288 1723.9 830.88C1717.12 827.472 1711.78 822.847 1708.49 817.53L1650.04 814.644C1643.56 817.385 1635.96 818.649 1628.25 818.269C1620.54 817.888 1613.1 815.881 1606.92 812.515L1457.76 805.151C1449.09 806.957 1439.65 806.491 1431.19 803.839L1400.7 802.333C1393.83 806.607 1385.05 809.138 1375.71 809.538C1375.75 810.224 1375.77 810.91 1375.74 811.602C1375.48 816.492 1373.25 821.185 1369.32 825.15C1365.38 829.114 1359.88 832.194 1353.45 834.04C1347.02 835.887 1339.91 836.427 1332.92 835.6C1325.93 834.773 1319.34 832.611 1313.89 829.36C1308.44 826.108 1304.35 821.895 1302.09 817.196C1299.82 812.498 1299.47 807.5 1301.07 802.768C1302.67 798.036 1306.15 793.757 1311.13 790.415C1316.11 787.073 1322.39 784.799 1329.25 783.852Z" fill="white"/>
<path d="M171.95 777.205C168.4 785.03 167.63 793.884 169.79 802.084C171.95 810.284 176.89 817.26 183.67 821.687C190.45 826.113 198.6 827.682 206.57 826.095C214.54 824.508 221.78 819.876 226.91 813.079C227.6 819.279 230.06 825.049 233.96 829.623C237.85 834.196 243 837.358 248.71 838.688C249.33 838.831 249.94 838.975 250.57 839.047C251 847.9 253.83 856.352 258.71 863.393C263.59 870.435 270.32 875.767 278.08 878.754C285.85 881.741 294.33 882.256 302.51 880.236C310.69 878.217 318.22 873.749 324.2 867.367C327.63 870.43 331.7 872.573 336.1 873.623C340.5 874.673 345.1 874.602 349.53 873.413C353.97 872.225 358.11 869.954 361.62 866.783C365.14 863.611 367.93 859.628 369.78 855.153C373.5 860.778 378.93 864.837 385.21 866.668C391.48 868.498 398.21 867.992 404.31 865.233C406.56 870.198 410.06 874.379 414.42 877.33C418.79 880.282 423.86 881.893 429.1 881.995C434.34 882.096 439.55 880.683 444.18 877.905C448.81 875.127 452.68 871.089 455.39 866.219C458.35 871.883 462.73 876.528 468.06 879.653C473.4 882.779 479.47 884.264 485.64 883.949C487.24 891.245 490.96 897.754 496.28 902.558C501.61 907.362 508.26 910.219 515.31 910.727C519.84 918.346 526.98 923.754 535.27 925.854C543.57 927.954 552.4 926.589 559.98 922.034C565.36 925.212 571.51 926.715 577.74 926.379C583.98 926.042 590.06 923.879 595.31 920.128C596.79 926.427 599.87 932.122 604.22 936.602C608.57 941.082 614.02 944.176 619.98 945.551L620.2 945.603C621.01 956.143 625.22 965.951 632.12 973.368C639.02 980.784 648.19 985.354 658.08 986.305C667.97 987.255 677.97 984.528 686.39 978.583C694.8 972.639 701.13 963.844 704.28 953.684C704.84 953.815 705.42 953.948 705.99 954.082C711.62 955.401 717.52 955.251 723.17 953.643C728.83 952.035 734.08 949.017 738.49 944.843C742.9 940.668 746.33 935.458 748.5 929.651C750.68 923.844 751.53 917.609 750.98 911.47C750.43 905.331 748.5 899.468 745.35 894.372C742.21 889.276 833.04 874.412 828 871.5C822.96 868.588 825.31 814.231 819.5 814.155C813.69 814.08 681.27 803.804 676 806.582L573.39 815.206C567.73 811.481 537.24 798.155 530.5 798.5C529.09 792.002 517.45 803.119 513 798.5C508.55 793.881 498.64 798.347 492.5 797C486.36 795.653 477.48 791.67 471.5 794C465.52 796.33 459.41 796.195 455.39 801.5H417.5C413.6 796.889 406.41 807.917 400.67 806.582C394.92 805.247 388.88 805.828 383.35 808.247L272.23 782.414C266.44 778.364 259.41 776.729 252.43 777.812L229.72 772.531C226 766.084 220.36 761.183 213.66 758.583C213.9 757.809 214.12 757.033 214.31 756.236C215.6 750.601 215.41 744.742 213.74 739.318C212.06 733.895 208.99 729.123 204.85 725.542C200.72 721.961 195.69 719.713 190.34 719.052C184.98 718.391 179.52 719.342 174.55 721.799C169.59 724.257 165.33 728.122 162.25 732.958C159.16 737.795 157.39 743.411 157.12 749.172C156.85 754.933 158.09 760.611 160.71 765.564C163.33 770.517 167.22 774.549 171.95 777.205Z" fill="white"/>
<path d="M171.95 777.205C168.4 785.03 167.63 793.884 169.79 802.084C171.95 810.284 176.89 817.26 183.67 821.687C190.45 826.113 198.6 827.682 206.57 826.095C214.54 824.508 221.78 819.876 226.91 813.079C227.6 819.279 230.06 825.049 233.96 829.623C237.85 834.196 243 837.358 248.71 838.688C249.33 838.831 249.94 838.975 250.57 839.047C251 847.9 253.83 856.352 258.71 863.393C263.59 870.435 270.32 875.767 278.08 878.754C285.85 881.741 294.33 882.256 302.51 880.236C310.69 878.217 318.22 873.749 324.2 867.367C327.63 870.43 331.7 872.573 336.1 873.623C340.5 874.673 345.1 874.602 349.53 873.413C353.97 872.225 358.11 869.954 361.62 866.783C365.14 863.611 367.93 859.628 369.78 855.153C373.5 860.778 378.93 864.837 385.21 866.668C391.48 868.498 398.21 867.992 404.31 865.233C406.56 870.198 410.06 874.379 414.42 877.33C418.79 880.282 423.86 881.893 429.1 881.995C434.34 882.096 439.55 880.683 444.18 877.905C448.81 875.127 452.68 871.089 455.39 866.219C458.35 871.883 462.73 876.528 468.06 879.653C473.4 882.779 479.47 884.264 485.64 883.949C487.24 891.245 490.96 897.754 496.28 902.558C501.61 907.362 508.26 910.219 515.31 910.727C519.84 918.346 526.98 923.754 535.27 925.854C543.57 927.954 552.4 926.589 559.98 922.034C565.36 925.212 571.51 926.715 577.74 926.379C583.98 926.042 590.06 923.879 595.31 920.128C596.79 926.427 599.87 932.122 604.22 936.602C608.57 941.082 614.02 944.176 619.98 945.551L620.2 945.603C621.01 956.143 625.22 965.951 632.12 973.368C639.02 980.784 648.19 985.354 658.08 986.305C667.97 987.255 677.97 984.528 686.39 978.583C694.8 972.639 701.13 963.844 704.28 953.684C704.84 953.815 705.42 953.948 705.99 954.082C711.62 955.401 717.52 955.251 723.17 953.643C728.83 952.035 734.08 949.017 738.49 944.843C742.9 940.668 746.33 935.458 748.5 929.651C750.68 923.844 751.53 917.609 750.98 911.47C750.43 905.331 748.5 899.468 745.35 894.372C742.21 889.276 833.04 874.412 828 871.5C822.96 868.588 825.31 814.231 819.5 814.155C813.69 814.08 681.27 803.804 676 806.582L573.39 815.206C567.73 811.481 537.24 798.155 530.5 798.5C529.09 792.002 517.45 803.119 513 798.5C508.55 793.881 498.64 798.347 492.5 797C486.36 795.653 477.48 791.67 471.5 794C465.52 796.33 459.41 796.195 455.39 801.5H417.5C413.6 796.889 406.41 807.917 400.67 806.582C394.92 805.247 388.88 805.828 383.35 808.247L272.23 782.414C266.44 778.364 259.41 776.729 252.43 777.812L229.72 772.531C226 766.084 220.36 761.183 213.66 758.583C213.9 757.809 214.12 757.033 214.31 756.236C215.6 750.601 215.41 744.742 213.74 739.318C212.06 733.895 208.99 729.123 204.85 725.542C200.72 721.961 195.69 719.713 190.34 719.052C184.98 718.391 179.52 719.342 174.55 721.799C169.59 724.257 165.33 728.122 162.25 732.958C159.16 737.795 157.39 743.411 157.12 749.172C156.85 754.933 158.09 760.611 160.71 765.564C163.33 770.517 167.22 774.549 171.95 777.205Z" fill="white"/>
<path d="M251.949 85.6617C262.439 83.7996 273.329 85.5568 282.529 90.5998C291.739 95.6428 298.619 103.62 301.879 113.017C305.139 122.413 304.539 132.574 300.209 141.57C295.869 150.566 288.099 157.77 278.359 161.813C285.599 164.514 291.789 169.178 296.109 175.187C300.419 181.196 302.659 188.266 302.519 195.459C302.499 196.234 302.489 197.01 302.389 197.77C312.899 200.961 322.199 206.872 329.189 214.796C336.169 222.72 340.529 232.323 341.759 242.457C342.989 252.59 341.019 262.825 336.099 271.939C331.179 281.053 323.519 288.659 314.019 293.849C316.659 298.841 317.999 304.33 317.919 309.876C317.839 315.422 316.349 320.87 313.579 325.781C310.799 330.692 306.799 334.93 301.919 338.154C297.029 341.378 291.389 343.498 285.449 344.343C291.079 350.458 294.309 358.146 294.599 366.152C294.889 374.157 292.229 382.01 287.049 388.427C292.339 392.606 296.299 398.023 298.519 404.102C300.739 410.181 301.139 416.696 299.659 422.954C298.189 429.212 294.899 434.98 290.149 439.645C285.399 444.309 279.359 447.697 272.679 449.447C278.589 454.672 282.849 461.283 284.979 468.565C287.109 475.846 287.049 483.521 284.789 490.757C293.079 494.854 299.779 501.241 303.929 509.018C308.089 516.794 309.499 525.569 307.959 534.106C315.739 541.787 320.079 551.901 320.079 562.395C320.069 572.888 315.739 582.976 307.959 590.609C310.139 597.965 310.069 605.727 307.769 613.038C305.469 620.348 301.009 626.923 294.899 632.036C302.029 635.697 307.939 641.076 311.999 647.595C316.069 654.113 318.129 661.524 317.969 669.03L317.959 669.311C330.389 673.447 340.909 681.409 347.719 691.851C354.539 702.293 357.239 714.573 355.379 726.614C353.509 738.655 347.179 749.719 337.469 757.933C327.759 766.147 315.249 771.007 302.069 771.692L302.029 773.844C301.899 780.942 299.919 787.902 296.269 794.139C292.609 800.377 287.379 805.71 281.019 809.691C274.659 813.671 267.339 816.183 259.699 817.015C252.049 817.847 244.299 816.974 237.079 814.472C229.859 811.969 223.399 807.908 218.229 802.631C213.059 797.353 209.329 791.014 207.359 784.144L-49.5006 794.139V72.048C-49.5006 72.048 -28.7106 73.3557 -15.5006 72.0481C3.08936 70.208 12.3694 62.2613 30.9994 60.7831C55.3394 58.8517 68.5894 68.4514 92.9994 68.7947C114.559 69.0979 126.539 61.9675 147.999 63.9999C162.539 65.3767 180.059 77.2078 184.519 72.048C188.989 66.8882 194.939 62.9865 201.689 60.7831C208.449 58.5797 215.739 58.1621 222.749 59.5778C229.769 60.9934 236.209 64.1858 241.369 68.7947C246.529 73.4036 250.199 79.2457 251.949 85.6617Z" fill="white"/>
</g>
<defs>
<clipPath id="clip0">
<rect width="2048" height="1328" fill="white" transform="matrix(-1 0 0 1 2048 0)"/>
</clipPath>
</defs>
</svg>
