<svg width="11" height="12" viewBox="0 0 11 12" fill="none" xmlns="http://www.w3.org/2000/svg">
<path d="M9.42451 0.75H1.78815C1.26098 0.75 0.833595 1.17738 0.833595 1.70456C0.833595 2.23173 1.26098 2.65911 1.78815 2.65911H7.12005L0.279531 9.5C-0.0931771 9.87271 -0.0931771 10.4771 0.279531 10.8499C0.465865 11.0362 0.710154 11.1295 0.954442 11.1295C1.19873 11.1295 1.44306 11.0362 1.62935 10.8499L8.46999 4.00902V9.34093C8.46999 9.8681 8.89738 10.2955 9.42455 10.2955C9.95172 10.2955 10.3791 9.8681 10.3791 9.34093V1.70456C10.3791 1.17738 9.95168 0.75 9.42451 0.75Z" fill="#0E7BAB"/>
</svg>
