<svg width="966" height="469" viewBox="0 0 966 469" fill="none" xmlns="http://www.w3.org/2000/svg">
<path opacity="0.6" d="M282.908 406.463C284.274 405.243 286.052 404.584 287.886 404.619C289.719 404.654 291.471 405.381 292.789 406.652C294.107 407.923 294.894 409.646 294.99 411.472C295.086 413.298 294.485 415.093 293.309 416.496C292.635 417.168 291.835 417.702 290.955 418.066C290.074 418.431 289.13 418.618 288.177 418.618C287.223 418.618 286.279 418.431 285.399 418.066C284.518 417.702 283.718 417.168 283.045 416.496C281.756 415.15 281.026 413.367 281.001 411.506C280.975 409.646 281.657 407.844 282.908 406.463Z" fill="white"/>
<path opacity="0.6" d="M622.908 24.4592C624.274 23.2391 626.052 22.5801 627.886 22.6151C629.719 22.6501 631.471 23.3765 632.789 24.6479C634.107 25.9193 634.894 27.6415 634.99 29.4679C635.086 31.2943 634.485 33.0892 633.309 34.4916C632.635 35.1643 631.835 35.6981 630.955 36.0622C630.074 36.4264 629.13 36.6138 628.177 36.6138C627.223 36.6138 626.279 36.4264 625.399 36.0622C624.518 35.6981 623.718 35.1643 623.045 34.4916C621.756 33.1455 621.026 31.3632 621.001 29.5023C620.975 27.6414 621.657 25.8398 622.908 24.4592Z" fill="white"/>
<path opacity="0.9" d="M76.5132 406.556C90.5989 392.463 90.5989 369.612 76.5132 355.518C62.4275 341.424 39.5901 341.424 25.5044 355.518C11.4187 369.612 11.4187 392.463 25.5044 406.556C39.5901 420.65 62.4275 420.65 76.5132 406.556Z" fill="#41FFE7"/>
<path opacity="0.4" d="M947 429.004C957.493 429.004 966 420.274 966 409.504C966 398.735 957.493 390.004 947 390.004C936.507 390.004 928 398.735 928 409.504C928 420.274 936.507 429.004 947 429.004Z" fill="#E5E5FF"/>
<path d="M917.371 416.721C915.904 416.716 914.44 416.596 912.992 416.361L913.132 415.472C914.534 415.694 915.951 415.805 917.371 415.803H917.536V416.703L917.371 416.721ZM922.083 416.325L921.936 415.437C923.389 415.193 924.819 414.832 926.214 414.357L926.505 415.21C925.063 415.697 923.584 416.07 922.083 416.325ZM908.56 415.314C907.112 414.839 905.704 414.25 904.35 413.552L904.763 412.753C906.074 413.43 907.438 414 908.84 414.458L908.56 415.314ZM930.69 413.393L930.269 412.599C931.575 411.907 932.824 411.112 934.004 410.221L934.55 410.94C933.33 411.859 932.039 412.679 930.69 413.393ZM900.493 411.145C899.27 410.238 898.12 409.235 897.056 408.146L897.7 407.516C898.729 408.572 899.842 409.543 901.028 410.419L900.493 411.145ZM937.948 407.89L937.293 407.271C938.308 406.202 939.235 405.052 940.065 403.833L940.809 404.34C939.947 405.599 938.986 406.786 937.933 407.89H937.948ZM894.148 404.631C893.274 403.384 892.502 402.068 891.84 400.696L892.649 400.304C893.29 401.633 894.037 402.908 894.881 404.117L894.148 404.631ZM943.067 400.376L942.254 399.995C942.878 398.657 943.396 397.273 943.804 395.855L944.666 396.103C944.242 397.568 943.702 398.997 943.052 400.376H943.067ZM890.176 396.441C889.74 394.981 889.422 393.488 889.223 391.977L890.114 391.862C890.306 393.324 890.615 394.767 891.038 396.179L890.176 396.441ZM945.536 391.628L944.645 391.524C944.77 390.462 944.832 389.393 944.832 388.323C944.832 387.92 944.832 387.51 944.807 387.107L945.705 387.067C945.705 387.485 945.73 387.906 945.73 388.323C945.734 389.427 945.673 390.531 945.547 391.628H945.536ZM889.899 387.449L889 387.42C889.05 385.897 889.223 384.38 889.518 382.884L890.398 383.057C890.116 384.505 889.948 385.974 889.899 387.449ZM944.264 382.722C943.962 381.279 943.545 379.862 943.016 378.485L943.854 378.161C944.401 379.584 944.834 381.048 945.148 382.539L944.264 382.722ZM891.585 378.805L890.74 378.492C891.271 377.064 891.914 375.679 892.663 374.352L893.447 374.795C892.719 376.079 892.096 377.42 891.585 378.805ZM942.934 378.277C942.394 376.908 941.746 375.585 940.996 374.32L941.769 373.863C942.545 375.174 943.215 376.545 943.771 377.964L942.934 378.277ZM895.924 371.133L895.223 370.572C896.174 369.383 897.22 368.272 898.35 367.252L898.951 367.917C897.858 368.907 896.846 369.983 895.924 371.133ZM938.451 370.694C937.505 369.568 936.47 368.519 935.356 367.558L935.942 366.878C937.094 367.869 938.164 368.951 939.141 370.115L938.451 370.694ZM902.456 365.234L901.97 364.475C903.251 363.65 904.595 362.929 905.989 362.317L906.349 363.144C904.997 363.735 903.695 364.434 902.456 365.234ZM931.793 364.936C930.539 364.16 929.223 363.488 927.86 362.925L928.22 362.094C929.627 362.676 930.986 363.37 932.282 364.169L931.793 364.936ZM910.526 361.698L910.3 360.828C911.774 360.448 913.277 360.188 914.793 360.051L914.876 360.947C913.408 361.081 911.953 361.334 910.526 361.702V361.698ZM923.658 361.565C922.222 361.226 920.762 361.002 919.29 360.896L919.355 360.004C920.874 360.112 922.381 360.343 923.863 360.695L923.658 361.565Z" fill="#9192FF"/>
<path d="M142.752 468.311C141.242 468.311 139.721 468.242 138.233 468.127L138.301 467.228C139.772 467.343 141.271 467.404 142.755 467.411L142.752 468.311ZM147.274 468.178L147.213 467.282C148.691 467.185 150.182 467.034 151.649 466.832L151.771 467.724C150.283 467.929 148.77 468.08 147.274 468.178ZM133.74 467.616C132.251 467.393 130.752 467.116 129.293 466.789L129.487 465.911C130.925 466.235 132.402 466.509 133.869 466.728L133.74 467.616ZM156.229 466.947L156.042 466.07C157.48 465.764 158.947 465.401 160.356 464.991L160.604 465.854C159.173 466.271 157.696 466.638 156.229 466.947ZM124.914 465.645C123.476 465.214 122.038 464.721 120.625 464.185L120.949 463.347C122.333 463.872 123.753 464.358 125.173 464.786L124.914 465.645ZM164.918 464.448L164.605 463.602C165.993 463.091 167.38 462.523 168.728 461.915L169.088 462.732C167.733 463.35 166.323 463.93 164.918 464.448ZM116.455 462.419C115.097 461.782 113.741 461.088 112.426 460.358L112.864 459.57C114.158 460.289 115.496 460.977 116.819 461.602L116.455 462.419ZM173.146 460.725L172.719 459.933C174.016 459.214 175.31 458.466 176.558 457.671L177.043 458.426C175.774 459.236 174.466 460.009 173.146 460.725ZM108.554 458.009C107.299 457.185 106.056 456.308 104.862 455.394L105.405 454.675C106.584 455.574 107.81 456.444 109.046 457.254L108.554 458.009ZM180.764 455.851L180.228 455.131C181.415 454.247 182.586 453.311 183.708 452.344L184.294 453.024C183.158 454.009 181.968 454.959 180.764 455.858V455.851ZM101.364 452.509C100.239 451.517 99.1354 450.47 98.0821 449.394L98.722 448.765C99.7609 449.822 100.85 450.855 101.957 451.837L101.364 452.509ZM187.612 449.955L186.979 449.315C188.029 448.272 189.057 447.157 190.031 446.078L190.707 446.668C189.719 447.783 188.68 448.912 187.612 449.955ZM95.0265 446.067C94.0559 444.92 93.1104 443.726 92.2225 442.517L92.9415 441.985C93.8186 443.179 94.7389 444.355 95.7095 445.484L95.0265 446.067ZM193.558 443.136L192.839 442.593C193.734 441.409 194.593 440.179 195.399 438.934L196.15 439.424C195.334 440.686 194.464 441.934 193.558 443.136ZM89.6666 438.78C88.8649 437.507 88.0992 436.194 87.3946 434.866L88.1855 434.446C88.8829 435.748 89.6234 437.046 90.4251 438.298L89.6666 438.78ZM198.461 435.543L197.674 435.111C198.393 433.809 199.065 432.467 199.684 431.122L200.5 431.5C199.881 432.856 199.198 434.219 198.472 435.535L198.461 435.543ZM85.4103 430.805C84.7991 429.431 84.2312 428.021 83.7207 426.611L84.5691 426.306C85.0688 427.694 85.6475 429.086 86.2299 430.439L85.4103 430.805ZM202.243 427.309L201.402 426.993C201.923 425.604 202.398 424.18 202.815 422.759L203.678 423.014C203.261 424.453 202.779 425.892 202.243 427.309ZM82.351 422.295C81.9448 420.856 81.5853 419.367 81.2726 417.896L82.1533 417.716C82.4481 419.155 82.804 420.623 83.2066 422.05L82.351 422.295ZM204.803 418.623L203.926 418.432C204.238 416.993 204.504 415.508 204.716 414.04L205.604 414.166C205.392 415.662 205.119 417.162 204.803 418.63V418.623ZM80.5356 413.439C80.3415 411.95 80.1977 410.436 80.1078 408.936L81.0066 408.882C81.0928 410.36 81.233 411.857 81.4272 413.324L80.5356 413.439ZM206.086 409.673L205.187 409.612C205.292 408.138 205.346 406.638 205.346 405.152H206.244C206.244 406.659 206.198 408.181 206.086 409.673ZM80.8987 404.422H80C80 402.915 80.0899 401.393 80.2121 399.901L81.1072 399.973C80.985 401.433 80.9167 402.936 80.8987 404.422ZM205.281 402.159C205.213 400.674 205.087 399.178 204.921 397.714L205.816 397.606C205.993 399.095 206.118 400.613 206.176 402.116L205.281 402.159ZM81.6321 395.534L80.7369 395.397C80.967 393.908 81.2546 392.415 81.5925 390.951L82.4661 391.153C82.1425 392.595 81.8585 394.07 81.6321 395.534ZM204.217 393.304C203.936 391.865 203.598 390.387 203.214 388.955L204.084 388.725C204.472 390.164 204.803 391.66 205.097 393.135L204.217 393.304ZM83.6128 386.844L82.7537 386.581C83.1958 385.142 83.6955 383.704 84.2419 382.297L85.0795 382.624C84.5583 384.006 84.0658 385.427 83.6128 386.844ZM201.884 384.686C201.395 383.29 200.852 381.891 200.27 380.531L201.093 380.171C201.686 381.549 202.24 382.966 202.732 384.383L201.884 384.686ZM86.8482 378.52L86.0358 378.136C86.6792 376.779 87.3802 375.423 88.1208 374.114L88.9045 374.557C88.1855 375.848 87.4917 377.182 86.8482 378.52ZM198.375 376.513C197.692 375.197 196.955 373.891 196.182 372.632L196.948 372.161C197.732 373.442 198.479 374.765 199.173 376.1L198.375 376.513ZM91.2483 370.758L90.497 370.262C91.331 369.01 92.2153 367.773 93.1356 366.582L93.8546 367.133C92.9595 368.298 92.0679 369.517 91.2483 370.751V370.758ZM193.727 368.924C192.864 367.719 191.948 366.532 191.002 365.392L191.692 364.82C192.652 365.974 193.583 367.179 194.457 368.399L193.727 368.924ZM96.6981 363.69L96.0259 363.093C97.0288 361.971 98.0821 360.874 99.1606 359.827L99.7861 360.471C98.7112 361.507 97.6831 362.586 96.6981 363.69ZM188.029 362.057C187.005 360.978 185.93 359.942 184.83 358.949L185.434 358.284C186.548 359.291 187.637 360.352 188.669 361.435L188.029 362.057ZM103.093 357.482L102.515 356.791C103.665 355.824 104.862 354.889 106.077 354.004L106.606 354.723C105.408 355.604 104.226 356.529 103.093 357.482ZM181.418 356.076C180.25 355.166 179.035 354.277 177.805 353.453L178.309 352.709C179.552 353.547 180.785 354.443 181.972 355.367L181.418 356.076ZM110.305 352.245L109.83 351.479C111.106 350.687 112.426 349.928 113.752 349.231L114.169 350.025C112.861 350.716 111.563 351.461 110.305 352.245ZM174.016 351.097C172.733 350.36 171.403 349.659 170.062 349.018L170.45 348.205C171.806 348.86 173.154 349.569 174.459 350.317L174.016 351.097ZM118.185 348.094L117.825 347.27C119.198 346.666 120.611 346.108 122.024 345.605L122.326 346.454C120.931 346.947 119.54 347.5 118.185 348.094ZM165.996 347.227C164.619 346.684 163.203 346.18 161.787 345.738L162.056 344.878C163.494 345.328 164.932 345.839 166.327 346.393L165.996 347.227ZM126.597 345.116L126.359 344.249C127.797 343.85 129.286 343.501 130.759 343.206L130.936 344.087C129.465 344.378 128.006 344.724 126.579 345.116H126.597ZM157.487 344.555C156.049 344.216 154.575 343.925 153.116 343.688L153.26 342.799C154.741 343.04 156.233 343.335 157.696 343.681L157.487 344.555ZM135.339 343.378L135.224 342.483C136.712 342.299 138.23 342.163 139.732 342.083L139.779 342.983C138.28 343.062 136.784 343.195 135.321 343.378H135.339ZM148.691 343.137C147.217 343.008 145.721 342.929 144.237 342.9L144.255 342.001C145.757 342.03 147.278 342.109 148.77 342.242L148.691 343.137Z" fill="#9192FF"/>
<path d="M325.827 396.355C322.827 396.356 319.894 395.466 317.4 393.799C314.905 392.132 312.96 389.762 311.812 386.989C310.664 384.216 310.363 381.164 310.948 378.22C311.533 375.276 312.978 372.571 315.099 370.449C317.22 368.326 319.923 366.881 322.865 366.296C325.808 365.71 328.858 366.011 331.629 367.16C334.401 368.309 336.769 370.255 338.436 372.751C340.102 375.247 340.991 378.181 340.99 381.183C340.985 385.206 339.386 389.062 336.544 391.906C333.701 394.75 329.847 396.35 325.827 396.355ZM325.827 366.684C322.962 366.687 320.161 367.54 317.78 369.135C315.399 370.729 313.544 372.995 312.449 375.645C311.355 378.294 311.07 381.209 311.631 384.021C312.191 386.832 313.573 389.414 315.6 391.441C317.627 393.467 320.209 394.847 323.02 395.405C325.83 395.963 328.743 395.675 331.39 394.577C334.037 393.48 336.299 391.621 337.891 389.237C339.483 386.853 340.332 384.05 340.332 381.183C340.327 377.337 338.797 373.649 336.078 370.931C333.358 368.212 329.671 366.685 325.827 366.684Z" fill="#9192FF"/>
<path d="M765.17 30.3509C762.17 30.3517 759.237 29.4621 756.743 27.7949C754.248 26.1277 752.304 23.7576 751.155 20.9845C750.007 18.2114 749.706 15.1599 750.291 12.2158C750.876 9.27168 752.321 6.56734 754.442 4.4448C756.564 2.32226 759.266 0.876858 762.209 0.291424C765.151 -0.29401 768.201 0.00681799 770.972 1.15586C773.744 2.3049 776.113 4.25054 777.779 6.74668C779.445 9.24282 780.334 12.1773 780.333 15.1791C780.329 19.2014 778.73 23.0577 775.887 25.9019C773.044 28.7462 769.19 30.3462 765.17 30.3509ZM765.17 0.679828C762.305 0.682673 759.505 1.53545 757.124 3.13038C754.742 4.72531 752.887 6.99077 751.793 9.64041C750.698 12.2901 750.413 15.2049 750.974 18.0165C751.535 20.8282 752.916 23.4103 754.943 25.4367C756.97 27.463 759.552 28.8425 762.363 29.4008C765.173 29.9591 768.086 29.6711 770.733 28.5732C773.38 27.4754 775.643 25.617 777.234 23.2329C778.826 20.8488 779.675 18.0461 779.675 15.1791C779.671 11.3326 778.141 7.64525 775.421 4.92673C772.701 2.20822 769.015 0.680778 765.17 0.679828Z" fill="#9192FF"/>
<path opacity="0.6" d="M327.438 406.179C328.299 405.409 329.419 404.994 330.575 405.016C331.73 405.038 332.834 405.496 333.664 406.299C334.495 407.101 334.991 408.188 335.051 409.34C335.112 410.493 334.733 411.625 333.992 412.51C333.567 412.935 333.063 413.272 332.508 413.502C331.954 413.731 331.359 413.85 330.758 413.85C330.157 413.85 329.563 413.731 329.008 413.502C328.453 413.272 327.949 412.935 327.524 412.51C326.712 411.661 326.252 410.536 326.236 409.362C326.22 408.188 326.65 407.051 327.438 406.179Z" fill="white"/>
<path opacity="0.6" d="M908.202 38.1646C909.063 37.3946 910.184 36.9787 911.339 37.0008C912.494 37.0229 913.598 37.4813 914.429 38.2836C915.259 39.086 915.755 40.1728 915.815 41.3253C915.876 42.4778 915.498 43.6105 914.756 44.4955C914.331 44.92 913.827 45.2569 913.273 45.4867C912.718 45.7164 912.123 45.8347 911.522 45.8347C910.921 45.8347 910.327 45.7164 909.772 45.4867C909.217 45.2569 908.713 44.92 908.288 44.4955C907.476 43.646 907.016 42.5213 907 41.347C906.984 40.1727 907.414 39.0358 908.202 38.1646Z" fill="white"/>
</svg>
