<svg width="1920" height="265" viewBox="0 0 1920 265" fill="none" xmlns="http://www.w3.org/2000/svg">
<path d="M1449.4 112.868C1443.66 112.866 1438.14 114.075 1434.07 116.229C1433.36 114.08 1431.69 112.052 1429.2 110.316C1426.7 108.581 1423.46 107.188 1419.75 106.254C1416.03 105.32 1411.95 104.873 1407.84 104.951C1403.73 105.028 1399.71 105.627 1396.13 106.698C1394.45 103.187 1391.35 99.9111 1387.05 97.098C1382.75 94.2849 1377.35 92.0018 1371.22 90.407C1365.09 88.8122 1358.38 87.9439 1351.56 87.8623C1344.73 87.7806 1337.96 88.4876 1331.7 89.9342C1331.7 89.2319 1331.85 88.5296 1331.85 87.8274C1331.85 82.8137 1329.54 77.8763 1325.12 73.4441C1320.7 69.012 1314.31 65.2192 1306.51 62.3953C1298.7 59.5715 1289.71 57.8021 1280.32 57.2408C1270.94 56.6796 1261.43 57.3434 1252.64 59.1747C1251.58 55.828 1249.09 52.6534 1245.38 49.8917C1241.66 47.13 1236.81 44.8539 1231.19 43.2362C1225.57 41.6184 1219.32 40.7014 1212.93 40.5549C1206.55 40.4083 1200.18 41.0361 1194.31 42.3905C1191.92 35.9781 1185.67 30.1506 1176.51 25.7823C1167.34 21.4139 1155.76 18.7404 1143.49 18.1627C1131.22 17.5851 1118.93 19.1345 1108.46 22.5785C1097.99 26.0225 1089.9 31.1753 1085.42 37.2639C1078.61 37.3351 1071.94 38.3076 1066.02 40.0931C1062.53 36.6688 1057.38 33.8003 1051.1 31.7828C1044.83 29.7653 1037.65 28.6716 1030.32 28.6144C1022.98 28.5572 1015.75 29.5385 1009.36 31.4572C1002.98 33.376 997.674 36.163 993.993 39.5312C989.489 37.0777 983.964 35.2187 977.862 34.1033C971.759 32.9879 965.249 32.6473 958.854 33.1087C952.458 33.5701 946.356 34.8208 941.036 36.7603C935.716 38.6998 931.327 41.2741 928.221 44.2766C926.623 43.2191 924.634 42.3457 922.378 41.7097C920.122 41.0738 917.645 40.6886 915.099 40.5778C912.553 40.467 909.991 40.6329 907.569 41.0653C905.148 41.4977 902.918 42.1876 901.016 43.0927C902.172 41.8915 902.728 40.5528 902.629 39.205C902.53 37.8572 901.78 36.5454 900.452 35.3954C899.124 34.2455 897.261 33.2958 895.043 32.6375C892.824 31.9792 890.324 31.6342 887.783 31.6357H886.478C887.432 30.5114 887.874 29.284 887.769 28.0524C887.664 26.8208 887.015 25.6195 885.874 24.5455C884.734 23.4715 883.133 22.5549 881.202 21.8695C879.271 21.1842 877.063 20.7492 874.757 20.6C877.402 19.2069 878.965 17.3373 879.134 15.3617C879.304 13.386 878.069 11.4487 875.673 9.93371C873.277 8.41876 869.896 7.43681 866.2 7.18257C862.505 6.92833 858.764 7.42031 855.719 8.56105C854.467 7.02429 852.39 5.71721 849.747 4.80274C847.104 3.88827 844.012 3.40692 840.857 3.41869C837.702 3.43046 834.623 3.93484 832.005 4.86893C829.386 5.80303 827.344 7.1255 826.132 8.67145C824.665 7.69757 822.784 6.92218 820.642 6.40895C818.501 5.89572 816.161 5.65925 813.814 5.71897C811.467 5.7787 809.181 6.13291 807.142 6.75253C805.103 7.37214 803.37 8.2395 802.085 9.28341H800.572C799.441 8.36334 797.96 7.57901 796.224 6.9808C794.488 6.3826 792.535 5.98375 790.491 5.8099C788.447 5.63605 786.357 5.69102 784.356 5.97131C782.354 6.25161 780.485 6.75101 778.869 7.43742C777.483 6.1305 775.424 5.06044 772.932 4.35268C770.441 3.64491 767.621 3.32885 764.803 3.44153C761.985 3.55421 759.286 4.09093 757.022 4.98883C754.759 5.88673 753.025 7.10852 752.023 8.5109C749.8 7.74319 747.229 7.30581 744.579 7.24429C741.929 7.18277 739.296 7.49935 736.954 8.16107C734.613 8.8228 732.648 9.80547 731.265 11.0068C729.883 12.2082 729.132 13.5843 729.091 14.9919C727.91 14.8354 726.698 14.7545 725.48 14.7511C723.015 14.7538 720.589 15.0811 718.421 15.7037C716.252 16.3264 714.409 17.2249 713.056 18.3187C711.703 19.4125 710.883 20.6673 710.669 21.9707C710.456 23.2741 710.855 24.5854 711.831 25.7868C711.434 25.7868 711.018 25.7868 710.602 25.7868C708.164 25.7871 705.764 26.1053 703.613 26.7132C701.461 27.3212 699.624 28.2004 698.263 29.2734C696.902 30.3464 696.059 31.5805 695.807 32.8671C695.555 34.1537 695.903 35.4533 696.82 36.6519C696.021 36.579 695.211 36.5421 694.4 36.5415C690.454 36.5415 686.67 37.3734 683.879 38.8541C681.089 40.3348 679.522 42.343 679.522 44.4371C679.526 44.9694 679.627 45.5002 679.824 46.0222C676.915 45.2274 673.66 44.8586 670.393 44.9538C667.127 45.049 663.967 45.6048 661.24 46.5639C656.354 42.7977 649.362 39.9408 641.251 38.3963C633.141 36.8519 624.322 36.698 616.037 37.9561C616.286 37.086 616.419 36.2077 616.434 35.3276C616.453 32.1569 614.886 29.0403 611.893 26.2961C608.9 23.5518 604.588 21.2782 599.398 19.7073C594.208 18.1363 588.326 17.3244 582.351 17.3543C576.376 17.3843 570.523 18.255 565.39 19.8777C561.409 14.5873 554.381 10.0996 545.307 7.05545C536.234 4.01127 525.58 2.56628 514.867 2.92674C504.154 3.2872 493.93 5.43474 485.654 9.06267C477.378 12.6906 471.473 17.6134 468.784 23.1282C462.489 21.4296 455.478 20.6171 448.422 20.7682C441.366 20.9194 434.502 22.0292 428.486 23.9915C422.47 25.9537 417.503 28.7027 414.063 31.9751C410.622 35.2476 408.822 38.934 408.835 42.6814C408.827 45.4739 409.841 48.2406 411.822 50.8277C404.743 51.6155 398.308 53.5621 393.424 56.3933C388.54 59.2244 385.453 62.7974 384.598 66.6088C378.474 64.8583 371.496 64.1317 364.579 64.5242C357.662 64.9168 351.131 66.4102 345.843 68.8084C340.555 71.2066 336.757 74.3974 334.949 77.9618C333.14 81.5262 333.405 85.2975 335.709 88.7804C330.249 90.0683 325.513 92.0866 321.965 94.6376C318.416 97.1886 316.177 100.185 315.466 103.333C314.755 106.481 315.597 109.673 317.91 112.597C320.222 115.521 323.926 118.075 328.657 120.011C330.899 122.429 334.506 124.416 338.976 125.694C343.445 126.973 348.555 127.48 353.594 127.144V127.245H1311.94C1316.28 130.522 1322.03 133.197 1328.72 135.047C1335.42 136.897 1342.85 137.866 1350.39 137.873C1357.93 137.879 1365.37 136.924 1372.07 135.087C1378.78 133.249 1384.55 130.584 1388.91 127.315C1391.31 128.859 1394.33 130.103 1397.74 130.959C1401.16 131.815 1404.88 132.262 1408.66 132.269C1412.44 132.276 1416.17 131.842 1419.59 130.998C1423.02 130.154 1426.05 128.92 1428.48 127.385C1429.53 129.457 1431.66 131.33 1434.62 132.794C1437.58 134.257 1441.25 135.252 1445.22 135.666C1449.19 136.081 1453.3 135.898 1457.08 135.138C1460.86 134.378 1464.17 133.072 1466.63 131.367C1469.08 129.663 1470.6 127.627 1470.99 125.491C1471.38 123.354 1470.64 121.203 1468.85 119.278C1467.05 117.354 1464.28 115.734 1460.85 114.601C1457.41 113.468 1453.45 112.868 1449.4 112.868V112.868Z" fill="#D9D9D9"/>
<path d="M1483.84 122.168C1488.06 111.289 1484.91 99.9296 1475 90.2485C1465.09 80.5675 1449.11 73.2388 1430.08 69.6546C1411.05 66.0703 1390.31 66.4802 1371.79 70.8062C1353.27 75.1322 1338.27 83.073 1329.63 93.1205C1324.41 85.5267 1315.15 78.9897 1303.07 74.3763C1291 69.7629 1276.67 67.2911 1262 67.2886C1260.42 67.2886 1258.83 67.2886 1257.28 67.3792C1251.2 56.3741 1239.52 46.5713 1223.65 39.1425C1207.77 31.7137 1188.37 26.9732 1167.75 25.4875C1147.14 24.0019 1126.19 25.834 1107.41 30.7649C1088.63 35.6957 1072.81 43.5168 1061.84 53.2931C1051.77 50.4411 1040.63 48.9374 1029.32 48.9028C1018 48.8682 1006.84 50.3037 996.709 53.0939C986.582 55.8841 977.779 59.951 971.008 64.9677C964.237 69.9845 959.686 75.8109 957.723 81.9785C945.481 75.9908 929.936 72.476 913.624 72.0071C897.311 71.5383 881.192 74.1431 867.896 79.3968C859.589 73.8112 848.705 69.5758 836.398 67.1403C824.092 64.7049 810.824 64.1605 798.004 65.5649C785.184 66.9692 773.29 70.27 763.587 75.1165C753.883 79.963 746.732 86.1742 742.892 93.0903C732.477 86.8328 719.168 82.2717 704.407 79.9006C689.646 77.5296 673.995 77.4389 659.147 79.6384C651.129 70.9287 638.377 63.8312 622.688 59.346C606.998 54.8607 589.163 53.2136 571.694 54.6368C556.347 46.379 535.899 41.6635 514.502 41.4476C493.104 41.2317 472.36 45.5315 456.479 53.4743C441.569 51.0519 425.739 50.9585 410.739 53.2046C395.739 55.4506 382.152 59.9485 371.48 66.2015C364.303 58.7136 353.573 52.4512 340.446 48.0883C327.318 43.7254 312.29 41.4274 296.979 41.4415H296.407C288.476 28.4215 272.665 17.3177 251.65 10.0085C230.634 2.69922 205.704 -0.366832 181.075 1.32894C156.446 3.02471 133.631 9.3782 116.49 19.3147C99.3482 29.2512 88.932 42.1608 87.003 55.8597C85.5577 55.8597 84.0852 55.8597 82.6126 55.8597C68.1344 55.848 53.8624 57.76 40.9956 61.4352C28.1289 65.1104 17.0429 70.4414 8.66909 76.9805C0.295239 83.5195 -5.12202 91.0756 -7.12764 99.014C-9.13326 106.953 -7.66868 115.042 -2.85692 122.602C1.95484 130.162 9.97327 136.972 20.5248 142.461C31.0764 147.95 43.853 151.956 57.7814 154.145C71.7098 156.333 86.3832 156.638 100.569 155.036C114.755 153.433 128.039 149.97 139.306 144.935H556.586C572.461 147.969 589.612 148.306 605.835 145.902C612.957 153.661 623.858 160.162 637.305 164.671C650.752 169.179 666.209 171.515 681.928 171.415C697.648 171.314 713.003 168.781 726.258 164.102C739.513 159.423 750.14 152.784 756.936 144.935H868.742C880.85 149.595 895.242 152.092 909.987 152.092C924.732 152.092 939.125 149.595 951.233 144.935H1236.58C1252.97 148.338 1271.03 148.338 1287.41 144.935H1345.74C1358.44 151.957 1374.96 156.472 1392.76 157.783C1392.62 158.825 1392.51 159.867 1392.51 160.924C1392.55 168.389 1396.35 175.7 1403.49 182.032C1410.63 188.365 1420.83 193.466 1432.93 196.761C1445.03 200.056 1458.55 201.413 1471.97 200.679C1485.38 199.945 1498.17 197.15 1508.87 192.609C1519.57 188.067 1527.77 181.96 1532.53 174.977C1537.3 167.994 1538.44 160.412 1535.84 153.087C1533.24 145.762 1526.99 138.986 1517.8 133.523C1508.61 128.06 1496.85 124.127 1483.84 122.168Z" fill="white"/>
<path d="M1948.63 186.168C1952.85 175.288 1949.71 163.929 1939.8 154.248C1929.89 144.567 1913.9 137.238 1894.87 133.654C1875.85 130.07 1855.1 130.48 1836.58 134.806C1818.07 139.132 1803.06 147.073 1794.42 157.12C1789.21 149.526 1779.95 142.989 1767.87 138.376C1755.79 133.762 1741.47 131.291 1726.79 131.288C1725.21 131.288 1723.63 131.288 1722.08 131.379C1716 120.374 1704.32 110.571 1688.44 103.142C1672.57 95.7133 1653.16 90.9727 1632.55 89.4871C1611.94 88.0014 1590.99 89.8335 1572.21 94.7644C1553.42 99.6953 1537.6 107.516 1526.64 117.293C1516.56 114.441 1505.43 112.937 1494.11 112.902C1482.8 112.868 1471.63 114.303 1461.51 117.093C1451.38 119.884 1442.58 123.951 1435.81 128.967C1429.03 133.984 1424.48 139.81 1422.52 145.978C1410.28 139.99 1394.73 136.475 1378.42 136.007C1362.11 135.538 1345.99 138.143 1332.69 143.396C1324.39 137.811 1313.5 133.575 1301.2 131.14C1288.89 128.704 1275.62 128.16 1262.8 129.564C1249.98 130.969 1238.09 134.27 1228.38 139.116C1218.68 143.962 1210.84 127.084 1207 134C1196.58 127.742 1183.97 146.271 1169.2 143.9C1154.44 141.529 1138.79 141.438 1123.94 143.638C1115.93 134.928 1103.17 127.831 1087.49 123.345C1071.8 118.86 1053.96 117.213 1036.49 118.636C1021.14 110.378 1000.7 105.663 979.299 105.447C957.901 105.231 937.157 109.531 921.277 117.474C906.367 115.051 890.537 114.958 875.537 117.204C860.537 119.45 846.95 123.948 836.277 130.201C829.1 122.713 818.371 116.451 805.243 112.088C792.116 107.725 777.088 105.427 761.777 105.441H761.204C753.273 92.421 737.463 81.3172 716.447 74.008C695.432 66.6987 670.501 63.6327 645.872 65.3285C621.244 67.0242 598.429 73.3777 581.287 83.3142C564.146 93.2507 553.729 106.16 551.8 119.859H547.41C532.932 119.848 518.66 121.76 505.793 125.435L-3.5 117.552V218.848L524.966 218.5C538.177 220.361 551.988 220.547 565.367 219.035C566.886 218.864 568.396 218.671 569.893 218.457L1080.04 217.968C1086.18 222.203 1093.64 225.832 1102.1 228.67C1115.55 233.179 1131.01 235.515 1146.73 235.414C1162.45 235.314 1177.8 232.781 1191.06 228.101C1198.93 225.321 1205.88 221.849 1211.65 217.842L1831.23 217.249C1839.42 219.558 1848.32 221.102 1857.55 221.783C1857.42 222.825 1857.31 223.866 1857.31 224.923C1857.34 232.388 1861.15 239.7 1868.29 246.032C1875.43 252.364 1885.62 257.466 1897.72 260.76C1909.82 264.055 1923.34 265.412 1936.76 264.679C1950.18 263.945 1962.96 261.15 1973.67 256.608C1984.37 252.067 1992.56 245.96 1997.33 238.977C2002.1 231.993 2003.24 224.411 2000.64 217.087C1998.04 209.762 1991.79 202.986 1982.6 197.522C1973.41 192.059 1961.64 188.126 1948.63 186.168Z" fill="white"/>
</svg>
