<svg width="237" height="203" viewBox="0 0 237 203" fill="none" xmlns="http://www.w3.org/2000/svg">
<path d="M76.8372 106.983L76.9101 107.782L19.1152 107.118C18.0924 107.039 17.8212 106.108 18.892 106.048L76.8372 106.983Z" fill="white"/>
<path d="M77.5362 106.208L77.6047 107.032L18.9842 106.741C17.9472 106.666 17.9082 106.012 18.9948 105.943L77.5362 106.208Z" fill="#CCCFD0"/>
<path d="M78.0988 108.811L78.5444 109.479L27.4303 136.461C26.4936 136.88 25.8109 136.19 26.7237 135.628L78.0988 108.811Z" fill="white"/>
<path d="M78.3444 107.798L78.798 108.49L27.1359 136.193C26.1888 136.622 25.8425 136.066 26.7649 135.488L78.3444 107.798Z" fill="#CCCFD0"/>
<path d="M117.374 91.0228L116.881 90.3891L165.872 59.7199C166.775 59.2338 167.507 59.8712 166.638 60.4996L117.374 91.0228Z" fill="white"/>
<path d="M117.204 92.0509L116.701 91.394L166.185 59.9653C167.098 59.4677 167.484 59.9972 166.607 60.6419L117.204 92.0509Z" fill="#CCCFD0"/>
<path d="M122.451 97.1105L122.464 96.3075L179.858 103.135C180.867 103.323 181.037 104.278 179.966 104.223L122.451 97.1105Z" fill="white"/>
<path d="M121.676 97.8061L121.696 96.9788L179.951 103.524C180.974 103.709 180.943 104.364 179.855 104.316L121.676 97.8061Z" fill="#CCCFD0"/>
<path d="M106.628 76.6667L106.463 76.3136L132.651 68.3142C133.125 68.2033 133.402 68.5877 132.928 68.7685L106.628 76.6667Z" fill="white"/>
<path d="M114.422 116.062L114.283 115.698L140.982 109.622C141.464 109.545 141.711 109.949 141.226 110.095L114.422 116.062Z" fill="white"/>
<path d="M106.44 77.119L106.272 76.754L132.771 68.4668C133.251 68.3518 133.377 68.6435 132.898 68.8307L106.44 77.119Z" fill="#CCCFD0"/>
<path d="M114.204 116.502L114.064 116.126L141.094 109.784C141.581 109.705 141.686 110.005 141.194 110.157L114.204 116.502Z" fill="#CCCFD0"/>
<circle cx="130.011" cy="90.5157" r="4.13328" transform="rotate(-50.1077 130.011 90.5157)" fill="white"/>
<path d="M129.45 86.6308L107.502 72.4895L121.039 117.441L131.568 94.314L129.45 86.6308Z" fill="#CCCFD0"/>
<path d="M114.22 120.412C110.349 119.541 106.67 119.226 106.67 119.226C109.898 101.689 108.443 91.0126 94.9842 79.7626L99.892 77.821C101.226 74.8628 104.846 69.5056 108.653 71.7418C113.411 74.5371 119.328 79.8769 123.068 90.4926C126.808 101.108 124.491 113.625 121.647 117.029C119.371 119.751 118.09 121.283 114.22 120.412Z" fill="white"/>
<path d="M112.205 121.094C108.334 120.223 104.656 119.908 104.656 119.908C107.883 102.372 106.428 91.6947 92.9695 80.4447L97.8774 78.5031C99.2113 75.545 102.831 70.1878 106.638 72.424C111.397 75.2192 117.313 80.559 121.053 91.1748C124.793 101.79 122.477 114.307 119.632 117.711C117.356 120.433 116.076 121.965 112.205 121.094Z" fill="#DEE4E6"/>
<circle cx="74.239" cy="107.095" r="25.2029" transform="rotate(-50.1077 74.239 107.095)" fill="white"/>
<path d="M98.3314 102.28L97.5747 102.549L83.866 46.3995C83.6886 45.3891 84.5237 44.895 84.847 45.9175L98.3314 102.28Z" fill="white"/>
<path d="M99.256 102.765L98.4741 103.036L84.1997 46.1794C84.0144 45.1564 84.6385 44.9562 84.9746 45.9917L99.256 102.765Z" fill="#CCCFD0"/>
<path d="M95.6851 97.6678L94.8999 97.8371L112.795 152.796C113.175 153.748 114.146 153.729 113.882 152.689L95.6851 97.6678Z" fill="white"/>
<path d="M96.2165 96.7698L95.409 96.9507L113.195 152.809C113.576 153.776 114.212 153.618 113.952 152.56L96.2165 96.7698Z" fill="#CCCFD0"/>
<path d="M100.206 103.515L99.5528 103.983L70.8493 53.815C70.3994 52.893 71.0653 52.1873 71.6588 53.0805L100.206 103.515Z" fill="white"/>
<path d="M101.228 103.725L100.551 104.202L71.1086 53.5109C70.6476 52.579 71.1919 52.214 71.8014 53.1161L101.228 103.725Z" fill="#CCCFD0"/>
<path d="M96.6292 95.6344L95.8278 95.58L97.8242 153.344C97.9268 154.365 98.8644 154.615 98.899 153.543L96.6292 95.6344Z" fill="white"/>
<path d="M97.386 94.9181L96.56 94.8686L98.203 153.467C98.3014 154.502 98.9564 154.526 98.9998 153.438L97.386 94.9181Z" fill="#CCCFD0"/>
<g style="mix-blend-mode:multiply" opacity="0.06">
<path d="M55.5307 122.419C53.8707 118.561 53.3064 114.316 53.9 110.155C54.371 105.648 56.1101 101.368 58.9145 97.813C61.7189 94.2583 65.4726 91.5756 69.7384 90.0779C74.0042 88.5802 78.6062 88.3293 83.0071 89.3543C87.4079 90.3793 91.4263 92.6381 94.5939 95.8671C93.0948 92.8355 90.9704 90.1581 88.361 88.0126C85.7517 85.8671 82.7173 84.3025 79.4584 83.4221C76.1996 82.5416 72.7908 82.3654 69.458 82.9054C66.1252 83.4454 62.9441 84.6893 60.1259 86.5545C57.3077 88.4197 54.9163 90.8634 53.1103 93.7243C51.3044 96.5852 50.1252 99.798 49.6505 103.149C49.1758 106.501 49.4164 109.915 50.3567 113.165C51.2971 116.415 52.9156 119.427 55.1049 122.001L55.5307 122.419Z" fill="#230753"/>
</g>
<path d="M93.4205 79.9025L86.8039 85.1459C98.107 96.3023 97.339 100.522 96.1339 120.669C98.4745 120.698 101.177 121.363 104.679 120.191C107.618 114.633 108.149 104.565 105.904 95.4622C104.108 88.1796 96.8335 82.0547 93.4205 79.9025Z" fill="white"/>
<circle cx="87.0291" cy="82.0484" r="3.02435" transform="rotate(-50.1077 87.0291 82.0484)" fill="#C4C4C4"/>
<g style="mix-blend-mode:multiply" opacity="0.15">
<path d="M84.925 84.0298C84.7178 83.5481 84.6474 83.0183 84.7214 82.4988C84.7802 81.9363 84.9973 81.4019 85.3474 80.9582C85.6975 80.5145 86.166 80.1796 86.6985 79.9926C87.231 79.8057 87.8055 79.7744 88.3548 79.9023C88.9042 80.0303 89.4058 80.3122 89.8012 80.7153C89.6141 80.3369 89.3489 80.0027 89.0232 79.7348C88.6974 79.467 88.3187 79.2717 87.9119 79.1618C87.5051 79.0519 87.0796 79.0299 86.6635 79.0973C86.2475 79.1647 85.8504 79.32 85.4986 79.5528C85.1468 79.7857 84.8483 80.0907 84.6229 80.4478C84.3974 80.8049 84.2502 81.206 84.191 81.6243C84.1317 82.0427 84.1618 82.4688 84.2791 82.8745C84.3965 83.2802 84.5986 83.6562 84.8719 83.9776L84.925 84.0298Z" fill="#230753"/>
</g>
<g style="mix-blend-mode:multiply" opacity="0.15">
<path d="M84.925 84.0298C84.7178 83.5481 84.6474 83.0183 84.7214 82.4988C84.7802 81.9363 84.9973 81.4019 85.3474 80.9582C85.6975 80.5145 86.166 80.1796 86.6985 79.9926C87.231 79.8057 87.8055 79.7744 88.3548 79.9023C88.9042 80.0303 89.4058 80.3122 89.8012 80.7153C89.6141 80.3369 89.3489 80.0027 89.0232 79.7348C88.6974 79.467 88.3187 79.2717 87.9119 79.1618C87.5051 79.0519 87.0796 79.0299 86.6635 79.0973C86.2475 79.1647 85.8504 79.32 85.4986 79.5528C85.1468 79.7857 84.8483 80.0907 84.6229 80.4478C84.3974 80.8049 84.2502 81.206 84.191 81.6243C84.1317 82.0427 84.1618 82.4688 84.2791 82.8745C84.3965 83.2802 84.5986 83.6562 84.8719 83.9776L84.925 84.0298Z" fill="#230753"/>
</g>
<circle cx="91.2889" cy="81.6676" r="3.02435" transform="rotate(-50.1077 91.2889 81.6676)" fill="#C4C4C4"/>
<circle cx="94.0711" cy="85.5689" r="3.02435" transform="rotate(-50.1077 94.0711 85.5689)" fill="#C4C4C4"/>
<circle cx="96.7747" cy="90.1944" r="3.02435" transform="rotate(-50.1077 96.7747 90.1944)" fill="#C4C4C4"/>
<circle cx="98.7542" cy="94.7413" r="3.02435" transform="rotate(-50.1077 98.7542 94.7413)" fill="#C4C4C4"/>
<circle cx="99.7542" cy="99.5177" r="3.02435" transform="rotate(-50.1077 99.7542 99.5177)" fill="#C4C4C4"/>
<circle cx="100.392" cy="105.045" r="3.02435" transform="rotate(-50.1077 100.392 105.045)" fill="#C4C4C4"/>
<circle cx="99.869" cy="110.387" r="3.02435" transform="rotate(-50.1077 99.869 110.387)" fill="#C4C4C4"/>
<circle cx="99.7816" cy="115.834" r="3.02435" transform="rotate(-50.1077 99.7816 115.834)" fill="#C4C4C4"/>
<circle cx="97.8382" cy="121.304" r="3.02435" transform="rotate(-50.1077 97.8382 121.304)" fill="#C4C4C4"/>
<g style="mix-blend-mode:multiply" opacity="0.15">
<path d="M89.1848 83.6479C88.9776 83.1662 88.9071 82.6364 88.9812 82.117C89.04 81.5544 89.2571 81.0201 89.6072 80.5764C89.9572 80.1326 90.4258 79.7978 90.9583 79.6108C91.4908 79.4239 92.0652 79.3925 92.6146 79.5205C93.164 79.6484 93.6656 79.9304 94.061 80.3335C93.8738 79.955 93.6086 79.6208 93.2829 79.353C92.9572 79.0852 92.5784 78.8899 92.1716 78.78C91.7648 78.6701 91.3393 78.6481 90.9233 78.7155C90.5073 78.7829 90.1102 78.9382 89.7584 79.171C89.4066 79.4038 89.1081 79.7089 88.8826 80.066C88.6572 80.4231 88.51 80.8242 88.4508 81.2425C88.3915 81.6609 88.4215 82.087 88.5389 82.4927C88.6563 82.8984 88.8583 83.2744 89.1316 83.5958L89.1848 83.6479Z" fill="#230753"/>
</g>
<g style="mix-blend-mode:multiply" opacity="0.15">
<path d="M91.967 87.5503C91.7598 87.0686 91.6893 86.5388 91.7634 86.0193C91.8222 85.4568 92.0393 84.9224 92.3894 84.4787C92.7395 84.035 93.208 83.7001 93.7405 83.5132C94.273 83.3262 94.8475 83.2949 95.3968 83.4228C95.9462 83.5508 96.4478 83.8327 96.8432 84.2358C96.6561 83.8574 96.3909 83.5232 96.0651 83.2553C95.7394 82.9875 95.3606 82.7922 94.9539 82.6823C94.5471 82.5724 94.1215 82.5504 93.7055 82.6178C93.2895 82.6852 92.8924 82.8405 92.5406 83.0733C92.1888 83.3062 91.8903 83.6112 91.6649 83.9683C91.4394 84.3254 91.2922 84.7265 91.233 85.1449C91.1737 85.5632 91.2038 85.9893 91.3211 86.395C91.4385 86.8007 91.6406 87.1767 91.9139 87.4981L91.967 87.5503Z" fill="#230753"/>
</g>
<g style="mix-blend-mode:multiply" opacity="0.15">
<path d="M94.6706 92.1753C94.4634 91.6936 94.393 91.1638 94.4671 90.6443C94.5258 90.0818 94.7429 89.5474 95.093 89.1037C95.4431 88.66 95.9116 88.3251 96.4441 88.1382C96.9766 87.9512 97.5511 87.9199 98.1004 88.0478C98.6498 88.1758 99.1514 88.4577 99.5468 88.8608C99.3597 88.4824 99.0945 88.1482 98.7688 87.8803C98.443 87.6125 98.0643 87.4172 97.6575 87.3073C97.2507 87.1974 96.8252 87.1754 96.4091 87.2428C95.9931 87.3102 95.596 87.4655 95.2442 87.6983C94.8924 87.9312 94.5939 88.2362 94.3685 88.5933C94.1431 88.9504 93.9959 89.3515 93.9366 89.7699C93.8773 90.1882 93.9074 90.6143 94.0248 91.02C94.1421 91.4257 94.3442 91.8017 94.6175 92.1231L94.6706 92.1753Z" fill="#230753"/>
</g>
<g style="mix-blend-mode:multiply" opacity="0.15">
<path d="M96.5227 96.8774C96.3154 96.3957 96.245 95.8659 96.3191 95.3464C96.3779 94.7839 96.595 94.2496 96.9451 93.8059C97.2951 93.3621 97.7637 93.0273 98.2962 92.8403C98.8287 92.6533 99.4031 92.622 99.9525 92.75C100.502 92.8779 101.003 93.1599 101.399 93.563C101.212 93.1845 100.947 92.8503 100.621 92.5825C100.295 92.3147 99.9163 92.1194 99.5095 92.0095C99.1027 91.8996 98.6772 91.8776 98.2612 91.945C97.8451 92.0124 97.4481 92.1677 97.0963 92.4005C96.7445 92.6333 96.446 92.9384 96.2205 93.2955C95.9951 93.6526 95.8479 94.0536 95.7886 94.472C95.7294 94.8904 95.7594 95.3165 95.8768 95.7222C95.9942 96.1279 96.1962 96.5039 96.4695 96.8253L96.5227 96.8774Z" fill="#230753"/>
</g>
<g style="mix-blend-mode:multiply" opacity="0.15">
<path d="M97.6491 101.499C97.4419 101.018 97.3715 100.488 97.4456 99.9685C97.5044 99.406 97.7215 98.8717 98.0715 98.4279C98.4216 97.9842 98.8902 97.6493 99.4227 97.4624C99.9551 97.2754 100.53 97.2441 101.079 97.372C101.628 97.5 102.13 97.782 102.525 98.185C102.338 97.8066 102.073 97.4724 101.747 97.2046C101.422 96.9367 101.043 96.7414 100.636 96.6315C100.229 96.5216 99.8037 96.4996 99.3876 96.567C98.9716 96.6345 98.5745 96.7897 98.2227 97.0226C97.8709 97.2554 97.5724 97.5604 97.347 97.9175C97.1216 98.2747 96.9744 98.6757 96.9151 99.0941C96.8559 99.5124 96.8859 99.9386 97.0033 100.344C97.1207 100.75 97.3227 101.126 97.596 101.447L97.6491 101.499Z" fill="#230753"/>
</g>
<g style="mix-blend-mode:multiply" opacity="0.15">
<path d="M98.2883 107.024C98.0811 106.543 98.0106 106.013 98.0847 105.493C98.1435 104.931 98.3606 104.397 98.7107 103.953C99.0607 103.509 99.5293 103.174 100.062 102.987C100.594 102.8 101.169 102.769 101.718 102.897C102.267 103.025 102.769 103.307 103.164 103.71C102.977 103.332 102.712 102.997 102.386 102.729C102.061 102.462 101.682 102.266 101.275 102.156C100.868 102.047 100.443 102.025 100.027 102.092C99.6108 102.159 99.2137 102.315 98.8619 102.547C98.5101 102.78 98.2116 103.085 97.9862 103.442C97.7607 103.8 97.6135 104.201 97.5543 104.619C97.495 105.037 97.525 105.463 97.6424 105.869C97.7598 106.275 97.9618 106.651 98.2351 106.972L98.2883 107.024Z" fill="#230753"/>
</g>
<g style="mix-blend-mode:multiply" opacity="0.15">
<path d="M97.7639 112.368C97.5567 111.886 97.4862 111.357 97.5603 110.837C97.6191 110.275 97.8362 109.74 98.1863 109.297C98.5363 108.853 99.0049 108.518 99.5374 108.331C100.07 108.144 100.644 108.113 101.194 108.241C101.743 108.369 102.245 108.651 102.64 109.054C102.453 108.675 102.188 108.341 101.862 108.073C101.536 107.805 101.158 107.61 100.751 107.5C100.344 107.39 99.9184 107.368 99.5024 107.436C99.0864 107.503 98.6893 107.658 98.3375 107.891C97.9857 108.124 97.6872 108.429 97.4617 108.786C97.2363 109.143 97.0891 109.544 97.0299 109.963C96.9706 110.381 97.0006 110.807 97.118 111.213C97.2354 111.619 97.4374 111.995 97.7107 112.316L97.7639 112.368Z" fill="#230753"/>
</g>
<g style="mix-blend-mode:multiply" opacity="0.15">
<path d="M97.6784 117.815C97.4712 117.333 97.4008 116.803 97.4749 116.284C97.5337 115.721 97.7508 115.187 98.1008 114.743C98.4509 114.3 98.9195 113.965 99.4519 113.778C99.9844 113.591 100.559 113.56 101.108 113.687C101.658 113.815 102.159 114.097 102.555 114.5C102.367 114.122 102.102 113.788 101.777 113.52C101.451 113.252 101.072 113.057 100.665 112.947C100.258 112.837 99.833 112.815 99.4169 112.882C99.0009 112.95 98.6038 113.105 98.252 113.338C97.9002 113.571 97.6017 113.876 97.3763 114.233C97.1509 114.59 97.0037 114.991 96.9444 115.41C96.8852 115.828 96.9152 116.254 97.0326 116.66C97.1499 117.065 97.352 117.441 97.6253 117.763L97.6784 117.815Z" fill="#230753"/>
</g>
<g style="mix-blend-mode:multiply" opacity="0.15">
<path d="M95.6027 123.439C95.3955 122.957 95.3251 122.427 95.3992 121.908C95.458 121.345 95.6751 120.811 96.0251 120.367C96.3752 119.924 96.8438 119.589 97.3763 119.402C97.9088 119.215 98.4832 119.184 99.0326 119.311C99.5819 119.439 100.084 119.721 100.479 120.124C100.292 119.746 100.027 119.412 99.7009 119.144C99.3752 118.876 98.9964 118.681 98.5896 118.571C98.1828 118.461 97.7573 118.439 97.3413 118.506C96.9252 118.574 96.5281 118.729 96.1764 118.962C95.8246 119.195 95.526 119.5 95.3006 119.857C95.0752 120.214 94.928 120.615 94.8687 121.034C94.8095 121.452 94.8395 121.878 94.9569 122.284C95.0743 122.689 95.2763 123.065 95.5496 123.387L95.6027 123.439Z" fill="#230753"/>
</g>
<ellipse cx="77.2692" cy="94.0242" rx="8.87142" ry="14.4161" transform="rotate(-82.3732 77.2692 94.0242)" fill="#DEE4E5"/>
<path d="M83.9522 123.703C87.7199 110.111 84.3484 99.7271 72.9302 88.6228L84.457 89.0291L87.8959 89.1739C89.4451 90.6856 93.1184 95.2293 95.4181 101.311C97.7178 107.393 96.0313 116.035 94.9005 119.596L83.9522 123.703Z" fill="#DEE4E5"/>
<ellipse cx="81.9666" cy="120.164" rx="8.87142" ry="14.4161" transform="rotate(-111.335 81.9666 120.164)" fill="#DEE4E5"/>
<ellipse cx="82.4235" cy="121.111" rx="3.24877" ry="5.27925" transform="rotate(-111.335 82.4235 121.111)" fill="#C4C4C4"/>
<path fill-rule="evenodd" clip-rule="evenodd" d="M220.797 42.8954C221.439 42.9772 222.095 43.0194 222.762 43.0194C230.625 43.0194 237 37.1383 237 29.8835C237 22.842 230.994 17.0945 223.451 16.7627C221.196 13.9084 216.796 11.9707 211.739 11.9707C210.137 11.9707 208.601 12.165 207.179 12.5212C205.183 11.1839 202.608 10.3784 199.796 10.3784C196.672 10.3784 193.839 11.3733 191.769 12.9874C189.396 11.8485 186.451 11.1743 183.262 11.1743C178.82 11.1743 174.853 12.4824 172.242 14.5321C171.425 14.4182 170.585 14.3589 169.728 14.3589C161.594 14.3589 155 19.7054 155 26.3006C155 27.6084 155.259 28.867 155.738 30.0446C155.417 31.0081 155.245 32.0216 155.245 33.0676C155.245 36.049 156.639 38.7663 158.928 40.8147L142 65.9995L167.969 44.5468C168.467 44.5895 168.972 44.6113 169.483 44.6113C170.476 44.6113 171.445 44.529 172.38 44.3722C174.84 46.0141 177.99 47 181.425 47C184.114 47 186.628 46.3957 188.774 45.3456C190.919 46.3957 193.434 47 196.123 47C199.158 47 201.972 46.2299 204.282 44.9175C206.24 45.7394 208.463 46.2036 210.82 46.2036C214.706 46.2036 218.228 44.9415 220.797 42.8954Z" fill="white"/>
<path d="M163.492 24.1995H165.312V32.4595H170.436V33.9995H163.492V24.1995ZM178.664 30.3035C178.664 30.4248 178.655 30.5975 178.636 30.8215H172.77C172.873 31.3722 173.139 31.8108 173.568 32.1375C174.007 32.4548 174.548 32.6135 175.192 32.6135C176.014 32.6135 176.69 32.3428 177.222 31.8015L178.16 32.8795C177.824 33.2808 177.4 33.5842 176.886 33.7895C176.373 33.9948 175.794 34.0975 175.15 34.0975C174.329 34.0975 173.606 33.9342 172.98 33.6075C172.355 33.2808 171.87 32.8282 171.524 32.2495C171.188 31.6615 171.02 30.9988 171.02 30.2615C171.02 29.5335 171.184 28.8802 171.51 28.3015C171.846 27.7135 172.308 27.2562 172.896 26.9295C173.484 26.6028 174.147 26.4395 174.884 26.4395C175.612 26.4395 176.261 26.6028 176.83 26.9295C177.409 27.2468 177.857 27.6995 178.174 28.2875C178.501 28.8662 178.664 29.5382 178.664 30.3035ZM174.884 27.8395C174.324 27.8395 173.848 28.0075 173.456 28.3435C173.074 28.6702 172.84 29.1088 172.756 29.6595H176.998C176.924 29.1182 176.695 28.6795 176.312 28.3435C175.93 28.0075 175.454 27.8395 174.884 27.8395ZM184.839 33.5935C184.634 33.7615 184.382 33.8875 184.083 33.9715C183.794 34.0555 183.486 34.0975 183.159 34.0975C182.338 34.0975 181.703 33.8828 181.255 33.4535C180.807 33.0242 180.583 32.3988 180.583 31.5775V27.9795H179.351V26.5795H180.583V24.8715H182.333V26.5795H184.335V27.9795H182.333V31.5355C182.333 31.8995 182.422 32.1795 182.599 32.3755C182.777 32.5622 183.033 32.6555 183.369 32.6555C183.761 32.6555 184.088 32.5528 184.349 32.3475L184.839 33.5935ZM186.853 23.5135C187.18 23.5135 187.45 23.6208 187.665 23.8355C187.88 24.0502 187.987 24.3255 187.987 24.6615C187.987 24.8295 187.964 24.9928 187.917 25.1515C187.88 25.3102 187.8 25.5482 187.679 25.8655L186.951 27.8535H185.817L186.377 25.6975C186.172 25.6228 186.008 25.4968 185.887 25.3195C185.775 25.1328 185.719 24.9135 185.719 24.6615C185.719 24.3255 185.826 24.0502 186.041 23.8355C186.256 23.6208 186.526 23.5135 186.853 23.5135ZM191.774 34.0975C191.168 34.0975 190.575 34.0182 189.996 33.8595C189.418 33.7008 188.956 33.5002 188.61 33.2575L189.282 31.9275C189.618 32.1515 190.02 32.3335 190.486 32.4735C190.962 32.6042 191.429 32.6695 191.886 32.6695C192.932 32.6695 193.454 32.3942 193.454 31.8435C193.454 31.5822 193.319 31.4002 193.048 31.2975C192.787 31.1948 192.362 31.0968 191.774 31.0035C191.158 30.9102 190.654 30.8028 190.262 30.6815C189.88 30.5602 189.544 30.3502 189.254 30.0515C188.974 29.7435 188.834 29.3188 188.834 28.7775C188.834 28.0682 189.128 27.5035 189.716 27.0835C190.314 26.6542 191.116 26.4395 192.124 26.4395C192.638 26.4395 193.151 26.5002 193.664 26.6215C194.178 26.7335 194.598 26.8875 194.924 27.0835L194.252 28.4135C193.618 28.0402 192.904 27.8535 192.11 27.8535C191.597 27.8535 191.205 27.9328 190.934 28.0915C190.673 28.2408 190.542 28.4415 190.542 28.6935C190.542 28.9735 190.682 29.1742 190.962 29.2955C191.252 29.4075 191.695 29.5148 192.292 29.6175C192.89 29.7108 193.38 29.8182 193.762 29.9395C194.145 30.0608 194.472 30.2662 194.742 30.5555C195.022 30.8448 195.162 31.2555 195.162 31.7875C195.162 32.4875 194.859 33.0475 194.252 33.4675C193.646 33.8875 192.82 34.0975 191.774 34.0975ZM207.959 26.5235V32.8655C207.959 35.4975 206.615 36.8135 203.927 36.8135C203.208 36.8135 202.527 36.7202 201.883 36.5335C201.239 36.3562 200.707 36.0948 200.287 35.7495L201.071 34.4335C201.397 34.7042 201.808 34.9188 202.303 35.0775C202.807 35.2455 203.315 35.3295 203.829 35.3295C204.65 35.3295 205.252 35.1428 205.635 34.7695C206.017 34.3962 206.209 33.8268 206.209 33.0615V32.6695C205.91 32.9962 205.546 33.2435 205.117 33.4115C204.687 33.5795 204.216 33.6635 203.703 33.6635C202.993 33.6635 202.349 33.5142 201.771 33.2155C201.201 32.9075 200.749 32.4782 200.413 31.9275C200.086 31.3768 199.923 30.7468 199.923 30.0375C199.923 29.3282 200.086 28.7028 200.413 28.1615C200.749 27.6108 201.201 27.1862 201.771 26.8875C202.349 26.5888 202.993 26.4395 203.703 26.4395C204.244 26.4395 204.734 26.5282 205.173 26.7055C205.621 26.8828 205.994 27.1535 206.293 27.5175V26.5235H207.959ZM203.969 32.1795C204.631 32.1795 205.173 31.9835 205.593 31.5915C206.022 31.1902 206.237 30.6722 206.237 30.0375C206.237 29.4122 206.022 28.9035 205.593 28.5115C205.173 28.1195 204.631 27.9235 203.969 27.9235C203.297 27.9235 202.746 28.1195 202.317 28.5115C201.897 28.9035 201.687 29.4122 201.687 30.0375C201.687 30.6722 201.897 31.1902 202.317 31.5915C202.746 31.9835 203.297 32.1795 203.969 32.1795ZM213.619 34.0975C212.863 34.0975 212.182 33.9342 211.575 33.6075C210.969 33.2808 210.493 32.8282 210.147 32.2495C209.811 31.6615 209.643 30.9988 209.643 30.2615C209.643 29.5242 209.811 28.8662 210.147 28.2875C210.493 27.7088 210.969 27.2562 211.575 26.9295C212.182 26.6028 212.863 26.4395 213.619 26.4395C214.385 26.4395 215.071 26.6028 215.677 26.9295C216.284 27.2562 216.755 27.7088 217.091 28.2875C217.437 28.8662 217.609 29.5242 217.609 30.2615C217.609 30.9988 217.437 31.6615 217.091 32.2495C216.755 32.8282 216.284 33.2808 215.677 33.6075C215.071 33.9342 214.385 34.0975 213.619 34.0975ZM213.619 32.5995C214.263 32.5995 214.795 32.3848 215.215 31.9555C215.635 31.5262 215.845 30.9615 215.845 30.2615C215.845 29.5615 215.635 28.9968 215.215 28.5675C214.795 28.1382 214.263 27.9235 213.619 27.9235C212.975 27.9235 212.443 28.1382 212.023 28.5675C211.613 28.9968 211.407 29.5615 211.407 30.2615C211.407 30.9615 211.613 31.5262 212.023 31.9555C212.443 32.3848 212.975 32.5995 213.619 32.5995ZM219.059 24.1995H221.131L220.781 30.7515H219.395L219.059 24.1995ZM220.095 34.0975C219.768 34.0975 219.497 33.9948 219.283 33.7895C219.068 33.5748 218.961 33.3135 218.961 33.0055C218.961 32.6975 219.068 32.4408 219.283 32.2355C219.497 32.0302 219.768 31.9275 220.095 31.9275C220.412 31.9275 220.673 32.0302 220.879 32.2355C221.093 32.4408 221.201 32.6975 221.201 33.0055C221.201 33.3135 221.093 33.5748 220.879 33.7895C220.673 33.9948 220.412 34.0975 220.095 34.0975ZM222.955 24.1995H225.027L224.677 30.7515H223.291L222.955 24.1995ZM223.991 34.0975C223.665 34.0975 223.394 33.9948 223.179 33.7895C222.965 33.5748 222.857 33.3135 222.857 33.0055C222.857 32.6975 222.965 32.4408 223.179 32.2355C223.394 32.0302 223.665 31.9275 223.991 31.9275C224.309 31.9275 224.57 32.0302 224.775 32.2355C224.99 32.4408 225.097 32.6975 225.097 33.0055C225.097 33.3135 224.99 33.5748 224.775 33.7895C224.57 33.9948 224.309 34.0975 223.991 34.0975ZM226.852 24.1995H228.924L228.574 30.7515H227.188L226.852 24.1995ZM227.888 34.0975C227.561 34.0975 227.29 33.9948 227.076 33.7895C226.861 33.5748 226.754 33.3135 226.754 33.0055C226.754 32.6975 226.861 32.4408 227.076 32.2355C227.29 32.0302 227.561 31.9275 227.888 31.9275C228.205 31.9275 228.466 32.0302 228.672 32.2355C228.886 32.4408 228.994 32.6975 228.994 33.0055C228.994 33.3135 228.886 33.5748 228.672 33.7895C228.466 33.9948 228.205 34.0975 227.888 34.0975Z" fill="#272727"/>
</svg>
