<svg width="1499" height="715" viewBox="0 0 1499 715" fill="none" xmlns="http://www.w3.org/2000/svg">
<g style="mix-blend-mode:overlay" opacity="0.6">
<path d="M1194.84 676.148C1195.9 675.113 1197.24 674.412 1198.69 674.134C1200.15 673.856 1201.65 674.013 1203.02 674.584C1204.38 675.156 1205.55 676.117 1206.37 677.348C1207.19 678.578 1207.62 680.022 1207.62 681.5C1207.62 682.977 1207.19 684.422 1206.37 685.652C1205.55 686.883 1204.38 687.844 1203.02 688.416C1201.65 688.987 1200.15 689.144 1198.69 688.866C1197.24 688.588 1195.9 687.887 1194.84 686.852C1194.14 686.149 1193.58 685.315 1193.2 684.397C1192.82 683.478 1192.62 682.494 1192.62 681.5C1192.62 680.506 1192.82 679.522 1193.2 678.603C1193.58 677.685 1194.14 676.85 1194.84 676.148Z" fill="#CCCFD0"/>
</g>
<g style="mix-blend-mode:overlay" opacity="0.6">
<path d="M1485.29 137.042C1485.61 136.715 1485.99 136.455 1486.42 136.276C1486.84 136.097 1487.29 136.003 1487.75 136C1488.21 135.997 1488.67 136.084 1489.1 136.257C1489.52 136.43 1489.91 136.685 1490.24 137.008C1490.56 137.331 1490.82 137.715 1491 138.138C1491.18 138.562 1491.28 139.016 1491.28 139.476C1491.28 139.936 1491.19 140.391 1491.02 140.817C1490.85 141.243 1490.59 141.631 1490.27 141.958C1489.95 142.285 1489.56 142.545 1489.14 142.724C1488.72 142.903 1488.26 142.997 1487.8 143C1487.34 143.003 1486.89 142.916 1486.46 142.743C1486.04 142.57 1485.65 142.315 1485.32 141.992C1484.99 141.669 1484.73 141.285 1484.55 140.862C1484.38 140.438 1484.28 139.984 1484.28 139.524C1484.28 139.064 1484.36 138.609 1484.54 138.183C1484.71 137.757 1484.96 137.369 1485.29 137.042Z" fill="#CCCFD0"/>
</g>
<g style="mix-blend-mode:overlay" opacity="0.6">
<path d="M1190.39 340.228C1190.76 339.85 1191.19 339.546 1191.67 339.336C1192.16 339.125 1192.67 339.011 1193.2 339.001C1193.72 338.99 1194.25 339.084 1194.74 339.275C1195.22 339.466 1195.67 339.752 1196.05 340.116C1196.43 340.48 1196.73 340.915 1196.94 341.396C1197.15 341.877 1197.27 342.395 1197.28 342.921C1197.29 343.446 1197.19 343.968 1197 344.457C1196.81 344.946 1196.53 345.393 1196.16 345.772C1195.43 346.537 1194.42 346.978 1193.36 346.999C1192.3 347.02 1191.27 346.619 1190.51 345.884C1189.74 345.149 1189.3 344.14 1189.28 343.079C1189.26 342.019 1189.66 340.993 1190.39 340.228Z" fill="#CCCFD0"/>
</g>
<g style="mix-blend-mode:overlay" opacity="0.6">
<path d="M1152.85 309.603C1153.89 308.576 1155.3 308 1156.76 308C1158.22 308 1159.63 308.576 1160.67 309.603C1161.7 310.635 1162.28 312.032 1162.28 313.488C1162.28 314.944 1161.7 316.341 1160.67 317.373C1160.16 317.888 1159.56 318.297 1158.9 318.577C1158.23 318.856 1157.52 319 1156.8 319C1156.07 319 1155.36 318.856 1154.7 318.577C1154.03 318.297 1153.43 317.888 1152.93 317.373C1151.88 316.35 1151.29 314.958 1151.28 313.502C1151.27 312.047 1151.83 310.644 1152.85 309.603Z" fill="#CCCFD0"/>
</g>
<g style="mix-blend-mode:overlay" opacity="0.6">
<path d="M1017.27 110.986C1017.75 110.403 1018.35 109.927 1019.03 109.586C1019.71 109.246 1020.45 109.049 1021.2 109.008C1021.96 108.967 1022.72 109.083 1023.43 109.348C1024.13 109.613 1024.78 110.022 1025.33 110.549C1025.87 111.076 1026.3 111.71 1026.59 112.411C1026.88 113.112 1027.02 113.865 1027 114.622C1026.98 115.38 1026.81 116.125 1026.49 116.813C1026.17 117.5 1025.71 118.114 1025.15 118.617C1024.11 119.536 1022.76 120.029 1021.38 119.999C1019.99 119.968 1018.67 119.415 1017.67 118.451C1016.68 117.486 1016.08 116.182 1016.01 114.798C1015.93 113.414 1016.38 112.053 1017.27 110.986Z" fill="#CCCFD0"/>
</g>
<g style="mix-blend-mode:overlay" opacity="0.6">
<path d="M826.025 594.374C826.727 593.625 827.574 593.028 828.516 592.619C829.458 592.211 830.473 592 831.5 592C832.526 592 833.542 592.211 834.484 592.619C835.426 593.028 836.273 593.625 836.975 594.374C837.974 595.442 838.64 596.778 838.89 598.219C839.14 599.66 838.963 601.142 838.381 602.484C837.799 603.826 836.838 604.968 835.615 605.77C834.393 606.573 832.962 607 831.5 607C830.038 607 828.607 606.573 827.385 605.77C826.162 604.968 825.201 603.826 824.619 602.484C824.037 601.142 823.86 599.66 824.11 598.219C824.36 596.778 825.026 595.442 826.025 594.374Z" fill="#CCCFD0"/>
</g>
<g style="mix-blend-mode:overlay" opacity="0.6">
<path d="M912.286 365.042C912.938 364.381 913.826 364.006 914.754 364C915.682 363.994 916.575 364.356 917.236 365.008C917.897 365.66 918.272 366.548 918.278 367.476C918.285 368.404 917.922 369.297 917.27 369.958C916.618 370.619 915.731 370.994 914.802 371C913.874 371.006 912.981 370.644 912.321 369.992C911.66 369.34 911.285 368.453 911.278 367.524C911.272 366.596 911.635 365.703 912.286 365.042Z" fill="#CCCFD0"/>
</g>
<path opacity="0.6" d="M1194.84 676.148C1195.9 675.113 1197.24 674.412 1198.69 674.134C1200.15 673.856 1201.65 674.013 1203.02 674.584C1204.38 675.156 1205.55 676.117 1206.37 677.348C1207.19 678.578 1207.62 680.022 1207.62 681.5C1207.62 682.977 1207.19 684.422 1206.37 685.652C1205.55 686.883 1204.38 687.844 1203.02 688.416C1201.65 688.987 1200.15 689.144 1198.69 688.866C1197.24 688.588 1195.9 687.887 1194.84 686.852C1194.14 686.149 1193.58 685.315 1193.2 684.397C1192.82 683.478 1192.62 682.494 1192.62 681.5C1192.62 680.506 1192.82 679.522 1193.2 678.603C1193.58 677.685 1194.14 676.85 1194.84 676.148Z" fill="#CCCFD0"/>
<path opacity="0.6" d="M926.141 474.159C926.9 473.416 927.922 473 928.987 473C930.052 473 931.075 473.416 931.834 474.159C932.581 474.913 933 475.928 933 476.987C933 478.045 932.581 479.06 931.834 479.814C931.462 480.19 931.019 480.488 930.53 480.692C930.042 480.895 929.517 481 928.987 481C928.457 481 927.933 480.895 927.444 480.692C926.955 480.488 926.512 480.19 926.141 479.814C925.408 479.053 925 478.04 925 476.987C925 475.933 925.408 474.92 926.141 474.159Z" fill="white"/>
<path opacity="0.6" d="M1485.29 137.042C1485.61 136.715 1485.99 136.455 1486.42 136.276C1486.84 136.097 1487.29 136.003 1487.75 136C1488.21 135.997 1488.67 136.084 1489.1 136.257C1489.52 136.43 1489.91 136.685 1490.24 137.008C1490.56 137.331 1490.82 137.715 1491 138.138C1491.18 138.562 1491.28 139.016 1491.28 139.476C1491.28 139.936 1491.19 140.391 1491.02 140.817C1490.85 141.243 1490.59 141.631 1490.27 141.958C1489.95 142.285 1489.56 142.545 1489.14 142.724C1488.72 142.903 1488.26 142.997 1487.8 143C1487.34 143.003 1486.89 142.916 1486.46 142.743C1486.04 142.57 1485.65 142.315 1485.32 141.992C1484.99 141.669 1484.73 141.285 1484.55 140.862C1484.38 140.438 1484.28 139.984 1484.28 139.524C1484.28 139.064 1484.36 138.609 1484.54 138.183C1484.71 137.757 1484.96 137.369 1485.29 137.042Z" fill="#CCCFD0"/>
<path opacity="0.6" d="M1489.65 268.606C1490.16 268.097 1490.76 267.693 1491.42 267.418C1492.08 267.142 1492.79 267 1493.51 267C1494.23 267 1494.94 267.142 1495.61 267.418C1496.27 267.693 1496.87 268.097 1497.37 268.606C1497.89 269.114 1498.3 269.719 1498.58 270.385C1498.86 271.052 1499 271.766 1499 272.487C1499 273.209 1498.86 273.923 1498.58 274.589C1498.3 275.255 1497.89 275.86 1497.37 276.369C1496.87 276.885 1496.26 277.295 1495.6 277.575C1494.93 277.856 1494.21 278 1493.49 278C1492.76 278 1492.05 277.856 1491.38 277.575C1490.71 277.295 1490.11 276.885 1489.6 276.369C1489.09 275.857 1488.68 275.249 1488.41 274.581C1488.13 273.914 1488 273.198 1488 272.477C1488 271.755 1488.15 271.042 1488.44 270.378C1488.72 269.713 1489.13 269.111 1489.65 268.606Z" fill="white"/>
<path opacity="0.6" d="M1136.85 100.889C1137.55 100.041 1138.42 99.3479 1139.41 98.8528C1140.39 98.3577 1141.47 98.0714 1142.57 98.0117C1143.67 97.9521 1144.77 98.1204 1145.8 98.5062C1146.83 98.8919 1147.77 99.4867 1148.57 100.253C1149.36 101.02 1149.98 101.942 1150.4 102.962C1150.82 103.981 1151.02 105.076 1151 106.178C1150.97 107.279 1150.72 108.364 1150.26 109.364C1149.79 110.364 1149.13 111.257 1148.3 111.988C1146.8 113.325 1144.84 114.043 1142.82 113.998C1140.81 113.953 1138.88 113.149 1137.43 111.746C1135.99 110.344 1135.12 108.446 1135.01 106.433C1134.9 104.42 1135.56 102.44 1136.85 100.889Z" fill="#CCCFD0"/>
<path opacity="0.6" d="M912.286 365.042C912.938 364.381 913.826 364.006 914.754 364C915.682 363.994 916.575 364.356 917.236 365.008C917.897 365.66 918.272 366.548 918.278 367.476C918.285 368.404 917.922 369.297 917.27 369.958C916.618 370.619 915.731 370.994 914.802 371C913.874 371.006 912.981 370.644 912.321 369.992C911.66 369.34 911.285 368.453 911.278 367.524C911.272 366.596 911.635 365.703 912.286 365.042Z" fill="white"/>
<g style="mix-blend-mode:overlay" opacity="0.6">
<path d="M498.869 635.879C499.289 635.46 499.825 635.174 500.408 635.058C500.991 634.942 501.595 635.001 502.144 635.228C502.694 635.455 503.163 635.84 503.493 636.333C503.824 636.827 504 637.407 504 638C504 638.593 503.824 639.174 503.493 639.667C503.163 640.16 502.694 640.545 502.144 640.772C501.595 640.999 500.991 641.058 500.408 640.942C499.825 640.826 499.289 640.54 498.869 640.121C498.312 639.555 498 638.793 498 638C498 637.207 498.312 636.445 498.869 635.879Z" fill="#CCCFD0"/>
</g>
<g style="mix-blend-mode:overlay" opacity="0.6">
<path d="M764.536 590.046C764.737 589.759 764.997 589.518 765.3 589.34C765.602 589.162 765.94 589.051 766.29 589.014C766.639 588.977 766.993 589.015 767.327 589.126C767.66 589.236 767.966 589.417 768.223 589.656C768.48 589.894 768.682 590.185 768.816 590.508C768.949 590.831 769.012 591.179 768.998 591.528C768.985 591.877 768.896 592.219 768.737 592.531C768.579 592.843 768.355 593.118 768.08 593.336C767.635 593.762 767.042 594 766.424 594C765.806 594 765.213 593.762 764.768 593.336C764.321 592.916 764.049 592.345 764.006 591.736C763.963 591.126 764.152 590.523 764.536 590.046Z" fill="#CCCFD0"/>
</g>
<g style="mix-blend-mode:overlay" opacity="0.6">
<path d="M603.025 606.025C603.515 605.535 604.139 605.202 604.818 605.067C605.496 604.932 606.2 605.002 606.84 605.266C607.479 605.531 608.026 605.98 608.41 606.556C608.795 607.131 609 607.808 609 608.5C609 609.192 608.795 609.869 608.41 610.444C608.026 611.02 607.479 611.469 606.84 611.733C606.2 611.998 605.496 612.068 604.818 611.933C604.139 611.798 603.515 611.465 603.025 610.975C602.7 610.65 602.443 610.264 602.267 609.84C602.091 609.415 602 608.96 602 608.5C602 608.04 602.091 607.585 602.267 607.16C602.443 606.736 602.7 606.35 603.025 606.025Z" fill="#CCCFD0"/>
</g>
<path opacity="0.6" d="M405.159 628.172C405.719 627.613 406.433 627.232 407.21 627.077C407.988 626.922 408.793 627.002 409.526 627.304C410.258 627.607 410.884 628.12 411.325 628.778C411.765 629.435 412 630.209 412 631C412 631.791 411.765 632.565 411.325 633.223C410.884 633.88 410.258 634.393 409.526 634.696C408.793 634.999 407.988 635.077 407.21 634.923C406.433 634.768 405.719 634.387 405.159 633.828C404.416 633.073 404 632.058 404 631C404 629.942 404.416 628.927 405.159 628.172Z" fill="#CCCFD0"/>
<path opacity="0.6" d="M714.536 515.046C714.737 514.759 714.997 514.518 715.3 514.34C715.602 514.162 715.94 514.051 716.29 514.014C716.639 513.977 716.993 514.015 717.327 514.126C717.66 514.236 717.966 514.417 718.223 514.656C718.48 514.894 718.682 515.185 718.816 515.508C718.949 515.831 719.012 516.179 718.998 516.528C718.985 516.877 718.896 517.219 718.737 517.531C718.579 517.843 718.355 518.118 718.08 518.336C717.635 518.762 717.042 519 716.424 519C715.806 519 715.213 518.762 714.768 518.336C714.321 517.916 714.049 517.345 714.006 516.736C713.963 516.126 714.152 515.523 714.536 515.046Z" fill="#CCCFD0"/>
<path opacity="0.6" d="M600.025 516.025C600.515 515.535 601.139 515.202 601.818 515.067C602.496 514.932 603.2 515.002 603.84 515.266C604.479 515.531 605.026 515.98 605.41 516.556C605.795 517.131 606 517.808 606 518.5C606 519.192 605.795 519.869 605.41 520.444C605.026 521.02 604.479 521.469 603.84 521.733C603.2 521.998 602.496 522.068 601.818 521.933C601.139 521.798 600.515 521.465 600.025 520.975C599.7 520.65 599.443 520.264 599.267 519.84C599.091 519.415 599 518.96 599 518.5C599 518.04 599.091 517.585 599.267 517.16C599.443 516.736 599.7 516.35 600.025 516.025Z" fill="#CCCFD0"/>
<g style="mix-blend-mode:overlay" opacity="0.6">
<path d="M457.45 681.581C457.307 681.442 457.194 681.276 457.117 681.093C457.04 680.909 457 680.713 457 680.514C457 680.315 457.04 680.118 457.117 679.935C457.194 679.752 457.307 679.586 457.45 679.447C457.586 679.306 457.749 679.193 457.929 679.116C458.11 679.04 458.304 679 458.5 679C458.696 679 458.89 679.04 459.071 679.116C459.251 679.193 459.414 679.306 459.55 679.447C459.693 679.586 459.806 679.752 459.883 679.935C459.96 680.118 460 680.315 460 680.514C460 680.713 459.96 680.909 459.883 681.093C459.806 681.276 459.693 681.442 459.55 681.581C459.267 681.85 458.891 682 458.5 682C458.109 682 457.733 681.85 457.45 681.581Z" fill="#CCCFD0"/>
</g>
<path opacity="0.6" d="M550.45 714.581C550.307 714.442 550.194 714.276 550.117 714.093C550.04 713.909 550 713.713 550 713.514C550 713.315 550.04 713.118 550.117 712.935C550.194 712.752 550.307 712.586 550.45 712.447C550.586 712.306 550.749 712.193 550.929 712.116C551.11 712.04 551.304 712 551.5 712C551.696 712 551.89 712.04 552.071 712.116C552.251 712.193 552.414 712.306 552.55 712.447C552.693 712.586 552.806 712.752 552.883 712.935C552.96 713.118 553 713.315 553 713.514C553 713.713 552.96 713.909 552.883 714.093C552.806 714.276 552.693 714.442 552.55 714.581C552.267 714.85 551.891 715 551.5 715C551.109 715 550.733 714.85 550.45 714.581Z" fill="#CCCFD0"/>
<path d="M428.18 242.097C428.95 242.996 429.437 244.103 429.579 245.278C429.722 246.454 429.513 247.645 428.98 248.702C428.447 249.759 427.613 250.635 426.583 251.219C425.553 251.803 424.374 252.069 423.193 251.985C422.012 251.9 420.882 251.467 419.947 250.742C419.011 250.016 418.311 249.03 417.934 247.907C417.558 246.785 417.522 245.576 417.831 244.433C418.14 243.29 418.781 242.264 419.672 241.485C420.269 240.962 420.963 240.563 421.716 240.311C422.468 240.059 423.262 239.959 424.054 240.015C424.845 240.072 425.617 240.286 426.325 240.643C427.033 241 427.664 241.494 428.18 242.097Z" fill="#05E0E9" stroke="white" stroke-width="2" stroke-miterlimit="10"/>
<g opacity="0.32">
<path style="mix-blend-mode:screen" opacity="0.32" d="M214.5 214.5C253.988 175.012 253.988 110.988 214.5 71.5C175.012 32.0116 110.988 32.0117 71.5 71.5C32.0116 110.988 32.0116 175.012 71.5 214.5C110.988 253.988 175.012 253.988 214.5 214.5Z" fill="url(#paint0_radial)"/>
<path style="mix-blend-mode:color-dodge" opacity="0.32" d="M228.509 142.997C228.509 159.886 223.501 176.396 214.118 190.439C204.735 204.482 191.398 215.427 175.795 221.89C160.191 228.353 143.022 230.044 126.457 226.749C109.893 223.454 94.677 215.321 82.7346 203.379C70.7922 191.437 62.6594 176.221 59.3645 159.657C56.0696 143.092 57.7606 125.922 64.2238 110.319C70.687 94.7154 81.632 81.3789 95.6748 71.9958C109.718 62.6127 126.227 57.6045 143.116 57.6045C165.764 57.6045 187.484 66.6013 203.498 82.6155C219.512 98.6298 228.509 120.35 228.509 142.997Z" fill="url(#paint1_radial)"/>
</g>
<path opacity="0.06" d="M141.585 228.351C188.685 228.351 226.868 190.169 226.868 143.068C226.868 95.9676 188.685 57.7852 141.585 57.7852C94.4842 57.7852 56.3018 95.9676 56.3018 143.068C56.3018 190.169 94.4842 228.351 141.585 228.351Z" fill="white"/>
<path opacity="0.06" d="M141.275 248.277C198.39 248.277 244.69 201.977 244.69 144.862C244.69 87.747 198.39 41.4463 141.275 41.4463C84.1601 41.4463 37.8594 87.747 37.8594 144.862C37.8594 201.977 84.1601 248.277 141.275 248.277Z" fill="white"/>
<path opacity="0.06" d="M208.536 143.068C208.536 156.31 204.609 169.254 197.253 180.264C189.896 191.274 179.44 199.856 167.206 204.923C154.972 209.99 141.511 211.316 128.523 208.733C115.536 206.15 103.607 199.773 94.2433 190.41C84.88 181.047 78.5036 169.117 75.9203 156.13C73.337 143.143 74.6627 129.681 79.7301 117.447C84.7975 105.214 93.3788 94.7572 104.389 87.4005C115.399 80.0438 128.343 76.1172 141.585 76.1172C159.341 76.1172 176.371 83.171 188.926 95.7268C201.482 108.283 208.536 125.312 208.536 143.068Z" fill="white"/>
<path d="M189.641 106.668C184.621 100.165 178.321 94.7611 171.132 90.7883C163.942 86.8156 156.015 84.3587 147.839 83.5693C139.663 82.7798 131.413 83.6746 123.596 86.1983C115.779 88.722 108.563 92.8211 102.391 98.2428C96.22 103.664 91.2246 110.294 87.7137 117.721C84.2028 125.149 82.2507 133.217 81.978 141.429C81.7052 149.64 83.1176 157.82 86.1279 165.465C89.1382 173.109 93.6825 180.055 99.4806 185.875C101.797 188.162 104.293 190.26 106.944 192.149C118.671 200.472 132.991 204.317 147.309 202.987C161.626 201.658 174.994 195.242 184.989 184.903C194.985 174.563 200.947 160.984 201.794 146.626C202.642 132.268 198.319 118.081 189.61 106.636L189.641 106.668Z" fill="url(#paint2_linear)"/>
<path d="M201.898 143.646C201.905 128.185 196.005 113.31 185.412 102.083C174.82 90.8553 160.341 84.1297 144.956 83.2905L135.309 92.2461C135.309 92.2461 130.689 96.2509 132.638 99.3412C134.586 102.431 142.317 95.7779 138.388 116.306C134.46 136.835 154.698 134.943 154.698 134.943C154.698 134.943 175.124 133.429 170.41 157.016C167.268 172.783 180.435 178.238 189.674 180.131C193.943 174.497 197.197 168.158 199.29 161.399C201.043 155.647 201.922 149.662 201.898 143.646Z" fill="url(#paint3_linear)"/>
<path d="M139.968 181.659C141.593 176.497 141.593 170.967 139.968 165.806C137.139 158.399 126.503 157.108 126.503 157.108C126.503 157.108 118.017 156.659 115.698 149.336C113.378 142.013 102.799 142.265 102.799 142.265L95.7554 141.873C97.0466 153.403 102.06 164.21 110.047 172.685C118.035 181.159 128.57 186.846 140.081 188.898C139.57 186.515 139.531 184.056 139.968 181.659Z" fill="url(#paint4_linear)"/>
<g style="mix-blend-mode:multiply" opacity="0.15">
<path d="M189.74 107.082L188.169 105.209C193.042 117.209 193.87 130.455 190.528 142.962C187.185 155.468 179.854 166.561 169.633 174.575C159.411 182.589 146.852 187.093 133.837 187.411C120.823 187.728 108.056 183.843 97.4512 176.338C94.7781 174.467 92.2669 172.379 89.9438 170.093C88.5931 168.75 87.3051 167.345 86.0801 165.909C89.1251 173.424 93.6782 180.245 99.4616 185.955C101.789 188.224 104.288 190.312 106.938 192.199C118.684 200.484 133.028 204.311 147.369 202.988C161.71 201.665 175.1 195.279 185.112 184.987C195.123 174.695 201.095 161.179 201.944 146.887C202.793 132.595 198.463 118.474 189.74 107.082Z" fill="#230753"/>
</g>
<path d="M217.887 127.195C215.352 116.058 210.446 105.551 203.48 96.3362C196.514 87.1216 187.638 79.4009 177.416 73.6627C167.193 67.9246 155.846 64.2938 144.092 63.0002C132.338 61.7067 120.433 62.7784 109.131 66.1478" stroke="white" stroke-width="2" stroke-miterlimit="10" stroke-linecap="round"/>
<path d="M152.712 224.192C170.816 221.277 187.407 212.463 199.716 199.219C212.025 185.976 219.306 169.106 220.345 151.426" stroke="white" stroke-width="2" stroke-miterlimit="10" stroke-linecap="round"/>
<defs>
<radialGradient id="paint0_radial" cx="0" cy="0" r="1" gradientUnits="userSpaceOnUse" gradientTransform="translate(73798.1 69019.4) scale(7243.97)">
<stop stop-color="white"/>
<stop offset="0.56" stop-color="#4072B6"/>
<stop offset="0.6" stop-color="#31588D"/>
<stop offset="0.63" stop-color="#244167"/>
<stop offset="0.68" stop-color="#192D47"/>
<stop offset="0.72" stop-color="#101C2D"/>
<stop offset="0.77" stop-color="#091019"/>
<stop offset="0.82" stop-color="#04070B"/>
<stop offset="0.89" stop-color="#010202"/>
<stop offset="1"/>
</radialGradient>
<radialGradient id="paint1_radial" cx="0" cy="0" r="1" gradientUnits="userSpaceOnUse" gradientTransform="translate(62344.9 58309.1) scale(5166.26)">
<stop stop-color="white"/>
<stop offset="0.56" stop-color="#4072B6"/>
<stop offset="0.6" stop-color="#31588D"/>
<stop offset="0.63" stop-color="#244167"/>
<stop offset="0.68" stop-color="#192D47"/>
<stop offset="0.72" stop-color="#101C2D"/>
<stop offset="0.77" stop-color="#091019"/>
<stop offset="0.82" stop-color="#04070B"/>
<stop offset="0.89" stop-color="#010202"/>
<stop offset="1"/>
</radialGradient>
<linearGradient id="paint2_linear" x1="81.6993" y1="143.181" x2="201.966" y2="143.181" gradientUnits="userSpaceOnUse">
<stop stop-color="#00FFDF"/>
<stop offset="1" stop-color="#379FCD"/>
</linearGradient>
<linearGradient id="paint3_linear" x1="25516.4" y1="32827.8" x2="27063.9" y2="32827.8" gradientUnits="userSpaceOnUse">
<stop stop-color="#41FFE7"/>
<stop offset="1" stop-color="#00C3D4"/>
</linearGradient>
<linearGradient id="paint4_linear" x1="15789.9" y1="16712.6" x2="16520.5" y2="16712.6" gradientUnits="userSpaceOnUse">
<stop stop-color="#00FFDF"/>
<stop offset="1" stop-color="#00C3D4"/>
</linearGradient>
</defs>
</svg>
