<svg width="1153" height="180" viewBox="0 0 1153 180" fill="none" xmlns="http://www.w3.org/2000/svg">
<path d="M56.5496 14.462C60.4624 5.68942 69.229 0.0948353 78.8335 0.241063L1117.54 16.0552C1133.07 16.2916 1144.28 30.9854 1140.42 46.0244L1110.81 161.291C1108 172.215 1097.97 179.71 1086.7 179.304L36.0399 141.408C19.0412 140.795 8.05754 123.182 14.9864 107.648L56.5496 14.462Z" fill="#D9D9D9"/>
<path d="M63.1623 14.8131C67.0166 6.15111 75.6088 0.569824 85.0897 0.569824H1121.55C1137.23 0.569824 1148.7 15.3568 1144.8 30.5417L1115.31 145.336C1112.5 156.262 1102.46 163.758 1091.19 163.348L49.9933 125.469C33.0071 124.851 22.0287 107.257 28.9386 91.7279L63.1623 14.8131Z" fill="white"/>
</svg>
