<svg width="680" height="457" viewBox="0 0 680 457" fill="none" xmlns="http://www.w3.org/2000/svg">
<g style="mix-blend-mode:overlay" opacity="0.6">
<path d="M490.913 358.883C491.569 358.24 492.4 357.806 493.303 357.633C494.205 357.46 495.139 357.558 495.986 357.913C496.833 358.267 497.556 358.864 498.065 359.628C498.574 360.392 498.845 361.288 498.845 362.205C498.845 363.122 498.574 364.019 498.065 364.783C497.556 365.547 496.833 366.143 495.986 366.498C495.139 366.853 494.205 366.95 493.303 366.778C492.4 366.605 491.569 366.17 490.913 365.528C490.476 365.091 490.129 364.574 489.893 364.004C489.656 363.433 489.534 362.822 489.534 362.205C489.534 361.588 489.656 360.977 489.893 360.407C490.129 359.837 490.476 359.319 490.913 358.883Z" fill="#CCCFD0"/>
</g>
<g style="mix-blend-mode:overlay" opacity="0.6">
<path d="M671.204 24.2353C671.404 24.0322 671.643 23.8705 671.905 23.7595C672.168 23.6485 672.45 23.5904 672.736 23.5884C673.021 23.5865 673.304 23.6407 673.568 23.748C673.833 23.8554 674.073 24.0138 674.276 24.2141C674.48 24.4145 674.641 24.6529 674.752 24.9157C674.863 25.1786 674.921 25.4607 674.923 25.7461C674.925 26.0314 674.871 26.3142 674.764 26.5786C674.656 26.8429 674.498 27.0835 674.297 27.2866C674.097 27.4898 673.859 27.6514 673.596 27.7624C673.333 27.8734 673.051 27.9316 672.766 27.9335C672.48 27.9355 672.198 27.8813 671.933 27.774C671.669 27.6666 671.428 27.5082 671.225 27.3078C671.022 27.1075 670.86 26.8691 670.749 26.6062C670.638 26.3434 670.58 26.0612 670.578 25.7759C670.576 25.4906 670.63 25.2078 670.738 24.9434C670.845 24.6791 671.004 24.4385 671.204 24.2353Z" fill="#CCCFD0"/>
</g>
<g style="mix-blend-mode:overlay" opacity="0.6">
<path d="M488.151 150.362C488.377 150.127 488.647 149.939 488.945 149.808C489.244 149.677 489.566 149.607 489.892 149.6C490.218 149.594 490.542 149.651 490.845 149.77C491.149 149.889 491.426 150.066 491.661 150.292C491.897 150.518 492.085 150.788 492.216 151.087C492.346 151.386 492.417 151.707 492.423 152.033C492.43 152.359 492.372 152.683 492.253 152.987C492.135 153.291 491.957 153.568 491.731 153.803C491.275 154.278 490.649 154.552 489.99 154.565C489.332 154.578 488.695 154.329 488.221 153.873C487.746 153.417 487.472 152.79 487.458 152.132C487.445 151.473 487.694 150.837 488.151 150.362Z" fill="#CCCFD0"/>
</g>
<g style="mix-blend-mode:overlay" opacity="0.6">
<path d="M464.849 131.351C465.493 130.714 466.365 130.356 467.273 130.356C468.182 130.356 469.054 130.714 469.698 131.351C470.339 131.992 470.698 132.859 470.698 133.763C470.698 134.667 470.339 135.534 469.698 136.175C469.386 136.494 469.012 136.748 468.6 136.922C468.187 137.095 467.743 137.185 467.295 137.185C466.847 137.185 466.404 137.095 465.991 136.922C465.579 136.748 465.205 136.494 464.893 136.175C464.246 135.54 463.879 134.676 463.87 133.772C463.862 132.868 464.214 131.998 464.849 131.351Z" fill="#CCCFD0"/>
</g>
<g style="mix-blend-mode:overlay" opacity="0.6">
<path d="M380.684 8.06107C380.985 7.69926 381.356 7.40337 381.777 7.19207C382.197 6.98077 382.656 6.85859 383.126 6.83313C383.595 6.80767 384.065 6.87951 384.506 7.04414C384.946 7.20877 385.348 7.4626 385.686 7.7898C386.024 8.117 386.29 8.51049 386.469 8.94555C386.648 9.38061 386.734 9.84786 386.724 10.318C386.713 10.7882 386.606 11.2512 386.408 11.6779C386.21 12.1045 385.927 12.4858 385.575 12.7977C384.931 13.3682 384.095 13.6746 383.235 13.6555C382.375 13.6364 381.553 13.2932 380.935 12.6946C380.317 12.096 379.948 11.2861 379.901 10.427C379.855 9.56791 380.134 8.72296 380.684 8.06107Z" fill="#CCCFD0"/>
</g>
<g style="mix-blend-mode:overlay" opacity="0.6">
<path d="M209.745 114.209C210.045 113.847 210.417 113.551 210.837 113.34C211.257 113.129 211.717 113.007 212.186 112.981C212.656 112.956 213.126 113.027 213.566 113.192C214.007 113.357 214.409 113.611 214.746 113.938C215.084 114.265 215.351 114.658 215.529 115.094C215.708 115.529 215.795 115.996 215.784 116.466C215.774 116.936 215.666 117.399 215.469 117.826C215.271 118.252 214.987 118.634 214.635 118.946C213.991 119.516 213.155 119.823 212.295 119.803C211.435 119.784 210.614 119.441 209.996 118.843C209.378 118.244 209.009 117.434 208.962 116.575C208.915 115.716 209.195 114.871 209.745 114.209Z" fill="#CCCFD0"/>
</g>
<g style="mix-blend-mode:overlay" opacity="0.6">
<path d="M261.97 308.122C262.405 307.657 262.932 307.286 263.516 307.033C264.101 306.779 264.731 306.648 265.368 306.648C266.006 306.648 266.636 306.779 267.221 307.033C267.805 307.286 268.332 307.657 268.767 308.122C269.387 308.785 269.801 309.614 269.956 310.509C270.111 311.403 270.001 312.323 269.64 313.156C269.279 313.989 268.682 314.698 267.923 315.196C267.164 315.694 266.276 315.96 265.368 315.96C264.461 315.96 263.573 315.694 262.814 315.196C262.055 314.698 261.458 313.989 261.097 313.156C260.736 312.323 260.626 311.403 260.781 310.509C260.936 309.614 261.35 308.785 261.97 308.122Z" fill="#CCCFD0"/>
</g>
<g style="mix-blend-mode:overlay" opacity="0.6">
<path d="M315.516 165.765C315.921 165.355 316.472 165.122 317.048 165.118C317.624 165.114 318.179 165.339 318.589 165.744C318.999 166.149 319.232 166.7 319.236 167.276C319.24 167.852 319.015 168.406 318.61 168.816C318.205 169.227 317.654 169.459 317.078 169.463C316.502 169.467 315.948 169.242 315.538 168.838C315.127 168.433 314.895 167.882 314.891 167.306C314.887 166.73 315.112 166.175 315.516 165.765Z" fill="#CCCFD0"/>
</g>
<path opacity="0.6" d="M490.913 358.883C491.569 358.24 492.4 357.806 493.303 357.633C494.205 357.46 495.139 357.558 495.986 357.913C496.833 358.267 497.556 358.864 498.065 359.628C498.574 360.392 498.845 361.288 498.845 362.205C498.845 363.122 498.574 364.019 498.065 364.783C497.556 365.547 496.833 366.143 495.986 366.498C495.139 366.853 494.205 366.95 493.303 366.778C492.4 366.605 491.569 366.17 490.913 365.528C490.476 365.091 490.129 364.574 489.893 364.004C489.656 363.433 489.534 362.822 489.534 362.205C489.534 361.588 489.656 360.977 489.893 360.407C490.129 359.837 490.476 359.319 490.913 358.883Z" fill="#CCCFD0"/>
<path opacity="0.6" d="M324.116 233.499C324.587 233.038 325.222 232.779 325.883 232.779C326.544 232.779 327.179 233.038 327.65 233.499C328.114 233.967 328.374 234.597 328.374 235.254C328.374 235.911 328.114 236.541 327.65 237.009C327.42 237.242 327.145 237.428 326.841 237.554C326.538 237.68 326.212 237.745 325.883 237.745C325.554 237.745 325.229 237.68 324.925 237.554C324.622 237.428 324.347 237.242 324.116 237.009C323.662 236.536 323.408 235.908 323.408 235.254C323.408 234.6 323.662 233.971 324.116 233.499Z" fill="white"/>
<path opacity="0.6" d="M34.6152 252.121C35.0863 251.66 35.721 251.402 36.3822 251.402C37.0434 251.402 37.6781 251.66 38.1492 252.121C38.6131 252.589 38.8732 253.22 38.8732 253.876C38.8732 254.533 38.6131 255.164 38.1492 255.632C37.9186 255.865 37.6436 256.05 37.3402 256.176C37.0368 256.303 36.7112 256.368 36.3822 256.368C36.0533 256.368 35.7276 256.303 35.4242 256.176C35.1208 256.05 34.8458 255.865 34.6152 255.632C34.1608 255.159 33.9072 254.53 33.9072 253.876C33.9072 253.223 34.1608 252.594 34.6152 252.121Z" fill="white"/>
<path opacity="0.6" d="M671.204 24.2353C671.404 24.0322 671.643 23.8705 671.905 23.7595C672.168 23.6485 672.45 23.5904 672.736 23.5884C673.021 23.5865 673.304 23.6407 673.568 23.748C673.833 23.8554 674.073 24.0138 674.276 24.2141C674.48 24.4145 674.641 24.6529 674.752 24.9157C674.863 25.1786 674.921 25.4607 674.923 25.7461C674.925 26.0314 674.871 26.3142 674.764 26.5786C674.656 26.8429 674.498 27.0835 674.297 27.2866C674.097 27.4898 673.859 27.6514 673.596 27.7624C673.333 27.8734 673.051 27.9316 672.766 27.9335C672.48 27.9355 672.198 27.8813 671.933 27.774C671.669 27.6666 671.428 27.5082 671.225 27.3078C671.022 27.1075 670.86 26.8691 670.749 26.6062C670.638 26.3434 670.58 26.0612 670.578 25.7759C670.576 25.4906 670.63 25.2078 670.738 24.9434C670.845 24.6791 671.004 24.4385 671.204 24.2353Z" fill="#CCCFD0"/>
<path opacity="0.6" d="M673.913 105.903C674.226 105.587 674.599 105.337 675.01 105.165C675.422 104.994 675.863 104.906 676.31 104.906C676.756 104.906 677.197 104.994 677.609 105.165C678.02 105.337 678.393 105.587 678.706 105.903C679.026 106.219 679.28 106.594 679.453 107.008C679.627 107.421 679.716 107.865 679.716 108.312C679.716 108.76 679.627 109.204 679.453 109.617C679.28 110.031 679.026 110.406 678.706 110.722C678.393 111.042 678.018 111.297 677.604 111.471C677.189 111.645 676.744 111.734 676.294 111.734C675.844 111.734 675.399 111.645 674.985 111.471C674.57 111.297 674.195 111.042 673.882 110.722C673.564 110.404 673.312 110.027 673.142 109.612C672.971 109.198 672.885 108.754 672.888 108.306C672.891 107.858 672.983 107.415 673.159 107.003C673.335 106.591 673.591 106.217 673.913 105.903Z" fill="white"/>
<path opacity="0.6" d="M149.149 34.5168C149.462 34.2011 149.835 33.9504 150.247 33.7793C150.658 33.6081 151.1 33.52 151.546 33.52C151.992 33.52 152.434 33.6081 152.845 33.7793C153.257 33.9504 153.63 34.2011 153.943 34.5168C154.263 34.8326 154.517 35.208 154.69 35.6215C154.863 36.035 154.952 36.4784 154.952 36.9262C154.952 37.374 154.863 37.8175 154.69 38.231C154.517 38.6445 154.263 39.0198 153.943 39.3356C153.629 39.656 153.254 39.9107 152.84 40.0846C152.426 40.2586 151.98 40.3482 151.53 40.3482C151.081 40.3482 150.635 40.2586 150.221 40.0846C149.806 39.9107 149.431 39.656 149.118 39.3356C148.8 39.0178 148.549 38.6408 148.378 38.2262C148.207 37.8116 148.121 37.3676 148.124 36.9198C148.127 36.472 148.219 36.0291 148.395 35.6167C148.571 35.2043 148.827 34.8305 149.149 34.5168Z" fill="white"/>
<path opacity="0.6" d="M454.91 1.79337C455.347 1.26711 455.888 0.836714 456.499 0.529374C457.111 0.222035 457.779 0.0443182 458.462 0.00728323C459.145 -0.0297518 459.828 0.0747414 460.469 0.314203C461.11 0.553665 461.694 0.922876 462.186 1.3988C462.677 1.87472 463.065 2.44708 463.325 3.07989C463.584 3.71271 463.711 4.39234 463.695 5.07624C463.68 5.76014 463.524 6.4335 463.236 7.05415C462.949 7.67479 462.536 8.22933 462.024 8.68295C461.087 9.51282 459.871 9.95851 458.62 9.9307C457.369 9.9029 456.175 9.4037 455.276 8.53304C454.377 7.66238 453.84 6.48436 453.772 5.23475C453.704 3.98513 454.111 2.75612 454.91 1.79337Z" fill="#CCCFD0"/>
<path opacity="0.6" d="M315.516 165.765C315.921 165.355 316.472 165.122 317.048 165.118C317.624 165.114 318.179 165.339 318.589 165.744C318.999 166.149 319.232 166.7 319.236 167.276C319.24 167.852 319.015 168.406 318.61 168.816C318.205 169.227 317.654 169.459 317.078 169.463C316.502 169.467 315.948 169.242 315.538 168.838C315.127 168.433 314.895 167.882 314.891 167.306C314.887 166.73 315.112 166.175 315.516 165.765Z" fill="white"/>
<g style="mix-blend-mode:overlay" opacity="0.6">
<path d="M58.8891 333.886C59.1499 333.626 59.4823 333.448 59.8442 333.376C60.2061 333.304 60.5813 333.341 60.9222 333.482C61.2632 333.623 61.5546 333.862 61.7596 334.168C61.9646 334.474 62.0741 334.834 62.0741 335.203C62.0741 335.571 61.9646 335.931 61.7596 336.237C61.5546 336.544 61.2632 336.782 60.9222 336.923C60.5813 337.064 60.2061 337.101 59.8442 337.029C59.4823 336.957 59.1499 336.78 58.8891 336.519C58.5433 336.168 58.3496 335.695 58.3496 335.203C58.3496 334.71 58.5433 334.237 58.8891 333.886Z" fill="#CCCFD0"/>
</g>
<g style="mix-blend-mode:overlay" opacity="0.6">
<path d="M223.802 305.435C223.926 305.257 224.088 305.108 224.276 304.997C224.463 304.887 224.673 304.818 224.89 304.795C225.107 304.772 225.327 304.795 225.534 304.864C225.741 304.933 225.93 305.045 226.09 305.193C226.249 305.341 226.375 305.522 226.458 305.722C226.541 305.923 226.58 306.139 226.571 306.355C226.563 306.572 226.508 306.785 226.409 306.978C226.311 307.172 226.172 307.342 226.001 307.478C225.725 307.742 225.357 307.89 224.973 307.89C224.59 307.89 224.221 307.742 223.946 307.478C223.668 307.217 223.499 306.863 223.472 306.484C223.446 306.106 223.563 305.732 223.802 305.435Z" fill="#CCCFD0"/>
</g>
<g style="mix-blend-mode:overlay" opacity="0.6">
<path d="M123.544 315.354C123.848 315.05 124.235 314.843 124.656 314.759C125.078 314.676 125.514 314.719 125.911 314.883C126.308 315.048 126.648 315.326 126.886 315.683C127.125 316.041 127.252 316.461 127.252 316.89C127.252 317.32 127.125 317.74 126.886 318.097C126.648 318.455 126.308 318.733 125.911 318.898C125.514 319.062 125.078 319.105 124.656 319.021C124.235 318.938 123.848 318.731 123.544 318.427C123.342 318.225 123.182 317.986 123.073 317.722C122.963 317.458 122.907 317.176 122.907 316.89C122.907 316.605 122.963 316.322 123.073 316.059C123.182 315.795 123.342 315.556 123.544 315.354Z" fill="#CCCFD0"/>
</g>
<path opacity="0.6" d="M0.719263 329.102C1.06707 328.755 1.51028 328.518 1.99282 328.422C2.47536 328.326 2.97554 328.376 3.43013 328.563C3.88472 328.751 4.27329 329.07 4.54667 329.478C4.82005 329.886 4.96596 330.366 4.96596 330.858C4.96596 331.349 4.82005 331.829 4.54667 332.237C4.27329 332.646 3.88472 332.964 3.43013 333.152C2.97554 333.34 2.47536 333.389 1.99282 333.293C1.51028 333.197 1.06707 332.96 0.719263 332.613C0.258292 332.144 0 331.514 0 330.858C0 330.201 0.258292 329.571 0.719263 329.102Z" fill="#CCCFD0"/>
<path opacity="0.6" d="M192.764 258.88C192.888 258.702 193.05 258.552 193.238 258.442C193.425 258.331 193.635 258.262 193.852 258.239C194.069 258.216 194.289 258.24 194.496 258.308C194.703 258.377 194.892 258.49 195.052 258.638C195.211 258.786 195.337 258.966 195.42 259.167C195.503 259.367 195.542 259.583 195.533 259.8C195.525 260.017 195.47 260.229 195.371 260.422C195.273 260.616 195.134 260.786 194.963 260.922C194.687 261.186 194.319 261.334 193.935 261.334C193.552 261.334 193.183 261.186 192.907 260.922C192.63 260.662 192.461 260.307 192.434 259.929C192.408 259.55 192.525 259.176 192.764 258.88Z" fill="#CCCFD0"/>
<path opacity="0.6" d="M121.681 259.487C121.985 259.183 122.372 258.977 122.794 258.893C123.215 258.809 123.652 258.852 124.049 259.016C124.446 259.181 124.785 259.459 125.024 259.817C125.263 260.174 125.39 260.594 125.39 261.024C125.39 261.453 125.263 261.873 125.024 262.231C124.785 262.588 124.446 262.866 124.049 263.031C123.652 263.195 123.215 263.238 122.794 263.155C122.372 263.071 121.985 262.864 121.681 262.56C121.48 262.358 121.32 262.119 121.21 261.855C121.101 261.592 121.045 261.309 121.045 261.024C121.045 260.738 121.101 260.456 121.21 260.192C121.32 259.929 121.48 259.689 121.681 259.487Z" fill="#CCCFD0"/>
<g style="mix-blend-mode:overlay" opacity="0.6">
<path d="M33.1787 362.255C33.0903 362.169 33.02 362.066 32.9721 361.952C32.9241 361.839 32.8994 361.716 32.8994 361.593C32.8994 361.47 32.9241 361.348 32.9721 361.234C33.02 361.12 33.0903 361.017 33.1787 360.931C33.263 360.843 33.3643 360.773 33.4763 360.726C33.5883 360.678 33.7088 360.653 33.8305 360.653C33.9523 360.653 34.0728 360.678 34.1848 360.726C34.2968 360.773 34.398 360.843 34.4824 360.931C34.5708 361.017 34.641 361.12 34.689 361.234C34.7369 361.348 34.7617 361.47 34.7617 361.593C34.7617 361.716 34.7369 361.839 34.689 361.952C34.641 362.066 34.5708 362.169 34.4824 362.255C34.3065 362.422 34.0732 362.516 33.8305 362.516C33.5879 362.516 33.3545 362.422 33.1787 362.255Z" fill="#CCCFD0"/>
</g>
<path opacity="0.6" d="M90.9082 382.74C90.8198 382.653 90.7495 382.55 90.7016 382.437C90.6536 382.323 90.6289 382.201 90.6289 382.077C90.6289 381.954 90.6536 381.832 90.7016 381.718C90.7495 381.604 90.8198 381.501 90.9082 381.415C90.9925 381.327 91.0937 381.258 91.2058 381.21C91.3178 381.162 91.4383 381.138 91.56 381.138C91.6818 381.138 91.8023 381.162 91.9143 381.21C92.0263 381.258 92.1275 381.327 92.2119 381.415C92.3003 381.501 92.3705 381.604 92.4185 381.718C92.4664 381.832 92.4911 381.954 92.4911 382.077C92.4911 382.201 92.4664 382.323 92.4185 382.437C92.3705 382.55 92.3003 382.653 92.2119 382.74C92.036 382.907 91.8027 383 91.56 383C91.3174 383 91.084 382.907 90.9082 382.74Z" fill="#CCCFD0"/>
<path d="M293.632 58.8325C293.015 58.2413 292.243 57.7616 291.37 57.4286C290.497 57.0956 289.548 56.9177 288.59 56.908C287.633 56.8983 286.692 57.0571 285.838 57.3727C284.983 57.6882 284.236 58.1526 283.652 58.7316C275.51 66.2341 260.119 84.4713 260.952 114.714L265.215 269.485C265.244 270.526 265.798 271.529 266.756 272.275C267.715 273.02 268.998 273.447 270.325 273.46L318.799 273.951C320.126 273.964 321.386 273.563 322.304 272.837C323.222 272.11 323.721 271.117 323.692 270.076L319.429 115.305C318.596 85.0626 302.192 66.5039 293.632 58.8325Z" fill="#11E1D9"/>
<g style="mix-blend-mode:multiply" opacity="0.15">
<path d="M315.815 120.414L268.918 122.065L269.165 123.191L316.062 121.54L315.815 120.414Z" fill="#230753"/>
</g>
<g style="mix-blend-mode:multiply" opacity="0.15">
<path d="M314.997 159.728L268.1 161.379L268.346 162.505L315.243 160.853L314.997 159.728Z" fill="#230753"/>
</g>
<g style="mix-blend-mode:multiply" opacity="0.15">
<path d="M314.224 196.809L267.327 198.46L267.574 199.586L314.471 197.935L314.224 196.809Z" fill="#230753"/>
</g>
<g style="mix-blend-mode:multiply" opacity="0.15">
<path d="M293.626 58.8335C292.937 58.222 292.082 57.7401 291.128 57.4263C290.174 57.1126 289.147 56.9756 288.129 57.0263C296.788 70.1586 301.367 84.6236 301.479 99.2025L305.741 253.958C305.758 254.475 305.645 254.986 305.408 255.462C305.171 255.937 304.815 256.368 304.36 256.73C303.906 257.092 303.361 257.377 302.758 257.569C302.156 257.761 301.506 257.857 300.848 257.85L264.876 257.487L265.211 269.664C265.24 270.705 265.794 271.709 266.752 272.455C267.711 273.2 268.994 273.627 270.321 273.64L318.797 274.13C320.123 274.143 321.384 273.742 322.302 273.016C323.22 272.289 323.719 271.296 323.69 270.255L319.423 115.307C318.59 85.0637 302.186 66.5049 293.626 58.8335Z" fill="#230753"/>
</g>
<path d="M326.534 108.195C326.121 107.848 325.604 107.574 325.021 107.391C324.437 107.208 323.802 107.122 323.16 107.139C322.519 107.155 321.886 107.274 321.308 107.486C320.73 107.698 320.221 107.999 319.818 108.366C312.439 115.701 308.67 124.567 309.131 133.507L311.517 310.574L340.252 309.84L337.867 132.809C338.09 123.842 334.095 115.165 326.534 108.195Z" fill="#E3E9EC"/>
<path d="M329.99 334.597L314.457 334.29L308.122 326.622L335.332 327.159L329.99 334.597Z" fill="#EEFAF7"/>
<path d="M316.071 318.895L327.711 319.124L335.992 326.831L308.782 326.295L316.071 318.895Z" fill="#BDC2C4"/>
<path d="M339.686 322.116L305.526 321.314L311.176 310.936L332.697 311.441L339.686 322.116Z" fill="#EEFAF7"/>
<g style="mix-blend-mode:multiply" opacity="0.15">
<path d="M340.055 309.845L336.25 133.437C336.373 124.523 332.519 115.814 325.316 108.729C324.711 108.19 323.887 107.82 322.977 107.677C322.067 107.535 321.123 107.628 320.296 107.943C324.195 113.815 326.24 120.287 326.265 126.84C326.622 143.399 330.588 315.435 330.588 315.435L305.114 321.061L348.25 320.821L340.055 309.845Z" fill="#230753"/>
</g>
<path d="M331.415 359.592C328.431 356.337 326.512 352.507 325.881 348.548C325.251 344.588 325.936 340.662 327.856 337.228L311.266 336.44C313.507 340.072 314.552 344.08 314.279 347.997C314.007 351.913 312.428 355.578 309.727 358.563C300.436 369.395 285.071 385.668 290.773 404.366L354.641 407.399C358.567 389.158 341.812 371.36 331.415 359.592Z" fill="#D9D9D9"/>
<path d="M258.862 107.411C258.449 107.064 257.932 106.79 257.349 106.607C256.765 106.425 256.13 106.339 255.488 106.355C254.846 106.371 254.214 106.49 253.636 106.702C253.058 106.915 252.549 107.215 252.145 107.583C244.786 114.924 241.027 123.787 241.481 132.723L243.865 309.774L272.578 309.039L270.196 132.025C270.431 123.057 266.434 114.377 258.862 107.411Z" fill="#E3E9EC"/>
<path d="M262.337 333.813L246.804 333.508L240.451 325.838L267.679 326.375L262.337 333.813Z" fill="#EEFAF7"/>
<g style="mix-blend-mode:multiply" opacity="0.15">
<path d="M331.842 327.201L327.607 332.893L312.948 332.52L314.323 334.168L329.942 334.566L335.35 327.29L331.842 327.201Z" fill="#230753"/>
</g>
<g style="mix-blend-mode:multiply" opacity="0.15">
<path d="M264.188 326.417L259.954 332.109L245.295 331.736L246.67 333.385L262.289 333.782L267.696 326.507L264.188 326.417Z" fill="#230753"/>
</g>
<path d="M248.418 318.112L260.04 318.341L268.339 326.048L241.111 325.512L248.418 318.112Z" fill="#BDC2C4"/>
<path d="M272.015 321.315L237.872 320.512L243.523 310.134L265.026 310.64L272.015 321.315Z" fill="#EEFAF7"/>
<g style="mix-blend-mode:multiply" opacity="0.15">
<path d="M272.349 309.046L268.546 132.656C268.681 123.741 264.825 115.028 257.612 107.947C257.02 107.406 256.205 107.032 255.302 106.886C254.398 106.74 253.459 106.831 252.638 107.144C256.789 113.147 258.969 119.813 258.991 126.57L263.031 313.999L237.568 320.245L280.683 320.005L272.349 309.046Z" fill="#230753"/>
</g>
<path d="M263.857 358.811C260.868 355.558 258.946 351.727 258.315 347.766C257.685 343.806 258.372 339.879 260.297 336.446L243.706 335.658C245.947 339.29 246.992 343.298 246.72 347.215C246.447 351.132 244.869 354.796 242.167 357.781C232.874 368.597 217.509 384.871 223.191 403.568L286.965 406.596C290.99 388.36 274.174 370.558 263.857 358.811Z" fill="#D9D9D9"/>
<g style="mix-blend-mode:multiply" opacity="0.15">
<path d="M335.788 165.846L314.833 166.349L315.018 167.982L335.973 167.479L335.788 165.846Z" fill="#230753"/>
</g>
<g style="mix-blend-mode:multiply" opacity="0.15">
<path d="M336.335 139.576L315.38 140.079L315.565 141.712L336.52 141.209L336.335 139.576Z" fill="#230753"/>
</g>
<g style="mix-blend-mode:multiply" opacity="0.15">
<path d="M268.13 164.436L247.175 164.939L247.359 166.573L268.315 166.07L268.13 164.436Z" fill="#230753"/>
</g>
<g style="mix-blend-mode:multiply" opacity="0.15">
<path d="M268.678 138.167L247.723 138.67L247.907 140.304L268.863 139.8L268.678 138.167Z" fill="#230753"/>
</g>
<path d="M351.298 269.615L319.985 239.3C316.509 235.918 314.154 231.846 313.198 227.563C310.263 214.306 303.566 183.794 299.5 163.208C294.641 138.98 288.543 135.31 287.432 134.803C287.294 134.763 287.15 134.756 287.015 134.784C285.865 135.185 280.062 138.299 277.383 162.174C275.102 182.463 271.045 212.404 269.262 225.509C268.677 229.719 266.669 233.587 263.474 236.657L234.785 264.166C234.785 264.166 230.437 267.938 230.878 279.866C230.878 279.964 230.917 280.063 230.989 280.146C231.061 280.229 231.162 280.291 231.274 280.323C251.922 285.362 272.978 288.326 293.994 289.15L294.133 289.157C315.163 290.299 336.046 289.296 356.337 286.171C356.447 286.15 356.542 286.097 356.607 286.02C356.672 285.944 356.703 285.849 356.694 285.75C355.955 273.808 351.298 269.615 351.298 269.615Z" fill="#EEFAF7"/>
<g style="mix-blend-mode:multiply" opacity="0.15">
<path d="M288.192 290.414L288.34 290.418C310.711 291.28 332.948 289.95 354.576 286.458C354.694 286.435 354.796 286.379 354.866 286.3C354.936 286.221 354.969 286.123 354.961 286.022C354.53 273.824 349.491 269.599 349.491 269.599L316.477 239.045C312.812 235.636 310.348 231.505 309.375 227.138C306.389 213.62 299.577 182.506 295.463 161.508C290.543 136.795 284.09 133.13 282.913 132.627L288.192 290.414Z" fill="#230753"/>
</g>
<path d="M290.642 301.143L273.661 300.466L276.363 272.966C276.45 272.077 276.932 271.273 277.716 270.708C278.5 270.143 279.531 269.858 280.61 269.906L281.37 269.937C282.446 269.978 283.498 270.348 284.324 270.977C285.15 271.606 285.693 272.448 285.849 273.344L290.642 301.143Z" fill="#4D4D5A"/>
<path d="M307.881 301.503L290.938 300.828L293.6 273.324C293.686 272.438 294.166 271.636 294.946 271.071C295.726 270.507 296.752 270.219 297.828 270.263L298.629 270.295C299.707 270.336 300.762 270.706 301.591 271.334C302.421 271.963 302.969 272.806 303.129 273.703L307.881 301.503Z" fill="#4D4D5A"/>
<g style="mix-blend-mode:multiply" opacity="0.15">
<path d="M298.472 301.448L307.537 301.59L302.719 273.378C302.557 272.467 301.98 271.621 301.098 271C300.215 270.38 299.09 270.028 297.934 270.012L297.12 269.999L298.472 301.448Z" fill="#230753"/>
</g>
<g style="mix-blend-mode:multiply" opacity="0.15">
<path d="M281.216 301.099L290.292 301.238L285.473 273.013C285.316 272.103 284.743 271.258 283.864 270.637C282.984 270.016 281.86 269.664 280.706 269.648L279.957 269.636L281.216 301.099Z" fill="#230753"/>
</g>
</svg>
