<svg width="617" height="667" viewBox="0 0 617 667" fill="none" xmlns="http://www.w3.org/2000/svg">
<path d="M222.986 352.68C79.6979 166.072 286.717 55.7601 408.138 23.9305C72.611 106.221 85.2205 299.986 133.466 386.582L226.088 515.561L421.787 495.599C372.553 439.713 366.274 539.288 222.986 352.68Z" fill="#D9D9D9"/>
<path d="M195.496 396.613C44.5601 148.459 313.361 40.7206 466.628 17.8707C43.8547 74.0593 33.4554 313.547 81.1025 426.267L177.552 596.928L260.149 616.114C456.971 600.592 346.431 644.767 195.496 396.613Z" fill="white"/>
<path d="M342.115 35.4026C283.227 49.1333 145.632 103.217 66.3585 209.705C83.7214 167.094 163.181 72.5791 342.115 35.4026Z" fill="white"/>
<path d="M478.886 12.4756C462.615 13.8802 418.235 19.604 370.89 31.2633C388.921 24.7988 435.764 11.991 478.886 12.4756Z" fill="white"/>
</svg>
