<svg width="1920" height="1442" viewBox="0 0 1920 1442" fill="none" xmlns="http://www.w3.org/2000/svg">
<path d="M1920.71 814.907C1916.94 801.039 1908.79 788.393 1897.48 778.864C1886.17 769.335 1872.31 763.436 1857.98 762.052C1843.64 760.667 1829.6 763.87 1817.96 771.182C1806.32 778.494 1797.71 789.521 1793.41 802.611C1785.51 802.701 1777.91 804.727 1771.3 808.509C1766.72 801.073 1760.3 794.82 1752.71 790.392C1745.11 785.965 1736.6 783.523 1728.07 783.319C1719.54 783.114 1711.29 785.154 1704.16 789.229C1697.03 793.303 1691.29 799.265 1687.53 806.501C1681.92 801.151 1675.22 797.074 1667.96 794.598C1660.7 792.121 1653.09 791.313 1645.73 792.239C1638.37 793.166 1631.47 795.8 1625.58 799.931C1619.7 804.062 1614.99 809.575 1611.84 816.027C1609.81 813.729 1607.37 811.825 1604.65 810.43C1601.93 809.035 1599 808.179 1596.02 807.913C1593.05 807.648 1590.1 807.979 1587.35 808.887C1584.61 809.794 1582.12 811.259 1580.05 813.191C1581.21 810.608 1581.65 807.721 1581.33 804.808C1581.01 801.894 1579.94 799.052 1578.22 796.552C1576.5 794.052 1574.19 791.978 1571.52 790.529C1568.84 789.079 1565.88 788.303 1562.93 788.274L1561.41 788.26C1562.35 785.841 1562.67 783.195 1562.36 780.535C1562.05 777.875 1561.11 775.275 1559.62 772.944C1558.13 770.613 1556.14 768.615 1553.79 767.112C1551.44 765.61 1548.82 764.643 1546.12 764.291C1548.66 761.252 1549.93 757.324 1549.69 753.226C1549.45 749.128 1547.72 745.135 1544.82 741.98C1541.91 738.826 1538.03 736.72 1533.88 736.051C1529.73 735.381 1525.59 736.192 1522.23 738.335C1520.54 735.001 1517.93 732.155 1514.72 730.15C1511.51 728.145 1507.84 727.071 1504.18 727.062C1500.51 727.053 1497.01 728.108 1494.11 730.097C1491.21 732.086 1489.04 734.921 1487.87 738.247C1486.02 736.127 1483.71 734.431 1481.15 733.299C1478.58 732.167 1475.83 731.63 1473.11 731.733C1470.39 731.836 1467.79 732.576 1465.51 733.892C1463.24 735.208 1461.36 737.063 1460.02 739.304L1458.27 739.287C1456.81 737.287 1454.97 735.577 1452.86 734.265C1450.75 732.954 1448.42 732.071 1446.02 731.673C1443.62 731.274 1441.2 731.37 1438.92 731.954C1436.64 732.537 1434.54 733.595 1432.77 735.06C1430.96 732.222 1428.4 729.887 1425.4 728.331C1422.4 726.775 1419.07 726.061 1415.82 726.273C1412.56 726.485 1409.51 727.615 1407.01 729.53C1404.52 731.445 1402.69 734.065 1401.74 737.083C1399.04 735.4 1395.99 734.427 1392.9 734.265C1389.81 734.103 1386.8 734.758 1384.18 736.161C1381.56 737.565 1379.43 739.666 1378 742.246C1376.58 744.826 1375.92 747.791 1376.08 750.831C1374.69 750.48 1373.27 750.292 1371.85 750.271C1368.99 750.249 1366.22 750.93 1363.8 752.251C1361.37 753.572 1359.37 755.493 1357.96 757.841C1356.56 760.189 1355.79 762.89 1355.74 765.704C1355.69 768.517 1356.36 771.354 1357.67 773.96L1356.25 773.946C1353.41 773.92 1350.67 774.581 1348.27 775.871C1345.86 777.16 1343.86 779.039 1342.44 781.342C1341.02 783.645 1340.23 786.302 1340.13 789.079C1340.04 791.855 1340.64 794.667 1341.89 797.266C1340.95 797.11 1340 797.022 1339.06 797.001C1334.47 796.957 1330.2 798.712 1327.19 801.88C1324.17 805.048 1322.66 809.369 1322.97 813.893C1323.06 815.043 1323.26 816.191 1323.57 817.32C1320.06 815.584 1316.23 814.759 1312.45 814.929C1308.67 815.098 1305.09 816.257 1302.06 818.286C1295.81 810.096 1287.25 803.847 1277.59 800.422C1267.93 796.996 1257.66 796.566 1248.23 799.193C1248.39 797.323 1248.41 795.434 1248.29 793.541C1247.83 786.689 1245.54 779.937 1241.65 773.973C1237.76 768.008 1232.4 763.046 1226.13 759.593C1219.86 756.14 1212.9 754.319 1205.96 754.317C1199.02 754.315 1192.35 756.131 1186.63 759.581C1181.2 748.109 1172.35 738.337 1161.35 731.661C1150.34 724.984 1137.75 721.745 1125.35 722.406C1112.96 723.067 1101.41 727.593 1092.35 735.339C1083.28 743.085 1077.17 753.654 1074.89 765.538C1067.32 761.833 1059.07 760.027 1050.91 760.291C1042.76 760.554 1034.97 762.88 1028.3 767.045C1021.63 771.211 1016.28 777.078 1012.78 784.088C1009.28 791.098 1007.74 799.019 1008.3 807.095C1008.71 813.128 1010.31 819.116 1013.01 824.726C1004.91 826.315 997.729 830.405 992.461 836.421C987.193 842.438 984.106 850.08 983.633 858.277C976.249 854.425 968.027 852.776 960.047 853.548C952.067 854.32 944.704 857.476 938.924 862.602C933.144 867.728 929.218 874.584 927.662 882.268C926.106 889.952 909.624 874.859 912.838 882.409C906.675 885.123 909.649 888.038 905.904 893.514C902.159 898.989 901.479 899.131 901.132 905.934C900.786 912.736 914.278 907.173 917.421 913.52C920.563 919.867 926.684 913.756 932.493 917.985C935.462 923.236 938.501 902.71 943.889 905.525C949.277 908.34 977.98 900.351 983.785 899.685L1047.47 904.535L1510.75 921.359L1920.71 814.907Z" fill="#D9D9D9"/>
<path d="M1263.48 413.081C1260.12 416.941 1255.59 419.427 1250.74 420.066C1253.4 422.427 1255.28 425.614 1256.14 429.206C1256.99 432.798 1256.78 436.625 1255.52 440.179C1255.39 440.562 1255.25 440.945 1255.08 441.309C1259.06 444.372 1262.07 448.617 1263.75 453.536C1265.43 458.455 1265.71 463.839 1264.55 469.046C1263.39 474.253 1260.85 479.062 1257.23 482.898C1253.6 486.734 1249.05 489.435 1244.11 490.678C1244.42 493.529 1244.08 496.444 1243.12 499.189C1242.17 501.933 1240.63 504.431 1238.62 506.48C1236.61 508.529 1234.19 510.074 1231.56 510.988C1228.93 511.903 1226.16 512.163 1223.47 511.747C1224.87 515.577 1224.98 519.85 1223.77 523.868C1222.57 527.887 1220.12 531.414 1216.84 533.875C1218.41 536.694 1219.21 539.942 1219.15 543.275C1219.09 546.607 1218.18 549.899 1216.51 552.801C1214.84 555.703 1212.47 558.106 1209.66 559.756C1206.84 561.405 1203.69 562.239 1200.53 562.169C1202.2 565.596 1202.93 569.479 1202.64 573.396C1202.34 577.314 1201.04 581.118 1198.87 584.395C1201.74 587.596 1203.56 591.711 1204.05 596.159C1204.54 600.607 1203.69 605.164 1201.61 609.189C1203.67 614.1 1203.85 619.734 1202.11 624.947C1200.36 630.16 1196.83 634.563 1192.22 637.261C1191.94 641.222 1190.62 645.069 1188.42 648.377C1186.22 651.685 1183.21 654.326 1179.74 656.007C1182.19 658.827 1183.83 662.331 1184.49 666.141C1185.15 669.951 1184.81 673.923 1183.49 677.629L1183.44 677.767C1188.09 681.57 1191.28 687.004 1192.47 693.15C1193.66 699.297 1192.78 705.778 1189.98 711.497C1187.18 717.217 1182.62 721.824 1177.09 724.539C1171.56 727.254 1165.39 727.911 1159.62 726.398L1159.25 727.461C1158.01 730.969 1156.01 734.149 1153.4 736.734C1150.8 739.319 1147.67 741.233 1144.28 742.316L1056.81 793.999L1056.81 300.999L1238.9 385.273L1263.48 413.081Z" fill="white"/>
<path d="M1771.09 1026.31C1776.1 1015.43 1777.56 1003.1 1775.18 991.677C1772.81 980.251 1766.76 970.521 1758.18 964.335C1749.61 958.149 1739.11 955.938 1728.69 958.122C1718.26 960.305 1708.62 966.732 1701.62 976.181C1701.03 967.544 1698.14 959.502 1693.32 953.12C1688.51 946.738 1681.99 942.319 1674.65 940.448C1673.85 940.247 1673.06 940.045 1672.26 939.942C1672.15 927.614 1668.92 915.835 1662.95 906.014C1656.99 896.193 1648.54 888.745 1638.61 884.56C1628.68 880.375 1617.7 879.631 1606.98 882.416C1596.26 885.202 1586.25 891.399 1578.15 900.266C1573.87 895.99 1568.69 892.992 1563.03 891.516C1557.38 890.039 1551.4 890.124 1545.59 891.764C1539.77 893.404 1534.28 896.553 1529.54 900.957C1524.81 905.362 1520.98 910.9 1518.35 917.125C1513.82 909.28 1506.97 903.61 1498.93 901.041C1490.89 898.471 1482.12 899.154 1474.06 902.977C1471.39 896.055 1467.07 890.222 1461.56 886.098C1456.04 881.974 1449.54 879.713 1442.75 879.555C1435.95 879.396 1429.12 881.347 1422.96 885.2C1416.81 889.053 1411.57 894.663 1407.8 901.436C1404.26 893.54 1398.81 887.056 1392.05 882.687C1385.29 878.318 1377.48 876.23 1369.46 876.649C1367.77 866.483 1363.27 857.408 1356.62 850.701C1349.96 843.994 1341.46 839.994 1332.34 839.263C1326.86 828.639 1317.87 821.085 1307.22 818.133C1296.56 815.182 1285.02 817.055 1274.95 823.372C1268.13 818.93 1260.23 816.816 1252.12 817.264C1244.01 817.712 1236 820.704 1228.99 825.91C1227.39 817.135 1223.69 809.194 1218.28 802.941C1212.87 796.689 1205.96 792.363 1198.29 790.428L1198 790.355C1197.51 775.675 1192.55 762.004 1183.98 751.654C1175.41 741.304 1163.74 734.91 1150.96 733.554C1138.17 732.199 1125.05 735.964 1113.81 744.214C1102.57 752.463 1093.91 764.691 1089.29 778.828C1088.57 778.644 1087.83 778.456 1087.09 778.269C1079.84 776.413 1072.19 776.603 1064.76 778.823C1057.34 781.043 1050.36 785.229 1044.42 791.028C1038.48 796.827 1033.75 804.07 1030.63 812.15C1027.51 820.229 1026.08 828.908 1026.47 837.458C1026.86 846.008 1029.06 854.18 1032.88 861.286C1036.7 868.392 1042.03 874.226 1048.42 878.297C1054.81 882.368 1062.07 884.557 1069.61 884.681C1077.14 884.805 1084.71 882.86 1091.7 879.009L1300.66 932.145C1307.8 937.351 1316.3 939.888 1325.07 939.43C1326.56 948.484 1336.47 932.984 1342 939.43C1347.53 945.876 1361.56 941.603 1369.46 943.5C1377.36 945.396 1380.11 946.725 1388 943.5C1395.89 940.274 1398.5 950.874 1404 943.5L1474.06 943.5C1478.88 949.933 1491.54 941.622 1498.93 943.5C1506.31 945.377 1543.69 961.472 1551 958.122L1645 991.677C1652.3 997.336 1657.53 1026.69 1666.64 1025.21L1695.85 1032.63C1700.34 1041.62 1707.41 1048.47 1715.97 1052.11C1715.62 1053.19 1715.29 1054.27 1715.01 1055.38C1713.03 1063.22 1712.98 1071.38 1714.87 1078.94C1716.75 1086.49 1720.5 1093.15 1725.68 1098.15C1730.86 1103.15 1737.27 1106.29 1744.18 1107.23C1751.1 1108.17 1758.24 1106.86 1764.82 1103.46C1771.39 1100.05 1777.12 1094.69 1781.37 1087.96C1785.62 1081.24 1788.22 1073.42 1788.87 1065.4C1789.53 1057.38 1788.21 1049.47 1785.06 1042.56C1781.92 1035.66 1777.08 1030.03 1771.09 1026.31Z" fill="white"/>
<path d="M1771.09 1026.31C1776.1 1015.43 1777.56 1003.1 1775.18 991.677C1772.81 980.251 1766.76 970.521 1758.18 964.335C1749.61 958.149 1739.11 955.938 1728.69 958.122C1718.26 960.305 1708.62 966.732 1701.62 976.181C1701.03 967.544 1698.14 959.502 1693.32 953.12C1688.51 946.738 1681.99 942.319 1674.65 940.448C1673.85 940.247 1673.06 940.045 1672.26 939.942C1672.15 927.614 1668.92 915.835 1662.95 906.014C1656.99 896.193 1648.54 888.745 1638.61 884.56C1628.68 880.375 1617.7 879.631 1606.98 882.416C1596.26 885.202 1586.25 891.399 1578.15 900.266C1573.87 895.99 1568.69 892.992 1563.03 891.516C1557.38 890.039 1551.4 890.124 1545.59 891.764C1539.77 893.404 1534.28 896.553 1529.54 900.957C1524.81 905.362 1520.98 910.9 1518.35 917.125C1513.82 909.28 1506.97 903.61 1498.93 901.041C1490.89 898.471 1482.12 899.154 1474.06 902.977C1471.39 896.055 1467.07 890.222 1461.56 886.098C1456.04 881.974 1449.54 879.713 1442.75 879.555C1435.95 879.396 1429.12 881.347 1422.96 885.2C1416.81 889.053 1411.57 894.663 1407.8 901.436C1404.26 893.54 1398.81 887.056 1392.05 882.687C1385.29 878.318 1377.48 876.23 1369.46 876.649C1367.77 866.483 1363.27 857.408 1356.62 850.701C1349.96 843.994 1341.46 839.994 1332.34 839.263C1326.86 828.639 1317.87 821.085 1307.22 818.133C1296.56 815.182 1285.02 817.055 1274.95 823.372C1268.13 818.93 1260.23 816.816 1252.12 817.264C1244.01 817.712 1236 820.704 1228.99 825.91C1227.39 817.135 1223.69 809.194 1218.28 802.941C1212.87 796.689 1205.96 792.363 1198.29 790.428L1198 790.355C1197.51 775.675 1192.55 762.004 1183.98 751.654C1175.41 741.304 1163.74 734.91 1150.96 733.554C1138.17 732.199 1125.05 735.964 1113.81 744.214C1102.57 752.463 1093.91 764.691 1089.29 778.828C1088.57 778.644 1087.83 778.456 1087.09 778.269C1079.84 776.413 1072.19 776.603 1064.76 778.823C1057.34 781.043 1050.36 785.229 1044.42 791.028C1038.48 796.827 1033.75 804.07 1030.63 812.15C1027.51 820.229 1026.08 828.908 1026.47 837.458C1026.86 846.008 1029.06 854.18 1032.88 861.286C1036.7 868.392 1042.03 874.226 1048.42 878.297C1054.81 882.368 1062.07 884.557 1069.61 884.681C1077.14 884.805 1084.71 882.86 1091.7 879.009L1300.66 932.145C1307.8 937.351 1316.3 939.888 1325.07 939.43C1326.56 948.484 1336.47 932.984 1342 939.43C1347.53 945.876 1361.56 941.603 1369.46 943.5C1377.36 945.396 1380.11 946.725 1388 943.5C1395.89 940.274 1398.5 950.874 1404 943.5L1474.06 943.5C1478.88 949.933 1491.54 941.622 1498.93 943.5C1506.31 945.377 1543.69 961.472 1551 958.122L1645 991.677C1652.3 997.336 1657.53 1026.69 1666.64 1025.21L1695.85 1032.63C1700.34 1041.62 1707.41 1048.47 1715.97 1052.11C1715.62 1053.19 1715.29 1054.27 1715.01 1055.38C1713.03 1063.22 1712.98 1071.38 1714.87 1078.94C1716.75 1086.49 1720.5 1093.15 1725.68 1098.15C1730.86 1103.15 1737.27 1106.29 1744.18 1107.23C1751.1 1108.17 1758.24 1106.86 1764.82 1103.46C1771.39 1100.05 1777.12 1094.69 1781.37 1087.96C1785.62 1081.24 1788.22 1073.42 1788.87 1065.4C1789.53 1057.38 1788.21 1049.47 1785.06 1042.56C1781.92 1035.66 1777.08 1030.03 1771.09 1026.31Z" fill="white"/>
<path d="M1753.52 214.617C1757.08 222.442 1757.84 231.296 1755.68 239.496C1753.52 247.697 1748.58 254.673 1741.8 259.099C1735.02 263.526 1726.87 265.094 1718.9 263.507C1710.93 261.92 1703.69 257.288 1698.56 250.491C1697.87 256.691 1695.41 262.461 1691.51 267.035C1687.62 271.609 1682.47 274.77 1676.76 276.1C1676.14 276.244 1675.53 276.387 1674.91 276.459C1674.47 285.312 1671.64 293.764 1666.76 300.805C1661.88 307.847 1655.16 313.18 1647.39 316.166C1639.62 319.153 1631.14 319.668 1622.96 317.649C1614.78 315.629 1607.25 311.161 1601.27 304.779C1597.84 307.842 1593.77 309.985 1589.37 311.035C1584.97 312.086 1580.37 312.014 1575.94 310.826C1571.51 309.638 1567.36 307.367 1563.85 304.195C1560.33 301.024 1557.54 297.04 1555.69 292.565C1551.97 298.19 1546.54 302.249 1540.27 304.08C1534 305.91 1527.26 305.404 1521.16 302.645C1518.91 307.611 1515.41 311.791 1511.05 314.742C1506.68 317.694 1501.61 319.306 1496.37 319.407C1491.13 319.508 1485.92 318.095 1481.29 315.317C1476.66 312.54 1472.79 308.501 1470.08 303.632C1467.12 309.295 1462.74 313.941 1457.41 317.066C1452.08 320.191 1446 321.676 1439.83 321.361C1438.23 328.657 1434.51 335.166 1429.19 339.97C1423.87 344.774 1417.21 347.631 1410.16 348.139C1405.63 355.758 1398.49 361.166 1390.2 363.266C1381.9 365.366 1373.07 364.001 1365.49 359.447C1360.11 362.624 1353.96 364.127 1347.73 363.791C1341.49 363.455 1335.41 361.291 1330.16 357.54C1328.68 363.839 1325.6 369.535 1321.25 374.014C1316.91 378.494 1311.46 381.588 1305.49 382.964L1305.27 383.015C1304.46 393.555 1300.25 403.363 1293.35 410.78C1286.45 418.196 1277.28 422.766 1267.39 423.717C1257.5 424.667 1247.5 421.94 1239.08 415.996C1230.67 410.052 1224.35 401.256 1221.19 391.096L1219.48 391.494C1213.85 392.813 1207.95 392.663 1202.3 391.055C1196.64 389.448 1191.39 386.43 1186.98 382.255C1182.58 378.08 1179.14 372.87 1176.97 367.063C1174.79 361.256 1163.5 358 1163.5 358L1150 348.882L1056 308.5L1055.5 243.999L1056 156.464L1735.13 156.464C1740.49 155.803 1745.95 156.754 1750.92 159.212C1755.88 161.669 1760.14 165.534 1763.23 170.37C1766.31 175.207 1768.08 180.823 1768.35 186.584C1768.62 192.345 1767.38 198.023 1764.76 202.976C1762.14 207.93 1758.25 211.961 1753.52 214.617Z" fill="white"/>
<path d="M646.14 883.619C642.734 888.478 644.774 893.86 651.873 898.743C658.971 903.625 670.634 907.668 684.646 910.103C698.658 912.539 714.042 913.197 727.878 911.952C741.714 910.708 753.036 907.648 759.696 903.354C763.366 907.08 770.063 910.481 778.897 913.109C787.731 915.736 798.286 917.464 809.161 918.065C810.334 918.13 811.506 918.194 812.66 918.216C816.887 923.554 825.291 928.565 836.869 932.65C848.446 936.735 862.707 939.72 877.947 941.249C893.187 942.779 908.761 942.787 922.807 941.274C936.854 939.761 948.779 936.79 957.157 932.716C964.549 934.447 972.766 935.598 981.149 936.076C989.532 936.554 997.847 936.346 1005.42 935.47C1013 934.593 1019.63 933.072 1024.78 931.028C1029.92 928.984 1033.44 926.475 1035.06 923.703C1043.98 926.973 1055.41 929.233 1067.49 930.117C1079.57 931 1091.58 930.454 1101.57 928.567C1107.58 931.49 1115.54 933.894 1124.6 935.523C1133.66 937.152 1143.48 937.946 1153.02 937.82C1162.55 937.695 1171.45 936.654 1178.77 934.809C1186.08 932.964 1191.54 930.383 1194.57 927.341C1202.13 930.661 1211.87 933.314 1222.75 935.014C1233.63 936.714 1245.23 937.395 1256.29 936.985C1262.01 941.341 1271.28 945.144 1282.8 947.86C1294.31 950.575 1307.49 952.066 1320.47 952.121C1331.64 956.568 1346.67 959.584 1362.53 960.558C1378.38 961.533 1393.86 960.391 1405.84 957.367C1416.83 959.096 1428.56 959.786 1439.73 959.36C1450.91 958.934 1461.09 957.409 1469.16 954.953C1474.29 958.71 1482.08 962.044 1491.7 964.599C1501.32 967.153 1512.4 968.83 1523.75 969.449L1524.17 969.472C1529.72 975.818 1541.15 981.6 1556.54 985.839C1571.93 990.078 1590.33 992.515 1608.63 992.737C1626.93 992.959 1644 990.953 1656.96 987.057C1669.91 983.162 1677.96 977.617 1679.74 971.36C1680.81 971.419 1681.91 971.479 1683 971.539C1693.73 972.136 1704.35 971.835 1713.98 970.661C1723.62 969.487 1731.97 967.474 1738.34 964.792C1744.71 962.109 1748.92 958.836 1750.61 955.246C1752.3 951.656 1751.42 947.855 1748.05 944.162C1744.67 940.469 1738.9 936.991 1731.22 934.021C1723.54 931.052 1714.18 928.677 1703.91 927.095C1693.64 925.514 1682.77 924.773 1672.22 924.935C1661.66 925.096 1651.73 926.156 1643.25 928.024L1333.97 910.974C1322.28 908.923 1309.58 908.066 1297.5 908.515C1292.41 904.636 1284.5 901.183 1274.65 898.549C1264.8 895.914 1253.4 894.202 1241.75 893.606C1230.09 893.01 1218.65 893.554 1208.7 895.177C1198.76 896.8 1190.72 899.436 1185.48 902.788L1102.61 898.22C1093.76 895.57 1083.15 893.827 1072.22 893.225C1061.3 892.622 1050.56 893.189 1041.47 894.85L829.978 883.191C817.92 880.948 804.536 880.21 792.304 881.114L749.072 878.731C739.837 874.964 727.708 872.201 714.555 870.867C714.682 870.391 714.79 869.914 714.817 869.425C714.981 865.971 712.349 862.434 707.217 859.213C702.086 855.993 694.659 853.217 685.775 851.199C676.891 849.18 666.904 848 656.94 847.791C646.975 847.582 637.431 848.353 629.383 850.016C621.336 851.679 615.105 854.169 611.394 857.204C607.684 860.239 606.641 863.699 608.383 867.193C610.126 870.687 614.584 874.077 621.256 876.979C627.927 879.881 636.546 882.181 646.14 883.619Z" fill="#D9D9D9"/>
<path d="M747.691 887.146C742.098 894.942 733.296 900.695 722.958 903.314C712.619 905.932 701.464 905.233 691.611 901.349C681.758 897.465 673.893 890.666 669.511 882.245C666.502 888.405 661.343 893.624 654.718 897.211C648.093 900.798 640.316 902.583 632.417 902.329C631.566 902.301 630.714 902.274 629.88 902.172C626.313 911.125 619.766 918.99 611.021 924.828C602.277 930.667 591.705 934.23 580.57 935.094C569.434 935.957 558.205 934.083 548.226 929.697C538.247 925.31 529.94 918.596 524.297 910.357C518.8 912.529 512.763 913.573 506.673 913.404C500.583 913.235 494.61 911.858 489.233 909.385C483.855 906.911 479.225 903.41 475.714 899.162C472.203 894.915 469.909 890.039 469.016 884.928C462.267 889.643 453.806 892.265 445.012 892.367C436.218 892.468 427.611 890.043 420.594 885.486C415.973 889.939 410.001 893.235 403.311 895.025C396.622 896.815 389.465 897.032 382.602 895.652C375.738 894.273 369.423 891.348 364.329 887.189C359.235 883.031 355.551 877.793 353.669 872.033L351.5 830.92L351.5 745.999L1121.5 745.999L1121.5 884.928L747.691 887.146Z" fill="white"/>
<path d="M1119.95 858.586C1117.43 866.718 1117.6 875.529 1120.43 883.344C1123.26 891.16 1128.54 897.435 1135.28 900.98C1142.01 904.524 1149.74 905.09 1156.97 902.57C1164.21 900.05 1170.47 894.619 1174.55 887.31C1175.81 893.332 1178.67 898.718 1182.75 902.754C1186.82 906.79 1191.91 909.285 1197.35 909.909C1197.93 909.976 1198.52 910.043 1199.1 910.039C1200.39 918.704 1203.86 926.687 1209.1 933.035C1214.33 939.382 1221.11 943.826 1228.61 945.834C1236.12 947.842 1244.04 947.33 1251.43 944.359C1258.82 941.388 1265.37 936.084 1270.28 929.081C1273.77 931.686 1277.76 933.307 1281.95 933.812C1286.14 934.318 1290.4 933.695 1294.4 931.992C1298.39 930.29 1302.01 927.556 1304.96 924.011C1307.9 920.465 1310.1 916.207 1311.37 911.579C1315.38 916.672 1320.83 920.015 1326.83 921.065C1332.84 922.114 1339.04 920.807 1344.42 917.357C1347.01 921.976 1350.67 925.673 1355.02 928.054C1359.37 930.436 1364.24 931.414 1369.11 930.885C1373.98 930.355 1378.68 928.337 1382.7 925.046C1386.71 921.755 1389.91 917.313 1391.93 912.193C1395.25 917.414 1399.78 921.462 1405.04 923.899C1410.3 926.336 1416.09 927.068 1421.79 926.017C1424 933.01 1428.1 938.972 1433.52 943.063C1438.94 947.155 1445.41 949.168 1452 948.821C1456.97 955.78 1464.13 960.248 1472.04 961.32C1479.95 962.392 1488.01 959.986 1494.59 954.591C1499.9 957.073 1505.76 957.815 1511.51 956.735C1517.27 955.655 1522.7 952.795 1527.2 948.47C1529.2 954.494 1532.63 959.733 1537.11 963.622C1541.59 967.511 1546.96 969.903 1552.64 970.541L1552.85 970.565C1554.65 980.847 1559.54 990 1566.69 996.474C1573.83 1002.95 1582.8 1006.35 1592.08 1006.09C1601.35 1005.84 1610.36 1001.96 1617.58 995.091C1624.8 988.227 1629.78 978.806 1631.69 968.423C1632.23 968.485 1632.77 968.547 1633.32 968.609C1638.68 969.232 1644.14 968.376 1649.23 966.114C1654.32 963.851 1658.89 960.248 1662.56 955.608C1666.24 950.968 1668.9 945.425 1670.34 939.446C1671.78 933.466 1671.94 927.225 1670.82 921.246C1669.7 915.267 1667.32 909.724 1663.89 905.084C1660.46 900.444 1656.08 896.842 1651.11 894.581C1646.14 892.319 1640.73 891.464 1635.33 892.087C1629.94 892.71 1624.71 894.793 1620.1 898.161L1465.49 880.481C1459.87 877.491 1453.55 876.508 1447.33 877.657C1445.37 871.428 1441.9 865.999 1437.31 861.985C1432.72 857.971 1427.2 855.532 1421.36 854.943C1415.53 854.353 1409.62 855.638 1404.3 858.651C1398.98 861.664 1394.46 866.285 1391.26 871.993L1349.83 867.255C1345.75 863.183 1340.64 860.666 1335.18 860.041C1329.71 859.416 1324.16 860.714 1319.27 863.76L1213.55 851.67C1207.77 848.377 1201.08 847.612 1194.71 849.517L1173.1 847.045C1169.01 841.143 1163.28 836.994 1156.8 835.238C1156.95 834.448 1157.08 833.657 1157.17 832.85C1157.81 827.146 1157.04 821.399 1154.95 816.26C1152.85 811.12 1149.52 806.791 1145.33 803.761C1141.13 800.731 1136.24 799.122 1131.2 799.114C1126.17 799.106 1121.19 800.699 1116.83 803.715C1112.46 806.731 1108.89 811.049 1106.52 816.182C1104.14 821.314 1103.05 827.058 1103.38 832.763C1103.7 838.469 1105.43 843.911 1108.35 848.473C1111.28 853.036 1115.3 856.539 1119.95 858.586Z" fill="white"/>
<path d="M1119.95 858.586C1117.43 866.718 1117.6 875.529 1120.43 883.344C1123.26 891.16 1128.54 897.435 1135.28 900.98C1142.01 904.524 1149.74 905.09 1156.97 902.57C1164.21 900.05 1170.47 894.619 1174.55 887.31C1175.81 893.332 1178.67 898.718 1182.75 902.754C1186.82 906.79 1191.91 909.285 1197.35 909.909C1197.93 909.976 1198.52 910.043 1199.1 910.039C1200.39 918.704 1203.86 926.687 1209.1 933.035C1214.33 939.382 1221.11 943.826 1228.61 945.834C1236.12 947.842 1244.04 947.33 1251.43 944.359C1258.82 941.388 1265.37 936.084 1270.28 929.081C1273.77 931.686 1277.76 933.307 1281.95 933.812C1286.14 934.318 1290.4 933.695 1294.4 931.992C1298.39 930.29 1302.01 927.556 1304.96 924.011C1307.9 920.465 1310.1 916.207 1311.37 911.579C1315.38 916.672 1320.83 920.015 1326.83 921.065C1332.84 922.114 1339.04 920.807 1344.42 917.357C1347.01 921.976 1350.67 925.673 1355.02 928.054C1359.37 930.436 1364.24 931.414 1369.11 930.885C1373.98 930.355 1378.68 928.337 1382.7 925.046C1386.71 921.755 1389.91 917.313 1391.93 912.193C1395.25 917.414 1399.78 921.462 1405.04 923.899C1410.3 926.336 1416.09 927.068 1421.79 926.017C1424 933.01 1428.1 938.972 1433.52 943.063C1438.94 947.155 1445.41 949.168 1452 948.821C1456.97 955.78 1464.13 960.248 1472.04 961.32C1479.95 962.392 1488.01 959.986 1494.59 954.591C1499.9 957.073 1505.76 957.815 1511.51 956.735C1517.27 955.655 1522.7 952.795 1527.2 948.47C1529.2 954.494 1532.63 959.733 1537.11 963.622C1541.59 967.511 1546.96 969.903 1552.64 970.541L1552.85 970.565C1554.65 980.847 1559.54 990 1566.69 996.474C1573.83 1002.95 1582.8 1006.35 1592.08 1006.09C1601.35 1005.84 1610.36 1001.96 1617.58 995.091C1624.8 988.227 1629.78 978.806 1631.69 968.423C1632.23 968.485 1632.77 968.547 1633.32 968.609C1638.68 969.232 1644.14 968.376 1649.23 966.114C1654.32 963.851 1658.89 960.248 1662.56 955.608C1666.24 950.968 1668.9 945.425 1670.34 939.446C1671.78 933.466 1671.94 927.225 1670.82 921.246C1669.7 915.267 1667.32 909.724 1663.89 905.084C1660.46 900.444 1656.08 896.842 1651.11 894.581C1646.14 892.319 1640.73 891.464 1635.33 892.087C1629.94 892.71 1624.71 894.793 1620.1 898.161L1465.49 880.481C1459.87 877.491 1453.55 876.508 1447.33 877.657C1445.37 871.428 1441.9 865.999 1437.31 861.985C1432.72 857.971 1427.2 855.532 1421.36 854.943C1415.53 854.353 1409.62 855.638 1404.3 858.651C1398.98 861.664 1394.46 866.285 1391.26 871.993L1349.83 867.255C1345.75 863.183 1340.64 860.666 1335.18 860.041C1329.71 859.416 1324.16 860.714 1319.27 863.76L1213.55 851.67C1207.77 848.377 1201.08 847.612 1194.71 849.517L1173.1 847.045C1169.01 841.143 1163.28 836.994 1156.8 835.238C1156.95 834.448 1157.08 833.657 1157.17 832.85C1157.81 827.146 1157.04 821.399 1154.95 816.26C1152.85 811.12 1149.52 806.791 1145.33 803.761C1141.13 800.731 1136.24 799.122 1131.2 799.114C1126.17 799.106 1121.19 800.699 1116.83 803.715C1112.46 806.731 1108.89 811.049 1106.52 816.182C1104.14 821.314 1103.05 827.058 1103.38 832.763C1103.7 838.469 1105.43 843.911 1108.35 848.473C1111.28 853.036 1115.3 856.539 1119.95 858.586Z" fill="white"/>
<path d="M660.642 884.266C659.011 889.418 660.123 894.829 663.768 899.471C667.413 904.112 673.337 907.66 680.414 909.442C687.491 911.223 695.228 911.114 702.156 909.134C709.084 907.154 714.721 903.442 717.995 898.703C719.899 902.333 723.318 905.478 727.798 907.72C732.277 909.962 737.607 911.195 743.078 911.257C743.668 911.263 744.258 911.27 744.838 911.233C747.048 916.488 751.351 921.194 757.232 924.79C763.113 928.385 770.324 930.718 778.003 931.508C785.682 932.299 793.504 931.515 800.534 929.248C807.563 926.982 813.504 923.331 817.645 918.73C821.385 920.127 825.531 920.887 829.749 920.95C833.967 921.013 838.139 920.376 841.93 919.092C845.721 917.808 849.025 915.911 851.577 913.555C854.128 911.199 855.855 908.449 856.62 905.526C861.153 908.422 866.932 910.156 873.012 910.446C879.093 910.735 885.117 909.564 890.103 907.122C893.171 909.81 897.208 911.868 901.784 913.076C906.36 914.284 911.305 914.597 916.093 913.982C920.881 913.367 925.334 911.848 928.977 909.584C932.621 907.321 935.321 904.399 936.788 901.128C940.64 904.144 945.579 906.367 951.071 907.554C956.563 908.741 962.398 908.849 967.947 907.865C970.891 912.037 975.609 915.462 981.436 917.658C987.263 919.854 993.906 920.71 1000.43 920.105C1006.11 924.092 1013.71 926.417 1021.69 926.608C1029.66 926.798 1037.42 924.84 1043.38 921.131C1048.93 922.343 1054.83 922.453 1060.44 921.447C1066.05 920.441 1071.14 918.36 1075.15 915.432C1077.78 919.02 1081.75 922.04 1086.63 924.167C1091.5 926.294 1097.09 927.448 1102.8 927.504L1103.01 927.507C1105.9 933.727 1111.74 939.068 1119.54 942.628C1127.34 946.188 1136.62 947.747 1145.81 947.043C1155 946.338 1163.54 943.412 1169.99 938.761C1176.43 934.109 1180.38 928.017 1181.18 921.515C1181.71 921.521 1182.26 921.527 1182.81 921.533C1188.21 921.598 1193.54 920.748 1198.36 919.055C1203.18 917.361 1207.34 914.873 1210.5 911.8C1213.65 908.727 1215.71 905.159 1216.5 901.394C1217.29 897.63 1216.79 893.78 1215.03 890.168C1213.28 886.555 1210.32 883.286 1206.42 880.634C1202.51 877.982 1197.77 876.026 1192.59 874.929C1187.4 873.832 1181.93 873.626 1176.64 874.329C1171.34 875.033 1166.37 876.624 1162.14 878.97L1006.53 877.256C1000.63 875.749 994.236 875.519 988.174 876.594C985.559 872.878 981.528 869.743 976.537 867.546C971.546 865.348 965.795 864.174 959.932 864.157C954.07 864.141 948.331 865.281 943.363 867.451C938.396 869.62 934.398 872.731 931.823 876.433L890.13 875.973C885.64 873.709 880.286 872.463 874.787 872.403C869.289 872.342 863.909 873.47 859.37 875.634L752.962 874.462C746.87 872.778 740.136 872.704 734.007 874.253L712.256 874.014C707.557 870.624 701.42 868.411 694.792 867.715C694.849 867.22 694.895 866.726 694.9 866.224C694.926 862.676 693.546 859.186 690.917 856.147C688.287 853.109 684.511 850.643 680.017 849.027C675.522 847.412 670.487 846.711 665.479 847.005C660.471 847.298 655.691 848.574 651.676 850.688C647.662 852.802 644.573 855.671 642.759 858.97C640.946 862.269 640.478 865.867 641.411 869.359C642.343 872.85 644.638 876.096 648.036 878.73C651.434 881.364 655.8 883.281 660.642 884.266Z" fill="white"/>
<path d="M660.642 884.266C659.011 889.418 660.123 894.829 663.768 899.471C667.413 904.112 673.337 907.66 680.414 909.442C687.491 911.223 695.228 911.114 702.156 909.134C709.084 907.154 714.721 903.442 717.995 898.703C719.899 902.333 723.318 905.478 727.798 907.72C732.277 909.962 737.607 911.195 743.078 911.257C743.668 911.263 744.258 911.27 744.838 911.233C747.048 916.488 751.351 921.194 757.232 924.79C763.113 928.385 770.324 930.718 778.003 931.508C785.682 932.299 793.504 931.515 800.534 929.248C807.563 926.982 813.504 923.331 817.645 918.73C821.385 920.127 825.531 920.887 829.749 920.95C833.967 921.013 838.139 920.376 841.93 919.092C845.721 917.808 849.025 915.911 851.577 913.555C854.128 911.199 855.855 908.449 856.62 905.526C861.153 908.422 866.932 910.156 873.012 910.446C879.093 910.735 885.117 909.564 890.103 907.122C893.171 909.81 897.208 911.868 901.784 913.076C906.36 914.284 911.305 914.597 916.093 913.982C920.881 913.367 925.334 911.848 928.977 909.584C932.621 907.321 935.321 904.399 936.788 901.128C940.64 904.144 945.579 906.367 951.071 907.554C956.563 908.741 962.398 908.849 967.947 907.865C970.891 912.037 975.609 915.462 981.436 917.658C987.263 919.854 993.906 920.71 1000.43 920.105C1006.11 924.092 1013.71 926.417 1021.69 926.608C1029.66 926.798 1037.42 924.84 1043.38 921.131C1048.93 922.343 1054.83 922.453 1060.44 921.447C1066.05 920.441 1071.14 918.36 1075.15 915.432C1077.78 919.02 1081.75 922.04 1086.63 924.167C1091.5 926.294 1097.09 927.448 1102.8 927.504L1103.01 927.507C1105.9 933.727 1111.74 939.068 1119.54 942.628C1127.34 946.188 1136.62 947.747 1145.81 947.043C1155 946.338 1163.54 943.412 1169.99 938.761C1176.43 934.109 1180.38 928.017 1181.18 921.515C1181.71 921.521 1182.26 921.527 1182.81 921.533C1188.21 921.598 1193.54 920.748 1198.36 919.055C1203.18 917.361 1207.34 914.873 1210.5 911.8C1213.65 908.727 1215.71 905.159 1216.5 901.394C1217.29 897.63 1216.79 893.78 1215.03 890.168C1213.28 886.555 1210.32 883.286 1206.42 880.634C1202.51 877.982 1197.77 876.026 1192.59 874.929C1187.4 873.832 1181.93 873.626 1176.64 874.329C1171.34 875.033 1166.37 876.624 1162.14 878.97L1006.53 877.256C1000.63 875.749 994.236 875.519 988.174 876.594C985.559 872.878 981.528 869.743 976.537 867.546C971.546 865.348 965.795 864.174 959.932 864.157C954.07 864.141 948.331 865.281 943.363 867.451C938.396 869.62 934.398 872.731 931.823 876.433L890.13 875.973C885.64 873.709 880.286 872.463 874.787 872.403C869.289 872.342 863.909 873.47 859.37 875.634L752.962 874.462C746.87 872.778 740.136 872.704 734.007 874.253L712.256 874.014C707.557 870.624 701.42 868.411 694.792 867.715C694.849 867.22 694.895 866.726 694.9 866.224C694.926 862.676 693.546 859.186 690.917 856.147C688.287 853.109 684.511 850.643 680.017 849.027C675.522 847.412 670.487 846.711 665.479 847.005C660.471 847.298 655.691 848.574 651.676 850.688C647.662 852.802 644.573 855.671 642.759 858.97C640.946 862.269 640.478 865.867 641.411 869.359C642.343 872.85 644.638 876.096 648.036 878.73C651.434 881.364 655.8 883.281 660.642 884.266Z" fill="white"/>
<path d="M404.782 778.973C404.731 787.66 400.299 794.716 392.327 798.801C384.355 802.887 373.399 803.717 361.54 801.135C368.229 807.211 373.063 814.117 375.402 820.938C377.74 827.759 377.471 834.172 374.633 839.326C374.326 839.882 374.02 840.437 373.627 840.933C383.606 849.22 391.283 858.801 395.74 868.529C400.197 878.257 401.246 887.722 398.76 895.792C396.275 903.862 390.36 910.196 381.724 914.036C373.088 917.876 362.096 919.06 350.06 917.447C351.002 922.578 350.369 927.331 348.214 931.323C346.058 935.315 342.44 938.435 337.65 940.432C332.86 942.429 327.033 943.248 320.635 942.821C314.238 942.395 307.45 940.737 300.817 937.978C304.517 945.625 305.07 953.049 302.386 959.04C299.703 965.032 293.941 969.236 286.04 970.969C290.094 977.009 292.28 983.199 292.366 988.883C292.452 994.566 290.434 999.53 286.528 1003.25C282.622 1006.97 276.972 1009.3 270.18 1010C263.387 1010.7 255.705 1009.73 247.95 1007.22C252.277 1014.37 254.324 1021.6 253.869 1028.11C253.415 1034.62 250.476 1040.16 245.371 1044.15C252.648 1051.83 257.374 1060.28 258.883 1068.3C260.392 1076.31 258.608 1083.5 253.782 1088.84C259.182 1098.84 260.003 1108.66 256.078 1116.3C252.153 1123.93 243.777 1128.82 232.649 1129.95C232.218 1136.54 229.247 1142.15 224.065 1146.17C218.884 1150.18 211.692 1152.44 203.286 1152.69C209.488 1159.4 213.759 1166.67 215.64 1173.72C217.521 1180.76 216.94 1187.33 213.961 1192.7L213.85 1192.9C225.514 1202.96 233.71 1214.72 237.05 1226.19C240.391 1237.65 238.671 1248.12 232.183 1255.83C225.694 1263.53 214.835 1267.99 201.442 1268.45C188.049 1268.92 172.944 1265.36 158.682 1258.38L157.832 1259.92C155.04 1265.02 150.338 1268.96 144.12 1271.42C137.903 1273.89 130.351 1274.8 122.101 1274.09C113.85 1273.37 105.14 1271.05 96.7038 1267.32C88.2674 1263.59 80.3503 1258.55 73.6176 1252.63C66.8849 1246.72 61.5332 1240.09 58.012 1233.32C54.4908 1226.55 52.903 1219.82 53.3819 1213.7L-13.9998 1213.7L-13.9993 743L350.06 743L410.652 766.511C412.405 770.762 404.806 774.976 404.782 778.973Z" fill="white"/>
<path d="M1669.78 825.776C1657.32 828.256 1645.28 833.711 1635.97 841.103C1626.66 848.496 1620.71 857.311 1619.25 865.876C1617.8 874.44 1620.95 882.156 1628.09 887.559C1635.24 892.962 1645.88 895.675 1658.01 895.183C1650.37 900.011 1644.42 905.977 1640.93 912.29C1637.45 918.604 1636.61 924.966 1638.51 930.535C1638.72 931.135 1638.92 931.735 1639.22 932.29C1627.96 938.727 1618.74 946.835 1612.67 955.646C1606.6 964.457 1603.93 973.597 1604.98 981.975C1606.03 990.354 1610.76 997.615 1618.6 1002.89C1626.44 1008.17 1637.07 1011.24 1649.2 1011.73C1647.38 1016.62 1647.18 1021.41 1648.62 1025.71C1650.05 1030.02 1653.07 1033.72 1657.45 1036.51C1661.82 1039.31 1667.42 1041.12 1673.79 1041.81C1680.16 1042.5 1687.14 1042.04 1694.15 1040.47C1689.18 1047.36 1687.35 1054.58 1688.96 1060.94C1690.57 1067.31 1695.51 1072.44 1703 1075.52C1697.96 1080.77 1694.73 1086.48 1693.67 1092.07C1692.6 1097.65 1693.73 1102.89 1696.93 1107.23C1700.14 1111.56 1705.3 1114.84 1711.87 1116.7C1718.43 1118.56 1726.17 1118.95 1734.24 1117.81C1728.74 1124.11 1725.48 1130.87 1724.8 1137.36C1724.12 1143.85 1726.05 1149.82 1730.39 1154.63C1721.9 1160.94 1715.78 1168.44 1712.91 1176.08C1710.03 1183.71 1710.55 1191.1 1714.38 1197.19C1707.33 1206.11 1704.82 1215.64 1707.37 1223.84C1709.91 1232.04 1717.32 1238.29 1728.08 1241.34C1727.36 1247.91 1729.32 1253.95 1733.73 1258.8C1738.14 1263.64 1744.83 1267.11 1753.07 1268.81C1745.8 1274.35 1740.33 1280.77 1737.26 1287.39C1734.19 1294 1733.63 1300.57 1735.63 1306.37L1735.71 1306.59C1722.48 1314.48 1712.37 1324.65 1707.1 1335.36C1701.82 1346.08 1701.71 1356.69 1706.77 1365.4C1711.82 1374.1 1721.75 1380.38 1734.86 1383.15C1747.97 1385.93 1763.46 1385.04 1778.72 1380.63L1779.29 1382.29C1781.16 1387.79 1785.1 1392.49 1790.8 1395.99C1796.5 1399.49 1803.78 1401.7 1812.03 1402.42C1820.28 1403.15 1829.26 1402.37 1838.21 1400.15C1847.17 1397.93 1855.84 1394.34 1863.49 1389.68C1871.15 1385.02 1877.56 1379.42 1882.2 1373.36L1931 1373.36L1931 789.85L1743.67 789.85C1737.31 787.493 1729.56 786.675 1721.29 787.486C1713.02 788.298 1704.57 790.708 1696.88 794.444C1689.2 798.18 1682.59 803.093 1677.8 808.629C1673.01 814.165 1670.23 820.104 1669.78 825.776Z" fill="white"/>
</svg>
