<svg width="349" height="268" viewBox="0 0 349 268" fill="none" xmlns="http://www.w3.org/2000/svg">
<path d="M15.3347 24.275C16.2847 10.9233 27.9733 0.92918 41.3105 2.06493L324.807 26.2066C337.72 27.3062 347.428 38.4588 346.736 51.4001L336.487 243.289C335.765 256.812 324.003 267.06 310.508 265.924L23.608 241.777C10.5205 240.675 0.74933 229.258 1.68149 216.158L15.3347 24.275Z" fill="#D9D9D9"/>
<path d="M22.1191 23.2175C23.0263 10.6667 33.4732 0.947754 46.0567 0.947754H323.8C337.514 0.947754 348.44 12.42 347.771 26.1181L337.606 234.329C336.94 247.96 325.059 258.293 311.468 257.061L30.6799 231.609C17.6491 230.428 7.96564 219.027 8.90893 205.977L22.1191 23.2175Z" fill="white"/>
</svg>
