<svg width="688" height="160" viewBox="0 0 688 160" fill="none" xmlns="http://www.w3.org/2000/svg">
<path d="M32.0765 17.5187C35.1776 7.17058 44.8101 0.169583 55.6101 0.414314L657.469 14.0526C672.132 14.3849 683.07 27.6756 680.575 42.1287L663.859 138.973C661.789 150.964 651.073 159.508 638.922 158.856L30.4598 126.192C14.9421 125.359 4.29548 110.223 8.75639 95.3372L32.0765 17.5187Z" fill="#D9D9D9"/>
<path d="M36.0887 17.6323C39.1269 7.46961 48.4761 0.506592 59.0832 0.506592H659.503C674.389 0.506592 685.685 13.9191 683.153 28.5889L666.548 124.786C664.478 136.781 653.755 145.327 641.6 144.669L38.7852 112.027C23.2791 111.188 12.6404 96.0664 17.0884 81.1882L36.0887 17.6323Z" fill="white"/>
</svg>
