<svg width="104" height="107" viewBox="0 0 104 107" fill="none" xmlns="http://www.w3.org/2000/svg">
<path d="M50.6816 81.0716C45.3666 84.8179 43.0263 83.3292 42.5204 82.1165C37.0828 71.4646 35.2016 66.5864 30.1103 56.3421C28.1081 52.3135 32.5557 49.9108 35.0298 49.2131L47.4266 46.7518C53.4025 45.3292 67.3854 42.0986 75.51 40.5563C85.6658 38.6285 90.7833 39.2058 93.0001 42.3508C94.7736 44.8668 86.7824 52.8358 82.5651 56.5058C74.1518 63.1335 55.9965 77.3253 50.6816 81.0716Z" fill="white"/>
<path d="M40.6022 46.1162C42.8028 44.9642 40.9113 42.7387 39.6905 41.77C34.088 42.7256 22.4269 45.0583 20.6022 46.7436C18.7775 48.4288 20.6063 50.5654 21.7488 51.4231C27.1164 50.1341 38.4017 47.2682 40.6022 46.1162Z" fill="white"/>
<path d="M38.5094 91.9921C43.7437 87.97 54.3561 79.8246 54.9311 79.4193C58.2924 76.8612 57.4093 81.9175 56.5476 84.7654L40.9691 96.245C36.4908 96.6078 37.4633 93.5609 38.5094 91.9921Z" fill="white"/>
<path d="M31.891 74.2073C34.204 72.9096 39.2364 70.1274 40.8619 69.3807L38.9001 62.7814L29.4453 68.4479C22.7217 74.7836 28.2743 74.9274 31.891 74.2073Z" fill="white"/>
</svg>
