<svg width="1920" height="848" viewBox="0 0 1920 848" fill="none" xmlns="http://www.w3.org/2000/svg">
<path d="M1258.77 597.687C1262.17 592.828 1260.13 587.445 1253.03 582.563C1245.93 577.68 1234.27 573.638 1220.26 571.202C1206.25 568.767 1190.86 568.109 1177.03 569.353C1163.19 570.597 1151.87 573.657 1145.21 577.951C1141.54 574.226 1134.84 570.824 1126.01 568.197C1117.18 565.57 1106.62 563.841 1095.74 563.241C1094.57 563.176 1093.4 563.111 1092.25 563.09C1088.02 557.751 1079.62 552.74 1068.04 548.656C1056.46 544.571 1042.2 541.586 1026.96 540.056C1011.72 538.527 996.145 538.518 982.099 540.032C968.052 541.545 956.127 544.516 947.749 548.589C940.358 546.859 932.14 545.708 923.757 545.23C915.374 544.752 907.06 544.959 899.483 545.836C891.905 546.713 885.277 548.234 880.131 550.278C874.984 552.321 871.463 554.83 869.85 557.603C860.93 554.333 849.498 552.072 837.42 551.189C825.341 550.306 813.328 550.852 803.339 552.738C797.325 549.816 789.365 547.412 780.306 545.783C771.248 544.153 761.428 543.36 751.89 543.485C742.352 543.611 733.453 544.652 726.137 546.497C718.821 548.342 713.363 550.922 710.341 553.964C702.781 550.645 693.033 547.991 682.153 546.292C671.273 544.592 659.675 543.91 648.614 544.321C642.893 539.965 633.623 536.161 622.109 533.446C610.595 530.73 597.417 529.24 584.433 529.184C573.269 524.738 558.234 521.721 542.381 520.747C526.527 519.773 511.042 520.914 499.069 523.939C488.08 522.209 476.35 521.519 465.175 521.945C454 522.371 443.815 523.897 435.746 526.353C430.617 522.596 422.824 519.261 413.206 516.707C403.588 514.153 392.508 512.476 381.159 511.857L380.735 511.833C375.189 505.487 363.753 499.706 348.364 495.466C332.974 491.227 314.574 488.79 296.277 488.568C277.979 488.347 260.908 490.353 247.95 494.248C234.991 498.144 226.942 503.689 225.163 509.946C224.092 509.887 223 509.827 221.909 509.767C211.178 509.17 200.552 509.471 190.921 510.645C181.291 511.819 172.939 513.832 166.566 516.514C160.192 519.196 155.985 522.47 154.296 526.06C152.607 529.649 153.486 533.45 156.86 537.144C160.233 540.837 166.003 544.314 173.683 547.284C181.364 550.254 190.731 552.629 200.999 554.21C211.266 555.791 222.134 556.532 232.689 556.371C243.244 556.209 253.179 555.15 261.657 553.282L570.934 570.331C582.623 572.383 595.326 573.239 607.411 572.79C612.492 576.67 620.406 580.122 630.257 582.757C640.109 585.392 651.505 587.104 663.159 587.7C674.812 588.295 686.258 587.751 696.201 586.129C706.145 584.506 714.19 581.869 719.428 578.517L802.295 583.085C811.15 585.735 821.754 587.478 832.682 588.081C843.611 588.683 854.342 588.116 863.435 586.456L1074.93 598.115C1086.99 600.358 1100.37 601.096 1112.6 600.192L1155.83 602.575C1165.07 606.342 1177.2 609.105 1190.35 610.438C1190.22 610.914 1190.12 611.392 1190.09 611.881C1189.93 615.335 1192.56 618.872 1197.69 622.092C1202.82 625.313 1210.25 628.089 1219.13 630.107C1228.01 632.125 1238 633.306 1247.97 633.514C1257.93 633.723 1267.48 632.953 1275.52 631.29C1283.57 629.626 1289.8 627.137 1293.51 624.102C1297.22 621.066 1298.27 617.607 1296.52 614.112C1294.78 610.618 1290.32 607.229 1283.65 604.326C1276.98 601.424 1268.36 599.125 1258.77 597.687Z" fill="#D9D9D9"/>
<path d="M1151.61 620.281C1149.63 611.252 1151.62 601.956 1157.21 594.16C1162.81 586.364 1171.61 580.61 1181.95 577.992C1192.29 575.374 1203.44 576.073 1213.29 579.957C1223.15 583.841 1231.01 590.639 1235.39 599.061C1238.4 592.901 1243.56 587.681 1250.19 584.094C1256.81 580.508 1264.59 578.723 1272.49 578.977C1273.34 579.004 1274.19 579.032 1275.03 579.134C1278.59 570.181 1285.14 562.315 1293.88 556.477C1302.63 550.639 1313.2 547.076 1324.34 546.212C1335.47 545.349 1346.7 547.223 1356.68 551.609C1366.66 555.996 1374.97 562.71 1380.61 570.949C1386.11 568.777 1392.14 567.733 1398.23 567.902C1404.32 568.071 1410.3 569.447 1415.67 571.921C1421.05 574.394 1425.68 577.896 1429.19 582.143C1432.7 586.391 1435 591.267 1435.89 596.378C1442.64 591.663 1451.1 589.04 1459.89 588.939C1468.69 588.838 1477.29 591.263 1484.31 595.82C1488.93 591.367 1494.9 588.07 1501.59 586.28C1508.28 584.49 1515.44 584.274 1522.3 585.653C1529.17 587.033 1535.48 589.958 1540.58 594.116C1545.67 598.275 1549.35 603.513 1551.24 609.273C1557.01 604.304 1564.3 600.781 1572.31 599.087C1580.31 597.393 1588.74 597.591 1596.68 599.661C1601.22 592.631 1608.28 587.011 1616.84 583.593C1625.41 580.175 1635.05 579.13 1644.42 580.606C1652.9 574.077 1664.03 570.552 1675.56 570.747C1687.08 570.943 1698.13 574.844 1706.47 581.66C1714.56 579.926 1723.09 580.125 1731.1 582.236C1739.11 584.346 1746.31 588.286 1751.89 593.619C1755.95 587.581 1761.89 582.613 1769.08 579.251C1776.26 575.888 1784.41 574.259 1792.65 574.538L1792.96 574.548C1797.58 563.968 1806.38 555.104 1817.89 549.454C1829.4 543.804 1842.9 541.715 1856.11 543.541C1869.33 545.366 1881.44 550.994 1890.4 559.473C1899.36 567.951 1904.62 578.76 1905.3 590.07C1906.08 590.095 1906.87 590.121 1907.66 590.146C1915.46 590.389 1923.09 592.212 1929.91 595.462C1936.74 598.712 1942.57 603.293 1946.9 608.822C1951.23 614.351 1953.95 620.665 1954.82 627.235C1955.69 633.804 1954.68 640.438 1951.89 646.577C1949.1 652.716 1944.6 658.182 1938.77 662.516C1932.95 666.85 1925.96 669.925 1918.41 671.484C1910.85 673.042 1902.94 673.037 1895.35 671.471C1887.76 669.904 1880.7 666.821 1874.77 662.481L1650.14 655.2C1641.52 657.42 1632.27 657.398 1623.61 655.136C1619.56 661.399 1613.52 666.56 1606.16 670.037C1598.81 673.514 1590.42 675.167 1581.96 674.81C1573.5 674.453 1565.31 672.1 1558.3 668.017C1551.29 663.934 1545.74 658.283 1542.29 651.705L1482.11 649.754C1475.47 653.378 1467.65 655.183 1459.71 654.925C1451.78 654.668 1444.1 652.361 1437.7 648.315L1284.1 643.336C1275.19 645.851 1265.47 645.536 1256.74 642.449L1225.34 641.431C1218.31 646.99 1209.3 650.418 1199.69 651.187C1199.73 652.047 1199.76 652.906 1199.73 653.776C1199.52 659.921 1197.27 665.873 1193.26 670.961C1189.25 676.049 1183.62 680.07 1177.02 682.571C1170.42 685.072 1163.11 685.953 1155.9 685.115C1148.7 684.277 1141.89 681.753 1136.25 677.828C1130.61 673.903 1126.36 668.733 1123.99 662.902C1121.61 657.07 1121.19 650.809 1122.79 644.825C1124.38 638.841 1127.93 633.372 1133.02 629.035C1138.11 624.698 1144.55 621.666 1151.61 620.281Z" fill="white"/>
<path d="M1151.61 620.281C1149.63 611.252 1151.62 601.956 1157.21 594.16C1162.81 586.364 1171.61 580.61 1181.95 577.992C1192.29 575.374 1203.44 576.073 1213.29 579.957C1223.15 583.841 1231.01 590.639 1235.39 599.061C1238.4 592.901 1243.56 587.681 1250.19 584.094C1256.81 580.508 1264.59 578.723 1272.49 578.977C1273.34 579.004 1274.19 579.032 1275.03 579.134C1278.59 570.181 1285.14 562.315 1293.88 556.477C1302.63 550.639 1313.2 547.076 1324.34 546.212C1335.47 545.349 1346.7 547.223 1356.68 551.609C1366.66 555.996 1374.97 562.71 1380.61 570.949C1386.11 568.777 1392.14 567.733 1398.23 567.902C1404.32 568.071 1410.3 569.447 1415.67 571.921C1421.05 574.394 1425.68 577.896 1429.19 582.143C1432.7 586.391 1435 591.267 1435.89 596.378C1442.64 591.663 1451.1 589.04 1459.89 588.939C1468.69 588.838 1477.29 591.263 1484.31 595.82C1488.93 591.367 1494.9 588.07 1501.59 586.28C1508.28 584.49 1515.44 584.274 1522.3 585.653C1529.17 587.033 1535.48 589.958 1540.58 594.116C1545.67 598.275 1549.35 603.513 1551.24 609.273C1557.01 604.304 1564.3 600.781 1572.31 599.087C1580.31 597.393 1588.74 597.591 1596.68 599.661C1601.22 592.631 1608.28 587.011 1616.84 583.593C1625.41 580.175 1635.05 579.13 1644.42 580.606C1652.9 574.077 1664.03 570.552 1675.56 570.747C1687.08 570.943 1698.13 574.844 1706.47 581.66C1714.56 579.926 1723.09 580.125 1731.1 582.236C1739.11 584.346 1746.31 588.286 1751.89 593.619C1755.95 587.581 1761.89 582.613 1769.08 579.251C1776.26 575.888 1784.41 574.259 1792.65 574.538L1792.96 574.548C1797.58 563.968 1806.38 555.104 1817.89 549.454C1829.4 543.804 1842.9 541.715 1856.11 543.541C1869.33 545.366 1881.44 550.994 1890.4 559.473C1899.36 567.951 1904.62 578.76 1905.3 590.07C1906.08 590.095 1906.87 590.121 1907.66 590.146C1915.46 590.389 1923.09 592.212 1929.91 595.462C1936.74 598.712 1942.57 603.293 1946.9 608.822C1951.23 614.351 1953.95 620.665 1954.82 627.235C1955.69 633.804 1954.68 640.438 1951.89 646.577C1949.1 652.716 1944.6 658.182 1938.77 662.516C1932.95 666.85 1925.96 669.925 1918.41 671.484C1910.85 673.042 1902.94 673.037 1895.35 671.471C1887.76 669.904 1880.7 666.821 1874.77 662.481L1650.14 655.2C1641.52 657.42 1632.27 657.398 1623.61 655.136C1619.56 661.399 1613.52 666.56 1606.16 670.037C1598.81 673.514 1590.42 675.167 1581.96 674.81C1573.5 674.453 1565.31 672.1 1558.3 668.017C1551.29 663.934 1545.74 658.283 1542.29 651.705L1482.11 649.754C1475.47 653.378 1467.65 655.183 1459.71 654.925C1451.78 654.668 1444.1 652.361 1437.7 648.315L1284.1 643.336C1275.19 645.851 1265.47 645.536 1256.74 642.449L1225.34 641.431C1218.31 646.99 1209.3 650.418 1199.69 651.187C1199.73 652.047 1199.76 652.906 1199.73 653.776C1199.52 659.921 1197.27 665.873 1193.26 670.961C1189.25 676.049 1183.62 680.07 1177.02 682.571C1170.42 685.072 1163.11 685.953 1155.9 685.115C1148.7 684.277 1141.89 681.753 1136.25 677.828C1130.61 673.903 1126.36 668.733 1123.99 662.902C1121.61 657.07 1121.19 650.809 1122.79 644.825C1124.38 638.841 1127.93 633.372 1133.02 629.035C1138.11 624.698 1144.55 621.666 1151.61 620.281Z" fill="white"/>
<path d="M784.959 622.718C787.474 614.586 787.302 605.776 784.475 597.96C781.649 590.145 776.366 583.869 769.629 580.325C762.892 576.781 755.17 576.215 747.931 578.735C740.692 581.255 734.439 586.685 730.361 593.995C729.093 587.973 726.233 582.587 722.161 578.551C718.089 574.515 712.997 572.02 707.56 571.396C706.974 571.329 706.388 571.262 705.805 571.265C704.513 562.601 701.043 554.618 695.81 548.27C690.577 541.922 683.801 537.479 676.294 535.471C668.786 533.462 660.864 533.974 653.474 536.945C646.085 539.916 639.54 545.22 634.622 552.224C631.14 549.619 627.144 547.998 622.956 547.492C618.768 546.987 614.505 547.61 610.509 549.312C606.513 551.015 602.896 553.749 599.949 557.294C597.002 560.839 594.807 565.098 593.541 569.726C589.528 564.633 584.076 561.289 578.072 560.24C572.069 559.191 565.87 560.498 560.485 563.948C557.895 559.329 554.232 555.632 549.885 553.25C545.538 550.868 540.67 549.89 535.797 550.42C530.925 550.95 526.229 552.967 522.211 556.258C518.192 559.55 515 563.991 512.973 569.112C509.661 563.89 505.128 559.842 499.866 557.406C494.604 554.969 488.813 554.237 483.12 555.288C480.91 548.294 476.805 542.332 471.384 538.241C465.963 534.15 459.499 532.136 452.902 532.483C447.937 525.525 440.773 521.056 432.864 519.985C424.955 518.913 416.893 521.319 410.315 526.714C405.002 524.231 399.146 523.489 393.392 524.57C387.638 525.65 382.211 528.51 377.71 532.835C375.705 526.811 372.277 521.572 367.794 517.683C363.312 513.794 357.944 511.402 352.27 510.764L352.058 510.739C350.257 500.457 345.369 491.305 338.221 484.831C331.073 478.357 322.104 474.958 312.831 475.21C303.557 475.462 294.549 479.349 287.33 486.213C280.111 493.078 275.124 502.498 273.212 512.881L271.586 512.695C266.222 512.073 260.768 512.929 255.679 515.191C250.591 517.454 246.018 521.056 242.344 525.697C238.67 530.337 236.003 535.88 234.566 541.859C233.13 547.838 232.966 554.08 234.088 560.059C235.21 566.038 237.586 571.58 241.016 576.22C244.446 580.86 248.83 584.462 253.8 586.724C258.769 588.986 264.179 589.841 269.575 589.218C274.971 588.595 280.196 586.512 284.81 583.143C418.373 616.596 686 683.5 688 683.5C690 683.5 691.074 647.59 691.361 629.635C697.135 632.928 703.826 633.693 710.194 631.788L731.806 634.26C735.898 640.162 741.624 644.311 748.102 646.066C747.961 646.856 747.829 647.647 747.737 648.455C747.098 654.159 747.868 659.905 749.961 665.045C752.054 670.185 755.385 674.514 759.581 677.544C763.776 680.573 768.667 682.183 773.703 682.191C778.739 682.199 783.719 680.605 788.081 677.589C792.442 674.574 796.013 670.256 798.389 665.123C800.765 659.99 801.852 654.247 801.527 648.541C801.203 642.835 799.479 637.394 796.552 632.831C793.625 628.269 789.609 624.766 784.959 622.718Z" fill="white"/>
<path d="M1363.48 612.027C1365.73 604.914 1364.2 597.445 1359.17 591.039C1354.14 584.632 1345.96 579.734 1336.19 577.275C1326.42 574.816 1315.74 574.967 1306.18 577.7C1296.61 580.432 1288.83 585.556 1284.31 592.098C1281.69 587.087 1276.97 582.747 1270.78 579.652C1264.6 576.557 1257.24 574.854 1249.69 574.769C1248.87 574.761 1248.06 574.752 1247.26 574.802C1244.21 567.549 1238.27 561.052 1230.15 556.089C1222.03 551.126 1212.08 547.906 1201.48 546.814C1190.88 545.723 1180.08 546.806 1170.38 549.934C1160.68 553.062 1152.48 558.103 1146.76 564.454C1141.6 562.526 1135.87 561.476 1130.05 561.389C1124.23 561.302 1118.47 562.181 1113.24 563.954C1108 565.726 1103.44 568.344 1099.92 571.597C1096.4 574.849 1094.01 578.645 1092.96 582.68C1086.7 578.683 1078.73 576.289 1070.33 575.889C1061.94 575.489 1053.62 577.106 1046.74 580.477C1042.5 576.766 1036.93 573.926 1030.62 572.259C1024.3 570.591 1017.47 570.159 1010.86 571.007C1004.25 571.856 998.108 573.954 993.078 577.078C988.049 580.202 984.323 584.236 982.296 588.751C976.98 584.587 970.163 581.52 962.582 579.88C955.001 578.241 946.945 578.093 939.286 579.452C935.222 573.693 928.709 568.965 920.666 565.934C912.622 562.902 903.453 561.721 894.451 562.555C886.611 557.051 876.119 553.842 865.107 553.579C854.094 553.316 843.385 556.019 835.153 561.139C827.496 559.466 819.348 559.315 811.611 560.703C803.873 562.091 796.847 564.965 791.308 569.006C787.668 564.053 782.19 559.885 775.465 556.948C768.739 554.012 761.02 552.419 753.138 552.342L752.844 552.338C748.855 543.753 740.797 536.379 730.033 531.465C719.268 526.551 706.457 524.399 693.767 525.371C681.077 526.344 669.288 530.382 660.392 536.803C651.497 543.224 646.042 551.634 644.95 560.609C644.206 560.601 643.448 560.592 642.69 560.584C635.238 560.494 627.878 561.667 621.228 564.005C614.578 566.343 608.833 569.777 604.476 574.019C600.118 578.261 597.275 583.187 596.185 588.383C595.095 593.579 595.791 598.894 598.213 603.88C600.635 608.867 604.713 613.38 610.105 617.04C615.497 620.7 622.044 623.401 629.198 624.916C636.352 626.43 643.903 626.714 651.217 625.743C658.53 624.772 665.393 622.575 671.229 619.337L886.022 621.703C894.171 623.784 902.997 624.102 911.365 622.617C914.975 627.747 920.539 632.073 927.428 635.107C934.318 638.141 942.257 639.761 950.349 639.784C958.442 639.807 966.364 638.233 973.221 635.238C980.078 632.244 985.596 627.949 989.151 622.84L1046.7 623.474C1052.9 626.599 1060.29 628.319 1067.88 628.402C1075.47 628.486 1082.9 626.929 1089.16 623.942L1236.05 625.56C1244.46 627.885 1253.75 627.987 1262.21 625.848L1292.24 626.179C1298.72 630.857 1307.19 633.912 1316.34 634.874C1316.26 635.556 1316.2 636.239 1316.19 636.932C1316.16 641.829 1318.06 646.647 1321.69 650.841C1325.32 655.036 1330.53 658.44 1336.74 660.67C1342.94 662.9 1349.89 663.866 1356.81 663.461C1363.72 663.056 1370.32 661.295 1375.86 658.377C1381.4 655.458 1385.66 651.499 1388.17 646.945C1390.67 642.391 1391.32 637.424 1390.03 632.604C1388.74 627.785 1385.57 623.304 1380.88 619.668C1376.19 616.032 1370.17 613.386 1363.48 612.027Z" fill="white"/>
<path d="M1363.48 612.027C1365.73 604.914 1364.2 597.445 1359.17 591.039C1354.14 584.632 1345.96 579.734 1336.19 577.275C1326.42 574.816 1315.74 574.967 1306.18 577.7C1296.61 580.432 1288.83 585.556 1284.31 592.098C1281.69 587.087 1276.97 582.747 1270.78 579.652C1264.6 576.557 1257.24 574.854 1249.69 574.769C1248.87 574.761 1248.06 574.752 1247.26 574.802C1244.21 567.549 1238.27 561.052 1230.15 556.089C1222.03 551.126 1212.08 547.906 1201.48 546.814C1190.88 545.723 1180.08 546.806 1170.38 549.934C1160.68 553.062 1152.48 558.103 1146.76 564.454C1141.6 562.526 1135.87 561.476 1130.05 561.389C1124.23 561.302 1118.47 562.181 1113.24 563.954C1108 565.726 1103.44 568.344 1099.92 571.597C1096.4 574.849 1094.01 578.645 1092.96 582.68C1086.7 578.683 1078.73 576.289 1070.33 575.889C1061.94 575.489 1053.62 577.106 1046.74 580.477C1042.5 576.766 1036.93 573.926 1030.62 572.259C1024.3 570.591 1017.47 570.159 1010.86 571.007C1004.25 571.856 998.108 573.954 993.078 577.078C988.049 580.202 984.323 584.236 982.296 588.751C976.98 584.587 970.163 581.52 962.582 579.88C955.001 578.241 946.945 578.093 939.286 579.452C935.222 573.693 928.709 568.965 920.666 565.934C912.622 562.902 903.453 561.721 894.451 562.555C886.611 557.051 876.119 553.842 865.107 553.579C854.094 553.316 843.385 556.019 835.153 561.139C827.496 559.466 819.348 559.315 811.611 560.703C803.873 562.091 796.847 564.965 791.308 569.006C787.668 564.053 782.19 559.885 775.465 556.948C768.739 554.012 761.02 552.419 753.138 552.342L752.844 552.338C748.855 543.753 740.797 536.379 730.033 531.465C719.268 526.551 706.457 524.399 693.767 525.371C681.077 526.344 669.288 530.382 660.392 536.803C651.497 543.224 646.042 551.634 644.95 560.609C644.206 560.601 643.448 560.592 642.69 560.584C635.238 560.494 627.878 561.667 621.228 564.005C614.578 566.343 608.833 569.777 604.476 574.019C600.118 578.261 597.275 583.187 596.185 588.383C595.095 593.579 595.791 598.894 598.213 603.88C600.635 608.867 604.713 613.38 610.105 617.04C615.497 620.7 622.044 623.401 629.198 624.916C636.352 626.43 643.903 626.714 651.217 625.743C658.53 624.772 665.393 622.575 671.229 619.337L886.022 621.703C894.171 623.784 902.997 624.102 911.365 622.617C914.975 627.747 920.539 632.073 927.428 635.107C934.318 638.141 942.257 639.761 950.349 639.784C958.442 639.807 966.364 638.233 973.221 635.238C980.078 632.244 985.596 627.949 989.151 622.84L1046.7 623.474C1052.9 626.599 1060.29 628.319 1067.88 628.402C1075.47 628.486 1082.9 626.929 1089.16 623.942L1236.05 625.56C1244.46 627.885 1253.75 627.987 1262.21 625.848L1292.24 626.179C1298.72 630.857 1307.19 633.912 1316.34 634.874C1316.26 635.556 1316.2 636.239 1316.19 636.932C1316.16 641.829 1318.06 646.647 1321.69 650.841C1325.32 655.036 1330.53 658.44 1336.74 660.67C1342.94 662.9 1349.89 663.866 1356.81 663.461C1363.72 663.056 1370.32 661.295 1375.86 658.377C1381.4 655.458 1385.66 651.499 1388.17 646.945C1390.67 642.391 1391.32 637.424 1390.03 632.604C1388.74 627.785 1385.57 623.304 1380.88 619.668C1376.19 616.032 1370.17 613.386 1363.48 612.027Z" fill="white"/>
<path d="M236.105 627.528C248.569 625.048 260.601 619.593 269.915 612.201C279.23 604.808 285.179 595.993 286.631 587.428C288.083 578.864 284.938 571.148 277.793 565.745C270.648 560.342 260.001 557.629 247.874 558.121C255.513 553.293 261.469 547.327 264.952 541.014C268.435 534.701 269.28 528.338 267.375 522.77C267.17 522.17 266.964 521.569 266.663 521.014C277.926 514.578 287.144 506.469 293.217 497.659C299.289 488.848 301.959 479.707 300.907 471.329C299.855 462.95 295.125 455.689 287.284 450.413C279.442 445.137 268.82 442.069 256.687 441.576C258.502 436.685 258.701 431.894 257.269 427.59C255.836 423.285 252.812 419.586 248.44 416.791C244.068 413.995 238.47 412.181 232.095 411.494C225.721 410.807 218.748 411.267 211.738 412.836C216.704 405.945 218.534 398.728 216.927 392.363C215.32 385.998 210.372 380.86 202.89 377.786C207.928 372.539 211.152 366.82 212.219 361.237C213.287 355.654 212.159 350.416 208.954 346.079C205.75 341.742 200.589 338.468 194.02 336.604C187.451 334.741 179.719 334.358 171.645 335.496C177.144 329.197 180.41 322.436 181.088 315.946C181.766 309.456 179.831 303.483 175.493 298.675C183.989 292.365 190.105 284.864 192.978 277.229C195.851 269.593 195.337 262.208 191.508 256.114C198.557 247.193 201.064 237.666 198.519 229.466C195.974 221.267 188.569 215.009 177.806 211.964C178.521 205.398 176.565 199.357 172.156 194.509C167.746 189.66 161.054 186.193 152.818 184.49C160.086 178.957 165.551 172.537 168.623 165.919C171.695 159.302 172.258 152.737 170.252 146.934L170.178 146.716C183.407 138.822 193.513 128.657 198.787 117.942C204.06 107.226 204.178 96.6162 199.119 87.9081C194.061 79.1999 184.137 72.9276 171.026 70.152C157.916 67.3765 142.423 68.268 127.169 72.676L126.599 71.0102C124.73 65.5126 120.78 60.8151 115.083 57.3122C109.385 53.8093 102.106 51.6034 93.8558 50.8797C85.6057 50.156 76.6261 50.9356 67.671 53.1532C58.716 55.3707 50.0471 58.9614 42.3926 63.6235L-13.9998 63.6235L-13.9998 636.199L147.792 636.199C145.757 642.026 146.028 647.666 148.575 652.482C151.123 657.298 155.846 661.098 162.211 663.455C168.575 665.811 176.329 666.63 184.597 665.818C192.865 665.006 201.317 662.596 209.001 658.86C216.685 655.125 223.295 650.211 228.084 644.675C232.873 639.139 235.651 633.2 236.105 627.528Z" fill="white"/>
<path d="M1509.17 612.775C1504.71 603.047 1503.66 593.582 1506.15 585.512C1508.63 577.442 1514.55 571.109 1523.18 567.268C1531.82 563.428 1542.81 562.244 1554.85 563.857C1553.9 558.726 1554.54 553.973 1556.69 549.981C1558.85 545.989 1562.47 542.869 1567.26 540.872C1572.05 538.875 1577.87 538.057 1584.27 538.483C1590.67 538.909 1597.46 540.568 1604.09 543.326C1600.39 535.679 1599.84 528.255 1602.52 522.264C1605.2 516.273 1610.96 512.068 1618.87 510.335C1614.81 504.295 1612.63 498.105 1612.54 492.421C1612.45 486.738 1614.47 481.774 1618.38 478.056C1622.28 474.339 1627.93 472.007 1634.73 471.308C1641.52 470.609 1649.2 471.569 1656.96 474.087C1652.63 466.931 1650.58 459.708 1651.04 453.198C1651.49 446.688 1654.43 441.141 1659.53 437.156C1652.26 429.471 1647.53 421.025 1646.02 413.008C1644.51 404.99 1646.3 397.805 1651.12 392.466C1645.72 382.46 1644.9 372.642 1648.83 365.007C1652.75 357.371 1661.13 352.489 1672.26 351.352C1672.69 344.761 1675.66 339.149 1680.84 335.137C1686.02 331.124 1693.21 328.867 1701.62 328.614C1695.42 321.907 1691.15 314.638 1689.27 307.589C1687.38 300.54 1687.97 293.977 1690.94 288.608L1691.06 288.407C1679.39 278.343 1671.2 266.584 1667.86 255.117C1664.52 243.65 1666.23 233.181 1672.72 225.479C1679.21 217.777 1690.07 213.316 1703.46 212.85C1716.86 212.384 1731.96 215.942 1746.22 222.922L1747.07 221.38C1749.87 216.289 1754.57 212.345 1760.79 209.881C1767 207.416 1774.55 206.503 1782.81 207.217L1931.5 207.217L1931.5 843.5H1584.27H805.946C803.538 845.188 800.877 846.391 798.134 847.007C793.731 847.995 789.389 847.408 785.841 845.345C782.293 843.283 779.757 839.871 778.664 835.688C777.57 831.504 777.984 826.806 779.838 822.387L779.764 822.328C777.788 820.758 776.359 818.577 775.631 816.02C774.903 813.463 774.903 810.627 775.632 807.816C772.876 808.45 770.132 808.298 767.703 807.378C765.274 806.457 763.255 804.804 761.869 802.601C758.069 803.166 754.446 802.224 751.737 799.964C749.027 797.705 747.434 794.298 747.28 790.435C744.715 789.033 742.78 786.743 741.749 783.889C740.718 781.035 740.642 777.759 741.532 774.524C739.133 773.607 737.137 771.973 735.758 769.799C734.38 767.625 733.672 764.995 733.712 762.192C731.69 763.712 729.397 764.696 727.076 765.039C724.756 765.383 722.494 765.074 720.532 764.145C718.57 763.216 716.981 761.701 715.933 759.762C714.885 757.823 714.418 755.531 714.581 753.131C711.708 753.219 709.055 752.283 707.057 750.476C705.059 748.669 703.832 746.098 703.577 743.182C701.962 744.688 700.089 745.832 698.109 746.525C696.128 747.217 694.096 747.438 692.175 747.169C690.254 746.9 688.498 746.149 687.048 744.977C685.598 743.804 684.495 742.243 683.827 740.418C680.255 741.997 676.489 742.535 672.98 741.969C669.472 741.403 666.368 739.756 664.04 737.226C661.712 734.696 660.258 731.389 659.853 727.701C659.448 724.012 660.108 720.099 661.754 716.428C661.534 716.293 661.33 716.131 661.126 715.968C659.236 714.459 657.936 712.302 657.399 709.784C656.861 707.265 657.111 704.504 658.116 701.866C654.785 703.759 651.098 704.414 647.756 703.708C644.415 703.001 641.652 700.982 639.991 698.034C638.331 695.086 637.889 691.414 638.75 687.716C639.611 684.018 641.714 680.551 644.66 677.973C643.416 676.094 642.769 673.796 642.791 671.339C642.813 668.882 643.505 666.364 644.787 664.07C646.069 661.775 647.891 659.794 650.047 658.351C652.203 656.908 654.608 656.061 656.989 655.904L658.116 549.981L779.838 585.512L1149.5 601.5L1509.17 612.775Z" fill="white"/>
<path d="M346.352 599.704C344.131 604.697 343.5 610.322 344.579 615.512C345.657 620.702 348.371 625.094 352.203 627.855C356.035 630.616 360.72 631.553 365.367 630.489C370.014 629.424 374.3 626.431 377.411 622.08C377.685 626.011 378.987 629.655 381.145 632.53C383.303 635.406 386.215 637.376 389.495 638.179C389.848 638.265 390.202 638.352 390.56 638.393C390.627 644.009 392.086 649.354 394.763 653.789C397.439 658.223 401.22 661.56 405.653 663.4C410.086 665.24 414.984 665.506 419.761 664.165C424.538 662.824 428.993 659.934 432.592 655.839C434.508 657.759 436.821 659.09 439.346 659.725C441.87 660.36 444.535 660.281 447.126 659.495C449.718 658.709 452.163 657.238 454.265 655.199C456.368 653.161 458.069 650.612 459.232 647.758C461.266 651.302 464.327 653.839 467.919 654.956C471.51 656.073 475.419 655.703 479.007 653.908C480.208 657.043 482.144 659.672 484.609 661.514C487.074 663.356 489.975 664.343 493.006 664.369C496.036 664.396 499.082 663.461 501.821 661.664C504.559 659.868 506.886 657.277 508.557 654.166C510.15 657.74 512.589 660.657 515.61 662.602C518.631 664.548 522.119 665.447 525.696 665.202C526.466 669.822 528.483 673.927 531.463 676.938C534.443 679.949 538.237 681.715 542.309 681.986C544.769 686.79 548.786 690.172 553.544 691.445C558.301 692.718 563.443 691.788 567.925 688.842C570.974 690.82 574.501 691.731 578.118 691.472C581.734 691.214 585.299 689.797 588.419 687.378C589.144 691.365 590.807 694.959 593.229 697.771C595.651 700.583 598.74 702.508 602.164 703.338L602.292 703.369C602.536 710.054 604.767 716.25 608.606 720.908C612.445 725.566 617.658 728.401 623.362 728.933C629.066 729.465 634.912 727.661 639.91 723.828C644.908 719.994 648.752 714.365 650.792 707.893C651.115 707.972 651.444 708.053 651.773 708.133C655.008 708.93 658.423 708.792 661.73 707.731C665.038 706.67 668.142 704.716 670.781 702.035C673.421 699.353 675.519 696.021 676.899 692.319C678.28 688.617 678.902 684.654 678.714 680.761C678.526 676.868 677.534 673.16 675.819 669.948C674.105 666.736 671.72 664.114 668.864 662.302C666.007 660.49 662.763 659.541 659.404 659.535C656.045 659.529 652.669 660.466 649.56 662.267L556.288 639.458C553.095 637.133 549.301 636.034 545.393 636.302C544.712 632.187 543.039 628.47 540.562 625.57C538.086 622.67 534.905 620.704 531.38 619.893C527.854 619.082 524.125 619.459 520.612 620.981C517.1 622.503 513.945 625.11 511.505 628.506L486.513 622.395C484.354 619.496 481.43 617.51 478.134 616.704C474.838 615.898 471.328 616.31 468.075 617.886L404.292 602.288C401.029 599.759 396.993 598.772 392.931 599.509L379.893 596.321C377.878 592.255 374.716 589.185 370.893 587.583C371.045 587.09 371.192 586.596 371.316 586.088C372.185 582.502 372.193 578.784 371.34 575.353C370.488 571.923 368.808 568.916 366.49 566.673C364.172 564.43 361.309 563.039 358.224 562.658C355.138 562.276 351.953 562.92 349.028 564.515C346.102 566.111 343.553 568.595 341.668 571.687C339.783 574.779 338.636 578.357 338.358 582.016C338.08 585.675 338.681 589.27 340.093 592.396C341.506 595.521 343.674 598.052 346.352 599.704Z" fill="white"/>
<path d="M346.352 599.704C344.131 604.697 343.5 610.322 344.579 615.512C345.657 620.702 348.371 625.094 352.203 627.855C356.035 630.616 360.72 631.553 365.367 630.489C370.014 629.424 374.3 626.431 377.411 622.08C377.685 626.011 378.987 629.655 381.145 632.53C383.303 635.406 386.215 637.376 389.495 638.179C389.848 638.265 390.202 638.352 390.56 638.393C390.627 644.009 392.086 649.354 394.763 653.789C397.439 658.223 401.22 661.56 405.653 663.4C410.086 665.24 414.984 665.506 419.761 664.165C424.538 662.824 428.993 659.934 432.592 655.839C434.508 657.759 436.821 659.09 439.346 659.725C441.87 660.36 444.535 660.281 447.126 659.495C449.718 658.709 452.163 657.238 454.265 655.199C456.368 653.161 458.069 650.612 459.232 647.758C461.266 651.302 464.327 653.839 467.919 654.956C471.51 656.073 475.419 655.703 479.007 653.908C480.208 657.043 482.144 659.672 484.609 661.514C487.074 663.356 489.975 664.343 493.006 664.369C496.036 664.396 499.082 663.461 501.821 661.664C504.559 659.868 506.886 657.277 508.557 654.166C510.15 657.74 512.589 660.657 515.61 662.602C518.631 664.548 522.119 665.447 525.696 665.202C526.466 669.822 528.483 673.927 531.463 676.938C534.443 679.949 538.237 681.715 542.309 681.986C544.769 686.79 548.786 690.172 553.544 691.445C558.301 692.718 563.443 691.788 567.925 688.842C570.974 690.82 574.501 691.731 578.118 691.472C581.734 691.214 585.299 689.797 588.419 687.378C589.144 691.365 590.807 694.959 593.229 697.771C595.651 700.583 598.74 702.508 602.164 703.338L602.292 703.369C602.536 710.054 604.767 716.25 608.606 720.908C612.445 725.566 617.658 728.401 623.362 728.933C629.066 729.465 634.912 727.661 639.91 723.828C644.908 719.994 648.752 714.365 650.792 707.893C651.115 707.972 651.444 708.053 651.773 708.133C655.008 708.93 658.423 708.792 661.73 707.731C665.038 706.67 668.142 704.716 670.781 702.035C673.421 699.353 675.519 696.021 676.899 692.319C678.28 688.617 678.902 684.654 678.714 680.761C678.526 676.868 677.534 673.16 675.819 669.948C674.105 666.736 671.72 664.114 668.864 662.302C666.007 660.49 662.763 659.541 659.404 659.535C656.045 659.529 652.669 660.466 649.56 662.267L556.288 639.458C553.095 637.133 549.301 636.034 545.393 636.302C544.712 632.187 543.039 628.47 540.562 625.57C538.086 622.67 534.905 620.704 531.38 619.893C527.854 619.082 524.125 619.459 520.612 620.981C517.1 622.503 513.945 625.11 511.505 628.506L486.513 622.395C484.354 619.496 481.43 617.51 478.134 616.704C474.838 615.898 471.328 616.31 468.075 617.886L404.292 602.288C401.029 599.759 396.993 598.772 392.931 599.509L379.893 596.321C377.878 592.255 374.716 589.185 370.893 587.583C371.045 587.09 371.192 586.596 371.316 586.088C372.185 582.502 372.193 578.784 371.34 575.353C370.488 571.923 368.808 568.916 366.49 566.673C364.172 564.43 361.309 563.039 358.224 562.658C355.138 562.276 351.953 562.92 349.028 564.515C346.102 566.111 343.553 568.595 341.668 571.687C339.783 574.779 338.636 578.357 338.358 582.016C338.08 585.675 338.681 589.27 340.093 592.396C341.506 595.521 343.674 598.052 346.352 599.704Z" fill="white"/>
<path d="M44.1697 521.705C41.9487 526.698 41.3175 532.323 42.3961 537.513C43.4747 542.703 46.1879 547.096 50.0203 549.857C53.8527 552.618 58.5374 553.555 63.1846 552.49C67.8319 551.425 72.1179 548.433 75.2286 544.081C75.5024 548.012 76.8047 551.657 78.9627 554.532C81.1207 557.407 84.0327 559.377 87.3122 560.18C87.6658 560.267 88.0193 560.353 88.3774 560.395C88.4445 566.011 89.9035 571.355 92.5799 575.79C95.2564 580.225 99.0371 583.561 103.47 585.401C107.903 587.241 112.801 587.507 117.578 586.166C122.356 584.825 126.81 581.935 130.409 577.841C132.326 579.761 134.639 581.091 137.163 581.726C139.688 582.361 142.353 582.283 144.944 581.496C147.535 580.71 149.98 579.239 152.083 577.2C154.185 575.162 155.887 572.613 157.05 569.759C159.083 573.303 162.145 575.841 165.736 576.957C169.327 578.074 173.236 577.705 176.825 575.909C178.026 579.045 179.961 581.673 182.426 583.515C184.891 585.357 187.793 586.344 190.823 586.37C193.854 586.397 196.9 585.462 199.638 583.666C202.376 581.869 204.704 579.278 206.374 576.167C207.967 579.741 210.407 582.658 213.428 584.604C216.449 586.549 219.936 587.448 223.513 587.204C224.283 591.824 226.3 595.928 229.28 598.939C232.261 601.95 236.054 603.716 240.126 603.988C242.587 608.791 246.604 612.173 251.361 613.446C256.119 614.72 261.26 613.789 265.743 610.844C268.791 612.822 272.318 613.732 275.935 613.473C279.551 613.215 283.117 611.798 286.236 609.379C286.961 613.367 288.624 616.96 291.046 619.772C293.468 622.585 296.558 624.509 299.982 625.339L300.11 625.371C300.354 632.055 302.584 638.251 306.423 642.909C310.263 647.567 315.475 650.402 321.179 650.934C326.884 651.466 332.729 649.663 337.728 645.829C342.726 641.995 346.57 636.366 348.609 629.895C348.932 629.974 349.262 630.054 349.591 630.135C352.826 630.932 356.24 630.794 359.548 629.733C362.855 628.671 365.959 626.718 368.599 624.036C371.238 621.354 373.336 618.022 374.717 614.321C376.097 610.619 376.719 606.655 376.531 602.762C376.344 598.869 375.351 595.161 373.637 591.949C371.923 588.737 369.537 586.115 366.681 584.303C363.825 582.491 360.581 581.542 357.221 581.536C353.862 581.53 350.486 582.467 347.377 584.268L254.105 561.459C250.913 559.135 247.119 558.036 243.21 558.303C242.529 554.189 240.856 550.471 238.38 547.571C235.903 544.672 232.723 542.705 229.197 541.894C225.672 541.083 221.942 541.46 218.43 542.982C214.917 544.504 211.763 547.111 209.322 550.508L184.331 544.396C182.172 541.497 179.248 539.511 175.952 538.705C172.656 537.899 169.146 538.312 165.892 539.887L102.11 524.289C98.8466 521.76 94.8102 520.773 90.748 521.511L77.7099 518.322C75.6955 514.257 72.533 511.186 68.7099 509.584C68.8627 509.091 69.0094 508.597 69.1335 508.09C70.0022 504.504 70.0105 500.785 69.1578 497.355C68.305 493.924 66.625 490.918 64.3073 488.674C61.9896 486.431 59.1265 485.04 56.041 484.659C52.9555 484.278 49.7703 484.921 46.845 486.517C43.9197 488.112 41.3706 490.596 39.4853 493.689C37.6 496.781 36.4536 500.358 36.1754 504.017C35.8972 507.677 36.4983 511.272 37.9108 514.397C39.3234 517.522 41.4912 520.054 44.1697 521.705Z" fill="white"/>
<path d="M44.1697 521.705C41.9487 526.698 41.3175 532.323 42.3961 537.513C43.4747 542.703 46.1879 547.096 50.0203 549.857C53.8527 552.618 58.5374 553.555 63.1846 552.49C67.8319 551.425 72.1179 548.433 75.2286 544.081C75.5024 548.012 76.8047 551.657 78.9627 554.532C81.1207 557.407 84.0327 559.377 87.3122 560.18C87.6658 560.267 88.0193 560.353 88.3774 560.395C88.4445 566.011 89.9035 571.355 92.5799 575.79C95.2564 580.225 99.0371 583.561 103.47 585.401C107.903 587.241 112.801 587.507 117.578 586.166C122.356 584.825 126.81 581.935 130.409 577.841C132.326 579.761 134.639 581.091 137.163 581.726C139.688 582.361 142.353 582.283 144.944 581.496C147.535 580.71 149.98 579.239 152.083 577.2C154.185 575.162 155.887 572.613 157.05 569.759C159.083 573.303 162.145 575.841 165.736 576.957C169.327 578.074 173.236 577.705 176.825 575.909C178.026 579.045 179.961 581.673 182.426 583.515C184.891 585.357 187.793 586.344 190.823 586.37C193.854 586.397 196.9 585.462 199.638 583.666C202.376 581.869 204.704 579.278 206.374 576.167C207.967 579.741 210.407 582.658 213.428 584.604C216.449 586.549 219.936 587.448 223.513 587.204C224.283 591.824 226.3 595.928 229.28 598.939C232.261 601.95 236.054 603.716 240.126 603.988C242.587 608.791 246.604 612.173 251.361 613.446C256.119 614.72 261.26 613.789 265.743 610.844C268.791 612.822 272.318 613.732 275.935 613.473C279.551 613.215 283.117 611.798 286.236 609.379C286.961 613.367 288.624 616.96 291.046 619.772C293.468 622.585 296.558 624.509 299.982 625.339L300.11 625.371C300.354 632.055 302.584 638.251 306.423 642.909C310.263 647.567 315.475 650.402 321.179 650.934C326.884 651.466 332.729 649.663 337.728 645.829C342.726 641.995 346.57 636.366 348.609 629.895C348.932 629.974 349.262 630.054 349.591 630.135C352.826 630.932 356.24 630.794 359.548 629.733C362.855 628.671 365.959 626.718 368.599 624.036C371.238 621.354 373.336 618.022 374.717 614.321C376.097 610.619 376.719 606.655 376.531 602.762C376.344 598.869 375.351 595.161 373.637 591.949C371.923 588.737 369.537 586.115 366.681 584.303C363.825 582.491 360.581 581.542 357.221 581.536C353.862 581.53 350.486 582.467 347.377 584.268L254.105 561.459C250.913 559.135 247.119 558.036 243.21 558.303C242.529 554.189 240.856 550.471 238.38 547.571C235.903 544.672 232.723 542.705 229.197 541.894C225.672 541.083 221.942 541.46 218.43 542.982C214.917 544.504 211.763 547.111 209.322 550.508L184.331 544.396C182.172 541.497 179.248 539.511 175.952 538.705C172.656 537.899 169.146 538.312 165.892 539.887L102.11 524.289C98.8466 521.76 94.8102 520.773 90.748 521.511L77.7099 518.322C75.6955 514.257 72.533 511.186 68.7099 509.584C68.8627 509.091 69.0094 508.597 69.1335 508.09C70.0022 504.504 70.0105 500.785 69.1578 497.355C68.305 493.924 66.625 490.918 64.3073 488.674C61.9896 486.431 59.1265 485.04 56.041 484.659C52.9555 484.278 49.7703 484.921 46.845 486.517C43.9197 488.112 41.3706 490.596 39.4853 493.689C37.6 496.781 36.4536 500.358 36.1754 504.017C35.8972 507.677 36.4983 511.272 37.9108 514.397C39.3234 517.522 41.4912 520.054 44.1697 521.705Z" fill="white"/>
</svg>
