<svg width="600" height="432" viewBox="0 0 600 432" fill="none" xmlns="http://www.w3.org/2000/svg">
<path d="M566.22 80.2166C567.865 77.8686 566.88 75.2681 563.45 72.909C560.02 70.5499 554.385 68.5965 547.615 67.4198C540.844 66.2432 533.411 65.9253 526.726 66.5264C520.041 67.1276 514.57 68.606 511.352 70.6808C509.579 68.8809 506.343 67.2372 502.075 65.9678C497.806 64.6983 492.707 63.8631 487.452 63.5729C486.885 63.5417 486.319 63.5105 485.761 63.5C483.719 60.9206 479.658 58.4994 474.064 56.5258C468.47 54.5523 461.58 53.1098 454.216 52.3709C446.853 51.6319 439.328 51.6278 432.541 52.3589C425.754 53.09 419.992 54.5255 415.944 56.4938C412.373 55.6576 408.402 55.1016 404.352 54.8706C400.301 54.6396 396.284 54.7399 392.623 55.1635C388.962 55.5871 385.759 56.3222 383.272 57.3096C380.786 58.297 379.084 59.5093 378.305 60.8488C373.995 59.269 368.472 58.1767 362.636 57.7499C356.799 57.323 350.995 57.5869 346.169 58.4985C343.263 57.0863 339.417 55.9249 335.04 55.1377C330.663 54.3505 325.918 53.9669 321.31 54.0276C316.701 54.0884 312.401 54.5912 308.867 55.4827C305.332 56.3742 302.694 57.6211 301.234 59.0909C297.581 57.4869 292.872 56.2048 287.615 55.3836C282.358 54.5623 276.754 54.233 271.41 54.4314C268.645 52.3267 264.166 50.4889 258.603 49.1768C253.039 47.8647 246.673 47.1446 240.399 47.1177C235.005 44.9693 227.74 43.5119 220.08 43.0412C212.42 42.5705 204.938 43.1219 199.153 44.5834C193.844 43.7477 188.176 43.4143 182.776 43.6201C177.377 43.8259 172.456 44.5629 168.557 45.7496C166.079 43.9345 162.314 42.3232 157.666 41.0891C153.019 39.8549 147.665 39.0447 142.182 38.7456L141.977 38.7343C139.297 35.668 133.772 32.8745 126.336 30.8262C118.9 28.7779 110.01 27.6005 101.169 27.4932C92.3282 27.386 84.0796 28.3554 77.8185 30.2376C71.5574 32.1198 67.6681 34.7991 66.8086 37.8224C66.291 37.7938 65.7636 37.7648 65.2363 37.7357C60.0515 37.4473 54.917 37.5928 50.2639 38.1601C45.6108 38.7274 41.5751 39.6999 38.4957 40.9959C35.4164 42.2919 33.3833 43.8735 32.5672 45.608C31.7512 47.3424 32.176 49.179 33.8061 50.9635C35.4361 52.748 38.2237 54.4283 41.9348 55.8632C45.6458 57.2981 50.172 58.4457 55.133 59.2097C60.094 59.9737 65.345 60.3316 70.445 60.2536C75.545 60.1755 80.345 59.6637 84.4418 58.7611L233.876 66.999C239.524 67.9903 245.662 68.4041 251.501 68.1871C253.956 70.0617 257.78 71.7298 262.54 73.0028C267.3 74.2759 272.806 75.1031 278.437 75.3909C284.068 75.6788 289.598 75.4159 294.402 74.6318C299.207 73.8478 303.094 72.5739 305.625 70.9542L345.664 73.1615C349.943 74.4418 355.066 75.284 360.347 75.5751C365.627 75.8662 370.812 75.5922 375.205 74.79L477.394 80.4233C483.22 81.5072 489.687 81.8637 495.597 81.4268L516.486 82.5783C520.948 84.3983 526.808 85.7333 533.163 86.3776C533.102 86.6077 533.05 86.8384 533.037 87.0746C532.958 88.7435 534.229 90.4525 536.709 92.0086C539.188 93.5647 542.777 94.906 547.069 95.8812C551.361 96.8563 556.187 97.4265 561.002 97.5275C565.816 97.6285 570.428 97.2561 574.316 96.4525C578.205 95.6489 581.215 94.4459 583.008 92.9794C584.801 91.5129 585.305 89.8412 584.463 88.1529C583.621 86.4646 581.467 84.8269 578.243 83.4246C575.02 82.0223 570.855 80.9112 566.22 80.2166Z" fill="#D9D9D9"/>
<path d="M254.901 331.269C253.456 331.923 252.301 333.059 251.688 334.427C251.101 333.606 250.295 332.945 249.338 332.501C248.382 332.056 247.302 331.841 246.191 331.872C245.079 331.904 243.968 332.182 242.95 332.683C241.932 333.183 241.037 333.892 240.341 334.75C239.251 333.467 237.85 332.445 236.234 331.755C234.617 331.064 232.826 330.721 230.982 330.75C229.138 330.779 227.287 331.179 225.557 331.923C223.827 332.666 222.259 333.735 220.962 335.055C220.828 334.76 220.733 334.448 220.599 334.154C219.644 332.05 218.124 330.24 216.17 328.883C214.217 327.526 211.89 326.662 209.391 326.367C206.892 326.071 204.297 326.352 201.831 327.187C199.365 328.021 197.104 329.382 195.242 331.153C194.339 329.869 193.111 328.82 191.652 328.084C190.192 327.348 188.54 326.946 186.819 326.907C185.099 326.869 183.356 327.195 181.723 327.862C180.09 328.528 178.609 329.517 177.394 330.754C175.572 328.335 172.893 326.601 169.759 325.812C166.625 325.023 163.205 325.221 160.012 326.376C156.819 327.532 154.026 329.583 152.051 332.221C150.076 334.86 149.026 337.944 149.058 341.01C147.361 341.816 145.871 342.984 144.723 344.408C143.194 343.369 141.354 342.751 139.394 342.62C137.433 342.488 135.422 342.847 133.568 343.658C131.714 344.47 130.083 345.706 128.844 347.239C127.605 348.772 126.803 350.546 126.519 352.38C124.921 351.863 123.179 351.712 121.433 351.939C119.688 352.167 117.987 352.765 116.468 353.688C114.949 354.61 113.654 355.831 112.686 357.251C111.719 358.671 111.106 360.252 110.897 361.866C110.295 361.604 109.629 361.464 108.941 361.454C108.253 361.444 107.557 361.565 106.896 361.809C106.236 362.052 105.623 362.414 105.097 362.871C104.571 363.329 104.142 363.872 103.837 364.469C103.899 363.833 103.783 363.208 103.502 362.653C103.221 362.099 102.783 361.634 102.23 361.302C101.677 360.971 101.029 360.785 100.346 360.761C99.6633 360.738 98.9695 360.878 98.3312 361.168L98.0034 361.316C98.029 360.736 97.9064 360.17 97.6456 359.665C97.3848 359.16 96.9931 358.73 96.502 358.409C96.011 358.089 95.4344 357.886 94.8187 357.819C94.203 357.751 93.5656 357.82 92.9577 358.02C93.3572 357.134 93.3939 356.171 93.0604 355.323C92.727 354.474 92.0478 353.802 91.1575 353.439C90.2672 353.076 89.2308 353.049 88.2539 353.363C87.2769 353.678 86.4306 354.311 85.8829 355.136C85.2757 354.634 84.505 354.322 83.6669 354.239C82.8287 354.157 81.9603 354.307 81.1698 354.671C80.3794 355.036 79.7019 355.598 79.2218 356.289C78.7417 356.979 78.4803 357.767 78.4702 358.554C77.9162 358.312 77.2959 358.201 76.6602 358.23C76.0245 358.258 75.3915 358.426 74.8132 358.718C74.235 359.011 73.7278 359.42 73.3335 359.912C72.9392 360.405 72.6689 360.966 72.5448 361.551L72.1648 361.723C71.7055 361.466 71.184 361.305 70.6339 361.252C70.0838 361.199 69.5173 361.254 68.9706 361.414C68.424 361.574 67.9094 361.835 67.4599 362.181C67.0103 362.527 66.6358 362.949 66.3604 363.421C65.7634 363.031 65.0423 362.816 64.2816 362.803C63.5209 362.79 62.7522 362.979 62.0656 363.347C61.3791 363.715 60.8031 364.248 60.4053 364.883C60.0076 365.518 59.8045 366.228 59.8199 366.931C59.115 366.862 58.3859 366.971 57.7083 367.248C57.0307 367.524 56.4295 367.957 55.9671 368.501C55.5048 369.046 55.1983 369.682 55.0795 370.344C54.9608 371.006 55.0341 371.669 55.2919 372.264C54.9653 372.333 54.6453 372.437 54.3388 372.575C53.7198 372.857 53.1727 373.27 52.7464 373.779C52.3201 374.287 52.0281 374.874 51.8964 375.488C51.7647 376.101 51.7975 376.721 51.9919 377.293C52.1862 377.864 52.5361 378.369 53.01 378.762L52.7013 378.902C52.0889 379.18 51.5465 379.587 51.1217 380.087C50.6968 380.587 50.4026 381.166 50.2649 381.771C50.1272 382.377 50.1502 382.991 50.3319 383.56C50.5135 384.128 50.8483 384.634 51.3068 385.033C51.0921 385.093 50.8817 385.17 50.6778 385.262C49.6864 385.712 48.8939 386.492 48.4747 387.432C48.0555 388.371 48.0439 389.393 48.4426 390.272C48.5449 390.494 48.6714 390.706 48.8203 390.902C47.9382 390.9 47.0501 391.116 46.2475 391.529C45.4449 391.941 44.7568 392.534 44.2542 393.247C42.3096 392.223 40.0091 391.821 37.6773 392.097C35.3456 392.373 33.1004 393.313 31.2586 394.785C31.1554 394.391 31.0215 394.008 30.858 393.637C30.2591 392.304 29.2721 391.174 27.9977 390.363C26.7234 389.552 25.2073 389.089 23.6042 389.021C22.0012 388.953 20.3686 389.283 18.8731 389.976C17.3777 390.67 16.073 391.702 15.0921 392.968C13.0849 391.201 10.4647 390.118 7.60563 389.874C4.74651 389.631 1.7947 390.238 -0.828331 391.61C-3.45136 392.982 -5.61147 395.048 -7.00022 397.514C-8.38897 399.98 -8.93535 402.719 -8.56133 405.34C-10.4662 405.345 -12.3824 405.802 -14.1264 406.67C-15.8704 407.537 -17.3838 408.785 -18.5219 410.294C-19.6599 411.804 -20.3844 413.523 -20.6259 415.289C-20.8674 417.054 -20.618 418.807 -19.9014 420.378C-19.3719 421.551 -18.5903 422.597 -17.6002 423.457C-19.2288 424.594 -20.475 426.145 -21.1632 427.89C-21.5597 428.895 -21.7595 429.936 -21.7598 430.962H51.1217L223.101 352.967C224.813 353.848 226.769 354.316 228.802 354.329C230.835 354.343 232.887 353.903 234.784 353.047C236.68 352.19 238.367 350.941 239.701 349.406C241.036 347.871 241.979 346.095 242.451 344.227C243.35 344.6 244.344 344.779 245.365 344.749C246.386 344.719 247.407 344.482 248.357 344.055C249.307 343.628 250.162 343.02 250.862 342.276C251.561 341.531 252.089 340.668 252.406 339.747C253.066 340.496 253.958 341.04 254.98 341.317C256.002 341.594 257.113 341.594 258.189 341.315C259.265 341.037 260.263 340.492 261.069 339.742C261.874 338.992 262.457 338.067 262.75 337.072C263.043 336.076 263.035 335.049 262.726 334.108C262.418 333.167 261.822 332.348 261.006 331.744C260.189 331.141 259.185 330.777 258.106 330.693C257.027 330.609 255.917 330.808 254.901 331.269Z" fill="#D9D9D9"/>
<path d="M-58.598 67.2903C-58.7074 70.202 -57.9043 73.1116 -56.3415 75.4666C-54.7786 77.8216 -52.5646 79.4578 -50.1203 80.0646C-47.6759 80.6713 -45.1713 80.2063 -43.0821 78.7578C-40.993 77.3093 -39.4649 74.9783 -38.788 72.2075C-37.8731 74.0989 -36.5058 75.6448 -34.8675 76.64C-33.2293 77.6353 -31.3974 78.033 -29.6148 77.7803C-29.4227 77.753 -29.2305 77.7257 -29.0451 77.6752C-27.8983 80.4418 -26.1164 82.798 -23.9123 84.4623C-21.7083 86.1267 -19.1754 87.0286 -16.6163 87.0604C-14.0572 87.0922 -11.5802 86.2525 -9.48148 84.6416C-7.38271 83.0308 -5.75093 80.7169 -4.78118 77.9767C-3.45206 78.547 -2.04315 78.747 -0.667763 78.5608C0.707622 78.3746 2.0111 77.8072 3.13784 76.9043C4.26459 76.0014 5.18316 74.7883 5.81968 73.3624C6.4562 71.9365 6.79291 70.3376 6.80273 68.6944C8.51184 70.0454 10.5305 70.6942 12.5295 70.5349C14.5285 70.3757 16.39 69.4177 17.8103 67.8174C19.0265 69.1314 20.5058 70.0486 22.091 70.4717C23.6763 70.8947 25.3082 70.8077 26.8135 70.2199C28.3187 69.6322 29.6412 68.5656 30.6402 67.1335C31.6393 65.7013 32.2777 63.9572 32.4876 62.0863C33.9849 63.5393 35.7707 64.4996 37.6517 64.8635C39.5328 65.2273 41.4374 64.9808 43.1595 64.1506C44.4565 66.2848 46.2688 67.9166 48.3409 68.816C50.4131 69.7155 52.6408 69.8374 54.7101 69.1645C56.8807 71.0542 59.5394 71.9316 62.1467 71.6186C64.754 71.3055 67.1145 69.8255 68.7491 67.4788C70.6502 67.8535 72.5766 67.6045 74.3155 66.7595C76.0543 65.9145 77.538 64.5063 78.6026 62.6905C79.7521 64.5204 81.2877 65.9692 83.0442 66.881C84.8006 67.7928 86.7114 68.133 88.5708 67.865L88.6404 67.8551C90.0866 71.1155 92.419 73.7398 95.2429 75.2842C98.0668 76.8286 101.209 77.1982 104.138 76.3306C107.067 75.4629 109.603 73.4113 111.317 70.5226C113.03 67.634 113.817 64.0857 113.543 60.4779C113.719 60.453 113.898 60.4275 114.077 60.4021C115.836 60.1552 117.499 59.4099 118.925 58.2289C120.352 57.0478 121.501 55.4654 122.276 53.6146C123.051 51.7638 123.429 49.6987 123.378 47.5927C123.327 45.4867 122.849 43.4013 121.984 41.5117C121.12 39.6221 119.893 37.9835 118.408 36.7335C116.922 35.4835 115.222 34.6586 113.449 34.3281C111.675 33.9976 109.882 34.1711 108.218 34.8342C106.554 35.4972 105.069 36.6303 103.887 38.1384L53.1969 45.3421C51.156 44.8246 49.0601 45.0329 47.1785 45.9402C46.0256 44.0386 44.4604 42.5304 42.6597 41.5861C40.859 40.6418 38.8947 40.2991 36.9889 40.5967C35.0831 40.8943 33.3117 41.8204 31.875 43.2702C30.4383 44.72 29.3937 46.6357 28.8591 48.8009L15.2773 50.731C13.6337 49.7243 11.7928 49.3211 10.0016 49.5757C8.21034 49.8302 6.5546 50.7303 5.25658 52.1551L-29.4067 57.0812C-31.5234 56.4763 -33.717 56.788 -35.5814 57.9587L-42.6671 58.9657C-44.4704 57.3527 -46.6445 56.4599 -48.8545 56.4249C-48.8766 56.1507 -48.902 55.877 -48.9412 55.6013C-49.2223 53.654 -49.9553 51.8119 -51.0576 50.2829C-52.16 48.7539 -53.5877 47.5989 -55.1797 46.948C-56.7716 46.2972 -58.4646 46.1765 -60.0674 46.5996C-61.6703 47.0227 -63.1192 47.9727 -64.2508 49.3425C-65.3825 50.7122 -66.1517 52.4472 -66.4717 54.3516C-66.7917 56.2561 -66.6498 58.2542 -66.062 60.1205C-65.4742 61.9868 -64.4639 63.6471 -63.145 64.9139C-61.8261 66.1808 -60.2512 67.0039 -58.598 67.2903Z" fill="white"/>
<path d="M-58.598 67.2903C-58.7074 70.202 -57.9043 73.1116 -56.3415 75.4666C-54.7786 77.8216 -52.5646 79.4578 -50.1203 80.0646C-47.6759 80.6713 -45.1713 80.2063 -43.0821 78.7578C-40.993 77.3093 -39.4649 74.9783 -38.788 72.2075C-37.8731 74.0989 -36.5058 75.6448 -34.8675 76.64C-33.2293 77.6353 -31.3974 78.033 -29.6148 77.7803C-29.4227 77.753 -29.2305 77.7257 -29.0451 77.6752C-27.8983 80.4418 -26.1164 82.798 -23.9123 84.4623C-21.7083 86.1267 -19.1754 87.0286 -16.6163 87.0604C-14.0572 87.0922 -11.5802 86.2525 -9.48148 84.6416C-7.38271 83.0308 -5.75093 80.7169 -4.78118 77.9767C-3.45206 78.547 -2.04315 78.747 -0.667763 78.5608C0.707622 78.3746 2.0111 77.8072 3.13784 76.9043C4.26459 76.0014 5.18316 74.7883 5.81968 73.3624C6.4562 71.9365 6.79291 70.3376 6.80273 68.6944C8.51184 70.0454 10.5305 70.6942 12.5295 70.5349C14.5285 70.3757 16.39 69.4177 17.8103 67.8174C19.0265 69.1314 20.5058 70.0486 22.091 70.4717C23.6763 70.8947 25.3082 70.8077 26.8135 70.2199C28.3187 69.6322 29.6412 68.5656 30.6402 67.1335C31.6393 65.7013 32.2777 63.9572 32.4876 62.0863C33.9849 63.5393 35.7707 64.4996 37.6517 64.8635C39.5328 65.2273 41.4374 64.9808 43.1595 64.1506C44.4565 66.2848 46.2688 67.9166 48.3409 68.816C50.4131 69.7155 52.6408 69.8374 54.7101 69.1645C56.8807 71.0542 59.5394 71.9316 62.1467 71.6186C64.754 71.3055 67.1145 69.8255 68.7491 67.4788C70.6502 67.8535 72.5766 67.6045 74.3155 66.7595C76.0543 65.9145 77.538 64.5063 78.6026 62.6905C79.7521 64.5204 81.2877 65.9692 83.0442 66.881C84.8006 67.7928 86.7114 68.133 88.5708 67.865L88.6404 67.8551C90.0866 71.1155 92.419 73.7398 95.2429 75.2842C98.0668 76.8286 101.209 77.1982 104.138 76.3306C107.067 75.4629 109.603 73.4113 111.317 70.5226C113.03 67.634 113.817 64.0857 113.543 60.4779C113.719 60.453 113.898 60.4275 114.077 60.4021C115.836 60.1552 117.499 59.4099 118.925 58.2289C120.352 57.0478 121.501 55.4654 122.276 53.6146C123.051 51.7638 123.429 49.6987 123.378 47.5927C123.327 45.4867 122.849 43.4013 121.984 41.5117C121.12 39.6221 119.893 37.9835 118.408 36.7335C116.922 35.4835 115.222 34.6586 113.449 34.3281C111.675 33.9976 109.882 34.1711 108.218 34.8342C106.554 35.4972 105.069 36.6303 103.887 38.1384L53.1969 45.3421C51.156 44.8246 49.0601 45.0329 47.1785 45.9402C46.0256 44.0386 44.4604 42.5304 42.6597 41.5861C40.859 40.6418 38.8947 40.2991 36.9889 40.5967C35.0831 40.8943 33.3117 41.8204 31.875 43.2702C30.4383 44.72 29.3937 46.6357 28.8591 48.8009L15.2773 50.731C13.6337 49.7243 11.7928 49.3211 10.0016 49.5757C8.21034 49.8302 6.5546 50.7303 5.25658 52.1551L-29.4067 57.0812C-31.5234 56.4763 -33.717 56.788 -35.5814 57.9587L-42.6671 58.9657C-44.4704 57.3527 -46.6445 56.4599 -48.8545 56.4249C-48.8766 56.1507 -48.902 55.877 -48.9412 55.6013C-49.2223 53.654 -49.9553 51.8119 -51.0576 50.2829C-52.16 48.7539 -53.5877 47.5989 -55.1797 46.948C-56.7716 46.2972 -58.4646 46.1765 -60.0674 46.5996C-61.6703 47.0227 -63.1192 47.9727 -64.2508 49.3425C-65.3825 50.7122 -66.1517 52.4472 -66.4717 54.3516C-66.7917 56.2561 -66.6498 58.2542 -66.062 60.1205C-65.4742 61.9868 -64.4639 63.6471 -63.145 64.9139C-61.8261 66.1808 -60.2512 67.0039 -58.598 67.2903Z" fill="white"/>
<path d="M327.5 138.5L211.5 82L179.5 72.4999L130.5 69.5L-3.5 55.9999V37.9999L206.5 63.5L407.5 87.5H610.5V431.5H336.703H109.5H-12.5V404.5L109.5 383.5L244.285 347.768L306.754 283.627L336.703 203.497L327.5 138.5Z" fill="white"/>
<path d="M350.334 318.611C349.254 313.25 346.85 308.101 343.58 304.141C340.31 300.182 336.401 297.687 332.596 297.132C328.791 296.576 325.355 297.999 322.94 301.128C320.525 304.258 319.3 308.878 319.497 314.109C317.365 310.852 314.723 308.33 311.922 306.879C309.122 305.428 306.294 305.116 303.815 305.985C303.548 306.079 303.281 306.173 303.033 306.307C300.192 301.499 296.604 297.587 292.697 295.038C288.791 292.49 284.732 291.414 281.005 291.938C277.278 292.462 274.042 294.565 271.682 297.995C269.322 301.424 267.939 306.036 267.699 311.278C265.527 310.535 263.398 310.49 261.482 311.144C259.565 311.798 257.915 313.135 256.665 315.046C255.414 316.957 254.598 319.389 254.281 322.147C253.964 324.904 254.156 327.911 254.841 330.924C251.786 328.838 248.581 328.108 245.749 328.855C242.916 329.602 240.623 331.781 239.243 335.037C236.919 332.906 234.382 331.562 231.902 331.148C229.422 330.733 227.091 331.264 225.157 332.684C223.223 334.103 221.758 336.359 220.918 339.211C220.078 342.062 219.894 345.404 220.386 348.88C217.595 346.558 214.595 345.205 211.711 344.966C208.826 344.728 206.168 345.613 204.022 347.527C201.232 343.911 197.908 341.333 194.519 340.156C191.129 338.98 187.845 339.264 185.129 340.968C181.175 337.999 176.944 336.996 173.294 338.163C169.644 339.331 166.849 342.58 165.476 347.252C162.558 346.998 159.869 347.893 157.705 349.837C155.542 351.782 153.988 354.7 153.217 358.27C150.77 355.178 147.925 352.873 144.988 351.602C142.052 350.331 139.135 350.142 136.551 351.057L136.454 351.09C132.968 345.445 128.467 341.167 123.712 338.979C118.957 336.792 114.24 336.83 110.36 339.087C106.479 341.343 103.673 345.68 102.416 351.364C101.159 357.047 101.527 363.729 103.46 370.277C103.216 370.363 102.967 370.45 102.718 370.538C100.271 371.391 98.1753 373.135 96.6078 375.624C95.0403 378.113 94.0467 381.274 93.7102 384.842C93.3738 388.41 93.7045 392.28 94.6745 396.128C95.6444 399.976 97.2254 403.688 99.2845 406.954C101.344 410.22 103.821 412.944 106.508 414.896C109.195 416.849 112.014 417.973 114.728 418.175C117.441 418.377 119.97 417.651 122.102 416.057C124.234 414.463 125.907 412.049 126.98 409.016L197.464 384.278C200.645 384.761 203.598 383.903 205.942 381.812C208.424 385.034 211.337 387.441 214.352 388.762C217.366 390.083 220.362 390.263 223.001 389.284C225.639 388.305 227.816 386.205 229.283 383.221C230.751 380.237 231.451 376.489 231.305 372.4L250.191 365.771C253.004 367.242 255.847 367.562 258.337 366.687C260.828 365.813 262.847 363.787 264.124 360.881L312.323 343.963C315.652 344.59 318.702 343.52 320.909 340.95L330.762 337.492C334.065 340.037 337.6 341.178 340.821 340.739C340.97 341.237 341.123 341.733 341.297 342.229C342.534 345.733 344.382 348.942 346.632 351.493C348.882 354.044 351.445 355.836 354.032 356.666C356.619 357.496 359.127 357.332 361.273 356.192C363.418 355.052 365.116 352.981 366.175 350.213C367.234 347.446 367.612 344.091 367.266 340.529C366.919 336.966 365.863 333.337 364.216 330.051C362.569 326.764 360.396 323.952 357.943 321.931C355.49 319.909 352.855 318.759 350.334 318.611Z" fill="white"/>
<path d="M350.334 318.611C349.254 313.25 346.85 308.101 343.58 304.141C340.31 300.182 336.401 297.687 332.596 297.132C328.791 296.576 325.355 297.999 322.94 301.128C320.525 304.258 319.3 308.878 319.497 314.109C317.365 310.852 314.723 308.33 311.922 306.879C309.122 305.428 306.294 305.116 303.815 305.985C303.548 306.079 303.281 306.173 303.033 306.307C300.192 301.499 296.604 297.587 292.697 295.038C288.791 292.49 284.732 291.414 281.005 291.938C277.278 292.462 274.042 294.565 271.682 297.995C269.322 301.424 267.939 306.036 267.699 311.278C265.527 310.535 263.398 310.49 261.482 311.144C259.565 311.798 257.915 313.135 256.665 315.046C255.414 316.957 254.598 319.389 254.281 322.147C253.964 324.904 254.156 327.911 254.841 330.924C251.786 328.838 248.581 328.108 245.749 328.855C242.916 329.602 240.623 331.781 239.243 335.037C236.919 332.906 234.382 331.562 231.902 331.148C229.422 330.733 227.091 331.264 225.157 332.684C223.223 334.103 221.758 336.359 220.918 339.211C220.078 342.062 219.894 345.404 220.386 348.88C217.595 346.558 214.595 345.205 211.711 344.966C208.826 344.728 206.168 345.613 204.022 347.527C201.232 343.911 197.908 341.333 194.519 340.156C191.129 338.98 187.845 339.264 185.129 340.968C181.175 337.999 176.944 336.996 173.294 338.163C169.644 339.331 166.849 342.58 165.476 347.252C162.558 346.998 159.869 347.893 157.705 349.837C155.542 351.782 153.988 354.7 153.217 358.27C150.77 355.178 147.925 352.873 144.988 351.602C142.052 350.331 139.135 350.142 136.551 351.057L136.454 351.09C132.968 345.445 128.467 341.167 123.712 338.979C118.957 336.792 114.24 336.83 110.36 339.087C106.479 341.343 103.673 345.68 102.416 351.364C101.159 357.047 101.527 363.729 103.46 370.277C103.216 370.363 102.967 370.45 102.718 370.538C100.271 371.391 98.1753 373.135 96.6078 375.624C95.0403 378.113 94.0467 381.274 93.7102 384.842C93.3738 388.41 93.7045 392.28 94.6745 396.128C95.6444 399.976 97.2254 403.688 99.2845 406.954C101.344 410.22 103.821 412.944 106.508 414.896C109.195 416.849 112.014 417.973 114.728 418.175C117.441 418.377 119.97 417.651 122.102 416.057C124.234 414.463 125.907 412.049 126.98 409.016L197.464 384.278C200.645 384.761 203.598 383.903 205.942 381.812C208.424 385.034 211.337 387.441 214.352 388.762C217.366 390.083 220.362 390.263 223.001 389.284C225.639 388.305 227.816 386.205 229.283 383.221C230.751 380.237 231.451 376.489 231.305 372.4L250.191 365.771C253.004 367.242 255.847 367.562 258.337 366.687C260.828 365.813 262.847 363.787 264.124 360.881L312.323 343.963C315.652 344.59 318.702 343.52 320.909 340.95L330.762 337.492C334.065 340.037 337.6 341.178 340.821 340.739C340.97 341.237 341.123 341.733 341.297 342.229C342.534 345.733 344.382 348.942 346.632 351.493C348.882 354.044 351.445 355.836 354.032 356.666C356.619 357.496 359.127 357.332 361.273 356.192C363.418 355.052 365.116 352.981 366.175 350.213C367.234 347.446 367.612 344.091 367.266 340.529C366.919 336.966 365.863 333.337 364.216 330.051C362.569 326.764 360.396 323.952 357.943 321.931C355.49 319.909 352.855 318.759 350.334 318.611Z" fill="white"/>
<path d="M354.292 128.419C351.67 127.268 348.722 126.952 346.006 127.53C343.29 128.108 340.996 129.541 339.56 131.556C338.123 133.57 337.644 136.027 338.214 138.459C338.784 140.89 340.362 143.128 342.65 144.746C340.591 144.9 338.685 145.591 337.185 146.729C335.684 147.867 334.66 149.397 334.247 151.117C334.203 151.303 334.159 151.488 334.138 151.676C331.196 151.725 328.4 152.503 326.084 153.917C323.768 155.33 322.029 157.319 321.077 159.646C320.124 161.973 319.998 164.54 320.713 167.039C321.427 169.538 322.953 171.864 325.107 173.739C324.106 174.748 323.415 175.963 323.089 177.287C322.762 178.611 322.811 180.007 323.229 181.362C323.647 182.717 324.424 183.995 325.498 185.091C326.571 186.187 327.91 187.072 329.408 187.673C327.557 188.748 326.236 190.358 325.66 192.242C325.084 194.126 325.288 196.173 326.238 198.048C324.598 198.686 323.226 199.706 322.268 201.002C321.309 202.298 320.8 203.821 320.794 205.408C320.787 206.996 321.285 208.589 322.233 210.019C323.181 211.449 324.545 212.661 326.178 213.528C324.31 214.372 322.788 215.657 321.777 217.245C320.766 218.832 320.304 220.662 320.441 222.535C318.023 222.95 315.878 224.017 314.308 225.586C312.738 227.155 311.823 229.147 311.691 231.28C309.181 232.582 307.42 234.695 306.765 237.19C306.111 239.686 306.611 242.377 308.166 244.717C307.137 246.319 306.67 248.169 306.814 250.063C306.959 251.957 307.71 253.821 308.985 255.449C306.899 255.839 305.021 256.719 303.554 257.995C302.087 259.271 301.086 260.895 300.66 262.69L300.644 262.758C297.143 262.903 293.903 264.087 291.473 266.11C289.043 268.133 287.571 270.871 287.307 273.86C287.043 276.85 288.003 279.907 290.024 282.516C292.045 285.124 295.003 287.124 298.399 288.175C298.358 288.345 298.317 288.517 298.276 288.69C297.866 290.387 297.947 292.175 298.512 293.905C299.076 295.635 300.108 297.256 301.519 298.632C302.931 300.007 304.681 301.098 306.624 301.812C308.567 302.525 310.645 302.841 312.684 302.733C314.722 302.624 316.662 302.095 318.341 301.188C320.019 300.282 321.386 299.026 322.328 297.525C323.27 296.024 323.759 294.322 323.753 292.563C323.748 290.803 323.248 289.037 322.297 287.413L334.006 238.494C335.215 236.816 335.781 234.826 335.631 232.779C337.785 232.411 339.728 231.525 341.24 230.221C342.753 228.916 343.775 227.245 344.191 225.396C344.606 223.547 344.399 221.594 343.593 219.758C342.787 217.922 341.413 216.276 339.628 215.007L342.765 201.899C344.278 200.761 345.311 199.224 345.724 197.496C346.138 195.767 345.913 193.929 345.08 192.229L353.087 158.777C354.403 157.061 354.91 154.944 354.513 152.818L356.15 145.98C358.274 144.914 359.875 143.25 360.704 141.243C360.963 141.322 361.222 141.397 361.488 141.461C363.369 141.907 365.317 141.901 367.112 141.446C368.906 140.99 370.477 140.103 371.646 138.883C372.816 137.663 373.537 136.16 373.728 134.542C373.92 132.925 373.575 131.258 372.732 129.73C371.888 128.201 370.581 126.872 368.956 125.893C367.331 124.913 365.454 124.322 363.537 124.185C361.619 124.049 359.737 124.373 358.104 125.121C356.47 125.869 355.15 127.011 354.292 128.419Z" fill="white"/>
<path d="M354.292 128.419C351.67 127.268 348.722 126.952 346.006 127.53C343.29 128.108 340.996 129.541 339.56 131.556C338.123 133.57 337.644 136.027 338.214 138.459C338.784 140.89 340.362 143.128 342.65 144.746C340.591 144.9 338.685 145.591 337.185 146.729C335.684 147.867 334.66 149.397 334.247 151.117C334.203 151.303 334.159 151.488 334.138 151.676C331.196 151.725 328.4 152.503 326.084 153.917C323.768 155.33 322.029 157.319 321.077 159.646C320.124 161.973 319.998 164.54 320.713 167.039C321.427 169.538 322.953 171.864 325.107 173.739C324.106 174.748 323.415 175.963 323.089 177.287C322.762 178.611 322.811 180.007 323.229 181.362C323.647 182.717 324.424 183.995 325.498 185.091C326.571 186.187 327.91 187.072 329.408 187.673C327.557 188.748 326.236 190.358 325.66 192.242C325.084 194.126 325.288 196.173 326.238 198.048C324.598 198.686 323.226 199.706 322.268 201.002C321.309 202.298 320.8 203.821 320.794 205.408C320.787 206.996 321.285 208.589 322.233 210.019C323.181 211.449 324.545 212.661 326.178 213.528C324.31 214.372 322.788 215.657 321.777 217.245C320.766 218.832 320.304 220.662 320.441 222.535C318.023 222.95 315.878 224.017 314.308 225.586C312.738 227.155 311.823 229.147 311.691 231.28C309.181 232.582 307.42 234.695 306.765 237.19C306.111 239.686 306.611 242.377 308.166 244.717C307.137 246.319 306.67 248.169 306.814 250.063C306.959 251.957 307.71 253.821 308.985 255.449C306.899 255.839 305.021 256.719 303.554 257.995C302.087 259.271 301.086 260.895 300.66 262.69L300.644 262.758C297.143 262.903 293.903 264.087 291.473 266.11C289.043 268.133 287.571 270.871 287.307 273.86C287.043 276.85 288.003 279.907 290.024 282.516C292.045 285.124 295.003 287.124 298.399 288.175C298.358 288.345 298.317 288.517 298.276 288.69C297.866 290.387 297.947 292.175 298.512 293.905C299.076 295.635 300.108 297.256 301.519 298.632C302.931 300.007 304.681 301.098 306.624 301.812C308.567 302.525 310.645 302.841 312.684 302.733C314.722 302.624 316.662 302.095 318.341 301.188C320.019 300.282 321.386 299.026 322.328 297.525C323.27 296.024 323.759 294.322 323.753 292.563C323.748 290.803 323.248 289.037 322.297 287.413L334.006 238.494C335.215 236.816 335.781 234.826 335.631 232.779C337.785 232.411 339.728 231.525 341.24 230.221C342.753 228.916 343.775 227.245 344.191 225.396C344.606 223.547 344.399 221.594 343.593 219.758C342.787 217.922 341.413 216.276 339.628 215.007L342.765 201.899C344.278 200.761 345.311 199.224 345.724 197.496C346.138 195.767 345.913 193.929 345.08 192.229L353.087 158.777C354.403 157.061 354.91 154.944 354.513 152.818L356.15 145.98C358.274 144.914 359.875 143.25 360.704 141.243C360.963 141.322 361.222 141.397 361.488 141.461C363.369 141.907 365.317 141.901 367.112 141.446C368.906 140.99 370.477 140.103 371.646 138.883C372.816 137.663 373.537 136.16 373.728 134.542C373.92 132.925 373.575 131.258 372.732 129.73C371.888 128.201 370.581 126.872 368.956 125.893C367.331 124.913 365.454 124.322 363.537 124.185C361.619 124.049 359.737 124.373 358.104 125.121C356.47 125.869 355.15 127.011 354.292 128.419Z" fill="white"/>
<path d="M101.441 53.2337C100.257 55.8959 99.9208 58.8955 100.496 61.6628C101.071 64.4301 102.518 66.7722 104.561 68.2444C106.604 69.7166 109.102 70.2163 111.58 69.6485C114.058 69.0808 116.344 67.4852 118.002 65.1648C118.148 67.2608 118.843 69.2042 119.993 70.7373C121.144 72.2704 122.697 73.3207 124.445 73.749C124.634 73.7951 124.822 73.8412 125.013 73.8633C125.049 76.8579 125.827 79.7078 127.254 82.0724C128.681 84.4369 130.697 86.2161 133.061 87.1972C135.425 88.1784 138.036 88.3199 140.584 87.605C143.131 86.8901 145.506 85.349 147.425 83.1658C148.447 84.1895 149.68 84.8991 151.026 85.2377C152.373 85.5762 153.793 85.5342 155.175 85.1151C156.557 84.696 157.861 83.9114 158.982 82.8244C160.103 81.7375 161.01 80.3785 161.63 78.8568C162.714 80.7464 164.347 82.0993 166.262 82.6948C168.177 83.2903 170.261 83.0933 172.174 82.1358C172.815 83.8079 173.847 85.2094 175.161 86.1916C176.475 87.1737 178.023 87.6998 179.639 87.714C181.255 87.7281 182.879 87.2297 184.339 86.2718C185.799 85.3139 187.04 83.9322 187.93 82.2736C188.78 84.1791 190.081 85.7347 191.692 86.7719C193.302 87.8091 195.162 88.2885 197.069 88.1582C197.48 90.6216 198.555 92.8103 200.144 94.4158C201.734 96.0214 203.756 96.9629 205.927 97.1077C207.239 99.6691 209.381 101.472 211.918 102.151C214.455 102.83 217.196 102.334 219.586 100.763C221.212 101.818 223.093 102.303 225.021 102.166C226.949 102.028 228.85 101.272 230.514 99.9825C230.9 102.109 231.787 104.025 233.079 105.524C234.37 107.024 236.017 108.05 237.843 108.493L237.911 108.509C238.042 112.074 239.231 115.377 241.278 117.861C243.325 120.345 246.104 121.856 249.146 122.14C252.187 122.424 255.304 121.462 257.97 119.418C260.635 117.374 262.684 114.372 263.772 110.921C263.944 110.964 264.12 111.007 264.295 111.049C266.02 111.474 267.841 111.401 269.604 110.835C271.368 110.269 273.023 109.228 274.43 107.798C275.838 106.368 276.956 104.591 277.693 102.617C278.429 100.643 278.76 98.5299 278.66 96.4542C278.56 94.3785 278.031 92.4013 277.117 90.6886C276.203 88.9759 274.931 87.5778 273.408 86.6116C271.885 85.6455 270.155 85.1396 268.364 85.1363C266.573 85.1331 264.773 85.6327 263.115 86.5931L213.381 74.431C211.679 73.1916 209.656 72.6056 207.572 72.7482C207.209 70.5542 206.317 68.5721 204.996 67.0259C203.676 65.4798 201.98 64.4312 200.1 63.9988C198.22 63.5664 196.231 63.7673 194.359 64.5789C192.486 65.3905 190.804 66.7804 189.502 68.5915L176.177 65.3328C175.025 63.7871 173.466 62.7283 171.709 62.2985C169.952 61.8687 168.08 62.0886 166.345 62.9285L132.336 54.6117C130.596 53.263 128.443 52.7367 126.277 53.1301L119.325 51.43C118.251 49.2622 116.565 47.6249 114.526 46.7706C114.608 46.5079 114.686 46.2444 114.752 45.9738C115.216 44.0617 115.22 42.0791 114.765 40.2498C114.311 38.4206 113.415 36.8175 112.179 35.6213C110.943 34.4252 109.416 33.6836 107.771 33.4803C106.126 33.2771 104.428 33.6201 102.868 34.4709C101.308 35.3216 99.949 36.6461 98.9438 38.295C97.9385 39.9438 97.3273 41.8514 97.1789 43.8025C97.0306 45.7536 97.3511 47.6705 98.1043 49.3369C98.8575 51.0034 100.013 52.3531 101.441 53.2337Z" fill="white"/>
<path d="M101.441 53.2337C100.257 55.8959 99.9208 58.8955 100.496 61.6628C101.071 64.4301 102.518 66.7722 104.561 68.2444C106.604 69.7166 109.102 70.2163 111.58 69.6485C114.058 69.0808 116.344 67.4852 118.002 65.1648C118.148 67.2608 118.843 69.2042 119.993 70.7373C121.144 72.2704 122.697 73.3207 124.445 73.749C124.634 73.7951 124.822 73.8412 125.013 73.8633C125.049 76.8579 125.827 79.7078 127.254 82.0724C128.681 84.4369 130.697 86.2161 133.061 87.1972C135.425 88.1784 138.036 88.3199 140.584 87.605C143.131 86.8901 145.506 85.349 147.425 83.1658C148.447 84.1895 149.68 84.8991 151.026 85.2377C152.373 85.5762 153.793 85.5342 155.175 85.1151C156.557 84.696 157.861 83.9114 158.982 82.8244C160.103 81.7375 161.01 80.3785 161.63 78.8568C162.714 80.7464 164.347 82.0993 166.262 82.6948C168.177 83.2903 170.261 83.0933 172.174 82.1358C172.815 83.8079 173.847 85.2094 175.161 86.1916C176.475 87.1737 178.023 87.6998 179.639 87.714C181.255 87.7281 182.879 87.2297 184.339 86.2718C185.799 85.3139 187.04 83.9322 187.93 82.2736C188.78 84.1791 190.081 85.7347 191.692 86.7719C193.302 87.8091 195.162 88.2885 197.069 88.1582C197.48 90.6216 198.555 92.8103 200.144 94.4158C201.734 96.0214 203.756 96.9629 205.927 97.1077C207.239 99.6691 209.381 101.472 211.918 102.151C214.455 102.83 217.196 102.334 219.586 100.763C221.212 101.818 223.093 102.303 225.021 102.166C226.949 102.028 228.85 101.272 230.514 99.9825C230.9 102.109 231.787 104.025 233.079 105.524C234.37 107.024 236.017 108.05 237.843 108.493L237.911 108.509C238.042 112.074 239.231 115.377 241.278 117.861C243.325 120.345 246.104 121.856 249.146 122.14C252.187 122.424 255.304 121.462 257.97 119.418C260.635 117.374 262.684 114.372 263.772 110.921C263.944 110.964 264.12 111.007 264.295 111.049C266.02 111.474 267.841 111.401 269.604 110.835C271.368 110.269 273.023 109.228 274.43 107.798C275.838 106.368 276.956 104.591 277.693 102.617C278.429 100.643 278.76 98.5299 278.66 96.4542C278.56 94.3785 278.031 92.4013 277.117 90.6886C276.203 88.9759 274.931 87.5778 273.408 86.6116C271.885 85.6455 270.155 85.1396 268.364 85.1363C266.573 85.1331 264.773 85.6327 263.115 86.5931L213.381 74.431C211.679 73.1916 209.656 72.6056 207.572 72.7482C207.209 70.5542 206.317 68.5721 204.996 67.0259C203.676 65.4798 201.98 64.4312 200.1 63.9988C198.22 63.5664 196.231 63.7673 194.359 64.5789C192.486 65.3905 190.804 66.7804 189.502 68.5915L176.177 65.3328C175.025 63.7871 173.466 62.7283 171.709 62.2985C169.952 61.8687 168.08 62.0886 166.345 62.9285L132.336 54.6117C130.596 53.263 128.443 52.7367 126.277 53.1301L119.325 51.43C118.251 49.2622 116.565 47.6249 114.526 46.7706C114.608 46.5079 114.686 46.2444 114.752 45.9738C115.216 44.0617 115.22 42.0791 114.765 40.2498C114.311 38.4206 113.415 36.8175 112.179 35.6213C110.943 34.4252 109.416 33.6836 107.771 33.4803C106.126 33.2771 104.428 33.6201 102.868 34.4709C101.308 35.3216 99.949 36.6461 98.9438 38.295C97.9385 39.9438 97.3273 41.8514 97.1789 43.8025C97.0306 45.7536 97.3511 47.6705 98.1043 49.3369C98.8575 51.0034 100.013 52.3531 101.441 53.2337Z" fill="white"/>
<path d="M234.613 70.0593C232.376 72.2209 230.842 75.0556 230.305 78.0251C229.767 80.9945 230.262 83.8919 231.696 86.1668C233.13 88.4417 235.403 89.9357 238.083 90.365C240.763 90.7944 243.663 90.1291 246.234 88.4957C245.54 90.629 245.45 92.8306 245.975 94.8086C246.501 96.7866 247.618 98.4475 249.178 99.5712C249.346 99.6922 249.514 99.8133 249.694 99.9115C248.531 102.89 248.161 106.023 248.628 108.934C249.095 111.846 250.379 114.414 252.326 116.331C254.273 118.248 256.802 119.433 259.61 119.744C262.417 120.055 265.385 119.48 268.158 118.087C268.76 119.509 269.697 120.705 270.894 121.579C272.091 122.452 273.515 122.979 275.05 123.117C276.586 123.255 278.19 123 279.735 122.372C281.28 121.745 282.721 120.762 283.944 119.504C284.261 121.809 285.336 123.801 286.993 125.157C288.651 126.512 290.793 127.151 293.07 126.969C293.035 128.88 293.496 130.68 294.404 132.179C295.312 133.677 296.633 134.816 298.227 135.477C299.821 136.137 301.628 136.294 303.457 135.93C305.285 135.565 307.067 134.694 308.612 133.409C308.691 135.635 309.356 137.695 310.536 139.366C311.715 141.038 313.364 142.256 315.305 142.89C314.725 145.493 314.914 148.09 315.845 150.315C316.776 152.54 318.401 154.281 320.493 155.293C320.767 158.354 322.166 160.996 324.405 162.683C326.645 164.37 329.557 164.975 332.552 164.377C333.739 166.071 335.406 167.304 337.371 167.939C339.335 168.574 341.519 168.587 343.681 167.976C343.213 170.235 343.325 172.486 344.003 174.488C344.682 176.489 345.902 178.164 347.532 179.332L347.593 179.376C346.296 182.957 346.151 186.702 347.184 189.98C348.217 193.258 350.364 195.866 353.261 197.364C356.158 198.862 359.629 199.157 363.085 198.199C366.541 197.242 369.771 195.091 372.228 192.11C372.381 192.221 372.538 192.333 372.694 192.446C374.232 193.557 376.064 194.212 378.036 194.358C380.008 194.503 382.063 194.134 384.029 193.282C385.994 192.429 387.812 191.118 389.33 189.459C390.849 187.799 392.023 185.84 392.754 183.745C393.485 181.65 393.752 179.481 393.533 177.42C393.313 175.359 392.613 173.466 391.492 171.9C390.371 170.335 388.861 169.142 387.089 168.422C385.318 167.702 383.336 167.477 381.31 167.764L336.944 135.827C335.755 133.919 333.986 132.53 331.866 131.837C332.385 129.52 332.295 127.201 331.606 125.142C330.917 123.083 329.658 121.367 327.97 120.187C326.282 119.006 324.233 118.41 322.055 118.464C319.876 118.518 317.655 119.221 315.642 120.493L303.754 111.936C303.233 109.945 302.113 108.274 300.546 107.145C298.978 106.017 297.037 105.485 294.984 105.623L264.645 83.7834C263.462 81.7522 261.542 80.3701 259.24 79.8931L253.038 75.4288C252.842 72.853 251.828 70.5576 250.152 68.8964C250.338 68.6689 250.521 68.4394 250.694 68.198C251.918 66.4904 252.715 64.5296 252.997 62.5369C253.279 60.5441 253.033 58.5988 252.289 56.9203C251.544 55.2418 250.329 53.8969 248.782 53.0375C247.235 52.178 245.416 51.8382 243.532 52.0563C241.647 52.2744 239.772 53.0418 238.117 54.2719C236.462 55.5019 235.094 57.1457 234.167 59.0178C233.239 60.8898 232.789 62.9156 232.868 64.8666C232.947 66.8176 233.552 68.6162 234.613 70.0593Z" fill="white"/>
<path d="M234.613 70.0593C232.376 72.2209 230.842 75.0556 230.305 78.0251C229.767 80.9945 230.262 83.8919 231.696 86.1668C233.13 88.4417 235.403 89.9357 238.083 90.365C240.763 90.7944 243.663 90.1291 246.234 88.4957C245.54 90.629 245.45 92.8306 245.975 94.8086C246.501 96.7866 247.618 98.4475 249.178 99.5712C249.346 99.6922 249.514 99.8133 249.694 99.9115C248.531 102.89 248.161 106.023 248.628 108.934C249.095 111.846 250.379 114.414 252.326 116.331C254.273 118.248 256.802 119.433 259.61 119.744C262.417 120.055 265.385 119.48 268.158 118.087C268.76 119.509 269.697 120.705 270.894 121.579C272.091 122.452 273.515 122.979 275.05 123.117C276.586 123.255 278.19 123 279.735 122.372C281.28 121.745 282.721 120.762 283.944 119.504C284.261 121.809 285.336 123.801 286.993 125.157C288.651 126.512 290.793 127.151 293.07 126.969C293.035 128.88 293.496 130.68 294.404 132.179C295.312 133.677 296.633 134.816 298.227 135.477C299.821 136.137 301.628 136.294 303.457 135.93C305.285 135.565 307.067 134.694 308.612 133.409C308.691 135.635 309.356 137.695 310.536 139.366C311.715 141.038 313.364 142.256 315.305 142.89C314.725 145.493 314.914 148.09 315.845 150.315C316.776 152.54 318.401 154.281 320.493 155.293C320.767 158.354 322.166 160.996 324.405 162.683C326.645 164.37 329.557 164.975 332.552 164.377C333.739 166.071 335.406 167.304 337.371 167.939C339.335 168.574 341.519 168.587 343.681 167.976C343.213 170.235 343.325 172.486 344.003 174.488C344.682 176.489 345.902 178.164 347.532 179.332L347.593 179.376C346.296 182.957 346.151 186.702 347.184 189.98C348.217 193.258 350.364 195.866 353.261 197.364C356.158 198.862 359.629 199.157 363.085 198.199C366.541 197.242 369.771 195.091 372.228 192.11C372.381 192.221 372.538 192.333 372.694 192.446C374.232 193.557 376.064 194.212 378.036 194.358C380.008 194.503 382.063 194.134 384.029 193.282C385.994 192.429 387.812 191.118 389.33 189.459C390.849 187.799 392.023 185.84 392.754 183.745C393.485 181.65 393.752 179.481 393.533 177.42C393.313 175.359 392.613 173.466 391.492 171.9C390.371 170.335 388.861 169.142 387.089 168.422C385.318 167.702 383.336 167.477 381.31 167.764L336.944 135.827C335.755 133.919 333.986 132.53 331.866 131.837C332.385 129.52 332.295 127.201 331.606 125.142C330.917 123.083 329.658 121.367 327.97 120.187C326.282 119.006 324.233 118.41 322.055 118.464C319.876 118.518 317.655 119.221 315.642 120.493L303.754 111.936C303.233 109.945 302.113 108.274 300.546 107.145C298.978 106.017 297.037 105.485 294.984 105.623L264.645 83.7834C263.462 81.7522 261.542 80.3701 259.24 79.8931L253.038 75.4288C252.842 72.853 251.828 70.5576 250.152 68.8964C250.338 68.6689 250.521 68.4394 250.694 68.198C251.918 66.4904 252.715 64.5296 252.997 62.5369C253.279 60.5441 253.033 58.5988 252.289 56.9203C251.544 55.2418 250.329 53.8969 248.782 53.0375C247.235 52.178 245.416 51.8382 243.532 52.0563C241.647 52.2744 239.772 53.0418 238.117 54.2719C236.462 55.5019 235.094 57.1457 234.167 59.0178C233.239 60.8898 232.789 62.9156 232.868 64.8666C232.947 66.8176 233.552 68.6162 234.613 70.0593Z" fill="white"/>
<path d="M337.288 92.3112C338.503 88.3819 338.42 84.1249 337.054 80.3487C335.689 76.5726 333.136 73.5402 329.881 71.8277C326.626 70.1152 322.895 69.8418 319.397 71.0595C315.899 72.2771 312.878 74.901 310.908 78.4326C310.295 75.523 308.913 72.9206 306.946 70.9705C304.978 69.0204 302.518 67.8148 299.891 67.5135C299.608 67.4811 299.325 67.4488 299.043 67.4504C298.419 63.2639 296.742 59.4066 294.213 56.3396C291.685 53.2726 288.411 51.1256 284.784 50.1553C281.156 49.1849 277.329 49.4323 273.758 50.8678C270.187 52.3032 267.025 54.8661 264.649 58.2501C262.967 56.9912 261.036 56.2082 259.012 55.9638C256.989 55.7195 254.929 56.0207 252.998 56.8432C251.067 57.6658 249.32 58.9867 247.896 60.6998C246.472 62.4128 245.411 64.4702 244.799 66.7065C242.861 64.2458 240.226 62.6303 237.326 62.1232C234.425 61.6162 231.43 62.2477 228.828 63.9147C227.576 61.6829 225.806 59.8968 223.706 58.7459C221.606 57.5951 219.254 57.1225 216.899 57.3784C214.545 57.6343 212.276 58.6092 210.335 60.1994C208.393 61.7896 206.851 63.9357 205.871 66.4099C204.271 63.887 202.081 61.931 199.538 60.7537C196.996 59.5763 194.198 59.2224 191.447 59.7303C190.379 56.3514 188.396 53.4707 185.777 51.4939C183.157 49.5172 180.034 48.5442 176.846 48.7118C174.447 45.3496 170.986 43.1906 167.164 42.6728C163.343 42.1551 159.448 43.3175 156.27 45.9241C153.703 44.7247 150.873 44.3662 148.093 44.8881C145.312 45.4101 142.69 46.7921 140.516 48.8816C139.547 45.9709 137.89 43.4398 135.725 41.5607C133.559 39.6816 130.965 38.5257 128.224 38.2175L128.121 38.2058C127.251 33.2377 124.889 28.8156 121.436 25.6875C117.982 22.5594 113.648 20.9173 109.167 21.039C104.687 21.1607 100.334 23.0388 96.8463 26.3554C93.3581 29.6721 90.9485 34.2238 90.025 39.2406C89.7662 39.2111 89.5026 39.1809 89.239 39.1508C86.6476 38.85 84.0119 39.2636 81.5534 40.3567C79.0948 41.4498 76.8852 43.1906 75.1101 45.4327C73.335 47.6749 72.0463 50.3529 71.3521 53.242C70.658 56.131 70.5788 59.1467 71.1211 62.0357C71.6634 64.9247 72.8114 67.6026 74.4687 69.8445C76.1259 72.0864 78.2441 73.8269 80.6452 74.9197C83.0463 76.0124 85.6603 76.4256 88.2675 76.1246C90.8747 75.8235 93.3991 74.817 95.6286 73.1895L170.33 81.732C173.044 83.1768 176.1 83.6521 179.106 83.0969C180.054 86.1066 181.731 88.7294 183.948 90.6689C186.165 92.6083 188.833 93.787 191.652 94.0717C194.47 94.3564 197.326 93.7358 199.896 92.2799C202.467 90.8241 204.649 88.5912 206.197 85.8336L226.213 88.1225C228.184 90.0901 230.655 91.3065 233.294 91.6084C235.934 91.9103 238.616 91.2831 240.98 89.8112L292.064 95.6529C294.854 97.2442 298.086 97.6139 301.164 96.6935L311.606 97.8876C313.583 100.739 316.35 102.744 319.48 103.592C319.411 103.974 319.348 104.356 319.303 104.746C318.994 107.503 319.367 110.279 320.378 112.762C321.389 115.246 322.999 117.338 325.026 118.801C327.053 120.265 329.416 121.043 331.85 121.047C334.283 121.051 336.689 120.281 338.796 118.823C340.904 117.366 342.629 115.28 343.777 112.8C344.925 110.32 345.45 107.545 345.293 104.788C345.137 102.031 344.304 99.4022 342.89 97.1975C341.475 94.9929 339.535 93.3005 337.288 92.3112Z" fill="white"/>
<path d="M337.288 92.3112C338.503 88.3819 338.42 84.1249 337.054 80.3487C335.689 76.5726 333.136 73.5402 329.881 71.8277C326.626 70.1152 322.895 69.8418 319.397 71.0595C315.899 72.2771 312.878 74.901 310.908 78.4326C310.295 75.523 308.913 72.9206 306.946 70.9705C304.978 69.0204 302.518 67.8148 299.891 67.5135C299.608 67.4811 299.325 67.4488 299.043 67.4504C298.419 63.2639 296.742 59.4066 294.213 56.3396C291.685 53.2726 288.411 51.1256 284.784 50.1553C281.156 49.1849 277.329 49.4323 273.758 50.8678C270.187 52.3032 267.025 54.8661 264.649 58.2501C262.967 56.9912 261.036 56.2082 259.012 55.9638C256.989 55.7195 254.929 56.0207 252.998 56.8432C251.067 57.6658 249.32 58.9867 247.896 60.6998C246.472 62.4128 245.411 64.4702 244.799 66.7065C242.861 64.2458 240.226 62.6303 237.326 62.1232C234.425 61.6162 231.43 62.2477 228.828 63.9147C227.576 61.6829 225.806 59.8968 223.706 58.7459C221.606 57.5951 219.254 57.1225 216.899 57.3784C214.545 57.6343 212.276 58.6092 210.335 60.1994C208.393 61.7896 206.851 63.9357 205.871 66.4099C204.271 63.887 202.081 61.931 199.538 60.7537C196.996 59.5763 194.198 59.2224 191.447 59.7303C190.379 56.3514 188.396 53.4707 185.777 51.4939C183.157 49.5172 180.034 48.5442 176.846 48.7118C174.447 45.3496 170.986 43.1906 167.164 42.6728C163.343 42.1551 159.448 43.3175 156.27 45.9241C153.703 44.7247 150.873 44.3662 148.093 44.8881C145.312 45.4101 142.69 46.7921 140.516 48.8816C139.547 45.9709 137.89 43.4398 135.725 41.5607C133.559 39.6816 130.965 38.5257 128.224 38.2175L128.121 38.2058C127.251 33.2377 124.889 28.8156 121.436 25.6875C117.982 22.5594 113.648 20.9173 109.167 21.039C104.687 21.1607 100.334 23.0388 96.8463 26.3554C93.3581 29.6721 90.9485 34.2238 90.025 39.2406C89.7662 39.2111 89.5026 39.1809 89.239 39.1508C86.6476 38.85 84.0119 39.2636 81.5534 40.3567C79.0948 41.4498 76.8852 43.1906 75.1101 45.4327C73.335 47.6749 72.0463 50.3529 71.3521 53.242C70.658 56.131 70.5788 59.1467 71.1211 62.0357C71.6634 64.9247 72.8114 67.6026 74.4687 69.8445C76.1259 72.0864 78.2441 73.8269 80.6452 74.9197C83.0463 76.0124 85.6603 76.4256 88.2675 76.1246C90.8747 75.8235 93.3991 74.817 95.6286 73.1895L170.33 81.732C173.044 83.1768 176.1 83.6521 179.106 83.0969C180.054 86.1066 181.731 88.7294 183.948 90.6689C186.165 92.6083 188.833 93.787 191.652 94.0717C194.47 94.3564 197.326 93.7358 199.896 92.2799C202.467 90.8241 204.649 88.5912 206.197 85.8336L226.213 88.1225C228.184 90.0901 230.655 91.3065 233.294 91.6084C235.934 91.9103 238.616 91.2831 240.98 89.8112L292.064 95.6529C294.854 97.2442 298.086 97.6139 301.164 96.6935L311.606 97.8876C313.583 100.739 316.35 102.744 319.48 103.592C319.411 103.974 319.348 104.356 319.303 104.746C318.994 107.503 319.367 110.279 320.378 112.762C321.389 115.246 322.999 117.338 325.026 118.801C327.053 120.265 329.416 121.043 331.85 121.047C334.283 121.051 336.689 120.281 338.796 118.823C340.904 117.366 342.629 115.28 343.777 112.8C344.925 110.32 345.45 107.545 345.293 104.788C345.137 102.031 344.304 99.4022 342.89 97.1975C341.475 94.9929 339.535 93.3005 337.288 92.3112Z" fill="white"/>
<path d="M616.816 87.1454C617.904 83.7086 617.162 80.0998 614.731 77.0042C612.299 73.9086 608.349 71.542 603.629 70.3538C598.909 69.1656 593.748 69.2387 589.127 70.5591C584.506 71.8795 580.747 74.3552 578.563 77.5161C577.293 75.095 575.013 72.9977 572.025 71.5023C569.037 70.007 565.483 69.1843 561.834 69.1433C561.44 69.139 561.047 69.1347 560.66 69.1591C559.186 65.6544 556.316 62.5154 552.394 60.1173C548.471 57.7192 543.661 56.1635 538.54 55.6362C533.418 55.1088 528.202 55.6321 523.513 57.1435C518.824 58.6549 514.862 61.0904 512.101 64.159C509.606 63.2274 506.841 62.7203 504.027 62.6783C501.214 62.6364 498.432 63.0608 495.903 63.9174C493.375 64.774 491.171 66.0389 489.469 67.6104C487.768 69.1819 486.616 71.0161 486.106 72.9655C483.082 71.0342 479.228 69.8776 475.173 69.6843C471.117 69.491 467.099 70.2724 463.774 71.9011C461.727 70.108 459.035 68.7358 455.983 67.9301C452.931 67.1245 449.633 66.9156 446.439 67.3256C443.246 67.7356 440.276 68.7491 437.846 70.2587C435.415 71.7682 433.615 73.7172 432.636 75.8988C430.068 73.8869 426.773 72.4048 423.111 71.6128C419.448 70.8209 415.555 70.7492 411.855 71.4057C409.891 68.6232 406.744 66.3387 402.858 64.8741C398.971 63.4095 394.541 62.8386 390.191 63.2418C386.403 60.5824 381.334 59.0318 376.013 58.9047C370.692 58.7777 365.518 60.0836 361.54 62.5576C357.84 61.7489 353.904 61.676 350.165 62.3468C346.427 63.0175 343.032 64.4059 340.356 66.3586C338.597 63.9656 335.95 61.9513 332.7 60.5325C329.451 59.1138 325.721 58.3442 321.913 58.3067L321.77 58.3052C319.843 54.1567 315.95 50.594 310.749 48.2198C305.547 45.8455 299.357 44.8054 293.226 45.2754C287.095 45.7454 281.398 47.6966 277.1 50.799C272.802 53.9015 270.167 57.9646 269.639 62.3012C269.28 62.2973 268.913 62.2932 268.547 62.2892C264.946 62.2458 261.39 62.8127 258.177 63.9423C254.964 65.0719 252.188 66.7312 250.083 68.7808C247.977 70.8304 246.603 73.2105 246.077 75.7211C245.55 78.2317 245.886 80.7996 247.057 83.209C248.227 85.6183 250.198 87.7989 252.803 89.5675C255.408 91.336 258.571 92.641 262.028 93.3727C265.484 94.1044 269.133 94.2415 272.667 93.7724C276.201 93.3034 279.517 92.2419 282.336 90.6772L386.119 91.8206C390.056 92.8257 394.321 92.9793 398.364 92.2618C400.108 94.7406 402.797 96.8311 406.125 98.297C409.454 99.7628 413.29 100.546 417.2 100.557C421.11 100.568 424.938 99.8072 428.251 98.3604C431.564 96.9136 434.23 94.8385 435.948 92.3696L463.755 92.676C466.75 94.186 470.321 95.0169 473.989 95.0574C477.656 95.0978 481.244 94.3457 484.272 92.902L555.241 93.684C559.305 94.8073 563.796 94.8568 567.884 93.8232L582.391 93.9831C585.525 96.2435 589.618 97.7197 594.039 98.1841C594.001 98.5139 593.97 98.8438 593.967 99.1787C593.949 101.545 594.87 103.873 596.624 105.899C598.378 107.926 600.896 109.571 603.893 110.648C606.891 111.726 610.25 112.193 613.589 111.997C616.929 111.801 620.118 110.95 622.796 109.54C625.473 108.13 627.533 106.217 628.743 104.017C629.952 101.816 630.264 99.4164 629.642 97.0877C629.02 94.7589 627.49 92.5941 625.224 90.8373C622.957 89.0805 620.045 87.8018 616.816 87.1454Z" fill="white"/>
<path d="M616.816 87.1454C617.904 83.7086 617.162 80.0998 614.731 77.0042C612.299 73.9086 608.349 71.542 603.629 70.3538C598.909 69.1656 593.748 69.2387 589.127 70.5591C584.506 71.8795 580.747 74.3552 578.563 77.5161C577.293 75.095 575.013 72.9977 572.025 71.5023C569.037 70.007 565.483 69.1843 561.834 69.1433C561.44 69.139 561.047 69.1347 560.66 69.1591C559.186 65.6544 556.316 62.5154 552.394 60.1173C548.471 57.7192 543.661 56.1635 538.54 55.6362C533.418 55.1088 528.202 55.6321 523.513 57.1435C518.824 58.6549 514.862 61.0904 512.101 64.159C509.606 63.2274 506.841 62.7203 504.027 62.6783C501.214 62.6364 498.432 63.0608 495.903 63.9174C493.375 64.774 491.171 66.0389 489.469 67.6104C487.768 69.1819 486.616 71.0161 486.106 72.9655C483.082 71.0342 479.228 69.8776 475.173 69.6843C471.117 69.491 467.099 70.2724 463.774 71.9011C461.727 70.108 459.035 68.7358 455.983 67.9301C452.931 67.1245 449.633 66.9156 446.439 67.3256C443.246 67.7356 440.276 68.7491 437.846 70.2587C435.415 71.7682 433.615 73.7172 432.636 75.8988C430.068 73.8869 426.773 72.4048 423.111 71.6128C419.448 70.8209 415.555 70.7492 411.855 71.4057C409.891 68.6232 406.744 66.3387 402.858 64.8741C398.971 63.4095 394.541 62.8386 390.191 63.2418C386.403 60.5824 381.334 59.0318 376.013 58.9047C370.692 58.7777 365.518 60.0836 361.54 62.5576C357.84 61.7489 353.904 61.676 350.165 62.3468C346.427 63.0175 343.032 64.4059 340.356 66.3586C338.597 63.9656 335.95 61.9513 332.7 60.5325C329.451 59.1138 325.721 58.3442 321.913 58.3067L321.77 58.3052C319.843 54.1567 315.95 50.594 310.749 48.2198C305.547 45.8455 299.357 44.8054 293.226 45.2754C287.095 45.7454 281.398 47.6966 277.1 50.799C272.802 53.9015 270.167 57.9646 269.639 62.3012C269.28 62.2973 268.913 62.2932 268.547 62.2892C264.946 62.2458 261.39 62.8127 258.177 63.9423C254.964 65.0719 252.188 66.7312 250.083 68.7808C247.977 70.8304 246.603 73.2105 246.077 75.7211C245.55 78.2317 245.886 80.7996 247.057 83.209C248.227 85.6183 250.198 87.7989 252.803 89.5675C255.408 91.336 258.571 92.641 262.028 93.3727C265.484 94.1044 269.133 94.2415 272.667 93.7724C276.201 93.3034 279.517 92.2419 282.336 90.6772L386.119 91.8206C390.056 92.8257 394.321 92.9793 398.364 92.2618C400.108 94.7406 402.797 96.8311 406.125 98.297C409.454 99.7628 413.29 100.546 417.2 100.557C421.11 100.568 424.938 99.8072 428.251 98.3604C431.564 96.9136 434.23 94.8385 435.948 92.3696L463.755 92.676C466.75 94.186 470.321 95.0169 473.989 95.0574C477.656 95.0978 481.244 94.3457 484.272 92.902L555.241 93.684C559.305 94.8073 563.796 94.8568 567.884 93.8232L582.391 93.9831C585.525 96.2435 589.618 97.7197 594.039 98.1841C594.001 98.5139 593.97 98.8438 593.967 99.1787C593.949 101.545 594.87 103.873 596.624 105.899C598.378 107.926 600.896 109.571 603.893 110.648C606.891 111.726 610.25 112.193 613.589 111.997C616.929 111.801 620.118 110.95 622.796 109.54C625.473 108.13 627.533 106.217 628.743 104.017C629.952 101.816 630.264 99.4164 629.642 97.0877C629.02 94.7589 627.49 92.5941 625.224 90.8373C622.957 89.0805 620.045 87.8018 616.816 87.1454Z" fill="white"/>
<path d="M95.1166 46.8585C95.317 50.1934 94.4991 53.5578 92.8182 56.3127C91.1373 59.0676 88.7105 61.0211 85.9987 61.8021C83.287 62.5832 80.4792 62.1373 78.1086 60.5493C75.738 58.9613 73.9698 56.3417 73.1398 53.1881C72.1696 55.3889 70.6853 57.2092 68.8836 58.4076C67.082 59.606 65.0482 60.1258 63.052 59.8983C62.8368 59.8737 62.6216 59.8491 62.4133 59.7977C61.2079 63.0101 59.2826 65.7741 56.8675 67.7594C54.4525 69.7447 51.6499 70.8674 48.7946 70.9931C45.9394 71.1189 43.1524 70.2424 40.7667 68.4685C38.381 66.6947 36.4975 64.0984 35.3415 60.99C33.8735 61.6904 32.3064 61.9689 30.7664 61.8034C29.2264 61.6378 27.7564 61.0327 26.4746 60.0367C25.1927 59.0407 24.1349 57.6817 23.3862 56.0689C22.6374 54.456 22.2186 52.6344 22.1634 50.7506C20.2923 52.3594 18.0568 53.1737 15.8215 53.0609C13.5862 52.948 11.483 51.9145 9.85477 50.1289C8.53274 51.6781 6.90644 52.7815 5.14863 53.3219C3.39082 53.8623 1.56716 53.8195 -0.12863 53.198C-1.82442 52.5766 -3.32901 51.3997 -4.48256 49.7924C-5.63611 48.1851 -6.39553 46.2074 -6.68015 44.0695C-8.31211 45.7878 -10.2793 46.9513 -12.3689 47.4342C-14.4585 47.917 -16.5908 47.7008 -18.535 46.8089C-19.9252 49.3013 -21.9038 51.2357 -24.1923 52.3394C-26.4808 53.4431 -28.9637 53.6606 -31.2913 52.9612C-33.6629 55.2039 -36.6066 56.3027 -39.5249 56.0347C-42.4432 55.7667 -45.1175 54.1519 -47.0049 51.5181C-49.1166 52.0141 -51.2732 51.7959 -53.2367 50.8876C-55.2001 49.9793 -56.8939 48.4164 -58.1309 46.3714C-59.3645 48.5098 -61.0394 50.2247 -62.9752 51.3315C-64.9109 52.4383 -67.0343 52.895 -69.1167 52.6526L-69.1946 52.6437C-70.721 56.4327 -73.2533 59.5234 -76.3635 61.3928C-79.4736 63.2623 -82.9705 63.7958 -86.2627 62.903C-89.5549 62.0103 -92.4403 59.7462 -94.4308 56.4937C-96.4213 53.2412 -97.3947 49.1999 -97.1863 45.0535C-97.383 45.031 -97.5833 45.0081 -97.7836 44.9852C-99.7536 44.7634 -101.629 43.9669 -103.254 42.6623C-104.878 41.3578 -106.203 39.5834 -107.117 37.4882C-108.032 35.393 -108.509 33.0382 -108.509 30.6215C-108.509 28.2048 -108.032 25.7969 -107.117 23.6C-106.203 21.4031 -104.878 19.4813 -103.254 17.9961C-101.63 16.511 -99.7543 15.5057 -97.7843 15.0649C-95.8143 14.6241 -93.8076 14.7605 -91.9328 15.4627C-90.058 16.165 -88.3699 17.4125 -87.0101 19.1005L-30.2436 25.592C-27.9797 24.9274 -25.635 25.0931 -23.5106 26.0679C-22.2751 23.8471 -20.5688 22.063 -18.5845 20.9174C-16.6003 19.7718 -14.4173 19.3103 -12.2822 19.5851C-10.1472 19.8598 -8.14533 20.8599 -6.5029 22.4722C-4.86046 24.0845 -3.64298 26.2448 -2.98807 28.7088L12.2219 30.4482C14.0291 29.2364 16.0729 28.7099 18.0788 28.9393C20.0847 29.1687 21.9569 30.143 23.4439 31.7315L62.2627 36.1706C64.6088 35.4031 67.0654 35.684 69.1776 36.9614L77.1128 37.8688C79.0819 35.9563 81.4844 34.8567 83.9499 34.7394C83.9671 34.4243 83.9881 34.1095 84.0244 33.792C84.2857 31.5493 85.0543 29.4114 86.2434 27.6197C87.4325 25.828 88.9948 24.4537 90.754 23.6519C92.5133 22.85 94.3994 22.6526 96.1997 23.0818C97.9999 23.511 99.6426 24.5498 100.942 26.081C102.242 27.6121 103.147 29.5747 103.556 31.7473C103.964 33.9199 103.86 36.216 103.254 38.3766C102.648 40.5372 101.565 42.4762 100.127 43.9749C98.6895 45.4736 96.954 46.4724 95.1166 46.8585Z" fill="white"/>
<path d="M95.1166 46.8585C95.317 50.1934 94.4991 53.5578 92.8182 56.3127C91.1373 59.0676 88.7105 61.0211 85.9987 61.8021C83.287 62.5832 80.4792 62.1373 78.1086 60.5493C75.738 58.9613 73.9698 56.3417 73.1398 53.1881C72.1696 55.3889 70.6853 57.2092 68.8836 58.4076C67.082 59.606 65.0482 60.1258 63.052 59.8983C62.8368 59.8737 62.6216 59.8491 62.4133 59.7977C61.2079 63.0101 59.2826 65.7741 56.8675 67.7594C54.4525 69.7447 51.6499 70.8674 48.7946 70.9931C45.9394 71.1189 43.1524 70.2424 40.7667 68.4685C38.381 66.6947 36.4975 64.0984 35.3415 60.99C33.8735 61.6904 32.3064 61.9689 30.7664 61.8034C29.2264 61.6378 27.7564 61.0327 26.4746 60.0367C25.1927 59.0407 24.1349 57.6817 23.3862 56.0689C22.6374 54.456 22.2186 52.6344 22.1634 50.7506C20.2923 52.3594 18.0568 53.1737 15.8215 53.0609C13.5862 52.948 11.483 51.9145 9.85477 50.1289C8.53274 51.6781 6.90644 52.7815 5.14863 53.3219C3.39082 53.8623 1.56716 53.8195 -0.12863 53.198C-1.82442 52.5766 -3.32901 51.3997 -4.48256 49.7924C-5.63611 48.1851 -6.39553 46.2074 -6.68015 44.0695C-8.31211 45.7878 -10.2793 46.9513 -12.3689 47.4342C-14.4585 47.917 -16.5908 47.7008 -18.535 46.8089C-19.9252 49.3013 -21.9038 51.2357 -24.1923 52.3394C-26.4808 53.4431 -28.9637 53.6606 -31.2913 52.9612C-33.6629 55.2039 -36.6066 56.3027 -39.5249 56.0347C-42.4432 55.7667 -45.1175 54.1519 -47.0049 51.5181C-49.1166 52.0141 -51.2732 51.7959 -53.2367 50.8876C-55.2001 49.9793 -56.8939 48.4164 -58.1309 46.3714C-59.3645 48.5098 -61.0394 50.2247 -62.9752 51.3315C-64.9109 52.4383 -67.0343 52.895 -69.1167 52.6526L-69.1946 52.6437C-70.721 56.4327 -73.2533 59.5234 -76.3635 61.3928C-79.4736 63.2623 -82.9705 63.7958 -86.2627 62.903C-89.5549 62.0103 -92.4403 59.7462 -94.4308 56.4937C-96.4213 53.2412 -97.3947 49.1999 -97.1863 45.0535C-97.383 45.031 -97.5833 45.0081 -97.7836 44.9852C-99.7536 44.7634 -101.629 43.9669 -103.254 42.6623C-104.878 41.3578 -106.203 39.5834 -107.117 37.4882C-108.032 35.393 -108.509 33.0382 -108.509 30.6215C-108.509 28.2048 -108.032 25.7969 -107.117 23.6C-106.203 21.4031 -104.878 19.4813 -103.254 17.9961C-101.63 16.511 -99.7543 15.5057 -97.7843 15.0649C-95.8143 14.6241 -93.8076 14.7605 -91.9328 15.4627C-90.058 16.165 -88.3699 17.4125 -87.0101 19.1005L-30.2436 25.592C-27.9797 24.9274 -25.635 25.0931 -23.5106 26.0679C-22.2751 23.8471 -20.5688 22.063 -18.5845 20.9174C-16.6003 19.7718 -14.4173 19.3103 -12.2822 19.5851C-10.1472 19.8598 -8.14533 20.8599 -6.5029 22.4722C-4.86046 24.0845 -3.64298 26.2448 -2.98807 28.7088L12.2219 30.4482C14.0291 29.2364 16.0729 28.7099 18.0788 28.9393C20.0847 29.1687 21.9569 30.143 23.4439 31.7315L62.2627 36.1706C64.6088 35.4031 67.0654 35.684 69.1776 36.9614L77.1128 37.8688C79.0819 35.9563 81.4844 34.8567 83.9499 34.7394C83.9671 34.4243 83.9881 34.1095 84.0244 33.792C84.2857 31.5493 85.0543 29.4114 86.2434 27.6197C87.4325 25.828 88.9948 24.4537 90.754 23.6519C92.5133 22.85 94.3994 22.6526 96.1997 23.0818C97.9999 23.511 99.6426 24.5498 100.942 26.081C102.242 27.6121 103.147 29.5747 103.556 31.7473C103.964 33.9199 103.86 36.216 103.254 38.3766C102.648 40.5372 101.565 42.4762 100.127 43.9749C98.6895 45.4736 96.954 46.4724 95.1166 46.8585Z" fill="white"/>
</svg>
