<svg width="1920" height="1060" viewBox="0 0 1920 1060" fill="none" xmlns="http://www.w3.org/2000/svg">
<g clip-path="url(#clip0)">
<path d="M645.006 179.897C640.706 183.211 637.748 187.903 636.783 192.942C634.18 190.668 630.975 189.1 627.438 188.37C623.902 187.64 620.136 187.77 616.457 188.749C612.778 189.728 609.293 191.527 606.295 193.995C603.297 196.463 600.873 199.528 599.227 202.933C594.588 199.515 589.115 197.21 583.188 196.178C577.26 195.147 571.02 195.412 564.901 196.957C558.781 198.502 552.927 201.289 547.746 205.125C542.565 208.961 538.18 213.755 534.896 219.173C534.219 218.296 533.655 217.331 532.978 216.454C528.143 210.194 521.656 205.36 514.081 202.372C506.507 199.385 498.074 198.335 489.515 199.313C480.956 200.291 472.53 203.267 464.97 207.984C457.41 212.7 450.943 219.014 446.133 226.376C442.115 222.807 437.199 220.275 431.758 218.97C426.317 217.665 420.494 217.623 414.732 218.846C408.969 220.069 403.418 222.526 398.5 226.03C393.582 229.533 389.426 233.992 386.348 239.067C378.377 232.439 368.088 228.766 357.026 228.598C345.963 228.43 334.723 231.776 324.993 238.135C315.262 244.494 307.566 253.522 303.058 263.866C298.55 274.209 297.474 285.309 299.991 295.501C294.969 299.519 290.922 304.581 288.216 310.227C282.304 307.966 275.689 307.354 269.052 308.456C262.416 309.557 255.997 312.332 250.456 316.494C244.916 320.656 240.454 326.055 237.531 332.136C234.607 338.216 233.327 344.759 233.822 351.09C228.09 350.624 222.167 351.49 216.529 353.618C210.891 355.747 205.696 359.078 201.359 363.345C197.022 367.612 193.665 372.695 191.557 378.187C189.45 383.68 188.65 389.427 189.222 394.97C187.008 394.571 184.679 394.628 182.379 395.135C180.079 395.643 177.856 396.591 175.846 397.922C173.835 399.253 172.08 400.939 170.686 402.876C169.293 404.813 168.291 406.961 167.741 409.189C167.448 407.022 166.572 405.03 165.199 403.403C163.826 401.777 162.001 400.571 159.899 399.901C157.798 399.231 155.49 399.12 153.196 399.578C150.903 400.036 148.702 401.047 146.803 402.516L145.827 403.269C145.457 401.314 144.604 399.526 143.338 398.048C142.072 396.571 140.429 395.445 138.541 394.761C136.653 394.078 134.573 393.857 132.468 394.115C130.364 394.374 128.294 395.104 126.426 396.249C127.061 392.982 126.426 389.745 124.649 387.18C122.871 384.614 120.08 382.908 116.828 382.398C113.577 381.888 110.102 382.612 107.094 384.428C104.086 386.243 101.763 389.016 100.587 392.197C98.1688 391.001 95.3558 390.567 92.4983 390.95C89.6407 391.333 86.8652 392.515 84.5177 394.351C82.1701 396.186 80.3546 398.593 79.2973 401.27C78.2401 403.948 77.988 406.778 78.5725 409.408C76.5368 409.038 74.3826 409.156 72.2869 409.75C70.1912 410.345 68.2136 411.4 66.5166 412.829C64.8195 414.258 63.4513 416.019 62.5242 417.97C61.5971 419.92 61.1375 422.004 61.1833 424.049L60.0525 424.922C58.32 424.425 56.4565 424.3 54.5817 424.555C52.707 424.81 50.8625 425.438 49.1667 426.401C47.471 427.363 45.9614 428.638 44.7352 430.143C43.509 431.648 42.5931 433.35 42.0464 435.14C39.7504 434.307 37.1791 434.159 34.6341 434.713C32.0891 435.266 29.6759 436.499 27.6777 438.266C25.6795 440.033 24.179 442.26 23.3523 444.688C22.5256 447.116 22.4069 449.642 23.0102 451.972C20.6077 452.296 18.2641 453.233 16.2233 454.685C14.1825 456.138 12.5192 458.053 11.4065 460.23C10.2938 462.408 9.77241 464.769 9.89659 467.067C10.0208 469.366 10.786 471.518 12.1126 473.299C11.0786 473.785 10.0943 474.384 9.18082 475.082C7.34008 476.508 5.84204 478.317 4.82109 480.346C3.80015 482.375 3.28822 484.56 3.33116 486.707C3.37409 488.854 3.97059 490.895 5.06714 492.646C6.1637 494.398 7.72601 495.805 9.61402 496.742C9.3172 496.971 9.00625 497.211 8.69529 497.451C6.87323 498.858 5.38556 500.641 4.36307 502.641C3.34058 504.642 2.81462 506.8 2.83139 508.926C2.84816 511.052 3.40718 513.08 4.45928 514.832C5.51139 516.584 7.02431 518.007 8.86511 518.975C8.19724 519.345 7.55644 519.766 6.94951 520.233C3.99927 522.51 1.97181 525.733 1.31306 529.193C0.654315 532.652 1.41824 536.065 3.43688 538.68C3.95316 539.343 4.54065 539.947 5.19109 540.486C2.25029 541.171 -0.539129 542.589 -2.88963 544.593C-5.24014 546.597 -7.0667 549.115 -8.18095 551.886C-15.465 550.002 -23.4464 550.468 -30.999 553.219C-38.5515 555.97 -45.2938 560.867 -50.2746 567.219C-50.9274 565.988 -51.675 564.815 -52.5116 563.707C-55.5541 559.736 -59.7302 556.747 -64.6133 555.047C-69.4965 553.346 -74.9118 552.994 -80.3066 554.027C-85.7013 555.06 -90.8823 557.44 -95.3204 560.925C-99.7585 564.411 -103.295 568.875 -105.569 573.864C-113.645 569.553 -123.226 568.004 -132.944 569.438C-142.662 570.871 -152.02 575.214 -159.682 581.846C-167.345 588.478 -172.919 597.06 -175.609 606.367C-178.299 615.674 -177.968 625.23 -174.663 633.67C-181.006 635.181 -187.031 638.211 -192.161 642.472C-197.29 646.732 -201.353 652.08 -203.959 658.002C-206.566 663.924 -207.629 670.224 -207.046 676.296C-206.464 682.369 -204.256 688.012 -200.634 692.685C-197.948 696.178 -194.523 699.048 -190.548 701.136C-195.081 706.205 -198.016 712.35 -198.938 718.704C-199.86 725.058 -198.724 731.302 -195.689 736.556C-201.955 737.904 -207.873 741.023 -212.666 745.505C-217.459 749.986 -220.902 755.62 -222.544 761.667C-224.185 767.714 -223.949 773.891 -221.865 779.386C-219.781 784.882 -215.947 789.439 -210.867 792.46C-213.708 797.219 -215.303 802.473 -215.497 807.707C-215.691 812.94 -214.477 817.975 -211.973 822.317C-209.47 826.66 -205.763 830.161 -201.216 832.478C-196.669 834.795 -191.437 835.849 -186.033 835.537C-182.026 837.263 -177.415 837.663 -172.84 836.681C-168.266 835.698 -163.957 833.383 -160.513 830.057L-160.417 830.182L556.093 277.174C562.492 278.766 569.375 278.787 576.16 277.236C582.946 275.685 589.436 272.607 595.083 268.263C600.73 263.918 605.369 258.433 608.61 252.27C611.85 246.107 613.596 239.447 613.702 232.851C616.99 233.39 620.445 233.203 623.822 232.302C627.2 231.402 630.417 229.81 633.246 227.64C636.075 225.469 638.447 222.774 640.194 219.744C641.941 216.713 643.019 213.423 643.353 210.106C646.141 212.083 649.539 213.194 653.162 213.314C656.785 213.435 660.489 212.559 663.855 210.786C667.222 209.014 670.117 206.415 672.213 203.283C674.309 200.151 675.522 196.611 675.717 193.064C675.911 189.517 675.077 186.103 673.311 183.208C671.545 180.314 668.916 178.054 665.721 176.684C662.527 175.315 658.894 174.89 655.233 175.457C651.572 176.025 648.03 177.563 645.006 179.897V179.897Z" fill="#D9D9D9"/>
<path d="M953.037 62.7501C945.225 45.7377 933.172 30.469 919.165 19.8441C905.159 9.21919 890.175 3.97809 877.061 5.11642C863.946 6.25475 853.614 13.6932 848.027 26.0188C842.439 38.3444 841.986 54.6987 846.753 71.9754C837.088 62.7958 826.304 56.4693 815.833 53.8351C805.361 51.2008 795.696 52.3832 788.118 57.2253C787.302 57.7476 786.485 58.2699 785.766 58.9133C772.521 45.1229 757.491 34.9064 742.473 29.4847C727.455 24.063 713.084 23.6655 701.079 28.3399C689.073 33.0143 679.941 42.5627 674.772 55.8438C669.604 69.1249 668.619 85.5769 671.935 103.233C664.117 102.465 656.986 103.985 651.114 107.67C645.243 111.356 640.796 117.105 638.13 124.455C635.464 131.805 634.654 140.55 635.766 149.988C636.877 159.426 639.878 169.293 644.528 178.795C632.71 174.242 621.458 174.33 612.606 179.044C603.754 183.758 597.825 192.82 595.785 204.753C586.368 199.478 576.859 196.992 568.269 197.559C559.68 198.127 552.331 201.727 547.002 207.977C541.673 214.227 538.564 222.893 538.005 233.055C537.447 243.217 539.459 254.495 543.828 265.691C532.704 260.148 521.645 257.995 511.848 259.466C502.05 260.936 493.887 265.975 488.242 274.036C476.104 264.18 463.003 258.202 450.785 256.945C438.567 255.687 427.847 259.212 420.135 267.024C404.629 260.238 389.743 260.221 378.499 266.977C367.254 273.733 360.493 286.756 359.589 303.403C349.667 304.849 341.41 309.943 335.729 318.121C330.047 326.299 327.164 337.242 327.396 349.743C316.815 341.364 305.525 335.917 294.742 333.989C283.958 332.061 274.09 333.725 266.199 338.801L265.903 338.991C249.852 322.919 231.494 312.199 213.932 308.647C196.371 305.094 180.685 308.925 169.528 319.493C158.371 330.06 152.427 346.715 152.703 366.641L-14.5002 366.641L-14.5002 776L196.5 776L246.211 579.585C255.41 578.127 263.266 573.72 269.118 566.734C274.97 559.749 276.647 558.39 277.841 547.442L1934.5 550L1936.5 62.7501L953.037 62.7501Z" fill="white"/>
<path d="M776.046 530.614C778.12 539.474 777.449 548.88 774.16 557.045C770.871 565.209 765.193 571.564 758.204 574.902C751.216 578.24 743.404 578.328 736.252 575.15C729.1 571.972 723.107 565.75 719.41 557.664C717.792 564.016 714.606 569.582 710.275 573.623C705.944 577.665 700.673 579.991 695.16 580.294C694.566 580.327 693.971 580.359 693.383 580.317C691.592 589.492 687.645 597.793 682.014 604.227C676.382 610.662 669.305 614.959 661.627 616.603C653.949 618.247 645.995 617.17 638.717 613.501C631.439 609.831 625.144 603.723 620.584 595.909C616.928 598.461 612.811 599.926 608.562 600.186C604.314 600.446 600.053 599.495 596.123 597.408C592.193 595.321 588.703 592.157 585.933 588.17C583.164 584.184 581.193 579.486 580.178 574.454C575.848 579.629 570.165 582.838 564.057 583.558C557.949 584.278 551.776 582.467 546.545 578.419C543.674 583.183 539.775 586.889 535.26 589.144C530.746 591.4 525.785 592.119 520.906 591.227C516.026 590.335 511.409 587.865 507.546 584.078C503.682 580.292 500.716 575.33 498.964 569.721C495.331 575.081 490.535 579.105 485.096 581.357C479.656 583.61 473.78 584.006 468.103 582.501C465.481 589.828 461.008 595.926 455.315 599.937C449.621 603.947 442.994 605.667 436.367 604.855C430.971 611.961 423.5 616.258 415.471 616.874C407.441 617.491 399.454 614.38 393.131 608.174C387.637 610.472 381.694 610.873 375.957 609.334C370.221 607.794 364.914 604.374 360.623 599.451C358.263 605.756 354.513 611.126 349.776 614.983C345.04 618.84 339.497 621.038 333.743 621.34L333.528 621.352C331.133 632.222 325.691 641.677 318.123 648.119C310.555 654.561 301.326 657.594 291.996 656.704C282.667 655.815 273.81 651.058 266.923 643.238C260.037 635.418 255.544 625.015 254.204 613.789C253.661 613.819 253.108 613.849 252.554 613.879C247.115 614.186 241.667 612.906 236.668 610.148C231.669 607.389 227.264 603.232 223.824 598.027C220.385 592.821 218.01 586.718 216.9 580.231C215.79 573.744 215.977 567.061 217.446 560.746C218.915 554.43 221.621 548.665 225.34 543.934C229.058 539.204 233.678 535.647 238.813 533.562C243.948 531.477 249.447 530.925 254.849 531.952C260.251 532.979 265.398 535.555 269.857 539.464L426.637 530.906C432.466 528.086 438.895 527.457 445.098 529.102C447.426 522.575 451.229 517.005 456.079 513.021C460.929 509.038 466.632 506.8 472.542 506.56C478.453 506.32 484.336 508.089 489.526 511.665C494.717 515.241 499.007 520.483 501.913 526.798L543.921 524.505C548.261 520.425 553.556 518.076 559.096 517.774C564.636 517.471 570.156 519.23 574.914 522.813L682.125 516.961C688.129 513.827 694.914 513.457 701.224 515.919L723.139 514.723C727.596 508.688 733.6 504.636 740.226 503.193C740.128 502.339 740.04 501.485 739.993 500.615C739.671 494.476 740.772 488.385 743.171 483.031C745.57 477.677 749.171 473.273 753.57 470.315C757.968 467.358 762.987 465.964 768.062 466.292C773.136 466.621 778.064 468.657 782.289 472.172C786.513 475.688 789.867 480.542 791.971 486.187C794.076 491.832 794.847 498.044 794.197 504.121C793.548 510.198 791.505 515.899 788.297 520.58C785.09 525.261 780.846 528.736 776.046 530.614Z" fill="white"/>
<path d="M776.046 530.614C778.12 539.474 777.449 548.88 774.16 557.045C770.871 565.209 765.193 571.564 758.204 574.902C751.216 578.24 743.404 578.328 736.252 575.15C729.1 571.972 723.107 565.75 719.41 557.664C717.792 564.016 714.606 569.582 710.275 573.623C705.944 577.665 700.673 579.991 695.16 580.294C694.566 580.327 693.971 580.359 693.383 580.317C691.592 589.492 687.645 597.793 682.014 604.227C676.382 610.662 669.305 614.959 661.627 616.603C653.949 618.247 645.995 617.17 638.717 613.501C631.439 609.831 625.144 603.723 620.584 595.909C616.928 598.461 612.811 599.926 608.562 600.186C604.314 600.446 600.053 599.495 596.123 597.408C592.193 595.321 588.703 592.157 585.933 588.17C583.164 584.184 581.193 579.486 580.178 574.454C575.848 579.629 570.165 582.838 564.057 583.558C557.949 584.278 551.776 582.467 546.545 578.419C543.674 583.183 539.775 586.889 535.26 589.144C530.746 591.4 525.785 592.119 520.906 591.227C516.026 590.335 511.409 587.865 507.546 584.078C503.682 580.292 500.716 575.33 498.964 569.721C495.331 575.081 490.535 579.105 485.096 581.357C479.656 583.61 473.78 584.006 468.103 582.501C465.481 589.828 461.008 595.926 455.315 599.937C449.621 603.947 442.994 605.667 436.367 604.855C430.971 611.961 423.5 616.258 415.471 616.874C407.441 617.491 399.454 614.38 393.131 608.174C387.637 610.472 381.694 610.873 375.957 609.334C370.221 607.794 364.914 604.374 360.623 599.451C358.263 605.756 354.513 611.126 349.776 614.983C345.04 618.84 339.497 621.038 333.743 621.34L333.528 621.352C331.133 632.222 325.691 641.677 318.123 648.119C310.555 654.561 301.326 657.594 291.996 656.704C282.667 655.815 273.81 651.058 266.923 643.238C260.037 635.418 255.544 625.015 254.204 613.789C253.661 613.819 253.108 613.849 252.554 613.879C247.115 614.186 241.667 612.906 236.668 610.148C231.669 607.389 227.264 603.232 223.824 598.027C220.385 592.821 218.01 586.718 216.9 580.231C215.79 573.744 215.977 567.061 217.446 560.746C218.915 554.43 221.621 548.665 225.34 543.934C229.058 539.204 233.678 535.647 238.813 533.562C243.948 531.477 249.447 530.925 254.849 531.952C260.251 532.979 265.398 535.555 269.857 539.464L426.637 530.906C432.466 528.086 438.895 527.457 445.098 529.102C447.426 522.575 451.229 517.005 456.079 513.021C460.929 509.038 466.632 506.8 472.542 506.56C478.453 506.32 484.336 508.089 489.526 511.665C494.717 515.241 499.007 520.483 501.913 526.798L543.921 524.505C548.261 520.425 553.556 518.076 559.096 517.774C564.636 517.471 570.156 519.23 574.914 522.813L682.125 516.961C688.129 513.827 694.914 513.457 701.224 515.919L723.139 514.723C727.596 508.688 733.6 504.636 740.226 503.193C740.128 502.339 740.04 501.485 739.993 500.615C739.671 494.476 740.772 488.385 743.171 483.031C745.57 477.677 749.171 473.273 753.57 470.315C757.968 467.358 762.987 465.964 768.062 466.292C773.136 466.621 778.064 468.657 782.289 472.172C786.513 475.688 789.867 480.542 791.971 486.187C794.076 491.832 794.847 498.044 794.197 504.121C793.548 510.198 791.505 515.899 788.297 520.58C785.09 525.261 780.846 528.736 776.046 530.614Z" fill="white"/>
<path d="M337.624 449.266C349.826 452.82 361.339 459.298 369.976 467.471C378.614 475.644 383.775 484.943 384.478 493.601C385.181 502.259 381.378 509.674 373.791 514.436C366.204 519.198 355.362 520.977 343.323 519.434C350.514 524.906 355.93 531.366 358.851 537.958C361.773 544.55 362.062 550.962 359.682 556.344C359.425 556.924 359.168 557.504 358.82 558.032C369.481 565.421 377.961 574.299 383.245 583.604C388.53 592.909 390.396 602.247 388.621 610.502C386.845 618.757 381.503 625.58 373.233 630.156C364.963 634.731 354.114 636.866 341.985 636.303C343.368 641.333 343.15 646.123 341.35 650.287C339.549 654.451 336.215 657.874 331.617 660.279C327.019 662.684 321.284 664.006 314.874 664.136C308.464 664.267 301.557 663.204 294.71 661.032C299.06 668.329 300.255 675.677 298.102 681.878C295.948 688.08 290.573 692.769 282.853 695.182C287.416 700.847 290.131 706.824 290.71 712.478C291.289 718.133 289.71 723.253 286.141 727.296C282.572 731.338 277.147 734.152 270.441 735.438C263.734 736.724 255.998 736.434 248.054 734.599C252.986 741.353 255.652 748.371 255.764 754.896C255.876 761.42 253.43 767.202 248.69 771.615C256.607 778.639 262.049 786.643 264.248 794.499C266.447 802.355 265.294 809.668 260.95 815.406C267.198 824.906 268.868 834.615 265.621 842.562C262.374 850.51 254.453 856.101 243.466 858.2C243.609 864.803 241.136 870.651 236.323 875.099C231.509 879.546 224.541 882.419 216.188 883.401C222.949 889.544 227.835 896.414 230.321 903.274C232.806 910.133 232.798 916.721 230.296 922.329L230.203 922.539C242.697 931.552 251.882 942.556 256.205 953.689C260.529 964.822 259.725 975.402 253.929 983.638C248.134 991.874 237.703 997.261 224.401 998.888C211.099 1000.51 195.742 998.282 180.928 992.566L180.215 994.176C177.876 999.49 173.534 1003.83 167.554 1006.82C161.574 1009.82 154.13 1011.38 145.849 1011.39L-15.5 1011.39L-15.5 681.878L213.617 664.143C210.651 657.518 210.346 651.07 212.741 645.663C215.136 640.256 220.117 636.149 227.016 633.894L273.364 529.258C272.424 521.654 275.357 515.032 281.62 510.619L291.095 489.23C285.725 481.28 283.629 473.105 285.131 465.966C284.006 465.528 282.886 465.079 281.767 464.584C273.871 461.071 266.75 456.248 261.207 450.661C255.664 445.073 251.92 438.943 250.398 432.961C248.876 426.979 249.636 421.385 252.592 416.808C255.548 412.231 260.583 408.855 267.128 407.06C273.673 405.265 281.469 405.123 289.635 406.65C297.801 408.176 306.013 411.311 313.343 415.699C320.674 420.088 326.832 425.557 331.122 431.488C335.412 437.419 337.664 443.577 337.624 449.266Z" fill="white"/>
<path d="M1435.02 535.912C1437.31 540.683 1435.71 545.712 1430.52 550.043C1425.33 554.374 1416.92 557.706 1406.88 559.406C1396.84 561.106 1385.87 561.055 1376.06 559.264C1366.24 557.472 1358.27 554.065 1353.65 549.688C1350.93 553.07 1346.07 556.01 1339.71 558.121C1333.35 560.231 1325.79 561.411 1318.03 561.504C1317.2 561.514 1316.36 561.524 1315.54 561.493C1312.38 566.384 1306.26 570.78 1297.9 574.156C1289.55 577.531 1279.32 579.744 1268.43 580.528C1257.54 581.312 1246.45 580.636 1236.5 578.579C1226.54 576.523 1218.14 573.173 1212.29 568.931C1206.98 570.252 1201.1 570.985 1195.12 571.071C1189.14 571.157 1183.23 570.594 1177.86 569.427C1172.49 568.261 1167.81 566.522 1164.21 564.353C1160.6 562.183 1158.17 559.642 1157.09 556.935C1150.65 559.652 1142.45 561.299 1133.83 561.608C1125.21 561.918 1116.68 560.87 1109.62 558.637C1105.26 561.152 1099.53 563.088 1093.03 564.239C1086.54 565.39 1079.53 565.713 1072.74 565.175C1065.96 564.636 1059.65 563.255 1054.5 561.179C1049.34 559.102 1045.53 556.408 1043.46 553.382C1037.99 556.207 1030.98 558.302 1023.19 559.44C1015.39 560.578 1007.12 560.716 999.26 559.84C995.066 563.731 988.362 566.94 980.091 569.017C971.82 571.093 962.4 571.931 953.157 571.413C945.086 575.151 934.301 577.359 922.99 577.588C911.679 577.817 900.69 576.052 892.253 572.649C884.383 573.81 876.015 573.951 868.073 573.054C860.131 572.158 852.925 570.26 847.25 567.57C843.495 570.916 837.855 573.745 830.938 575.752C824.021 577.758 816.088 578.865 807.993 578.955L807.69 578.959C803.566 584.75 795.265 589.746 784.193 593.101C773.121 596.456 759.957 597.964 746.928 597.371C733.899 596.778 721.804 594.119 712.69 589.845C703.576 585.571 698.001 579.943 696.91 573.915C696.146 573.924 695.367 573.933 694.589 573.942C686.935 574.038 679.38 573.284 672.558 571.744C665.737 570.205 659.848 567.923 655.387 565.092C650.926 562.261 648.022 558.963 646.92 555.475C645.818 551.987 646.55 548.411 649.055 545.047C651.559 541.683 655.762 538.63 661.312 536.143C666.862 533.656 673.595 531.809 680.947 530.757C688.299 529.705 696.055 529.478 703.563 530.096C711.071 530.713 718.112 532.157 724.095 534.307L944.697 531.689C953.074 530.252 962.14 529.996 970.729 530.954C974.453 527.488 980.182 524.553 987.267 522.48C994.353 520.407 1002.51 519.28 1010.82 519.226C1019.13 519.172 1027.27 520.192 1034.3 522.173C1041.33 524.153 1046.98 527.014 1050.62 530.432L1109.72 529.731C1116.1 527.6 1123.7 526.409 1131.49 526.316C1139.29 526.224 1146.91 527.235 1153.33 529.213L1304.19 527.423C1312.83 525.82 1322.38 525.707 1331.06 527.104L1361.9 526.738C1368.58 523.562 1377.29 521.468 1386.69 520.778C1386.61 520.319 1386.55 519.861 1386.54 519.395C1386.52 516.103 1388.49 512.855 1392.23 510.018C1395.98 507.18 1401.34 504.867 1407.72 503.338C1414.1 501.809 1421.24 501.126 1428.34 501.365C1435.44 501.605 1442.21 502.757 1447.89 504.693C1453.57 506.628 1457.94 509.27 1460.49 512.319C1463.05 515.369 1463.69 518.705 1462.36 521.951C1461.02 525.198 1457.75 528.225 1452.92 530.692C1448.09 533.159 1441.89 534.967 1435.02 535.912Z" fill="white"/>
<path d="M1435.02 535.912C1437.31 540.683 1435.71 545.712 1430.52 550.043C1425.33 554.374 1416.92 557.706 1406.88 559.406C1396.84 561.106 1385.87 561.055 1376.06 559.264C1366.24 557.472 1358.27 554.065 1353.65 549.688C1350.93 553.07 1346.07 556.01 1339.71 558.121C1333.35 560.231 1325.79 561.411 1318.03 561.504C1317.2 561.514 1316.36 561.524 1315.54 561.493C1312.38 566.384 1306.26 570.78 1297.9 574.156C1289.55 577.531 1279.32 579.744 1268.43 580.528C1257.54 581.312 1246.45 580.636 1236.5 578.579C1226.54 576.523 1218.14 573.173 1212.29 568.931C1206.98 570.252 1201.1 570.985 1195.12 571.071C1189.14 571.157 1183.23 570.594 1177.86 569.427C1172.49 568.261 1167.81 566.522 1164.21 564.353C1160.6 562.183 1158.17 559.642 1157.09 556.935C1150.65 559.652 1142.45 561.299 1133.83 561.608C1125.21 561.918 1116.68 560.87 1109.62 558.637C1105.26 561.152 1099.53 563.088 1093.03 564.239C1086.54 565.39 1079.53 565.713 1072.74 565.175C1065.96 564.636 1059.65 563.255 1054.5 561.179C1049.34 559.102 1045.53 556.408 1043.46 553.382C1037.99 556.207 1030.98 558.302 1023.19 559.44C1015.39 560.578 1007.12 560.716 999.26 559.84C995.066 563.731 988.362 566.94 980.091 569.017C971.82 571.093 962.4 571.931 953.157 571.413C945.086 575.151 934.301 577.359 922.99 577.588C911.679 577.817 900.69 576.052 892.253 572.649C884.383 573.81 876.015 573.951 868.073 573.054C860.131 572.158 852.925 570.26 847.25 567.57C843.495 570.916 837.855 573.745 830.938 575.752C824.021 577.758 816.088 578.865 807.993 578.955L807.69 578.959C803.566 584.75 795.265 589.746 784.193 593.101C773.121 596.456 759.957 597.964 746.928 597.371C733.899 596.778 721.804 594.119 712.69 589.845C703.576 585.571 698.001 579.943 696.91 573.915C696.146 573.924 695.367 573.933 694.589 573.942C686.935 574.038 679.38 573.284 672.558 571.744C665.737 570.205 659.848 567.923 655.387 565.092C650.926 562.261 648.022 558.963 646.92 555.475C645.818 551.987 646.55 548.411 649.055 545.047C651.559 541.683 655.762 538.63 661.312 536.143C666.862 533.656 673.595 531.809 680.947 530.757C688.299 529.705 696.055 529.478 703.563 530.096C711.071 530.713 718.112 532.157 724.095 534.307L944.697 531.689C953.074 530.252 962.14 529.996 970.729 530.954C974.453 527.488 980.182 524.553 987.267 522.48C994.353 520.407 1002.51 519.28 1010.82 519.226C1019.13 519.172 1027.27 520.192 1034.3 522.173C1041.33 524.153 1046.98 527.014 1050.62 530.432L1109.72 529.731C1116.1 527.6 1123.7 526.409 1131.49 526.316C1139.29 526.224 1146.91 527.235 1153.33 529.213L1304.19 527.423C1312.83 525.82 1322.38 525.707 1331.06 527.104L1361.9 526.738C1368.58 523.562 1377.29 521.468 1386.69 520.778C1386.61 520.319 1386.55 519.861 1386.54 519.395C1386.52 516.103 1388.49 512.855 1392.23 510.018C1395.98 507.18 1401.34 504.867 1407.72 503.338C1414.1 501.809 1421.24 501.126 1428.34 501.365C1435.44 501.605 1442.21 502.757 1447.89 504.693C1453.57 506.628 1457.94 509.27 1460.49 512.319C1463.05 515.369 1463.69 518.705 1462.36 521.951C1461.02 525.198 1457.75 528.225 1452.92 530.692C1448.09 533.159 1441.89 534.967 1435.02 535.912Z" fill="white"/>
<path d="M2182.1 507.835C2184.39 512.607 2182.78 517.635 2177.59 521.966C2172.41 526.298 2163.99 529.63 2153.95 531.33C2143.91 533.03 2132.94 532.979 2123.13 531.187C2113.32 529.396 2105.34 525.988 2100.72 521.612C2098.01 524.993 2093.15 527.934 2086.78 530.044C2080.42 532.154 2072.86 533.334 2065.11 533.427C2064.27 533.437 2063.43 533.447 2062.61 533.417C2059.45 538.308 2053.33 542.704 2044.98 546.079C2036.62 549.455 2026.39 551.667 2015.5 552.452C2004.61 553.236 1993.53 552.559 1983.57 550.503C1973.61 548.446 1965.21 545.097 1959.36 540.855C1954.05 542.175 1948.17 542.908 1942.19 542.995C1936.21 543.081 1930.3 542.518 1924.93 541.351C1919.56 540.184 1914.89 538.446 1911.28 536.276C1907.67 534.106 1905.24 531.566 1904.17 528.858C1897.73 531.575 1889.53 533.223 1880.91 533.532C1872.28 533.841 1863.75 532.794 1856.69 530.56C1852.33 533.075 1846.6 535.011 1840.11 536.163C1833.61 537.314 1826.6 537.637 1819.82 537.098C1813.03 536.559 1806.73 535.178 1801.57 533.102C1796.42 531.026 1792.6 528.332 1790.54 525.306C1785.06 528.131 1778.05 530.225 1770.26 531.364C1762.47 532.502 1754.19 532.64 1746.33 531.763C1742.14 535.654 1735.44 538.864 1727.16 540.94C1718.89 543.017 1709.47 543.855 1700.23 543.337C1692.16 547.075 1681.37 549.282 1670.06 549.512C1658.75 549.741 1647.76 547.975 1639.33 544.572C1631.46 545.734 1623.09 545.874 1615.15 544.978C1607.2 544.082 1600 542.184 1594.32 539.493C1590.57 542.84 1584.93 545.669 1578.01 547.675C1571.09 549.681 1563.16 550.789 1555.07 550.879L1554.76 550.882C1550.64 556.674 1542.34 561.669 1531.27 565.024C1520.19 568.379 1507.03 569.888 1494 569.294C1480.97 568.701 1468.88 566.043 1459.76 561.768C1450.65 557.494 1445.07 551.867 1443.98 545.838C1443.22 545.847 1442.44 545.856 1441.66 545.866C1434.01 545.962 1426.45 545.208 1419.63 543.668C1412.81 542.128 1406.92 539.847 1402.46 537.016C1398 534.185 1395.1 530.887 1393.99 527.399C1392.89 523.911 1393.62 520.335 1396.13 516.971C1398.63 513.607 1402.84 510.553 1408.39 508.067C1413.93 505.58 1420.67 503.733 1428.02 502.681C1435.37 501.628 1443.13 501.402 1450.64 502.019C1458.14 502.637 1465.19 504.081 1471.17 506.23L1691.77 503.613C1700.15 502.175 1709.21 501.919 1717.8 502.878C1721.53 499.411 1727.26 496.476 1734.34 494.404C1741.43 492.331 1749.59 491.204 1757.9 491.15C1766.21 491.095 1774.34 492.116 1781.37 494.096C1788.4 496.077 1794.06 498.938 1797.69 502.356L1856.8 501.654C1863.17 499.524 1870.77 498.332 1878.56 498.24C1886.36 498.147 1893.98 499.158 1900.41 501.137L2051.26 499.347C2059.91 497.744 2069.45 497.63 2078.14 499.028L2108.97 498.662C2115.65 495.486 2124.36 493.391 2133.76 492.702C2133.68 492.243 2133.62 491.784 2133.61 491.318C2133.59 488.026 2135.56 484.778 2139.31 481.941C2143.05 479.104 2148.41 476.79 2154.79 475.262C2161.17 473.733 2168.31 473.05 2175.41 473.289C2182.51 473.528 2189.28 474.681 2194.96 476.616C2200.64 478.552 2205.01 481.193 2207.56 484.243C2210.12 487.292 2210.77 490.629 2209.43 493.875C2208.09 497.121 2204.82 500.149 2199.99 502.615C2195.16 505.082 2188.97 506.89 2182.1 507.835Z" fill="white"/>
<path d="M2182.1 507.835C2184.39 512.607 2182.78 517.635 2177.59 521.966C2172.41 526.298 2163.99 529.63 2153.95 531.33C2143.91 533.03 2132.94 532.979 2123.13 531.187C2113.32 529.396 2105.34 525.988 2100.72 521.612C2098.01 524.993 2093.15 527.934 2086.78 530.044C2080.42 532.154 2072.86 533.334 2065.11 533.427C2064.27 533.437 2063.43 533.447 2062.61 533.417C2059.45 538.308 2053.33 542.704 2044.98 546.079C2036.62 549.455 2026.39 551.667 2015.5 552.452C2004.61 553.236 1993.53 552.559 1983.57 550.503C1973.61 548.446 1965.21 545.097 1959.36 540.855C1954.05 542.175 1948.17 542.908 1942.19 542.995C1936.21 543.081 1930.3 542.518 1924.93 541.351C1919.56 540.184 1914.89 538.446 1911.28 536.276C1907.67 534.106 1905.24 531.566 1904.17 528.858C1897.73 531.575 1889.53 533.223 1880.91 533.532C1872.28 533.841 1863.75 532.794 1856.69 530.56C1852.33 533.075 1846.6 535.011 1840.11 536.163C1833.61 537.314 1826.6 537.637 1819.82 537.098C1813.03 536.559 1806.73 535.178 1801.57 533.102C1796.42 531.026 1792.6 528.332 1790.54 525.306C1785.06 528.131 1778.05 530.225 1770.26 531.364C1762.47 532.502 1754.19 532.64 1746.33 531.763C1742.14 535.654 1735.44 538.864 1727.16 540.94C1718.89 543.017 1709.47 543.855 1700.23 543.337C1692.16 547.075 1681.37 549.282 1670.06 549.512C1658.75 549.741 1647.76 547.975 1639.33 544.572C1631.46 545.734 1623.09 545.874 1615.15 544.978C1607.2 544.082 1600 542.184 1594.32 539.493C1590.57 542.84 1584.93 545.669 1578.01 547.675C1571.09 549.681 1563.16 550.789 1555.07 550.879L1554.76 550.882C1550.64 556.674 1542.34 561.669 1531.27 565.024C1520.19 568.379 1507.03 569.888 1494 569.294C1480.97 568.701 1468.88 566.043 1459.76 561.768C1450.65 557.494 1445.07 551.867 1443.98 545.838C1443.22 545.847 1442.44 545.856 1441.66 545.866C1434.01 545.962 1426.45 545.208 1419.63 543.668C1412.81 542.128 1406.92 539.847 1402.46 537.016C1398 534.185 1395.1 530.887 1393.99 527.399C1392.89 523.911 1393.62 520.335 1396.13 516.971C1398.63 513.607 1402.84 510.553 1408.39 508.067C1413.93 505.58 1420.67 503.733 1428.02 502.681C1435.37 501.628 1443.13 501.402 1450.64 502.019C1458.14 502.637 1465.19 504.081 1471.17 506.23L1691.77 503.613C1700.15 502.175 1709.21 501.919 1717.8 502.878C1721.53 499.411 1727.26 496.476 1734.34 494.404C1741.43 492.331 1749.59 491.204 1757.9 491.15C1766.21 491.095 1774.34 492.116 1781.37 494.096C1788.4 496.077 1794.06 498.938 1797.69 502.356L1856.8 501.654C1863.17 499.524 1870.77 498.332 1878.56 498.24C1886.36 498.147 1893.98 499.158 1900.41 501.137L2051.26 499.347C2059.91 497.744 2069.45 497.63 2078.14 499.028L2108.97 498.662C2115.65 495.486 2124.36 493.391 2133.76 492.702C2133.68 492.243 2133.62 491.784 2133.61 491.318C2133.59 488.026 2135.56 484.778 2139.31 481.941C2143.05 479.104 2148.41 476.79 2154.79 475.262C2161.17 473.733 2168.31 473.05 2175.41 473.289C2182.51 473.528 2189.28 474.681 2194.96 476.616C2200.64 478.552 2205.01 481.193 2207.56 484.243C2210.12 487.292 2210.77 490.629 2209.43 493.875C2208.09 497.121 2204.82 500.149 2199.99 502.615C2195.16 505.082 2188.97 506.89 2182.1 507.835Z" fill="white"/>
</g>
<defs>
<clipPath id="clip0">
<rect width="2086" height="1060" fill="white" transform="translate(-94)"/>
</clipPath>
</defs>
</svg>
