<svg width="693" height="556" viewBox="0 0 693 556" fill="none" xmlns="http://www.w3.org/2000/svg">
<path opacity="0.6" d="M539.926 125.865C541.544 125.008 543.429 124.796 545.201 125.27C546.972 125.744 548.498 126.87 549.472 128.42C550.447 129.971 550.797 131.832 550.452 133.628C550.107 135.424 549.092 137.022 547.613 138.101C546.798 138.592 545.893 138.918 544.951 139.06C544.009 139.202 543.047 139.158 542.122 138.929C541.196 138.7 540.325 138.291 539.558 137.726C538.79 137.162 538.142 136.451 537.649 135.637C536.722 134.02 536.441 132.115 536.863 130.302C537.285 128.49 538.379 126.905 539.926 125.865Z" fill="white"/>
<path opacity="0.6" d="M194.954 404.921C195.617 404.571 196.389 404.484 197.115 404.678C197.84 404.872 198.466 405.333 198.865 405.968C199.264 406.604 199.407 407.366 199.266 408.101C199.125 408.837 198.709 409.492 198.103 409.934C197.769 410.135 197.399 410.269 197.013 410.327C196.627 410.385 196.233 410.367 195.854 410.273C195.475 410.179 195.118 410.012 194.803 409.78C194.489 409.549 194.223 409.258 194.022 408.924C193.642 408.262 193.527 407.482 193.7 406.739C193.873 405.997 194.321 405.347 194.954 404.921Z" fill="white"/>
<path opacity="0.6" d="M374.954 203.921C375.617 203.571 376.389 203.484 377.115 203.678C377.84 203.872 378.466 204.333 378.865 204.968C379.264 205.604 379.407 206.366 379.266 207.101C379.125 207.837 378.709 208.492 378.103 208.934C377.769 209.135 377.399 209.269 377.013 209.327C376.627 209.385 376.233 209.367 375.854 209.273C375.475 209.179 375.118 209.012 374.803 208.78C374.489 208.549 374.223 208.258 374.022 207.924C373.642 207.262 373.527 206.482 373.7 205.739C373.873 204.997 374.321 204.347 374.954 203.921Z" fill="white"/>
<path opacity="0.6" d="M589.954 237.921C590.617 237.571 591.389 237.484 592.115 237.678C592.84 237.872 593.466 238.333 593.865 238.968C594.264 239.604 594.407 240.366 594.266 241.101C594.125 241.837 593.709 242.492 593.103 242.934C592.769 243.135 592.399 243.269 592.013 243.327C591.627 243.385 591.233 243.367 590.854 243.273C590.475 243.179 590.118 243.012 589.803 242.78C589.489 242.549 589.223 242.258 589.022 241.924C588.642 241.262 588.527 240.482 588.7 239.739C588.873 238.997 589.321 238.347 589.954 237.921Z" fill="white"/>
<path opacity="0.6" d="M269.975 26.1304C271.594 25.2739 273.479 25.0613 275.25 25.5354C277.022 26.0096 278.548 27.1354 279.522 28.6861C280.496 30.2368 280.846 32.0975 280.501 33.8936C280.156 35.6897 279.142 37.2878 277.663 38.3666C276.847 38.8579 275.943 39.184 275.001 39.3261C274.058 39.4681 273.097 39.4233 272.172 39.1945C271.246 38.9656 270.375 38.557 269.608 37.9921C268.84 37.4272 268.192 36.717 267.699 35.9022C266.772 34.286 266.491 32.3806 266.913 30.568C267.335 28.7555 268.429 27.1702 269.975 26.1304Z" fill="white"/>
<g clip-path="url(#clip0)">
<path opacity="0.4" d="M617.652 332.649C625.688 324.62 625.688 311.602 617.652 303.573C609.615 295.544 596.586 295.544 588.55 303.573C580.514 311.602 580.514 324.62 588.55 332.649C596.586 340.678 609.615 340.678 617.652 332.649Z" fill="#E5E5FF"/>
<path d="M299.907 373.579C368.005 305.542 368.005 195.231 299.907 127.193C231.809 59.1555 121.4 59.1555 53.3022 127.193C-14.7957 195.231 -14.7957 305.542 53.3022 373.579C121.4 441.617 231.809 441.617 299.907 373.579Z" fill="#2698BB"/>
<path d="M314.542 144.624C300.018 125.814 281.795 110.18 260.997 98.6881C240.199 87.1958 217.267 80.0886 193.617 77.8049C169.967 75.5212 146.099 78.1096 123.488 85.4102C100.876 92.7107 80 104.569 62.1474 120.252C44.2949 135.936 29.8444 155.113 19.6881 176.599C9.53179 198.085 3.88493 221.426 3.09592 245.179C2.3069 268.933 6.3926 292.597 15.1007 314.71C23.8088 336.824 36.9546 356.918 53.727 373.752C60.4279 380.369 67.648 386.438 75.318 391.901C109.242 415.977 150.666 427.1 192.083 423.255C233.5 419.41 272.17 400.85 301.085 370.94C329.999 341.03 347.245 301.748 349.697 260.213C352.149 218.678 339.645 177.639 314.451 144.533L314.542 144.624Z" fill="url(#paint0_linear)"/>
<g style="mix-blend-mode:multiply" opacity="0.15">
<path d="M315.23 144.465L310.666 139C324.827 174.006 327.232 212.651 317.52 249.137C307.808 285.623 286.502 317.982 256.8 341.362C227.098 364.742 190.599 377.88 152.781 378.808C114.962 379.735 77.8609 368.4 47.044 346.504C39.276 341.049 31.9787 334.955 25.2278 328.286C21.3026 324.369 17.56 320.27 14 316.08C22.8488 338.006 36.0798 357.903 52.8862 374.56C59.6484 381.18 66.9116 387.271 74.6113 392.778C108.746 416.946 150.427 428.112 192.102 424.252C233.776 420.392 272.687 401.762 301.781 371.737C330.875 341.713 348.228 302.281 350.695 260.588C353.163 218.894 340.581 177.698 315.23 144.465Z" fill="#230753"/>
</g>
<path d="M290.079 74.7777C288.583 74.7729 287.09 74.6504 285.613 74.4113L285.756 73.5062C287.186 73.7319 288.632 73.8446 290.079 73.8433H290.248V74.7594L290.079 74.7777ZM294.888 74.3746L294.737 73.4695C296.219 73.2213 297.679 72.8536 299.102 72.3703L299.399 73.2387C297.927 73.7347 296.419 74.1145 294.888 74.3746ZM281.09 73.345C279.614 72.8611 278.178 72.2607 276.796 71.5495L277.218 70.736C278.555 71.4256 279.946 72.0065 281.377 72.4729L281.09 73.345ZM303.668 71.3883L303.238 70.5785C304.571 69.874 305.846 69.0641 307.049 68.1564L307.606 68.8893C306.361 69.8247 305.044 70.6603 303.668 71.3883ZM272.861 69.0981C271.613 68.1739 270.44 67.152 269.355 66.0421L270.011 65.4009C271.061 66.4769 272.197 67.4659 273.407 68.3579L272.861 69.0981ZM311.072 65.782L310.405 65.1517C311.44 64.0619 312.386 62.8905 313.232 61.6487L313.991 62.1654C313.112 63.4478 312.131 64.6573 311.057 65.782H311.072ZM266.388 62.4622C265.496 61.1914 264.709 59.8508 264.033 58.4535L264.858 58.0541C265.513 59.4074 266.274 60.7062 267.136 61.9382L266.388 62.4622ZM316.295 58.1274L315.466 57.739C316.102 56.3766 316.631 54.9664 317.046 53.5214L317.927 53.7743C317.494 55.2666 316.943 56.7222 316.28 58.1274H316.295ZM262.335 54.1187C261.891 52.6311 261.566 51.1105 261.363 49.5714L262.273 49.4541C262.468 50.9428 262.783 52.4133 263.215 53.8512L262.335 54.1187ZM318.814 49.216L317.905 49.1097C318.032 48.0273 318.096 46.9384 318.095 45.8485C318.095 45.4381 318.095 45.0204 318.07 44.61L318.987 44.5697C318.987 44.9948 319.012 45.4235 319.012 45.8485C319.016 46.9737 318.953 48.0981 318.825 49.216H318.814ZM262.053 44.9581L261.136 44.9288C261.187 43.3769 261.364 41.8317 261.664 40.3082L262.562 40.4841C262.274 41.9595 262.103 43.4556 262.053 44.9581ZM317.516 40.1433C317.208 38.6728 316.782 37.2294 316.243 35.8268L317.098 35.4971C317.656 36.946 318.098 38.4372 318.418 39.9564L317.516 40.1433ZM263.773 36.153L262.911 35.8342C263.452 34.3787 264.108 32.9684 264.873 31.6166L265.672 32.0673C264.93 33.3758 264.295 34.7422 263.773 36.153ZM316.159 35.6143C315.609 34.2203 314.947 32.8725 314.182 31.5837L314.971 31.1183C315.762 32.4538 316.446 33.8507 317.013 35.2955L316.159 35.6143ZM268.199 28.3371L267.484 27.7655C268.454 26.5538 269.522 25.4228 270.675 24.3834L271.287 25.0613C270.173 26.0698 269.14 27.1652 268.199 28.3371ZM311.586 27.8901C310.62 26.7424 309.564 25.6739 308.428 24.6949L309.026 24.0024C310.201 25.0119 311.293 26.1147 312.29 27.3002L311.586 27.8901ZM274.863 22.3278L274.368 21.5546C275.674 20.7145 277.045 19.9793 278.468 19.3561L278.835 20.1989C277.456 20.801 276.128 21.5129 274.863 22.3278ZM304.793 22.0237C303.513 21.234 302.172 20.549 300.781 19.9754L301.148 19.1289C302.584 19.7216 303.97 20.4286 305.292 21.2432L304.793 22.0237ZM283.097 18.7259L282.866 17.8391C284.37 17.4517 285.903 17.187 287.45 17.0476L287.534 17.96C286.037 18.0974 284.553 18.3547 283.097 18.7295V18.7259ZM296.494 18.5903C295.029 18.2446 293.539 18.0167 292.038 17.9087L292.104 17C293.654 17.1096 295.192 17.3449 296.703 17.7035L296.494 18.5903Z" fill="#9192FF"/>
<path d="M545.65 354V353.377C546.682 353.359 547.727 353.317 548.749 353.252L548.789 353.873C547.744 353.94 546.692 353.983 545.65 354ZM542.519 353.983C541.481 353.953 540.429 353.898 539.395 353.82L539.44 353.197C540.467 353.274 541.509 353.329 542.536 353.359L542.519 353.983ZM551.893 353.601L551.826 352.983C552.848 352.868 553.883 352.733 554.897 352.566L554.995 353.182C553.972 353.344 552.928 353.486 551.893 353.601ZM536.278 353.511C535.251 353.384 534.209 353.232 533.182 353.055L533.289 352.442C534.304 352.616 535.336 352.766 536.355 352.893L536.278 353.511ZM558.074 352.619L557.947 352.008C558.959 351.798 559.974 351.561 560.968 351.304L561.123 351.908C560.121 352.16 559.093 352.409 558.074 352.619ZM530.11 352.454C529.095 352.232 528.073 351.98 527.071 351.706L527.233 351.103C528.23 351.372 529.227 351.619 530.245 351.851L530.11 352.454ZM564.135 351.055L563.95 350.459C564.948 350.155 565.925 349.823 566.89 349.474L567.102 350.06C566.127 350.414 565.13 350.748 564.135 351.055ZM524.069 350.821C523.072 350.502 522.074 350.155 521.107 349.788L521.326 349.205C522.294 349.569 523.281 349.913 524.261 350.227L524.069 350.821ZM570.001 348.918L569.752 348.345C570.697 347.951 571.649 347.527 572.579 347.098L572.846 347.661C571.926 348.105 570.966 348.532 570.001 348.918ZM518.187 348.606C517.23 348.195 516.273 347.754 515.338 347.297L515.61 346.739C516.537 347.19 517.487 347.627 518.434 348.033L518.187 348.606ZM575.648 346.25L575.357 345.699C576.262 345.218 577.172 344.702 578.054 344.18L578.373 344.717C577.481 345.258 576.573 345.771 575.658 346.26L575.648 346.25ZM512.553 345.856C511.643 345.357 510.73 344.829 509.84 344.285L510.167 343.754C511.047 344.293 511.952 344.816 512.852 345.31L512.553 345.856ZM581.024 343.058L580.68 342.537C581.54 341.969 582.397 341.375 583.225 340.772L583.592 341.271C582.766 341.894 581.901 342.495 581.034 343.068L581.024 343.058ZM507.207 342.59C506.347 342.009 505.49 341.395 504.654 340.772L505.028 340.273C505.856 340.892 506.706 341.497 507.556 342.073L507.207 342.59ZM586.077 339.373L585.686 338.874C586.489 338.231 587.287 337.56 588.057 336.879L588.468 337.348C587.703 338.054 586.895 338.735 586.087 339.383L586.077 339.373ZM502.194 338.837C501.391 338.174 500.593 337.485 499.825 336.79L500.244 336.326C500.992 337.017 501.795 337.7 502.59 338.356L502.194 338.837ZM590.767 335.231L590.333 334.785C591.081 334.067 591.802 333.324 592.507 332.573L592.961 332.999C592.261 333.767 591.523 334.518 590.777 335.241L590.767 335.231ZM497.554 334.633C496.806 333.885 496.088 333.137 495.387 332.374L495.848 331.952C496.541 332.7 497.262 333.463 497.995 334.196L497.554 334.633ZM595.038 330.666L594.564 330.262C595.232 329.476 595.893 328.668 596.521 327.855L597.02 328.239C596.402 329.067 595.736 329.885 595.06 330.676L595.038 330.666ZM493.315 330.015C492.65 329.217 491.996 328.391 491.371 327.566L491.869 327.19C492.488 328.007 493.136 328.825 493.794 329.616L493.315 330.015ZM598.9 325.728L598.389 325.369C598.982 324.526 599.563 323.659 600.114 322.791L600.64 323.125C600.084 324 599.498 324.878 598.9 325.728ZM489.568 325.035C488.982 324.18 488.409 323.29 487.863 322.414L488.394 322.088C488.935 322.963 489.503 323.833 490.084 324.684L489.568 325.035ZM602.261 320.442L601.72 320.133C602.218 319.238 602.717 318.32 603.196 317.39L603.752 317.674C603.276 318.612 602.774 319.539 602.258 320.442H602.261ZM486.284 319.719C485.786 318.809 485.287 317.879 484.836 316.949L485.394 316.674C485.848 317.594 486.332 318.517 486.83 319.417L486.284 319.719ZM605.111 314.857L604.542 314.607C604.968 313.665 605.375 312.702 605.754 311.747L606.332 311.977C605.948 312.934 605.537 313.904 605.108 314.857H605.111ZM483.517 314.108C483.101 313.156 482.702 312.183 482.333 311.218L482.916 310.994C483.28 311.952 483.664 312.917 484.088 313.857L483.517 314.108ZM607.429 309.014L606.841 308.812C607.172 307.84 607.487 306.845 607.773 305.855L608.372 306.029C608.068 307.027 607.751 308.042 607.414 309.022L607.429 309.014ZM481.298 308.266C480.974 307.269 480.667 306.271 480.393 305.274L480.994 305.107C481.266 306.104 481.567 307.102 481.891 308.074L481.298 308.266ZM609.172 303L608.566 302.855C608.815 301.858 609.022 300.835 609.214 299.823L609.828 299.938C609.618 300.973 609.394 302.005 609.157 303.012L609.172 303ZM479.63 302.232C479.401 301.222 479.191 300.19 479.009 299.165L479.625 299.055C479.805 300.072 480.012 301.095 480.236 302.095L479.63 302.232ZM610.336 296.851L609.718 296.763C609.863 295.746 609.982 294.711 610.08 293.684L610.7 293.741C610.588 294.791 610.466 295.836 610.321 296.863L610.336 296.851ZM478.538 296.07C478.406 295.043 478.289 293.996 478.211 292.956L478.832 292.906C478.915 293.933 479.024 294.973 479.156 295.99L478.538 296.07ZM610.927 290.619L610.304 290.589C610.351 289.565 610.376 288.522 610.376 287.49H611C610.975 288.545 610.95 289.597 610.902 290.632L610.927 290.619ZM478.039 289.831C478.012 289.058 478 288.271 478 287.49C478 287.226 478 286.964 478 286.702H478.623C478.623 286.951 478.623 287.221 478.623 287.483C478.623 288.256 478.623 289.036 478.663 289.802L478.039 289.831ZM610.359 285.957C610.336 284.927 610.286 283.884 610.217 282.86L610.837 282.815C610.91 283.849 610.957 284.902 610.982 285.944L610.359 285.957ZM478.735 283.61L478.112 283.573C478.174 282.533 478.259 281.483 478.361 280.453L478.979 280.518C478.855 281.55 478.77 282.59 478.71 283.623L478.735 283.61ZM609.93 279.773C609.81 278.753 609.666 277.718 609.499 276.701L610.112 276.601C610.281 277.628 610.429 278.67 610.548 279.7L609.93 279.773ZM479.383 277.444L478.75 277.354C478.907 276.326 479.092 275.289 479.296 274.272L479.907 274.394C479.697 275.409 479.515 276.436 479.358 277.456L479.383 277.444ZM608.895 273.666C608.681 272.668 608.439 271.649 608.177 270.651L608.781 270.492C609.045 271.489 609.279 272.521 609.506 273.536L608.895 273.666ZM480.585 271.369L479.979 271.217C480.228 270.22 480.515 269.192 480.817 268.2L481.413 268.38C481.114 269.375 480.837 270.372 480.585 271.369ZM607.315 267.661C607.005 266.679 606.669 265.692 606.317 264.727L606.903 264.512C607.262 265.487 607.601 266.482 607.915 267.474L607.315 267.661ZM482.383 265.417L481.797 265.208C482.146 264.225 482.522 263.24 482.916 262.278L483.492 262.512C483.103 263.487 482.739 264.465 482.383 265.437V265.417ZM605.175 261.842C604.776 260.897 604.35 259.949 603.904 259.019L604.467 258.75C604.916 259.687 605.347 260.645 605.751 261.597L605.175 261.842ZM484.734 259.687L484.168 259.423C484.607 258.483 485.075 257.538 485.561 256.615L486.112 256.904C485.636 257.819 485.172 258.755 484.734 259.687ZM602.495 256.281C602.009 255.378 601.498 254.473 600.962 253.59L601.495 253.269C602.031 254.161 602.553 255.074 603.044 255.984L602.495 256.281ZM487.626 254.189L487.09 253.875C487.616 252.977 488.169 252.082 488.738 251.209L489.261 251.551C488.698 252.419 488.147 253.301 487.626 254.189ZM599.321 250.975C598.75 250.119 598.152 249.267 597.541 248.439L598.04 248.067C598.658 248.905 599.262 249.765 599.837 250.628L599.321 250.975ZM491.029 248.98L490.53 248.613C491.139 247.773 491.777 246.933 492.423 246.12L492.921 246.509C492.248 247.327 491.617 248.157 491.017 248.992L491.029 248.98ZM595.644 245.988C594.996 245.19 594.32 244.394 593.634 243.629L594.098 243.212C594.791 243.988 595.474 244.788 596.128 245.594L595.644 245.988ZM494.891 244.135L494.422 243.726C495.108 242.943 495.818 242.165 496.536 241.417L496.988 241.851C496.262 242.591 495.557 243.36 494.878 244.135H494.891ZM591.515 241.365C590.792 240.629 590.044 239.901 589.291 239.203L589.715 238.744C590.463 239.45 591.231 240.185 591.959 240.928L591.515 241.365ZM499.187 239.664L498.76 239.213C499.508 238.497 500.294 237.791 501.082 237.113L501.488 237.587C500.69 238.258 499.922 238.953 499.174 239.664H499.187ZM586.955 237.146C586.17 236.482 585.357 235.827 584.539 235.198L584.918 234.699C585.746 235.333 586.566 235.996 587.356 236.664L586.955 237.146ZM503.867 235.617L503.483 235.118C504.298 234.48 505.143 233.849 505.976 233.248L506.337 233.747C505.515 234.358 504.679 234.984 503.869 235.617H503.867ZM582.033 233.373C581.186 232.784 580.316 232.208 579.443 231.662L579.775 231.134C580.655 231.685 581.535 232.266 582.39 232.862L582.033 233.373ZM508.918 232.029L508.581 231.503C509.454 230.942 510.354 230.396 511.251 229.877L511.563 230.416C510.663 230.929 509.783 231.473 508.918 232.029ZM576.778 230.069C575.883 229.57 574.96 229.072 574.035 228.608L574.317 228.052C575.247 228.518 576.177 229.014 577.082 229.525L576.778 230.069ZM514.278 228.929L513.991 228.376C514.914 227.9 515.859 227.441 516.801 227.007L517.051 227.575C516.126 228.002 515.191 228.458 514.278 228.929ZM571.233 227.279C570.29 226.86 569.326 226.456 568.363 226.082L568.59 225.501C569.56 225.88 570.535 226.284 571.485 226.708L571.233 227.279ZM519.903 226.351L519.671 225.773C520.636 225.386 521.623 225.025 522.6 224.675L522.807 225.264C521.835 225.601 520.86 225.967 519.903 226.351ZM565.441 225.025C564.466 224.695 563.469 224.389 562.479 224.107L562.649 223.508C563.646 223.79 564.643 224.102 565.641 224.434L565.441 225.025ZM525.757 224.314L525.58 223.715C526.577 223.421 527.592 223.147 528.602 222.9L528.751 223.504C527.749 223.743 526.744 224.022 525.757 224.314ZM559.477 223.331C558.48 223.1 557.455 222.888 556.443 222.701L556.555 222.087C557.578 222.274 558.607 222.491 559.62 222.726L559.477 223.331ZM531.778 222.833L531.661 222.222C532.68 222.022 533.718 221.845 534.745 221.696L534.835 222.312C533.817 222.466 532.79 222.641 531.778 222.838V222.833ZM553.379 222.209C552.362 222.07 551.325 221.96 550.297 221.865L550.352 221.244C551.387 221.334 552.434 221.451 553.464 221.591L553.379 222.209ZM537.921 221.935L537.861 221.314C538.891 221.212 539.943 221.132 540.983 221.08L541.015 221.701C539.973 221.761 538.933 221.838 537.911 221.94L537.921 221.935ZM547.216 221.666C546.308 221.631 545.391 221.611 544.473 221.611H544.102V221H544.476C545.388 221 546.316 221.02 547.231 221.057L547.216 221.666Z" fill="#9192FF"/>
<path d="M438.583 69.1786C435.523 69.1793 432.531 68.2732 429.985 66.5748C427.44 64.8763 425.457 62.4619 424.285 59.6369C423.113 56.812 422.807 53.7033 423.404 50.7041C424 47.7049 425.474 44.95 427.638 42.7877C429.803 40.6255 432.56 39.153 435.562 38.5566C438.564 37.9603 441.675 38.2667 444.502 39.4373C447.33 40.6078 449.746 42.5898 451.446 45.1327C453.146 47.6755 454.053 50.665 454.053 53.7229C454.048 57.8205 452.416 61.7489 449.516 64.6464C446.616 67.5438 442.684 69.1738 438.583 69.1786ZM438.583 38.9523C435.66 38.9552 432.803 39.824 430.374 41.4487C427.945 43.0735 426.052 45.3813 424.935 48.0806C423.819 50.7798 423.528 53.7492 424.1 56.6134C424.672 59.4777 426.081 62.1081 428.149 64.1724C430.218 66.2366 432.852 67.6419 435.719 68.2106C438.586 68.7794 441.558 68.486 444.259 67.3676C446.959 66.2493 449.267 64.3561 450.891 61.9274C452.515 59.4987 453.381 56.6436 453.381 53.7229C453.377 49.8044 451.815 46.0481 449.041 43.2787C446.266 40.5093 442.505 38.9533 438.583 38.9523Z" fill="#9192FF"/>
<path d="M113.241 289.055C114.632 289.055 115.76 287.928 115.76 286.538C115.76 285.148 114.632 284.021 113.241 284.021C111.849 284.021 110.721 285.148 110.721 286.538C110.721 287.928 111.849 289.055 113.241 289.055Z" fill="#9192FF"/>
<path d="M133.185 307.604C134.576 307.604 135.704 306.476 135.704 305.086C135.704 303.696 134.576 302.569 133.185 302.569C131.793 302.569 130.665 303.696 130.665 305.086C130.665 306.476 131.793 307.604 133.185 307.604Z" fill="#9192FF"/>
<path d="M146.938 269.129C148.33 269.129 149.458 268.002 149.458 266.612C149.458 265.221 148.33 264.094 146.938 264.094C145.547 264.094 144.418 265.221 144.418 266.612C144.418 268.002 145.547 269.129 146.938 269.129Z" fill="#9192FF"/>
<path d="M186.998 300.729L186.763 300.788C186.526 300.233 186.206 299.718 185.813 299.26" fill="#1B1B43"/>
<path d="M184.28 298.366L184.324 298.128C184.668 298.106 185.013 298.151 185.34 298.26C185.685 298.374 185.998 298.568 186.253 298.828" fill="#1B1B43"/>
<path opacity="0.6" d="M440.226 79.1864C441.105 78.402 442.248 77.9783 443.427 78.0009C444.605 78.0234 445.731 78.4903 446.579 79.3077C447.426 80.125 447.932 81.2321 447.994 82.4062C448.056 83.5803 447.669 84.7342 446.913 85.6358C446.48 86.0682 445.965 86.4114 445.399 86.6454C444.833 86.8795 444.226 87 443.614 87C443.001 87 442.394 86.8795 441.828 86.6454C441.262 86.4114 440.747 86.0682 440.314 85.6358C439.486 84.7704 439.017 83.6246 439 82.4283C438.984 81.232 439.422 80.0739 440.226 79.1864Z" fill="white"/>
<path opacity="0.67" d="M410 242.5C410 247.741 411.613 252.865 414.635 257.222C417.656 261.58 421.951 264.977 426.976 266.983C432.001 268.989 437.531 269.513 442.865 268.491C448.2 267.468 453.099 264.945 456.945 261.239C460.791 257.532 463.41 252.81 464.472 247.67C465.533 242.529 464.988 237.201 462.907 232.359C460.825 227.517 457.3 223.378 452.778 220.466C448.256 217.554 442.939 216 437.5 216C430.206 216 423.212 218.792 418.055 223.762C412.897 228.731 410 235.472 410 242.5Z" fill="#339DCC"/>
<g style="mix-blend-mode:multiply" opacity="0.15">
<path d="M419.567 221C417.103 225.125 415.827 229.851 415.879 234.655C415.741 239.832 417.078 244.942 419.734 249.389C422.39 253.835 426.256 257.435 430.881 259.768C435.506 262.101 440.699 263.072 445.855 262.566C451.011 262.061 455.916 260.1 460 256.914C457.843 260.126 455.027 262.843 451.74 264.885C448.453 266.927 444.77 268.248 440.934 268.76C437.098 269.272 433.197 268.963 429.489 267.854C425.781 266.745 422.352 264.861 419.427 262.328C416.502 259.794 414.15 256.668 412.525 253.157C410.9 249.645 410.04 245.829 410.001 241.96C409.963 238.091 410.747 234.259 412.302 230.716C413.857 227.173 416.147 224.001 419.021 221.41L419.567 221Z" fill="#230753"/>
</g>
<path d="M438 205C430.495 171.967 415.971 140.797 395.345 113.464C374.719 86.1301 348.441 63.228 318.174 46.2066C287.907 29.1852 254.31 18.4152 219.51 14.578C184.709 10.7408 149.462 13.9201 116 23.9146" stroke="white" stroke-width="2" stroke-miterlimit="10" stroke-linecap="round"/>
<path d="M232.823 497.135C286.595 488.478 335.875 462.296 372.436 422.96C408.997 383.624 430.625 333.515 433.709 281" stroke="white" stroke-width="2" stroke-miterlimit="10" stroke-linecap="round"/>
<path d="M437.361 274.749C455.171 274.749 469.61 260.311 469.61 242.5C469.61 224.689 455.171 210.251 437.361 210.251C419.55 210.251 405.112 224.689 405.112 242.5C405.112 260.311 419.55 274.749 437.361 274.749Z" fill="url(#paint1_linear)"/>
<path d="M437.361 273.153C454.29 273.153 468.015 259.429 468.015 242.5C468.015 225.57 454.29 211.846 437.361 211.846C420.432 211.846 406.708 225.57 406.708 242.5C406.708 259.429 420.432 273.153 437.361 273.153Z" fill="url(#paint2_linear)"/>
<path d="M437.112 266.846C450.772 266.846 461.846 255.772 461.846 242.112C461.846 228.452 450.772 217.378 437.112 217.378C423.452 217.378 412.378 228.452 412.378 242.112C412.378 255.772 423.452 266.846 437.112 266.846Z" fill="url(#paint3_linear)"/>
<path d="M427.038 253.445C427.038 252.863 427.251 252.28 427.679 251.698C428.106 251.116 428.595 250.824 429.145 250.824C429.509 250.824 429.988 251.093 430.581 251.629C431.174 252.166 431.989 252.741 433.025 253.353C434.062 253.967 435.261 254.319 436.622 254.411V243.605C435.701 243.268 434.994 242.999 434.503 242.8C434.011 242.601 433.358 242.309 432.544 241.927C431.73 241.544 431.1 241.145 430.655 240.731C430.21 240.317 429.741 239.819 429.25 239.236C428.758 238.654 428.405 237.972 428.19 237.19C427.975 236.408 427.868 235.542 427.868 234.591C427.868 231.923 428.704 229.897 430.379 228.515C432.053 227.132 434.134 226.303 436.623 226.027V224.69C436.623 224.414 436.753 224.169 437.014 223.953C437.275 223.739 437.59 223.631 437.959 223.631C438.296 223.631 438.611 223.739 438.903 223.953C439.195 224.169 439.341 224.414 439.341 224.69V225.934C441.214 225.996 442.943 226.311 444.525 226.879C446.107 227.448 446.898 228.238 446.898 229.252C446.898 229.805 446.712 230.381 446.34 230.98C445.969 231.579 445.473 231.878 444.853 231.878C444.609 231.878 443.935 231.618 442.835 231.095C441.734 230.573 440.57 230.266 439.341 230.174V239.512C440.563 239.972 441.579 240.409 442.388 240.822C443.197 241.236 444.053 241.811 444.955 242.547C445.856 243.282 446.536 244.21 446.994 245.329C447.452 246.448 447.682 247.758 447.682 249.26C447.682 252.005 446.933 254.186 445.436 255.805C443.938 257.423 441.907 258.418 439.341 258.788V260.327C439.341 260.598 439.195 260.84 438.903 261.051C438.611 261.262 438.296 261.368 437.959 261.368C437.591 261.368 437.275 261.262 437.014 261.052C436.753 260.84 436.623 260.599 436.623 260.328V258.926C433.95 258.895 431.684 258.284 429.826 257.091C427.967 255.9 427.038 254.684 427.038 253.445ZM432.429 234.132C432.429 235.328 432.802 236.24 433.547 236.868C434.291 237.497 435.409 238.087 436.899 238.639V230.262C433.919 230.63 432.429 231.921 432.429 234.132ZM439.065 254.319C441.768 253.828 443.12 252.311 443.12 249.767C443.12 248.418 442.766 247.36 442.06 246.594C441.353 245.828 440.355 245.169 439.065 244.617V254.319Z" fill="white"/>
<g clip-path="url(#clip1)">
<path d="M404.22 69.9363C404.2 68.46 403.091 67.2299 401.627 67.0407C388.112 65.2939 378.729 57.6786 375.368 54.5394C374.598 53.8202 373.402 53.8202 372.632 54.5394C369.27 57.6786 359.888 65.2939 346.373 67.0407C344.909 67.2299 343.8 68.4601 343.779 69.9363C343.646 79.6042 345.314 112.829 374 120C402.686 112.829 404.354 79.6042 404.22 69.9363Z" fill="url(#paint4_linear)"/>
<path d="M378.083 118.741C378.284 118.667 378.483 118.591 378.681 118.514C378.937 118.414 379.19 118.312 379.441 118.208C379.606 118.139 379.77 118.07 379.933 118C380.189 117.889 380.443 117.775 380.694 117.66C380.788 117.616 380.882 117.572 380.975 117.528C381.207 117.419 381.436 117.308 381.662 117.194C381.992 117.03 382.316 116.862 382.636 116.69C382.941 116.526 383.243 116.358 383.54 116.187C383.881 115.989 384.216 115.787 384.546 115.581C384.553 115.576 384.561 115.572 384.569 115.567C385.196 115.174 385.803 114.765 386.391 114.341C386.436 114.309 386.481 114.278 386.525 114.246C386.954 113.933 387.372 113.612 387.781 113.284C387.822 113.251 387.863 113.219 387.904 113.187C388.135 112.999 388.363 112.809 388.588 112.616C388.798 112.437 389.006 112.257 389.21 112.074C389.279 112.012 389.347 111.949 389.415 111.887C389.487 111.821 389.559 111.757 389.63 111.691C389.841 111.496 390.047 111.298 390.252 111.099C390.317 111.036 390.382 110.973 390.446 110.91C390.668 110.691 390.885 110.469 391.1 110.245C391.143 110.199 391.188 110.154 391.231 110.109C391.484 109.842 391.732 109.573 391.976 109.3C391.979 109.296 391.983 109.292 391.986 109.288C392.295 108.942 392.594 108.592 392.887 108.237C393.064 108.023 393.238 107.809 393.409 107.593C393.746 107.165 394.073 106.732 394.391 106.293C394.394 106.289 394.398 106.284 394.401 106.279C394.476 106.176 394.549 106.072 394.622 105.969C394.654 105.923 394.687 105.878 394.718 105.833C394.77 105.76 394.82 105.686 394.871 105.613C394.924 105.537 394.977 105.461 395.029 105.384C395.199 105.135 395.365 104.884 395.529 104.631C395.759 104.276 395.984 103.918 396.203 103.558C396.472 103.114 396.732 102.666 396.984 102.215C396.994 102.196 397.005 102.177 397.016 102.158C397.072 102.058 397.127 101.957 397.182 101.856C397.212 101.8 397.244 101.744 397.274 101.687C397.431 101.397 397.584 101.106 397.734 100.814C397.747 100.789 397.76 100.764 397.773 100.738C397.833 100.62 397.893 100.501 397.952 100.382C397.972 100.342 397.993 100.302 398.013 100.261C398.046 100.195 398.077 100.13 398.109 100.064C398.312 99.6509 398.509 99.236 398.698 98.8194C399.033 98.0836 399.348 97.3431 399.644 96.6004C399.737 96.3685 399.828 96.1365 399.917 95.9043C400.152 95.2919 400.373 94.6784 400.583 94.0651C400.596 94.0268 400.61 93.9887 400.623 93.9504C400.663 93.8332 400.702 93.7161 400.741 93.5988C400.756 93.5532 400.772 93.5074 400.787 93.4618C400.935 93.0124 401.077 92.5635 401.213 92.1153C401.225 92.0762 401.237 92.037 401.249 91.9977C401.321 91.76 401.39 91.5227 401.459 91.2855C401.535 91.021 401.61 90.7567 401.682 90.493C401.79 90.098 401.894 89.7042 401.993 89.3118C402.052 89.0782 402.111 88.8449 402.167 88.6125C402.192 88.5098 402.216 88.4074 402.24 88.3048C402.253 88.2481 402.267 88.1914 402.28 88.1346C402.346 87.8548 402.409 87.576 402.47 87.298C402.479 87.26 402.487 87.222 402.496 87.1839C402.546 86.9519 402.595 86.7209 402.643 86.4904C402.67 86.3609 402.697 86.2316 402.723 86.1026C402.775 85.8432 402.826 85.5847 402.875 85.3278C402.876 85.3218 402.877 85.3156 402.878 85.3094C402.924 85.069 402.968 84.8297 403.011 84.5915C403.051 84.3703 403.089 84.1499 403.127 83.9307C403.17 83.6756 403.212 83.4225 403.252 83.1703C403.26 83.1225 403.267 83.0743 403.275 83.0266C403.282 82.9842 403.288 82.9422 403.295 82.8997C403.311 82.793 403.328 82.6862 403.344 82.5799C403.383 82.3207 403.42 82.0635 403.456 81.8082C403.462 81.771 403.467 81.7337 403.472 81.6967C403.485 81.6014 403.498 81.5068 403.511 81.412C403.518 81.3616 403.525 81.3111 403.532 81.261C403.537 81.2182 403.543 81.1758 403.548 81.1332C403.6 80.743 403.648 80.3575 403.692 79.9774C403.789 79.1469 403.869 78.3419 403.935 77.5672C403.936 77.5556 403.937 77.5436 403.938 77.532C403.955 77.3381 403.97 77.1467 403.985 76.9568C403.992 76.8614 404 76.7663 404.007 76.6719C404.04 76.2326 404.068 75.8045 404.092 75.3881C404.101 75.2301 404.11 75.0731 404.118 74.9188C404.135 74.5964 404.15 74.2825 404.162 73.9761C404.166 73.886 404.169 73.7968 404.172 73.7081C404.19 73.2274 404.203 72.7677 404.211 72.3318C404.212 72.3239 404.212 72.3158 404.212 72.3078C404.221 71.82 404.225 71.3621 404.226 70.9361C404.226 70.9276 404.226 70.9186 404.226 70.9101C404.226 70.5634 404.223 70.2384 404.219 69.9363C404.199 68.4597 403.09 67.2295 401.625 67.0402C401.248 66.9914 400.876 66.9365 400.505 66.8789C400.423 66.8661 400.341 66.8534 400.259 66.8402C399.898 66.782 399.54 66.7203 399.185 66.6541C399.132 66.6442 399.079 66.6333 399.026 66.6233C398.704 66.5618 398.385 66.4971 398.067 66.4293C397.999 66.4148 397.931 66.4007 397.863 66.3858C397.517 66.3104 397.175 66.2311 396.836 66.1488C396.764 66.1314 396.694 66.1134 396.623 66.0958C396.309 66.0179 395.998 65.9376 395.69 65.8541C395.65 65.8433 395.61 65.8329 395.57 65.8221C395.236 65.7305 394.906 65.6349 394.578 65.5371C394.504 65.5148 394.429 65.4925 394.355 65.4699C394.027 65.3702 393.702 65.2685 393.381 65.163C393.363 65.1574 393.346 65.1513 393.329 65.1455C393.02 65.0435 392.714 64.9386 392.412 64.8316C392.343 64.8074 392.275 64.7834 392.206 64.7588C391.898 64.6484 391.593 64.5359 391.292 64.421C391.241 64.4014 391.19 64.3815 391.139 64.3617C390.867 64.2566 390.597 64.1497 390.33 64.041C390.277 64.0195 390.224 63.9985 390.172 63.977C389.879 63.8566 389.59 63.7344 389.305 63.6103C389.243 63.5833 389.181 63.5561 389.119 63.529C388.85 63.4105 388.583 63.2912 388.32 63.1699C388.296 63.1589 388.272 63.1481 388.248 63.137C387.968 63.0073 387.692 62.8758 387.42 62.7433C387.358 62.7133 387.297 62.6833 387.235 62.6532C386.966 62.521 386.699 62.3877 386.437 62.2531C386.411 62.2398 386.385 62.2262 386.359 62.2129C386.115 62.0867 385.874 61.9594 385.636 61.8317C385.582 61.8028 385.528 61.7742 385.475 61.7453C385.224 61.6097 384.977 61.4736 384.734 61.3368C384.688 61.3109 384.643 61.2849 384.597 61.2591C384.378 61.1347 384.162 61.0099 383.949 60.8849C383.911 60.8625 383.872 60.8403 383.834 60.8179C383.6 60.6795 383.37 60.5411 383.143 60.4024C383.093 60.3713 383.042 60.3403 382.992 60.3092C382.77 60.1723 382.55 60.0353 382.336 59.8985C382.329 59.8939 382.321 59.8892 382.314 59.8846C382.093 59.7435 381.877 59.6028 381.664 59.4624C381.617 59.4308 381.569 59.3994 381.522 59.3679C381.315 59.2304 381.111 59.0931 380.912 58.9567C380.885 58.9384 380.859 58.9204 380.833 58.902C380.651 58.7768 380.473 58.6522 380.298 58.5285C380.259 58.501 380.22 58.4736 380.181 58.4464C379.993 58.3126 379.809 58.1798 379.629 58.0482C379.592 58.021 379.556 57.9942 379.52 57.9673C379.356 57.8469 379.196 57.7277 379.039 57.6095C379.015 57.5917 378.991 57.5739 378.968 57.5561C378.797 57.4266 378.631 57.2987 378.468 57.1723C378.431 57.1432 378.394 57.1146 378.357 57.0858C378.195 56.9589 378.036 56.8332 377.882 56.7101C377.879 56.7075 377.876 56.7051 377.873 56.7025C377.72 56.5802 377.574 56.4606 377.43 56.3424C377.398 56.3158 377.366 56.2894 377.334 56.2632C377.193 56.1468 377.056 56.0325 376.924 55.9208C376.903 55.9029 376.883 55.8859 376.862 55.8681C376.743 55.7669 376.627 55.6678 376.515 55.5707C376.492 55.5506 376.469 55.5302 376.446 55.5103C376.324 55.4047 376.208 55.302 376.095 55.2017C376.071 55.1801 376.048 55.1595 376.024 55.1382C375.921 55.0462 375.821 54.9564 375.726 54.8696C375.715 54.8593 375.703 54.8483 375.691 54.8381C375.589 54.7442 375.491 54.6545 375.398 54.5672C375.388 54.5582 375.377 54.5481 375.367 54.5392C374.983 54.1797 374.492 54 374 54V120C374.636 119.841 375.259 119.668 375.869 119.484C376.627 119.255 377.364 119.007 378.083 118.741Z" fill="url(#paint5_linear)"/>
<path d="M400.637 71.9599C400.619 70.6588 399.642 69.5745 398.351 69.4077C386.439 67.8681 378.169 61.1559 375.206 58.3889C374.528 57.7551 373.473 57.7551 372.794 58.3889C369.832 61.1559 361.561 67.8681 349.649 69.4077C348.359 69.5745 347.382 70.6588 347.364 71.9599C347.245 80.4813 348.716 109.766 374 116.087C399.284 109.766 400.755 80.4813 400.637 71.9599Z" fill="#05E0E9"/>
<path d="M374 113.846L373.702 113.771C368.339 112.43 363.751 109.844 360.067 106.085C357.009 102.963 354.552 99.0125 352.763 94.3414C349.656 86.224 349.289 77.9603 349.347 73.7568C349.371 72.016 350.696 70.5345 352.428 70.3106C362.528 69.0052 369.55 63.3236 372.101 60.9415C373.166 59.9466 374.835 59.9467 375.9 60.9413C378.45 63.3236 385.473 69.0052 395.572 70.3106C397.305 70.5347 398.629 72.0163 398.653 73.7568C398.763 81.688 397.331 108.013 374.298 113.771L374 113.846ZM374 62.6504C373.92 62.6504 373.841 62.6794 373.778 62.7375C371.054 65.282 363.551 71.3511 352.744 72.748C352.216 72.8162 351.812 73.2646 351.805 73.7907C351.702 81.23 353.006 105.834 374 111.31C394.994 105.834 396.299 81.23 396.196 73.7907C396.188 73.2645 395.785 72.8162 395.257 72.748C384.45 71.3511 376.946 65.282 374.222 62.7375C374.16 62.6794 374.08 62.6504 374 62.6504Z" fill="white"/>
<path d="M400.637 71.9595C400.619 70.6583 399.642 69.5741 398.351 69.4073C386.439 67.8676 378.169 61.1555 375.207 58.3885C374.867 58.0715 374.434 57.9131 374 57.9131V116.087C399.285 109.765 400.755 80.4808 400.637 71.9595Z" fill="url(#paint6_linear)"/>
<path d="M389.89 76.7551C390.806 77.6708 390.806 79.1553 389.89 80.0709L376.609 93.3508C374.161 95.799 370.177 95.799 367.731 93.3508L362.698 88.3177C361.782 87.4022 361.782 85.918 362.697 85.0024C363.613 84.0863 365.097 84.0861 366.013 85.002L371.045 90.0342C371.665 90.6536 372.674 90.6536 373.292 90.0342L386.574 76.754C387.489 75.8384 388.974 75.8385 389.889 76.7542L389.89 76.7551Z" fill="url(#paint7_linear)"/>
</g>
<g clip-path="url(#clip2)">
<path d="M400.657 390.003C412.827 389.817 422.76 399.395 422.996 411.564C423.03 413.351 422.852 415.09 422.484 416.758C421.861 419.582 421.491 422.456 421.491 425.349V430.94C421.491 431.796 420.796 432.491 419.94 432.491H414.349C411.456 432.491 408.582 432.861 405.758 433.484C404.09 433.852 402.351 434.03 400.564 433.996C388.395 433.76 378.817 423.828 379.003 411.658C379.184 399.78 388.779 390.184 400.657 390.003Z" fill="#D9D9D9"/>
<path d="M382.996 369.374C367.202 369.133 354.311 381.563 354.005 397.356C353.96 399.675 354.192 401.932 354.669 404.096C355.478 407.762 355.959 411.492 355.959 415.246V422.501C355.959 423.613 356.86 424.514 357.971 424.514H365.227C368.981 424.514 372.711 424.995 376.376 425.803C378.541 426.281 380.798 426.512 383.116 426.468C398.909 426.162 411.339 413.271 411.099 397.478C410.864 382.062 398.411 369.609 382.996 369.374Z" fill="url(#paint8_linear)"/>
<path d="M369.114 403.84C371.556 403.84 373.536 401.86 373.536 399.418C373.536 396.976 371.556 394.996 369.114 394.996C366.671 394.996 364.691 396.976 364.691 399.418C364.691 401.86 366.671 403.84 369.114 403.84Z" fill="white"/>
<path d="M381.62 403.84C384.063 403.84 386.043 401.86 386.043 399.418C386.043 396.976 384.063 394.996 381.62 394.996C379.178 394.996 377.198 396.976 377.198 399.418C377.198 401.86 379.178 403.84 381.62 403.84Z" fill="white"/>
<path d="M394.127 403.84C396.569 403.84 398.549 401.86 398.549 399.418C398.549 396.976 396.569 394.996 394.127 394.996C391.685 394.996 389.705 396.976 389.705 399.418C389.705 401.86 391.685 403.84 394.127 403.84Z" fill="white"/>
</g>
<path opacity="0.67" d="M212 504.5C212 507.566 211.062 510.562 209.303 513.111C207.545 515.66 205.046 517.647 202.123 518.82C199.199 519.993 195.982 520.3 192.878 519.702C189.775 519.104 186.924 517.628 184.686 515.46C182.449 513.293 180.925 510.531 180.307 507.524C179.69 504.517 180.007 501.401 181.218 498.568C182.429 495.736 184.48 493.315 187.111 491.612C189.742 489.909 192.836 489 196 489C200.243 489 204.313 490.633 207.314 493.54C210.314 496.447 212 500.389 212 504.5Z" fill="#339DCC"/>
<g style="mix-blend-mode:multiply" opacity="0.15">
<path d="M205.451 492C206.88 494.406 207.62 497.163 207.59 499.966C207.67 502.986 206.895 505.966 205.354 508.56C203.814 511.154 201.572 513.254 198.889 514.615C196.207 515.976 193.194 516.542 190.204 516.247C187.214 515.952 184.368 514.809 182 512.95C183.251 514.823 184.884 516.408 186.791 517.6C188.697 518.791 190.833 519.561 193.058 519.86C195.283 520.159 197.546 519.979 199.696 519.332C201.847 518.685 203.836 517.586 205.532 516.108C207.229 514.63 208.593 512.806 209.536 510.758C210.478 508.71 210.977 506.483 210.999 504.227C211.021 501.97 210.567 499.734 209.665 497.668C208.763 495.601 207.435 493.751 205.768 492.239L205.451 492Z" fill="#230753"/>
</g>
<path d="M204.354 5.84397C205.766 7.49249 206.659 9.52195 206.92 11.6768C207.181 13.8317 206.799 16.0157 205.821 17.9538C204.844 19.8918 203.315 21.4973 201.427 22.5682C199.539 23.639 197.376 24.1274 195.211 23.9716C193.046 23.8159 190.975 23.0231 189.26 21.693C187.544 20.363 186.261 18.5551 185.571 16.497C184.881 14.439 184.815 12.2229 185.382 10.1275C185.948 8.03222 187.123 6.15139 188.756 4.72195C189.851 3.76423 191.124 3.03305 192.503 2.57069C193.882 2.10834 195.339 1.92401 196.789 2.02835C198.24 2.13269 199.655 2.52363 200.954 3.17857C202.252 3.83351 203.408 4.73947 204.354 5.84397Z" fill="#05E0E9" stroke="white" stroke-width="2" stroke-miterlimit="10"/>
</g>
<defs>
<linearGradient id="paint0_linear" x1="2.28975" y1="250.25" x2="350.194" y2="250.25" gradientUnits="userSpaceOnUse">
<stop stop-color="#00FFDF"/>
<stop offset="1" stop-color="#379FCD"/>
</linearGradient>
<linearGradient id="paint1_linear" x1="404.98" y1="242.453" x2="469.646" y2="242.453" gradientUnits="userSpaceOnUse">
<stop stop-color="#00FFDF"/>
<stop offset="1" stop-color="#00C3D4"/>
</linearGradient>
<linearGradient id="paint2_linear" x1="437.361" y1="211.846" x2="437.361" y2="273.153" gradientUnits="userSpaceOnUse">
<stop stop-color="#339DCC"/>
<stop offset="0.833333" stop-color="#62B7D8"/>
</linearGradient>
<linearGradient id="paint3_linear" x1="448.331" y1="253.334" x2="410.507" y2="215.509" gradientUnits="userSpaceOnUse">
<stop stop-color="#00C3D4"/>
<stop offset="1" stop-color="#00FEDF"/>
</linearGradient>
<linearGradient id="paint4_linear" x1="363.265" y1="72.212" x2="414.884" y2="123.831" gradientUnits="userSpaceOnUse">
<stop stop-color="#62E1FB"/>
<stop offset="1" stop-color="#00A2F3"/>
</linearGradient>
<linearGradient id="paint5_linear" x1="398.9" y1="87.0007" x2="364.169" y2="87.0007" gradientUnits="userSpaceOnUse">
<stop stop-color="#00A2F3" stop-opacity="0"/>
<stop offset="1" stop-color="#0075CD"/>
</linearGradient>
<linearGradient id="paint6_linear" x1="396.397" y1="87.0005" x2="361.689" y2="87.0005" gradientUnits="userSpaceOnUse">
<stop stop-color="#61DB99" stop-opacity="0"/>
<stop offset="1" stop-color="#009E74"/>
</linearGradient>
<linearGradient id="paint7_linear" x1="376.293" y1="82.1429" x2="376.293" y2="97.4662" gradientUnits="userSpaceOnUse">
<stop stop-color="white"/>
<stop offset="1" stop-color="white"/>
</linearGradient>
<linearGradient id="paint8_linear" x1="372.12" y1="393.306" x2="408.447" y2="429.633" gradientUnits="userSpaceOnUse">
<stop stop-color="#62E1FB"/>
<stop offset="1" stop-color="#00A2F3"/>
</linearGradient>
<clipPath id="clip0">
<rect width="693" height="556" fill="white"/>
</clipPath>
<clipPath id="clip1">
<rect width="66" height="66" fill="white" transform="translate(341 54)"/>
</clipPath>
<clipPath id="clip2">
<rect width="71" height="71" fill="white" transform="translate(354 368)"/>
</clipPath>
</defs>
</svg>
