<svg width="1031" height="840" viewBox="0 0 1031 840" fill="none" xmlns="http://www.w3.org/2000/svg">
<path d="M539.5 810.5H922V32.5H405L833 181.5V638.5L539.5 810.5Z" fill="white"/>
<path d="M754.007 481.853C922.233 103.886 335.12 12.4009 0.327716 47.2051C919.74 -57.4856 1043.99 308.898 1011.4 471.875L911.112 728.751L749.482 787.506C327.798 849.752 585.78 859.819 754.007 481.853Z" fill="white"/>
<path d="M838.605 197.352C831.463 194.217 823.429 193.356 816.03 194.932C808.63 196.507 802.379 200.411 798.465 205.9C794.551 211.389 793.247 218.082 794.799 224.708C796.351 231.333 800.652 237.43 806.885 241.839C801.277 242.257 796.084 244.141 791.995 247.242C787.906 250.342 785.115 254.512 783.992 259.198C783.871 259.704 783.75 260.209 783.693 260.72C775.678 260.855 768.059 262.975 761.749 266.826C755.438 270.677 750.702 276.097 748.107 282.437C745.512 288.777 745.167 295.769 747.114 302.579C749.061 309.388 753.217 315.725 759.086 320.834C756.36 323.582 754.476 326.893 753.588 330.501C752.699 334.108 752.83 337.911 753.97 341.604C755.11 345.297 757.228 348.777 760.152 351.764C763.076 354.75 766.726 357.161 770.807 358.801C765.763 361.727 762.163 366.115 760.594 371.249C759.026 376.383 759.58 381.959 762.168 387.068C757.701 388.805 753.963 391.586 751.351 395.117C748.739 398.647 747.351 402.796 747.335 407.122C747.318 411.447 748.673 415.788 751.257 419.684C753.84 423.579 757.555 426.883 762.006 429.245C756.917 431.545 752.77 435.047 750.015 439.372C747.259 443.698 746 448.682 746.374 453.786C739.786 454.917 733.941 457.824 729.664 462.099C725.388 466.374 722.894 471.8 722.535 477.614C715.696 481.16 710.897 486.917 709.113 493.716C707.329 500.515 708.693 507.847 712.928 514.224C710.127 518.589 708.852 523.63 709.246 528.79C709.641 533.95 711.688 539.028 715.162 543.464C709.476 544.527 704.359 546.926 700.362 550.402C696.365 553.879 693.639 558.302 692.478 563.195L692.435 563.378C682.895 563.773 674.068 566.999 667.447 572.512C660.825 578.024 656.815 585.484 656.096 593.629C655.376 601.774 657.991 610.105 663.498 617.212C669.005 624.319 677.066 629.766 686.317 632.632C686.207 633.094 686.094 633.564 685.981 634.034C684.866 638.657 685.087 643.53 686.625 648.243C688.163 652.956 690.973 657.373 694.819 661.121C698.665 664.87 703.435 667.841 708.728 669.786C714.022 671.73 719.683 672.59 725.238 672.295C730.793 672 736.079 670.557 740.651 668.088C745.224 665.619 748.95 662.196 751.516 658.106C754.082 654.017 755.413 649.38 755.399 644.586C755.384 639.791 754.023 634.979 751.43 630.554L783.333 497.268C786.628 492.696 788.17 487.273 787.761 481.696C793.629 480.695 798.923 478.281 803.045 474.727C807.166 471.172 809.951 466.618 811.083 461.581C812.216 456.543 811.652 451.223 809.455 446.22C807.258 441.218 803.516 436.733 798.651 433.274L807.199 397.561C811.321 394.459 814.135 390.272 815.262 385.562C816.39 380.852 815.777 375.845 813.505 371.213L835.322 280.068C838.909 275.393 840.29 269.624 839.208 263.832L843.667 245.2C849.456 242.297 853.817 237.761 856.077 232.294C856.781 232.508 857.487 232.714 858.212 232.888C863.337 234.102 868.644 234.088 873.535 232.847C878.425 231.606 882.705 229.187 885.89 225.864C889.076 222.54 891.041 218.444 891.563 214.037C892.086 209.63 891.145 205.089 888.848 200.925C886.55 196.761 882.987 193.14 878.56 190.471C874.133 187.801 869.019 186.19 863.794 185.819C858.57 185.447 853.443 186.33 848.992 188.368C844.541 190.406 840.943 193.518 838.605 197.352Z" fill="white"/>
<path d="M838.605 197.352C831.463 194.217 823.429 193.356 816.03 194.932C808.63 196.507 802.379 200.411 798.465 205.9C794.551 211.389 793.247 218.082 794.799 224.708C796.351 231.333 800.652 237.43 806.885 241.839C801.277 242.257 796.084 244.141 791.995 247.242C787.906 250.342 785.115 254.512 783.992 259.198C783.871 259.704 783.75 260.209 783.693 260.72C775.678 260.855 768.059 262.975 761.749 266.826C755.438 270.677 750.702 276.097 748.107 282.437C745.512 288.777 745.167 295.769 747.114 302.579C749.061 309.388 753.217 315.725 759.086 320.834C756.36 323.582 754.476 326.893 753.588 330.501C752.699 334.108 752.83 337.911 753.97 341.604C755.11 345.297 757.228 348.777 760.152 351.764C763.076 354.75 766.726 357.161 770.807 358.801C765.763 361.727 762.163 366.115 760.594 371.249C759.026 376.383 759.58 381.959 762.168 387.068C757.701 388.805 753.963 391.586 751.351 395.117C748.739 398.647 747.351 402.796 747.335 407.122C747.318 411.447 748.673 415.788 751.257 419.684C753.84 423.579 757.555 426.883 762.006 429.245C756.917 431.545 752.77 435.047 750.015 439.372C747.259 443.698 746 448.682 746.374 453.786C739.786 454.917 733.941 457.824 729.664 462.099C725.388 466.374 722.894 471.8 722.535 477.614C715.696 481.16 710.897 486.917 709.113 493.716C707.329 500.515 708.693 507.847 712.928 514.224C710.127 518.589 708.852 523.63 709.246 528.79C709.641 533.95 711.688 539.028 715.162 543.464C709.476 544.527 704.359 546.926 700.362 550.402C696.365 553.879 693.639 558.302 692.478 563.195L692.435 563.378C682.895 563.773 674.068 566.999 667.447 572.512C660.825 578.024 656.815 585.484 656.096 593.629C655.376 601.774 657.991 610.105 663.498 617.212C669.005 624.319 677.066 629.766 686.317 632.632C686.207 633.094 686.094 633.564 685.981 634.034C684.866 638.657 685.087 643.53 686.625 648.243C688.163 652.956 690.973 657.373 694.819 661.121C698.665 664.87 703.435 667.841 708.728 669.786C714.022 671.73 719.683 672.59 725.238 672.295C730.793 672 736.079 670.557 740.651 668.088C745.224 665.619 748.95 662.196 751.516 658.106C754.082 654.017 755.413 649.38 755.399 644.586C755.384 639.791 754.023 634.979 751.43 630.554L783.333 497.268C786.628 492.696 788.17 487.273 787.761 481.696C793.629 480.695 798.923 478.281 803.045 474.727C807.166 471.172 809.951 466.618 811.083 461.581C812.216 456.543 811.652 451.223 809.455 446.22C807.258 441.218 803.516 436.733 798.651 433.274L807.199 397.561C811.321 394.459 814.135 390.272 815.262 385.562C816.39 380.852 815.777 375.845 813.505 371.213L835.322 280.068C838.909 275.393 840.29 269.624 839.208 263.832L843.667 245.2C849.456 242.297 853.817 237.761 856.077 232.294C856.781 232.508 857.487 232.714 858.212 232.888C863.337 234.102 868.644 234.088 873.535 232.847C878.425 231.606 882.705 229.187 885.89 225.864C889.076 222.54 891.041 218.444 891.563 214.037C892.086 209.63 891.145 205.089 888.848 200.925C886.55 196.761 882.987 193.14 878.56 190.471C874.133 187.801 869.019 186.19 863.794 185.819C858.57 185.447 853.443 186.33 848.992 188.368C844.541 190.406 840.943 193.518 838.605 197.352Z" fill="white"/>
<path d="M603.988 119.975C601.041 122.552 598.938 126.019 598.077 129.717C597.217 133.415 597.658 137.087 599.319 140.036C600.979 142.984 603.742 145.003 607.084 145.709C610.425 146.416 614.112 145.76 617.444 143.867C616.439 146.505 616.188 149.266 616.726 151.785C617.263 154.303 618.564 156.46 620.454 157.969C620.658 158.132 620.861 158.295 621.082 158.429C619.435 162.1 618.775 166.014 619.18 169.702C619.585 173.39 621.039 176.697 623.367 179.227C625.695 181.757 628.799 183.404 632.308 183.97C635.817 184.536 639.582 183.998 643.154 182.42C643.822 184.244 644.925 185.806 646.375 186.978C647.825 188.151 649.581 188.901 651.502 189.17C653.423 189.439 655.456 189.219 657.436 188.526C659.416 187.834 661.289 186.689 662.904 185.184C663.159 188.099 664.386 190.67 666.384 192.477C668.383 194.284 671.035 195.22 673.908 195.133C673.745 197.533 674.213 199.824 675.26 201.763C676.308 203.702 677.898 205.217 679.86 206.146C681.822 207.075 684.083 207.384 686.404 207.041C688.724 206.697 691.017 205.713 693.039 204.193C692.999 206.996 693.707 209.627 695.086 211.8C696.464 213.974 698.461 215.608 700.859 216.526C699.969 219.761 700.045 223.036 701.076 225.89C702.108 228.745 704.042 231.034 706.607 232.436C706.761 236.299 708.355 239.706 711.064 241.966C713.774 244.225 717.396 245.168 721.196 244.602C722.582 246.805 724.602 248.458 727.03 249.379C729.459 250.299 732.203 250.451 734.959 249.818C734.23 252.628 734.23 255.464 734.958 258.021C735.686 260.578 737.115 262.759 739.091 264.329L739.165 264.388C737.312 268.807 736.897 273.506 737.991 277.689C739.085 281.873 741.62 285.284 745.168 287.347C748.716 289.409 753.059 289.996 757.462 289.008C761.865 288.02 766.057 285.518 769.331 281.925C769.517 282.073 769.707 282.225 769.897 282.376C771.76 283.868 774.021 284.806 776.49 285.111C778.96 285.417 781.565 285.081 784.088 284.132C786.611 283.183 788.978 281.649 790.989 279.658C793 277.667 794.598 275.277 795.647 272.69C796.697 270.103 797.167 267.394 797.02 264.79C796.872 262.186 796.111 259.764 794.799 257.726C793.488 255.689 791.664 254.096 789.483 253.081C787.301 252.066 784.824 251.659 782.261 251.894L728.493 208.997C727.118 206.525 724.982 204.669 722.361 203.667C723.157 200.787 723.188 197.867 722.45 195.237C721.713 192.606 720.238 190.371 718.19 188.783C716.142 187.195 713.604 186.317 710.863 186.249C708.122 186.182 705.287 186.927 702.678 188.4L688.271 176.907C687.74 174.372 686.437 172.202 684.537 170.686C682.637 169.17 680.231 168.381 677.642 168.426L640.874 139.092C639.514 136.465 637.187 134.609 634.325 133.866L626.809 127.87C626.723 124.621 625.591 121.673 623.588 119.481C623.836 119.206 624.08 118.929 624.313 118.637C625.957 116.567 627.081 114.153 627.56 111.666C628.038 109.179 627.85 106.719 627.019 104.563C626.187 102.407 624.745 100.642 622.854 99.4654C620.963 98.2889 618.699 97.7486 616.317 97.9054C613.935 98.0622 611.53 98.9098 609.374 100.353C607.218 101.795 605.396 103.776 604.114 106.071C602.832 108.366 602.141 110.884 602.119 113.34C602.096 115.797 602.744 118.095 603.988 119.975Z" fill="white"/>
<path d="M603.988 119.975C601.041 122.552 598.938 126.019 598.077 129.717C597.217 133.415 597.658 137.087 599.319 140.036C600.979 142.984 603.742 145.003 607.084 145.709C610.425 146.416 614.112 145.76 617.444 143.867C616.439 146.505 616.188 149.266 616.726 151.785C617.263 154.303 618.564 156.46 620.454 157.969C620.658 158.132 620.861 158.295 621.082 158.429C619.435 162.1 618.775 166.014 619.18 169.702C619.585 173.39 621.039 176.697 623.367 179.227C625.695 181.757 628.799 183.404 632.308 183.97C635.817 184.536 639.582 183.998 643.154 182.42C643.822 184.244 644.925 185.806 646.375 186.978C647.825 188.151 649.581 188.901 651.502 189.17C653.423 189.439 655.456 189.219 657.436 188.526C659.416 187.834 661.289 186.689 662.904 185.184C663.159 188.099 664.386 190.67 666.384 192.477C668.383 194.284 671.035 195.22 673.908 195.133C673.745 197.533 674.213 199.824 675.26 201.763C676.308 203.702 677.898 205.217 679.86 206.146C681.822 207.075 684.083 207.384 686.404 207.041C688.724 206.697 691.017 205.713 693.039 204.193C692.999 206.996 693.707 209.627 695.086 211.8C696.464 213.974 698.461 215.608 700.859 216.526C699.969 219.761 700.045 223.036 701.076 225.89C702.108 228.745 704.042 231.034 706.607 232.436C706.761 236.299 708.355 239.706 711.064 241.966C713.774 244.225 717.396 245.168 721.196 244.602C722.582 246.805 724.602 248.458 727.03 249.379C729.459 250.299 732.203 250.451 734.959 249.818C734.23 252.628 734.23 255.464 734.958 258.021C735.686 260.578 737.115 262.759 739.091 264.329L739.165 264.388C737.312 268.807 736.897 273.506 737.991 277.689C739.085 281.873 741.62 285.284 745.168 287.347C748.716 289.409 753.059 289.996 757.462 289.008C761.865 288.02 766.057 285.518 769.331 281.925C769.517 282.073 769.707 282.225 769.897 282.376C771.76 283.868 774.021 284.806 776.49 285.111C778.96 285.417 781.565 285.081 784.088 284.132C786.611 283.183 788.978 281.649 790.989 279.658C793 277.667 794.598 275.277 795.647 272.69C796.697 270.103 797.167 267.394 797.02 264.79C796.872 262.186 796.111 259.764 794.799 257.726C793.488 255.689 791.664 254.096 789.483 253.081C787.301 252.066 784.824 251.659 782.261 251.894L728.493 208.997C727.118 206.525 724.982 204.669 722.361 203.667C723.157 200.787 723.188 197.867 722.45 195.237C721.713 192.606 720.238 190.371 718.19 188.783C716.142 187.195 713.604 186.317 710.863 186.249C708.122 186.182 705.287 186.927 702.678 188.4L688.271 176.907C687.74 174.372 686.437 172.202 684.537 170.686C682.637 169.17 680.231 168.381 677.642 168.426L640.874 139.092C639.514 136.465 637.187 134.609 634.325 133.866L626.809 127.87C626.723 124.621 625.591 121.673 623.588 119.481C623.836 119.206 624.08 118.929 624.313 118.637C625.957 116.567 627.081 114.153 627.56 111.666C628.038 109.179 627.85 106.719 627.019 104.563C626.187 102.407 624.745 100.642 622.854 99.4654C620.963 98.2889 618.699 97.7486 616.317 97.9054C613.935 98.0622 611.53 98.9098 609.374 100.353C607.218 101.795 605.396 103.776 604.114 106.071C602.832 108.366 602.141 110.884 602.119 113.34C602.096 115.797 602.744 118.095 603.988 119.975Z" fill="white"/>
<path d="M472.797 82.1002C471.739 84.4792 471.438 87.1597 471.952 89.6325C472.466 92.1054 473.759 94.1984 475.585 95.5139C477.411 96.8295 479.643 97.276 481.858 96.7686C484.072 96.2613 486.114 94.8354 487.596 92.7619C487.727 94.6349 488.347 96.3716 489.375 97.7415C490.404 99.1115 491.791 100.05 493.354 100.433C493.522 100.474 493.691 100.515 493.861 100.535C493.893 103.211 494.589 105.758 495.864 107.871C497.139 109.984 498.941 111.574 501.053 112.45C503.165 113.327 505.499 113.454 507.775 112.815C510.051 112.176 512.174 110.799 513.889 108.848C514.802 109.763 515.904 110.397 517.107 110.699C518.31 111.002 519.579 110.964 520.814 110.59C522.049 110.215 523.214 109.514 524.216 108.543C525.218 107.571 526.028 106.357 526.582 104.997C527.551 106.686 529.01 107.895 530.721 108.427C532.432 108.959 534.295 108.783 536.005 107.927C536.577 109.421 537.499 110.674 538.674 111.552C539.848 112.429 541.231 112.899 542.675 112.912C544.119 112.925 545.57 112.479 546.875 111.623C548.179 110.767 549.289 109.533 550.084 108.05C550.844 109.753 552.006 111.143 553.445 112.07C554.885 112.997 556.547 113.425 558.251 113.309C558.618 115.51 559.579 117.466 560.999 118.901C562.419 120.336 564.226 121.177 566.167 121.306C567.339 123.595 569.253 125.206 571.52 125.813C573.787 126.42 576.237 125.977 578.372 124.573C579.825 125.516 581.506 125.949 583.229 125.826C584.952 125.703 586.651 125.028 588.137 123.875C588.483 125.775 589.275 127.487 590.429 128.827C591.583 130.167 593.055 131.084 594.687 131.48L594.748 131.495C594.864 134.68 595.927 137.632 597.756 139.852C599.585 142.071 602.069 143.422 604.787 143.675C607.505 143.929 610.29 143.07 612.672 141.243C615.053 139.416 616.885 136.734 617.857 133.65C618.011 133.688 618.168 133.726 618.324 133.765C619.866 134.145 621.493 134.079 623.069 133.573C624.645 133.068 626.124 132.137 627.381 130.859C628.639 129.581 629.639 127.994 630.296 126.23C630.954 124.466 631.251 122.577 631.161 120.722C631.072 118.867 630.599 117.101 629.782 115.57C628.965 114.04 627.829 112.79 626.468 111.927C625.107 111.064 623.561 110.612 621.96 110.609C620.36 110.606 618.751 111.052 617.27 111.91L572.827 101.042C571.306 99.9347 569.498 99.4111 567.636 99.5385C567.312 97.578 566.514 95.8067 565.335 94.4251C564.155 93.0434 562.639 92.1064 560.959 91.72C559.279 91.3336 557.502 91.5131 555.829 92.2384C554.155 92.9637 552.652 94.2057 551.489 95.8241L539.581 92.9121C538.552 91.5308 537.159 90.5846 535.589 90.2006C534.018 89.8165 532.346 90.013 530.796 90.7636L500.405 83.3316C498.85 82.1264 496.927 81.6561 494.991 82.0077L488.779 80.4885C487.819 78.5512 486.312 77.0882 484.49 76.3248C484.563 76.09 484.633 75.8545 484.692 75.6128C485.106 73.904 485.11 72.1324 484.704 70.4978C484.297 68.8631 483.497 67.4306 482.392 66.3617C481.288 65.2928 479.924 64.6301 478.454 64.4485C476.984 64.2668 475.466 64.5734 474.072 65.3336C472.678 66.0938 471.464 67.2774 470.565 68.7509C469.667 70.2243 469.121 71.9289 468.988 73.6724C468.856 75.4159 469.142 77.1289 469.815 78.618C470.488 80.1072 471.521 81.3133 472.797 82.1002Z" fill="white"/>
<path d="M472.797 82.1002C471.739 84.4792 471.438 87.1597 471.952 89.6325C472.466 92.1054 473.759 94.1984 475.585 95.5139C477.411 96.8295 479.643 97.276 481.858 96.7686C484.072 96.2613 486.114 94.8354 487.596 92.7619C487.727 94.6349 488.347 96.3716 489.375 97.7415C490.404 99.1115 491.791 100.05 493.354 100.433C493.522 100.474 493.691 100.515 493.861 100.535C493.893 103.211 494.589 105.758 495.864 107.871C497.139 109.984 498.941 111.574 501.053 112.45C503.165 113.327 505.499 113.454 507.775 112.815C510.051 112.176 512.174 110.799 513.889 108.848C514.802 109.763 515.904 110.397 517.107 110.699C518.31 111.002 519.579 110.964 520.814 110.59C522.049 110.215 523.214 109.514 524.216 108.543C525.218 107.571 526.028 106.357 526.582 104.997C527.551 106.686 529.01 107.895 530.721 108.427C532.432 108.959 534.295 108.783 536.005 107.927C536.577 109.421 537.499 110.674 538.674 111.552C539.848 112.429 541.231 112.899 542.675 112.912C544.119 112.925 545.57 112.479 546.875 111.623C548.179 110.767 549.289 109.533 550.084 108.05C550.844 109.753 552.006 111.143 553.445 112.07C554.885 112.997 556.547 113.425 558.251 113.309C558.618 115.51 559.579 117.466 560.999 118.901C562.419 120.336 564.226 121.177 566.167 121.306C567.339 123.595 569.253 125.206 571.52 125.813C573.787 126.42 576.237 125.977 578.372 124.573C579.825 125.516 581.506 125.949 583.229 125.826C584.952 125.703 586.651 125.028 588.137 123.875C588.483 125.775 589.275 127.487 590.429 128.827C591.583 130.167 593.055 131.084 594.687 131.48L594.748 131.495C594.864 134.68 595.927 137.632 597.756 139.852C599.585 142.071 602.069 143.422 604.787 143.675C607.505 143.929 610.29 143.07 612.672 141.243C615.053 139.416 616.885 136.734 617.857 133.65C618.011 133.688 618.168 133.726 618.324 133.765C619.866 134.145 621.493 134.079 623.069 133.573C624.645 133.068 626.124 132.137 627.381 130.859C628.639 129.581 629.639 127.994 630.296 126.23C630.954 124.466 631.251 122.577 631.161 120.722C631.072 118.867 630.599 117.101 629.782 115.57C628.965 114.04 627.829 112.79 626.468 111.927C625.107 111.064 623.561 110.612 621.96 110.609C620.36 110.606 618.751 111.052 617.27 111.91L572.827 101.042C571.306 99.9347 569.498 99.4111 567.636 99.5385C567.312 97.578 566.514 95.8067 565.335 94.4251C564.155 93.0434 562.639 92.1064 560.959 91.72C559.279 91.3336 557.502 91.5131 555.829 92.2384C554.155 92.9637 552.652 94.2057 551.489 95.8241L539.581 92.9121C538.552 91.5308 537.159 90.5846 535.589 90.2006C534.018 89.8165 532.346 90.013 530.796 90.7636L500.405 83.3316C498.85 82.1264 496.927 81.6561 494.991 82.0077L488.779 80.4885C487.819 78.5512 486.312 77.0882 484.49 76.3248C484.563 76.09 484.633 75.8545 484.692 75.6128C485.106 73.904 485.11 72.1324 484.704 70.4978C484.297 68.8631 483.497 67.4306 482.392 66.3617C481.288 65.2928 479.924 64.6301 478.454 64.4485C476.984 64.2668 475.466 64.5734 474.072 65.3336C472.678 66.0938 471.464 67.2774 470.565 68.7509C469.667 70.2243 469.121 71.9289 468.988 73.6724C468.856 75.4159 469.142 77.1289 469.815 78.618C470.488 80.1072 471.521 81.3133 472.797 82.1002Z" fill="white"/>
</svg>
