<svg width="2048" height="582" viewBox="0 0 2048 582" fill="none" xmlns="http://www.w3.org/2000/svg">
<path d="M153.564 481.048C158.365 480.524 162.9 479.377 166.173 477.861C166.891 478.937 168.405 479.861 170.587 480.555C172.77 481.249 175.557 481.692 178.715 481.848C181.873 482.004 185.311 481.867 188.738 481.45C192.165 481.033 195.483 480.348 198.413 479.451C200.018 481.162 202.794 482.619 206.55 483.719C210.305 484.82 214.949 485.538 220.16 485.825C225.372 486.111 231.025 485.958 236.729 485.377C242.433 484.796 248.05 483.8 253.193 482.46C253.234 482.833 253.148 483.219 253.189 483.592C253.483 486.255 255.699 488.666 259.645 490.616C263.591 492.565 269.148 493.995 275.831 494.781C282.515 495.566 290.124 495.684 297.997 495.123C305.87 494.562 313.768 493.34 321.006 491.562C322.086 493.243 324.343 494.702 327.608 495.828C330.872 496.955 335.057 497.72 339.846 498.065C344.635 498.41 349.901 498.326 355.245 497.819C360.589 497.312 365.87 496.396 370.688 495.14C373.06 498.327 378.616 500.85 386.523 502.332C394.43 503.813 404.261 504.173 414.541 503.357C424.821 502.542 434.997 500.594 443.54 497.807C452.083 495.02 458.533 491.544 461.923 487.9C467.604 487.239 473.116 486.113 477.956 484.623C481.072 486.122 485.539 487.174 490.897 487.672C496.255 488.169 502.311 488.093 508.441 487.452C514.571 486.812 520.553 485.629 525.773 484.025C530.993 482.422 535.262 480.457 538.14 478.331C542.043 479.222 546.765 479.704 551.926 479.738C557.087 479.772 562.544 479.357 567.858 478.527C573.172 477.697 578.195 476.474 582.525 474.958C586.855 473.441 590.37 471.672 592.789 469.793C594.185 470.209 595.896 470.491 597.818 470.622C599.739 470.753 601.83 470.731 603.962 470.557C606.095 470.383 608.225 470.06 610.222 469.609C612.219 469.158 614.041 468.588 615.576 467.933C614.681 468.677 614.295 469.438 614.456 470.145C614.617 470.852 615.319 471.48 616.495 471.969C617.671 472.459 619.282 472.793 621.173 472.939C623.064 473.086 625.172 473.04 627.294 472.807L628.383 472.688C627.653 473.372 627.355 474.064 627.514 474.709C627.673 475.353 628.285 475.932 629.3 476.398C630.315 476.864 631.705 477.204 633.358 477.392C635.01 477.579 636.879 477.608 638.814 477.476C636.686 478.458 635.49 479.594 635.463 480.659C635.436 481.724 636.581 482.64 638.67 483.225C640.758 483.81 643.639 484.023 646.74 483.819C649.841 483.616 652.937 483.013 655.413 482.128C656.548 482.83 658.359 483.334 660.619 483.578C662.879 483.822 665.489 483.795 668.123 483.5C670.757 483.205 673.299 482.655 675.431 481.92C677.563 481.184 679.192 480.295 680.114 479.363C681.396 479.746 683.012 479.985 684.83 480.062C686.648 480.139 688.616 480.05 690.572 479.804C692.529 479.557 694.418 479.16 696.084 478.644C697.751 478.129 699.148 477.51 700.16 476.838L701.423 476.699C702.421 477.084 703.704 477.365 705.188 477.524C706.673 477.683 708.327 477.716 710.044 477.622C711.761 477.527 713.503 477.307 715.158 476.975C716.813 476.643 718.345 476.206 719.655 475.694C720.888 476.261 722.67 476.641 724.792 476.789C726.914 476.937 729.287 476.847 731.634 476.529C733.981 476.211 736.203 475.679 738.041 474.996C739.879 474.312 741.256 473.504 742.011 472.668C743.912 472.872 746.084 472.869 748.301 472.659C750.518 472.449 752.698 472.04 754.615 471.475C756.532 470.909 758.115 470.207 759.2 469.443C760.285 468.678 760.832 467.879 760.784 467.128C761.779 467.103 762.796 467.035 763.813 466.925C765.872 466.698 767.879 466.302 769.653 465.773C771.428 465.244 772.915 464.598 773.981 463.894C775.047 463.189 775.659 462.447 775.762 461.736C775.865 461.024 775.455 460.364 774.57 459.815C774.901 459.779 775.249 459.741 775.596 459.703C777.632 459.48 779.617 459.091 781.379 458.571C783.14 458.052 784.623 457.417 785.697 456.722C786.771 456.028 787.404 455.295 787.539 454.589C787.675 453.882 787.308 453.224 786.473 452.671C787.145 452.637 787.823 452.582 788.5 452.509C791.796 452.148 794.908 451.359 797.151 450.318C799.395 449.276 800.588 448.066 800.466 446.954C800.431 446.672 800.316 446.399 800.121 446.14C802.596 446.296 805.336 446.194 808.059 445.844C810.781 445.495 813.387 444.911 815.609 444.152C819.908 445.705 825.913 446.583 832.776 446.661C839.639 446.739 847.013 446.014 853.858 444.588C853.701 445.073 853.641 445.551 853.679 446.02C853.848 447.706 855.338 449.218 857.997 450.401C860.656 451.585 864.389 452.398 868.815 452.757C873.24 453.117 878.2 453.01 883.188 452.447C888.175 451.885 893.012 450.887 897.205 449.555C900.837 452.001 906.967 453.741 914.722 454.528C922.476 455.314 931.457 455.107 940.382 453.935C949.307 452.764 957.721 450.688 964.421 448.004C971.121 445.32 975.765 442.165 977.69 438.99C983.046 439.316 988.948 439.107 994.831 438.381C1000.71 437.655 1006.38 436.437 1011.29 434.845C1016.2 433.252 1020.19 431.338 1022.87 429.285C1025.56 427.232 1026.84 425.11 1026.62 423.121C1026.46 421.637 1025.45 420.26 1023.65 419.068C1029.51 418.002 1034.77 416.379 1038.69 414.429C1042.6 412.478 1044.97 410.298 1045.46 408.196C1050.68 408.565 1056.55 408.312 1062.3 407.471C1068.06 406.63 1073.42 405.239 1077.7 403.482C1081.98 401.724 1084.96 399.682 1086.26 397.624C1087.57 395.565 1087.13 393.586 1085 391.947C1089.48 390.764 1093.32 389.259 1096.14 387.579C1098.95 385.9 1100.65 384.103 1101.06 382.366C1101.47 380.629 1100.58 379.011 1098.48 377.67C1096.38 376.329 1093.14 375.311 1089.07 374.715C1087.06 373.637 1083.93 372.912 1080.12 372.641C1076.32 372.371 1072.02 372.57 1067.83 373.209L1067.83 373.155L267.52 460.837C263.709 459.493 258.747 458.598 253.052 458.228C247.357 457.858 241.095 458.023 234.794 458.71C228.494 459.396 222.339 460.584 216.848 462.173C211.357 463.762 206.692 465.706 203.244 467.841C201.145 467.241 198.552 466.856 195.652 466.714C192.751 466.572 189.614 466.675 186.46 467.017C183.307 467.359 180.215 467.931 177.405 468.692C174.594 469.454 172.133 470.386 170.197 471.424C169.193 470.42 167.306 469.62 164.75 469.114C162.194 468.607 159.07 468.415 155.732 468.558C152.393 468.701 148.973 469.174 145.858 469.923C142.743 470.673 140.058 471.669 138.104 472.799C136.151 473.93 135.009 475.149 134.806 476.319C134.603 477.49 135.347 478.565 136.955 479.423C138.564 480.281 140.971 480.888 143.906 481.175C146.841 481.462 150.187 481.419 153.564 481.048Z" fill="#D9D9D9"/>
<path d="M739.145 499.538C738.809 506.816 736.108 513.858 731.554 519.326C727 524.794 720.91 528.308 714.442 529.2C707.974 530.092 701.577 528.3 696.467 524.164C691.357 520.028 687.89 513.837 686.724 506.766C683.949 511.244 680.074 514.747 675.614 516.81C671.154 518.874 666.318 519.4 661.749 518.32C661.257 518.203 660.764 518.086 660.294 517.914C656.732 524.512 651.609 529.928 645.539 533.514C639.469 537.1 632.709 538.705 626.065 538.136C619.422 537.567 613.176 534.849 608.076 530.306C602.976 525.764 599.236 519.589 597.304 512.52C593.736 513.604 590.039 513.745 586.512 512.933C582.985 512.121 579.725 510.378 576.995 507.845C574.265 505.311 572.141 502.058 570.793 498.346C569.446 494.634 568.913 490.568 569.237 486.474C564.517 489.405 559.144 490.509 553.994 489.606C548.843 488.704 544.22 485.847 540.876 481.502C537.443 484.466 533.411 486.376 529.21 487.028C525.009 487.68 520.795 487.05 517.017 485.205C513.238 483.36 510.035 480.369 507.749 476.55C505.463 472.731 504.178 468.227 504.032 463.515C499.839 466.754 495.004 468.693 490.048 469.123C485.092 469.552 480.205 468.456 475.916 465.953C472.098 470.939 467.051 474.543 461.486 476.258C455.921 477.973 450.118 477.712 444.894 475.513C438.863 479.669 431.781 481.18 425.086 479.74C418.391 478.301 412.584 474.017 408.844 467.76C403.834 468.212 398.891 467.104 394.562 464.56C390.232 462.015 386.683 458.133 384.309 453.342C380.938 457.608 376.648 460.826 371.899 462.652C367.15 464.477 362.122 464.841 357.357 463.703L357.178 463.66C352.734 471.413 346.127 477.357 338.475 480.487C330.823 483.618 322.596 483.743 315.184 480.84C307.773 477.938 301.633 472.187 297.803 464.56C293.972 456.934 292.687 447.899 294.164 438.985C293.714 438.878 293.256 438.77 292.797 438.661C288.287 437.601 284.134 435.324 280.685 432.022C277.236 428.719 274.593 424.488 272.977 419.683C271.362 414.879 270.821 409.641 271.4 404.41C271.98 399.178 273.663 394.107 276.307 389.62C278.952 385.134 282.482 381.365 286.6 378.628C290.718 375.892 295.303 374.268 299.972 373.894C304.641 373.52 309.256 374.407 313.43 376.479C317.604 378.551 321.215 381.749 323.959 385.804L453.886 416.577C459.289 415.805 464.68 416.855 469.366 419.59C472.761 415.147 477.141 411.788 482.012 409.893C486.882 407.997 492.049 407.641 496.929 408.865C501.808 410.089 506.205 412.843 509.622 416.817C513.04 420.791 515.342 425.826 516.267 431.352L551.08 439.598C555.556 437.507 560.416 436.969 565.007 438.057C569.599 439.144 573.701 441.805 576.764 445.681L665.612 466.725C671.23 465.755 676.853 467.087 681.439 470.474L699.601 474.775C704.62 471.216 710.449 469.543 716.188 470.016C716.303 469.338 716.427 468.663 716.587 467.987C717.731 463.209 720.023 458.808 723.207 455.28C726.391 451.751 730.34 449.237 734.607 448.019C738.874 446.802 743.29 446.93 747.357 448.389C751.423 449.849 754.979 452.581 757.623 456.279C760.266 459.976 761.892 464.491 762.317 469.314C762.742 474.137 761.949 479.077 760.027 483.575C758.106 488.073 755.132 491.952 751.443 494.772C747.753 497.593 743.494 499.244 739.145 499.538Z" fill="white"/>
<path d="M1303.15 429.688C1299.29 422.123 1297.83 413.447 1299.03 405.309C1300.24 397.17 1304.04 390.137 1309.7 385.543C1315.37 380.95 1322.5 379.117 1329.76 380.392C1337.01 381.668 1343.87 385.963 1349.05 392.462C1349.13 386.342 1350.81 380.582 1353.89 375.947C1356.96 371.312 1361.28 368.021 1366.26 366.509C1366.8 366.347 1367.33 366.184 1367.88 366.091C1367.5 357.373 1369.28 348.963 1373.01 341.868C1376.75 334.772 1382.28 329.289 1388.95 326.076C1395.62 322.863 1403.15 322.054 1410.62 323.747C1418.1 325.44 1425.22 329.563 1431.12 335.623C1433.9 332.49 1437.35 330.238 1441.19 329.049C1445.02 327.86 1449.13 327.766 1453.19 328.776C1457.25 329.785 1461.15 331.87 1464.57 334.862C1467.98 337.854 1470.83 341.67 1472.87 346.003C1475.69 340.341 1480.19 336.157 1485.62 334.134C1491.06 332.11 1497.11 332.367 1502.8 334.862C1504.38 329.9 1507.13 325.666 1510.77 322.609C1514.4 319.552 1518.79 317.787 1523.45 317.5C1528.12 317.214 1532.9 318.417 1537.27 320.982C1541.65 323.547 1545.46 327.379 1548.3 332.069C1550.45 326.396 1553.95 321.673 1558.44 318.411C1562.92 315.148 1568.22 313.471 1573.75 313.561C1574.53 306.332 1577.28 299.801 1581.61 294.889C1585.94 289.976 1591.63 286.93 1597.88 286.179C1601.25 278.528 1607.15 272.957 1614.36 270.596C1621.58 268.236 1629.59 269.263 1636.75 273.469C1641.27 270.154 1646.63 268.457 1652.22 268.565C1657.82 268.673 1663.43 270.582 1668.45 274.082C1669.22 267.838 1671.47 262.129 1674.96 257.57C1678.44 253.011 1683.03 249.775 1688.24 248.21L1688.43 248.151C1688.22 237.762 1691.12 227.97 1696.63 220.433C1702.14 212.897 1709.92 208.077 1718.66 206.79C1727.41 205.503 1736.57 207.827 1744.6 213.369C1752.64 218.912 1759.05 227.332 1762.76 237.207C1763.25 237.058 1763.75 236.907 1764.25 236.755C1769.17 235.257 1774.44 235.194 1779.63 236.573C1784.82 237.951 1789.77 240.73 1794.07 244.677C1798.37 248.623 1801.89 253.622 1804.34 259.253C1806.79 264.884 1808.1 270.982 1808.15 277.036C1808.2 283.09 1806.99 288.923 1804.63 294.044C1802.27 299.166 1798.82 303.427 1794.58 306.469C1790.34 309.511 1785.42 311.245 1780.25 311.527C1775.07 311.808 1769.79 310.628 1764.84 308.086L1623.13 351.021C1618.41 354.885 1612.66 356.897 1606.62 356.799C1605.92 363.237 1603.67 369.139 1600.11 373.838C1596.55 378.536 1591.82 381.845 1586.46 383.388C1581.1 384.932 1575.32 384.649 1569.77 382.572C1564.23 380.495 1559.14 376.707 1555.08 371.636L1517.11 383.14C1514.04 387.812 1509.71 391.129 1504.7 392.646C1499.69 394.163 1494.25 393.808 1489.1 391.627L1392.19 420.988C1387.38 425.176 1381.25 427.034 1374.93 426.218L1355.12 432.22C1352.37 438.69 1347.76 443.709 1342.01 446.504C1342.29 447.256 1342.56 448.011 1342.79 448.788C1344.45 454.281 1344.78 460.048 1343.77 465.439C1342.75 470.83 1340.43 475.63 1337.05 479.298C1333.68 482.965 1329.39 485.354 1324.67 486.196C1319.95 487.037 1314.98 486.297 1310.34 484.058C1305.69 481.82 1301.55 478.173 1298.37 473.529C1295.2 468.884 1293.12 463.427 1292.37 457.774C1291.62 452.12 1292.24 446.494 1294.14 441.532C1296.04 436.569 1299.16 432.467 1303.15 429.688Z" fill="white"/>
<path d="M540.013 401.448C537.639 394.322 539.407 386.882 544.981 380.541C550.554 374.2 559.546 369.4 570.247 367.052C580.948 364.704 592.614 364.973 603.028 367.806C613.443 370.64 621.88 375.841 626.739 382.422C629.671 377.448 634.879 373.166 641.671 370.145C648.464 367.123 656.52 365.504 664.772 365.502C665.662 365.502 666.551 365.502 667.425 365.562C670.845 358.353 677.412 351.932 686.34 347.067C695.269 342.201 706.181 339.096 717.774 338.123C729.366 337.149 741.148 338.349 751.711 341.579C762.274 344.809 771.171 349.932 777.339 356.335C783.003 354.467 789.267 353.482 795.629 353.459C801.99 353.437 808.271 354.377 813.967 356.205C819.662 358.032 824.613 360.696 828.421 363.982C832.229 367.268 834.788 371.084 835.892 375.124C842.777 371.202 851.519 368.9 860.693 368.593C869.867 368.286 878.932 369.992 886.409 373.433C891.081 369.775 897.202 367 904.123 365.405C911.044 363.81 918.506 363.453 925.715 364.373C932.925 365.293 939.614 367.455 945.071 370.629C950.529 373.804 954.55 377.872 956.71 382.402C962.567 378.304 970.052 375.316 978.353 373.763C986.655 372.21 995.457 372.151 1003.81 373.591C1008.32 367.886 1015.49 363.238 1024.31 360.3C1033.13 357.362 1043.16 356.283 1052.99 357.215C1061.62 351.806 1073.12 348.718 1085.15 348.576C1097.19 348.435 1108.85 351.251 1117.78 356.454C1126.17 354.867 1135.07 354.806 1143.51 356.277C1151.94 357.748 1159.58 360.694 1165.59 364.79C1169.62 359.886 1175.66 355.784 1183.04 352.926C1190.42 350.068 1198.87 348.563 1207.48 348.572H1207.81C1212.27 340.044 1221.16 332.771 1232.98 327.984C1244.8 323.196 1258.82 321.188 1272.67 322.299C1286.52 323.409 1299.35 327.571 1308.99 334.079C1318.63 340.588 1324.49 349.043 1325.57 358.016C1326.39 358.016 1327.21 358.016 1328.04 358.016C1336.18 358.009 1344.21 359.261 1351.45 361.668C1358.68 364.075 1364.92 367.567 1369.63 371.85C1374.34 376.133 1377.38 381.083 1378.51 386.282C1379.64 391.482 1378.81 396.78 1376.11 401.732C1373.4 406.684 1368.89 411.145 1362.96 414.74C1357.02 418.335 1349.84 420.96 1342.01 422.393C1334.17 423.826 1325.92 424.026 1317.94 422.977C1309.97 421.927 1302.49 419.658 1296.16 416.361H1061.49C1052.56 418.348 1042.91 418.568 1033.79 416.994C1029.78 422.076 1023.65 426.334 1016.09 429.287C1008.53 432.241 999.835 433.771 990.995 433.705C982.155 433.639 973.519 431.98 966.064 428.915C958.61 425.85 952.634 421.501 948.811 416.361H885.934C879.124 419.413 871.03 421.048 862.738 421.048C854.445 421.048 846.351 419.413 839.542 416.361H679.065C669.85 418.59 659.694 418.59 650.479 416.361H617.675C610.532 420.96 601.242 423.917 591.236 424.776C591.313 425.459 591.374 426.141 591.374 426.833C591.354 431.723 589.215 436.512 585.199 440.659C581.183 444.807 575.449 448.148 568.645 450.307C561.84 452.465 554.235 453.354 546.689 452.873C539.142 452.392 531.954 450.562 525.936 447.587C519.917 444.612 515.308 440.612 512.627 436.038C509.947 431.464 509.302 426.498 510.766 421.7C512.23 416.902 515.744 412.464 520.912 408.886C526.08 405.307 532.696 402.731 540.013 401.448Z" fill="white"/>
<path d="M270.249 425.962C268.879 419.956 269.382 413.549 271.662 407.956C273.942 402.364 277.841 397.976 282.617 395.626C287.394 393.276 292.716 393.127 297.573 395.209C302.429 397.29 306.482 401.456 308.961 406.916C310.094 402.576 312.291 398.753 315.261 395.954C318.231 393.155 321.833 391.512 325.59 391.244C325.995 391.215 326.4 391.186 326.801 391.209C328.065 384.946 330.794 379.253 334.661 374.811C338.529 370.369 343.371 367.366 348.609 366.16C353.848 364.954 359.261 365.597 364.201 368.012C369.141 370.427 373.4 374.511 376.468 379.777C378.971 377.999 381.783 376.956 384.678 376.73C387.573 376.505 390.471 377.104 393.138 378.48C395.806 379.855 398.168 381.969 400.035 384.65C401.902 387.332 403.222 390.506 403.889 393.918C406.864 390.348 410.751 388.1 414.915 387.541C419.079 386.982 423.276 388.145 426.82 390.84C428.798 387.566 431.472 385 434.559 383.415C437.645 381.829 441.027 381.284 444.347 381.835C447.667 382.387 450.8 384.016 453.414 386.549C456.027 389.081 458.023 392.424 459.19 396.22C461.691 392.532 464.977 389.74 468.694 388.146C472.41 386.552 476.415 386.216 480.275 387.176C482.097 382.161 485.173 377.961 489.071 375.168C492.969 372.375 497.492 371.129 502.002 371.607C505.712 366.711 510.822 363.703 516.295 363.193C521.768 362.683 527.194 364.709 531.471 368.86C535.225 367.235 539.275 366.894 543.176 367.877C547.076 368.86 550.675 371.127 553.573 374.428C555.212 370.112 557.793 366.415 561.038 363.737C564.283 361.059 568.07 359.501 571.99 359.23L572.137 359.22C573.821 351.797 577.574 345.302 582.761 340.833C587.947 336.364 594.249 334.196 600.6 334.696C606.952 335.196 612.962 338.333 617.615 343.576C622.269 348.818 625.279 355.846 626.137 363.469C626.507 363.443 626.884 363.416 627.261 363.389C630.968 363.119 634.673 363.928 638.065 365.749C641.458 367.569 644.438 370.348 646.756 373.851C649.074 377.354 650.662 381.48 651.386 385.881C652.111 390.283 651.951 394.831 650.92 399.145C649.889 403.46 648.017 407.413 645.461 410.673C642.906 413.934 639.741 416.406 636.233 417.883C632.725 419.36 628.976 419.798 625.301 419.16C621.626 418.522 618.133 416.828 615.114 414.218L508.272 421.813C504.288 423.798 499.905 424.298 495.687 423.25C494.07 427.717 491.452 431.55 488.129 434.315C484.806 437.08 480.91 438.668 476.883 438.898C472.855 439.128 468.856 437.991 465.338 435.616C461.819 433.241 458.922 429.723 456.973 425.46L428.346 427.495C425.37 430.32 421.751 431.978 417.976 432.246C414.2 432.515 410.449 431.38 407.225 428.996L334.163 434.189C330.057 436.39 325.434 436.718 321.148 435.115L306.213 436.176C303.147 440.333 299.038 443.158 294.517 444.214C294.58 444.794 294.635 445.375 294.663 445.966C294.853 450.14 294.074 454.296 292.413 457.966C290.753 461.636 288.278 464.674 285.268 466.736C282.258 468.798 278.831 469.803 275.376 469.637C271.921 469.471 268.574 468.141 265.713 465.797C262.852 463.453 260.591 460.188 259.185 456.37C257.779 452.553 257.284 448.335 257.756 444.193C258.227 440.051 259.647 436.149 261.855 432.927C264.062 429.706 266.97 427.293 270.249 425.962Z" fill="white"/>
<path d="M349.852 455.182C351.306 449.141 350.854 442.766 348.581 437.268C346.308 431.77 342.373 427.531 337.523 425.358C332.674 423.184 327.248 423.226 322.275 425.477C317.303 427.728 313.13 432.03 310.551 437.566C309.436 433.276 307.231 429.54 304.228 426.854C301.226 424.168 297.568 422.658 293.738 422.525C293.326 422.511 292.913 422.496 292.504 422.533C291.274 416.329 288.544 410.747 284.642 406.454C280.739 402.16 275.829 399.337 270.498 398.322C265.167 397.306 259.64 398.142 254.58 400.728C249.519 403.314 245.137 407.542 241.959 412.906C239.423 411.222 236.565 410.281 233.614 410.16C230.663 410.039 227.702 410.741 224.969 412.209C222.236 413.677 219.807 415.87 217.878 418.612C215.948 421.355 214.572 424.569 213.86 427.998C210.86 424.542 206.917 422.438 202.675 422.03C198.433 421.621 194.143 422.932 190.503 425.748C188.516 422.552 185.813 420.088 182.68 418.616C179.548 417.145 176.103 416.722 172.712 417.391C169.321 418.06 166.11 419.798 163.421 422.418C160.732 425.039 158.665 428.445 157.439 432.275C154.924 428.685 151.598 426.017 147.823 424.56C144.048 423.102 139.967 422.911 136.021 424.006C134.21 419.068 131.112 414.987 127.163 412.34C123.214 409.693 118.613 408.613 114.008 409.251C110.271 404.499 105.087 401.68 99.5106 401.367C93.9338 401.054 88.3812 403.27 83.9801 407.566C80.1675 406.078 76.0397 405.884 72.0526 407.004C68.0655 408.124 64.3743 410.515 61.3869 413.913C59.7564 409.664 57.1591 406.069 53.8746 403.513C50.5901 400.957 46.7428 399.538 42.7468 399.409L42.5974 399.404C40.9492 392.057 37.1828 385.711 31.9352 381.438C26.6876 377.165 20.281 375.228 13.7991 375.954C7.3172 376.68 1.15789 380.025 -3.63696 385.423C-8.4318 390.821 -11.5678 397.94 -12.5146 405.577C-12.8918 405.564 -13.276 405.551 -13.6603 405.538C-17.4381 405.401 -21.2244 406.341 -24.701 408.279C-28.1777 410.217 -31.2431 413.096 -33.64 416.674C-36.0369 420.253 -37.6951 424.426 -38.4754 428.843C-39.2558 433.261 -39.1354 437.794 -38.1244 442.061C-37.1135 446.328 -35.2414 450.206 -32.6656 453.367C-30.0897 456.529 -26.8853 458.883 -23.3214 460.23C-19.7575 461.578 -15.9383 461.881 -12.1845 461.113C-8.43066 460.345 -4.85192 458.529 -1.74885 455.818L107.143 459.569C111.188 461.406 115.653 461.748 119.964 460.551C121.571 464.95 124.205 468.681 127.569 471.321C130.932 473.961 134.89 475.405 138.995 475.49C143.1 475.575 147.19 474.298 150.8 471.803C154.411 469.307 157.398 465.693 159.426 461.369L188.603 462.374C191.611 465.087 195.286 466.611 199.134 466.744C202.982 466.876 206.819 465.61 210.129 463.116L284.593 465.681C288.759 467.729 293.471 467.892 297.858 466.138L313.079 466.662C316.166 470.7 320.331 473.371 324.932 474.263C324.862 474.844 324.8 475.425 324.766 476.016C324.534 480.187 325.289 484.306 326.948 487.909C328.606 491.511 331.102 494.453 334.153 496.403C337.204 498.352 340.688 499.232 344.214 498.943C347.739 498.654 351.165 497.207 354.105 494.765C357.044 492.324 359.381 488.986 360.851 485.127C362.321 481.268 362.865 477.042 362.423 472.926C361.981 468.809 360.57 464.967 358.348 461.832C356.127 458.697 353.185 456.394 349.852 455.182Z" fill="white"/>
<path d="M1677.67 372.478C1671.77 366.374 1667.83 358.506 1666.6 350.371C1665.38 342.235 1666.95 334.398 1671.02 328.348C1675.09 322.297 1681.38 318.455 1688.68 317.552C1695.99 316.648 1703.81 318.745 1710.66 323.445C1708.95 317.57 1708.87 311.568 1710.46 306.236C1712.04 300.904 1715.2 296.494 1719.52 293.59C1719.99 293.277 1720.45 292.964 1720.95 292.714C1718.03 284.492 1717.27 275.929 1718.77 268.05C1720.26 260.171 1723.95 253.309 1729.39 248.284C1734.82 243.258 1741.78 240.283 1749.42 239.713C1757.07 239.142 1765.08 241.001 1772.5 245.068C1774.24 241.256 1776.88 238.094 1780.2 235.834C1783.52 233.574 1787.42 232.281 1791.6 232.057C1795.78 231.834 1800.11 232.686 1804.26 234.547C1808.4 236.407 1812.24 239.224 1815.46 242.769C1816.5 236.528 1819.57 231.211 1824.18 227.685C1828.78 224.159 1834.65 222.632 1840.81 223.353C1840.87 218.147 1842.26 213.292 1844.84 209.305C1847.43 205.317 1851.1 202.345 1855.48 200.705C1859.86 199.065 1864.78 198.817 1869.71 199.989C1874.65 201.161 1879.41 203.708 1883.51 207.36C1883.9 201.308 1885.86 195.766 1889.2 191.334C1892.53 186.902 1897.1 183.748 1902.42 182.214C1901.05 175.072 1901.77 168.022 1904.47 162.058C1907.17 156.093 1911.72 151.514 1917.47 148.966C1918.46 140.663 1922.46 133.611 1928.67 129.24C1934.89 124.87 1942.84 123.509 1950.92 125.434C1954.27 120.939 1958.9 117.748 1964.28 116.213C1969.66 114.679 1975.59 114.86 1981.41 116.737C1980.32 110.542 1980.8 104.424 1982.8 99.0448C1984.8 93.6651 1988.24 89.2265 1992.76 86.2067L1992.92 86.0934C1989.68 76.2197 1989.59 66.0095 1992.65 57.19C1995.71 48.3706 2001.74 41.4832 2009.72 37.6929C2017.7 33.9026 2027.15 33.4421 2036.45 36.3892C2045.76 39.3364 2054.36 45.5103 2060.79 53.8667C2061.22 53.5808 2061.65 53.2895 2062.09 52.9982C2066.35 50.1267 2071.37 48.5231 2076.73 48.3221C2082.1 48.121 2087.65 49.3285 2092.92 51.8429C2098.18 54.3574 2103.02 58.1055 2107.01 62.7723C2111 67.4392 2114.03 72.8886 2115.85 78.6627C2117.67 84.4368 2118.23 90.3671 2117.47 95.9554C2116.71 101.544 2114.66 106.627 2111.5 110.778C2108.33 114.929 2104.14 118.026 2099.27 119.81C2094.41 121.594 2089.01 122.013 2083.53 121.031L1960.6 203.575C1957.22 208.651 1952.31 212.258 1946.5 213.934C1947.73 220.292 1947.3 226.595 1945.27 232.131C1943.24 237.667 1939.69 242.215 1935.01 245.26C1930.34 248.305 1924.73 249.727 1918.82 249.365C1912.91 249.002 1906.94 246.869 1901.57 243.208L1868.64 265.325C1867.06 270.692 1863.89 275.132 1859.55 278.049C1855.2 280.966 1849.9 282.22 1844.33 281.643L1760.27 338.09C1756.9 343.501 1751.58 347.073 1745.29 348.145L1728.11 359.683C1727.37 366.675 1724.44 372.822 1719.76 377.178C1720.24 377.816 1720.72 378.459 1721.18 379.133C1724.36 383.901 1726.37 389.317 1726.98 394.769C1727.59 400.221 1726.77 405.492 1724.62 409.987C1722.46 414.482 1719.06 418.022 1714.79 420.209C1710.53 422.395 1705.56 423.141 1700.47 422.361C1695.37 421.581 1690.34 419.307 1685.94 415.795C1681.55 412.284 1677.96 407.675 1675.59 402.488C1673.22 397.3 1672.16 391.742 1672.53 386.44C1672.9 381.137 1674.68 376.301 1677.67 372.478Z" fill="white"/>
<path d="M865.424 502.466C865.453 508.778 863.012 514.811 858.565 519.419C854.117 524.027 847.973 526.889 841.299 527.462C834.624 528.035 827.885 526.278 822.361 522.526C816.837 518.774 812.912 513.288 811.333 507.11C808.683 510.913 804.839 513.835 800.312 515.488C795.785 517.141 790.788 517.448 785.984 516.367C785.467 516.25 784.949 516.133 784.451 515.969C781.093 521.589 776.052 526.134 769.932 529.06C763.812 531.986 756.87 533.169 749.938 532.467C743.006 531.766 736.376 529.21 730.84 525.105C725.305 521 721.098 515.519 718.723 509.318C715.072 510.148 711.239 510.156 707.532 509.34C703.825 508.525 700.347 506.909 697.379 504.623C694.411 502.337 692.034 499.445 690.441 496.179C688.848 492.912 688.083 489.363 688.207 485.817C683.455 488.216 677.93 489.008 672.532 488.063C667.134 487.118 662.181 484.492 658.482 480.614C655.068 483.082 650.979 484.614 646.648 485.05C642.316 485.485 637.906 484.806 633.884 483.086C629.861 481.366 626.378 478.668 623.804 475.279C621.23 471.89 619.661 467.937 619.264 463.84C615.077 466.522 610.153 468.056 605.027 468.275C599.9 468.493 594.765 467.389 590.178 465.08C586.471 469.292 581.415 472.266 575.721 473.582C570.028 474.898 563.985 474.491 558.443 472.417C552.393 475.839 545.113 476.931 538.082 475.471C531.051 474.012 524.795 470.11 520.584 464.558C515.402 464.794 510.208 463.678 505.577 461.332C500.946 458.987 497.058 455.504 494.341 451.268C491.061 454.868 486.771 457.53 481.931 458.968C477.092 460.406 471.887 460.564 466.876 459.427L466.689 459.385C462.474 465.98 455.919 470.938 448.131 473.418C440.343 475.899 431.801 475.751 423.95 472.998C416.098 470.246 409.42 465.059 405.043 458.314C400.667 451.57 398.862 443.682 399.933 435.984C399.46 435.878 398.978 435.769 398.496 435.66C393.755 434.599 389.321 432.491 385.566 429.515C381.811 426.539 378.845 422.781 376.916 418.557C374.988 414.333 374.154 409.766 374.484 405.24C374.814 400.714 376.299 396.361 378.814 392.546C381.329 388.732 384.8 385.567 388.936 383.319C393.072 381.07 397.753 379.803 402.584 379.624C407.415 379.445 412.257 380.359 416.701 382.289C421.146 384.219 425.064 387.11 428.126 390.717L564.722 421.502C570.295 421 575.951 422.08 580.963 424.603C584.259 420.849 588.635 418.067 593.597 416.573C598.56 415.079 603.91 414.931 609.043 416.146C614.176 417.361 618.888 419.891 622.645 423.449C626.403 427.008 629.056 431.453 630.305 436.283L666.905 444.531C671.447 442.855 676.469 442.54 681.296 443.627C686.122 444.715 690.523 447.154 693.908 450.617L787.316 471.669C793.103 471.001 799.014 472.334 803.955 475.419L823.049 479.722C828.079 476.787 834.048 475.515 840.036 476.105C840.12 475.52 840.214 474.938 840.346 474.355C841.285 470.24 843.439 466.489 846.563 463.523C849.688 460.558 853.66 458.497 858.03 457.572C862.4 456.648 866.995 456.897 871.297 458.292C875.598 459.686 879.434 462.171 882.373 465.465C885.312 468.759 887.236 472.732 887.928 476.935C888.62 481.138 888.053 485.404 886.291 489.251C884.528 493.099 881.64 496.375 877.953 498.71C874.266 501.045 869.926 502.346 865.424 502.466Z" fill="white"/>
<path d="M566 402H1332.5L1756 292.5L2012 120L2080.5 102V576.5H921.5L707.5 472.5L627 447L566 402Z" fill="white"/>
<path d="M-104.433 464.285C-105.853 471.398 -105.255 478.899 -102.752 485.364C-100.25 491.828 -96.0169 496.806 -90.8581 499.351C-85.6993 501.896 -79.9738 501.832 -74.7689 499.17C-69.564 496.508 -65.2423 491.434 -62.6248 484.912C-61.3672 489.957 -58.9698 494.348 -55.7504 497.501C-52.5311 500.654 -48.6419 502.421 -44.5985 502.568C-44.1627 502.584 -43.7269 502.599 -43.2964 502.555C-41.8804 509.852 -38.8941 516.414 -34.6946 521.457C-30.495 526.499 -25.2599 529.808 -19.6149 530.989C-13.9699 532.17 -8.15385 531.172 -2.86196 528.115C2.42994 525.058 6.9738 520.071 10.2265 513.75C12.9343 515.725 15.9683 516.824 19.0845 516.959C22.2007 517.093 25.3121 516.26 28.1685 514.525C31.0249 512.79 33.5466 510.203 35.5308 506.97C37.515 503.738 38.9064 499.952 39.5929 495.915C42.8249 499.974 47.0254 502.439 51.5095 502.908C55.9935 503.378 60.4966 501.824 64.2842 498.501C66.4415 502.256 69.341 505.149 72.6746 506.872C76.0082 508.595 79.6512 509.084 83.217 508.288C86.7829 507.491 90.1381 505.438 92.9263 502.346C95.7146 499.255 97.8317 495.241 99.0527 490.731C101.775 494.949 105.335 498.08 109.346 499.785C113.358 501.49 117.669 501.705 121.812 500.405C123.816 506.212 127.163 511.005 131.38 514.11C135.597 517.215 140.473 518.474 145.321 517.711C149.355 523.293 154.878 526.596 160.769 526.95C166.66 527.303 172.478 524.681 177.041 519.614C181.093 521.355 185.453 521.573 189.639 520.244C193.825 518.915 197.675 516.091 200.764 512.085C202.565 517.08 205.374 521.304 208.888 524.303C212.402 527.302 216.489 528.962 220.709 529.104L220.867 529.109C222.745 537.75 226.84 545.209 232.458 550.223C238.077 555.238 244.874 557.5 251.701 556.629C258.527 555.757 264.964 551.804 269.922 545.439C274.88 539.074 278.055 530.687 278.909 521.697C279.307 521.712 279.713 521.726 280.119 521.741C284.108 521.892 288.086 520.775 291.718 518.485C295.351 516.196 298.531 512.799 300.993 508.582C303.455 504.364 319.235 511.159 327 506.5C332 503.5 340.563 496.75 343 492C345.409 487.305 332.571 473.996 332 471.5C330.852 466.481 302.049 469.117 299.27 465.403C296.492 461.689 293.066 458.928 289.28 457.351C285.493 455.774 281.457 455.428 277.51 456.342C273.563 457.256 269.821 459.402 266.598 462.602L151.614 458.477C147.311 456.325 142.593 455.935 138.065 457.355C136.286 452.182 133.436 447.799 129.837 444.701C126.237 441.603 122.033 439.914 117.699 439.825C113.365 439.735 109.074 441.25 105.311 444.196C101.548 447.142 98.4637 451.403 96.4057 456.497L65.5972 455.392C62.3707 452.208 58.4637 450.424 54.4005 450.278C50.3374 450.132 46.3125 451.632 42.8663 454.577L-35.7637 451.756C-40.1987 449.357 -45.1747 449.178 -49.7703 451.254L-65.8435 450.677C-69.1777 445.934 -73.6233 442.802 -78.4952 441.764C-78.433 441.08 -78.3784 440.396 -78.3535 439.701C-78.1871 434.791 -79.0625 429.945 -80.881 425.711C-82.6995 421.476 -85.3886 418.02 -88.645 415.734C-91.9014 413.447 -95.5955 412.421 -99.3104 412.771C-103.025 413.121 -106.613 414.833 -109.669 417.714C-112.725 420.595 -115.128 424.53 -116.606 429.075C-118.084 433.62 -118.579 438.595 -118.034 443.438C-117.49 448.281 -115.928 452.799 -113.525 456.482C-111.121 460.166 -107.972 462.868 -104.433 464.285Z" fill="white"/>
</svg>
