<svg width="457" height="457" viewBox="0 0 457 457" fill="none" xmlns="http://www.w3.org/2000/svg">
<path d="M91.7746 98.4244C90.9715 98.1565 90.1014 97.9053 89.3652 97.6876" stroke="#1D325F" stroke-miterlimit="10"/>
<path d="M84.4796 96.4317C29.6657 84.2919 -14.3394 137.573 5.83938 182.18C27.5909 230.488 84.3792 187.924 60.9544 174.645C49.2421 167.947 26.8045 181.243 19.1246 201.57C9.42002 227.323 5.35415 247.082 11.0932 276.787C22.655 336.682 79.6942 372.23 131.563 336.548C157.682 318.598 183.566 288.91 222.987 286.549" stroke="#9192FF" stroke-miterlimit="10" stroke-dasharray="3.02 3.02"/>
<path d="M225.563 286.431H228.073" stroke="#9192FF" stroke-miterlimit="10"/>
<path d="M110.054 99.6527C110.057 97.1306 109.778 94.6159 109.221 92.1551C109.034 91.3469 109.112 90.5002 109.445 89.7394C109.777 88.9785 110.346 88.3437 111.069 87.928L114.477 85.9502C115.371 85.4364 116.023 84.5915 116.292 83.6005C116.56 82.6095 116.422 81.5532 115.908 80.6632L112.304 74.4583C112.048 74.0167 111.707 73.6296 111.301 73.3191C110.894 73.0086 110.43 72.7808 109.934 72.6487C109.439 72.5167 108.922 72.4829 108.414 72.5494C107.905 72.6159 107.415 72.7814 106.971 73.0363L103.55 75.0012C102.826 75.4136 101.988 75.5847 101.159 75.4893C100.33 75.3939 99.5542 75.0371 98.9445 74.4712C95.2174 71.0497 90.7751 68.4895 85.9358 66.9736C85.1388 66.7336 84.4399 66.2466 83.9414 65.5838C83.4429 64.9209 83.1708 64.117 83.1649 63.2894V59.4114C83.1649 58.3829 82.7537 57.3965 82.0219 56.6692C81.29 55.9419 80.2973 55.5333 79.2623 55.5333H72.0165C70.9814 55.5333 69.9888 55.9419 69.2569 56.6692C68.525 57.3965 68.1138 58.3829 68.1138 59.4114V63.2894C68.108 64.117 67.8359 64.9209 67.3374 65.5838C66.8388 66.2466 66.14 66.7336 65.343 66.9736C60.5023 68.4863 56.0594 71.047 52.3343 74.4712C51.7245 75.0371 50.9483 75.3939 50.1195 75.4893C49.2907 75.5847 48.453 75.4136 47.7292 75.0012L44.2689 73.0234C43.3732 72.5126 42.3103 72.3755 41.313 72.642C40.3157 72.9086 39.4654 73.557 38.9483 74.4453L35.3449 80.6502C34.8258 81.5399 34.6835 82.5981 34.9494 83.592C35.2153 84.586 35.8676 85.4342 36.7629 85.9502L40.1842 87.9151C40.9065 88.3308 41.4757 88.9656 41.8082 89.7264C42.1407 90.4872 42.2189 91.334 42.0314 92.1422C40.9215 97.0754 40.9215 102.191 42.0314 107.124C42.2189 107.933 42.1407 108.779 41.8082 109.54C41.4757 110.301 40.9065 110.936 40.1842 111.352L36.7629 113.316C35.8711 113.832 35.2213 114.678 34.9556 115.669C34.6899 116.66 34.8299 117.715 35.3449 118.604L38.9483 124.808C39.4654 125.697 40.3157 126.345 41.313 126.612C42.3103 126.878 43.3732 126.741 44.2689 126.23L47.7032 124.265C48.427 123.853 49.2647 123.682 50.0935 123.777C50.9223 123.873 51.6985 124.23 52.3083 124.795C56.0333 128.22 60.4762 130.78 65.317 132.293C66.114 132.533 66.8128 133.02 67.3114 133.683C67.8099 134.346 68.082 135.15 68.0878 135.977V139.855C68.0878 140.884 68.499 141.87 69.2309 142.597C69.9628 143.325 70.9554 143.733 71.9904 143.733H79.2103C80.2453 143.733 81.238 143.325 81.9698 142.597C82.7017 141.87 83.1129 140.884 83.1129 139.855V135.977C83.1187 135.15 83.3908 134.346 83.8894 133.683C84.3879 133.02 85.0867 132.533 85.8837 132.293C90.7231 130.777 95.1653 128.217 98.8924 124.795C99.5022 124.23 100.278 123.873 101.107 123.777C101.936 123.682 102.774 123.853 103.498 124.265L106.919 126.23C107.363 126.485 107.853 126.651 108.362 126.717C108.87 126.784 109.387 126.75 109.882 126.618C110.378 126.486 110.842 126.258 111.249 125.948C111.655 125.637 111.996 125.25 112.252 124.808L115.856 118.604C116.37 117.713 116.508 116.657 116.24 115.666C115.971 114.675 115.319 113.83 114.425 113.316L111.017 111.352C110.294 110.936 109.725 110.301 109.393 109.54C109.06 108.779 108.982 107.933 109.169 107.124C109.742 104.674 110.038 102.168 110.054 99.6527ZM75.6199 117.156C72.1331 117.156 68.7246 116.128 65.8256 114.203C62.9266 112.278 60.6673 109.541 59.3336 106.34C57.9999 103.138 57.6515 99.616 58.3327 96.2178C59.0139 92.8197 60.694 89.6987 63.1605 87.2496C65.6269 84.8005 68.7689 83.1333 72.189 82.4589C75.6092 81.7845 79.1537 82.1332 82.3744 83.4609C85.595 84.7886 88.347 87.0357 90.2823 89.9179C92.2176 92.8001 93.2492 96.1878 93.2467 99.6527C93.2467 101.952 92.7906 104.229 91.9046 106.354C91.0187 108.478 89.7201 110.408 88.0831 112.034C86.4461 113.659 84.5029 114.948 82.3644 115.827C80.2259 116.706 77.934 117.157 75.6199 117.156Z" fill="white"/>
<path d="M163.417 116.931C163.418 114.85 163.189 112.775 162.734 110.743C162.583 110.079 162.649 109.383 162.921 108.758C163.194 108.132 163.66 107.609 164.252 107.263L167.037 105.647C167.405 105.436 167.727 105.156 167.986 104.822C168.244 104.489 168.434 104.107 168.544 103.701C168.654 103.294 168.682 102.87 168.627 102.453C168.571 102.035 168.433 101.633 168.221 101.268L165.283 96.2131C165.071 95.8484 164.788 95.5287 164.452 95.2723C164.115 95.016 163.731 94.8279 163.321 94.7188C162.911 94.6098 162.483 94.582 162.062 94.6369C161.641 94.6919 161.236 94.8285 160.868 95.039L158.083 96.6689C157.482 97.0078 156.788 97.1476 156.102 97.0681C155.416 96.9886 154.773 96.6939 154.267 96.2269C151.169 93.3991 147.478 91.2861 143.46 90.039C142.801 89.8386 142.224 89.4342 141.813 88.8849C141.402 88.3357 141.179 87.6705 141.176 86.9866V83.7822C141.176 82.9323 140.836 82.1173 140.23 81.5163C139.624 80.9154 138.802 80.5778 137.945 80.5778H131.943C131.086 80.5778 130.264 80.9154 129.658 81.5163C129.053 82.1173 128.712 82.9323 128.712 83.7822V86.959C128.71 87.6429 128.487 88.3081 128.076 88.8573C127.665 89.4066 127.088 89.811 126.428 90.0114C122.409 91.2625 118.718 93.3804 115.621 96.2131C115.116 96.6801 114.473 96.9748 113.787 97.0543C113.1 97.1338 112.406 96.9939 111.806 96.655L109.02 95.0252C108.653 94.8147 108.247 94.678 107.826 94.6231C107.405 94.5682 106.978 94.596 106.568 94.705C106.158 94.8141 105.773 95.0021 105.437 95.2585C105.1 95.5149 104.818 95.8346 104.606 96.1993L101.625 101.324C101.413 101.688 101.275 102.091 101.22 102.508C101.165 102.925 101.193 103.349 101.303 103.756C101.413 104.163 101.602 104.544 101.861 104.878C102.119 105.212 102.441 105.492 102.809 105.702L105.594 107.318C106.189 107.665 106.657 108.191 106.93 108.819C107.203 109.447 107.267 110.146 107.112 110.812C106.194 114.906 106.194 119.15 107.112 123.243C107.267 123.91 107.203 124.609 106.93 125.237C106.657 125.865 106.189 126.391 105.594 126.738L102.809 128.354C102.441 128.564 102.119 128.844 101.861 129.178C101.602 129.512 101.413 129.893 101.303 130.3C101.193 130.706 101.165 131.131 101.22 131.548C101.275 131.965 101.413 132.368 101.625 132.732L104.606 137.857C105.033 138.571 105.724 139.093 106.532 139.312C107.34 139.531 108.202 139.43 108.937 139.031L111.722 137.401C112.323 137.062 113.017 136.922 113.703 137.001C114.389 137.081 115.032 137.376 115.538 137.843C118.636 140.67 122.326 142.784 126.345 144.031C127.004 144.231 127.581 144.635 127.992 145.185C128.403 145.734 128.626 146.399 128.629 147.083V150.329C128.629 151.179 128.969 151.994 129.575 152.595C130.181 153.196 131.003 153.533 131.86 153.533H137.904C138.76 153.533 139.582 153.196 140.188 152.595C140.794 151.994 141.134 151.179 141.134 150.329V147.014C141.137 146.33 141.36 145.665 141.771 145.116C142.182 144.566 142.759 144.162 143.418 143.962C147.437 142.714 151.127 140.601 154.225 137.774C154.731 137.307 155.374 137.012 156.06 136.932C156.746 136.853 157.44 136.993 158.041 137.332L160.826 138.962C161.194 139.172 161.6 139.309 162.021 139.364C162.441 139.419 162.869 139.391 163.279 139.282C163.689 139.173 164.073 138.985 164.41 138.728C164.747 138.472 165.029 138.152 165.241 137.787L168.221 132.663C168.433 132.299 168.571 131.896 168.627 131.479C168.682 131.061 168.654 130.637 168.544 130.231C168.434 129.824 168.244 129.443 167.986 129.109C167.727 128.775 167.405 128.495 167.037 128.285L164.252 126.669C163.658 126.322 163.19 125.796 162.917 125.168C162.644 124.539 162.58 123.841 162.734 123.174C163.193 121.125 163.422 119.031 163.417 116.931ZM134.923 131.448C132.042 131.448 129.225 130.601 126.828 129.014C124.432 127.428 122.563 125.172 121.458 122.533C120.353 119.894 120.061 116.989 120.619 114.185C121.177 111.382 122.56 108.805 124.594 106.78C126.627 104.756 129.22 103.374 132.045 102.81C134.869 102.246 137.799 102.524 140.465 103.61C143.13 104.696 145.411 106.541 147.02 108.912C148.629 111.283 149.493 114.073 149.504 116.931C149.512 118.835 149.14 120.721 148.41 122.482C147.681 124.243 146.608 125.844 145.253 127.193C143.899 128.541 142.289 129.611 140.516 130.342C138.743 131.072 136.843 131.448 134.923 131.448Z" fill="url(#paint0_linear)"/>
<path d="M111.585 107.65C112.271 108.069 113.008 108.471 113.777 108.873" stroke="#1D325F" stroke-miterlimit="10"/>
<path d="M118.345 111.016C133.688 117.496 159.338 122.218 172.557 111.016C188 97.905 188.218 69.1547 176.104 52.8456C171.519 46.6668 162.3 41.8612 156.544 46.8845C151.525 51.2213 153.365 59.9285 158.217 64.5667C167.37 73.4245 182.964 72.0013 193.622 65.0355C228.14 42.4974 256.769 16.2756 295.068 7.78609C342.135 -2.62899 380.987 20.7296 366.664 54.2521C360.222 69.3221 353.463 84.6601 351.605 100.953C349.748 117.245 356.625 136.417 372.186 141.357C382.125 144.505 392.799 141.19 402.922 138.711C413.045 136.233 424.674 134.894 433.04 141.123C441.406 147.352 444.485 160.781 439.549 170.308C427.836 192.813 369.793 199.109 363.552 227.055" stroke="#1D325F" stroke-miterlimit="10" stroke-dasharray="3.02 3.02"/>
<path d="M363.084 229.5C362.996 230.335 362.952 231.173 362.95 232.012" stroke="#1D325F" stroke-miterlimit="10"/>
<path d="M391.26 40.7729H311.733C306.992 40.7729 303.149 44.6188 303.149 49.3629V162.589C303.149 167.333 306.992 171.179 311.733 171.179H391.26C396 171.179 399.843 167.333 399.843 162.589V49.3629C399.843 44.6188 396 40.7729 391.26 40.7729Z" fill="white"/>
<path d="M311.733 40.7727H391.26C392.391 40.7661 393.513 40.9834 394.56 41.4121C395.607 41.8408 396.559 42.4725 397.362 43.2708C398.164 44.0691 398.801 45.0183 399.235 46.0638C399.67 47.1093 399.894 48.2304 399.894 49.3627V162.589C399.894 164.867 398.989 167.052 397.38 168.663C395.77 170.274 393.587 171.179 391.31 171.179" stroke="#00030E" stroke-width="0.25" stroke-miterlimit="10" stroke-linecap="round"/>
<path d="M374.93 75.7689H318.426V80.4071H374.93V75.7689Z" fill="#CFDEFF"/>
<path d="M374.791 56.0721H318.287V60.7104H374.791V56.0721Z" fill="#CFDEFF"/>
<path d="M374.93 93.6353H318.426V98.2735H374.93V93.6353Z" fill="#CFDEFF"/>
<path d="M374.93 111.485H318.426V116.123H374.93V111.485Z" fill="#CFDEFF"/>
<path d="M374.93 129.351H318.426V133.99H374.93V129.351Z" fill="#CFDEFF"/>
<path d="M374.93 147.201H318.426V151.839H374.93V147.201Z" fill="#CFDEFF"/>
<path d="M388.249 73.6088H382.543C381.647 73.6088 380.92 74.336 380.92 75.233V80.9429C380.92 81.8399 381.647 82.5671 382.543 82.5671H388.249C389.145 82.5671 389.872 81.8399 389.872 80.9429V75.233C389.872 74.336 389.145 73.6088 388.249 73.6088Z" stroke="#00030E" stroke-width="0.25" stroke-miterlimit="10" stroke-linecap="round"/>
<path d="M388.11 53.912H382.404C381.508 53.912 380.781 54.6392 380.781 55.5362V61.2461C380.781 62.1431 381.508 62.8703 382.404 62.8703H388.11C389.006 62.8703 389.733 62.1431 389.733 61.2461V55.5362C389.733 54.6392 389.006 53.912 388.11 53.912Z" stroke="#00030E" stroke-width="0.25" stroke-miterlimit="10" stroke-linecap="round"/>
<path d="M388.248 91.4751H382.542C381.646 91.4751 380.919 92.2023 380.919 93.0993V98.8092C380.919 99.7062 381.646 100.433 382.542 100.433H388.248C389.144 100.433 389.871 99.7062 389.871 98.8092V93.0993C389.871 92.2023 389.144 91.4751 388.248 91.4751Z" stroke="#00030E" stroke-width="0.25" stroke-miterlimit="10" stroke-linecap="round"/>
<path d="M388.248 109.325H382.542C381.646 109.325 380.919 110.052 380.919 110.949V116.659C380.919 117.556 381.646 118.283 382.542 118.283H388.248C389.144 118.283 389.871 117.556 389.871 116.659V110.949C389.871 110.052 389.144 109.325 388.248 109.325Z" stroke="#00030E" stroke-width="0.25" stroke-miterlimit="10" stroke-linecap="round"/>
<path d="M388.248 127.191H382.542C381.646 127.191 380.919 127.918 380.919 128.816V134.525C380.919 135.422 381.646 136.15 382.542 136.15H388.248C389.144 136.15 389.871 135.422 389.871 134.525V128.816C389.871 127.918 389.144 127.191 388.248 127.191Z" stroke="#00030E" stroke-width="0.25" stroke-miterlimit="10" stroke-linecap="round"/>
<path d="M388.248 145.041H382.542C381.646 145.041 380.919 145.768 380.919 146.665V152.375C380.919 153.272 381.646 153.999 382.542 153.999H388.248C389.144 153.999 389.871 153.272 389.871 152.375V146.665C389.871 145.768 389.144 145.041 388.248 145.041Z" stroke="#00030E" stroke-width="0.25" stroke-miterlimit="10" stroke-linecap="round"/>
<path d="M382.543 80.8928L382.593 75.2332L388.249 75.2834L388.198 80.8928H382.543Z" fill="#62B7D8"/>
<path d="M382.404 61.1958L382.454 55.5361L388.11 55.5864L388.06 61.1958H382.404Z" fill="#62B7D8"/>
<path d="M382.542 98.7593L382.593 93.0829L388.248 93.1499L388.198 98.7593H382.542Z" fill="#62B7D8"/>
<path opacity="0.9" d="M259.773 351.248C271.057 339.941 271.057 321.607 259.773 310.299C248.489 298.991 230.194 298.991 218.91 310.299C207.626 321.607 207.626 339.941 218.91 351.248C230.194 362.556 248.489 362.556 259.773 351.248Z" fill="#41FFE7"/>
<path d="M404.261 235.913H258.526C245.921 235.913 235.703 246.139 235.703 258.753V365.465C235.703 378.079 245.921 388.305 258.526 388.305H404.261C416.865 388.305 427.083 378.079 427.083 365.465V258.753C427.083 246.139 416.865 235.913 404.261 235.913Z" fill="white"/>
<path d="M427.083 258.77V365.465C427.083 371.523 424.679 377.332 420.399 381.615C416.119 385.899 410.314 388.305 404.261 388.305H258.542C252.488 388.305 246.681 385.899 242.398 381.616C238.116 377.334 235.708 371.524 235.703 365.465" stroke="#00030E" stroke-width="0.25" stroke-miterlimit="10"/>
<path d="M235.703 258.77C235.703 255.768 236.294 252.796 237.442 250.023C238.589 247.25 240.272 244.73 242.393 242.608C244.513 240.485 247.031 238.802 249.802 237.653C252.573 236.505 255.543 235.913 258.542 235.913H404.261C410.315 235.918 416.12 238.328 420.4 242.614C424.679 246.9 427.083 252.711 427.083 258.77H235.703Z" fill="#62B7D8"/>
<path d="M284.008 275.765H265.753C264.201 275.765 262.942 277.025 262.942 278.578V289.663C262.942 291.217 264.201 292.476 265.753 292.476H284.008C285.56 292.476 286.819 291.217 286.819 289.663V278.578C286.819 277.025 285.56 275.765 284.008 275.765Z" fill="#CFDEFF"/>
<path d="M312.269 275.765H294.014C292.462 275.765 291.203 277.025 291.203 278.578V289.663C291.203 291.217 292.462 292.476 294.014 292.476H312.269C313.821 292.476 315.08 291.217 315.08 289.663V278.578C315.08 277.025 313.821 275.765 312.269 275.765Z" fill="#CFDEFF"/>
<path d="M340.512 275.765H322.257C320.705 275.765 319.446 277.025 319.446 278.578V289.663C319.446 291.217 320.705 292.476 322.257 292.476H340.512C342.064 292.476 343.323 291.217 343.323 289.663V278.578C343.323 277.025 342.064 275.765 340.512 275.765Z" fill="#CFDEFF"/>
<path d="M368.773 275.765H350.518C348.966 275.765 347.707 277.025 347.707 278.578V289.663C347.707 291.217 348.966 292.476 350.518 292.476H368.773C370.325 292.476 371.584 291.217 371.584 289.663V278.578C371.584 277.025 370.325 275.765 368.773 275.765Z" fill="#CFDEFF"/>
<path d="M397.032 275.765H378.778C377.225 275.765 375.967 277.025 375.967 278.578V289.663C375.967 291.217 377.225 292.476 378.778 292.476H397.032C398.585 292.476 399.843 291.217 399.843 289.663V278.578C399.843 277.025 398.585 275.765 397.032 275.765Z" fill="#CFDEFF"/>
<path d="M284.008 299.157H265.753C264.201 299.157 262.942 300.417 262.942 301.97V313.055C262.942 314.609 264.201 315.868 265.753 315.868H284.008C285.56 315.868 286.819 314.609 286.819 313.055V301.97C286.819 300.417 285.56 299.157 284.008 299.157Z" fill="#CFDEFF"/>
<path d="M312.269 299.157H294.014C292.462 299.157 291.203 300.417 291.203 301.97V313.055C291.203 314.609 292.462 315.868 294.014 315.868H312.269C313.821 315.868 315.08 314.609 315.08 313.055V301.97C315.08 300.417 313.821 299.157 312.269 299.157Z" fill="#9192FF"/>
<path d="M340.512 299.157H322.257C320.705 299.157 319.446 300.417 319.446 301.97V313.055C319.446 314.609 320.705 315.868 322.257 315.868H340.512C342.064 315.868 343.323 314.609 343.323 313.055V301.97C343.323 300.417 342.064 299.157 340.512 299.157Z" fill="#CFDEFF"/>
<path d="M368.773 299.157H350.518C348.966 299.157 347.707 300.417 347.707 301.97V313.055C347.707 314.609 348.966 315.868 350.518 315.868H368.773C370.325 315.868 371.584 314.609 371.584 313.055V301.97C371.584 300.417 370.325 299.157 368.773 299.157Z" fill="#CFDEFF"/>
<path d="M397.032 299.157H378.778C377.225 299.157 375.967 300.417 375.967 301.97V313.055C375.967 314.609 377.225 315.868 378.778 315.868H397.032C398.585 315.868 399.843 314.609 399.843 313.055V301.97C399.843 300.417 398.585 299.157 397.032 299.157Z" fill="#CFDEFF"/>
<path d="M284.008 322.566H265.753C264.201 322.566 262.942 323.826 262.942 325.379V336.464C262.942 338.018 264.201 339.277 265.753 339.277H284.008C285.56 339.277 286.819 338.018 286.819 336.464V325.379C286.819 323.826 285.56 322.566 284.008 322.566Z" fill="#CFDEFF"/>
<path d="M312.269 322.566H294.014C292.462 322.566 291.203 323.826 291.203 325.379V336.464C291.203 338.018 292.462 339.277 294.014 339.277H312.269C313.821 339.277 315.08 338.018 315.08 336.464V325.379C315.08 323.826 313.821 322.566 312.269 322.566Z" fill="#CFDEFF"/>
<path d="M340.512 322.566H322.257C320.705 322.566 319.446 323.826 319.446 325.379V336.464C319.446 338.018 320.705 339.277 322.257 339.277H340.512C342.064 339.277 343.323 338.018 343.323 336.464V325.379C343.323 323.826 342.064 322.566 340.512 322.566Z" fill="#CFDEFF"/>
<path d="M368.773 322.566H350.518C348.966 322.566 347.707 323.826 347.707 325.379V336.464C347.707 338.018 348.966 339.277 350.518 339.277H368.773C370.325 339.277 371.584 338.018 371.584 336.464V325.379C371.584 323.826 370.325 322.566 368.773 322.566Z" fill="#9192FF"/>
<path d="M397.032 322.566H378.778C377.225 322.566 375.967 323.826 375.967 325.379V336.464C375.967 338.018 377.225 339.277 378.778 339.277H397.032C398.585 339.277 399.843 338.018 399.843 336.464V325.379C399.843 323.826 398.585 322.566 397.032 322.566Z" fill="#CFDEFF"/>
<path d="M284.008 345.958H265.753C264.201 345.958 262.942 347.218 262.942 348.771V359.856C262.942 361.41 264.201 362.669 265.753 362.669H284.008C285.56 362.669 286.819 361.41 286.819 359.856V348.771C286.819 347.218 285.56 345.958 284.008 345.958Z" fill="#CFDEFF"/>
<path d="M312.269 345.958H294.014C292.462 345.958 291.203 347.218 291.203 348.771V359.856C291.203 361.41 292.462 362.669 294.014 362.669H312.269C313.821 362.669 315.08 361.41 315.08 359.856V348.771C315.08 347.218 313.821 345.958 312.269 345.958Z" fill="#CFDEFF"/>
<path d="M340.512 345.958H322.257C320.705 345.958 319.446 347.218 319.446 348.771V359.856C319.446 361.41 320.705 362.669 322.257 362.669H340.512C342.064 362.669 343.323 361.41 343.323 359.856V348.771C343.323 347.218 342.064 345.958 340.512 345.958Z" fill="#CFDEFF"/>
<path d="M368.773 345.958H350.518C348.966 345.958 347.707 347.218 347.707 348.771V359.856C347.707 361.41 348.966 362.669 350.518 362.669H368.773C370.325 362.669 371.584 361.41 371.584 359.856V348.771C371.584 347.218 370.325 345.958 368.773 345.958Z" fill="#CFDEFF"/>
<path d="M397.032 345.958H378.778C377.225 345.958 375.967 347.218 375.967 348.771V359.856C375.967 361.41 377.225 362.669 378.778 362.669H397.032C398.585 362.669 399.843 361.41 399.843 359.856V348.771C399.843 347.218 398.585 345.958 397.032 345.958Z" fill="#CFDEFF"/>
<path d="M380.251 250.632C378.746 250.632 377.304 250.034 376.24 248.969C375.176 247.905 374.579 246.461 374.579 244.955V226.888C374.579 225.381 375.176 223.936 376.239 222.868C377.302 221.801 378.745 221.199 380.251 221.195C381.757 221.199 383.199 221.801 384.263 222.868C385.326 223.936 385.923 225.381 385.923 226.888V244.955C385.923 245.701 385.776 246.439 385.491 247.128C385.206 247.816 384.788 248.442 384.262 248.969C383.735 249.496 383.11 249.914 382.421 250.2C381.733 250.485 380.996 250.632 380.251 250.632Z" fill="#CFDEFF"/>
<path d="M385.923 226.888V244.955C385.923 246.461 385.325 247.905 384.262 248.969C383.198 250.034 381.755 250.632 380.251 250.632V250.632C378.746 250.632 377.304 250.034 376.24 248.969C375.176 247.905 374.579 246.461 374.579 244.955" stroke="#00030E" stroke-width="0.25" stroke-miterlimit="10" stroke-linecap="round"/>
<path d="M336.396 291.706L326.357 281.659C326.014 281.321 325.742 280.918 325.557 280.474C325.371 280.03 325.275 279.554 325.275 279.072C325.275 278.591 325.371 278.114 325.557 277.67C325.742 277.226 326.014 276.823 326.357 276.485L336.396 286.532C337.079 287.219 337.463 288.149 337.463 289.119C337.463 290.089 337.079 291.019 336.396 291.706Z" fill="#9192FF"/>
<path d="M323.813 289.127L333.853 279.081C334.542 278.396 335.474 278.011 336.446 278.011C337.418 278.011 338.35 278.396 339.04 279.081L329 289.127C328.66 289.469 328.256 289.739 327.811 289.924C327.366 290.109 326.889 290.204 326.407 290.204C325.925 290.204 325.448 290.109 325.003 289.924C324.558 289.739 324.154 289.469 323.813 289.127Z" fill="#9192FF"/>
<path d="M279.892 338.507L269.853 328.46C269.51 328.121 269.238 327.717 269.052 327.271C268.866 326.826 268.771 326.348 268.771 325.865C268.771 325.382 268.866 324.904 269.052 324.459C269.238 324.013 269.51 323.609 269.853 323.269L279.892 333.316C280.233 333.657 280.504 334.061 280.688 334.507C280.873 334.952 280.968 335.429 280.968 335.912C280.968 336.394 280.873 336.871 280.688 337.316C280.504 337.762 280.233 338.166 279.892 338.507Z" fill="#9192FF"/>
<path d="M267.31 335.911L277.349 325.865C278.038 325.18 278.971 324.795 279.942 324.795C280.914 324.795 281.846 325.18 282.536 325.865L272.497 335.911C272.158 336.257 271.755 336.531 271.31 336.718C270.864 336.906 270.386 337.002 269.903 337.002C269.42 337.002 268.942 336.906 268.496 336.718C268.051 336.531 267.648 336.257 267.31 335.911Z" fill="#9192FF"/>
<path d="M392.9 361.916L382.861 351.869C382.518 351.531 382.246 351.128 382.061 350.684C381.875 350.24 381.779 349.763 381.779 349.282C381.779 348.801 381.875 348.324 382.061 347.88C382.246 347.436 382.518 347.033 382.861 346.695L392.9 356.742C393.579 357.431 393.96 358.36 393.96 359.329C393.96 360.297 393.579 361.226 392.9 361.916Z" fill="#9192FF"/>
<path d="M380.317 359.32L390.357 349.274C390.696 348.93 391.1 348.658 391.545 348.472C391.99 348.286 392.468 348.19 392.95 348.19C393.432 348.19 393.91 348.286 394.355 348.472C394.8 348.658 395.204 348.93 395.543 349.274L385.504 359.32C385.164 359.662 384.76 359.932 384.315 360.117C383.87 360.302 383.393 360.397 382.911 360.397C382.429 360.397 381.952 360.302 381.507 360.117C381.062 359.932 380.658 359.662 380.317 359.32Z" fill="#9192FF"/>
<path d="M353.866 186.967C363.527 128.623 324.099 73.4883 265.799 63.8191C207.499 54.15 152.405 93.6083 142.743 151.952C133.082 210.295 172.51 265.43 230.81 275.099C289.11 284.769 344.204 245.31 353.866 186.967Z" fill="#E8E8FF"/>
<path d="M308.068 229.25C341.073 196.221 341.073 142.67 308.068 109.641C275.064 76.6115 221.553 76.6115 188.549 109.641C155.544 142.67 155.544 196.221 188.549 229.25C221.553 262.279 275.064 262.279 308.068 229.25Z" fill="white"/>
<path d="M251.347 90.5375H245.24C244.344 90.5375 243.617 91.2647 243.617 92.1617V102.309C243.617 103.206 244.344 103.933 245.24 103.933H251.347C252.244 103.933 252.97 103.206 252.97 102.309V92.1617C252.97 91.2647 252.244 90.5375 251.347 90.5375Z" fill="#CFDEFF"/>
<path d="M211.499 99.5761L206.21 102.632C205.433 103.08 205.168 104.074 205.616 104.851L210.685 113.638C211.134 114.415 212.126 114.681 212.903 114.233L218.191 111.177C218.968 110.729 219.234 109.735 218.786 108.958L213.716 100.171C213.268 99.3938 212.275 99.1276 211.499 99.5761Z" fill="#CFDEFF"/>
<path d="M181.521 127.351L178.467 132.644C178.019 133.421 178.285 134.414 179.061 134.863L187.842 139.936C188.619 140.385 189.611 140.118 190.06 139.342L193.113 134.049C193.561 133.272 193.295 132.278 192.519 131.83L183.738 126.756C182.962 126.308 181.969 126.574 181.521 127.351Z" fill="#CFDEFF"/>
<path d="M169.428 166.407V172.519C169.428 173.416 170.154 174.143 171.051 174.143H181.19C182.087 174.143 182.813 173.416 182.813 172.519V166.407C182.813 165.51 182.087 164.783 181.19 164.783H171.051C170.154 164.783 169.428 165.51 169.428 166.407Z" fill="#CFDEFF"/>
<path d="M178.476 206.284L181.53 211.577C181.978 212.354 182.971 212.62 183.747 212.172L192.528 207.098C193.304 206.65 193.57 205.656 193.122 204.879L190.068 199.587C189.62 198.81 188.628 198.543 187.851 198.992L179.07 204.066C178.294 204.514 178.028 205.507 178.476 206.284Z" fill="#CFDEFF"/>
<path d="M206.231 236.286L211.52 239.342C212.296 239.791 213.289 239.524 213.737 238.748L218.807 229.96C219.255 229.183 218.989 228.19 218.213 227.741L212.924 224.685C212.148 224.237 211.155 224.503 210.707 225.28L205.637 234.067C205.189 234.844 205.455 235.838 206.231 236.286Z" fill="#CFDEFF"/>
<path d="M245.257 248.371H251.364C252.26 248.371 252.987 247.644 252.987 246.747V236.6C252.987 235.703 252.26 234.976 251.364 234.976H245.257C244.36 234.976 243.634 235.703 243.634 236.6V246.747C243.634 247.644 244.36 248.371 245.257 248.371Z" fill="#CFDEFF"/>
<path d="M285.088 239.333L290.377 236.278C291.153 235.829 291.419 234.836 290.971 234.059L285.901 225.271C285.453 224.494 284.461 224.228 283.684 224.677L278.395 227.732C277.619 228.181 277.353 229.174 277.801 229.951L282.871 238.739C283.319 239.516 284.312 239.782 285.088 239.333Z" fill="#CFDEFF"/>
<path d="M315.067 211.557L318.12 206.264C318.568 205.487 318.302 204.494 317.526 204.045L308.745 198.971C307.969 198.523 306.976 198.789 306.528 199.566L303.474 204.859C303.026 205.636 303.292 206.629 304.068 207.078L312.85 212.151C313.626 212.6 314.618 212.334 315.067 211.557Z" fill="#CFDEFF"/>
<path d="M327.177 172.519V166.407C327.177 165.51 326.45 164.783 325.554 164.783H315.414C314.518 164.783 313.791 165.51 313.791 166.407V172.519C313.791 173.416 314.518 174.143 315.414 174.143H325.554C326.45 174.143 327.177 173.416 327.177 172.519Z" fill="#CFDEFF"/>
<path d="M318.129 132.64L315.075 127.347C314.627 126.57 313.634 126.304 312.858 126.753L304.077 131.826C303.301 132.275 303.035 133.268 303.483 134.045L306.536 139.338C306.985 140.115 307.977 140.381 308.754 139.932L317.535 134.859C318.311 134.41 318.577 133.417 318.129 132.64Z" fill="#CFDEFF"/>
<path d="M290.374 102.624L285.085 99.5677C284.308 99.1192 283.316 99.3854 282.868 100.162L277.798 108.95C277.35 109.727 277.616 110.72 278.392 111.169L283.681 114.225C284.457 114.673 285.45 114.407 285.898 113.63L290.968 104.842C291.416 104.065 291.15 103.072 290.374 102.624Z" fill="#CFDEFF"/>
<path d="M251.544 102.193C252.795 115.426 255.827 158.462 251.596 180.389C251.552 180.614 251.479 180.805 251.387 180.939C251.296 181.073 251.188 181.144 251.079 181.144C250.969 181.144 250.862 181.073 250.77 180.939C250.678 180.805 250.605 180.614 250.561 180.389C246.338 158.462 249.369 115.426 250.613 102.193C250.637 101.955 250.695 101.742 250.78 101.59C250.865 101.438 250.97 101.354 251.079 101.354C251.187 101.354 251.293 101.438 251.377 101.59C251.462 101.742 251.521 101.955 251.544 102.193Z" fill="#339DCC"/>
<path d="M196.354 171.068C206.524 170.07 242.768 167.633 259.636 171.021C259.81 171.057 259.958 171.115 260.062 171.19C260.166 171.264 260.221 171.35 260.221 171.439C260.221 171.528 260.166 171.614 260.062 171.688C259.958 171.763 259.81 171.821 259.636 171.857C242.768 175.245 206.458 172.816 196.354 171.81C196.171 171.793 196.005 171.746 195.887 171.679C195.768 171.611 195.704 171.526 195.704 171.439C195.704 171.352 195.768 171.267 195.887 171.199C196.005 171.132 196.171 171.085 196.354 171.068Z" fill="#339DCC"/>
<path d="M245.29 17.6152L246.963 22.287C247.736 24.3669 248.947 26.2557 250.515 27.8247C252.083 29.3938 253.97 30.6061 256.049 31.3792L260.717 33.0537L256.049 34.7281C253.97 35.5012 252.083 36.7136 250.515 38.2826C248.947 39.8516 247.736 41.7405 246.963 43.8204L245.29 48.4921L243.617 43.8204C242.844 41.7405 241.633 39.8516 240.065 38.2826C238.497 36.7136 236.61 35.5012 234.531 34.7281L229.863 33.0537L234.531 31.3792C236.61 30.6061 238.497 29.3938 240.065 27.8247C241.633 26.2557 242.844 24.3669 243.617 22.287L245.29 17.6152Z" fill="#608DAE"/>
<path d="M421.211 90.504L422.884 95.159C423.65 97.2423 424.86 99.1341 426.428 100.704C427.997 102.274 429.888 103.484 431.969 104.251L436.637 105.926L431.969 107.6C429.889 108.374 428 109.589 426.432 111.161C424.863 112.733 423.653 114.626 422.884 116.709L421.211 121.364L419.537 116.709C418.765 114.624 417.552 112.731 415.981 111.159C414.41 109.587 412.518 108.373 410.435 107.6L405.784 105.926L410.435 104.251C412.519 103.484 414.412 102.274 415.983 100.704C417.554 99.1347 418.767 97.2428 419.537 95.159L421.211 90.504Z" fill="#608DAE"/>
<path d="M56.5875 264.731L58.2607 269.402C59.034 271.484 60.2477 273.375 61.8187 274.944C63.3897 276.513 65.2809 277.724 67.3629 278.495L72.0144 280.169L67.3629 281.843C65.2809 282.614 63.3897 283.825 61.8187 285.394C60.2477 286.963 59.034 288.854 58.2607 290.936L56.5875 295.607L54.9143 290.936C54.1447 288.854 52.9343 286.964 51.366 285.394C49.7978 283.825 47.9089 282.614 45.8289 281.843L41.1606 280.169L45.8289 278.495C47.9089 277.724 49.7978 276.513 51.366 274.944C52.9343 273.374 54.1447 271.484 54.9143 269.402L56.5875 264.731Z" fill="url(#paint1_linear)"/>
<path d="M380.25 166.558L381.371 169.588C381.866 170.945 382.651 172.176 383.671 173.197C384.691 174.218 385.922 175.004 387.277 175.499L390.306 176.621L387.277 177.743C385.922 178.238 384.691 179.024 383.671 180.045C382.651 181.066 381.866 182.297 381.371 183.654L380.25 186.668L379.129 183.654C378.634 182.297 377.849 181.066 376.829 180.045C375.809 179.024 374.578 178.238 373.223 177.743L370.211 176.621L373.223 175.499C374.578 175.004 375.809 174.218 376.829 173.197C377.849 172.176 378.634 170.945 379.129 169.588L380.25 166.558Z" fill="#608DAE"/>
<path d="M365.828 193.633L366.313 194.956C366.533 195.543 366.878 196.076 367.322 196.518C367.767 196.96 368.301 197.301 368.889 197.518L370.211 198.004L368.889 198.489C368.302 198.713 367.769 199.058 367.325 199.503C366.881 199.947 366.536 200.481 366.313 201.068L365.828 202.391L365.342 201.068C365.125 200.479 364.785 199.945 364.343 199.5C363.901 199.055 363.369 198.71 362.782 198.489L361.46 198.004L362.782 197.518C363.369 197.303 363.903 196.962 364.345 196.52C364.787 196.077 365.127 195.544 365.342 194.956L365.828 193.633Z" fill="#608DAE"/>
<path d="M176.12 269.587L176.606 270.893C176.826 271.482 177.17 272.017 177.615 272.461C178.059 272.906 178.594 273.251 179.182 273.471L180.488 273.957L179.182 274.442C178.593 274.657 178.058 274.998 177.613 275.44C177.168 275.882 176.824 276.416 176.606 277.004L176.12 278.327L175.635 277.004C175.42 276.417 175.08 275.883 174.638 275.441C174.196 274.998 173.662 274.658 173.075 274.442L171.753 273.957L173.075 273.471C173.662 273.25 174.194 272.906 174.636 272.461C175.078 272.016 175.418 271.481 175.635 270.893L176.12 269.587Z" fill="#608DAE"/>
<path d="M405.733 211.182L406.218 212.505C406.433 213.092 406.774 213.626 407.216 214.068C407.658 214.511 408.191 214.852 408.778 215.067L410.1 215.552L408.778 216.038C408.192 216.259 407.66 216.603 407.218 217.048C406.776 217.493 406.435 218.028 406.218 218.616L405.733 219.939L405.248 218.616C405.027 218.027 404.683 217.492 404.239 217.048C403.794 216.603 403.26 216.258 402.671 216.038L401.366 215.552L402.671 215.067C403.26 214.852 403.796 214.511 404.241 214.069C404.686 213.627 405.029 213.093 405.248 212.505L405.733 211.182Z" fill="#608DAE"/>
<path d="M41.1102 247.015L41.5954 248.338C41.8161 248.925 42.1604 249.458 42.605 249.9C43.0496 250.342 43.5841 250.683 44.1722 250.9L45.4773 251.385L44.1722 251.871C43.5785 252.102 43.0413 252.457 42.5968 252.914C42.1523 253.37 41.8108 253.917 41.5954 254.517L41.1102 255.839L40.625 254.517C40.4082 253.928 40.0673 253.393 39.6256 252.948C39.1839 252.503 38.6516 252.159 38.065 251.938L36.7432 251.452L38.065 250.967C38.6522 250.752 39.1854 250.411 39.6275 249.969C40.0697 249.526 40.4101 248.992 40.625 248.405L41.1102 247.015Z" fill="#608DAE"/>
<path d="M284.443 45.6958L284.929 47.0019C285.145 47.5904 285.486 48.1252 285.928 48.5702C286.37 49.0151 286.902 49.3597 287.489 49.5805L288.81 50.0661L287.489 50.5517C286.901 50.7668 286.368 51.1074 285.926 51.5499C285.484 51.9924 285.144 52.526 284.929 53.1136L284.443 54.4364L283.958 53.1136C283.738 52.5266 283.393 51.9939 282.949 51.5518C282.504 51.1098 281.969 50.7687 281.381 50.5517L280.06 50.0661L281.381 49.5805C281.968 49.357 282.501 49.0116 282.946 48.5672C283.39 48.1228 283.735 47.5893 283.958 47.0019L284.443 45.6958Z" fill="#608DAE"/>
<path d="M116.404 4.37036L118.078 9.04208C118.847 11.1237 120.058 13.014 121.626 14.5834C123.194 16.1528 125.083 17.3642 127.163 18.1343L131.831 19.8088L127.163 21.4832C125.083 22.2534 123.194 23.4648 121.626 25.0342C120.058 26.6036 118.847 28.4939 118.078 30.5755L116.404 35.2472L114.731 30.5755C113.958 28.4934 112.744 26.603 111.173 25.0337C109.602 23.4644 107.711 22.2533 105.629 21.4832L100.978 19.8088L105.629 18.1343C107.702 17.3582 109.583 16.1443 111.145 14.5754C112.707 13.0064 113.913 11.1192 114.681 9.04208L116.404 4.37036Z" fill="url(#paint2_linear)"/>
<path d="M72.0646 0.636108L73.1856 3.65012C73.6805 5.00638 74.4656 6.23807 75.4858 7.25904C76.506 8.28002 77.7367 9.06563 79.092 9.56093L82.1205 10.6828L79.092 11.8047C77.7367 12.3 76.506 13.0856 75.4858 14.1066C74.4656 15.1276 73.6805 16.3592 73.1856 17.7155L72.0646 20.7463L70.9435 17.7155C70.4486 16.3592 69.6636 15.1276 68.6434 14.1066C67.6232 13.0856 66.3924 12.3 65.0371 11.8047L62.0254 10.6828L65.0371 9.56093C66.3924 9.06563 67.6232 8.28002 68.6434 7.25904C69.6636 6.23807 70.4486 5.00638 70.9435 3.65012L72.0646 0.636108Z" fill="#608DAE"/>
<path d="M143.895 0L144.38 1.32282C144.595 1.91043 144.936 2.44406 145.378 2.88652C145.82 3.32899 146.353 3.66964 146.94 3.88473L148.262 4.37032L146.94 4.85591C146.354 5.07672 145.821 5.4213 145.38 5.86625C144.938 6.31119 144.597 6.84608 144.38 7.43456L143.895 8.74063L143.393 7.43456C143.175 6.84441 142.831 6.30847 142.386 5.86342C141.942 5.41836 141.406 5.07469 140.816 4.85591L139.495 4.37032L140.816 3.88473C141.404 3.66964 141.937 3.32899 142.379 2.88652C142.821 2.44406 143.162 1.91043 143.376 1.32282L143.895 0Z" fill="#608DAE"/>
<path d="M169.428 19.859L169.913 21.1818C170.134 21.7689 170.478 22.3015 170.922 22.7436C171.367 23.1856 171.902 23.5268 172.49 23.7437L173.795 24.2293L172.49 24.7149C171.903 24.9385 171.37 25.2838 170.925 25.7282C170.481 26.1727 170.136 26.7061 169.913 27.2936L169.428 28.5996L168.993 27.2936C168.776 26.7051 168.435 26.1702 167.993 25.7253C167.552 25.2803 167.019 24.9357 166.433 24.7149L165.111 24.2293L166.433 23.7437C167.02 23.5286 167.553 23.188 167.995 22.7455C168.437 22.3031 168.778 21.7694 168.993 21.1818L169.428 19.859Z" fill="#608DAE"/>
<path opacity="0.4" d="M162.126 398.533C177.751 398.533 190.417 385.858 190.417 370.222C190.417 354.586 177.751 341.911 162.126 341.911C146.502 341.911 133.836 354.586 133.836 370.222C133.836 385.858 146.502 398.533 162.126 398.533Z" fill="#E5E5FF"/>
<path d="M117.216 398.949C114.881 398.941 112.55 398.747 110.244 398.367L110.468 396.932C112.7 397.29 114.956 397.468 117.216 397.466H117.479V398.92L117.216 398.949ZM124.719 398.309L124.485 396.874C126.798 396.48 129.075 395.897 131.296 395.13L131.759 396.507C129.463 397.294 127.109 397.897 124.719 398.309ZM103.187 396.676C100.882 395.908 98.6411 394.956 96.4848 393.828L97.143 392.538C99.2301 393.631 101.401 394.553 103.634 395.293L103.187 396.676ZM138.422 393.572L137.752 392.288C139.832 391.17 141.821 389.885 143.699 388.446L144.569 389.608C142.626 391.092 140.571 392.417 138.422 393.572ZM90.3433 389.939C88.3958 388.473 86.5661 386.852 84.8716 385.092L85.8961 384.075C87.5346 385.782 89.3072 387.35 91.1962 388.765L90.3433 389.939ZM149.978 384.679L148.936 383.679C150.552 381.951 152.028 380.092 153.349 378.123L154.534 378.942C153.162 380.977 151.631 382.895 149.955 384.679H149.978ZM80.2412 379.413C78.8499 377.397 77.621 375.271 76.5666 373.054L77.8544 372.421C78.8755 374.567 80.0641 376.628 81.4088 378.582L80.2412 379.413ZM158.128 372.537L156.835 371.921C157.828 369.76 158.653 367.523 159.302 365.231L160.675 365.632C160 367.999 159.14 370.308 158.105 372.537H158.128ZM73.9165 366.178C73.2235 363.818 72.7163 361.406 72.3998 358.965L73.8192 358.779C74.1236 361.14 74.6156 363.473 75.2902 365.754L73.9165 366.178ZM162.06 358.401L160.641 358.233C160.84 356.516 160.939 354.788 160.938 353.059C160.938 352.409 160.938 351.746 160.898 351.095L162.329 351.031C162.329 351.705 162.369 352.385 162.369 353.059C162.375 354.844 162.278 356.628 162.077 358.401H162.06ZM73.4758 351.647L72.0449 351.601C72.1248 349.139 72.4005 346.688 72.8691 344.271L74.2714 344.55C73.8211 346.891 73.555 349.264 73.4758 351.647ZM160.034 344.01C159.553 341.677 158.889 339.387 158.048 337.162L159.382 336.639C160.253 338.938 160.942 341.303 161.442 343.713L160.034 344.01ZM76.1602 337.68L74.8152 337.174C75.66 334.865 76.6839 332.628 77.8773 330.484L79.125 331.199C77.9664 333.275 76.9749 335.442 76.1602 337.68ZM157.916 336.825C157.057 334.614 156.026 332.476 154.831 330.432L156.062 329.694C157.298 331.812 158.364 334.028 159.25 336.32L157.916 336.825ZM83.0686 325.282L81.9525 324.375C83.4668 322.453 85.1321 320.659 86.9321 319.01L87.8879 320.086C86.1485 321.685 84.537 323.423 83.0686 325.282ZM150.779 324.573C149.272 322.752 147.625 321.057 145.851 319.504L146.784 318.406C148.618 320.007 150.322 321.757 151.878 323.637L150.779 324.573ZM93.4684 315.749L92.6958 314.523C94.7345 313.19 96.8742 312.024 99.0948 311.036L99.6671 312.372C97.5151 313.328 95.4422 314.457 93.4684 315.749ZM140.179 315.267C138.181 314.014 136.087 312.928 133.917 312.018L134.49 310.675C136.731 311.615 138.893 312.737 140.957 314.029L140.179 315.267ZM106.318 310.036L105.957 308.629C108.305 308.015 110.698 307.595 113.112 307.374L113.244 308.821C110.907 309.039 108.591 309.447 106.318 310.042V310.036ZM127.226 309.821C124.94 309.273 122.615 308.911 120.272 308.74L120.375 307.298C122.793 307.472 125.194 307.845 127.553 308.414L127.226 309.821Z" fill="#9192FF"/>
<path d="M204.038 427L205.382 430.629C205.976 432.252 206.917 433.727 208.141 434.95C209.364 436.172 210.84 437.113 212.465 437.706L216.096 439.049L212.465 440.392C210.84 440.985 209.364 441.926 208.141 443.148C206.917 444.37 205.976 445.845 205.382 447.469L204.038 451.077L202.694 447.469C202.1 445.845 201.159 444.37 199.936 443.148C198.712 441.926 197.237 440.985 195.611 440.392L192 439.049L195.611 437.706C197.237 437.113 198.712 436.172 199.936 434.95C201.159 433.727 202.1 432.252 202.694 430.629L204.038 427Z" fill="url(#paint3_linear)"/>
<defs>
<linearGradient id="paint0_linear" x1="101.054" y1="117.003" x2="168.692" y2="117.003" gradientUnits="userSpaceOnUse">
<stop stop-color="#00FFDF"/>
<stop offset="1" stop-color="#00C3D4"/>
</linearGradient>
<linearGradient id="paint1_linear" x1="41.0975" y1="280.147" x2="72.0316" y2="280.147" gradientUnits="userSpaceOnUse">
<stop stop-color="#00FFDF"/>
<stop offset="1" stop-color="#00C3D4"/>
</linearGradient>
<linearGradient id="paint2_linear" x1="100.914" y1="19.7865" x2="131.849" y2="19.7865" gradientUnits="userSpaceOnUse">
<stop stop-color="#00FFDF"/>
<stop offset="1" stop-color="#00C3D4"/>
</linearGradient>
<linearGradient id="paint3_linear" x1="191.951" y1="439.021" x2="216.11" y2="439.021" gradientUnits="userSpaceOnUse">
<stop stop-color="#00FFDF"/>
<stop offset="1" stop-color="#00C3D4"/>
</linearGradient>
</defs>
</svg>
