<svg width="494" height="476" viewBox="0 0 494 476" fill="none" xmlns="http://www.w3.org/2000/svg">
<path d="M146.62 465.52C139.015 468.999 130.728 470.269 123.332 469.087C115.936 467.906 109.946 464.356 106.501 459.112C103.056 453.867 102.395 447.294 104.643 440.64C106.892 433.986 111.894 427.715 118.699 423.018C113.015 422.893 107.903 421.291 104.04 418.426C100.177 415.562 97.7454 411.568 97.0682 406.976C96.9954 406.481 96.9226 405.986 96.916 405.482C88.747 405.762 81.1823 404.052 75.1261 400.557C69.0699 397.062 64.7784 391.929 62.7646 385.772C60.7508 379.616 61.0999 372.695 63.7701 365.839C66.4403 358.982 71.3187 352.48 77.8221 347.108C75.3141 344.522 73.7234 341.334 73.1779 337.8C72.6324 334.267 73.1474 330.487 74.6814 326.764C76.2155 323.041 78.7257 319.479 82.0103 316.364C85.2949 313.25 89.2622 310.67 93.5931 308.832C88.7373 306.188 85.5022 302.021 84.4152 297.008C83.3282 291.996 84.4536 286.434 87.6077 281.231C83.2213 279.739 79.684 277.172 77.3717 273.804C75.0594 270.436 74.0584 266.391 74.4751 262.1C74.8917 257.809 76.7104 253.432 79.738 249.433C82.7656 245.435 86.889 241.965 91.6702 239.391C86.705 237.373 82.8227 234.112 80.4436 229.963C78.0644 225.813 77.279 220.933 78.1723 215.85C71.5596 215.068 65.8847 212.485 61.9472 208.464C58.0097 204.443 56.0081 199.188 56.2242 193.438C49.598 190.273 45.2766 184.809 44.1369 178.155C42.9972 171.501 45.1247 164.156 50.0875 157.61C47.6647 153.424 46.8692 148.488 47.7888 143.348C48.7084 138.208 51.3074 133.063 55.2987 128.482C49.6006 127.722 44.6174 125.606 40.8856 122.363C37.1538 119.12 34.8147 114.872 34.12 110.077L34.0937 109.898C24.3951 109.999 15.7075 107.253 9.50041 102.126C3.29336 96.9981 -0.052123 89.8036 0.0298591 81.7591C0.111841 73.7145 3.61625 65.3138 9.95032 57.9778C16.2844 50.6418 25.0593 44.8209 34.7907 41.4998L34.5886 40.1257C33.9138 35.5967 34.6275 30.7506 36.6699 25.9946C38.7122 21.2386 42.0235 16.7115 46.3256 12.7935C50.6278 8.8756 55.7951 5.68125 61.3935 3.4788C66.992 1.27635 72.8581 0.130118 78.4991 0.136388L494 0.136389L494 475.663L171.179 475.663C165.808 476.301 160.663 475.69 156.323 473.898C151.984 472.105 148.623 469.204 146.62 465.52Z" fill="white"/>
</svg>
