<svg width="1455" height="832" viewBox="0 0 1455 832" fill="none" xmlns="http://www.w3.org/2000/svg">
<path opacity="0.6" d="M1041.09 63.0548C1041.87 62.3576 1042.89 61.981 1043.93 62.001C1044.98 62.021 1045.98 62.4361 1046.74 63.1626C1047.49 63.8891 1047.94 64.8733 1047.99 65.9169C1048.05 66.9605 1047.71 67.9862 1047.03 68.7876C1046.65 69.172 1046.19 69.477 1045.69 69.6851C1045.19 69.8932 1044.65 70.0002 1044.1 70.0002C1043.56 70.0002 1043.02 69.8932 1042.51 69.6851C1042.01 69.477 1041.55 69.172 1041.17 68.7876C1040.43 68.0184 1040.01 66.9999 1040 65.9365C1039.99 64.8732 1040.38 63.8437 1041.09 63.0548Z" fill="white"/>
<path d="M982.003 414C981.073 413.997 980.144 413.921 979.225 413.772L979.314 413.208C980.203 413.349 981.103 413.419 982.003 413.418H982.108V413.989L982.003 414ZM984.994 413.749L984.901 413.185C985.822 413.03 986.73 412.801 987.615 412.5L987.8 413.041C986.885 413.35 985.946 413.587 984.994 413.749ZM976.412 413.108C975.493 412.806 974.6 412.432 973.741 411.989L974.003 411.482C974.835 411.912 975.7 412.274 976.59 412.564L976.412 413.108ZM990.455 411.888L990.188 411.384C991.017 410.945 991.81 410.44 992.559 409.875L992.905 410.331C992.131 410.914 991.312 411.435 990.455 411.888ZM971.293 410.461C970.517 409.886 969.788 409.249 969.112 408.557L969.521 408.158C970.174 408.828 970.88 409.444 971.633 410L971.293 410.461ZM995.061 408.395L994.646 408.003C995.29 407.324 995.878 406.594 996.405 405.82L996.877 406.142C996.33 406.941 995.72 407.694 995.052 408.395H995.061ZM967.267 406.327C966.712 405.535 966.222 404.7 965.802 403.829L966.315 403.58C966.722 404.423 967.196 405.233 967.732 406L967.267 406.327ZM998.31 403.626L997.794 403.384C998.19 402.535 998.519 401.656 998.777 400.756L999.325 400.913C999.055 401.843 998.713 402.75 998.3 403.626H998.31ZM964.746 401.128C964.47 400.201 964.268 399.254 964.141 398.295L964.707 398.222C964.828 399.149 965.025 400.066 965.293 400.961L964.746 401.128ZM999.877 398.073L999.311 398.007C999.39 397.333 999.43 396.654 999.43 395.975C999.43 395.719 999.43 395.459 999.414 395.203L999.984 395.178C999.984 395.443 1000 395.71 1000 395.975C1000 396.676 999.963 397.377 999.884 398.073H999.877ZM964.57 395.42L964 395.402C964.032 394.435 964.142 393.472 964.328 392.523L964.887 392.633C964.708 393.552 964.602 394.484 964.57 395.42ZM999.069 392.42C998.878 391.504 998.613 390.605 998.278 389.731L998.809 389.525C999.156 390.428 999.431 391.357 999.63 392.304L999.069 392.42ZM965.64 389.934L965.104 389.735C965.441 388.829 965.849 387.95 966.325 387.108L966.822 387.388C966.36 388.204 965.965 389.055 965.64 389.934ZM998.225 389.598C997.883 388.73 997.472 387.89 996.996 387.087L997.486 386.797C997.979 387.629 998.403 388.5 998.757 389.4L998.225 389.598ZM968.394 385.064L967.949 384.708C968.552 383.953 969.216 383.248 969.933 382.601L970.314 383.023C969.621 383.651 968.979 384.334 968.394 385.064ZM995.38 384.786C994.78 384.071 994.123 383.405 993.416 382.795L993.788 382.363C994.519 382.992 995.198 383.679 995.818 384.418L995.38 384.786ZM972.539 381.32L972.231 380.838C973.043 380.315 973.896 379.857 974.781 379.468L975.009 379.993C974.151 380.369 973.325 380.812 972.539 381.32ZM991.156 381.13C990.359 380.638 989.525 380.212 988.66 379.854L988.888 379.327C989.781 379.696 990.643 380.137 991.466 380.644L991.156 381.13ZM977.66 379.076L977.516 378.523C978.452 378.282 979.405 378.117 980.368 378.03L980.42 378.598C979.489 378.684 978.566 378.844 977.66 379.078V379.076ZM985.993 378.991C985.082 378.776 984.155 378.634 983.222 378.566L983.263 378C984.226 378.069 985.183 378.215 986.123 378.439L985.993 378.991Z" fill="#9192FF"/>
<path d="M40.7595 315C39.7788 315 38.7911 314.956 37.8244 314.881L37.8688 314.297C38.8238 314.372 39.7975 314.412 40.7618 314.416L40.7595 315ZM43.6969 314.914L43.6572 314.332C44.6169 314.269 45.5859 314.171 46.5386 314.041L46.618 314.62C45.6513 314.753 44.6683 314.851 43.6969 314.914ZM34.9057 314.55C33.939 314.405 32.9653 314.225 32.0173 314.012L32.1434 313.443C33.0774 313.653 34.0371 313.83 34.9897 313.973L34.9057 314.55ZM49.5134 314.115L49.3919 313.545C50.3259 313.347 51.2786 313.111 52.1939 312.845L52.355 313.405C51.4257 313.676 50.466 313.914 49.5134 314.115ZM29.1733 313.27C28.2393 312.99 27.3053 312.67 26.3877 312.322L26.5978 311.778C27.4968 312.119 28.4191 312.434 29.3414 312.712L29.1733 313.27ZM55.157 312.492L54.9539 311.944C55.8552 311.612 56.7565 311.243 57.6321 310.848L57.8656 311.378C56.9853 311.78 56.07 312.156 55.157 312.492ZM23.6791 311.175C22.7965 310.762 21.9162 310.311 21.0616 309.837L21.3464 309.326C22.187 309.793 23.0556 310.239 23.9149 310.645L23.6791 311.175ZM60.5018 310.075L60.2239 309.562C61.0669 309.095 61.9075 308.609 62.7177 308.093L63.0329 308.583C62.2087 309.109 61.3587 309.611 60.5018 310.075ZM18.5468 308.312C17.7319 307.778 16.924 307.208 16.1488 306.615L16.5013 306.148C17.2672 306.732 18.0634 307.297 18.8667 307.822L18.5468 308.312ZM65.4496 306.911L65.1017 306.444C65.8723 305.87 66.6335 305.263 67.362 304.635L67.7426 305.076C67.0047 305.716 66.2318 306.332 65.4496 306.916V306.911ZM13.8768 304.742C13.146 304.098 12.4291 303.418 11.745 302.72L12.1606 302.311C12.8354 302.998 13.5429 303.668 14.2621 304.305L13.8768 304.742ZM69.8978 303.084L69.4868 302.668C70.1686 301.991 70.8364 301.267 71.4692 300.567L71.9082 300.95C71.2661 301.674 70.5913 302.407 69.8978 303.084ZM9.76024 300.56C9.12979 299.815 8.51569 299.04 7.93895 298.255L8.40595 297.91C8.97568 298.685 9.57344 299.448 10.2039 300.182L9.76024 300.56ZM73.7598 298.657L73.2928 298.304C73.8743 297.536 74.4323 296.737 74.9554 295.929L75.4434 296.247C74.9133 297.067 74.3483 297.877 73.7598 298.657ZM6.27877 295.829C5.75807 295.002 5.26072 294.15 4.80306 293.288L5.31676 293.015C5.76975 293.86 6.25075 294.703 6.77146 295.516L6.27877 295.829ZM76.9448 293.727L76.4334 293.447C76.9004 292.602 77.337 291.731 77.7387 290.857L78.2687 291.103C77.8671 291.983 77.4234 292.868 76.9518 293.723L76.9448 293.727ZM3.51415 290.652C3.11721 289.76 2.74828 288.845 2.41671 287.929L2.96777 287.731C3.29233 288.632 3.66826 289.536 4.04653 290.414L3.51415 290.652ZM79.4012 288.382L78.8548 288.177C79.1934 287.275 79.5016 286.351 79.7724 285.428L80.3328 285.594C80.062 286.528 79.7491 287.462 79.4012 288.382ZM1.52708 285.127C1.26323 284.193 1.02973 283.226 0.826585 282.271L1.39866 282.154C1.59013 283.089 1.82129 284.041 2.08281 284.968L1.52708 285.127ZM81.0637 282.743L80.4939 282.619C80.6971 281.685 80.8699 280.721 81.0076 279.768L81.5844 279.85C81.4466 280.821 81.2691 281.795 81.0637 282.748V282.743ZM0.347914 279.378C0.221825 278.411 0.128425 277.428 0.0700503 276.454L0.653796 276.419C0.709836 277.379 0.8009 278.351 0.926989 279.303L0.347914 279.378ZM81.8973 276.933L81.3135 276.893C81.3812 275.936 81.4163 274.962 81.4163 273.998H82C82 274.976 81.9696 275.964 81.8973 276.933ZM0.583746 273.524H0C0 272.545 0.0583755 271.558 0.137765 270.589L0.719176 270.635C0.639786 271.583 0.595421 272.559 0.583746 273.524ZM81.3742 272.055C81.3299 271.091 81.2481 270.119 81.1407 269.169L81.7221 269.099C81.8365 270.066 81.9183 271.051 81.9556 272.027L81.3742 272.055ZM1.06008 267.754L0.478673 267.665C0.628112 266.698 0.81491 265.729 1.0344 264.779L1.6018 264.91C1.39165 265.846 1.20719 266.803 1.06008 267.754ZM80.6831 266.306C80.5009 265.372 80.2815 264.412 80.0316 263.483L80.5967 263.333C80.8489 264.267 81.0637 265.239 81.2551 266.196L80.6831 266.306ZM2.34666 262.112L1.7886 261.942C2.0758 261.008 2.40037 260.074 2.75528 259.161L3.29934 259.373C2.96076 260.27 2.64087 261.192 2.34666 262.112ZM79.1677 260.711C78.8501 259.805 78.4975 258.897 78.1193 258.014L78.654 257.781C79.0392 258.675 79.3988 259.595 79.7187 260.515L79.1677 260.711ZM4.44815 256.709L3.92044 256.459C4.3384 255.579 4.79373 254.698 5.27473 253.848L5.78376 254.135C5.31676 254.974 4.86611 255.84 4.44815 256.709ZM76.8887 255.406C76.4451 254.551 75.9664 253.703 75.4644 252.886L75.9617 252.58C76.4708 253.412 76.9564 254.271 77.4071 255.137L76.8887 255.406ZM7.30617 251.67L6.81816 251.347C7.35987 250.535 7.93428 249.731 8.53204 248.958L8.99903 249.316C8.41762 250.072 7.83854 250.864 7.30617 251.665V251.67ZM73.8696 250.479C73.3092 249.696 72.7138 248.926 72.0997 248.186L72.548 247.814C73.1714 248.564 73.7762 249.346 74.3436 250.138L73.8696 250.479ZM10.846 247.081L10.4094 246.693C11.0608 245.965 11.745 245.253 12.4455 244.573L12.8518 244.991C12.1536 245.664 11.4858 246.364 10.846 247.081ZM70.1686 246.021C69.5032 245.32 68.805 244.648 68.0905 244.003L68.4828 243.571C69.2066 244.225 69.9141 244.914 70.5843 245.617L70.1686 246.021ZM14.9999 243.051L14.624 242.602C15.3712 241.974 16.1488 241.367 16.938 240.793L17.2812 241.26C16.5037 241.832 15.7355 242.432 14.9999 243.051ZM65.8746 242.138C65.1157 241.547 64.3265 240.97 63.5279 240.435L63.8548 239.952C64.6628 240.496 65.4636 241.077 66.2342 241.678L65.8746 242.138ZM19.6839 239.651L19.3757 239.153C20.2046 238.64 21.0616 238.147 21.9232 237.694L22.194 238.21C21.3441 238.658 20.5012 239.142 19.6839 239.651ZM61.0669 238.906C60.2333 238.427 59.3693 237.972 58.4984 237.556L58.7506 237.028C59.6308 237.453 60.5065 237.913 61.3541 238.399L61.0669 238.906ZM24.8022 236.956L24.5687 236.421C25.4607 236.029 26.3783 235.667 27.296 235.34L27.4921 235.891C26.5861 236.211 25.6825 236.571 24.8022 236.956ZM55.8575 236.393C54.9632 236.041 54.0432 235.714 53.1232 235.426L53.2984 234.868C54.2324 235.16 55.1664 235.492 56.0723 235.851L55.8575 236.393ZM30.2661 235.022L30.112 234.46C31.046 234.2 32.0126 233.974 32.97 233.783L33.0844 234.355C32.1294 234.544 31.1814 234.768 30.2544 235.022H30.2661ZM50.3306 234.658C49.3966 234.439 48.4393 234.25 47.4913 234.095L47.5847 233.519C48.5467 233.675 49.5157 233.867 50.466 234.091L50.3306 234.658ZM35.9448 233.895L35.87 233.313C36.8367 233.194 37.8221 233.105 38.7981 233.054L38.8285 233.638C37.8548 233.689 36.8834 233.776 35.9331 233.895H35.9448ZM44.6169 233.738C43.6595 233.654 42.6882 233.603 41.7239 233.584L41.7355 233C42.7115 233.019 43.6992 233.07 44.6683 233.157L44.6169 233.738Z" fill="#9192FF"/>
<path d="M623.17 410.351C620.17 410.352 617.237 409.462 614.743 407.795C612.248 406.128 610.304 403.758 609.155 400.985C608.007 398.212 607.706 395.16 608.291 392.216C608.876 389.272 610.321 386.568 612.442 384.445C614.564 382.322 617.266 380.877 620.209 380.292C623.151 379.706 626.201 380.007 628.972 381.156C631.744 382.305 634.113 384.251 635.779 386.747C637.445 389.243 638.334 392.178 638.333 395.179C638.329 399.202 636.73 403.058 633.887 405.902C631.044 408.746 627.19 410.346 623.17 410.351ZM623.17 380.68C620.305 380.683 617.505 381.536 615.124 383.131C612.742 384.726 610.887 386.991 609.793 389.641C608.698 392.29 608.413 395.205 608.974 398.017C609.535 400.828 610.916 403.411 612.943 405.437C614.97 407.463 617.552 408.843 620.363 409.401C623.173 409.959 626.086 409.671 628.733 408.573C631.38 407.476 633.643 405.617 635.234 403.233C636.826 400.849 637.675 398.046 637.675 395.179C637.671 391.333 636.141 387.645 633.421 384.927C630.701 382.208 627.015 380.681 623.17 380.68Z" fill="#9192FF"/>
<path opacity="0.4" d="M715 28.0002C719.971 28.0002 724 23.9708 724 19.0002C724 14.0297 719.971 10.0002 715 10.0002C710.029 10.0002 706 14.0297 706 19.0002C706 23.9708 710.029 28.0002 715 28.0002Z" fill="#E5E5FF"/>
<path d="M686.371 56.7167C684.904 56.712 683.44 56.5917 681.992 56.357L682.132 55.4686C683.534 55.6901 684.951 55.8007 686.371 55.7995H686.536V56.6987L686.371 56.7167ZM691.083 56.321L690.936 55.4326C692.389 55.1889 693.819 54.828 695.214 54.3535L695.505 55.206C694.063 55.6929 692.584 56.0657 691.083 56.321ZM677.56 55.3103C676.112 54.8353 674.704 54.2459 673.35 53.5478L673.763 52.7493C675.074 53.4262 676.438 53.9964 677.84 54.4542L677.56 55.3103ZM699.69 53.3895L699.269 52.5946C700.575 51.9031 701.824 51.1081 703.004 50.217L703.55 50.9364C702.33 51.8547 701.039 52.675 699.69 53.3895ZM669.493 51.1414C668.27 50.2342 667.12 49.2311 666.056 48.1416L666.7 47.5121C667.729 48.5684 668.842 49.5392 670.028 50.4149L669.493 51.1414ZM706.948 47.8862L706.293 47.2676C707.308 46.1978 708.235 45.0478 709.065 43.8289L709.809 44.3361C708.947 45.5949 707.986 46.7822 706.933 47.8862H706.948ZM663.148 44.6274C662.274 43.38 661.502 42.064 660.84 40.6924L661.649 40.3003C662.29 41.6287 663.037 42.9037 663.881 44.113L663.148 44.6274ZM712.067 40.3722L711.254 39.991C711.878 38.6536 712.396 37.2693 712.804 35.8509L713.666 36.0991C713.242 37.5639 712.702 38.9928 712.052 40.3722H712.067ZM659.176 36.4372C658.74 34.9769 658.422 33.4842 658.223 31.9734L659.114 31.8583C659.306 33.3196 659.615 34.7631 660.038 36.1746L659.176 36.4372ZM714.536 31.6245L713.645 31.5202C713.77 30.4577 713.832 29.3887 713.832 28.3189C713.832 27.916 713.832 27.506 713.807 27.1031L714.705 27.0636C714.705 27.4808 714.73 27.9017 714.73 28.3189C714.734 29.4234 714.673 30.5272 714.547 31.6245H714.536ZM658.899 27.4449L658 27.4161C658.05 25.8927 658.223 24.3758 658.518 22.8803L659.398 23.053C659.116 24.5013 658.948 25.9699 658.899 27.4449ZM713.264 22.7185C712.962 21.275 712.545 19.8581 712.016 18.4813L712.854 18.1576C713.401 19.5799 713.834 21.0437 714.148 22.535L713.264 22.7185ZM660.585 18.8014L659.74 18.4885C660.271 17.0597 660.914 15.6753 661.663 14.3484L662.447 14.7908C661.719 16.0753 661.096 17.4165 660.585 18.8014ZM711.934 18.2727C711.394 16.9043 710.746 15.5812 709.996 14.316L710.769 13.8592C711.545 15.1702 712.215 16.5415 712.771 17.9597L711.934 18.2727ZM664.924 11.1292L664.223 10.568C665.174 9.3786 666.22 8.26831 667.35 7.24807L667.951 7.9135C666.858 8.90347 665.846 9.97874 664.924 11.1292ZM707.451 10.6903C706.505 9.56369 705.47 8.51482 704.356 7.55381L704.942 6.87399C706.094 7.86494 707.164 8.94756 708.141 10.1112L707.451 10.6903ZM671.456 5.23019L670.97 4.47123C672.251 3.64651 673.595 2.92486 674.989 2.31307L675.349 3.14037C673.997 3.73144 672.695 4.4303 671.456 5.23019ZM700.793 4.93164C699.539 4.1565 698.223 3.48408 696.86 2.92095L697.22 2.09006C698.627 2.67185 699.986 3.3659 701.282 4.16549L700.793 4.93164ZM679.526 1.6944L679.3 0.823942C680.774 0.443663 682.277 0.183829 683.793 0.0470043L683.876 0.942641C682.408 1.07751 680.953 1.3301 679.526 1.698V1.6944ZM692.658 1.56131C691.222 1.22202 689.762 0.998297 688.29 0.892284L688.355 0.000244141C689.874 0.10788 691.381 0.338844 692.863 0.690855L692.658 1.56131Z" fill="#9192FF"/>
<path opacity="0.6" d="M413.91 481.055C413.129 480.358 412.113 479.981 411.065 480.001C410.018 480.021 409.017 480.436 408.263 481.163C407.51 481.889 407.061 482.873 407.006 483.917C406.951 484.961 407.294 485.986 407.967 486.788C408.351 487.172 408.809 487.477 409.312 487.685C409.815 487.893 410.354 488 410.899 488C411.444 488 411.983 487.893 412.486 487.685C412.99 487.477 413.447 487.172 413.832 486.788C414.568 486.018 414.985 485 415 483.937C415.014 482.873 414.625 481.844 413.91 481.055Z" fill="white"/>
<path d="M472.997 832C473.927 831.997 474.856 831.921 475.775 831.772L475.686 831.208C474.797 831.349 473.897 831.419 472.997 831.418H472.892V831.989L472.997 832ZM470.006 831.749L470.099 831.185C469.178 831.03 468.27 830.801 467.385 830.5L467.2 831.041C468.115 831.35 469.054 831.587 470.006 831.749ZM478.588 831.108C479.507 830.806 480.4 830.432 481.259 829.989L480.997 829.482C480.165 829.912 479.3 830.274 478.41 830.564L478.588 831.108ZM464.545 829.888L464.812 829.384C463.983 828.945 463.19 828.44 462.441 827.875L462.095 828.331C462.869 828.914 463.688 829.435 464.545 829.888ZM483.707 828.461C484.483 827.886 485.212 827.249 485.888 826.557L485.479 826.158C484.826 826.828 484.12 827.444 483.367 828L483.707 828.461ZM459.939 826.395L460.354 826.003C459.71 825.324 459.122 824.594 458.595 823.82L458.123 824.142C458.67 824.941 459.28 825.694 459.948 826.395H459.939ZM487.733 824.327C488.288 823.535 488.778 822.7 489.198 821.829L488.685 821.58C488.278 822.423 487.804 823.233 487.268 824L487.733 824.327ZM456.69 821.626L457.206 821.384C456.81 820.535 456.481 819.656 456.223 818.756L455.675 818.913C455.945 819.843 456.287 820.75 456.7 821.626H456.69ZM490.254 819.128C490.53 818.201 490.732 817.254 490.859 816.295L490.293 816.222C490.172 817.149 489.975 818.066 489.707 818.961L490.254 819.128ZM455.123 816.073L455.689 816.007C455.61 815.333 455.57 814.654 455.57 813.975C455.57 813.719 455.57 813.459 455.586 813.203L455.016 813.178C455.016 813.443 455 813.71 455 813.975C454.998 814.676 455.037 815.377 455.116 816.073H455.123ZM490.43 813.42L491 813.402C490.968 812.435 490.858 811.472 490.672 810.523L490.113 810.633C490.292 811.552 490.398 812.484 490.43 813.42ZM455.931 810.42C456.122 809.504 456.387 808.605 456.722 807.731L456.191 807.525C455.844 808.428 455.569 809.357 455.37 810.304L455.931 810.42ZM489.36 807.934L489.896 807.735C489.559 806.829 489.151 805.95 488.675 805.108L488.178 805.388C488.64 806.204 489.035 807.055 489.36 807.934ZM456.775 807.598C457.117 806.73 457.528 805.89 458.004 805.087L457.514 804.797C457.021 805.629 456.597 806.5 456.243 807.4L456.775 807.598ZM486.606 803.064L487.051 802.708C486.448 801.953 485.784 801.248 485.067 800.601L484.686 801.023C485.379 801.651 486.021 802.334 486.606 803.064ZM459.62 802.786C460.22 802.071 460.877 801.405 461.584 800.795L461.212 800.363C460.481 800.992 459.802 801.679 459.182 802.418L459.62 802.786ZM482.461 799.32L482.769 798.838C481.957 798.315 481.104 797.857 480.219 797.468L479.991 797.993C480.849 798.369 481.675 798.812 482.461 799.32ZM463.844 799.13C464.641 798.638 465.475 798.212 466.34 797.854L466.112 797.327C465.219 797.696 464.357 798.137 463.534 798.644L463.844 799.13ZM477.34 797.076L477.484 796.523C476.548 796.282 475.595 796.117 474.632 796.03L474.58 796.598C475.511 796.684 476.434 796.844 477.34 797.078V797.076ZM469.007 796.991C469.918 796.776 470.845 796.634 471.778 796.566L471.737 796C470.774 796.069 469.817 796.215 468.877 796.439L469.007 796.991Z" fill="#9192FF"/>
<path d="M1302.24 733C1303.22 733 1304.21 732.956 1305.18 732.881L1305.13 732.297C1304.18 732.372 1303.2 732.412 1302.24 732.416L1302.24 733ZM1299.3 732.914L1299.34 732.332C1298.38 732.269 1297.41 732.171 1296.46 732.041L1296.38 732.62C1297.35 732.753 1298.33 732.851 1299.3 732.914ZM1308.09 732.55C1309.06 732.405 1310.03 732.225 1310.98 732.012L1310.86 731.443C1309.92 731.653 1308.96 731.83 1308.01 731.973L1308.09 732.55ZM1293.49 732.115L1293.61 731.545C1292.67 731.347 1291.72 731.111 1290.81 730.845L1290.64 731.405C1291.57 731.676 1292.53 731.914 1293.49 732.115ZM1313.83 731.27C1314.76 730.99 1315.69 730.67 1316.61 730.322L1316.4 729.778C1315.5 730.119 1314.58 730.434 1313.66 730.712L1313.83 731.27ZM1287.84 730.492L1288.05 729.944C1287.14 729.612 1286.24 729.243 1285.37 728.848L1285.13 729.378C1286.01 729.78 1286.93 730.156 1287.84 730.492ZM1319.32 729.175C1320.2 728.762 1321.08 728.311 1321.94 727.837L1321.65 727.326C1320.81 727.793 1319.94 728.239 1319.09 728.645L1319.32 729.175ZM1282.5 728.075L1282.78 727.562C1281.93 727.095 1281.09 726.609 1280.28 726.093L1279.97 726.583C1280.79 727.109 1281.64 727.611 1282.5 728.075ZM1324.45 726.312C1325.27 725.778 1326.08 725.208 1326.85 724.615L1326.5 724.148C1325.73 724.732 1324.94 725.297 1324.13 725.822L1324.45 726.312ZM1277.55 724.911L1277.9 724.444C1277.13 723.87 1276.37 723.263 1275.64 722.635L1275.26 723.076C1276 723.716 1276.77 724.332 1277.55 724.916V724.911ZM1329.12 722.742C1329.85 722.098 1330.57 721.418 1331.26 720.72L1330.84 720.311C1330.16 720.998 1329.46 721.668 1328.74 722.305L1329.12 722.742ZM1273.1 721.084L1273.51 720.668C1272.83 719.991 1272.16 719.267 1271.53 718.567L1271.09 718.95C1271.73 719.674 1272.41 720.407 1273.1 721.084ZM1333.24 718.56C1333.87 717.815 1334.48 717.04 1335.06 716.255L1334.59 715.91C1334.02 716.685 1333.43 717.448 1332.8 718.182L1333.24 718.56ZM1269.24 716.657L1269.71 716.304C1269.13 715.536 1268.57 714.737 1268.04 713.929L1267.56 714.247C1268.09 715.067 1268.65 715.877 1269.24 716.657ZM1336.72 713.829C1337.24 713.002 1337.74 712.15 1338.2 711.288L1337.68 711.015C1337.23 711.86 1336.75 712.703 1336.23 713.516L1336.72 713.829ZM1266.06 711.727L1266.57 711.447C1266.1 710.602 1265.66 709.731 1265.26 708.857L1264.73 709.103C1265.13 709.983 1265.58 710.868 1266.05 711.723L1266.06 711.727ZM1339.49 708.652C1339.88 707.76 1340.25 706.845 1340.58 705.929L1340.03 705.731C1339.71 706.632 1339.33 707.536 1338.95 708.414L1339.49 708.652ZM1263.6 706.382L1264.15 706.177C1263.81 705.275 1263.5 704.351 1263.23 703.428L1262.67 703.594C1262.94 704.528 1263.25 705.462 1263.6 706.382ZM1341.47 703.127C1341.74 702.193 1341.97 701.226 1342.17 700.271L1341.6 700.154C1341.41 701.089 1341.18 702.041 1340.92 702.968L1341.47 703.127ZM1261.94 700.743L1262.51 700.619C1262.3 699.685 1262.13 698.721 1261.99 697.768L1261.42 697.85C1261.55 698.821 1261.73 699.795 1261.94 700.748V700.743ZM1342.65 697.378C1342.78 696.411 1342.87 695.428 1342.93 694.454L1342.35 694.419C1342.29 695.379 1342.2 696.351 1342.07 697.303L1342.65 697.378ZM1261.1 694.933L1261.69 694.893C1261.62 693.936 1261.58 692.962 1261.58 691.998H1261C1261 692.976 1261.03 693.964 1261.1 694.933ZM1342.42 691.524H1343C1343 690.545 1342.94 689.558 1342.86 688.589L1342.28 688.635C1342.36 689.583 1342.4 690.559 1342.42 691.524ZM1261.63 690.055C1261.67 689.091 1261.75 688.119 1261.86 687.169L1261.28 687.099C1261.16 688.066 1261.08 689.051 1261.04 690.027L1261.63 690.055ZM1341.94 685.754L1342.52 685.665C1342.37 684.698 1342.19 683.729 1341.97 682.779L1341.4 682.91C1341.61 683.846 1341.79 684.803 1341.94 685.754ZM1262.32 684.306C1262.5 683.372 1262.72 682.412 1262.97 681.483L1262.4 681.333C1262.15 682.267 1261.94 683.239 1261.74 684.196L1262.32 684.306ZM1340.65 680.112L1341.21 679.942C1340.92 679.008 1340.6 678.074 1340.24 677.161L1339.7 677.373C1340.04 678.27 1340.36 679.192 1340.65 680.112ZM1263.83 678.711C1264.15 677.805 1264.5 676.897 1264.88 676.014L1264.35 675.781C1263.96 676.675 1263.6 677.595 1263.28 678.515L1263.83 678.711ZM1338.55 674.709L1339.08 674.459C1338.66 673.579 1338.21 672.698 1337.73 671.848L1337.22 672.135C1337.68 672.974 1338.13 673.84 1338.55 674.709ZM1266.11 673.406C1266.55 672.551 1267.03 671.703 1267.54 670.886L1267.04 670.58C1266.53 671.412 1266.04 672.271 1265.59 673.137L1266.11 673.406ZM1335.69 669.67L1336.18 669.347C1335.64 668.535 1335.07 667.731 1334.47 666.958L1334 667.316C1334.58 668.072 1335.16 668.864 1335.69 669.665V669.67ZM1269.13 668.479C1269.69 667.696 1270.29 666.926 1270.9 666.186L1270.45 665.814C1269.83 666.564 1269.22 667.346 1268.66 668.138L1269.13 668.479ZM1332.15 665.081L1332.59 664.693C1331.94 663.965 1331.26 663.253 1330.55 662.573L1330.15 662.991C1330.85 663.664 1331.51 664.364 1332.15 665.081ZM1272.83 664.021C1273.5 663.32 1274.19 662.648 1274.91 662.003L1274.52 661.571C1273.79 662.225 1273.09 662.914 1272.42 663.617L1272.83 664.021ZM1328 661.051L1328.38 660.602C1327.63 659.974 1326.85 659.367 1326.06 658.793L1325.72 659.26C1326.5 659.832 1327.26 660.432 1328 661.051ZM1277.13 660.138C1277.88 659.547 1278.67 658.97 1279.47 658.435L1279.15 657.952C1278.34 658.496 1277.54 659.077 1276.77 659.678L1277.13 660.138ZM1323.32 657.651L1323.62 657.153C1322.8 656.64 1321.94 656.147 1321.08 655.694L1320.81 656.21C1321.66 656.658 1322.5 657.142 1323.32 657.651ZM1281.93 656.906C1282.77 656.427 1283.63 655.972 1284.5 655.556L1284.25 655.028C1283.37 655.453 1282.49 655.913 1281.65 656.399L1281.93 656.906ZM1318.2 654.956L1318.43 654.421C1317.54 654.029 1316.62 653.667 1315.7 653.34L1315.51 653.891C1316.41 654.211 1317.32 654.571 1318.2 654.956ZM1287.14 654.393C1288.04 654.041 1288.96 653.714 1289.88 653.426L1289.7 652.868C1288.77 653.16 1287.83 653.492 1286.93 653.851L1287.14 654.393ZM1312.73 653.022L1312.89 652.46C1311.95 652.2 1310.99 651.974 1310.03 651.783L1309.92 652.355C1310.87 652.544 1311.82 652.768 1312.75 653.022H1312.73ZM1292.67 652.658C1293.6 652.439 1294.56 652.25 1295.51 652.095L1295.42 651.519C1294.45 651.675 1293.48 651.867 1292.53 652.091L1292.67 652.658ZM1307.06 651.895L1307.13 651.313C1306.16 651.194 1305.18 651.105 1304.2 651.054L1304.17 651.638C1305.15 651.689 1306.12 651.776 1307.07 651.895H1307.06ZM1298.38 651.738C1299.34 651.654 1300.31 651.603 1301.28 651.584L1301.26 651C1300.29 651.019 1299.3 651.07 1298.33 651.157L1298.38 651.738Z" fill="#9192FF"/>
<path d="M831.83 828.351C834.83 828.352 837.763 827.462 840.257 825.795C842.752 824.128 844.696 821.758 845.845 818.985C846.993 816.212 847.294 813.16 846.709 810.216C846.124 807.272 844.679 804.568 842.558 802.445C840.436 800.322 837.734 798.877 834.791 798.292C831.849 797.706 828.799 798.007 826.028 799.156C823.256 800.305 820.887 802.251 819.221 804.747C817.555 807.243 816.666 810.178 816.667 813.179C816.671 817.202 818.27 821.058 821.113 823.902C823.956 826.746 827.81 828.346 831.83 828.351ZM831.83 798.68C834.695 798.683 837.495 799.536 839.876 801.131C842.258 802.726 844.113 804.991 845.207 807.641C846.302 810.29 846.587 813.205 846.026 816.017C845.465 818.828 844.084 821.411 842.057 823.437C840.03 825.463 837.448 826.843 834.637 827.401C831.827 827.959 828.914 827.671 826.267 826.573C823.62 825.476 821.357 823.617 819.766 821.233C818.174 818.849 817.325 816.046 817.325 813.179C817.329 809.333 818.859 805.645 821.579 802.927C824.299 800.208 827.985 798.681 831.83 798.68Z" fill="#9192FF"/>
<path opacity="0.4" d="M740 446C735.029 446 731 441.971 731 437C731 432.03 735.029 428 740 428C744.971 428 749 432.03 749 437C749 441.971 744.971 446 740 446Z" fill="#E5E5FF"/>
<path d="M768.629 474.717C770.096 474.712 771.56 474.592 773.008 474.357L772.868 473.469C771.466 473.69 770.049 473.801 768.629 473.799H768.464V474.699L768.629 474.717ZM763.917 474.321L764.064 473.433C762.611 473.189 761.181 472.828 759.786 472.354L759.495 473.206C760.937 473.693 762.416 474.066 763.917 474.321ZM777.44 473.31C778.888 472.835 780.296 472.246 781.65 471.548L781.237 470.749C779.926 471.426 778.562 471.996 777.16 472.454L777.44 473.31ZM755.31 471.39L755.731 470.595C754.425 469.903 753.176 469.108 751.996 468.217L751.45 468.936C752.67 469.855 753.961 470.675 755.31 471.39ZM785.507 469.141C786.73 468.234 787.88 467.231 788.944 466.142L788.3 465.512C787.271 466.568 786.158 467.539 784.972 468.415L785.507 469.141ZM748.052 465.886L748.707 465.268C747.692 464.198 746.765 463.048 745.935 461.829L745.191 462.336C746.053 463.595 747.014 464.782 748.067 465.886H748.052ZM791.852 462.627C792.726 461.38 793.498 460.064 794.16 458.692L793.351 458.3C792.71 459.629 791.963 460.904 791.119 462.113L791.852 462.627ZM742.933 458.372L743.746 457.991C743.122 456.654 742.604 455.269 742.196 453.851L741.334 454.099C741.758 455.564 742.298 456.993 742.948 458.372H742.933ZM795.824 454.437C796.26 452.977 796.578 451.484 796.777 449.973L795.886 449.858C795.694 451.32 795.385 452.763 794.962 454.175L795.824 454.437ZM740.464 449.624L741.355 449.52C741.23 448.458 741.168 447.389 741.168 446.319C741.168 445.916 741.168 445.506 741.193 445.103L740.295 445.064C740.295 445.481 740.27 445.902 740.27 446.319C740.266 447.423 740.327 448.527 740.453 449.624H740.464ZM796.101 445.445L797 445.416C796.95 443.893 796.777 442.376 796.482 440.88L795.602 441.053C795.884 442.501 796.052 443.97 796.101 445.445ZM741.736 440.718C742.038 439.275 742.455 437.858 742.984 436.481L742.146 436.158C741.599 437.58 741.166 439.044 740.852 440.535L741.736 440.718ZM794.415 436.801L795.26 436.488C794.729 435.06 794.086 433.675 793.337 432.348L792.553 432.791C793.281 434.075 793.904 435.417 794.415 436.801ZM743.066 436.273C743.606 434.904 744.254 433.581 745.004 432.316L744.231 431.859C743.455 433.17 742.785 434.541 742.229 435.96L743.066 436.273ZM790.076 429.129L790.777 428.568C789.826 427.379 788.78 426.268 787.65 425.248L787.049 425.913C788.142 426.903 789.154 427.979 790.076 429.129ZM747.549 428.69C748.495 427.564 749.53 426.515 750.644 425.554L750.058 424.874C748.906 425.865 747.836 426.948 746.859 428.111L747.549 428.69ZM783.544 423.23L784.03 422.471C782.749 421.647 781.405 420.925 780.011 420.313L779.651 421.14C781.003 421.731 782.305 422.43 783.544 423.23ZM754.207 422.932C755.461 422.156 756.777 421.484 758.14 420.921L757.78 420.09C756.373 420.672 755.014 421.366 753.718 422.165L754.207 422.932ZM775.474 419.694L775.7 418.824C774.226 418.444 772.723 418.184 771.207 418.047L771.124 418.943C772.592 419.078 774.047 419.33 775.474 419.698V419.694ZM762.342 419.561C763.778 419.222 765.238 418.998 766.71 418.892L766.645 418C765.126 418.108 763.619 418.339 762.137 418.691L762.342 419.561Z" fill="#9192FF"/>
</svg>
