<svg width="16" height="16" viewBox="0 0 16 16" fill="none" xmlns="http://www.w3.org/2000/svg">
<path d="M14.8017 2.75879H1.19828C0.536469 2.75879 0 3.29526 0 3.95707V12.0433C0 12.7051 0.536469 13.2416 1.19828 13.2416H14.8017C15.4635 13.2416 16 12.7051 16 12.0433V3.95707C16 3.29526 15.4635 2.75879 14.8017 2.75879Z" fill="#FF4B55"/>
<path d="M2.65638 4.39786L2.91938 5.18642L3.75063 5.19286C3.85826 5.19367 3.90288 5.33104 3.81629 5.39495L3.1476 5.88873L3.39832 6.68129C3.43076 6.78391 3.31394 6.86876 3.22638 6.8062L2.55013 6.32279L1.87388 6.80616C1.78632 6.86876 1.66951 6.78385 1.70194 6.68126L1.95266 5.8887L1.28397 5.39495C1.19738 5.33101 1.24201 5.19367 1.34963 5.19286L2.18088 5.18642L2.44388 4.39786C2.47794 4.29577 2.62235 4.29577 2.65638 4.39786Z" fill="#FFE15A"/>
<path d="M5.67524 4.59211L5.86383 4.84923L6.16817 4.75405C6.20758 4.74173 6.23998 4.78667 6.21586 4.82014L6.02955 5.07892L6.21411 5.33895C6.23802 5.37261 6.2053 5.41733 6.16598 5.40473L5.86227 5.30751L5.67199 5.56342C5.64736 5.59655 5.59471 5.57923 5.59455 5.53798L5.59314 5.21908L5.29096 5.11717C5.25183 5.10395 5.25202 5.04858 5.29124 5.03564L5.59405 4.93576L5.59761 4.61689C5.59805 4.57573 5.65083 4.55883 5.67524 4.59211Z" fill="#FFE15A"/>
<path d="M4.52674 3.82548L4.84374 3.85992L4.97899 3.57114C4.99652 3.53376 5.05156 3.54017 5.05996 3.58057L5.12515 3.8927L5.44159 3.93207C5.48256 3.93717 5.49346 3.99148 5.45762 4.01201L5.1809 4.17045L5.24124 4.48357C5.24906 4.52414 5.20077 4.55126 5.17018 4.52354L4.93396 4.30932L4.65484 4.46345C4.61871 4.48342 4.57793 4.44585 4.59487 4.4082L4.72559 4.11732L4.49271 3.89945C4.46262 3.87139 4.48571 3.82104 4.52674 3.82548Z" fill="#FFE15A"/>
<path d="M5.02788 6.91585L4.83932 7.17304L4.53498 7.07785C4.49557 7.06554 4.46317 7.11045 4.48729 7.14395L4.6736 7.40273L4.48904 7.66276C4.46513 7.69642 4.49785 7.74114 4.53717 7.72854L4.84085 7.63132L5.03113 7.88723C5.05576 7.92036 5.10841 7.90304 5.10857 7.86179L5.10998 7.54289L5.41216 7.44098C5.45129 7.42776 5.4511 7.37238 5.41188 7.35945L5.10907 7.25957L5.10551 6.94069C5.10501 6.89947 5.05229 6.88254 5.02788 6.91585Z" fill="#FFE15A"/>
<path d="M6.17623 6.1956L5.8592 6.23004L5.72395 5.94125C5.70642 5.90388 5.65142 5.91029 5.64298 5.95069L5.57776 6.26282L5.26133 6.30219C5.22036 6.30729 5.20945 6.3616 5.2453 6.38213L5.52201 6.54057L5.46167 6.85369C5.45386 6.89425 5.50214 6.92138 5.53273 6.89366L5.76895 6.67944L6.04807 6.83357C6.0842 6.85354 6.12498 6.81597 6.10804 6.77832L5.97733 6.48744L6.2102 6.26957C6.24042 6.2415 6.21732 6.19116 6.17623 6.1956Z" fill="#FFE15A"/>
</svg>
