<svg width="16" height="16" viewBox="0 0 16 16" fill="none" xmlns="http://www.w3.org/2000/svg">
<path d="M0 12.043C0 12.7048 0.536469 13.2413 1.19828 13.2413H14.8017C15.4635 13.2413 16 12.7049 16 12.043V11.0344H0V12.043Z" fill="#C8414B"/>
<path d="M14.8017 2.75879H1.19828C0.536469 2.75879 0 3.29526 0 3.95707V4.9657H16V3.95707C16 3.29526 15.4635 2.75879 14.8017 2.75879Z" fill="#C8414B"/>
<path d="M16 4.96582H0V11.0349H16V4.96582Z" fill="#FFD250"/>
<path d="M6.75865 8.0002L6.99255 6.94766C7.01411 6.85073 6.94033 6.75879 6.84102 6.75879H6.67627C6.57699 6.75879 6.50324 6.85076 6.52474 6.94766L6.75865 8.0002Z" fill="#C8414B"/>
<path d="M7.03414 7.44824H6.48242V9.79293H7.03414V7.44824Z" fill="#F5F5F5"/>
<path d="M7.17232 7.17261H6.34473V7.44848H7.17232V7.17261Z" fill="#FAB446"/>
<path d="M7.17234 8H5.79297V8.27588H7.17234V8Z" fill="#C8414B"/>
<path d="M7.17232 9.10372L6.34473 8.82788V8.552L7.17232 8.82788V9.10372Z" fill="#C8414B"/>
<path d="M2.62047 8.0002L2.85437 6.94766C2.87594 6.85073 2.80215 6.75879 2.70284 6.75879H2.53809C2.43881 6.75879 2.36506 6.85076 2.38656 6.94766L2.62047 8.0002Z" fill="#C8414B"/>
<path d="M3.58593 7.17236C3.43359 7.17236 3.31006 7.29589 3.31006 7.44824V9.24133C3.31006 9.57649 3.62287 10.2069 4.68937 10.2069C5.75587 10.2069 6.06868 9.57652 6.06868 9.24133V7.44824C6.06868 7.29589 5.94515 7.17236 5.79281 7.17236H3.58593Z" fill="#F5F5F5"/>
<path d="M4.68937 8.55168H3.31006V7.44824C3.31006 7.29589 3.43359 7.17236 3.58593 7.17236H4.68937V8.55168Z" fill="#C8414B"/>
<path d="M4.68896 8.55151H6.06828V9.24117C6.06828 9.62208 5.75953 9.93083 5.37862 9.93083C4.99771 9.93083 4.68896 9.62208 4.68896 9.24117V8.55151Z" fill="#C8414B"/>
<path d="M3.31006 8.55176H4.68937V9.24141C4.68937 9.62232 4.38062 9.93107 3.99971 9.93107C3.61881 9.93107 3.31006 9.62232 3.31006 9.24141V8.55176Z" fill="#FAB446"/>
<path d="M4.41406 9.79004V8.55176H4.13818V9.91716C4.24081 9.89635 4.33353 9.85091 4.41406 9.79004Z" fill="#C8414B"/>
<path d="M3.8623 9.91716V8.55176H3.58643V9.79004C3.66699 9.85091 3.75971 9.89635 3.8623 9.91716Z" fill="#C8414B"/>
<path d="M4.41401 8H3.58643V8.27588H4.41401V8Z" fill="#FFB441"/>
<path d="M4.41401 7.44824H3.58643V7.72412H4.41401V7.44824Z" fill="#FAB446"/>
<path d="M4.27584 7.6123H3.72412V8.11205H4.27584V7.6123Z" fill="#FAB446"/>
<path d="M2.89645 7.44824H2.34473V9.79293H2.89645V7.44824Z" fill="#F5F5F5"/>
<path d="M3.03462 9.65527H2.20703V9.93115H3.03462V9.65527Z" fill="#FAB446"/>
<path d="M3.03462 7.17261H2.20703V7.44848H3.03462V7.17261Z" fill="#FAB446"/>
<path d="M3.17229 9.93091H2.06885V10.2068H3.17229V9.93091Z" fill="#5064AA"/>
<path d="M7.31002 9.65527H6.48242V9.93115H7.31002V9.65527Z" fill="#FAB446"/>
<path d="M7.31047 9.93091H6.20703V10.2068H7.31047V9.93091Z" fill="#5064AA"/>
<path d="M5.51749 6.89648H3.8623V7.17236H5.51749V6.89648Z" fill="#FAB446"/>
<path d="M4.82763 6.06909H4.55176V6.89669H4.82763V6.06909Z" fill="#FFB441"/>
<path d="M4.41378 6.48284C4.18559 6.48284 4 6.29721 4 6.06905C4 5.84087 4.18562 5.65527 4.41378 5.65527C4.64197 5.65527 4.82756 5.8409 4.82756 6.06905C4.82759 6.29721 4.64197 6.48284 4.41378 6.48284ZM4.41378 5.93112C4.33769 5.93112 4.27584 5.99293 4.27584 6.06905C4.27584 6.14515 4.33766 6.20699 4.41378 6.20699C4.48991 6.20699 4.55172 6.14518 4.55172 6.06905C4.55172 5.99296 4.48991 5.93112 4.41378 5.93112Z" fill="#F5F5F5"/>
<path d="M4.96554 6.48284C4.73735 6.48284 4.55176 6.29721 4.55176 6.06905C4.55176 5.84087 4.73738 5.65527 4.96554 5.65527C5.19373 5.65527 5.37932 5.8409 5.37932 6.06905C5.37932 6.29721 5.1937 6.48284 4.96554 6.48284ZM4.96554 5.93112C4.88945 5.93112 4.8276 5.99293 4.8276 6.06905C4.8276 6.14515 4.88941 6.20699 4.96554 6.20699C5.04163 6.20699 5.10348 6.14518 5.10348 6.06905C5.10345 5.99296 5.04163 5.93112 4.96554 5.93112Z" fill="#F5F5F5"/>
<path d="M5.5173 6.75871C5.28911 6.75871 5.10352 6.57309 5.10352 6.34493C5.10352 6.11675 5.28914 5.93115 5.5173 5.93115C5.74548 5.93115 5.93108 6.11678 5.93108 6.34493C5.93108 6.57309 5.74545 6.75871 5.5173 6.75871ZM5.5173 6.207C5.4412 6.207 5.37936 6.26881 5.37936 6.34493C5.37936 6.42103 5.44117 6.48287 5.5173 6.48287C5.59339 6.48287 5.65523 6.42106 5.65523 6.34493C5.65523 6.26881 5.59339 6.207 5.5173 6.207Z" fill="#F5F5F5"/>
<path d="M3.86202 6.75871C3.63384 6.75871 3.44824 6.57309 3.44824 6.34493C3.44824 6.11675 3.63387 5.93115 3.86202 5.93115C4.09021 5.93115 4.2758 6.11678 4.2758 6.34493C4.27584 6.57309 4.09021 6.75871 3.86202 6.75871ZM3.86202 6.207C3.78593 6.207 3.72409 6.26881 3.72409 6.34493C3.72409 6.42103 3.7859 6.48287 3.86202 6.48287C3.93815 6.48287 3.99996 6.42103 3.99996 6.3449C3.99996 6.26881 3.93815 6.207 3.86202 6.207Z" fill="#F5F5F5"/>
<path d="M5.51708 9.10348V9.24142C5.51708 9.31748 5.45521 9.37936 5.37914 9.37936C5.30308 9.37936 5.24121 9.31748 5.24121 9.24142V9.10348H5.51708ZM5.79293 8.82764H4.96533V9.24142C4.96533 9.46961 5.15096 9.6552 5.37911 9.6552C5.6073 9.6552 5.7929 9.46957 5.7929 9.24142V8.82764H5.79293Z" fill="#FAB446"/>
<path d="M5.37939 8.27611C5.22705 8.27611 5.10352 8.15258 5.10352 8.00024V7.72436C5.10352 7.57202 5.22705 7.44849 5.37939 7.44849C5.53173 7.44849 5.65527 7.57202 5.65527 7.72436V8.00024C5.65527 8.15258 5.53173 8.27611 5.37939 8.27611Z" fill="#FFA0D2"/>
<path d="M4.68966 8.96526C4.91819 8.96526 5.10344 8.78 5.10344 8.55148C5.10344 8.32295 4.91819 8.1377 4.68966 8.1377C4.46114 8.1377 4.27588 8.32295 4.27588 8.55148C4.27588 8.78 4.46114 8.96526 4.68966 8.96526Z" fill="#5064AA"/>
<path d="M4.82763 5.51733H4.55176V6.34493H4.82763V5.51733Z" fill="#FAB446"/>
<path d="M3.8623 6.89644L3.58643 6.62057L3.74802 6.45897C3.9978 6.20919 4.33661 6.06885 4.68989 6.06885C5.04317 6.06885 5.38195 6.20919 5.63176 6.45897L5.79336 6.62057L5.51748 6.89644H3.8623Z" fill="#C8414B"/>
<path d="M4.6897 6.75879C4.76588 6.75879 4.82763 6.69703 4.82763 6.62085C4.82763 6.54467 4.76588 6.48291 4.6897 6.48291C4.61351 6.48291 4.55176 6.54467 4.55176 6.62085C4.55176 6.69703 4.61351 6.75879 4.6897 6.75879Z" fill="#FFD250"/>
<path d="M4.13794 6.75879C4.21412 6.75879 4.27588 6.69703 4.27588 6.62085C4.27588 6.54467 4.21412 6.48291 4.13794 6.48291C4.06176 6.48291 4 6.54467 4 6.62085C4 6.69703 4.06176 6.75879 4.13794 6.75879Z" fill="#FFD250"/>
<path d="M5.24145 6.75879C5.31763 6.75879 5.37939 6.69703 5.37939 6.62085C5.37939 6.54467 5.31763 6.48291 5.24145 6.48291C5.16527 6.48291 5.10352 6.54467 5.10352 6.62085C5.10352 6.69703 5.16527 6.75879 5.24145 6.75879Z" fill="#FFD250"/>
<path d="M3.58641 8H2.20703V8.27588H3.58641V8Z" fill="#C8414B"/>
<path d="M2.20703 9.10348L3.03459 8.82763V8.55176L2.20703 8.82763V9.10348Z" fill="#C8414B"/>
</svg>
