<svg width="16" height="16" viewBox="0 0 16 16" fill="none" xmlns="http://www.w3.org/2000/svg">
<path d="M14.8017 2.75879H1.19828C0.536469 2.75879 0 3.29526 0 3.95707V12.0433C0 12.7051 0.536469 13.2416 1.19828 13.2416H14.8017C15.4635 13.2416 16 12.7051 16 12.0433V3.95707C16 3.29526 15.4635 2.75879 14.8017 2.75879Z" fill="#41479B"/>
<path d="M15.9834 3.75901C15.889 3.19154 15.396 2.75879 14.8017 2.75879H14.4899L9.37931 6.10713V2.75882H6.62069V6.10716L1.51006 2.75882H1.19828C0.604 2.75882 0.111031 3.19154 0.0165938 3.75904L4.38466 6.62091H0V9.37954H4.38466L0.0165938 12.2414C0.111031 12.8088 0.604 13.2416 1.19828 13.2416H1.51006L6.62069 9.89323V13.2416H9.37931V9.89323L14.4899 13.2416H14.8017C15.396 13.2416 15.889 12.8089 15.9834 12.2414L11.6153 9.37948H16V6.62085H11.6153L15.9834 3.75901Z" fill="#F5F5F5"/>
<path d="M8.82759 2.75879H7.17241V7.17257H0V8.82776H7.17241V13.2415H8.82759V8.82776H16V7.17257H8.82759V2.75879Z" fill="#FF4B55"/>
<path d="M0.774617 13.1645L6.60534 9.37964H5.59196L0.288086 12.8225C0.417867 12.974 0.584648 13.0927 0.774617 13.1645Z" fill="#FF4B55"/>
<path d="M10.8244 9.37964H9.81104L15.4584 13.0454C15.6164 12.9416 15.7483 12.8015 15.8424 12.6368L10.8244 9.37964Z" fill="#FF4B55"/>
<path d="M0.126465 3.42139L5.05553 6.62099H6.0689L0.483527 2.99536C0.333559 3.10699 0.21084 3.25292 0.126465 3.42139Z" fill="#FF4B55"/>
<path d="M10.3923 6.62087L15.7059 3.17165C15.5747 3.02068 15.4066 2.90268 15.2153 2.83228L9.37891 6.62087H10.3923Z" fill="#FF4B55"/>
</svg>
