<svg width="16" height="16" viewBox="0 0 16 16" fill="none" xmlns="http://www.w3.org/2000/svg">
<path d="M14.8017 2.75879H1.19828C0.536469 2.75879 0 3.29526 0 3.95707V12.0433C0 12.7051 0.536469 13.2416 1.19828 13.2416H14.8017C15.4635 13.2416 16 12.7051 16 12.0433V3.95707C16 3.29526 15.4635 2.75879 14.8017 2.75879Z" fill="#F5F5F5"/>
<path d="M0.065918 3.56516H15.9341C15.7717 3.09588 15.3262 2.75879 14.8017 2.75879H1.19829C0.673793 2.75879 0.228324 3.09588 0.065918 3.56516Z" fill="#FF4B55"/>
<path d="M16 5.98438H0V6.79072H16V5.98438Z" fill="#FF4B55"/>
<path d="M16 4.37134H0V5.17768H16V4.37134Z" fill="#FF4B55"/>
<path d="M0 8.12766C0 8.28 0.123531 8.40353 0.275875 8.40353H16V7.59717H0V8.12766Z" fill="#FF4B55"/>
<path d="M16 10.8228H0V11.6291H16V10.8228Z" fill="#FF4B55"/>
<path d="M15.9341 12.4351H0.065918C0.228324 12.9043 0.673824 13.2414 1.19829 13.2414H14.8017C15.3262 13.2414 15.7717 12.9043 15.9341 12.4351Z" fill="#FF4B55"/>
<path d="M16 9.20972H0V10.0161H16V9.20972Z" fill="#FF4B55"/>
<path d="M0.275875 8.40338H7.17244C7.32478 8.40338 7.44831 8.27985 7.44831 8.12751V3.03466C7.44831 2.88229 7.32478 2.75879 7.17244 2.75879H1.19828C0.536469 2.75882 0 3.29529 0 3.9571V8.12751C0 8.27988 0.123531 8.40338 0.275875 8.40338Z" fill="#41479B"/>
<path d="M0.775061 3.39205L0.836123 3.57518L1.02915 3.57665C1.05415 3.57687 1.0645 3.60874 1.0444 3.62358L0.889123 3.73824L0.947373 3.92227C0.954935 3.94608 0.927779 3.96583 0.907436 3.95127L0.750405 3.83905L0.593374 3.9513C0.57303 3.96587 0.545937 3.94612 0.553437 3.9223L0.611687 3.73827L0.456406 3.62362C0.436312 3.60874 0.446656 3.57687 0.471656 3.57668L0.664686 3.57521L0.725749 3.39208C0.733624 3.36833 0.767123 3.36833 0.775061 3.39205Z" fill="#F5F5F5"/>
<path d="M0.775061 4.34979L0.836123 4.53292L1.02915 4.53439C1.05415 4.53461 1.0645 4.56645 1.0444 4.58133L0.889123 4.69602L0.947373 4.88005C0.954935 4.90386 0.927779 4.92361 0.907436 4.90905L0.750405 4.79683L0.593374 4.90908C0.57303 4.92361 0.545937 4.90389 0.553437 4.88008L0.611687 4.69605L0.456406 4.58136C0.436312 4.56648 0.446656 4.53464 0.471656 4.53442L0.664686 4.53295L0.725749 4.34982C0.733624 4.32611 0.767123 4.32611 0.775061 4.34979Z" fill="#F5F5F5"/>
<path d="M0.775061 5.30782L0.836123 5.49095L1.02915 5.49242C1.05415 5.49264 1.0645 5.52448 1.0444 5.53936L0.889123 5.65404L0.947373 5.83808C0.954935 5.86189 0.927779 5.88164 0.907436 5.86708L0.750405 5.75486L0.593374 5.86711C0.57303 5.88164 0.545937 5.86195 0.553437 5.83811L0.611687 5.65408L0.456406 5.53939C0.436312 5.52451 0.446656 5.49267 0.471656 5.49245L0.664686 5.49098L0.725749 5.30786C0.733624 5.28411 0.767123 5.28411 0.775061 5.30782Z" fill="#F5F5F5"/>
<path d="M0.775061 6.26583L0.836123 6.44895L1.02915 6.45042C1.05415 6.45064 1.0645 6.48252 1.0444 6.49736L0.889123 6.61205L0.947373 6.79608C0.954935 6.81989 0.927779 6.83964 0.907436 6.82507L0.750405 6.71286L0.593374 6.82511C0.57303 6.83964 0.545937 6.81992 0.553437 6.79611L0.611687 6.61208L0.456406 6.49739C0.436312 6.48258 0.446656 6.45067 0.471656 6.45045L0.664686 6.44899L0.725749 6.26586C0.733624 6.24211 0.767123 6.24211 0.775061 6.26583Z" fill="#F5F5F5"/>
<path d="M0.775061 7.22382L0.836123 7.40694L1.02915 7.40841C1.05415 7.40863 1.0645 7.44047 1.0444 7.45535L0.889123 7.57004L0.947373 7.75407C0.954935 7.77788 0.927779 7.79763 0.907436 7.78307L0.750405 7.67085L0.593374 7.7831C0.57303 7.79763 0.545937 7.77791 0.553437 7.7541L0.611687 7.57007L0.456406 7.45538C0.436312 7.4405 0.446656 7.40866 0.471656 7.40844L0.664686 7.40697L0.725749 7.22385C0.733624 7.20013 0.767123 7.20013 0.775061 7.22382Z" fill="#F5F5F5"/>
<path d="M1.51871 3.86152L1.57978 4.04464L1.77281 4.04611C1.79781 4.04633 1.80815 4.07821 1.78806 4.09305L1.63278 4.20774L1.69103 4.39177C1.69859 4.41558 1.67143 4.43533 1.65109 4.42077L1.49406 4.30852L1.33703 4.42077C1.31668 4.4353 1.28959 4.41558 1.29709 4.39177L1.35534 4.20774L1.20006 4.09305C1.17996 4.07817 1.19031 4.04633 1.21531 4.04611L1.40834 4.04464L1.4694 3.86152C1.47728 3.83783 1.51081 3.83783 1.51871 3.86152Z" fill="#F5F5F5"/>
<path d="M1.51871 4.8193L1.57978 5.00243L1.77281 5.0039C1.79781 5.00412 1.80815 5.03599 1.78806 5.05083L1.63278 5.16552L1.69103 5.34955C1.69859 5.37337 1.67143 5.39312 1.65109 5.37855L1.49406 5.2663L1.33703 5.37855C1.31668 5.39308 1.28959 5.3734 1.29709 5.34955L1.35534 5.16552L1.20006 5.05083C1.17996 5.03602 1.19031 5.00412 1.21531 5.0039L1.40834 5.00243L1.4694 4.8193C1.47728 4.79558 1.51081 4.79558 1.51871 4.8193Z" fill="#F5F5F5"/>
<path d="M1.51871 5.77755L1.57978 5.96068L1.77281 5.96215C1.79781 5.96237 1.80815 5.99421 1.78806 6.00909L1.63278 6.12378L1.69103 6.30781C1.69859 6.33162 1.67143 6.35137 1.65109 6.33681L1.49406 6.22456L1.33703 6.33681C1.31668 6.35134 1.28959 6.33162 1.29709 6.30781L1.35534 6.12378L1.20006 6.00909C1.17996 5.99421 1.19031 5.96237 1.21531 5.96215L1.40834 5.96068L1.4694 5.77755C1.47728 5.75384 1.51081 5.75384 1.51871 5.77755Z" fill="#F5F5F5"/>
<path d="M1.51871 6.73554L1.57978 6.91866L1.77281 6.92013C1.79781 6.92035 1.80815 6.95219 1.78806 6.96707L1.63278 7.08176L1.69103 7.26579C1.69859 7.2896 1.67143 7.30935 1.65109 7.29479L1.49406 7.18254L1.33703 7.29479C1.31668 7.30935 1.28959 7.2896 1.29709 7.26579L1.35534 7.08176L1.20006 6.96707C1.17996 6.95219 1.19031 6.92035 1.21531 6.92013L1.40834 6.91866L1.4694 6.73554C1.47728 6.71185 1.51081 6.71185 1.51871 6.73554Z" fill="#F5F5F5"/>
<path d="M2.26237 3.39181L2.32343 3.57494L2.51646 3.57641C2.54146 3.57663 2.5518 3.6085 2.53171 3.62334L2.37643 3.738L2.43468 3.92203C2.44224 3.94585 2.41508 3.9656 2.39474 3.95103L2.23771 3.83878L2.08068 3.95103C2.06033 3.9656 2.03324 3.94585 2.04074 3.92203L2.09899 3.738L1.94371 3.62334C1.92362 3.60847 1.93396 3.57659 1.95896 3.57641L2.15199 3.57494L2.21305 3.39181C2.22093 3.36809 2.25446 3.36809 2.26237 3.39181Z" fill="#F5F5F5"/>
<path d="M2.26237 4.3498L2.32343 4.53292L2.51646 4.53439C2.54146 4.53461 2.5518 4.56645 2.53171 4.58133L2.37643 4.69601L2.43468 4.88005C2.44224 4.90386 2.41508 4.92361 2.39474 4.90905L2.23771 4.7968L2.08068 4.90905C2.06033 4.92358 2.03324 4.90386 2.04074 4.88005L2.09899 4.69601L1.94371 4.58133C1.92362 4.56645 1.93396 4.53461 1.95896 4.53439L2.15199 4.53292L2.21305 4.3498C2.22093 4.32611 2.25446 4.32611 2.26237 4.3498Z" fill="#F5F5F5"/>
<path d="M2.26237 5.30758L2.32343 5.49071L2.51646 5.49218C2.54146 5.4924 2.5518 5.52424 2.53171 5.53912L2.37643 5.6538L2.43468 5.83783C2.44224 5.86165 2.41508 5.8814 2.39474 5.86683L2.23771 5.75458L2.08068 5.86683C2.06033 5.88137 2.03324 5.86168 2.04074 5.83783L2.09899 5.6538L1.94371 5.53912C1.92362 5.52424 1.93396 5.4924 1.95896 5.49218L2.15199 5.49071L2.21305 5.30758C2.22093 5.28387 2.25446 5.28387 2.26237 5.30758Z" fill="#F5F5F5"/>
<path d="M2.26237 6.26584L2.32343 6.44896L2.51646 6.45043C2.54146 6.45065 2.5518 6.48252 2.53171 6.49737L2.37643 6.61206L2.43468 6.79609C2.44224 6.8199 2.41508 6.83965 2.39474 6.82509L2.23771 6.71284L2.08068 6.82509C2.06033 6.83962 2.03324 6.8199 2.04074 6.79609L2.09899 6.61206L1.94371 6.49737C1.92362 6.48256 1.93396 6.45065 1.95896 6.45043L2.15199 6.44896L2.21305 6.26584C2.22093 6.24212 2.25446 6.24212 2.26237 6.26584Z" fill="#F5F5F5"/>
<path d="M2.26237 7.22382L2.32343 7.40694L2.51646 7.40841C2.54146 7.40863 2.5518 7.44048 2.53171 7.45535L2.37643 7.57004L2.43468 7.75407C2.44224 7.77788 2.41508 7.79763 2.39474 7.78307L2.23771 7.67082L2.08068 7.78307C2.06033 7.7976 2.03324 7.77788 2.04074 7.75407L2.09899 7.57004L1.94371 7.45535C1.92362 7.44048 1.93396 7.40863 1.95896 7.40841L2.15199 7.40694L2.21305 7.22382C2.22093 7.20013 2.25446 7.20013 2.26237 7.22382Z" fill="#F5F5F5"/>
<path d="M3.00602 3.86152L3.06708 4.04464L3.26011 4.04611C3.28511 4.04633 3.29546 4.07821 3.27536 4.09305L3.12008 4.20774L3.17833 4.39177C3.18589 4.41558 3.15874 4.43533 3.13839 4.42077L2.98136 4.30852L2.82433 4.42077C2.80399 4.4353 2.77689 4.41558 2.78439 4.39177L2.84264 4.20774L2.68736 4.09305C2.66727 4.07817 2.67761 4.04633 2.70261 4.04611L2.89564 4.04464L2.95671 3.86152C2.96455 3.83783 2.99811 3.83783 3.00602 3.86152Z" fill="#F5F5F5"/>
<path d="M3.00602 4.8193L3.06708 5.00243L3.26011 5.0039C3.28511 5.00412 3.29546 5.03599 3.27536 5.05083L3.12008 5.16552L3.17833 5.34955C3.18589 5.37337 3.15874 5.39312 3.13839 5.37855L2.98136 5.2663L2.82433 5.37855C2.80399 5.39308 2.77689 5.3734 2.78439 5.34955L2.84264 5.16552L2.68736 5.05083C2.66727 5.03602 2.67761 5.00412 2.70261 5.0039L2.89564 5.00243L2.95671 4.8193C2.96455 4.79558 2.99811 4.79558 3.00602 4.8193Z" fill="#F5F5F5"/>
<path d="M3.00602 5.77755L3.06708 5.96068L3.26011 5.96215C3.28511 5.96237 3.29546 5.99421 3.27536 6.00909L3.12008 6.12378L3.17833 6.30781C3.18589 6.33162 3.15874 6.35137 3.13839 6.33681L2.98136 6.22456L2.82433 6.33681C2.80399 6.35134 2.77689 6.33162 2.78439 6.30781L2.84264 6.12378L2.68736 6.00909C2.66727 5.99421 2.67761 5.96237 2.70261 5.96215L2.89564 5.96068L2.95671 5.77755C2.96455 5.75384 2.99811 5.75384 3.00602 5.77755Z" fill="#F5F5F5"/>
<path d="M3.00602 6.73554L3.06708 6.91866L3.26011 6.92013C3.28511 6.92035 3.29546 6.95219 3.27536 6.96707L3.12008 7.08176L3.17833 7.26579C3.18589 7.2896 3.15874 7.30935 3.13839 7.29479L2.98136 7.18254L2.82433 7.29479C2.80399 7.30935 2.77689 7.2896 2.78439 7.26579L2.84264 7.08176L2.68736 6.96707C2.66727 6.95219 2.67761 6.92035 2.70261 6.92013L2.89564 6.91866L2.95671 6.73554C2.96455 6.71185 2.99811 6.71185 3.00602 6.73554Z" fill="#F5F5F5"/>
<path d="M3.74922 3.39181L3.81028 3.57493L4.00331 3.5764C4.02831 3.57662 4.03865 3.6085 4.01856 3.62334L3.86328 3.738L3.92153 3.92203C3.92909 3.94584 3.90193 3.96559 3.88159 3.95103L3.72453 3.83881L3.5675 3.95106C3.54715 3.96562 3.52006 3.94587 3.52756 3.92206L3.58581 3.73803L3.43053 3.62337C3.41043 3.6085 3.42078 3.57662 3.44578 3.57643L3.63881 3.57496L3.69987 3.39184C3.70778 3.36809 3.74131 3.36809 3.74922 3.39181Z" fill="#F5F5F5"/>
<path d="M3.74922 4.3498L3.81028 4.53292L4.00331 4.53439C4.02831 4.53461 4.03865 4.56645 4.01856 4.58133L3.86328 4.69601L3.92153 4.88005C3.92909 4.90386 3.90193 4.92361 3.88159 4.90905L3.72453 4.7968L3.5675 4.90905C3.54715 4.92358 3.52006 4.90386 3.52756 4.88005L3.58581 4.69601L3.43053 4.58133C3.41043 4.56645 3.42078 4.53461 3.44578 4.53439L3.63881 4.53292L3.69987 4.3498C3.70778 4.32611 3.74131 4.32611 3.74922 4.3498Z" fill="#F5F5F5"/>
<path d="M3.74922 5.30759L3.81028 5.49071L4.00331 5.49218C4.02831 5.4924 4.03865 5.52424 4.01856 5.53912L3.86328 5.65381L3.92153 5.83784C3.92909 5.86165 3.90193 5.8814 3.88159 5.86684L3.72453 5.75456L3.5675 5.86681C3.54715 5.88134 3.52006 5.86162 3.52756 5.83781L3.58581 5.65378L3.43053 5.53909C3.41043 5.52421 3.42078 5.49237 3.44578 5.49215L3.63881 5.49068L3.69987 5.30756C3.70778 5.28387 3.74131 5.28387 3.74922 5.30759Z" fill="#F5F5F5"/>
<path d="M3.74922 6.26584L3.81028 6.44896L4.00331 6.45043C4.02831 6.45065 4.03865 6.48252 4.01856 6.49737L3.86328 6.61206L3.92153 6.79609C3.92909 6.8199 3.90193 6.83965 3.88159 6.82509L3.72453 6.71284L3.5675 6.82509C3.54715 6.83962 3.52006 6.8199 3.52756 6.79609L3.58581 6.61206L3.43053 6.49737C3.41043 6.48256 3.42078 6.45065 3.44578 6.45043L3.63881 6.44896L3.69987 6.26584C3.70778 6.24212 3.74131 6.24212 3.74922 6.26584Z" fill="#F5F5F5"/>
<path d="M3.74922 7.22382L3.81028 7.40694L4.00331 7.40841C4.02831 7.40863 4.03865 7.44048 4.01856 7.45535L3.86328 7.57004L3.92153 7.75407C3.92909 7.77788 3.90193 7.79763 3.88159 7.78307L3.72453 7.67082L3.5675 7.78307C3.54715 7.7976 3.52006 7.77788 3.52756 7.75407L3.58581 7.57004L3.43053 7.45535C3.41043 7.44048 3.42078 7.40863 3.44578 7.40841L3.63881 7.40694L3.69987 7.22382C3.70778 7.20013 3.74131 7.20013 3.74922 7.22382Z" fill="#F5F5F5"/>
<path d="M4.49283 3.86152L4.55389 4.04464L4.74692 4.04611C4.77192 4.04633 4.78227 4.07821 4.76217 4.09305L4.60689 4.20774L4.66514 4.39177C4.6727 4.41558 4.64555 4.43533 4.6252 4.42077L4.46818 4.30852L4.31115 4.42077C4.2908 4.4353 4.26371 4.41558 4.27121 4.39177L4.32946 4.20774L4.17418 4.09305C4.15409 4.07817 4.16443 4.04633 4.18943 4.04611L4.38246 4.04464L4.44352 3.86152C4.45143 3.83783 4.48493 3.83783 4.49283 3.86152Z" fill="#F5F5F5"/>
<path d="M4.49283 4.8193L4.55389 5.00243L4.74692 5.0039C4.77192 5.00412 4.78227 5.03599 4.76217 5.05083L4.60689 5.16552L4.66514 5.34955C4.6727 5.37337 4.64555 5.39312 4.6252 5.37855L4.46818 5.2663L4.31115 5.37855C4.2908 5.39308 4.26371 5.3734 4.27121 5.34955L4.32946 5.16552L4.17418 5.05083C4.15409 5.03602 4.16443 5.00412 4.18943 5.0039L4.38246 5.00243L4.44352 4.8193C4.45143 4.79558 4.48493 4.79558 4.49283 4.8193Z" fill="#F5F5F5"/>
<path d="M4.49283 5.77755L4.55389 5.96068L4.74692 5.96215C4.77192 5.96237 4.78227 5.99421 4.76217 6.00909L4.60689 6.12378L4.66514 6.30781C4.6727 6.33162 4.64555 6.35137 4.6252 6.33681L4.46818 6.22456L4.31115 6.33681C4.2908 6.35134 4.26371 6.33162 4.27121 6.30781L4.32946 6.12378L4.17418 6.00909C4.15409 5.99421 4.16443 5.96237 4.18943 5.96215L4.38246 5.96068L4.44352 5.77755C4.45143 5.75384 4.48493 5.75384 4.49283 5.77755Z" fill="#F5F5F5"/>
<path d="M4.49283 6.73554L4.55389 6.91866L4.74692 6.92013C4.77192 6.92035 4.78227 6.95219 4.76217 6.96707L4.60689 7.08176L4.66514 7.26579C4.6727 7.2896 4.64555 7.30935 4.6252 7.29479L4.46818 7.18254L4.31115 7.29479C4.2908 7.30935 4.26371 7.2896 4.27121 7.26579L4.32946 7.08176L4.17418 6.96707C4.15409 6.95219 4.16443 6.92035 4.18943 6.92013L4.38246 6.91866L4.44352 6.73554C4.45143 6.71185 4.48493 6.71185 4.49283 6.73554Z" fill="#F5F5F5"/>
<path d="M5.236 3.39181L5.29706 3.57494L5.49009 3.57641C5.51509 3.57663 5.52543 3.6085 5.50534 3.62334L5.35006 3.738L5.40831 3.92203C5.41587 3.94585 5.38871 3.9656 5.36837 3.95103L5.21134 3.83878L5.05431 3.95103C5.03397 3.9656 5.00687 3.94585 5.01437 3.92203L5.07262 3.738L4.91734 3.62334C4.89725 3.60847 4.90759 3.57659 4.93259 3.57641L5.12562 3.57494L5.18668 3.39181C5.19453 3.36809 5.22809 3.36809 5.236 3.39181Z" fill="#F5F5F5"/>
<path d="M5.236 4.3498L5.29706 4.53292L5.49009 4.53439C5.51509 4.53461 5.52543 4.56645 5.50534 4.58133L5.35006 4.69601L5.40831 4.88005C5.41587 4.90386 5.38871 4.92361 5.36837 4.90905L5.21134 4.7968L5.05431 4.90905C5.03397 4.92358 5.00687 4.90386 5.01437 4.88005L5.07262 4.69601L4.91734 4.58133C4.89725 4.56645 4.90759 4.53461 4.93259 4.53439L5.12562 4.53292L5.18668 4.3498C5.19453 4.32611 5.22809 4.32611 5.236 4.3498Z" fill="#F5F5F5"/>
<path d="M5.236 5.30758L5.29706 5.49071L5.49009 5.49218C5.51509 5.4924 5.52543 5.52424 5.50534 5.53912L5.35006 5.6538L5.40831 5.83783C5.41587 5.86165 5.38871 5.8814 5.36837 5.86683L5.21134 5.75458L5.05431 5.86683C5.03397 5.88137 5.00687 5.86168 5.01437 5.83783L5.07262 5.6538L4.91734 5.53912C4.89725 5.52424 4.90759 5.4924 4.93259 5.49218L5.12562 5.49071L5.18668 5.30758C5.19453 5.28387 5.22809 5.28387 5.236 5.30758Z" fill="#F5F5F5"/>
<path d="M5.236 6.26584L5.29706 6.44896L5.49009 6.45043C5.51509 6.45065 5.52543 6.48252 5.50534 6.49737L5.35006 6.61206L5.40831 6.79609C5.41587 6.8199 5.38871 6.83965 5.36837 6.82509L5.21134 6.71284L5.05431 6.82509C5.03397 6.83962 5.00687 6.8199 5.01437 6.79609L5.07262 6.61206L4.91734 6.49737C4.89725 6.48256 4.90759 6.45065 4.93259 6.45043L5.12562 6.44896L5.18668 6.26584C5.19453 6.24212 5.22809 6.24212 5.236 6.26584Z" fill="#F5F5F5"/>
<path d="M5.236 7.22382L5.29706 7.40694L5.49009 7.40841C5.51509 7.40863 5.52543 7.44048 5.50534 7.45535L5.35006 7.57004L5.40831 7.75407C5.41587 7.77788 5.38871 7.79763 5.36837 7.78307L5.21134 7.67082L5.05431 7.78307C5.03397 7.7976 5.00687 7.77788 5.01437 7.75407L5.07262 7.57004L4.91734 7.45535C4.89725 7.44048 4.90759 7.40863 4.93259 7.40841L5.12562 7.40694L5.18668 7.22382C5.19453 7.20013 5.22809 7.20013 5.236 7.22382Z" fill="#F5F5F5"/>
<path d="M5.97965 3.86152L6.04071 4.04464L6.23374 4.04611C6.25874 4.04633 6.26909 4.07821 6.24899 4.09305L6.09371 4.20774L6.15196 4.39177C6.15952 4.41558 6.13237 4.43533 6.11202 4.42077L5.95499 4.30852L5.79796 4.42077C5.77762 4.4353 5.75053 4.41558 5.75803 4.39177L5.81628 4.20774L5.661 4.09305C5.6409 4.07817 5.65125 4.04633 5.67625 4.04611L5.86928 4.04464L5.93034 3.86152C5.93821 3.83783 5.97174 3.83783 5.97965 3.86152Z" fill="#F5F5F5"/>
<path d="M5.97965 4.8193L6.04071 5.00243L6.23374 5.0039C6.25874 5.00412 6.26909 5.03599 6.24899 5.05083L6.09371 5.16552L6.15196 5.34955C6.15952 5.37337 6.13237 5.39312 6.11202 5.37855L5.95499 5.2663L5.79796 5.37855C5.77762 5.39308 5.75053 5.3734 5.75803 5.34955L5.81628 5.16552L5.661 5.05083C5.6409 5.03602 5.65125 5.00412 5.67625 5.0039L5.86928 5.00243L5.93034 4.8193C5.93821 4.79558 5.97174 4.79558 5.97965 4.8193Z" fill="#F5F5F5"/>
<path d="M5.97965 5.77755L6.04071 5.96068L6.23374 5.96215C6.25874 5.96237 6.26909 5.99421 6.24899 6.00909L6.09371 6.12378L6.15196 6.30781C6.15952 6.33162 6.13237 6.35137 6.11202 6.33681L5.95499 6.22456L5.79796 6.33681C5.77762 6.35134 5.75053 6.33162 5.75803 6.30781L5.81628 6.12378L5.661 6.00909C5.6409 5.99421 5.65125 5.96237 5.67625 5.96215L5.86928 5.96068L5.93034 5.77755C5.93821 5.75384 5.97174 5.75384 5.97965 5.77755Z" fill="#F5F5F5"/>
<path d="M5.97965 6.73554L6.04071 6.91866L6.23374 6.92013C6.25874 6.92035 6.26909 6.95219 6.24899 6.96707L6.09371 7.08176L6.15196 7.26579C6.15952 7.2896 6.13237 7.30935 6.11202 7.29479L5.95499 7.18254L5.79796 7.29479C5.77762 7.30935 5.75053 7.2896 5.75803 7.26579L5.81628 7.08176L5.661 6.96707C5.6409 6.95219 5.65125 6.92035 5.67625 6.92013L5.86928 6.91866L5.93034 6.73554C5.93821 6.71185 5.97174 6.71185 5.97965 6.73554Z" fill="#F5F5F5"/>
<path d="M6.72331 3.39181L6.78437 3.57494L6.9774 3.57641C7.0024 3.57663 7.01274 3.6085 6.99265 3.62334L6.83737 3.738L6.89562 3.92203C6.90318 3.94585 6.87602 3.9656 6.85568 3.95103L6.69865 3.83878L6.54162 3.95103C6.52127 3.9656 6.49418 3.94585 6.50168 3.92203L6.55993 3.738L6.40465 3.62334C6.38455 3.60847 6.3949 3.57659 6.4199 3.57641L6.61293 3.57494L6.67399 3.39181C6.68187 3.36809 6.71537 3.36809 6.72331 3.39181Z" fill="#F5F5F5"/>
<path d="M6.72331 4.3498L6.78437 4.53292L6.9774 4.53439C7.0024 4.53461 7.01274 4.56645 6.99265 4.58133L6.83737 4.69601L6.89562 4.88005C6.90318 4.90386 6.87602 4.92361 6.85568 4.90905L6.69865 4.7968L6.54162 4.90905C6.52127 4.92358 6.49418 4.90386 6.50168 4.88005L6.55993 4.69601L6.40465 4.58133C6.38455 4.56645 6.3949 4.53461 6.4199 4.53439L6.61293 4.53292L6.67399 4.3498C6.68187 4.32611 6.71537 4.32611 6.72331 4.3498Z" fill="#F5F5F5"/>
<path d="M6.72331 5.30758L6.78437 5.49071L6.9774 5.49218C7.0024 5.4924 7.01274 5.52424 6.99265 5.53912L6.83737 5.6538L6.89562 5.83783C6.90318 5.86165 6.87602 5.8814 6.85568 5.86683L6.69865 5.75458L6.54162 5.86683C6.52127 5.88137 6.49418 5.86168 6.50168 5.83783L6.55993 5.6538L6.40465 5.53912C6.38455 5.52424 6.3949 5.4924 6.4199 5.49218L6.61293 5.49071L6.67399 5.30758C6.68187 5.28387 6.71537 5.28387 6.72331 5.30758Z" fill="#F5F5F5"/>
<path d="M6.72331 6.26584L6.78437 6.44896L6.9774 6.45043C7.0024 6.45065 7.01274 6.48252 6.99265 6.49737L6.83737 6.61206L6.89562 6.79609C6.90318 6.8199 6.87602 6.83965 6.85568 6.82509L6.69865 6.71284L6.54162 6.82509C6.52127 6.83962 6.49418 6.8199 6.50168 6.79609L6.55993 6.61206L6.40465 6.49737C6.38455 6.48256 6.3949 6.45065 6.4199 6.45043L6.61293 6.44896L6.67399 6.26584C6.68187 6.24212 6.71537 6.24212 6.72331 6.26584Z" fill="#F5F5F5"/>
<path d="M6.72331 7.22382L6.78437 7.40694L6.9774 7.40841C7.0024 7.40863 7.01274 7.44048 6.99265 7.45535L6.83737 7.57004L6.89562 7.75407C6.90318 7.77788 6.87602 7.79763 6.85568 7.78307L6.69865 7.67082L6.54162 7.78307C6.52127 7.7976 6.49418 7.77788 6.50168 7.75407L6.55993 7.57004L6.40465 7.45535C6.38455 7.44048 6.3949 7.40863 6.4199 7.40841L6.61293 7.40694L6.67399 7.22382C6.68187 7.20013 6.71537 7.20013 6.72331 7.22382Z" fill="#F5F5F5"/>
</svg>
