<svg xmlns="http://www.w3.org/2000/svg" width="58" height="58" viewBox="0 0 58 58">
  <g id="Сгруппировать_172" data-name="Сгруппировать 172" transform="translate(-326 -610.865)">
    <path id="Контур_129" data-name="Контур 129" d="M552.692,708.976a2.9,2.9,0,0,0-5.309-.7l-.483.84a.965.965,0,0,0-1.313.348l-2.452,4.18-.84-.483a.964.964,0,1,0-.966,1.67l.84.483-8.206,14.22-2.027,5.416-.965,1.8a2.9,2.9,0,0,0,.155,3.128l-2.172,2.664-.608-1.525a1.931,1.931,0,0,0-3.447-.271l-.347.589-.328-3.862a1.931,1.931,0,0,0-3.755-.454l-2.375,7.125a.965.965,0,0,0,.608,1.216.837.837,0,0,0,.3.077.966.966,0,0,0,.917-.656l2.365-7.125.338,3.919a1.931,1.931,0,0,0,3.582.83l.357-.589.6,1.516a1.93,1.93,0,0,0,3.3.492l2.249-2.847a2.971,2.971,0,0,0,.763.1,2.9,2.9,0,0,0,2.519-1.429l.966-1.612,3.678-4.469,8.292-14.394.84.483a.967.967,0,0,1,.357,1.322l-3.862,6.69a.958.958,0,1,0,1.632,1l3.861-6.69a2.9,2.9,0,0,0-1.062-3.958l-.84-.483,2.413-4.18a.966.966,0,0,0-.348-1.313l.483-.84a2.9,2.9,0,0,0,.289-2.239Zm-3.64.27a.964.964,0,0,1,.589-.453,1.013,1.013,0,0,1,.734.1.965.965,0,0,1,.454.588,1.015,1.015,0,0,1-.1.734l-.483.84-1.68-.966ZM535.895,736.2l-.483-.28-1.429-.831,1.371-3.668,3.041,1.757Zm-2.9,2.789a.965.965,0,0,1-.289-1.265l.483-.84,1.68.966-.483.83a.965.965,0,0,1-1.39.309Zm6.5-7.395-3.34-1.931,7.723-13.38,3.34,1.931Zm8.688-15.05-3.34-1.931,1.931-3.34,3.34,1.931Zm0,0" transform="translate(-168.799 -84.304)" fill="#127db4"/>
    <path id="Контур_130" data-name="Контур 130" d="M400.411,967.6,396.995,971l-2.047-2.047a.966.966,0,1,0-1.361,1.371l2.047,2.047a1.946,1.946,0,0,0,2.732,0l3.408-3.418a.965.965,0,0,0-1.362-1.361Zm0,0" transform="translate(-59.178 -313.408)" fill="#127db4"/>
    <path id="Контур_131" data-name="Контур 131" d="M358,931.021a8.206,8.206,0,0,0,16.411,0,.966.966,0,0,0-1.931,0,6.276,6.276,0,1,1-2.51-5.019.966.966,0,0,0,1.159-1.545A8.206,8.206,0,0,0,358,931.021Zm0,0" transform="translate(-28.134 -274.224)" fill="#127db4"/>
    <path id="Контур_132" data-name="Контур 132" d="M424.052,660.788a.966.966,0,0,0,0-1.931h-25.1a.966.966,0,0,0-.966.966v3.862a.965.965,0,0,0,.966.965h25.1a.965.965,0,1,0,0-1.931H399.919v-1.931Zm0,0" transform="translate(-63.3 -42.2)" fill="#127db4"/>
    <path id="Контур_133" data-name="Контур 133" d="M422.949,722.849a.965.965,0,0,0,0,1.931h19.307a.965.965,0,1,0,0-1.931Zm0,0" transform="translate(-84.378 -98.45)" fill="#127db4"/>
    <path id="Контур_134" data-name="Контур 134" d="M476.18,778.838H454.943a.965.965,0,1,0,0,1.93H476.18a.965.965,0,1,0,0-1.93Zm0,0" transform="translate(-112.501 -147.672)" fill="#127db4"/>
    <path id="Контур_135" data-name="Контур 135" d="M403.23,827.8a.966.966,0,0,0-.966-.966H382.957a.965.965,0,0,0,0,1.931h19.307a.965.965,0,0,0,.966-.965Zm0,0" transform="translate(-49.234 -189.864)" fill="#127db4"/>
    <path id="Контур_136" data-name="Контур 136" d="M581.68,826.83h-6.757a.965.965,0,1,0,0,1.931h6.757a.965.965,0,1,0,0-1.931Zm0,0" transform="translate(-217.989 -189.864)" fill="#127db4"/>
    <path id="Контур_137" data-name="Контур 137" d="M392.611,868.753a.966.966,0,0,0,0-1.931h-9.654a.966.966,0,0,0,0,1.931Zm0,0" transform="translate(-49.234 -225.022)" fill="#127db4"/>
    <path id="Контур_138" data-name="Контур 138" d="M494.938,868.753H501.7a.966.966,0,0,0,0-1.931h-6.758a.966.966,0,0,0,0,1.931Zm0,0" transform="translate(-147.672 -225.022)" fill="#127db4"/>
    <path id="Контур_139" data-name="Контур 139" d="M369.508,655.331a.967.967,0,0,0-.967.967v9.667a.967.967,0,0,1-.967.966H328.9a.966.966,0,0,1-.967-.966v-52.2a.967.967,0,0,1,.967-.966h38.674a.967.967,0,0,1,.967.966v18.154a.967.967,0,1,0,1.934,0V613.765a2.9,2.9,0,0,0-2.9-2.9H328.9a2.9,2.9,0,0,0-2.9,2.9v52.2a2.9,2.9,0,0,0,2.9,2.9h38.674a2.9,2.9,0,0,0,2.9-2.9V656.3a.967.967,0,0,0-.967-.967Zm0,0" fill="#127db4"/>
  </g>
</svg>
