<svg xmlns="http://www.w3.org/2000/svg" width="48" height="58" viewBox="0 0 48 58">
  <g id="Сгруппировать_173" data-name="Сгруппировать 173" transform="translate(-68.588)">
    <path id="Контур_140" data-name="Контур 140" d="M109.228,38.474h-6.72V34.926a13.924,13.924,0,0,0,6.4-11.455V19.065c1.139-5.114.643-8.882-1.474-11.2a6.8,6.8,0,0,0-3.646-2.048c0-.738,0-2.182,0-4.936a.91.91,0,0,0-.96-.849c-.774,0-1.568-.008-2.408-.016C99.547.009,98.644,0,97.73,0,90.782,0,83.775.578,79.589,4.773c-3.153,3.16-4.241,7.848-3.324,14.331,0,.006,0,.011,0,.017v4.35a13.924,13.924,0,0,0,6.4,11.455v3.548h-6.72c-4.058,0-7.36,2.921-7.36,6.51,0,0,0,0,0,.007v4.523a.967.967,0,0,0,1.92,0V44.985s0,0,0,0c0-2.651,2.442-4.808,5.44-4.808h7.39l3.518,2.075L90.31,45.3l-1.157,11H79.468V50.7a.967.967,0,0,0-1.92,0v5.6h-7.04V52.91a.967.967,0,0,0-1.92,0v4.234s0,0,0,.007a.87.87,0,0,0,.686.814,1.069,1.069,0,0,0,.274.036h46.079a.91.91,0,0,0,.96-.849V44.985C116.588,41.395,113.286,38.474,109.228,38.474Zm5.44,6.51V56.3H96.023l-1.157-11,3.454-3.055,3.519-2.075h7.39C112.228,40.172,114.668,42.331,114.668,44.985Zm-22.962-.849-2.36-2.088,3.242-.717,3.242.717-2.36,2.088Zm8.882-5.267-3.059,1.8-3.981-.88v-1.91a17.8,17.8,0,0,0,7.04-1.832ZM81.028,5.9c3.682-3.69,10.2-4.2,16.7-4.2.9,0,1.8.009,2.667.017.5,0,.992.01,1.47.013,0,4.181,0,4.819,0,4.819a.9.9,0,0,0,.939.848,4.751,4.751,0,0,1,3.163,1.569c1.364,1.52,1.866,4.006,1.486,7.269l-1.446-2.558a1.011,1.011,0,0,0-1.15-.429c-.086.024-8.681,2.431-13.675,2.431a22.261,22.261,0,0,1-9.276-2.347,1.044,1.044,0,0,0-1.269.215l-2.7,3.188C77.588,11.882,78.606,8.324,81.028,5.9Zm-2.84,17.574v-4.2l3.485-4.111a23.864,23.864,0,0,0,9.511,2.219c4.429,0,11.174-1.687,13.472-2.3l2.332,4.125v4.266c0,6.966-6.355,12.643-14.205,12.736a1.082,1.082,0,0,0-.194-.017,1.094,1.094,0,0,0-.194.017C84.543,36.115,78.188,30.438,78.188,23.472Zm13.44,14.411v1.91l-3.981.88-3.059-1.8V36.05A17.791,17.791,0,0,0,91.628,37.882Zm.555,7.952h.81l1.1,10.467H91.082Z" fill="#127db4"/>
    <path id="Контур_141" data-name="Контур 141" d="M308.115,391.073a.963.963,0,0,0-.963-.964H303.3a.963.963,0,0,0-.963.964v1.606h-2.891a.963.963,0,0,0-.963.963v6.423a.963.963,0,0,0,.963.963h11.562a.963.963,0,0,0,.963-.963v-6.423a.963.963,0,0,0-.963-.963h-2.891Zm-3.854.963h1.927v.642h-1.927Zm5.781,7.066h-9.635v-4.5h9.635Z" transform="translate(-204.028 -347.776)" fill="#127db4"/>
  </g>
</svg>
