<svg xmlns="http://www.w3.org/2000/svg" width="57.999" height="58.001" viewBox="0 0 57.999 58.001">
  <g id="Сгруппировать_174" data-name="Сгруппировать 174" transform="translate(-0.007)">
    <path id="Контур_142" data-name="Контур 142" d="M46.906,45.124a1.133,1.133,0,0,0-1.133,1.133V54.6a1.134,1.134,0,0,1-1.133,1.133H3.405A1.134,1.134,0,0,1,2.273,54.6V3.4A1.134,1.134,0,0,1,3.405,2.266H44.64A1.134,1.134,0,0,1,45.773,3.4v12.32a1.133,1.133,0,1,0,2.266,0V3.4A3.4,3.4,0,0,0,44.64,0H3.405a3.4,3.4,0,0,0-3.4,3.4V54.6a3.4,3.4,0,0,0,3.4,3.4H44.64a3.4,3.4,0,0,0,3.4-3.4V46.257A1.133,1.133,0,0,0,46.906,45.124Z" fill="#127db4"/>
    <path id="Контур_143" data-name="Контур 143" d="M140.851,64.422A10.422,10.422,0,1,0,123.279,72a1.122,1.122,0,0,0,.122.113,10.4,10.4,0,0,0,14.057,0,1.13,1.13,0,0,0,.122-.113A10.393,10.393,0,0,0,140.851,64.422Zm-10.422-8.156a8.151,8.151,0,0,1,6.564,12.992,7.859,7.859,0,0,0-3.338-2.8,4.057,4.057,0,0,0,.852-2.491v-.736a4.078,4.078,0,0,0-8.156,0v.736a4.057,4.057,0,0,0,.852,2.491,7.859,7.859,0,0,0-3.338,2.8,8.151,8.151,0,0,1,6.564-12.992Zm-1.812,7.7v-.736a1.813,1.813,0,1,1,3.625,0v.736a1.813,1.813,0,1,1-3.625,0ZM125.5,70.917a5.664,5.664,0,0,1,9.854,0,8.135,8.135,0,0,1-9.854,0Z" transform="translate(-106.406 -47.883)" fill="#127db4"/>
    <path id="Контур_144" data-name="Контур 144" d="M209.257,438H203.14a1.133,1.133,0,0,0,0,2.266h6.117a1.133,1.133,0,0,0,0-2.266Z" transform="translate(-179.117 -388.382)" fill="#127db4"/>
    <path id="Контур_145" data-name="Контур 145" d="M131.226,382H115.14a1.133,1.133,0,1,0,0,2.266h16.086a1.133,1.133,0,1,0,0-2.266Z" transform="translate(-101.086 -338.726)" fill="#127db4"/>
    <path id="Контур_146" data-name="Контур 146" d="M131.226,326H115.14a1.133,1.133,0,1,0,0,2.266h16.086a1.133,1.133,0,1,0,0-2.266Z" transform="translate(-101.086 -289.07)" fill="#127db4"/>
    <path id="Контур_147" data-name="Контур 147" d="M73.222,270.332a1.132,1.132,0,1,0,.332.8A1.142,1.142,0,0,0,73.222,270.332Z" transform="translate(-63.205 -239.414)" fill="#127db4"/>
    <path id="Контур_148" data-name="Контур 148" d="M73.222,326.332a1.132,1.132,0,1,0,.332.8A1.144,1.144,0,0,0,73.222,326.332Z" transform="translate(-63.205 -289.07)" fill="#127db4"/>
    <path id="Контур_149" data-name="Контур 149" d="M72.42,382a1.133,1.133,0,1,0,.8.332A1.143,1.143,0,0,0,72.42,382Z" transform="translate(-63.205 -338.726)" fill="#127db4"/>
    <path id="Контур_150" data-name="Контур 150" d="M131.226,270H115.14a1.133,1.133,0,0,0,0,2.266h16.086a1.133,1.133,0,0,0,0-2.266Z" transform="translate(-101.086 -239.414)" fill="#127db4"/>
    <path id="Контур_151" data-name="Контур 151" d="M319.5,125.315a4.758,4.758,0,0,0-6.5,1.741l-14.256,24.691a1.135,1.135,0,0,0-.145.441l-1,8.988a1.133,1.133,0,0,0,1.8,1.038l7.282-5.363a1.131,1.131,0,0,0,.309-.346l14.256-24.691A4.763,4.763,0,0,0,319.5,125.315Zm-18.84,28.847,3.279,1.893-3.8,2.8Zm4.931.23-4.317-2.492,11.44-19.814,4.317,2.492Zm13.689-23.71-1.117,1.934-4.317-2.492,1.117-1.934a2.492,2.492,0,0,1,4.317,2.492Z" transform="translate(-263.871 -110.552)" fill="#127db4"/>
  </g>
</svg>
