<svg xmlns="http://www.w3.org/2000/svg" xmlns:xlink="http://www.w3.org/1999/xlink" width="58" height="58" viewBox="0 0 58 58">
  <defs>
    <clipPath id="clip-path">
      <rect id="Прямоугольник_204" data-name="Прямоугольник 204" width="58" height="58" fill="#127db4"/>
    </clipPath>
  </defs>
  <g id="Сгруппировать_177" data-name="Сгруппировать 177" transform="translate(-374.326 -659.113)">
    <g id="Сгруппировать_176" data-name="Сгруппировать 176" transform="translate(374.326 659.113)">
      <g id="Сгруппировать_175" data-name="Сгруппировать 175" transform="translate(0 0)" clip-path="url(#clip-path)">
        <path id="Контур_152" data-name="Контур 152" d="M475.443,676.977a6.187,6.187,0,0,0-2.9-3.781l-7.288-4.208a1.146,1.146,0,0,0-1.146,1.985l7.288,4.207a3.935,3.935,0,0,1,1.44,5.376l-5.784,10.017v-8.168a3.641,3.641,0,0,0-4.991-3.381v-3.111a3.642,3.642,0,0,0-5.046-3.36,3.642,3.642,0,0,0-7.173,0,3.642,3.642,0,0,0-5.046,3.36v13.863l-1.271-1.985a4.085,4.085,0,0,0-7.368,3.326l.1.333a26.192,26.192,0,0,0,2.026,5.036l-7.893-4.557a3.94,3.94,0,0,1-1.44-5.375l13.57-23.5a3.936,3.936,0,0,1,5.376-1.44l7.288,4.208a1.146,1.146,0,1,0,1.146-1.984l-7.288-4.208a6.227,6.227,0,0,0-8.505,2.279l-.724,1.254a33.484,33.484,0,0,0-8.618-1.308h-.023a1.145,1.145,0,0,0-.023,2.291,31.185,31.185,0,0,1,7.481,1.066l-7.588,13.141a16.61,16.61,0,0,0-5.12-.9,1.146,1.146,0,0,0-.041,2.291,14.348,14.348,0,0,1,3.99.637l-2.905,5.033a6.233,6.233,0,0,0,2.279,8.505l11.849,6.841a26.334,26.334,0,0,0,4.7,4.541v11a1.145,1.145,0,1,0,2.291,0V704.716a1.145,1.145,0,0,0-.479-.932,24.154,24.154,0,0,1-9.143-12.962l-.1-.333a1.794,1.794,0,0,1,3.235-1.461l3.382,5.28a1.145,1.145,0,0,0,2.11-.618v-4.745c0-.008,0-.015,0-.023V675.913a1.35,1.35,0,1,1,2.7,0v10.759a1.146,1.146,0,0,0,2.291,0V673.185a1.35,1.35,0,0,1,2.7,0v13.487a1.145,1.145,0,1,0,2.291,0V675.913a1.35,1.35,0,0,1,2.7,0v10.759a1.146,1.146,0,0,0,2.291,0v-4.266a1.35,1.35,0,1,1,2.7,0v9.39a17.174,17.174,0,0,1-5.013,12.08,1.145,1.145,0,0,0-.337.812V716.3a1.146,1.146,0,0,0,2.291,0V705.155a19.2,19.2,0,0,0,4.914-9.243l8.2-14.21a6.186,6.186,0,0,0,.622-4.725Zm0,0" transform="translate(-417.329 -659.118)" fill="#127db4"/>
        <path id="Контур_153" data-name="Контур 153" d="M375.147,685.607a1.14,1.14,0,0,0,.438-.088,31.126,31.126,0,0,1,7.2-2.01,1.145,1.145,0,1,0-.347-2.264,33.407,33.407,0,0,0-7.731,2.158,1.146,1.146,0,0,0,.439,2.2Zm0,0" transform="translate(-374.329 -678.132)" fill="#127db4"/>
        <path id="Контур_154" data-name="Контур 154" d="M375.147,736.2a1.144,1.144,0,0,0,.436-.086,22.636,22.636,0,0,1,11.355-1.525,1.146,1.146,0,1,0,.28-2.274,24.93,24.93,0,0,0-12.506,1.68,1.146,1.146,0,0,0,.436,2.205Zm0,0" transform="translate(-374.329 -721.25)" fill="#127db4"/>
        <path id="Контур_155" data-name="Контур 155" d="M376.848,787.26a16.56,16.56,0,0,0-2.254,1.028,1.146,1.146,0,1,0,1.1,2.008,14.26,14.26,0,0,1,1.942-.886,1.146,1.146,0,1,0-.792-2.15Zm0,0" transform="translate(-374.329 -767.904)" fill="#127db4"/>
      </g>
    </g>
    <path id="Контур_156" data-name="Контур 156" d="M650.449,709.733a1.027,1.027,0,1,0-.727-.3,1.036,1.036,0,0,0,.727.3Zm0,0" transform="translate(-233.175 -42.164)" fill="#127db4"/>
  </g>
</svg>
