<svg xmlns="http://www.w3.org/2000/svg" xmlns:xlink="http://www.w3.org/1999/xlink" width="58" height="58" viewBox="0 0 58 58">
  <defs>
    <clipPath id="clip-path">
      <rect id="Прямоугольник_205" data-name="Прямоугольник 205" width="58" height="58" fill="#127db4"/>
    </clipPath>
  </defs>
  <g id="Сгруппировать_180" data-name="Сгруппировать 180" transform="translate(-310.775 -597.826)">
    <g id="Сгруппировать_179" data-name="Сгруппировать 179" transform="translate(310.775 597.826)">
      <g id="Сгруппировать_178" data-name="Сгруппировать 178" transform="translate(0 0)" clip-path="url(#clip-path)">
        <path id="Контур_157" data-name="Контур 157" d="M368.373,710.909l-9.642-12.749a1.117,1.117,0,0,0-1.5-.268L351,701.921h-8.119a1.1,1.1,0,0,0-.311.053l-6.3,1.845L329.747,702l-6.347-4.109a1.116,1.116,0,0,0-1.485.248L311.25,711.585a1.164,1.164,0,0,0,.142,1.594l5.59,4.9L322,724.954a4.121,4.121,0,0,0,.088,5.652,3.947,3.947,0,0,0,2.421,1.167,4.15,4.15,0,0,0-.047.621,4.072,4.072,0,0,0,1.169,2.873,3.931,3.931,0,0,0,2.823,1.19h.043c0,.028,0,.055,0,.083a4.074,4.074,0,0,0,1.169,2.873,3.932,3.932,0,0,0,2.823,1.19,3.983,3.983,0,0,0,.623-.05,4.074,4.074,0,0,0,1.148,2.474,3.948,3.948,0,0,0,5.646,0l.61-.622.256.21a3.947,3.947,0,0,0,5.6-.047,4.091,4.091,0,0,0,1.167-2.937,3.949,3.949,0,0,0,2.885-1.187,4.1,4.1,0,0,0,1.167-2.936,3.934,3.934,0,0,0,2.885-1.189,4.091,4.091,0,0,0,1.167-2.937,3.946,3.946,0,0,0,2.885-1.187,4.124,4.124,0,0,0,.524-5.087l3.662-7.806,5.505-4.822a1.164,1.164,0,0,0,.158-1.573Zm-45.334-10.526,4.564,2.954-9.928,12.311-3.978-3.486Zm.644,26.1,1.378-1.4a1.706,1.706,0,0,1,1.071-.509h.029c.049,0,.1-.007.148-.006a1.708,1.708,0,0,1,1.236.553,1.83,1.83,0,0,1-.076,2.5l-1.336,1.36a1.713,1.713,0,0,1-2.45,0,1.789,1.789,0,0,1,0-2.494Zm3.544,7.156a1.786,1.786,0,0,1,0-2.494l2.671-2.719a1.728,1.728,0,0,1,1.97-.346,1.765,1.765,0,0,1,.955,1.821,1.873,1.873,0,0,1-.516,1.062l-2.629,2.676a1.712,1.712,0,0,1-2.451,0Zm4.033,4.144a1.785,1.785,0,0,1,0-2.494l2.67-2.719a1.73,1.73,0,0,1,2.095-.28,1.766,1.766,0,0,1,.827,1.783,1.875,1.875,0,0,1-.513,1.034l-2.628,2.675a1.711,1.711,0,0,1-2.451,0Zm4.594,3.615a1.788,1.788,0,0,1,0-2.494l1.377-1.4c.042-.043.085-.083.13-.12l0,0a1.714,1.714,0,0,1,.768-.363l.02,0c.048-.009.1-.016.147-.021l.059,0c.04,0,.081,0,.122,0a1.706,1.706,0,0,1,1.236.553,1.526,1.526,0,0,1,.112.134,1.845,1.845,0,0,1-.2,2.375L338.3,741.4a1.713,1.713,0,0,1-2.45,0Zm21.072-12.832a1.713,1.713,0,0,1-2.45,0,1.02,1.02,0,0,0-.077-.07l-7.264-7.471a1.115,1.115,0,0,0-1.6-.008,1.164,1.164,0,0,0-.008,1.626l7.342,7.551,0,0a1.788,1.788,0,0,1,0,2.494,1.712,1.712,0,0,1-2.451,0l-4.911-5.051a1.116,1.116,0,0,0-1.6-.009,1.165,1.165,0,0,0-.008,1.626l4.836,4.974a1.1,1.1,0,0,0,.079.09,1.788,1.788,0,0,1,0,2.494,1.714,1.714,0,0,1-2.451,0l-2.681-2.757a1.116,1.116,0,0,0-1.6-.008,1.164,1.164,0,0,0-.008,1.626l2.606,2.68a1.021,1.021,0,0,0,.08.091,1.788,1.788,0,0,1,0,2.494,1.713,1.713,0,0,1-2.45,0,2.437,2.437,0,0,0-.256-.208c-.074-.057-.093-.1-.056-.189s.093-.176.131-.269.074-.211.107-.318a4.222,4.222,0,0,0,.147-1.769,4.058,4.058,0,0,0-1.688-2.8,3.918,3.918,0,0,0-1.68-.663,4.152,4.152,0,0,0-.967-3.7,3.928,3.928,0,0,0-2.846-1.271h-.119a4.1,4.1,0,0,0-1.068-2.874,3.934,3.934,0,0,0-2.846-1.271,3.989,3.989,0,0,0-.963.1,4.054,4.054,0,0,0-1.321-2.464,3.919,3.919,0,0,0-2.553-.986,3.96,3.96,0,0,0-2.727,1.044l-4.367-5.989,10.447-12.954,3.329.927-4.348,7.81a4.1,4.1,0,0,0-.374,3.087,4.027,4.027,0,0,0,1.88,2.452c.058.034.116.065.176.1l.014.007a4.033,4.033,0,0,0,.479.2,3.9,3.9,0,0,0,2.364.074,3.976,3.976,0,0,0,2.409-1.913l2.826-5.075,5.045.364,13.434,13.674a1.789,1.789,0,0,1,0,2.494Zm.468-5.27-12.6-12.828a.976.976,0,0,0-.075-.07,1.119,1.119,0,0,0-.644-.264l-6.178-.446a1.142,1.142,0,0,0-1.062.581l-3.177,5.706a1.726,1.726,0,0,1-1.045.83,1.694,1.694,0,0,1-1.316-.165,1.751,1.751,0,0,1-.816-1.065,1.778,1.778,0,0,1,.163-1.34l4.241-7.618,1.718-.5.034-.012,6.414-1.885H350.8l9.674,12.518Zm4.557-8.365L353,703.351l4.566-2.956,8.36,11.053Zm0,0" transform="translate(-310.804 -686.277)" fill="#127db4"/>
      </g>
    </g>
    <path id="Контур_158" data-name="Контур 158" d="M611.667,636.9a1.106,1.106,0,0,0,.785-.325l7.583-7.583a1.11,1.11,0,0,0-1.57-1.57L610.882,635a1.11,1.11,0,0,0,.785,1.9Zm0,0" transform="translate(-265.694 -26.052)" fill="#127db4"/>
    <path id="Контур_159" data-name="Контур 159" d="M441.864,636.572a1.11,1.11,0,0,0,1.57-1.57l-7.583-7.583a1.11,1.11,0,1,0-1.57,1.57Zm0,0" transform="translate(-109.073 -26.052)" fill="#127db4"/>
    <path id="Контур_160" data-name="Контур 160" d="M557.59,647.4a1.11,1.11,0,0,0,1.11-1.11V640.01a1.11,1.11,0,0,0-2.22,0v6.275a1.11,1.11,0,0,0,1.11,1.11Zm0,0" transform="translate(-217.816 -36.55)" fill="#127db4"/>
    <path id="Контур_161" data-name="Контур 161" d="M556.59,600.31a1.109,1.109,0,1,0,.408-1.348,1.116,1.116,0,0,0-.408,1.348Zm0,0" transform="translate(-217.84 -0.873)" fill="#127db4"/>
  </g>
</svg>
