<svg width="42" height="42" viewBox="0 0 42 42" fill="none" xmlns="http://www.w3.org/2000/svg">
<g opacity="0.9" clip-path="url(#clip0)">
<path d="M21 41.968C15.3993 41.968 10.1338 39.7869 6.17348 35.8267C2.21328 31.8663 0.0322266 26.6009 0.0322266 21.0002C0.0322266 15.3995 2.21328 10.1341 6.17348 6.17373C10.1338 2.21353 15.3993 0.0324707 21 0.0324707C26.6007 0.0324707 31.8661 2.21353 35.8265 6.17373C39.7867 10.1341 41.9677 15.3995 41.9677 21.0002C41.9677 26.6009 39.7867 31.8663 35.8265 35.8267C31.8661 39.7869 26.6007 41.968 21 41.968ZM21 2.48963C16.0556 2.48963 11.4072 4.41506 7.91102 7.91126C4.41481 11.4075 2.48938 16.0558 2.48938 21.0002C2.48938 25.9446 4.41481 30.593 7.91102 34.0892C11.4072 37.5854 16.0556 39.5108 21 39.5108C25.9443 39.5108 30.5927 37.5854 34.0889 34.0892C37.5851 30.593 39.5106 25.9446 39.5106 21.0002C39.5106 16.0558 37.5851 11.4075 34.0889 7.91126C30.5927 4.41506 25.9443 2.48963 21 2.48963Z" fill="#443B38"/>
<path d="M19.771 4.94971H22.2282V8.22854H19.771V4.94971Z" fill="#443B38"/>
<path d="M29.1582 11.1025L31.4763 8.78441L33.2135 10.5216L30.8954 12.8397L29.1582 11.1025Z" fill="#443B38"/>
<path d="M33.7715 19.7717H37.0503V22.2289H33.7715V19.7717Z" fill="#443B38"/>
<path d="M29.1558 30.9004L30.893 29.1632L33.2111 31.4813L31.4739 33.2185L29.1558 30.9004Z" fill="#443B38"/>
<path d="M19.771 33.772H22.2282V37.0508H19.771V33.772Z" fill="#443B38"/>
<path d="M8.77734 31.4788L11.0955 29.1606L12.8327 30.8978L10.5146 33.216L8.77734 31.4788Z" fill="#443B38"/>
<path d="M4.94922 19.7717H8.22805V22.2289H4.94922V19.7717Z" fill="#443B38"/>
<path d="M8.77979 10.5198L10.517 8.78256L12.8351 11.1007L11.0979 12.8379L8.77979 10.5198Z" fill="#443B38"/>
<path d="M29.6727 22.2286H19.771V12.3269H22.2282V19.7714H29.6727V22.2286Z" fill="#443B38"/>
</g>
<defs>
<clipPath id="clip0">
<rect width="41.9355" height="41.9355" fill="white" transform="translate(0.0322266 0.0324707)"/>
</clipPath>
</defs>
</svg>
