<svg width="40" height="40" viewBox="0 0 40 40" fill="none" xmlns="http://www.w3.org/2000/svg">
<g opacity="0.9" clip-path="url(#clip0)">
<path d="M38.287 30.0046L29.8941 21.6119C29.0432 20.7626 27.8893 20.1599 26.6326 19.9682L30.3325 16.2683C32.9538 16.7345 35.6759 15.8942 37.575 13.9951C40.0278 11.5422 40.6717 7.79218 39.177 4.66351C38.8287 3.93444 37.8627 3.76944 37.2921 4.34022L34.6054 7.02703H32.9491V5.37077L35.6359 2.68397C36.2071 2.1128 36.0409 1.14702 35.3126 0.799125C32.184 -0.695487 28.4338 -0.0516579 25.9809 2.40132C24.0819 4.30038 23.2415 7.02242 23.7078 9.64383L19.1604 14.1913L12.7654 7.79632L13.5936 6.96812C14.1325 6.42929 14.0202 5.52702 13.368 5.13569L5.08682 0.166936C4.62604 -0.109627 4.03611 -0.0368923 3.65611 0.343108L0.34353 3.65561C-0.0364711 4.03561 -0.109049 4.62546 0.167357 5.08632L5.1362 13.3677C5.53112 14.026 6.43401 14.1278 6.96862 13.5932L7.79683 12.765L14.1918 19.1599L9.64433 23.7073C7.02307 23.2411 4.30088 24.0814 2.40181 25.9805C-0.0511588 28.4334 -0.695066 32.1835 0.799624 35.3121C1.14798 36.0411 2.114 36.2061 2.68455 35.6354L5.37127 32.9486H7.02753V34.6048L4.34072 37.2916C3.76947 37.8628 3.93565 38.8286 4.66401 39.1765C5.78854 39.7137 6.99307 39.9747 8.18909 39.9746C10.3205 39.9745 12.4243 39.1455 13.9956 37.5743C15.8947 35.6753 16.735 32.9532 16.2687 30.3318L19.9688 26.6318C20.1605 27.8887 20.7635 29.0429 21.6133 29.8943L30.0051 38.2862C32.2848 40.566 35.9941 40.5762 38.2872 38.286C40.5696 36.0023 40.5695 32.2873 38.287 30.0046ZM6.37299 10.8763L2.64635 4.6653L4.66573 2.646L10.8767 6.37257C10.4444 6.80484 6.95667 10.2927 6.37299 10.8763ZM9.45292 11.1088C10.5318 10.0299 10.2058 10.3559 11.1093 9.4525L17.5041 15.8474L15.8479 17.5036L9.45292 11.1088ZM14.1589 29.1293C13.8632 29.4249 13.7475 29.8557 13.8554 30.2596C14.394 32.2761 13.8131 34.4443 12.3393 35.9183C11.0146 37.2429 9.16066 37.829 7.36971 37.5753L9.02675 35.9183C9.24636 35.6986 9.3698 35.4007 9.3698 35.0902V31.7775C9.3698 31.1307 8.84542 30.6064 8.19862 30.6064H4.88604C4.57533 30.6064 4.27752 30.7298 4.05791 30.9494L2.40088 32.6064C2.1472 30.8153 2.73338 28.9614 4.05791 27.6369C5.53174 26.1631 7.70003 25.5821 9.71652 26.1207C10.1205 26.2285 10.5512 26.113 10.8469 25.8174C11.107 25.5573 25.2983 11.3659 25.8178 10.8465C26.1134 10.5509 26.2291 10.1201 26.1212 9.71609C25.5826 7.69968 26.1636 5.53148 27.6374 4.05749C28.962 2.73288 30.8157 2.14647 32.607 2.40046L30.9499 4.05749C30.7303 4.2771 30.6069 4.57499 30.6069 4.88554V8.19804C30.6069 8.84484 31.1312 9.36922 31.778 9.36922H35.0906C35.4013 9.36922 35.6991 9.24578 35.9188 9.02617L37.5758 7.36914C37.8295 9.16031 37.2433 11.0141 35.9188 12.3387C34.4449 13.8125 32.2766 14.3934 30.2602 13.8549C29.8562 13.747 29.4255 13.8626 29.1298 14.1582L14.1589 29.1293ZM36.6313 36.6297C35.2583 38.0009 33.0293 37.9982 31.6615 36.6303L23.2703 28.2391C22.0841 27.0506 21.7209 24.9799 23.3147 23.3142C24.9802 21.7205 27.051 22.0838 28.2387 23.269L36.6306 31.6609C38.0002 33.0306 38.0002 35.2598 36.6313 36.6297Z" fill="#443B38"/>
<path d="M34.9488 33.2916L26.6726 25.0154C26.2153 24.558 25.4737 24.558 25.0163 25.0154C24.559 25.4727 24.559 26.2143 25.0163 26.6716L33.2925 34.9478C33.7498 35.4052 34.4915 35.4052 34.9488 34.9478C35.4061 34.4905 35.4061 33.749 34.9488 33.2916Z" fill="#443B38"/>
</g>
<defs>
<clipPath id="clip0">
<rect width="40" height="40" fill="white"/>
</clipPath>
</defs>
</svg>
