<svg id="Компонент_2_1" data-name="Компонент 2 – 1" xmlns="http://www.w3.org/2000/svg" width="156.35" height="159.232" viewBox="0 0 156.35 159.232">
  <g id="Сгруппировать_359" data-name="Сгруппировать 359">
    <g id="Сгруппировать_358" data-name="Сгруппировать 358">
      <g id="Сгруппировать_357" data-name="Сгруппировать 357">
        <path id="Контур_246" data-name="Контур 246" d="M685.563,131.042,666.6,120.271l-8.3,3.928,0-7.718L637.321,104.36l-23.075,10.812.03,41.792,7.376,2.368-7.322,2.935c.734,10.574,5.328,19.656,12.942,25.572A31.4,31.4,0,0,0,646.31,194.5a26.97,26.97,0,0,0,4.828-.434c.809-.142,1.626-.271,2.439-.434,5.955-1.2,9.052-1.9,13.864-3.073,8.556-1.7,15.119-8.56,16.979-18.221.012-.063.045-.413.058-.471l-5.533-2.285,6.5-2.026ZM658.3,126.6l.663-.309v14.886h1.343V125.671l1.029-.48v17.8h1.343V124.57l1.03-.475v20.868h1.342V123.47l.6-.279V158.2l-8.484,3.273-5.258-2.352,6.413-2.014Zm-19.789-18.8,17.617,9.928.029,36.555-17.646-7.334Zm-22.1,8.773.638-.292v1.138H618.4v-1.747l1.03-.467V118.8h1.342v-4.153h-.1l1.135-.517V120.6h1.342v-7.088l1.03-.472v9.536h1.343V112.437l1.03-.467V124.5h1.342V111.357l1.026-.463v15.257h1.346V110.281l1.026-.467V127.96h1.343V109.206l1.029-.472v21.2H635V108.125l1.018-.463v39.244l-19.581,7.209Zm1.514,39.29,19.313-7.1,17.508,7.222-5.95,1.851h0l-11.524-4.766-12.471,5Zm32.823,36.08a28.5,28.5,0,0,1-22.149-5.808c-6.776-5.271-11-13.255-11.983-22.6L636.145,156c.3,9.061,3,17.529,7.684,24,3.994,5.524,9.069,9.114,14.606,10.419C654.491,191.221,651.139,191.876,650.751,191.943ZM681.99,173.23c-2.331,9.415-9.695,15.578-18.776,15.578-.113,0-.229,0-.342,0-6.517-.112-12.651-3.69-17.267-10.074-4.49-6.2-7.055-14.381-7.288-23.137l17.437,7.443c.142,5.4.959,12.375,5.929,12.492h.083c2.7,0,4.687-2.91,5.679-8.251Zm-23.283-3.511.1.259,6.4-2.564c-.763,3.653-2.077,5.962-3.474,5.95Q659.67,173.313,658.707,169.719Zm17.112-1.422-9.215-3.8-8.293,3.282a42.473,42.473,0,0,1-.375-4.249c0-.029,8.644-3.356,8.644-3.356l15.252,6.267Zm7.459-3.607-15.46-6.346v-34.9l15.577,8.839Z" transform="translate(-614.246 -104.36)" fill="#23b5e2"/>
      </g>
    </g>
  </g>
  <g id="Сгруппировать_363" data-name="Сгруппировать 363" transform="translate(130.571 106.076)">
    <g id="Сгруппировать_360" data-name="Сгруппировать 360">
      <rect id="Прямоугольник_253" data-name="Прямоугольник 253" width="7.976" height="26.598" fill="#23b5e2"/>
    </g>
    <g id="Сгруппировать_361" data-name="Сгруппировать 361" transform="translate(17.802)">
      <rect id="Прямоугольник_254" data-name="Прямоугольник 254" width="7.976" height="26.598" fill="#23b5e2"/>
    </g>
    <g id="Сгруппировать_362" data-name="Сгруппировать 362" transform="translate(0.2 9.856)">
      <rect id="Прямоугольник_255" data-name="Прямоугольник 255" width="24.109" height="6.527" fill="#23b5e2"/>
    </g>
  </g>
  <g id="Сгруппировать_364" data-name="Сгруппировать 364" transform="translate(98.568 105.908)">
    <path id="Контур_247" data-name="Контур 247" d="M776.136,258.382H758.79v6.726h16.462v3.3H763.506a5.91,5.91,0,0,0-5.912,5.909v4.965a5.913,5.913,0,0,0,5.912,5.913h19.722V265.474A7.089,7.089,0,0,0,776.136,258.382Zm-.913,20.46h-9.691v-4.537h9.691Z" transform="translate(-757.594 -258.382)" fill="#23b5e2"/>
  </g>
  <g id="Сгруппировать_365" data-name="Сгруппировать 365" transform="translate(34.891 106.129)">
    <path id="Контур_248" data-name="Контур 248" d="M684.488,258.7h-19.5v34.616h7.976v-8.027h11.524a5.906,5.906,0,0,0,5.909-5.908V264.616A5.91,5.91,0,0,0,684.488,258.7Zm-2.018,19.839h-9.477V265.453h9.477Z" transform="translate(-664.987 -258.703)" fill="#23b5e2"/>
  </g>
  <g id="Сгруппировать_366" data-name="Сгруппировать 366" transform="translate(0.955 96.398)">
    <path id="Контур_249" data-name="Контур 249" d="M651.485,244.551,636.02,277.616a5.914,5.914,0,0,1-5.354,3.406H620.38v-6.871h7.2l1.447-3.09-13.393-26.51H625.7l8.118,16.266.375-.8,7.234-15.464Z" transform="translate(-615.635 -244.551)" fill="#23b5e2"/>
  </g>
  <g id="Сгруппировать_367" data-name="Сгруппировать 367" transform="translate(66.399 96.18)">
    <path id="Контур_250" data-name="Контур 250" d="M730.312,254.2H718.787v-3.235h16.879v-6.726H716.72a5.91,5.91,0,0,0-5.909,5.912v30.638h19.5a5.909,5.909,0,0,0,5.912-5.908V260.109A5.913,5.913,0,0,0,730.312,254.2Zm-2.026,19.839h-9.477V260.947h9.477Z" transform="translate(-710.811 -244.235)" fill="#23b5e2"/>
  </g>
  <text id="КЛИНИНГ" transform="translate(58.618 155.232)" fill="#23b5e2" font-size="15" font-family="SegoeUI, Segoe UI" letter-spacing="0.1em"><tspan x="0" y="0">КЛИНИНГ</tspan></text>
</svg>
