<svg xmlns="http://www.w3.org/2000/svg" width="66.15" height="65.59" viewBox="0 0 66.15 65.59">
  <g id="Сгруппировать_456" data-name="Сгруппировать 456" transform="translate(-614.246 -104.36)">
    <g id="Сгруппировать_359" data-name="Сгруппировать 359" transform="translate(614.246 104.36)">
      <g id="Сгруппировать_358" data-name="Сгруппировать 358">
        <g id="Сгруппировать_357" data-name="Сгруппировать 357">
          <path id="Контур_246" data-name="Контур 246" d="M644.419,115.649l-8.021-4.557-3.512,1.662,0-3.265-8.875-5.128-9.763,4.574.013,17.682,3.121,1-3.1,1.242a14.7,14.7,0,0,0,5.476,10.819,13.284,13.284,0,0,0,8.055,2.819,11.411,11.411,0,0,0,2.043-.184c.342-.06.688-.115,1.032-.184,2.519-.51,3.83-.8,5.866-1.3a9.281,9.281,0,0,0,7.183-7.709c.005-.026.019-.175.025-.2l-2.341-.967,2.75-.857Zm-11.534-1.879.28-.131v6.3h.568v-6.561l.436-.2V120.7h.568v-7.792l.436-.2v8.829h.568v-9.094l.256-.118V127.14l-3.59,1.385-2.225-.995,2.713-.852Zm-8.372-7.954,7.453,4.2.012,15.466-7.466-3.1Zm-9.35,3.712.27-.123v.481H616v-.739l.436-.2v1.519h.568V108.71h-.044l.48-.219v2.741h.568v-3l.436-.2v4.034h.568v-4.292l.436-.2v5.3h.568v-5.56l.434-.2v6.455h.57v-6.714l.434-.2v7.677h.568V106.41l.436-.2v8.971h.568v-9.228l.43-.2v16.6l-8.284,3.05Zm.641,16.623,8.171-3,7.407,3.056-2.517.783h0l-4.876-2.016-5.276,2.115Zm13.887,15.265a12.058,12.058,0,0,1-9.371-2.457,13.684,13.684,0,0,1-5.07-9.561l8.261-3.19a18.424,18.424,0,0,0,3.251,10.153,10.8,10.8,0,0,0,6.18,4.408C631.273,141.11,629.855,141.387,629.691,141.415Zm13.217-7.917a8.177,8.177,0,0,1-7.944,6.591c-.048,0-.1,0-.145,0a9.32,9.32,0,0,1-7.305-4.262,17.549,17.549,0,0,1-3.083-9.789l7.377,3.149c.06,2.283.406,5.236,2.509,5.285h.035c1.143,0,1.983-1.231,2.4-3.491Zm-9.851-1.485.043.109,2.708-1.085c-.323,1.545-.879,2.523-1.47,2.517S633.328,133.025,633.057,132.012Zm7.24-.6-3.9-1.609-3.509,1.389a17.965,17.965,0,0,1-.159-1.8c0-.012,3.657-1.42,3.657-1.42l6.453,2.651Zm3.156-1.526-6.541-2.685V112.433l6.591,3.74Z" transform="translate(-614.246 -104.36)" fill="#fff"/>
        </g>
      </g>
    </g>
    <g id="Сгруппировать_363" data-name="Сгруппировать 363" transform="translate(669.489 149.239)">
      <g id="Сгруппировать_360" data-name="Сгруппировать 360">
        <rect id="Прямоугольник_253" data-name="Прямоугольник 253" width="3.375" height="11.253" fill="#fff"/>
      </g>
      <g id="Сгруппировать_361" data-name="Сгруппировать 361" transform="translate(7.532)">
        <rect id="Прямоугольник_254" data-name="Прямоугольник 254" width="3.375" height="11.253" fill="#fff"/>
      </g>
      <g id="Сгруппировать_362" data-name="Сгруппировать 362" transform="translate(0.085 4.17)">
        <rect id="Прямоугольник_255" data-name="Прямоугольник 255" width="10.2" height="2.762" fill="#fff"/>
      </g>
    </g>
    <g id="Сгруппировать_364" data-name="Сгруппировать 364" transform="translate(655.949 149.168)">
      <path id="Контур_247" data-name="Контур 247" d="M765.439,258.382H758.1v2.846h6.965v1.4H760.1a2.5,2.5,0,0,0-2.5,2.5v2.1a2.5,2.5,0,0,0,2.5,2.5h8.344v-8.342A3,3,0,0,0,765.439,258.382Zm-.386,8.656h-4.1v-1.919h4.1Z" transform="translate(-757.594 -258.382)" fill="#fff"/>
    </g>
    <g id="Сгруппировать_365" data-name="Сгруппировать 365" transform="translate(629.008 149.262)">
      <path id="Контур_248" data-name="Контур 248" d="M673.238,258.7h-8.251v14.646h3.375v-3.4h4.876a2.5,2.5,0,0,0,2.5-2.5V261.2A2.5,2.5,0,0,0,673.238,258.7Zm-.854,8.394h-4.01v-5.538h4.01Z" transform="translate(-664.987 -258.703)" fill="#fff"/>
    </g>
    <g id="Сгруппировать_366" data-name="Сгруппировать 366" transform="translate(614.65 145.145)">
      <path id="Контур_249" data-name="Контур 249" d="M630.8,244.551,624.26,258.54a2.5,2.5,0,0,1-2.265,1.441h-4.352v-2.907h3.047l.612-1.307-5.666-11.216h4.257l3.435,6.882.159-.339,3.061-6.543Z" transform="translate(-615.635 -244.551)" fill="#fff"/>
    </g>
    <g id="Сгруппировать_367" data-name="Сгруппировать 367" transform="translate(642.339 145.053)">
      <path id="Контур_250" data-name="Контур 250" d="M719.062,248.449h-4.876v-1.369h7.141v-2.846h-8.016a2.5,2.5,0,0,0-2.5,2.5V259.7h8.251a2.5,2.5,0,0,0,2.5-2.5v-6.248A2.5,2.5,0,0,0,719.062,248.449Zm-.857,8.394h-4.01v-5.537h4.01Z" transform="translate(-710.811 -244.235)" fill="#fff"/>
    </g>
    <text id="КЛИНИНГ" transform="translate(647.154 168.95)" fill="#fff" font-size="5" font-family="SegoeUI, Segoe UI" letter-spacing="0.1em"><tspan x="0" y="0">КЛИНИНГ</tspan></text>
  </g>
</svg>
