<svg id="Компонент_3_1" data-name="Компонент 3 – 1" xmlns="http://www.w3.org/2000/svg" width="28.513" height="32.586" viewBox="0 0 28.513 32.586">
  <path id="Контур_40" data-name="Контур 40" d="M460.037,726.787h17.3l9.172,9.136v21.413a2.037,2.037,0,0,1-2.037,2.037H460.037A2.037,2.037,0,0,1,458,757.336V728.824a2.037,2.037,0,0,1,2.037-2.037Zm0,0" transform="translate(-458 -726.787)" fill="#23b5e2"/>
  <path id="Контур_42" data-name="Контур 42" d="M525.934,836.3a.592.592,0,0,0,0-1.172h-1.943a.607.607,0,0,0-.592.662v4.774c0,.426.242.662.571.662s.569-.236.569-.662v-1.31h1.175a.552.552,0,0,0,.547-.595.541.541,0,0,0-.547-.578h-1.175V836.3Zm-6.567-1.172h-1.422a.629.629,0,0,0-.66.658v4.783a.626.626,0,0,0,.676.641h1.491a2.767,2.767,0,0,0,2.932-2.955,2.839,2.839,0,0,0-3.018-3.126Zm.068,4.9h-.867V836.3h.781c1.182,0,1.7.793,1.7,1.888,0,1.024-.505,1.835-1.611,1.835Zm-5.208-4.9h-1.409a.593.593,0,0,0-.62.662v4.774a.6.6,0,1,0,1.194,0v-1.394h.883a1.928,1.928,0,0,0,1.988-2.013,1.951,1.951,0,0,0-2.036-2.03Zm-.024,2.923h-.811v-1.8h.811a.9.9,0,0,1,0,1.8Zm0,0" transform="translate(-505.061 -820.854)" fill="#fff"/>
</svg>
