<svg width="25" height="25" viewBox="0 0 25 25" fill="none" xmlns="http://www.w3.org/2000/svg">
<path d="M12.5 0C10.0277 0 7.61095 0.733112 5.55534 2.10663C3.49973 3.48015 1.89757 5.43238 0.95148 7.71646C0.00538549 10.0005 -0.242156 12.5139 0.240159 14.9386C0.722474 17.3634 1.91298 19.5907 3.66114 21.3388C5.40929 23.087 7.63658 24.2775 10.0613 24.7598C12.4861 25.2421 14.9994 24.9946 17.2835 24.0485C19.5676 23.1024 21.5198 21.5002 22.8933 19.4446C24.2668 17.389 24.9999 14.9723 24.9999 12.5C24.9962 9.18594 23.6781 6.00867 21.3347 3.66528C18.9913 1.32188 15.814 0.00372204 12.5 0V0ZM12.5 24.3164C10.1629 24.3164 7.87832 23.6234 5.93512 22.325C3.99193 21.0266 2.47739 19.1811 1.58304 17.0219C0.688683 14.8628 0.454679 12.4869 0.910617 10.1947C1.36655 7.90258 2.49196 5.79709 4.14451 4.14454C5.79706 2.49198 7.90254 1.36658 10.1947 0.910643C12.4869 0.454704 14.8627 0.688708 17.0219 1.58306C19.1811 2.47742 21.0265 3.99196 22.3249 5.93516C23.6233 7.87835 24.3164 10.1629 24.3164 12.5C24.3128 15.6328 23.0668 18.6363 20.8515 20.8516C18.6363 23.0668 15.6328 24.3129 12.5 24.3164Z" fill="white"/>
<path d="M12.5 1.95312C10.414 1.95313 8.3749 2.57169 6.64047 3.73059C4.90605 4.8895 3.55423 6.5367 2.75596 8.46389C1.95769 10.3911 1.74883 12.5117 2.15578 14.5576C2.56274 16.6035 3.56723 18.4828 5.04224 19.9578C6.51725 21.4328 8.39652 22.4373 10.4424 22.8442C12.4883 23.2512 14.6089 23.0423 16.5361 22.244C18.4633 21.4458 20.1105 20.094 21.2694 18.3595C22.4283 16.6251 23.0469 14.586 23.0469 12.5C23.0437 9.70376 21.9315 7.02296 19.9543 5.04572C17.977 3.06848 15.2962 1.95628 12.5 1.95312ZM12.5 22.3633C10.5492 22.3633 8.64227 21.7848 7.02026 20.701C5.39825 19.6172 4.13405 18.0768 3.38752 16.2745C2.64099 14.4722 2.44567 12.4891 2.82624 10.5758C3.20682 8.66248 4.14621 6.90501 5.52561 5.52561C6.90502 4.1462 8.66248 3.20682 10.5758 2.82624C12.4891 2.44566 14.4722 2.64099 16.2745 3.38752C18.0768 4.13404 19.6172 5.39825 20.701 7.02025C21.7848 8.64226 22.3633 10.5492 22.3633 12.5C22.3603 15.115 21.3202 17.6221 19.4711 19.4711C17.6221 21.3202 15.115 22.3603 12.5 22.3633Z" fill="white"/>
<path d="M12.5 5.53573C12.5906 5.53568 12.6775 5.49965 12.7416 5.43556C12.8057 5.37147 12.8417 5.28457 12.8418 5.19393V3.66327C12.8418 3.57262 12.8058 3.48568 12.7417 3.42158C12.6776 3.35748 12.5907 3.32147 12.5 3.32147C12.4093 3.32147 12.3224 3.35748 12.2583 3.42158C12.1942 3.48568 12.1582 3.57262 12.1582 3.66327V5.19393C12.1583 5.28457 12.1943 5.37147 12.2584 5.43556C12.3225 5.49965 12.4094 5.53568 12.5 5.53573Z" fill="white"/>
<path d="M12.5 19.4648C12.4093 19.4648 12.3224 19.5009 12.2583 19.565C12.1942 19.6291 12.1582 19.716 12.1582 19.8066V21.3371C12.1582 21.4278 12.1942 21.5147 12.2583 21.5788C12.3224 21.6429 12.4093 21.6789 12.5 21.6789C12.5907 21.6789 12.6776 21.6429 12.7417 21.5788C12.8058 21.5147 12.8418 21.4278 12.8418 21.3371V19.8066C12.8418 19.716 12.8058 19.6291 12.7417 19.565C12.6776 19.5009 12.5907 19.4648 12.5 19.4648Z" fill="white"/>
<path d="M18.5068 6.00997L17.4246 7.09219C17.3605 7.1563 17.3245 7.24324 17.3245 7.33389C17.3245 7.42455 17.3605 7.51149 17.4246 7.57559C17.4887 7.63969 17.5756 7.67571 17.6663 7.67571C17.7569 7.67571 17.8439 7.63969 17.908 7.57559L18.9902 6.49336C19.0219 6.46162 19.0471 6.42394 19.0643 6.38247C19.0815 6.341 19.0903 6.29655 19.0903 6.25167C19.0903 6.20678 19.0815 6.16233 19.0643 6.12086C19.0471 6.07939 19.0219 6.04171 18.9902 6.00997C18.9585 5.97823 18.9208 5.95305 18.8793 5.93587C18.8378 5.91869 18.7934 5.90985 18.7485 5.90985C18.7036 5.90985 18.6592 5.91869 18.6177 5.93587C18.5762 5.95305 18.5385 5.97823 18.5068 6.00997Z" fill="white"/>
<path d="M7.09201 17.4248L6.00978 18.507C5.94568 18.5711 5.90967 18.6581 5.90967 18.7487C5.90967 18.8394 5.94568 18.9263 6.00978 18.9904C6.07389 19.0545 6.16083 19.0905 6.25148 19.0905C6.34214 19.0905 6.42908 19.0545 6.49318 18.9904L7.57542 17.9082C7.63952 17.8441 7.67553 17.7571 7.67553 17.6665C7.67553 17.5758 7.63952 17.4889 7.57542 17.4248C7.54367 17.3931 7.50599 17.3679 7.46452 17.3507C7.42305 17.3335 7.3786 17.3247 7.33371 17.3247C7.24306 17.3247 7.15612 17.3607 7.09201 17.4248Z" fill="white"/>
<path d="M21.3369 12.1584H19.8063C19.7156 12.1584 19.6287 12.1944 19.5646 12.2585C19.5005 12.3226 19.4645 12.4095 19.4645 12.5002C19.4645 12.5908 19.5005 12.6778 19.5646 12.7419C19.6287 12.806 19.7156 12.842 19.8063 12.842H21.3369C21.4276 12.842 21.5145 12.806 21.5786 12.7419C21.6427 12.6778 21.6787 12.5908 21.6787 12.5002C21.6787 12.4095 21.6427 12.3226 21.5786 12.2585C21.5145 12.1944 21.4276 12.1584 21.3369 12.1584Z" fill="white"/>
<path d="M5.19375 12.1584H3.66309C3.57244 12.1584 3.4855 12.1944 3.4214 12.2585C3.3573 12.3226 3.32129 12.4095 3.32129 12.5002C3.32129 12.5908 3.3573 12.6778 3.4214 12.7419C3.4855 12.806 3.57244 12.842 3.66309 12.842H5.19375C5.2844 12.842 5.37134 12.806 5.43544 12.7419C5.49954 12.6778 5.53555 12.5908 5.53555 12.5002C5.53555 12.4095 5.49954 12.3226 5.43544 12.2585C5.37134 12.1944 5.2844 12.1584 5.19375 12.1584Z" fill="white"/>
<path d="M17.908 17.4248C17.8439 17.3607 17.7569 17.3247 17.6663 17.3247C17.5756 17.3247 17.4887 17.3607 17.4246 17.4248C17.3605 17.4889 17.3245 17.5758 17.3245 17.6665C17.3245 17.7571 17.3605 17.8441 17.4246 17.9082L18.5068 18.9904C18.5385 19.0222 18.5762 19.0473 18.6177 19.0645C18.6592 19.0817 18.7036 19.0905 18.7485 19.0905C18.7934 19.0905 18.8378 19.0817 18.8793 19.0645C18.9208 19.0473 18.9585 19.0222 18.9902 18.9904C19.0219 18.9587 19.0471 18.921 19.0643 18.8795C19.0815 18.8381 19.0903 18.7936 19.0903 18.7487C19.0903 18.7038 19.0815 18.6594 19.0643 18.6179C19.0471 18.5764 19.0219 18.5388 18.9902 18.507L17.908 17.4248Z" fill="white"/>
<path d="M6.49318 6.00997C6.46144 5.97823 6.42376 5.95305 6.38229 5.93587C6.34082 5.91869 6.29637 5.90985 6.25148 5.90985C6.2066 5.90985 6.16215 5.91869 6.12068 5.93587C6.07921 5.95305 6.04152 5.97823 6.00978 6.00997C5.97804 6.04171 5.95287 6.07939 5.93569 6.12086C5.91851 6.16233 5.90967 6.20678 5.90967 6.25167C5.90967 6.29655 5.91851 6.341 5.93569 6.38247C5.95287 6.42394 5.97804 6.46162 6.00978 6.49336L7.09201 7.57559C7.15612 7.63969 7.24306 7.67571 7.33371 7.67571C7.42437 7.67571 7.51131 7.63969 7.57542 7.57559C7.63952 7.51149 7.67553 7.42455 7.67553 7.33389C7.67553 7.24324 7.63952 7.1563 7.57542 7.09219L6.49318 6.00997Z" fill="white"/>
<path d="M14.3514 12.7633C14.4014 12.4317 14.36 12.0928 14.2317 11.7831C14.1033 11.4733 13.8929 11.2045 13.6231 11.0055V7.53906C13.6231 7.24121 13.5047 6.95556 13.2941 6.74495C13.0835 6.53434 12.7979 6.41602 12.5 6.41602C12.2022 6.41602 11.9165 6.53434 11.7059 6.74495C11.4953 6.95556 11.377 7.24121 11.377 7.53906V11.0061C11.0422 11.2537 10.7998 11.6063 10.6885 12.0076C10.5773 12.409 10.6034 12.836 10.7629 13.2207C10.9224 13.6055 11.206 13.9258 11.5686 14.1307C11.9311 14.3356 12.3518 14.4134 12.7637 14.3516L14.6531 16.241C14.8638 16.4516 15.1494 16.57 15.4473 16.57C15.7451 16.57 16.0308 16.4516 16.2414 16.241C16.452 16.0304 16.5704 15.7447 16.5704 15.4469C16.5704 15.149 16.452 14.8634 16.2414 14.6527L14.3514 12.7633ZM12.0606 7.53906C12.0606 7.42251 12.1069 7.31074 12.1893 7.22832C12.2717 7.14591 12.3835 7.09961 12.5 7.09961C12.6166 7.09961 12.7283 7.14591 12.8108 7.22832C12.8932 7.31074 12.9395 7.42251 12.9395 7.53906V10.6836C12.6509 10.6115 12.3491 10.6115 12.0606 10.6836V7.53906ZM11.3117 12.5C11.3118 12.265 11.3815 12.0353 11.5121 11.8399C11.6427 11.6445 11.8283 11.4922 12.0454 11.4023C12.2625 11.3124 12.5015 11.2889 12.732 11.3348C12.9624 11.3806 13.1742 11.4938 13.3403 11.66C13.5065 11.8262 13.6196 12.0379 13.6655 12.2684C13.7113 12.4989 13.6878 12.7379 13.5978 12.955C13.5079 13.1721 13.3556 13.3577 13.1602 13.4882C12.9648 13.6188 12.735 13.6885 12.5 13.6885C12.1849 13.6881 11.8829 13.5628 11.6601 13.34C11.4373 13.1172 11.312 12.8151 11.3117 12.5ZM15.7576 15.7578C15.6751 15.8401 15.5633 15.8863 15.4468 15.8863C15.3302 15.8863 15.2185 15.8401 15.1359 15.7578L13.474 14.0957C13.7273 13.9405 13.9403 13.7275 14.0955 13.4742L15.7576 15.1361C15.8399 15.2187 15.8861 15.3304 15.8861 15.447C15.8861 15.5635 15.8399 15.6753 15.7576 15.7578Z" fill="white"/>
</svg>
