<svg width="25" height="25" viewBox="0 0 25 25" fill="none" xmlns="http://www.w3.org/2000/svg">
<path d="M12.5 0C5.60721 0 0 5.60721 0 12.5C0 14.8514 0.653365 17.1341 1.89279 19.1163C1.39904 20.8462 0.507212 24.1183 0.497596 24.1524C0.451442 24.3216 0.500961 24.5024 0.627404 24.624C0.753846 24.7457 0.936538 24.7889 1.10288 24.738L6.05769 23.2139C7.99856 24.3832 10.2212 25 12.5 25C19.3928 25 25 19.3928 25 12.5C25 5.60721 19.3928 0 12.5 0ZM12.5 24.0385C10.3274 24.0385 8.21106 23.4312 6.37933 22.2832C6.30192 22.2346 6.21298 22.2101 6.12404 22.2101C6.07644 22.2101 6.02885 22.2173 5.98269 22.2313L1.65625 23.563C1.97404 22.4029 2.54519 20.3279 2.87644 19.1736C2.9149 19.0399 2.89327 18.8957 2.81779 18.7788C1.60337 16.9101 0.961538 14.7389 0.961538 12.5C0.961538 6.13798 6.13798 0.961538 12.5 0.961538C18.862 0.961538 24.0385 6.13798 24.0385 12.5C24.0385 18.862 18.862 24.0385 12.5 24.0385Z" fill="white"/>
<path d="M20.6659 15.4452C19.7784 14.9524 19.0226 14.4582 18.4711 14.0976C18.05 13.8226 17.7457 13.624 17.5226 13.512C16.899 13.201 16.4264 13.4207 16.2466 13.6024C16.224 13.625 16.2038 13.6495 16.1865 13.6755C15.5389 14.6471 14.6933 15.5764 14.4457 15.6264C14.1596 15.5817 12.8207 14.8207 11.4899 13.7125C10.1312 12.5803 9.27643 11.4961 9.15095 10.7577C10.0226 9.86057 10.3365 9.29614 10.3365 8.65384C10.3365 7.99182 8.7923 5.22787 8.51297 4.94855C8.23268 4.66874 7.60143 4.62499 6.63653 4.8173C6.54374 4.83605 6.45816 4.88172 6.39086 4.94855C6.27403 5.06538 3.54038 7.85239 4.83941 11.2303C6.26538 14.9375 9.92547 19.2466 14.5918 19.9466C15.1221 20.026 15.6192 20.0654 16.0846 20.0654C18.8298 20.0654 20.45 18.6841 20.9062 15.9442C20.9404 15.7437 20.8437 15.5437 20.6659 15.4452ZM14.7346 18.9957C9.79999 18.2558 6.69182 13.3668 5.73701 10.8851C4.78989 8.42355 6.53653 6.22884 6.97499 5.73268C7.33172 5.67211 7.7072 5.64662 7.86393 5.67114C8.19134 6.12643 9.32499 8.26826 9.37499 8.65384C9.37499 8.90624 9.29278 9.25768 8.31393 10.237C8.22355 10.3269 8.17307 10.449 8.17307 10.5769C8.17307 13.0942 13.4827 16.5865 14.4231 16.5865C15.2409 16.5865 16.3072 15.212 16.9144 14.3163C16.9495 14.3178 17.0086 14.3298 17.0928 14.3721C17.2659 14.4591 17.5659 14.6548 17.9452 14.9029C18.4461 15.2303 19.1115 15.6649 19.8971 16.1154C19.5404 17.8317 18.5433 19.5678 14.7346 18.9957Z" fill="white"/>
</svg>
