<svg width="25" height="25" viewBox="0 0 25 25" fill="none" xmlns="http://www.w3.org/2000/svg">
<path d="M13.3621 0C13.1241 0 12.9311 0.192997 12.9311 0.431034V11.6379C12.9311 11.876 13.1241 12.069 13.3621 12.069H24.569C24.807 12.069 25 11.876 25 11.6379C24.9929 5.21345 19.7866 0.00715582 13.3621 0ZM13.7931 11.2069V0.870698C19.4031 1.10179 23.8982 5.59692 24.1293 11.2069H13.7931Z" fill="white"/>
<path d="M22.8448 12.931H12.069V2.15516C12.069 1.91712 11.876 1.72412 11.6379 1.72412C5.21051 1.72412 0 6.93463 0 13.3621C0 19.7895 5.21051 25 11.6379 25C18.0654 25 23.2759 19.7895 23.2759 13.3621C23.2759 13.124 23.0829 12.931 22.8448 12.931ZM11.6379 24.1379C5.77056 24.1379 0.981614 19.4439 0.864174 13.5776C0.746734 7.71146 5.34415 2.82949 11.2069 2.59482V13.3621C11.2069 13.6001 11.3999 13.7931 11.6379 13.7931H22.4052C22.1673 19.5691 17.419 24.1312 11.6379 24.1379Z" fill="white"/>
</svg>
